<!-- Generated by IcoMoon.io -->
<svg version="1.1" xmlns="http://www.w3.org/2000/svg" width="1024" height="1024" viewBox="0 0 1024 1024">
<title>vg-concierge</title>
<g id="icomoon-ignore">
</g>
<path d="M511.574 0c-109.953 0-147.67 78.336-193.707 173.824-274.347 546.9-274.347 577.022-274.347 631.724 0 64.467 27.435 125.227 75.221 166.654 63.232 54.829 149.973 56.959 174.421 46.764l0.086 0.385c86.571-10.412 161.154-74.752 218.752-139.182 233.771 261.464 468.48 115.798 468.48-74.621 0-54.702 0-84.824-274.219-631.511-46.379-96.086-83.542-174.037-194.687-174.037v0zM512 781.566c-69.845-92.455-106.667-172.073-106.667-230.74 0-78.676 53.591-113.918 106.667-113.918s106.668 35.242 106.668 113.918c0 58.708-36.823 138.285-106.668 230.74zM916.48 805.548c0 134.013-163.967 250.622-362.070 25.94 85.119-109.908 128.258-204.329 128.258-280.662 0-116.822-85.848-177.919-170.668-177.919s-170.667 61.097-170.667 177.919c0 76.333 43.179 170.754 128.257 280.662-205.782 233.386-362.070 99.881-362.070-25.94 0-85.164 140.16-335.061 274.432-617.303 39.383-81.621 63.062-124.245 130.474-124.245 77.91 0 98.476 63.189 136.364 138.155 0.041 0.128 0.086 0.213 0.172 0.341 267.518 533.375 267.518 562.604 267.518 603.052z"></path>
</svg>
