<svg width="25" height="25" viewBox="0 0 25 25" fill="none" xmlns="http://www.w3.org/2000/svg">
<path d="M0 24.8279V0H9.37895C12.6279 0 15.0921 0.579772 16.7718 1.73932C18.4514 2.88749 19.2912 4.57566 19.2912 6.8038C19.2912 8.02019 18.9541 9.09447 18.2798 10.0267C17.6055 10.9475 16.6676 11.6239 15.4661 12.0559C16.8392 12.3742 17.9181 13.0165 18.7027 13.9827C19.4996 14.949 19.8981 16.1313 19.8981 17.5296C19.8981 19.9169 19.0767 21.7244 17.4338 22.9522C15.791 24.1799 13.4493 24.8052 10.4088 24.8279H0ZM5.51703 14.0169V20.7183H10.2433C11.5429 20.7183 12.5543 20.4341 13.2777 19.8657C14.0133 19.286 14.3811 18.4902 14.3811 17.4784C14.3811 15.2048 13.1121 14.051 10.5743 14.0169H5.51703ZM5.51703 10.4018H9.59964C12.3827 10.3563 13.7742 9.32752 13.7742 7.31537C13.7742 6.18992 13.4186 5.38279 12.7076 4.89396C12.0087 4.39377 10.8992 4.14367 9.37895 4.14367H5.51703V10.4018Z" fill="#014880"/>
<path d="M25.0004 22.8873C25.0004 24.0542 24.0284 25.0001 22.8293 25.0001C21.6302 25.0001 20.6582 24.0542 20.6582 22.8873C20.6582 21.7204 21.6302 20.7744 22.8293 20.7744C24.0284 20.7744 25.0004 21.7204 25.0004 22.8873Z" fill="#00A0DC"/>
</svg>
