<!-- Generated by IcoMoon.io -->
<svg version="1.1" xmlns="http://www.w3.org/2000/svg" width="1024" height="1024" viewBox="0 0 1024 1024">
<title>vg-concierge</title>
<g id="icomoon-ignore">
</g>
<path d="M734.135 375.194c-16.64-16.663-43.692-16.663-60.332 0l-183.168 183.146-76.5-76.478c-16.64-16.662-43.692-16.662-60.331 0-16.661 16.658-16.661 43.666 0 60.328l106.667 106.668c8.32 8.342 19.244 12.504 30.164 12.504 10.924 0 21.848-4.162 30.168-12.504l213.332-213.336c16.662-16.658 16.662-43.666 0-60.328z"></path>
<path d="M981.332 469.332c-23.552 0-42.664 19.116-42.664 42.668 0 235.264-191.404 426.668-426.668 426.668s-426.667-191.404-426.667-426.668c0-235.264 191.403-426.667 426.667-426.667 114.538 0 222.058 44.758 302.782 126.038 16.578 16.746 43.608 16.832 60.332 0.213 16.724-16.597 16.812-43.605 0.212-60.331-96.852-97.536-225.898-151.253-363.326-151.253-282.325 0-512 229.675-512 512s229.675 512 512 512c282.324 0 512-229.676 512-512 0-23.552-19.116-42.668-42.668-42.668z"></path>
</svg>
