<svg width="470" height="512" viewBox="0 0 470 512" fill="none" xmlns="http://www.w3.org/2000/svg">
<path d="M294.452 136.653L328.585 196.386C333.14 204.229 334.354 213.572 331.956 222.319C331.516 223.776 330.977 225.202 330.343 226.586L357.103 318.336C394.918 311.611 431.827 334.083 443.213 370.765L468.498 450.705C472.713 464.05 465.431 478.307 452.148 482.714L407.459 497.673C392.511 514.509 367.033 516.783 349.34 502.859C331.647 488.935 327.868 463.636 340.719 445.15L281.643 242.569C276.557 239.614 272.334 235.377 269.398 230.281L243.124 184.32L219.683 180.053L306.049 468.045C308.667 476.698 307.736 486.038 303.46 494.004C299.184 501.97 291.915 507.907 283.256 510.507C280.064 511.496 276.742 512 273.4 512C258.354 511.916 245.115 502.048 240.734 487.654L198.418 346.726L151.544 385.033L136.508 483.098C133.984 499.779 119.605 512.084 102.733 512C100.982 512.016 99.2339 511.868 97.5109 511.556C78.8961 508.671 66.1257 491.267 68.9584 472.644L86.0251 361.626C87.3893 353.353 91.7065 345.855 98.1765 340.523L156.203 293.06L137.891 223.625L110.866 253.406C104.383 260.464 95.2498 264.497 85.6667 264.533H34.4667C15.6153 264.533 0.333331 249.251 0.333331 230.4C0.333331 211.549 15.6153 196.267 34.4667 196.267H70.5371L132.6 128C102.638 128.072 76.6159 107.398 69.9111 78.1962C63.2064 48.9943 77.6045 19.0398 104.597 6.03502C131.589 -6.96976 163.988 0.437854 182.647 23.8802C201.306 47.3225 201.257 80.5576 182.529 103.945L271.011 120.03C280.913 121.797 289.509 127.893 294.452 136.653V136.653ZM325.342 331.452C330.145 328.114 335.295 325.307 340.702 323.081L317.091 242.116C316.698 242.355 316.374 242.679 315.964 242.91C311.324 245.546 306.124 247.044 300.792 247.279L325.342 331.452ZM446.789 466.517C451.208 465.046 453.631 460.302 452.233 455.859L427 375.919C417.386 344.901 384.6 327.396 353.477 336.666C345.043 339.132 337.203 343.296 330.437 348.902L354.799 432.427C361.175 428.702 368.416 426.716 375.8 426.667C399.352 426.695 418.438 445.781 418.467 469.333C418.425 471.647 418.191 473.953 417.767 476.228L446.789 466.517ZM375.8 494.933C389.939 494.933 401.4 483.472 401.4 469.333C401.4 455.195 389.939 443.733 375.8 443.733C361.662 443.733 350.2 455.195 350.2 469.333C350.2 483.472 361.662 494.933 375.8 494.933ZM132.6 17.0667C106.679 17.0667 85.6667 38.0794 85.6667 64C85.6667 89.9206 106.679 110.933 132.6 110.933C158.521 110.933 179.533 89.9206 179.533 64C179.505 38.0911 158.509 17.0949 132.6 17.0667ZM174.746 119.851C168.927 118.597 162.871 120.421 158.712 124.681C158.383 125.102 158.014 125.49 157.611 125.841L80.6235 210.543C79.0056 212.321 76.7128 213.334 74.3088 213.333H34.4667C25.041 213.333 17.4 220.974 17.4 230.4C17.4 239.826 25.041 247.467 34.4667 247.467H85.6667C90.4652 247.453 95.0401 245.436 98.2875 241.903L135.834 200.516C137.937 198.202 141.137 197.223 144.175 197.965C147.213 198.707 149.602 201.051 150.401 204.075L174.132 294.016C174.984 297.249 173.87 300.681 171.282 302.797L108.988 353.707C105.74 356.39 103.566 360.152 102.861 364.305L85.7947 475.238C85.1241 479.76 86.2832 484.362 89.0155 488.026C91.7478 491.691 95.8278 494.115 100.353 494.763C101.139 494.892 101.936 494.949 102.733 494.933C111.135 494.894 118.28 488.795 119.638 480.503L135.16 379.204C135.48 377.117 136.562 375.223 138.198 373.888L197.505 325.427C199.712 323.625 202.674 323.044 205.399 323.879C208.124 324.714 210.253 326.854 211.073 329.583L257.076 482.756C259.795 491.768 269.298 496.877 278.315 494.174C282.642 492.882 286.276 489.919 288.414 485.942C290.552 481.964 291.017 477.299 289.707 472.977L199.339 171.665C198.488 168.823 199.174 165.742 201.151 163.53C203.129 161.317 206.113 160.291 209.033 160.819L250.078 168.243C252.56 168.693 254.716 170.218 255.966 172.407L284.22 221.867C287.042 227.548 292.783 231.196 299.125 231.337C305.467 231.478 311.365 228.09 314.437 222.54C317.509 216.99 317.25 210.193 313.763 204.894L279.629 145.084C277.161 140.744 272.889 137.729 267.973 136.858L174.746 119.851Z" fill="black"/>
</svg>
