<svg width="20" height="20" viewBox="0 0 20 20" fill="none" xmlns="http://www.w3.org/2000/svg">
<path fill-rule="evenodd" clip-rule="evenodd" d="M16.0238 0.800781H4.13406V2.18014H0V8.65014C0 11.1506 2.79082 13.2083 5.52947 13.4224C6.42852 14.3856 8.0099 15.0853 9.41735 15.3837V17.0748C8.07144 17.4882 5.66727 18.4595 5.52947 19.5178H14.7662C14.6271 18.4595 11.9781 17.4868 10.6295 17.0748V15.3837C12.0423 15.0853 13.6946 14.3856 14.595 13.4224C17.3323 13.2083 20 11.1506 20 8.65014V2.18014H16.0238V0.800781ZM1.26965 3.40564H4.03773V8.97926C4.03773 10.079 4.32136 11.1252 4.82039 12.0671C2.74935 11.4075 1.26965 9.7084 1.26965 7.72031V3.40564ZM12.1118 10.2034L10.0462 9.06488L7.97779 10.2034L8.37247 7.79523L6.70011 6.09077L9.01064 5.7389L10.0462 3.55013L11.079 5.7389L13.3895 6.09077L11.7172 7.79523L12.1118 10.2034ZM15.1823 12.245C15.684 11.2603 15.9716 10.1713 15.9716 9.01939V3.44176H18.7464V7.70425C18.7464 9.78198 17.26 11.556 15.1823 12.245Z" fill="#273951"/>
</svg>
