<svg width="25" height="25" viewBox="0 0 25 25" fill="none" xmlns="http://www.w3.org/2000/svg">
<g clip-path="url(#clip0)">
<path d="M16.1089 0.142433C15.9943 0.0216981 15.8371 -0.0507812 15.6742 -0.0507812H5.92175C4.12216 -0.0507812 2.63672 1.42875 2.63672 3.22815V21.6701C2.63672 23.4697 4.12216 24.9493 5.92175 24.9493H19.1584C20.958 24.9493 22.4434 23.4697 22.4434 21.6701V7.02645C22.4434 6.86947 22.371 6.7186 22.2683 6.60378L16.1089 0.142433ZM16.284 2.08088L20.4085 6.41056H17.7273C16.9302 6.41056 16.284 5.77046 16.284 4.97337V2.08088ZM19.1584 23.7415H5.92175C4.7926 23.7415 3.84445 22.8056 3.84445 21.6701V3.22815C3.84445 2.099 4.7865 1.15695 5.92175 1.15695H15.0763V4.97337C15.0763 6.4407 16.26 7.6183 17.7273 7.6183H21.2357V21.6701C21.2357 22.8056 20.2937 23.7415 19.1584 23.7415Z" fill="#273951"/>
<path d="M17.5083 19.5742H7.56871C7.23664 19.5742 6.96484 19.8458 6.96484 20.1781C6.96484 20.5102 7.23664 20.782 7.56871 20.782H17.5144C17.8465 20.782 18.1183 20.5102 18.1183 20.1781C18.1183 19.8458 17.8465 19.5742 17.5083 19.5742Z" fill="#273951"/>
<path d="M12.1009 17.4081C12.2157 17.5289 12.3726 17.6014 12.5416 17.6014C12.7108 17.6014 12.8678 17.5289 12.9824 17.4081L16.5211 13.6098C16.7506 13.3682 16.7325 12.9817 16.491 12.7584C16.2493 12.5289 15.8629 12.5469 15.6396 12.7885L13.1455 15.4636V8.86949C13.1455 8.53723 12.8737 8.26562 12.5416 8.26562C12.2096 8.26562 11.9378 8.53723 11.9378 8.86949V15.4636L9.44982 12.7885C9.22037 12.5471 8.83985 12.5289 8.59838 12.7584C8.35691 12.9878 8.33879 13.3684 8.56824 13.6098L12.1009 17.4081Z" fill="#273951"/>
</g>
<defs>
<clipPath id="clip0">
<rect width="25" height="25" fill="white"/>
</clipPath>
</defs>
</svg>
