<!-- Generated by IcoMoon.io -->
<svg version="1.1" xmlns="http://www.w3.org/2000/svg" width="32" height="32" viewBox="0 0 32 32">
<title>vg-footer</title>
<path d="M29.44 0.64c1.060 0 1.92 0.86 1.92 1.92v26.88c0 1.060-0.86 1.92-1.92 1.92h-26.88c-1.060 0-1.92-0.86-1.92-1.92v-26.88c0-1.060 0.86-1.92 1.92-1.92h26.88zM2.56 0c-1.414 0-2.56 1.146-2.56 2.56v26.88c0 1.414 1.146 2.56 2.56 2.56h26.88c1.414 0 2.56-1.146 2.56-2.56v-26.88c0-1.414-1.146-2.56-2.56-2.56h-26.88z"></path>
<path d="M7.841 5.282h16.32v0.32h-16.32v-0.32z"></path>
<path d="M7.841 21.92h16.32v0.32h-16.32v-0.32z"></path>
<path d="M7.841 24.479h16.32v0.32h-16.32v-0.32z"></path>
<path d="M7.841 27.038h16.32v0.32h-16.32v-0.32z"></path>
</svg>
