<!-- Generated by IcoMoon.io -->
<svg version="1.1" xmlns="http://www.w3.org/2000/svg" width="32" height="32" viewBox="0 0 32 32">
<title>vg-globe</title>
<path d="M15.988 6.399c-0.344 0-0.688 0.019-1.030 0.055-0.314 0.032-0.623 0.085-0.929 0.148-0.059 0.012-0.118 0.025-0.178 0.039-1.801 0.41-3.445 1.331-4.736 2.652-0.12 0.123-0.238 0.25-0.352 0.38-3.486 4.003-3.068 10.073 0.935 13.56 3.832 3.338 9.6 3.116 13.164-0.507 0.12-0.123 0.238-0.25 0.353-0.38 1.538-1.752 2.386-4.005 2.385-6.337 0-5.308-4.303-9.611-9.611-9.611zM9.543 9.774c0.051-0.053 0.103-0.103 0.155-0.154 0.060-0.059 0.119-0.118 0.18-0.174 0.053-0.050 0.109-0.098 0.163-0.147 0.062-0.055 0.123-0.11 0.187-0.162 0.056-0.047 0.113-0.092 0.17-0.138 0.064-0.051 0.128-0.102 0.194-0.152 0.058-0.044 0.118-0.086 0.177-0.128 0.066-0.047 0.133-0.096 0.201-0.14 0.061-0.041 0.122-0.081 0.183-0.12 0.069-0.044 0.137-0.087 0.207-0.128 0.063-0.037 0.126-0.074 0.189-0.11 0.071-0.040 0.142-0.080 0.214-0.118 0.064-0.034 0.128-0.068 0.192-0.1 0.073-0.037 0.147-0.072 0.221-0.107 0.064-0.030 0.131-0.061 0.197-0.090 0.075-0.032 0.152-0.064 0.228-0.096 0.066-0.027 0.132-0.054 0.199-0.079 0.078-0.029 0.156-0.057 0.235-0.085 0.067-0.023 0.134-0.047 0.202-0.069 0.080-0.026 0.16-0.049 0.241-0.073 0.068-0.020 0.135-0.040 0.202-0.058 0.026-0.007 0.052-0.012 0.078-0.019-0.948 0.921-1.652 2.064-2.047 3.325-0.76-0.201-1.497-0.484-2.195-0.845 0.011-0.011 0.020-0.022 0.029-0.032zM9.082 10.29c0.77 0.417 1.586 0.742 2.431 0.968-0.415 1.441-0.632 2.932-0.647 4.432h-3.841c0.070-1.978 0.793-3.877 2.057-5.4zM9.082 21.73c-1.264-1.523-1.987-3.422-2.057-5.4h3.841c0.015 1.5 0.232 2.991 0.647 4.432-0.846 0.226-1.662 0.551-2.431 0.967zM13.677 24.677c-0.065-0.016-0.132-0.038-0.198-0.057-0.081-0.024-0.162-0.047-0.242-0.073-0.068-0.022-0.134-0.045-0.201-0.069-0.079-0.027-0.158-0.055-0.236-0.085-0.067-0.025-0.132-0.052-0.198-0.079-0.077-0.032-0.153-0.064-0.229-0.096-0.065-0.029-0.13-0.059-0.195-0.089-0.075-0.035-0.149-0.071-0.224-0.108-0.064-0.032-0.128-0.064-0.192-0.099-0.072-0.039-0.144-0.079-0.216-0.12-0.064-0.036-0.125-0.072-0.187-0.109-0.070-0.042-0.14-0.086-0.209-0.13-0.061-0.039-0.122-0.078-0.182-0.119-0.068-0.046-0.136-0.094-0.203-0.142-0.059-0.042-0.117-0.084-0.175-0.128-0.066-0.050-0.131-0.102-0.196-0.153-0.057-0.045-0.113-0.090-0.168-0.137-0.064-0.053-0.126-0.109-0.188-0.164-0.054-0.048-0.109-0.096-0.162-0.145-0.061-0.057-0.12-0.116-0.18-0.175-0.052-0.051-0.104-0.101-0.155-0.153-0.009-0.010-0.018-0.020-0.028-0.030 0.699-0.361 1.435-0.644 2.195-0.845 0.396 1.261 1.099 2.404 2.047 3.325-0.026-0.007-0.052-0.012-0.078-0.019zM15.668 24.955c-1.371-0.195-2.573-1.626-3.329-3.738 1.093-0.245 2.209-0.376 3.329-0.392v4.13zM15.668 20.184c-1.188 0.016-2.371 0.157-3.53 0.421-0.402-1.39-0.614-2.828-0.631-4.275h4.161v3.854zM15.668 15.69h-4.161c0.016-1.447 0.229-2.885 0.631-4.275 1.159 0.264 2.342 0.405 3.53 0.421v3.854zM15.668 11.196c-1.12-0.016-2.236-0.147-3.329-0.392 0.756-2.113 1.958-3.544 3.329-3.738v4.13zM22.894 10.29c1.264 1.523 1.987 3.422 2.057 5.4h-3.841c-0.015-1.5-0.232-2.991-0.647-4.432 0.846-0.226 1.662-0.551 2.431-0.968zM18.297 7.344c0.067 0.017 0.134 0.038 0.201 0.057 0.081 0.024 0.163 0.047 0.243 0.073 0.068 0.022 0.134 0.045 0.201 0.069 0.079 0.027 0.158 0.055 0.236 0.085 0.067 0.025 0.132 0.052 0.198 0.079 0.077 0.032 0.153 0.064 0.229 0.096 0.065 0.029 0.13 0.059 0.195 0.089 0.075 0.035 0.149 0.071 0.224 0.108 0.064 0.032 0.128 0.064 0.192 0.099 0.072 0.039 0.144 0.079 0.216 0.12 0.064 0.036 0.125 0.072 0.187 0.109 0.071 0.042 0.14 0.086 0.209 0.13 0.061 0.039 0.122 0.078 0.182 0.119 0.068 0.046 0.135 0.094 0.203 0.142 0.059 0.042 0.117 0.084 0.175 0.128 0.066 0.050 0.131 0.101 0.196 0.153 0.056 0.045 0.113 0.090 0.168 0.136 0.064 0.053 0.126 0.109 0.188 0.164 0.055 0.048 0.109 0.096 0.163 0.145 0.061 0.057 0.12 0.116 0.18 0.175 0.052 0.051 0.104 0.101 0.155 0.153 0.009 0.010 0.018 0.020 0.028 0.030-0.699 0.361-1.435 0.645-2.195 0.845-0.396-1.261-1.101-2.404-2.050-3.324 0.026 0.007 0.052 0.012 0.078 0.019zM16.309 7.065c1.371 0.195 2.573 1.626 3.329 3.738-1.093 0.245-2.209 0.376-3.329 0.392v-4.13zM16.309 11.836c1.188-0.016 2.371-0.157 3.53-0.421 0.402 1.39 0.615 2.828 0.631 4.275h-4.161v-3.854zM16.309 16.331h4.161c-0.016 1.447-0.229 2.885-0.631 4.275-1.158-0.264-2.342-0.405-3.53-0.421v-3.854zM16.309 24.955v-4.13c1.12 0.015 2.236 0.147 3.329 0.392-0.756 2.113-1.958 3.543-3.329 3.738zM22.434 22.246c-0.051 0.052-0.103 0.102-0.154 0.153-0.060 0.059-0.119 0.118-0.18 0.175-0.053 0.050-0.108 0.096-0.163 0.146-0.062 0.055-0.124 0.11-0.187 0.163-0.056 0.047-0.113 0.092-0.17 0.137-0.064 0.051-0.128 0.102-0.194 0.152-0.058 0.044-0.118 0.087-0.177 0.128-0.066 0.047-0.133 0.096-0.201 0.14-0.060 0.041-0.122 0.081-0.183 0.12-0.068 0.044-0.138 0.087-0.207 0.128-0.064 0.038-0.125 0.074-0.188 0.11-0.071 0.040-0.142 0.080-0.214 0.118-0.064 0.034-0.128 0.068-0.192 0.1-0.073 0.037-0.147 0.072-0.221 0.107-0.064 0.030-0.131 0.061-0.197 0.090-0.075 0.032-0.152 0.064-0.228 0.096-0.066 0.027-0.132 0.054-0.199 0.079-0.078 0.030-0.157 0.058-0.235 0.085-0.067 0.023-0.133 0.047-0.201 0.069-0.080 0.026-0.16 0.050-0.242 0.073-0.067 0.020-0.134 0.040-0.202 0.058-0.026 0.007-0.052 0.012-0.078 0.019 0.948-0.921 1.652-2.063 2.047-3.325 0.76 0.201 1.497 0.484 2.195 0.845-0.011 0.011-0.020 0.023-0.029 0.032zM22.894 21.73c-0.77-0.417-1.586-0.742-2.431-0.967 0.415-1.441 0.632-2.932 0.647-4.432h3.841c-0.070 1.978-0.793 3.877-2.057 5.4z"></path>
<path d="M29.44 0.64c1.060 0 1.92 0.86 1.92 1.92v26.88c0 1.060-0.86 1.92-1.92 1.92h-26.88c-1.060 0-1.92-0.86-1.92-1.92v-26.88c0-1.060 0.86-1.92 1.92-1.92h26.88zM2.56 0c-1.414 0-2.56 1.146-2.56 2.56v26.88c0 1.414 1.146 2.56 2.56 2.56h26.88c1.414 0 2.56-1.146 2.56-2.56v-26.88c0-1.414-1.146-2.56-2.56-2.56h-26.88z"></path>
</svg>
