<svg width="25" height="25" viewBox="0 0 25 25" fill="none" xmlns="http://www.w3.org/2000/svg">
<g clip-path="url(#clip0)">
<path d="M24.375 10.8258C24.3743 10.8253 24.3737 10.8245 24.3731 10.8239L14.1751 0.626275C13.7404 0.191399 13.1625 -0.0479736 12.5477 -0.0479736C11.933 -0.0479736 11.3551 0.191399 10.9202 0.626275L0.72749 10.8188C0.724057 10.8222 0.720433 10.8258 0.71719 10.8293C-0.175451 11.7271 -0.173925 13.1837 0.721577 14.0792C1.1307 14.4885 1.67087 14.7254 2.2486 14.7504C2.27225 14.7527 2.29591 14.7538 2.31975 14.7538H2.72601V22.2585C2.72601 23.7438 3.93451 24.9521 5.41977 24.9521H9.40957C9.81412 24.9521 10.142 24.624 10.142 24.2197V18.3359C10.142 17.6582 10.6934 17.1069 11.3711 17.1069H13.7244C14.4021 17.1069 14.9533 17.6582 14.9533 18.3359V24.2197C14.9533 24.624 15.2812 24.9521 15.6857 24.9521H19.6755C21.161 24.9521 22.3693 23.7438 22.3693 22.2585V14.7538H22.7462C23.3607 14.7538 23.9386 14.5145 24.3737 14.0794C25.2702 13.1826 25.2705 11.7233 24.375 10.8258V10.8258ZM23.3378 13.0437C23.1797 13.2018 22.9695 13.289 22.7462 13.289H21.6368C21.2323 13.289 20.9044 13.6169 20.9044 14.0214V22.2585C20.9044 22.936 20.3532 23.4872 19.6755 23.4872H16.4181V18.3359C16.4181 16.8506 15.2098 15.6421 13.7244 15.6421H11.3711C9.88564 15.6421 8.67714 16.8506 8.67714 18.3359V23.4872H5.41977C4.74228 23.4872 4.19086 22.936 4.19086 22.2585V14.0214C4.19086 13.6169 3.86299 13.289 3.45844 13.289H2.36819C2.35675 13.2882 2.3455 13.2877 2.33386 13.2875C2.11566 13.2837 1.911 13.1971 1.75765 13.0435C1.43149 12.7174 1.43149 12.1865 1.75765 11.8602C1.75784 11.8602 1.75784 11.86 1.75803 11.8598L1.7586 11.8592L11.9563 1.66197C12.1142 1.50385 12.3242 1.41687 12.5477 1.41687C12.7711 1.41687 12.9811 1.50385 13.1392 1.66197L23.3346 11.8571C23.3361 11.8587 23.3378 11.8602 23.3393 11.8617C23.6638 12.1885 23.6632 12.7181 23.3378 13.0437V13.0437Z" fill="#273951"/>
</g>
<defs>
<clipPath id="clip0">
<rect width="25" height="25" fill="white"/>
</clipPath>
</defs>
</svg>
