<svg id="Capa_1" enable-background="new 0 0 512 512" height="512" viewBox="0 0 512 512" width="512" xmlns="http://www.w3.org/2000/svg"><g><path d="m485.58 458.388h-41.92v-248.882l4.048 2.506c6.158 3.817 13.436 5.004 20.487 3.346 7.049-1.659 13.032-5.962 16.852-12.123l16.191-26.152c7.87-12.718 3.931-29.466-8.78-37.333l-89.95-55.7c-3.52-2.181-8.143-1.094-10.325 2.428-2.181 3.522-1.093 8.145 2.429 10.325l89.951 55.701c5.68 3.515 7.438 11 3.921 16.685l-16.188 26.146c-1.708 2.754-4.384 4.68-7.536 5.421-3.151.743-6.399.211-9.151-1.496l-195.66-121.15c-2.42-1.498-5.478-1.498-7.896 0l-195.665 121.154c-2.748 1.705-5.997 2.236-9.147 1.494-3.152-.742-5.828-2.667-7.533-5.417l-16.189-26.149c-1.704-2.752-2.234-6.005-1.493-9.159.741-3.152 2.663-5.825 5.414-7.528l214.079-132.56c8.933-5.53 20.031-5.531 28.964 0l98.66 61.09c3.521 2.182 8.144 1.094 10.325-2.428 2.181-3.521 1.093-8.144-2.429-10.325l-98.66-61.091c-13.805-8.546-30.953-8.545-44.756 0l-214.08 132.559c-6.159 3.812-10.463 9.796-12.121 16.851-1.657 7.052-.471 14.327 3.341 20.485l16.192 26.154c3.817 6.156 9.801 10.46 16.849 12.119 2.079.489 4.177.731 6.261.731 4.984 0 9.883-1.384 14.223-4.075l4.052-2.509v248.882h-41.92c-7.074 0-13.712 2.75-18.683 7.737-4.989 4.989-7.737 11.621-7.737 18.673 0 14.568 11.852 26.42 26.42 26.42h68.44c4.142 0 7.5-3.358 7.5-7.5s-3.358-7.5-7.5-7.5h-68.44c-6.297 0-11.42-5.123-11.42-11.42 0-3.045 1.188-5.91 3.351-8.074 2.145-2.151 5.01-3.335 8.069-3.335h459.16c6.297 0 11.42 5.118 11.42 11.41 0 3.053-1.188 5.921-3.344 8.077-2.155 2.156-5.023 3.343-8.076 3.343h-360.76c-4.142 0-7.5 3.358-7.5 7.5s3.358 7.5 7.5 7.5h360.76c7.059 0 13.694-2.748 18.684-7.737 4.988-4.989 7.736-11.625 7.736-18.684 0-14.563-11.852-26.41-26.42-26.41zm-229.58-365.078 172.66 106.909v258.165h-345.32v-258.166z"/><path d="m202.498 320.627h11.206v49.933h-11.206c-16.056 0-29.118 13.062-29.118 29.118s13.062 29.118 29.118 29.118h107.004c16.056 0 29.118-13.062 29.118-29.118s-13.062-29.118-29.118-29.118h-5.78v-79.975c0-15.547-12.648-28.195-28.195-28.195h-73.028c-16.056 0-29.118 13.062-29.118 29.118s13.061 29.119 29.117 29.119zm0-43.236h73.028c7.276 0 13.195 5.919 13.195 13.195v87.475c0 4.142 3.357 7.5 7.5 7.5h13.28c7.785 0 14.118 6.333 14.118 14.118s-6.333 14.118-14.118 14.118h-107.003c-7.785 0-14.118-6.333-14.118-14.118s6.333-14.118 14.118-14.118h18.706c4.142 0 7.5-3.358 7.5-7.5v-64.933c0-4.142-3.358-7.5-7.5-7.5h-18.706c-7.785 0-14.118-6.333-14.118-14.118s6.333-14.119 14.118-14.119z"/><path d="m258.713 244.245c24.818 0 45.009-20.191 45.009-45.009s-20.19-45.009-45.009-45.009c-24.818 0-45.009 20.191-45.009 45.009s20.191 45.009 45.009 45.009zm0-75.018c16.547 0 30.009 13.462 30.009 30.009s-13.462 30.009-30.009 30.009-30.009-13.462-30.009-30.009 13.462-30.009 30.009-30.009z"/></g></svg>