<svg width="25" height="25" viewBox="0 0 25 25" fill="none" xmlns="http://www.w3.org/2000/svg">
<path d="M15.8538 1.64512C15.4121 1.51597 14.9492 1.76904 14.8199 2.21079C14.6906 2.65249 14.9438 3.11538 15.3856 3.24468C19.622 4.48467 22.7506 8.40395 22.7506 13.0833C22.7506 18.7352 18.1525 23.3333 12.5006 23.3333C6.84878 23.3333 2.25064 18.7352 2.25064 13.0833C2.25064 8.41392 5.36968 4.4875 9.61563 3.24473C10.0573 3.11543 10.3106 2.65254 10.1813 2.21084C10.052 1.76909 9.58887 1.51592 9.14746 1.64517C4.26265 3.075 0.583984 7.60078 0.583984 13.0833C0.583984 19.6696 5.91377 25 12.5006 25C19.087 25 24.4173 19.6702 24.4173 13.0833C24.4173 7.63691 20.7742 3.08535 15.8538 1.64512Z" fill="#273951"/>
<path d="M12.5003 0C12.0401 0 11.667 0.373096 11.667 0.83335V8.69756C11.667 9.15776 12.0401 9.53091 12.5003 9.53091C12.9606 9.53091 13.3337 9.15781 13.3337 8.69756V0.83335C13.3337 0.373096 12.9606 0 12.5003 0Z" fill="#273951"/>
</svg>
