<svg width="380" height="93" viewBox="0 0 380 93" fill="none" xmlns="http://www.w3.org/2000/svg">
<path d="M24.6702 67.7308C24.2666 67.8815 23.2576 68.0823 21.6432 68.3334C20.0288 68.6347 18.5405 68.7854 17.1783 68.7854C15.8666 68.7854 15.1099 68.4087 14.9081 67.6555C14 64.542 12.6378 58.4657 10.8216 49.4266C9.00538 40.3372 7.16394 32.1015 5.29728 24.7196C3.48107 17.3376 1.71531 12.4414 0 10.031C2.77477 8.72535 4.96936 8.07252 6.58377 8.07252C8.19817 8.07252 9.35853 8.24828 10.0648 8.59981C10.7711 8.95133 11.4522 9.7297 12.1081 10.9349C12.8144 12.1401 13.4198 13.7471 13.9243 15.7558C14.681 18.7688 15.6144 23.2382 16.7243 29.1638C17.8342 35.0895 18.4648 38.3536 18.6162 38.9562C20.3819 47.8949 21.5423 54.0215 22.0972 57.3358C25.3765 50.3556 29.0089 41.0905 32.9945 29.5405C36.9801 17.9402 38.9729 10.4076 38.9729 6.94263C44.6737 7.89676 47.5242 9.7548 47.5242 12.5168C47.5242 14.5757 46.0864 18.9446 43.2107 25.6235C40.3855 32.2522 36.9549 39.9104 32.9188 48.598C28.9333 57.2354 26.1837 63.613 24.6702 67.7308Z" fill="#AC2551"/>
<path d="M52.5258 53.4942C52.5258 55.8544 52.9546 57.7878 53.8123 59.2943C54.7204 60.7506 55.9816 61.4787 57.596 61.4787C59.9672 61.4787 62.2122 60.0978 64.3311 57.3358C66.5005 54.5738 68.2158 51.0335 69.4771 46.7148C70.7888 42.3961 71.4446 38.3034 71.4446 34.4367C71.4446 30.5197 71.2933 27.356 70.9906 24.9456C72.5041 24.8451 73.5635 24.7949 74.1689 24.7949C76.7419 24.7949 78.6842 25.272 79.9959 26.2261C81.3077 27.1802 81.9635 28.8876 81.9635 31.3483C81.9635 32.3024 81.3581 36.1943 80.1473 43.0238C78.9365 49.8032 78.3311 55.2518 78.3311 59.3696C78.3311 63.4372 79.1131 67.0529 80.677 70.2166C76.8932 69.5637 74.1185 68.1828 72.3527 66.0736C70.587 63.9143 69.7041 60.8259 69.7041 56.8085C69.7041 56.1055 69.805 54.7496 70.0068 52.7409C68.6446 57.5116 66.223 61.3532 62.7419 64.2658C59.2609 67.1784 55.8303 68.6347 52.4502 68.6347C49.1204 68.6347 46.4214 67.4044 44.3529 64.9437C42.3349 62.4329 41.3259 58.8925 41.3259 54.3228C41.3259 49.753 42.1331 45.3338 43.7475 41.0654C45.4124 36.7467 47.8844 33.1059 51.1637 30.1431C54.443 27.13 58.1005 25.6235 62.1365 25.6235C64.4573 25.6235 66.8284 26.1759 69.25 27.2807C64.1545 29.0885 60.0933 32.6539 57.0663 37.977C54.0393 43.2498 52.5258 48.4222 52.5258 53.4942Z" fill="#AC2551"/>
<path d="M89.1349 65.8476C88.5295 64.8433 88.1512 63.8892 87.9998 62.9853C87.8485 62.0311 87.7728 60.5748 87.7728 58.6163C87.7728 56.6579 88.6052 48.9495 90.2701 35.4912C91.9854 22.033 93.1164 14.8141 93.1164 9.79239C93.1164 4.77066 92.8137 1.50652 92.2083 0C95.9921 1.00435 98.565 2.53598 99.9272 4.59489C101.34 6.60359 102.046 9.46598 102.046 13.1821C102.046 15.3916 101.041 20.5515 99.5782 32.7042C98.1151 44.8568 97.3836 54.6492 97.3836 62.0813C97.3836 63.6883 97.4845 65.9481 97.6863 68.8607C93.0953 68.6598 90.2449 67.6555 89.1349 65.8476Z" fill="#AC2551"/>
<path d="M131.273 24.2676C132.787 24.1672 133.846 24.117 134.452 24.117C137.075 24.117 139.068 24.594 140.43 25.5482C141.792 26.5023 142.473 28.2599 142.473 30.821C142.473 31.6245 141.994 35.1648 141.035 41.442C140.077 47.6689 139.597 53.0171 139.597 57.4865C139.597 61.9558 140.077 65.8979 141.035 69.3126C137.252 68.1074 134.628 66.4 133.165 64.1905C131.702 61.9809 130.97 59.2441 130.97 55.9799C130.97 54.7245 131.248 51.8872 131.803 47.4681C130.239 53.1929 127.843 58.0137 124.614 61.9307C121.435 65.7974 118.434 67.7308 115.608 67.7308C109.807 67.7308 106.906 63.5628 106.906 55.2267C106.906 52.4647 107.309 48.6231 108.116 43.7018C108.974 38.7302 109.403 34.9639 109.403 32.4028C109.403 29.8418 109.05 27.2556 108.343 24.6443C112.531 24.6443 115.558 25.1967 117.425 26.3014C119.342 27.356 120.3 29.4902 120.3 32.7042C120.3 34.4115 119.77 37.8012 118.711 42.8732C117.652 47.9451 117.122 51.7617 117.122 54.3228C117.122 58.0388 118.131 59.8969 120.149 59.8969C121.158 59.8969 122.318 59.2189 123.63 57.8631C124.942 56.457 126.203 54.6241 127.414 52.3643C128.625 50.0543 129.634 47.1919 130.441 43.7771C131.298 40.3121 131.727 36.822 131.727 33.3068C131.727 29.7413 131.576 26.7283 131.273 24.2676Z" fill="#AC2551"/>
<path d="M163.141 49.2006C160.719 49.2006 158.348 48.9244 156.028 48.372C155.977 48.8742 155.952 49.6525 155.952 50.7071C155.952 54.8751 156.734 58.0137 158.298 60.1229C159.862 62.232 161.728 63.2866 163.898 63.2866C166.067 63.2866 168.136 62.6337 170.103 61.3281C172.071 60.0224 173.786 58.2146 175.249 55.9046C177.065 56.3063 177.973 57.2354 177.973 58.6917C173.534 65.471 167.808 68.8607 160.795 68.8607C156.557 68.8607 152.849 67.2537 149.671 64.0398C146.492 60.7757 144.903 56.2561 144.903 50.4811C144.903 46.1624 145.736 42.0697 147.401 38.203C149.065 34.286 151.714 30.9968 155.346 28.3352C158.979 25.6235 162.99 24.2676 167.379 24.2676C171.818 24.2676 175.072 25.272 177.141 27.2807C179.209 29.2894 180.244 31.9258 180.244 35.1899C180.244 39.9104 178.579 43.4256 175.249 45.7356C171.97 48.0456 167.934 49.2006 163.141 49.2006ZM166.319 28.9378C163.746 28.9378 161.577 30.5197 159.811 33.6834C158.046 36.8471 156.885 40.6887 156.33 45.2083H157.465C161.855 45.2083 165.083 44.0784 167.152 41.8186C169.271 39.5588 170.33 36.8471 170.33 33.6834C170.33 32.3777 169.977 31.273 169.271 30.369C168.615 29.4149 167.631 28.9378 166.319 28.9378Z" fill="#AC2551"/>
<path d="M207.044 87.0143C215.469 87.0143 220.262 77.1466 221.423 57.4111C219.556 60.0726 217.31 62.1064 214.687 63.5125C212.064 64.8684 209.365 65.5463 206.59 65.5463C201.747 65.5463 197.584 63.5879 194.103 59.6709C190.622 55.7539 188.882 50.3054 188.882 43.3251C188.882 33.7336 191.379 25.3975 196.374 18.3169C198.795 14.8519 201.923 12.115 205.757 10.1063C209.592 8.04741 213.956 7.01796 218.85 7.01796C223.794 7.01796 227.552 8.2985 230.125 10.8596C232.749 13.3705 234.061 16.4839 234.061 20.2C234.061 23.9161 232.9 26.8538 230.579 29.0132C228.259 31.1725 225.509 32.2522 222.331 32.2522C220.262 32.2522 218.294 31.75 216.428 30.7457C214.561 29.7413 213.123 28.285 212.114 26.3768C213.476 26.7283 214.763 26.904 215.974 26.904C218.698 26.904 220.842 26.1257 222.406 24.5689C224.021 23.0122 224.828 21.2546 224.828 19.2961C224.828 17.3376 224.172 15.7307 222.861 14.4752C221.549 13.1696 219.682 12.5168 217.26 12.5168C214.082 12.5168 211.181 14.1488 208.557 17.413C205.984 20.6269 204.042 24.5438 202.73 29.1638C201.419 33.7336 200.763 38.4792 200.763 43.4005C200.763 48.3218 201.721 52.1885 203.638 55.0007C205.606 57.7626 207.977 59.1436 210.752 59.1436C213.527 59.1436 215.923 57.7878 217.941 55.076C220.01 52.3643 221.044 48.6984 221.044 44.0784C221.044 42.9234 220.969 41.7433 220.817 40.5381V40.3121C221.927 40.2117 223.088 40.1614 224.298 40.1614C227.224 40.1614 229.242 40.6636 230.352 41.668C231.513 42.6221 232.093 44.2793 232.093 46.6395C232.093 61.9558 229.343 73.9075 223.844 82.4947C221.927 85.4576 219.429 87.868 216.352 89.726C213.275 91.5841 209.793 92.5131 205.909 92.5131C200.611 92.5131 196.626 91.1572 193.952 88.4455C191.329 85.784 190.017 82.7207 190.017 79.2557C190.017 75.7907 190.95 73.0036 192.817 70.8945C194.683 68.8356 197.004 67.8061 199.779 67.8061C201.292 67.8061 202.957 68.233 204.774 69.0867C202.1 72.4512 200.763 75.9916 200.763 79.7076C200.763 81.867 201.267 83.6246 202.276 84.9805C203.285 86.3363 204.874 87.0143 207.044 87.0143Z" fill="#AC2551"/>
<path d="M262.083 24.2676C263.597 24.1672 264.656 24.117 265.262 24.117C267.885 24.117 269.878 24.594 271.24 25.5482C272.602 26.5023 273.283 28.2599 273.283 30.821C273.283 31.6245 272.804 35.1648 271.845 41.442C270.887 47.6689 270.408 53.0171 270.408 57.4865C270.408 61.9558 270.887 65.8979 271.845 69.3126C268.062 68.1074 265.438 66.4 263.975 64.1905C262.512 61.9809 261.78 59.2441 261.78 55.9799C261.78 54.7245 262.058 51.8872 262.613 47.4681C261.049 53.1929 258.653 58.0137 255.424 61.9307C252.245 65.7974 249.244 67.7308 246.418 67.7308C240.617 67.7308 237.716 63.5628 237.716 55.2267C237.716 52.4647 238.119 48.6231 238.926 43.7018C239.784 38.7302 240.213 34.9639 240.213 32.4028C240.213 29.8418 239.86 27.2556 239.154 24.6443C243.341 24.6443 246.368 25.1967 248.235 26.3014C250.152 27.356 251.11 29.4902 251.11 32.7042C251.11 34.4115 250.581 37.8012 249.521 42.8732C248.462 47.9451 247.932 51.7617 247.932 54.3228C247.932 58.0388 248.941 59.8969 250.959 59.8969C251.968 59.8969 253.128 59.2189 254.44 57.8631C255.752 56.457 257.013 54.6241 258.224 52.3643C259.435 50.0543 260.444 47.1919 261.251 43.7771C262.108 40.3121 262.537 36.822 262.537 33.3068C262.537 29.7413 262.386 26.7283 262.083 24.2676Z" fill="#AC2551"/>
<path d="M296.474 49.2006C294.052 49.2006 291.681 48.9244 289.36 48.372C289.31 48.8742 289.284 49.6525 289.284 50.7071C289.284 54.8751 290.066 58.0137 291.63 60.1229C293.194 62.232 295.061 63.2866 297.23 63.2866C299.4 63.2866 301.468 62.6337 303.436 61.3281C305.403 60.0224 307.119 58.2146 308.582 55.9046C310.398 56.3063 311.306 57.2354 311.306 58.6917C306.866 65.471 301.14 68.8607 294.128 68.8607C289.89 68.8607 286.182 67.2537 283.003 64.0398C279.825 60.7757 278.236 56.2561 278.236 50.4811C278.236 46.1624 279.068 42.0697 280.733 38.203C282.398 34.286 285.047 30.9968 288.679 28.3352C292.311 25.6235 296.322 24.2676 300.711 24.2676C305.151 24.2676 308.405 25.272 310.474 27.2807C312.542 29.2894 313.576 31.9258 313.576 35.1899C313.576 39.9104 311.911 43.4256 308.582 45.7356C305.302 48.0456 301.266 49.2006 296.474 49.2006ZM299.652 28.9378C297.079 28.9378 294.91 30.5197 293.144 33.6834C291.378 36.8471 290.218 40.6887 289.663 45.2083H290.798C295.187 45.2083 298.416 44.0784 300.484 41.8186C302.603 39.5588 303.663 36.8471 303.663 33.6834C303.663 32.3777 303.31 31.273 302.603 30.369C301.947 29.4149 300.964 28.9378 299.652 28.9378Z" fill="#AC2551"/>
<path d="M334.506 28.7119C333.093 28.7119 331.832 29.1889 330.722 30.1431C329.612 31.047 329.057 32.3526 329.057 34.06C329.057 35.7674 329.637 37.3744 330.798 38.8809C332.008 40.3874 333.472 41.7182 335.187 42.8732C336.902 43.978 338.617 45.133 340.333 46.3382C342.099 47.4932 343.637 48.9495 344.949 50.7071C346.261 52.4145 346.992 54.3228 347.144 56.4319C347.144 60.0475 345.58 63.0857 342.452 65.5463C339.324 68.007 335.439 69.2373 330.798 69.2373C326.156 69.2373 322.499 68.3083 319.825 66.4503C317.201 64.5922 315.89 62.458 315.89 60.0475C315.89 57.6371 316.621 55.7037 318.084 54.2474C319.598 52.7409 321.464 51.9876 323.684 51.9876C324.845 51.9876 325.929 52.1885 326.938 52.5902C325.324 54.2976 324.517 56.1055 324.517 58.0137C324.517 59.922 325.046 61.4536 326.106 62.6086C327.165 63.7636 328.603 64.3411 330.419 64.3411C332.236 64.3411 333.749 63.8892 334.96 62.9853C336.221 62.0311 336.852 60.8259 336.852 59.3696C336.852 57.8631 336.423 56.5323 335.565 55.3773C334.708 54.2223 333.623 53.218 332.311 52.3643C331.05 51.4604 329.663 50.456 328.149 49.3512C326.636 48.2464 325.223 47.1417 323.911 46.0369C322.65 44.8819 321.591 43.4507 320.733 41.7433C319.875 39.9857 319.446 38.0774 319.446 36.0185C319.446 32.4531 320.909 29.5405 323.836 27.2807C326.812 24.9707 330.495 23.8157 334.884 23.8157C339.324 23.8157 342.553 24.6694 344.571 26.3768C346.639 28.0842 347.673 30.0928 347.673 32.4028C347.673 34.6626 346.942 36.596 345.479 38.203C344.066 39.8099 342.225 40.6134 339.954 40.6134C338.845 40.6134 337.583 40.3874 336.171 39.9355C337.281 38.9813 338.138 37.9017 338.744 36.6964C339.349 35.441 339.652 34.2107 339.652 33.0055C339.652 31.8002 339.147 30.7959 338.138 29.9924C337.129 29.1387 335.918 28.7119 334.506 28.7119Z" fill="#AC2551"/>
<path d="M369.784 32.3275C369.532 34.1353 369.002 37.2739 368.195 41.7433C366.479 51.2344 365.622 58.2648 365.622 62.8346C365.622 67.4044 365.975 70.4676 366.681 72.0244C362.796 71.02 360.123 69.4884 358.66 67.4295C357.196 65.3204 356.465 62.3575 356.465 58.541C356.465 55.1764 356.995 50.5816 358.054 44.7563C359.114 38.8809 359.795 34.9137 360.097 32.8548C357.474 33.3068 354.674 34.1856 351.697 35.4912C351.596 34.3864 351.546 33.5578 351.546 33.0055C351.546 30.3439 352.353 28.5361 353.968 27.582C355.582 26.5776 357.903 26.0503 360.93 26.0001C361.283 22.2338 361.46 19.5221 361.46 17.8649C361.46 16.2077 361.434 14.8268 361.384 13.722C361.384 12.6172 361.384 11.7886 361.384 11.2362C364.714 11.5877 367.135 12.5921 368.649 14.2493C370.162 15.8562 370.919 18.1662 370.919 21.1793C370.919 22.3845 370.793 24.0668 370.541 26.2261C374.778 26.1257 377.881 25.2971 379.849 23.7403C379.95 24.7447 380 25.498 380 26.0001C380 28.4106 379.571 30.0928 378.714 31.047C377.856 31.9509 376.418 32.4028 374.4 32.4028C372.382 32.4028 370.843 32.3777 369.784 32.3275Z" fill="#AC2551"/>
</svg>
