<!-- Generated by IcoMoon.io -->
<svg version="1.1" xmlns="http://www.w3.org/2000/svg" width="1024" height="1024" viewBox="0 0 1024 1024">
<title>vg-passport</title>
<g id="icomoon-ignore">
</g>
<path d="M741.014 586.172c0 6.451-0.216 12.789-0.751 19.234-0.21 2.958-0.529 5.814-0.853 8.772-0.102 0.95-0.535 4.335-0.21 1.587-0.216 1.69-0.535 3.379-0.751 4.966-2.025 12.26-4.91 24.303-8.755 36.142-1.815 5.604-3.954 11.099-6.087 16.594-0.108 0.21-0.961 2.321-0.324 0.74 0.751-1.798-0.427 0.95-0.637 1.371-0.535 1.269-1.178 2.537-1.712 3.806-1.28 2.748-2.56 5.495-3.948 8.243-5.45 10.564-11.537 20.713-18.478 30.327-1.712 2.435-3.527 4.864-5.342 7.293 1.604-2.111-0.319 0.421-0.961 1.161-1.070 1.269-2.031 2.537-3.095 3.806-3.846 4.654-7.908 9.091-12.18 13.42-4.056 4.124-8.22 8.141-12.601 12.049-2.241 2.008-4.591 4.016-6.832 5.916-1.070 0.848-2.139 1.798-3.209 2.645-0.745 0.529-4.056 3.066-1.707 1.371-9.506 7.185-19.547 13.636-29.906 19.342-5.342 2.958-10.786 5.706-16.338 8.243-1.286 0.631-2.566 1.161-3.846 1.69-0.643 0.319-1.28 0.529-1.923 0.848 0.216-0.108 2.241-0.956 0.535-0.216-3.1 1.269-6.195 2.435-9.296 3.595-11.531 4.124-23.279 7.396-35.243 9.83-2.884 0.529-5.767 1.052-8.651 1.582-1.709 0.319-3.418 0.529-5.020 0.74-1.922 0.319 0.321 0 0.641-0.102-0.961 0.102-1.923 0.21-2.884 0.313-6.195 0.745-12.282 1.166-18.477 1.377-12.923 0.529-25.847 0-38.77-1.479-0.748-0.108-1.496-0.21-2.243-0.319 0.213 0 2.563 0.319 0.641 0.108-1.495-0.21-2.884-0.427-4.379-0.637-3.098-0.529-6.195-1.052-9.292-1.69-6.088-1.269-12.282-2.64-18.263-4.335-5.981-1.69-11.856-3.59-17.729-5.706-2.67-0.95-5.34-2.008-8.011-3.061-2.884-1.166 1.389 0.631-1.389-0.637-1.495-0.631-2.99-1.371-4.486-2.008-11.108-5.074-21.788-10.883-32.041-17.545-4.913-3.169-9.613-6.548-14.312-10.035 2.456 1.9-1.068-0.848-1.709-1.377-1.068-0.842-2.136-1.798-3.204-2.64-2.35-1.906-4.593-3.914-6.836-5.916-8.971-8.033-17.409-16.703-25.206-25.896-0.854-1.058-1.815-2.111-2.67-3.169-0.641-0.74-2.563-3.277-0.961-1.161-1.816-2.435-3.631-4.864-5.34-7.293-3.524-4.966-6.835-9.933-9.933-15.115-3.097-5.177-6.088-10.462-8.864-15.849-1.282-2.537-2.456-5.074-3.632-7.612-0.641-1.263-1.175-2.532-1.709-3.8-0.32-0.637-0.534-1.269-0.854-1.906 0.641 1.479 0.534 1.166 0-0.102-4.593-11.418-8.438-23.040-11.321-35.089-1.389-5.808-2.563-11.73-3.524-17.647-0.214-1.479-0.427-2.856-0.641-4.335-0.32-1.9 0 0.319 0.107 0.637-0.107-0.95-0.214-1.906-0.32-2.856-0.321-3.169-0.641-6.337-0.961-9.512-0.961-12.572-0.961-25.151 0.107-37.725 0.213-3.17 0.534-6.341 0.961-9.405 0.107-0.74 0.214-1.48 0.321-2.219 0 0.211-0.321 2.536-0.107 0.634 0.213-1.691 0.534-3.381 0.748-4.967 1.068-6.129 2.243-12.258 3.738-18.282 2.884-11.73 6.729-23.144 11.321-34.346 0.641-1.691-0.107 0.317-0.214 0.528 0.32-0.634 0.534-1.268 0.854-1.902 0.534-1.268 1.175-2.536 1.709-3.804 1.388-2.959 2.777-5.918 4.272-8.772 2.67-5.178 5.554-10.251 8.545-15.218 3.097-5.178 6.515-10.145 10.039-15.112 1.603-2.219 3.311-4.544 5.020-6.658-1.602 2.113 0.32-0.423 0.961-1.163 1.175-1.48 2.35-2.854 3.524-4.333 7.583-8.983 15.914-17.437 24.779-25.363 2.136-1.797 4.165-3.699 6.409-5.39 1.068-0.845 2.136-1.797 3.204-2.642 0.534-0.423 1.068-0.845 1.602-1.268 3.525-2.748-1.388 1.056 0.641-0.528 4.699-3.487 9.399-6.869 14.312-9.934 10.253-6.552 20.933-12.47 32.041-17.437 1.282-0.634 2.563-1.163 3.845-1.691 2.777-1.269-1.495 0.528 1.389-0.634s5.767-2.219 8.651-3.276c5.874-2.113 11.748-4.016 17.729-5.601 5.981-1.691 12.175-3.065 18.263-4.333 2.884-0.528 5.767-1.056 8.651-1.479 1.496-0.212 2.884-0.423 4.379-0.634 1.922-0.317-0.32 0-0.641 0.106 0.961-0.106 1.923-0.212 2.884-0.317 12.816-1.48 25.847-1.902 38.77-1.374 6.195 0.211 12.389 0.74 18.478 1.479 0.748 0.106 1.495 0.212 2.243 0.317-0.213 0-2.563-0.317-0.641-0.106 1.709 0.211 3.418 0.528 5.020 0.74 3.097 0.528 6.195 1.057 9.292 1.691 11.963 2.431 23.818 5.707 35.247 9.934 2.884 1.057 5.763 2.219 8.647 3.276 1.712 0.634-0.319-0.106-0.529-0.211 0.637 0.317 1.28 0.528 1.917 0.845 1.496 0.634 2.992 1.374 4.489 2.008 5.552 2.537 11.002 5.284 16.338 8.243 5.131 2.853 10.149 5.812 15.064 8.983 2.56 1.691 5.018 3.381 7.583 5.073 1.172 0.845 2.241 1.585 3.413 2.43 0.535 0.423 1.178 0.845 1.712 1.268 0.21 0.212 2.56 1.902 1.172 0.846-1.172-0.846 1.712 1.373 2.241 1.797 1.070 0.845 2.139 1.797 3.209 2.642 2.452 2.113 5.018 4.227 7.367 6.341 4.272 3.91 8.545 7.926 12.498 12.047 4.164 4.333 8.22 8.771 12.066 13.421 0.853 1.057 1.815 2.113 2.668 3.17 0.643 0.74 2.566 3.276 0.961 1.162 2.031 2.537 3.954 5.179 5.769 7.821 6.838 9.722 13.033 19.868 18.369 30.436 1.286 2.537 2.458 5.073 3.635 7.609 0.637 1.48 1.388 2.959 2.025 4.438 0.108 0.212 0.961 2.325 0.324 0.74-0.643-1.585 0.427 1.057 0.535 1.374 2.241 5.495 4.272 10.99 6.087 16.592 3.846 11.836 6.73 23.884 8.647 36.143 0.216 1.479 0.432 2.853 0.643 4.333-0.427-2.748 0 0.528 0.216 1.585 0.319 2.854 0.637 5.812 0.853 8.772 0.21 5.815 0.427 12.26 0.427 18.598 0 8.243 7.367 16.276 16.020 15.855s16.020-6.975 16.020-15.855c-0.21-52.944-16.555-105.678-47.741-148.795-31.078-43.011-74.337-75.878-124.53-94.055-50.735-18.388-107.768-20.185-159.675-5.707-50.198 14.056-96.337 43.435-129.553 83.381-34.604 41.532-55.431 92.258-59.703 145.943-4.165 52.842 8.864 106.949 36.527 152.284 26.915 44.072 67.286 80.213 114.707 101.456 50.625 22.721 107.125 29.167 161.703 18.278 51.371-10.251 99.538-36.773 135.748-74.291 36.204-37.41 61.087-85.811 69.097-137.068 2.139-13.739 3.419-27.58 3.419-41.529 0-8.243-7.367-16.276-16.020-15.855-8.653 0.529-15.912 7.083-16.020 15.957z"></path>
<path d="M740.82 586.132c0 1.269-0.102 2.645-0.21 3.914-0.108 2.429 0.108-1.798 0.319-1.906-0.319 0.319-0.21 1.485-0.319 1.906-0.319 1.161-0.535 2.327-0.853 3.379-0.216 0.637-0.427 1.269-0.643 1.906-1.172 3.59-0.319-0.529 0.319-0.427-0.102 0-3.203 6.025-3.521 6.662-0.751 1.269-1.712 2.429-2.458 3.59-0.745 1.166-0.319 1.587 0.853-1.052-0.319 0.631-1.28 1.582-1.707 2.111-2.031 2.327-4.164 4.437-6.303 6.554-1.070 1.058-2.241 2.008-3.419 3.061-0.637 0.529-1.388 1.058-2.025 1.695-2.776 2.321 1.064-0.637-0.108 0.102-6.195 4.227-12.39 8.454-19.012 12.049-3.311 1.798-6.73 3.487-10.251 5.177-2.031 0.95-4.062 1.798-6.087 2.748-0.853 0.319-1.712 0.74-2.458 1.058 3.203-1.371-0.535 0.21-1.28 0.529-9.079 3.595-18.375 6.764-27.665 9.512-20.4 6.025-41.438 10.251-62.481 13.312-8.863 1.269-21.999 2.645-33.001 3.487-12.496 0.956-24.992 1.485-37.488 1.695-24.565 0.313-49.237-0.74-73.694-3.385-19.759-2.111-42.295-6.025-63.442-11.412-9.613-2.429-19.224-5.285-28.623-8.562-4.272-1.479-8.545-3.061-12.71-4.756-0.854-0.313-1.709-0.74-2.563-1.052 2.99 1.263 0.213 0.102-0.534-0.216-2.243-0.95-4.486-2.008-6.622-2.958-7.049-3.277-13.991-6.975-20.506-11.201-3.098-2.008-6.195-4.119-9.185-6.337 2.777 2.008 0.427 0.21-0.854-0.848-1.602-1.269-3.098-2.64-4.593-4.016-2.136-2.008-4.058-4.016-5.981-6.235-0.534-0.529-0.961-1.161-1.495-1.798-1.389-1.582 2.243 3.385 0.534 0.74-0.748-1.269-1.709-2.321-2.456-3.59-0.748-1.166-1.496-2.435-2.136-3.703-0.427-0.74-2.029-4.54-0.961-1.792 1.175 2.85-0.32-1.166-0.641-1.906-0.427-1.371-0.748-2.748-1.068-4.227-1.068-4.329 0 2.219-0.106 0 0-1.269-0.214-2.537-0.214-3.908 0-1.161 0.107-2.327 0.107-3.487 0.107-2.429 0.961 0.102-0.214 1.479 0.214-0.319 0.321-1.9 0.427-2.327 0.214-0.842 2.35-6.446 2.136-6.764 0.534 0.637-1.922 3.806-0.32 0.848 0.213-0.529 0.534-0.95 0.748-1.479 0.748-1.377 1.496-2.748 2.35-4.016 0.748-1.058 1.496-2.113 2.243-3.276 1.389-2.219-0.854 0.951-0.854 1.057 0.32-0.74 1.282-1.48 1.709-2.113 2.136-2.431 4.379-4.756 6.729-6.869 1.068-1.057 2.243-2.008 3.417-3.065 0.854-0.634 4.913-3.805 1.282-1.163 2.991-2.219 5.981-4.333 9.185-6.341 6.942-4.438 14.205-8.243 21.681-11.73 1.602-0.74 3.204-1.48 4.806-2.22 0.427-0.211 4.593-1.902 1.175-0.528 0.854-0.317 1.709-0.74 2.563-1.057 4.379-1.797 8.864-3.382 13.351-4.967 19.652-6.764 39.945-11.625 60.451-15.218 45.285-8.032 95.163-9.723 143.011-6.024 22.962 1.797 42.185 4.333 65.151 9.3 19.439 4.122 38.662 9.617 57.139 16.909-0.108 0 4.164 1.691 1.923 0.74s1.923 0.845 1.815 0.845c1.815 0.846 3.63 1.585 5.45 2.431 4.056 1.902 8.010 3.91 11.856 6.024 6.406 3.487 12.493 7.503 18.369 11.73-3.738-2.748 0.853 0.74 1.707 1.479 1.070 0.845 2.031 1.797 2.992 2.642 2.458 2.325 4.807 4.65 7.049 7.187 0.108 0.211 1.496 1.691 1.496 1.796-0.108 0.106-2.35-3.381-0.853-1.056 0.853 1.162 1.707 2.327 2.452 3.595 0.643 1.052 1.286 2.219 1.923 3.271 0.324 0.637 0.643 1.269 0.961 1.798 1.496 2.748-0.853-0.21-0.319-0.842-0.216 0.21 2.031 6.127 2.133 6.764 0.108 0.631 0.216 1.263 0.324 1.9 0.637 1.9-0.324-4.437-0.216-1.479 0.216 1.798 0.319 3.066 0.319 4.329 0.108 8.243 7.265 16.276 16.026 15.855 8.647-0.421 16.122-6.975 16.020-15.855-0.324-31.49-26.277-54.528-52.014-69.006-36.528-20.607-78.928-31.070-120.263-37.094-52.014-7.503-104.988-8.665-157.215-2.642-44.751 5.179-89.929 14.584-130.621 34.452-25.526 12.576-55.217 33.183-60.665 63.089-5.874 31.602 15.060 56.644 39.838 73.557 33.216 22.505 74.656 33.923 113.853 41 51.266 9.301 104.027 11.52 156.041 7.293 46.353-3.806 92.814-12.26 135.748-30.327 28.945-12.157 60.342-30.754 71.879-61.508 2.241-5.916 3.311-12.47 3.311-18.813 0.108-8.238-7.475-16.27-16.020-15.849-8.653 0.421-15.809 6.975-15.918 15.849z"></path>
<path d="M512.217 359.688c1.282 0 2.67 0.106 3.952 0.212 2.456 0.105-1.815-0.106-1.922-0.317 0.32 0.317 1.495 0.212 1.922 0.317 1.175 0.317 2.35 0.528 3.418 0.845 0.641 0.211 1.282 0.423 1.922 0.634 3.632 1.163-0.534 0.317-0.427-0.317 0 0.106 6.088 3.17 6.729 3.487 1.282 0.74 2.456 1.691 3.631 2.431s1.602 0.317-1.068-0.845c0.641 0.317 1.602 1.268 2.136 1.691 2.35 2.008 4.486 4.122 6.622 6.235 1.068 1.057 2.029 2.219 3.097 3.382 0.534 0.634 1.068 1.374 1.709 2.008 2.35 2.748-0.641-1.057 0.107 0.106 4.272 6.129 8.544 12.259 12.175 18.811 1.816 3.276 3.525 6.658 5.233 10.146 0.963 2.008 1.816 4.016 2.778 6.023 0.319 0.845 0.745 1.691 1.070 2.431-1.388-3.17 0.21 0.528 0.529 1.268 3.635 8.983 6.838 18.177 9.614 27.371 6.087 20.185 10.359 41.004 13.46 61.823 1.28 8.771 2.668 21.77 3.521 32.655 0.961 12.365 1.496 24.729 1.712 37.094 0.319 24.303-0.751 48.72-3.419 72.92-2.139 19.547-6.087 41.847-11.537 62.771-2.458 9.512-5.336 19.024-8.647 28.325-1.496 4.227-3.1 8.454-4.807 12.572-0.324 0.848-0.751 1.69-1.070 2.537 1.28-2.958 0.108-0.21-0.216 0.529-0.961 2.219-2.025 4.437-2.988 6.554-3.311 6.975-7.049 13.841-11.321 20.287-2.029 3.066-4.165 6.133-6.409 9.091 2.030-2.748 0.214-0.421-0.854 0.848-1.282 1.582-2.67 3.061-4.059 4.54-2.029 2.116-4.058 4.016-6.301 5.922-0.534 0.529-1.175 0.95-1.816 1.479-1.602 1.371 3.418-2.219 0.748-0.529-1.282 0.74-2.35 1.69-3.631 2.429-1.175 0.74-2.456 1.479-3.738 2.116-0.748 0.421-4.593 2.008-1.815 0.95 2.884-1.161-1.175 0.319-1.923 0.631-1.389 0.427-2.777 0.74-4.272 1.058-4.379 1.058 2.243 0 0 0.108-1.281 0-2.563 0.21-3.952 0.21-1.175 0-2.35-0.108-3.524-0.108-2.456-0.102 0.106-0.95 1.495 0.21-0.32-0.21-1.922-0.313-2.35-0.421-0.854-0.21-6.515-2.327-6.836-2.111 0.641-0.529 3.845 1.9 0.854 0.313-0.534-0.21-0.961-0.529-1.495-0.74-1.389-0.74-2.777-1.479-4.058-2.321-1.068-0.74-2.136-1.485-3.311-2.224-2.243-1.371 0.961 0.848 1.068 0.848-0.748-0.319-1.495-1.269-2.136-1.69-2.456-2.116-4.806-4.335-6.942-6.656-1.068-1.058-2.029-2.224-3.097-3.385-0.641-0.848-3.845-4.858-1.175-1.269-2.243-2.958-4.379-5.916-6.408-9.085-4.486-6.872-8.331-14.057-11.855-21.453-0.748-1.587-1.496-3.174-2.243-4.756-0.213-0.427-1.922-4.545-0.534-1.166-0.32-0.842-0.748-1.69-1.068-2.537-1.816-4.329-3.418-8.767-5.020-13.21-6.835-19.445-11.748-39.521-15.38-59.813-8.117-44.806-9.826-94.162-6.088-141.505 1.816-22.721 4.379-41.744 9.399-64.465 4.165-19.234 9.719-38.256 17.089-56.538 0 0.105 1.709-4.122 0.748-1.902s0.854-1.902 0.854-1.797c0.854-1.797 1.602-3.593 2.456-5.39 1.922-4.016 3.952-7.926 6.088-11.73 3.525-6.341 7.583-12.365 11.856-18.177-2.777 3.699 0.748-0.845 1.495-1.691 0.854-1.057 1.816-2.008 2.67-2.959 2.35-2.43 4.699-4.755 7.262-6.975 0.213-0.106 1.709-1.48 1.816-1.48 0.106 0.106-3.418 2.325-1.068 0.845 1.175-0.845 2.35-1.691 3.631-2.43 1.068-0.634 2.243-1.268 3.311-1.902 0.641-0.317 1.282-0.634 1.816-0.951 2.777-1.48-0.214 0.845-0.854 0.317 0.214 0.212 6.195-2.008 6.835-2.113s1.282-0.211 1.923-0.317c1.922-0.634-4.486 0.317-1.496 0.211 1.709-0.105 3.098-0.317 4.379-0.317 8.331-0.106 16.448-7.186 16.020-15.852-0.427-8.56-7.049-15.957-16.020-15.852-31.828 0.317-55.111 25.998-69.743 51.466-20.827 36.143-31.4 78.098-37.488 118.996-7.583 51.466-8.758 103.883-2.67 155.56 5.233 44.282 14.739 88.98 34.818 129.246 12.71 25.259 33.536 54.636 63.762 60.029 31.935 5.808 57.247-14.905 74.338-39.418 22.744-32.87 34.281-73.87 41.438-112.657 9.398-50.728 11.639-102.935 7.367-154.398-3.84-45.866-12.385-91.836-30.652-134.319-12.282-28.639-31.078-59.709-62.159-71.122-5.981-2.219-12.603-3.276-19.011-3.276-8.331-0.106-16.448 7.398-16.020 15.852 0.427 8.56 7.049 15.64 16.020 15.746z"></path>
<path d="M876.199 215.057c0 6.341 0 12.787 0 19.128 0 17.543 0 35.086 0 52.628 0 25.892 0 51.783 0 77.675 0 31.704 0 63.302 0 95.006 0 34.98 0 69.96 0 104.94 0 35.294 0 70.702 0 105.996 0 33.183 0 66.475 0 99.658 0 28.638 0 57.276 0 85.919 0 21.134 0 42.268 0 63.3 0 11.093 0 22.295 0 33.394 0 0.95 0 1.798 0 2.748 0 0.108 0 0.319 0 0.421 0 1.695-0.102 3.385-0.21 5.183-0.216 1.9 0-0.427 0.108-0.637-0.108 0.74-0.216 1.377-0.427 2.116-0.324 1.582-0.751 3.169-1.286 4.756-0.319 0.95-1.496 4.016-0.427 1.479-0.535 1.269-1.172 2.537-1.815 3.698-0.745 1.371-1.604 2.748-2.566 4.119-0.319 0.637-0.745 1.166-1.172 1.695 0.853-1.269 0.853-0.956-0.108 0-1.923 2.008-3.846 3.908-5.871 5.808-2.139 1.906 1.28-0.631-1.178 0.848-1.388 0.842-2.776 1.798-4.164 2.537-1.178 0.631-2.458 1.269-3.738 1.9-1.712 0.74 0.319-0.21 0.535-0.21-0.643 0.21-1.286 0.529-2.031 0.74-1.388 0.421-2.776 0.848-4.164 1.161-0.961 0.21-5.234 0.848-2.139 0.529-2.025 0.21-4.056 0.319-6.087 0.319-8.545 0.108-17.089 0-25.634 0-20.503 0-41.119 0-61.622 0-29.053 0-58.209 0-87.262 0-34.389 0-68.676 0-103.066 0-35.779 0-71.558 0-107.337 0-33.964 0-67.927 0-101.891 0-28.731 0-57.568 0-86.298 0-19.866 0-39.624 0-59.49 0-7.583 0-15.166 0.108-22.749 0-0.427 0-1.068 0-1.495 0-0.961 0-1.923-0.108-2.991-0.21-0.214 0-2.67-0.319-0.748-0.108 1.602 0.21-2.243-0.529-2.884-0.631-1.602-0.427-3.205-0.95-4.807-1.377-2.884-0.74 1.175 0.848-1.388-0.529-1.282-0.631-2.563-1.269-3.738-1.9-1.175-0.74-2.35-1.479-3.525-2.219-0.213-0.108-2.029-1.479-0.641-0.421 1.389 1.052-0.854-0.74-1.068-0.956-2.029-1.9-3.952-3.8-5.767-5.916-1.175-1.371 0.214 0.319 0.321 0.529-0.427-0.529-0.854-1.161-1.175-1.69-0.854-1.377-1.709-2.748-2.563-4.124-0.641-1.269-1.282-2.429-1.816-3.698 1.068 2.537-0.107-0.529-0.427-1.479-0.427-1.371-0.854-2.748-1.068-4.119-0.214-0.956-0.427-1.906-0.534-2.856 0.32 1.587 0.107 1.371 0-0.108-0.213-2.958-0.213-5.808-0.213-8.767 0-11.947 0-23.78 0-35.721 0-21.669 0-43.435 0-65.098 0-29.065 0-58.021 0-87.080 0-33.399 0-66.896 0-100.295 0-35.402 0-70.804 0-106.1 0-34.875 0-69.749 0-104.517 0-31.387 0-62.773 0-94.055 0-25.469 0-50.832 0-76.301 0-16.909 0-33.923 0-50.832 0-4.333 0-8.772 0-13.104 0-1.057 0-2.114 0-3.065 0-3.593 0.106-4.756 0.748-7.715 0.427-1.691 0.961-3.276 1.388-4.967 0 0.106 0.961-2.537 0.427-1.268s0.641-1.269 0.534-1.163c0.748-1.48 1.602-2.959 2.456-4.333 0.427-0.74 0.961-1.374 1.389-2.113 1.495-2.325-1.496 1.691 0.32-0.423 2.136-2.536 4.486-4.967 7.156-7.080 1.495-1.162 0.427-0.211 0.106 0 0.641-0.528 1.389-0.951 2.136-1.374 1.709-1.056 3.418-2.008 5.234-2.853-1.816 0.845 3.204-1.163 3.845-1.374 1.923-0.528 3.845-1.057 5.767-1.374 0.961-0.106 3.418-0.212 5.661-0.212 0.106 0 0.32 0 0.427 0 2.99 0 5.874 0 8.864 0 15.7 0 31.507 0 47.208 0 25.739 0 51.586 0 77.326 0 32.362 0 64.724 0 97.085 0 35.673 0 71.345 0 107.125 0 35.139 0 70.384 0 105.524 0 31.397 0 62.692 0 94.094 0 24.138 0 48.168 0 72.306 0 13.352 0 26.806 0 40.158 0 2.987 0 6.087 0 9.079 0.212 3.095 0.211-1.496-0.423 1.49 0.211 1.394 0.317 2.782 0.634 4.17 0.951 1.388 0.423 2.668 0.845 4.056 1.374-2.566-0.845 0.427 0.212 1.28 0.634 2.458 1.268 4.915 2.748 7.157 4.333-2.133-1.585 0.324 0.317 1.070 0.951 1.070 0.951 2.031 1.902 2.992 2.854 0.535 0.528 3.203 3.698 2.35 2.642-0.859-1.163 1.172 1.797 1.496 2.325 0.745 1.162 1.388 2.324 2.133 3.593 0.319 0.634 1.815 3.91 1.28 2.536s0.643 2.113 0.853 2.748c0.432 1.374 0.751 2.748 1.070 4.122 0.108 0.74 0.324 1.374 0.427 2.113 0-0.212-0.21-2.536-0.102-0.634 0.427 1.797 0.529 3.488 0.529 5.179 0.108 8.243 7.265 16.275 16.026 15.852 8.539-0.423 16.122-6.975 16.020-15.852-0.427-29.273-19.12-54.848-47.104-64.359-7.902-2.748-16.338-3.382-24.775-3.382-12.607 0-25.207 0-37.808 0-23.927 0-47.849 0-71.777 0-31.613 0-63.226 0-94.731 0-35.459 0-70.919 0-106.378 0-36.1 0-72.092 0-108.192 0-32.895 0-65.791 0-98.687 0-25.953 0-52.014 0-77.967 0-15.7 0-31.4 0-47.208 0-2.777 0-5.66 0-8.437 0-26.381 0.212-52.014 14.796-62.908 39.207-6.409 14.267-6.515 27.688-6.515 42.589 0 16.38 0 32.761 0 49.246 0 25.363 0 50.726 0 76.195 0 31.493 0 62.879 0 94.372 0 35.086 0 70.277 0 105.363 0 35.933 0 71.864 0 107.687 0 33.82 0 67.635 0 101.456 0 29.269 0 58.647 0 87.922 0 21.879 0 43.856 0 65.735 0 11.73 0 23.461 0 35.191 0 5.598 0.32 11.093 1.282 16.799 4.699 26.948 28.303 49.778 55.538 53.794 10.467 1.582 21.147 1.058 31.721 1.058 19.331 0 38.77 0 58.101 0 28.731 0 57.354 0 86.084 0 34.284 0 68.568 0 102.959 0 36.099 0 72.306 0 108.406 0 34.711 0 69.425 0 104.241 0 29.48 0 59.062 0 88.542 0 20.611 0 41.33 0 61.946 0 8.329 0 16.657 0.102 25.099 0 25.099-0.319 49.34-14.057 60.769-36.46 5.342-10.462 7.799-21.771 7.799-33.502 0-10.359 0-20.821 0-31.175 0-20.924 0-41.745 0-62.669 0-28.638 0-57.173 0-85.811 0-33.394 0-66.896 0-100.289 0-35.829 0-71.652 0-107.477 0-35.403 0-70.7 0-106.103 0-32.020 0-63.936 0-95.957 0-26.209 0-52.417 0-78.626 0-17.543 0-34.98 0-52.523 0-6.129 0-12.153 0-18.282 0-8.243-7.373-16.275-16.020-15.852-8.653 0.423-16.026 6.975-16.026 15.852z"></path>
<path d="M773.566 41.742c0 35.508 0 71.017 0 106.525 0 4.967 0 10.040 0 15.007 5.342-5.284 10.678-10.568 16.020-15.852-20.292 0-40.585 0-60.877 0-48.594 0-97.297 0-145.897 0-58.313 0-116.522 0-174.836 0-50.412 0-100.717 0-151.128 0-23.818 0-47.528-0.211-71.345 0-2.777 0-5.447 0.212-8.224 0.528 1.389 10.357 2.884 20.713 4.272 31.176 20.293-4.967 40.479-10.251 60.772-15.429 48.382-12.259 96.658-24.623 145.039-36.882 57.568-14.689 115.242-29.273 172.809-43.963 47.956-12.153 95.908-24.412 143.865-36.565 14.205-3.593 28.302-7.186 42.507-10.779 3.738-0.951 7.583-1.902 11.321-2.853 0.853-0.211 1.712-0.423 2.566-0.634 0.21 0 0.319-0.106 0.535-0.106 0 0 0 0 0.102 0 4.062-1.163-2.56-0.317 1.604-0.211 0.853 0 4.591 0.74 1.388-0.106 1.388 0.317 2.668 0.634 4.056 1.057-0.853-0.317-2.35-1.374-0.102 0.106 0.427 0.317 3.846 2.959 1.28 0.634 0.643 0.634 1.28 1.268 2.031 1.902 2.668 2.431-0.751-2.114 0.853 1.163 0.427 0.845 0.961 1.585 1.28 2.431-1.496-3.17 0.108 1.057 0.216 1.48 1.064 3.91-0.216-3.065-0.108 1.374 0.21 8.243 7.157 16.275 16.020 15.852 8.437-0.423 16.236-6.975 16.020-15.852-0.745-27.582-26.163-46.816-53.294-40.581-1.604 0.423-3.311 0.845-4.915 1.268-11.105 2.853-22.323 5.707-33.428 8.56-44.749 11.413-89.395 22.721-134.144 34.135-58.103 14.795-116.205 29.59-174.413 44.386-51.8 13.21-103.493 26.314-155.293 39.524-25.206 6.447-50.625 12.153-75.617 19.234-0.427 0.106-0.961 0.212-1.389 0.317-7.797 1.902-12.496 9.828-11.428 17.437 0.961 7.080 7.797 14.689 15.7 13.738 7.476-0.845 15.060-0.528 22.535-0.528 14.418 0 28.731 0 43.149 0 48.168 0 96.337 0 144.506 0 58.208 0 116.523 0 174.733 0 50.836 0 101.569 0 152.405 0 24.565 0 49.345 0.634 73.91 0 0.319 0 0.643 0 1.070 0 8.653 0 16.020-7.292 16.020-15.852 0-35.508 0-71.017 0-106.525 0-4.967 0-10.040 0-15.006 0-8.243-7.367-16.275-16.020-15.852-8.761 0.211-16.128 6.869-16.128 15.746z"></path>
</svg>
