<svg id="Capa_1" enable-background="new 0 0 511.934 511.934" height="512" viewBox="0 0 511.934 511.934" width="512" xmlns="http://www.w3.org/2000/svg"><g><path d="m474.442 76.37c-49.996-49.987-131.348-49.987-181.346.001l-37.098 37.105-37.105-37.106c-18.15-18.15-41.02-30.322-66.134-35.199-4.066-.788-8.003 1.867-8.792 5.933-.79 4.066 1.866 8.002 5.933 8.792 22.168 4.305 42.358 15.053 58.386 31.081l42.41 42.41c1.407 1.407 3.314 2.197 5.304 2.197s3.897-.791 5.304-2.197l42.399-42.409c44.148-44.14 115.984-44.141 160.133-.001 44.141 44.149 44.141 115.985 0 160.134l-91.277 91.278v-55.879c4.665 2.931 9.994 4.493 15.501 4.493 9.679 0 18.713-4.771 24.167-12.764 4.397-6.448 6.022-14.223 4.575-21.894-1.448-7.672-5.797-14.32-12.243-18.717l-132.083-90.151c-10.009-6.827-22.943-6.825-32.954.001l-132.078 90.149c-6.448 4.398-10.797 11.046-12.245 18.718-1.447 7.67.178 15.446 4.577 21.896 4.403 6.452 11.054 10.803 18.727 12.25 1.827.345 3.659.515 5.479.515 5.451 0 10.772-1.548 15.459-4.495v55.874l-91.277-91.275c-21.387-21.386-33.164-49.82-33.164-80.066s11.777-58.681 33.162-80.065c19.729-19.72 45.907-31.431 73.714-32.977 4.136-.229 7.302-3.769 7.072-7.904-.229-4.136-3.781-7.308-7.904-7.072-31.495 1.75-61.145 15.012-83.487 37.345-24.219 24.218-37.557 56.42-37.557 90.673 0 34.252 13.338 66.455 37.557 90.673l213.14 213.14c1.407 1.407 3.314 2.197 5.304 2.197s3.896-.79 5.304-2.197l213.14-213.141c49.986-49.997 49.986-131.348-.003-181.346zm-218.442 378.577-101.561-101.561v-81.061l101.561-69.311 52.723 35.985c3.419 2.334 8.087 1.454 10.422-1.967s1.455-8.087-1.966-10.423l-56.951-38.87c-2.549-1.74-5.906-1.74-8.455 0l-119.833 81.782c-3.14 2.144-6.925 2.935-10.656 2.232-3.735-.705-6.974-2.824-9.117-5.965-2.142-3.139-2.933-6.925-2.228-10.659s2.82-6.969 5.96-9.11l132.077-90.148c4.874-3.324 11.174-3.326 16.046-.001l132.082 90.151c3.138 2.14 5.253 5.375 5.958 9.109s-.086 7.52-2.227 10.658c-2.656 3.893-7.059 6.217-11.775 6.217-2.854 0-5.62-.859-8.002-2.485l-38.11-26.01c-3.421-2.336-8.089-1.454-10.422 1.967-2.336 3.421-1.455 8.088 1.967 10.423l24.066 16.425v81.065z"/><path d="m278.045 280.01h-44.093c-14.365 0-26.052 11.687-26.052 26.052v57c0 14.366 11.687 26.053 26.052 26.053h44.093c14.365 0 26.053-11.687 26.053-26.053v-57c0-14.365-11.688-26.052-26.053-26.052zm-44.093 15h44.093c6.095 0 11.053 4.958 11.053 11.052v7.5h-66.198v-7.5c0-6.094 4.958-11.052 11.052-11.052zm44.093 79.105h-44.093c-6.094 0-11.052-4.958-11.052-11.053v-34.5h66.197v34.5c.001 6.095-4.957 11.053-11.052 11.053z"/></g></svg>