<!-- Generated by IcoMoon.io -->
<svg version="1.1" xmlns="http://www.w3.org/2000/svg" width="32" height="32" viewBox="0 0 32 32">
<title>vg-team</title>
<path d="M9.887 16.544c1.175 0 2.324-0.351 3.301-1.009s1.739-1.592 2.189-2.686c0.45-1.094 0.567-2.297 0.338-3.458s-0.795-2.227-1.626-3.064-1.89-1.407-3.043-1.638c-1.153-0.231-2.348-0.112-3.434 0.341s-2.014 1.22-2.667 2.204c-0.653 0.984-1.002 2.141-1.002 3.325 0.001 1.587 0.628 3.108 1.742 4.231s2.625 1.753 4.201 1.755v0zM9.887 6.587c0.78 0 1.542 0.233 2.191 0.669s1.154 1.057 1.452 1.782c0.299 0.726 0.377 1.524 0.224 2.295s-0.528 1.478-1.079 2.034c-0.552 0.556-1.254 0.934-2.019 1.087s-1.558 0.075-2.278-0.226c-0.721-0.301-1.336-0.81-1.77-1.463s-0.665-1.421-0.665-2.207c0.001-1.053 0.417-2.062 1.156-2.807s1.742-1.163 2.787-1.165zM23.727 12.718c0.997 0 1.972-0.298 2.802-0.856s1.476-1.351 1.857-2.279c0.382-0.928 0.482-1.949 0.287-2.935s-0.675-1.89-1.38-2.601-1.604-1.194-2.582-1.39c-0.978-0.196-1.992-0.095-2.914 0.289s-1.709 1.035-2.263 1.871c-0.554 0.835-0.85 1.817-0.85 2.822 0.001 1.347 0.533 2.638 1.479 3.59s2.227 1.488 3.564 1.489zM23.727 4.574c0.602 0 1.191 0.18 1.691 0.517s0.891 0.816 1.121 1.376c0.23 0.56 0.291 1.177 0.173 1.771s-0.407 1.141-0.833 1.57-0.968 0.721-1.559 0.839c-0.59 0.118-1.202 0.058-1.759-0.174s-1.032-0.625-1.366-1.129c-0.334-0.504-0.513-1.097-0.513-1.703 0-0.813 0.321-1.593 0.891-2.168s1.345-0.898 2.152-0.898zM0.006 27.618c0.194-1.743 0.84-3.404 1.872-4.816s2.414-2.527 4.008-3.233c1.594-0.705 3.344-0.977 5.075-0.787s3.382 0.834 4.788 1.869c0.537-1.86 1.699-3.475 3.286-4.57s3.502-1.6 5.419-1.432c1.916 0.169 3.715 1.001 5.090 2.357s2.24 3.148 2.449 5.074c0.015 0.132 0.004 0.267-0.032 0.395s-0.098 0.248-0.181 0.352c-0.083 0.104-0.185 0.19-0.301 0.254s-0.244 0.104-0.375 0.117h-0.11c-0.247 0.002-0.486-0.089-0.671-0.255s-0.302-0.394-0.329-0.641c-0.174-1.549-0.907-2.979-2.060-4.019s-2.645-1.617-4.192-1.622c-1.548-0.005-3.043 0.563-4.202 1.596s-1.901 2.458-2.085 4.006c1.283 1.513 2.085 3.379 2.304 5.356 0.015 0.132 0.005 0.265-0.031 0.392s-0.096 0.246-0.178 0.35c-0.082 0.104-0.183 0.19-0.298 0.255s-0.241 0.105-0.372 0.12h-0.11c-0.247 0.002-0.486-0.089-0.671-0.255s-0.302-0.394-0.329-0.641c-0.228-1.944-1.157-3.736-2.61-5.036s-3.329-2.018-5.272-2.018c-1.944 0-3.819 0.718-5.272 2.018s-2.381 3.092-2.61 5.036c-0.014 0.132-0.055 0.26-0.118 0.377s-0.149 0.219-0.252 0.303c-0.103 0.083-0.221 0.145-0.348 0.182s-0.26 0.049-0.391 0.034-0.258-0.055-0.374-0.119c-0.116-0.064-0.218-0.15-0.3-0.254s-0.144-0.223-0.181-0.351c-0.037-0.128-0.048-0.262-0.034-0.394v0z"></path>
</svg>
