<!-- Generated by IcoMoon.io -->
<svg version="1.1" xmlns="http://www.w3.org/2000/svg" width="32" height="32" viewBox="0 0 32 32">
<title>accessible</title>
<path d="M17.125 24h2.75c-0.333 1.542-1.104 2.813-2.312 3.813s-2.625 1.5-4.25 1.5c-1.833 0-3.396-0.646-4.688-1.938s-1.938-2.854-1.938-4.687c0-1.625 0.5-3.042 1.5-4.25s2.271-1.979 3.813-2.312v2.75c-0.792 0.292-1.438 0.792-1.938 1.5-0.5 0.667-0.75 1.438-0.75 2.313 0 1.083 0.396 2.021 1.188 2.813s1.729 1.187 2.813 1.187c0.875 0 1.646-0.25 2.313-0.75 0.708-0.5 1.208-1.146 1.5-1.937zM13.313 12.125c0-1 0.438-1.792 1.313-2.375s1.771-0.604 2.687-0.063h0.062v0.063c0.292 0.125 0.563 0.313 0.813 0.563l1.75 1.938c1.5 1.625 3.292 2.437 5.375 2.437v2.625c-2.333 0-4.542-0.854-6.625-2.563v4.563h4c0.708 0 1.313 0.271 1.813 0.813 0.542 0.542 0.813 1.167 0.813 1.875v7.313h-2.625v-6.625h-6.687c-0.708 0-1.333-0.271-1.875-0.813s-0.813-1.167-0.813-1.875v-7.875zM14.063 7.25c-0.5-0.542-0.75-1.188-0.75-1.938s0.25-1.375 0.75-1.875c0.542-0.5 1.187-0.75 1.937-0.75s1.375 0.25 1.875 0.75c0.542 0.5 0.813 1.125 0.813 1.875s-0.271 1.396-0.813 1.938c-0.5 0.5-1.125 0.75-1.875 0.75s-1.396-0.25-1.937-0.75z"></path>
</svg>
