<!-- Generated by IcoMoon.io -->
<svg version="1.1" xmlns="http://www.w3.org/2000/svg" width="32" height="32" viewBox="0 0 32 32">
<title>account_box</title>
<path d="M8 22.687v1.313h16v-1.313c0-1.208-0.917-2.187-2.75-2.937-1.833-0.792-3.583-1.187-5.25-1.187s-3.417 0.396-5.25 1.187c-1.833 0.75-2.75 1.729-2.75 2.937zM18.813 14.813c0.792-0.792 1.187-1.729 1.187-2.813s-0.396-2.021-1.187-2.813c-0.792-0.792-1.729-1.188-2.813-1.188s-2.021 0.396-2.813 1.188c-0.792 0.792-1.188 1.729-1.188 2.813s0.396 2.021 1.188 2.813c0.792 0.792 1.729 1.187 2.813 1.187s2.021-0.396 2.813-1.187zM4 6.688c0-0.708 0.25-1.333 0.75-1.875 0.542-0.542 1.188-0.813 1.938-0.813h18.625c0.708 0 1.333 0.271 1.875 0.813s0.813 1.167 0.813 1.875v18.625c0 0.708-0.271 1.333-0.813 1.875s-1.167 0.813-1.875 0.813h-18.625c-0.75 0-1.396-0.271-1.938-0.813-0.5-0.542-0.75-1.167-0.75-1.875v-18.625z"></path>
</svg>
