<!-- Generated by IcoMoon.io -->
<svg version="1.1" xmlns="http://www.w3.org/2000/svg" width="32" height="32" viewBox="0 0 32 32">
<title>account_circle</title>
<path d="M8 21.313c1.958 2.875 4.625 4.313 8 4.313s6.042-1.438 8-4.313c-0.042-1.167-0.979-2.146-2.813-2.938s-3.562-1.187-5.187-1.187-3.354 0.396-5.188 1.187c-1.833 0.75-2.771 1.729-2.813 2.938zM18.813 7.875c-0.792-0.792-1.729-1.188-2.813-1.188s-2.021 0.396-2.813 1.188c-0.792 0.792-1.188 1.729-1.188 2.813s0.396 2.021 1.188 2.813c0.792 0.792 1.729 1.187 2.813 1.187s2.021-0.396 2.813-1.187c0.792-0.792 1.187-1.729 1.187-2.813s-0.396-2.021-1.187-2.813zM6.563 6.625c2.625-2.625 5.771-3.938 9.438-3.938s6.792 1.313 9.375 3.938c2.625 2.583 3.938 5.708 3.938 9.375s-1.313 6.813-3.938 9.437c-2.583 2.583-5.708 3.875-9.375 3.875s-6.813-1.292-9.438-3.875c-2.583-2.625-3.875-5.771-3.875-9.437s1.292-6.792 3.875-9.375z"></path>
</svg>
