<!-- Generated by IcoMoon.io -->
<svg version="1.1" xmlns="http://www.w3.org/2000/svg" width="32" height="32" viewBox="0 0 32 32">
<title>account_balance_wallet</title>
<path d="M19.875 17.437c0.417 0.375 0.896 0.563 1.438 0.563s1-0.187 1.375-0.563c0.417-0.375 0.625-0.854 0.625-1.437s-0.208-1.063-0.625-1.437c-0.375-0.375-0.833-0.563-1.375-0.563s-1.021 0.187-1.438 0.563c-0.375 0.375-0.562 0.854-0.562 1.437s0.187 1.063 0.562 1.437zM16 21.313v-10.625h13.313v10.625h-13.313zM28 24v1.313c0 0.708-0.271 1.333-0.813 1.875s-1.167 0.813-1.875 0.813h-18.625c-0.75 0-1.396-0.271-1.938-0.813-0.5-0.542-0.75-1.167-0.75-1.875v-18.625c0-0.708 0.25-1.333 0.75-1.875 0.542-0.542 1.188-0.813 1.938-0.813h18.625c0.708 0 1.333 0.271 1.875 0.813s0.813 1.167 0.813 1.875v1.313h-12c-0.75 0-1.396 0.271-1.937 0.813-0.5 0.542-0.75 1.167-0.75 1.875v10.625c0 0.708 0.25 1.333 0.75 1.875 0.542 0.542 1.187 0.813 1.937 0.813h12z"></path>
</svg>
