<!-- Generated by IcoMoon.io -->
<svg version="1.1" xmlns="http://www.w3.org/2000/svg" width="32" height="32" viewBox="0 0 32 32">
<title>alarm_on</title>
<path d="M14.063 19.375l6.563-6.625 1.437 1.437-8 8-4.25-4.25 1.375-1.375 2.875 2.812zM9.375 23.937c1.833 1.833 4.042 2.75 6.625 2.75s4.771-0.917 6.563-2.75c1.833-1.833 2.75-4.042 2.75-6.625s-0.917-4.771-2.75-6.563c-1.792-1.833-3.979-2.75-6.563-2.75s-4.792 0.917-6.625 2.75c-1.792 1.792-2.688 3.979-2.688 6.563s0.896 4.792 2.688 6.625zM7.5 8.875c2.333-2.375 5.167-3.563 8.5-3.563s6.167 1.188 8.5 3.563c2.333 2.333 3.5 5.146 3.5 8.438s-1.167 6.125-3.5 8.5c-2.333 2.333-5.167 3.5-8.5 3.5s-6.167-1.167-8.5-3.5c-2.333-2.375-3.5-5.208-3.5-8.5s1.167-6.104 3.5-8.438zM10.5 4.5l-6.125 5.125-1.688-2 6.125-5.125 1.688 2zM29.313 7.625l-1.687 2.063-6.125-5.188 1.687-2 6.125 5.125z"></path>
</svg>
