<!-- Generated by IcoMoon.io -->
<svg version="1.1" xmlns="http://www.w3.org/2000/svg" width="32" height="32" viewBox="0 0 32 32">
<title>alarm_off</title>
<path d="M10.688 4.375l-1.125 0.938-1.938-1.875 1.188-0.938 1.875 1.875zM21.937 24.5l-13.125-13.125c-1.417 1.75-2.125 3.729-2.125 5.938 0 2.583 0.896 4.792 2.688 6.625 1.833 1.833 4.042 2.75 6.625 2.75 2.167 0 4.146-0.729 5.937-2.187zM3.875 3.063c3.167 3.167 7.667 7.667 13.5 13.5 5.875 5.833 9.583 9.521 11.125 11.063l-1.687 1.687-2.938-2.938c-2.292 1.958-4.917 2.938-7.875 2.938-3.333 0-6.167-1.167-8.5-3.5-2.333-2.375-3.5-5.208-3.5-8.5 0-2.917 0.979-5.521 2.938-7.813l-1.063-1.063-1.5 1.25-1.875-1.938 1.5-1.188-1.813-1.813 1.688-1.688zM29.313 7.625l-1.687 2.063-6.125-5.188 1.687-2 6.125 5.125zM16 8c-1.125 0-2.187 0.188-3.188 0.563l-2.063-2c1.75-0.833 3.5-1.25 5.25-1.25 3.333 0 6.167 1.188 8.5 3.563 2.333 2.333 3.5 5.146 3.5 8.438 0 1.833-0.396 3.583-1.187 5.25l-2.063-2c0.375-1 0.563-2.083 0.563-3.25 0-2.583-0.917-4.771-2.75-6.563-1.792-1.833-3.979-2.75-6.563-2.75z"></path>
</svg>
