<!-- Generated by IcoMoon.io -->
<svg version="1.1" xmlns="http://www.w3.org/2000/svg" width="32" height="32" viewBox="0 0 32 32">
<title>android</title>
<path d="M19.84 7.7v-1.32h-1.26v1.32h1.26zM13.42 7.7v-1.32h-1.26v1.32h1.26zM20.5 4.040c2.12 1.52 3.18 3.58 3.18 6.18h-15.36c0-2.64 1.040-4.7 3.12-6.18l-1.68-1.68c-0.32-0.32-0.32-0.62 0-0.9s0.62-0.28 0.9 0l1.92 1.92c1.040-0.56 2.18-0.84 3.42-0.84 1.2 0 2.32 0.28 3.36 0.84l1.92-1.92c0.32-0.28 0.62-0.28 0.9 0s0.28 0.58 0 0.9l-1.68 1.68zM25.48 12.14c0.4-0.4 0.86-0.6 1.38-0.6s0.96 0.2 1.32 0.6c0.4 0.36 0.6 0.8 0.6 1.32v8.94c0 0.56-0.2 1.020-0.6 1.38-0.36 0.36-0.8 0.54-1.32 0.54s-0.98-0.18-1.38-0.54c-0.36-0.36-0.54-0.82-0.54-1.38v-8.94c0-0.52 0.18-0.96 0.54-1.32zM3.76 12.14c0.4-0.4 0.86-0.6 1.38-0.6s0.96 0.2 1.32 0.6c0.4 0.36 0.6 0.8 0.6 1.32v8.94c0 0.56-0.2 1.020-0.6 1.38-0.36 0.36-0.8 0.54-1.32 0.54s-0.98-0.18-1.38-0.54c-0.36-0.36-0.54-0.82-0.54-1.38v-8.94c0-0.52 0.18-0.96 0.54-1.32zM8.32 24.32v-12.78h15.36v12.78c0 0.36-0.12 0.66-0.36 0.9s-0.54 0.36-0.9 0.36h-1.32v4.5c0 0.56-0.2 1.020-0.6 1.38-0.36 0.36-0.8 0.54-1.32 0.54s-0.98-0.18-1.38-0.54c-0.36-0.36-0.54-0.82-0.54-1.38v-4.5h-2.52v4.5c0 0.56-0.2 1.020-0.6 1.38-0.36 0.36-0.8 0.54-1.32 0.54s-0.98-0.18-1.38-0.54c-0.36-0.36-0.54-0.82-0.54-1.38v-4.5h-1.32c-0.36 0-0.66-0.12-0.9-0.36s-0.36-0.54-0.36-0.9z"></path>
</svg>
