<!-- Generated by IcoMoon.io -->
<svg version="1.1" xmlns="http://www.w3.org/2000/svg" width="32" height="32" viewBox="0 0 32 32">
<title>backup</title>
<path d="M18.687 17.313h4l-6.687-6.625-6.688 6.625h4v5.375h5.375v-5.375zM25.813 13.375c1.708 0.125 3.167 0.833 4.375 2.125 1.208 1.25 1.813 2.75 1.813 4.5 0 1.833-0.667 3.417-2 4.75-1.292 1.292-2.854 1.937-4.687 1.937h-17.313c-2.208 0-4.104-0.771-5.688-2.313-1.542-1.583-2.313-3.479-2.313-5.687 0-2.042 0.688-3.813 2.063-5.313 1.375-1.542 3.063-2.417 5.063-2.625 0.875-1.625 2.104-2.938 3.688-3.938s3.313-1.5 5.188-1.5c2.417 0 4.542 0.771 6.375 2.313 1.833 1.5 2.979 3.417 3.438 5.75z"></path>
</svg>
