<!-- Generated by IcoMoon.io -->
<svg version="1.1" xmlns="http://www.w3.org/2000/svg" width="32" height="32" viewBox="0 0 32 32">
<title>bug_report</title>
<path d="M18.687 16v-2.688h-5.375v2.688h5.375zM18.687 21.313v-2.625h-5.375v2.625h5.375zM26.687 10.688v2.625h-2.813c0.083 0.583 0.125 1.042 0.125 1.375v1.313h2.687v2.687h-2.687v1.313c0 0.292-0.042 0.729-0.125 1.313h2.813v2.687h-3.75c-0.708 1.208-1.687 2.187-2.937 2.937-1.208 0.708-2.542 1.063-4 1.063s-2.813-0.354-4.063-1.063c-1.208-0.75-2.167-1.729-2.875-2.937h-3.75v-2.687h2.813c-0.083-0.583-0.125-1.021-0.125-1.313v-1.313h-2.688v-2.687h2.688v-1.313c0-0.333 0.042-0.792 0.125-1.375h-2.813v-2.625h3.75c0.625-1.042 1.438-1.917 2.438-2.625l-2.188-2.188 1.875-1.875 2.938 2.875c0.625-0.125 1.25-0.188 1.875-0.188s1.25 0.063 1.875 0.188l2.938-2.875 1.875 1.875-2.187 2.188c1 0.708 1.813 1.583 2.437 2.625h3.75z"></path>
</svg>
