<!-- Generated by IcoMoon.io -->
<svg version="1.1" xmlns="http://www.w3.org/2000/svg" width="32" height="32" viewBox="0 0 32 32">
<title>build</title>
<path d="M30.25 25.312c0.292 0.167 0.417 0.458 0.375 0.875 0 0.375-0.167 0.708-0.5 1l-3.063 3.063c-0.625 0.625-1.25 0.625-1.875 0l-12.125-12.125c-1.5 0.625-3.104 0.771-4.813 0.437-1.667-0.375-3.125-1.187-4.375-2.437-1.333-1.333-2.167-2.917-2.5-4.75s-0.083-3.542 0.75-5.125l5.875 5.75 4-4-5.75-5.75c1.583-0.75 3.292-0.979 5.125-0.688s3.417 1.104 4.75 2.438c1.25 1.25 2.042 2.729 2.375 4.438 0.375 1.667 0.25 3.25-0.375 4.75l12.125 12.125z"></path>
</svg>
