<!-- Generated by IcoMoon.io -->
<svg version="1.1" xmlns="http://www.w3.org/2000/svg" width="32" height="32" viewBox="0 0 32 32">
<title>cached</title>
<path d="M8 16h4l-5.313 5.313-5.375-5.313h4c0-2.917 1.042-5.417 3.125-7.5 2.125-2.125 4.646-3.188 7.563-3.188 2.083 0 3.979 0.563 5.687 1.688l-1.937 1.938c-1.125-0.625-2.375-0.938-3.75-0.938-2.208 0-4.104 0.792-5.688 2.375-1.542 1.542-2.313 3.417-2.313 5.625zM25.313 10.688l5.375 5.313h-4c0 2.917-1.062 5.437-3.187 7.563-2.083 2.083-4.583 3.125-7.5 3.125-2.083 0-3.979-0.562-5.688-1.687l1.938-1.937c1.125 0.625 2.375 0.937 3.75 0.937 2.208 0 4.083-0.771 5.625-2.313 1.583-1.583 2.375-3.479 2.375-5.687h-4l5.313-5.313z"></path>
</svg>
