<!-- Generated by IcoMoon.io -->
<svg version="1.1" xmlns="http://www.w3.org/2000/svg" width="32" height="32" viewBox="0 0 32 32">
<title>chrome_reader_mode</title>
<path d="M28 25.313v-17.313h-12v17.313h12zM28 5.313c0.708 0 1.333 0.271 1.875 0.813s0.813 1.167 0.813 1.875v17.313c0 0.708-0.271 1.333-0.813 1.875s-1.167 0.813-1.875 0.813h-24c-0.708 0-1.333-0.271-1.875-0.813s-0.813-1.167-0.813-1.875v-17.313c0-0.708 0.271-1.333 0.813-1.875s1.167-0.813 1.875-0.813h24zM17.313 19.313h9.375v2h-9.375v-2zM17.313 12.688h9.375v2h-9.375v-2zM17.313 16h9.375v2h-9.375v-2z"></path>
</svg>
