<!-- Generated by IcoMoon.io -->
<svg version="1.1" xmlns="http://www.w3.org/2000/svg" width="32" height="32" viewBox="0 0 32 32">
<title>copyright</title>
<path d="M8.438 23.563c2.125 2.083 4.646 3.125 7.563 3.125s5.417-1.042 7.5-3.125c2.125-2.125 3.187-4.646 3.187-7.563s-1.062-5.417-3.187-7.5c-2.083-2.125-4.583-3.188-7.5-3.188s-5.438 1.063-7.563 3.188c-2.083 2.083-3.125 4.583-3.125 7.5s1.042 5.437 3.125 7.563zM6.563 6.625c2.625-2.625 5.771-3.938 9.438-3.938s6.792 1.313 9.375 3.938c2.625 2.583 3.938 5.708 3.938 9.375s-1.313 6.813-3.938 9.437c-2.583 2.583-5.708 3.875-9.375 3.875s-6.813-1.292-9.438-3.875c-2.583-2.625-3.875-5.771-3.875-9.437s1.292-6.792 3.875-9.375zM15.813 12.188c-1.667 0-2.5 1.208-2.5 3.625v0.375c0 2.417 0.833 3.625 2.5 3.625 0.625 0 1.146-0.167 1.562-0.5 0.417-0.375 0.625-0.833 0.625-1.375h2.375c0 1.042-0.458 1.958-1.375 2.75-0.875 0.75-1.937 1.125-3.187 1.125-1.667 0-2.938-0.5-3.813-1.5s-1.313-2.375-1.313-4.125v-0.375c0-1.708 0.417-3.042 1.25-4 1-1.125 2.292-1.688 3.875-1.688 1.375 0 2.458 0.396 3.25 1.188 0.875 0.875 1.312 1.896 1.312 3.062h-2.375c0-0.292-0.063-0.562-0.187-0.812-0.208-0.417-0.354-0.667-0.438-0.75-0.417-0.417-0.937-0.625-1.562-0.625z"></path>
</svg>
