<!-- Generated by IcoMoon.io -->
<svg version="1.1" xmlns="http://www.w3.org/2000/svg" width="32" height="32" viewBox="0 0 32 32">
<title>description</title>
<path d="M17.313 12h7.375l-7.375-7.313v7.313zM21.313 18.687v-2.687h-10.625v2.687h10.625zM21.313 24v-2.687h-10.625v2.687h10.625zM18.687 2.688l8 8v16c0 0.708-0.271 1.333-0.813 1.875-0.542 0.5-1.167 0.75-1.875 0.75h-16c-0.708 0-1.333-0.25-1.875-0.75-0.542-0.542-0.813-1.167-0.813-1.875l0.063-21.375c0-0.708 0.25-1.313 0.75-1.813 0.542-0.542 1.167-0.813 1.875-0.813h10.687z"></path>
</svg>
