<!-- Generated by IcoMoon.io -->
<svg version="1.1" xmlns="http://www.w3.org/2000/svg" width="32" height="32" viewBox="0 0 32 32">
<title>directions</title>
<path d="M18.687 19.313l4.625-4.625-4.625-4.687v3.313h-6.687c-0.375 0-0.688 0.146-0.938 0.438-0.25 0.25-0.375 0.563-0.375 0.937v5.313h2.625v-4h5.375v3.313zM28.937 15.063c0.583 0.667 0.583 1.292 0 1.875l-12 12c-0.25 0.25-0.563 0.375-0.937 0.375s-0.687-0.125-0.937-0.375l-12-12c-0.25-0.25-0.375-0.563-0.375-0.937s0.125-0.687 0.375-0.937l12-12c0.25-0.25 0.563-0.375 0.937-0.375s0.687 0.125 0.937 0.375l12 12z"></path>
</svg>
