<!-- Generated by IcoMoon.io -->
<svg version="1.1" xmlns="http://www.w3.org/2000/svg" width="32" height="32" viewBox="0 0 32 32">
<title>donut_small</title>
<path d="M17.313 19.813c1.125-0.333 1.958-1.167 2.5-2.5h9.5c-0.333 3.208-1.604 5.937-3.813 8.187-2.167 2.25-4.896 3.521-8.187 3.813v-9.5zM19.813 14.687c-0.5-1.333-1.333-2.167-2.5-2.5v-9.5c3.292 0.292 6.021 1.563 8.187 3.813 2.208 2.25 3.479 4.979 3.813 8.187h-9.5zM14.687 12.188c-0.708 0.292-1.333 0.792-1.875 1.5s-0.813 1.479-0.813 2.313 0.271 1.604 0.813 2.313c0.542 0.708 1.167 1.208 1.875 1.5v9.5c-3.375-0.333-6.229-1.771-8.562-4.313-2.292-2.542-3.438-5.542-3.438-9s1.146-6.458 3.438-9c2.333-2.542 5.188-3.979 8.562-4.313v9.5z"></path>
</svg>
