<!-- Generated by IcoMoon.io -->
<svg version="1.1" xmlns="http://www.w3.org/2000/svg" width="32" height="32" viewBox="0 0 32 32">
<title>euro_symbol</title>
<path d="M20 24.687c2.125 0 4-0.708 5.625-2.125l2.375 2.375c-2.25 2.042-4.917 3.063-8 3.063-2.583 0-4.917-0.75-7-2.25-2.042-1.5-3.479-3.417-4.313-5.75h-4.688v-2.687h4.063c-0.042-0.292-0.063-0.729-0.063-1.313s0.021-1.021 0.063-1.313h-4.063v-2.687h4.688c0.833-2.333 2.271-4.25 4.313-5.75 2.083-1.5 4.417-2.25 7-2.25 3.083 0 5.75 1.021 8 3.063l-2.375 2.375c-1.625-1.417-3.5-2.125-5.625-2.125-1.625 0-3.125 0.438-4.5 1.313-1.375 0.833-2.438 1.958-3.188 3.375h7.688v2.687h-8.563c-0.083 0.583-0.125 1.021-0.125 1.313s0.042 0.729 0.125 1.313h8.563v2.687h-7.688c0.75 1.417 1.792 2.563 3.125 3.437 1.375 0.833 2.896 1.25 4.563 1.25z"></path>
</svg>
