<!-- Generated by IcoMoon.io -->
<svg version="1.1" xmlns="http://www.w3.org/2000/svg" width="32" height="32" viewBox="0 0 32 32">
<title>explore</title>
<path d="M18.937 18.937l5.063-10.937-10.938 5.063-5.063 10.938 10.937-5.063zM6.563 6.625c2.625-2.625 5.771-3.938 9.438-3.938s6.792 1.313 9.375 3.938c2.625 2.583 3.938 5.708 3.938 9.375s-1.313 6.813-3.938 9.437c-2.583 2.583-5.708 3.875-9.375 3.875s-6.813-1.292-9.438-3.875c-2.583-2.625-3.875-5.771-3.875-9.437s1.292-6.792 3.875-9.375zM14.937 15c0.292-0.292 0.646-0.437 1.063-0.437s0.75 0.146 1 0.437c0.292 0.25 0.437 0.583 0.437 1s-0.146 0.771-0.437 1.063c-0.25 0.25-0.583 0.375-1 0.375s-0.771-0.125-1.063-0.375c-0.25-0.292-0.375-0.646-0.375-1.063s0.125-0.75 0.375-1z"></path>
</svg>
