<!-- Generated by IcoMoon.io -->
<svg version="1.1" xmlns="http://www.w3.org/2000/svg" width="32" height="32" viewBox="0 0 32 32">
<title>favorite</title>
<path d="M16 28.437l-1.937-1.75c-2.208-2-3.813-3.479-4.813-4.437s-2.125-2.146-3.375-3.563c-1.208-1.417-2.042-2.687-2.5-3.813-0.458-1.167-0.688-2.354-0.688-3.562 0-2.042 0.688-3.771 2.063-5.188 1.417-1.417 3.167-2.125 5.25-2.125 2.417 0 4.417 0.938 6 2.813 1.583-1.875 3.583-2.813 6-2.813 2.083 0 3.813 0.708 5.187 2.125 1.417 1.417 2.125 3.146 2.125 5.188 0 1.625-0.542 3.313-1.625 5.062s-2.271 3.271-3.562 4.563c-1.25 1.292-3.313 3.229-6.188 5.813l-1.937 1.687z"></path>
</svg>
