<!-- Generated by IcoMoon.io -->
<svg version="1.1" xmlns="http://www.w3.org/2000/svg" width="32" height="32" viewBox="0 0 32 32">
<title>favorite_border</title>
<path d="M16.125 24.75c2-1.792 3.479-3.146 4.437-4.063s2-2 3.125-3.25c1.125-1.25 1.896-2.354 2.313-3.312 0.458-0.958 0.687-1.896 0.687-2.813 0-1.333-0.458-2.438-1.375-3.313-0.875-0.875-1.979-1.313-3.313-1.313-1.042 0-2.021 0.292-2.937 0.875-0.875 0.583-1.479 1.333-1.813 2.25h-2.5c-0.333-0.917-0.958-1.667-1.875-2.25-0.875-0.583-1.833-0.875-2.875-0.875-1.333 0-2.458 0.438-3.375 1.313-0.875 0.875-1.313 1.979-1.313 3.313 0 0.917 0.208 1.854 0.625 2.813 0.458 0.958 1.25 2.062 2.375 3.312s2.167 2.333 3.125 3.25c0.958 0.917 2.437 2.271 4.437 4.063l0.125 0.125 0.125-0.125zM22 4c2.083 0 3.813 0.708 5.187 2.125 1.417 1.417 2.125 3.146 2.125 5.188 0 1.208-0.229 2.396-0.687 3.562-0.458 1.125-1.313 2.396-2.563 3.813-1.208 1.417-2.313 2.604-3.313 3.563s-2.604 2.437-4.813 4.437l-1.937 1.75-1.937-1.687c-2.875-2.583-4.958-4.521-6.25-5.813-1.25-1.292-2.417-2.812-3.5-4.563s-1.625-3.437-1.625-5.062c0-2.042 0.688-3.771 2.063-5.188 1.417-1.417 3.167-2.125 5.25-2.125 2.417 0 4.417 0.938 6 2.813 1.583-1.875 3.583-2.813 6-2.813z"></path>
</svg>
