<!-- Generated by IcoMoon.io -->
<svg version="1.1" xmlns="http://www.w3.org/2000/svg" width="32" height="32" viewBox="0 0 32 32">
<title>find_in_page</title>
<path d="M13.188 20.125c-0.792-0.792-1.188-1.729-1.188-2.813s0.396-2.021 1.188-2.813c0.792-0.792 1.729-1.188 2.813-1.188s2.021 0.396 2.813 1.188c0.792 0.792 1.187 1.729 1.187 2.813s-0.396 2.021-1.187 2.813c-0.792 0.792-1.729 1.187-2.813 1.187s-2.021-0.396-2.813-1.187zM26.687 26.125l-5.125-5.125c0.75-1.167 1.125-2.396 1.125-3.687 0-1.833-0.667-3.396-2-4.688-1.292-1.292-2.854-1.938-4.687-1.938s-3.417 0.646-4.75 1.938c-1.292 1.292-1.938 2.854-1.938 4.688s0.646 3.417 1.938 4.75c1.333 1.292 2.917 1.937 4.75 1.937 1.292 0 2.521-0.375 3.687-1.125l5.875 5.938c-0.458 0.333-0.979 0.5-1.563 0.5h-16c-0.708 0-1.333-0.25-1.875-0.75-0.542-0.542-0.813-1.167-0.813-1.875l0.063-21.375c0-0.708 0.25-1.313 0.75-1.813 0.542-0.542 1.167-0.813 1.875-0.813h10.687l8 8v15.438z"></path>
</svg>
