<!-- Generated by IcoMoon.io -->
<svg version="1.1" xmlns="http://www.w3.org/2000/svg" width="32" height="32" viewBox="0 0 32 32">
<title>flight_takeoff</title>
<path d="M28.5 11.625c0.5 0.292 0.813 0.708 0.937 1.25s0.042 1.042-0.25 1.5c-0.25 0.458-0.646 0.771-1.187 0.938-5.167 1.375-9.458 2.521-12.875 3.437l-7.063 1.875-2.125 0.625c-0.292-0.5-1.458-2.5-3.5-6l1.938-0.5 2.625 2 6.625-1.75-5.5-9.563 2.563-0.688 9.187 8.563 7.125-1.875c0.542-0.167 1.042-0.104 1.5 0.188zM3.313 25.313h25.375v2.687h-25.375v-2.687z"></path>
</svg>
