<!-- Generated by IcoMoon.io -->
<svg version="1.1" xmlns="http://www.w3.org/2000/svg" width="32" height="32" viewBox="0 0 32 32">
<title>flip_to_front</title>
<path d="M9.313 28v-2.687h2.688v2.687h-2.688zM14.687 28v-2.687h2.625v2.687h-2.625zM25.313 20v-13.313h-13.313v13.313h13.313zM25.313 4c0.708 0 1.333 0.271 1.875 0.813s0.813 1.167 0.813 1.875v13.313c0 0.708-0.271 1.333-0.813 1.875s-1.167 0.813-1.875 0.813h-13.313c-0.75 0-1.396-0.271-1.938-0.813-0.5-0.542-0.75-1.167-0.75-1.875v-13.313c0-0.708 0.25-1.333 0.75-1.875 0.542-0.542 1.188-0.813 1.938-0.813h13.313zM20 28v-2.687h2.687v2.687h-2.687zM4 12v-2.688h2.688v2.688h-2.688zM6.688 28c-0.75 0-1.396-0.271-1.938-0.813-0.5-0.542-0.75-1.167-0.75-1.875h2.688v2.687zM4 22.687v-2.687h2.688v2.687h-2.688zM4 17.313v-2.625h2.688v2.625h-2.688z"></path>
</svg>
