<!-- Generated by IcoMoon.io -->
<svg version="1.1" xmlns="http://www.w3.org/2000/svg" width="32" height="32" viewBox="0 0 32 32">
<title>flip_to_back</title>
<path d="M20 22.687v-2.687h2.687v2.687h-2.687zM20 6.688v-2.688h2.687v2.688h-2.687zM6.688 9.313v16h16v2.687h-16c-0.75 0-1.396-0.271-1.938-0.813-0.5-0.542-0.75-1.167-0.75-1.875v-16h2.688zM25.313 22.687v-2.687h2.687c0 0.708-0.271 1.333-0.813 1.875s-1.167 0.813-1.875 0.813zM25.313 12v-2.688h2.687v2.688h-2.687zM25.313 17.313v-2.625h2.687v2.625h-2.687zM12 22.687c-0.75 0-1.396-0.271-1.938-0.813-0.5-0.542-0.75-1.167-0.75-1.875h2.688v2.687zM17.313 4v2.688h-2.625v-2.688h2.625zM25.313 4c0.708 0 1.333 0.271 1.875 0.813s0.813 1.167 0.813 1.875h-2.687v-2.688zM17.313 20v2.687h-2.625v-2.687h2.625zM12 4v2.688h-2.688c0-0.708 0.25-1.333 0.75-1.875 0.542-0.542 1.188-0.813 1.938-0.813zM12 14.687v2.625h-2.688v-2.625h2.688zM12 9.313v2.688h-2.688v-2.688h2.688z"></path>
</svg>
