<!-- Generated by IcoMoon.io -->
<svg version="1.1" xmlns="http://www.w3.org/2000/svg" width="32" height="32" viewBox="0 0 32 32">
<title>group_work</title>
<path d="M18.937 22.375c0.667 0.625 1.458 0.938 2.375 0.938s1.708-0.313 2.375-0.938c0.667-0.667 1-1.458 1-2.375s-0.333-1.687-1-2.313c-0.667-0.667-1.458-1-2.375-1s-1.708 0.333-2.375 1c-0.625 0.625-0.937 1.396-0.937 2.313s0.313 1.708 0.937 2.375zM13.625 8.313c-0.625 0.667-0.938 1.458-0.938 2.375s0.313 1.708 0.938 2.375c0.667 0.625 1.458 0.938 2.375 0.938s1.687-0.313 2.313-0.938c0.667-0.667 1-1.458 1-2.375s-0.333-1.708-1-2.375c-0.625-0.667-1.396-1-2.313-1s-1.708 0.333-2.375 1zM8.313 22.375c0.667 0.625 1.458 0.938 2.375 0.938s1.688-0.313 2.313-0.938c0.667-0.667 1-1.458 1-2.375s-0.333-1.687-1-2.313c-0.625-0.667-1.396-1-2.313-1s-1.708 0.333-2.375 1c-0.667 0.625-1 1.396-1 2.313s0.333 1.708 1 2.375zM6.563 6.625c2.625-2.625 5.771-3.938 9.438-3.938s6.792 1.313 9.375 3.938c2.625 2.583 3.938 5.708 3.938 9.375s-1.313 6.813-3.938 9.437c-2.583 2.583-5.708 3.875-9.375 3.875s-6.813-1.292-9.438-3.875c-2.583-2.625-3.875-5.771-3.875-9.437s1.292-6.792 3.875-9.375z"></path>
</svg>
