<!-- Generated by IcoMoon.io -->
<svg version="1.1" xmlns="http://www.w3.org/2000/svg" width="32" height="32" viewBox="0 0 32 32">
<title>help</title>
<path d="M20.063 15c0.833-0.833 1.25-1.833 1.25-3 0-1.458-0.521-2.708-1.563-3.75s-2.292-1.563-3.75-1.563c-1.458 0-2.708 0.521-3.75 1.563s-1.563 2.292-1.563 3.75h2.625c0-0.708 0.271-1.333 0.813-1.875s1.167-0.813 1.875-0.813 1.333 0.271 1.875 0.813c0.542 0.542 0.813 1.167 0.813 1.875s-0.271 1.333-0.813 1.875l-1.625 1.688c-1.042 1.125-1.563 2.375-1.563 3.75v0.687h2.625c0-1.375 0.521-2.625 1.562-3.75l1.188-1.25zM17.313 25.313v-2.625h-2.625v2.625h2.625zM6.563 6.625c2.625-2.625 5.771-3.938 9.438-3.938s6.792 1.313 9.375 3.938c2.625 2.583 3.938 5.708 3.938 9.375s-1.313 6.813-3.938 9.437c-2.583 2.583-5.708 3.875-9.375 3.875s-6.813-1.292-9.438-3.875c-2.583-2.625-3.875-5.771-3.875-9.437s1.292-6.792 3.875-9.375z"></path>
</svg>
