<!-- Generated by IcoMoon.io -->
<svg version="1.1" xmlns="http://www.w3.org/2000/svg" width="32" height="32" viewBox="0 0 32 32">
<title>help_outline</title>
<path d="M12.25 9.563c1.042-1.042 2.292-1.563 3.75-1.563s2.708 0.521 3.75 1.563c1.042 1.042 1.563 2.292 1.563 3.75 0 1.125-0.667 2.292-2 3.5-1.333 1.167-2 2.229-2 3.187h-2.625c0-0.958 0.208-1.771 0.625-2.437 0.417-0.708 0.875-1.208 1.375-1.5 0.5-0.333 0.958-0.729 1.375-1.188s0.625-0.979 0.625-1.562c0-0.708-0.271-1.313-0.813-1.813-0.542-0.542-1.167-0.813-1.875-0.813s-1.333 0.271-1.875 0.813c-0.542 0.5-0.813 1.104-0.813 1.813h-2.625c0-1.458 0.521-2.708 1.563-3.75zM8.438 23.563c2.125 2.083 4.646 3.125 7.563 3.125s5.417-1.042 7.5-3.125c2.125-2.125 3.187-4.646 3.187-7.563s-1.062-5.417-3.187-7.5c-2.083-2.125-4.583-3.188-7.5-3.188s-5.438 1.063-7.563 3.188c-2.083 2.083-3.125 4.583-3.125 7.5s1.042 5.437 3.125 7.563zM6.563 6.625c2.625-2.625 5.771-3.938 9.438-3.938s6.792 1.313 9.375 3.938c2.625 2.583 3.938 5.708 3.938 9.375s-1.313 6.813-3.938 9.437c-2.583 2.583-5.708 3.875-9.375 3.875s-6.813-1.292-9.438-3.875c-2.583-2.625-3.875-5.771-3.875-9.437s1.292-6.792 3.875-9.375zM14.687 24v-2.687h2.625v2.687h-2.625z"></path>
</svg>
