<!-- Generated by IcoMoon.io -->
<svg version="1.1" xmlns="http://www.w3.org/2000/svg" width="32" height="32" viewBox="0 0 32 32">
<title>http</title>
<path d="M28.687 15.313v-1.313h-2.687v1.313h2.687zM28.687 12c0.542 0 1 0.208 1.375 0.625 0.417 0.375 0.625 0.833 0.625 1.375v1.313c0 0.542-0.208 1.021-0.625 1.437-0.375 0.375-0.833 0.563-1.375 0.563h-2.687v2.687h-2v-8h4.687zM16.687 14v-2h6v2h-2v6h-2v-6h-2zM9.313 14v-2h6v2h-2v6h-2v-6h-2zM6 14.687v-2.687h2v8h-2v-3.313h-2.688v3.313h-2v-8h2v2.687h2.688z"></path>
</svg>
