<!-- Generated by IcoMoon.io -->
<svg version="1.1" xmlns="http://www.w3.org/2000/svg" width="32" height="32" viewBox="0 0 32 32">
<title>important_devices</title>
<path d="M15.937 12h4.063l-3.313 2.375 1.25 3.875-3.25-2.437-3.312 2.437 1.25-3.875-3.313-2.375h4.062l1.313-4 1.25 4zM26.687 2.688c0.708 0 1.313 0.25 1.813 0.75 0.542 0.5 0.813 1.125 0.813 1.875v6.688h-2.625v-6.688h-24v16h17.313v2.687h-2.687v2.687h2.687v2.625h-10.688v-2.625h2.688v-2.687h-9.313c-0.75 0-1.396-0.271-1.938-0.813-0.5-0.542-0.75-1.167-0.75-1.875v-16c0-0.75 0.25-1.375 0.75-1.875 0.542-0.5 1.188-0.75 1.938-0.75h24zM30.687 26.687v-9.375h-6.687v9.375h6.687zM30.687 14.687c0.375 0 0.687 0.125 0.938 0.375s0.375 0.563 0.375 0.937v12c0 0.375-0.125 0.687-0.375 0.937s-0.563 0.375-0.938 0.375h-6.687c-0.375 0-0.687-0.125-0.937-0.375s-0.375-0.563-0.375-0.937v-12c0-0.375 0.125-0.687 0.375-0.937s0.563-0.375 0.937-0.375h6.687z"></path>
</svg>
