<!-- Generated by IcoMoon.io -->
<svg version="1.1" xmlns="http://www.w3.org/2000/svg" width="32" height="32" viewBox="0 0 32 32">
<title>invert_colors</title>
<path d="M16 26.125v-19.313l-5.625 5.625c-1.583 1.583-2.375 3.479-2.375 5.688 0 2.167 0.792 4.042 2.375 5.625s3.458 2.375 5.625 2.375zM23.563 10.563c2.083 2.083 3.125 4.604 3.125 7.563 0 2.917-1.042 5.417-3.125 7.5s-4.604 3.125-7.563 3.125c-2.958 0-5.479-1.042-7.563-3.125s-3.125-4.583-3.125-7.5c0-2.958 1.042-5.479 3.125-7.563l7.563-7.563 7.563 7.563z"></path>
</svg>
