<!-- Generated by IcoMoon.io -->
<svg version="1.1" xmlns="http://www.w3.org/2000/svg" width="32" height="32" viewBox="0 0 32 32">
<title>language</title>
<path d="M21.813 18.687h4.5c0.25-1.167 0.375-2.062 0.375-2.687s-0.125-1.521-0.375-2.688h-4.5c0.125 0.875 0.187 1.771 0.187 2.688s-0.063 1.813-0.187 2.687zM19.437 26.063c2.542-0.833 4.479-2.417 5.813-4.75h-3.937c-0.417 1.667-1.042 3.25-1.875 4.75zM19.125 18.687c0.125-0.875 0.187-1.771 0.187-2.687s-0.063-1.813-0.187-2.688h-6.25c-0.125 0.875-0.188 1.771-0.188 2.688s0.063 1.813 0.188 2.687h6.25zM16 26.625c1.167-1.708 2.021-3.479 2.563-5.313h-5.125c0.542 1.833 1.396 3.604 2.563 5.313zM10.688 10.688c0.417-1.667 1.042-3.25 1.875-4.75-2.542 0.833-4.479 2.417-5.813 4.75h3.938zM6.75 21.313c1.333 2.333 3.271 3.917 5.813 4.75-0.833-1.5-1.458-3.083-1.875-4.75h-3.938zM5.688 18.687h4.5c-0.125-0.875-0.188-1.771-0.188-2.687s0.063-1.813 0.188-2.688h-4.5c-0.25 1.167-0.375 2.062-0.375 2.688s0.125 1.521 0.375 2.687zM16 5.375c-1.167 1.708-2.021 3.479-2.563 5.313h5.125c-0.542-1.833-1.396-3.604-2.563-5.313zM25.25 10.688c-1.333-2.333-3.271-3.917-5.813-4.75 0.833 1.5 1.458 3.083 1.875 4.75h3.937zM6.563 6.625c2.625-2.625 5.771-3.938 9.438-3.938s6.792 1.313 9.375 3.938c2.625 2.583 3.938 5.708 3.938 9.375s-1.313 6.813-3.938 9.437c-2.583 2.583-5.708 3.875-9.375 3.875s-6.813-1.292-9.438-3.875c-2.583-2.625-3.875-5.771-3.875-9.437s1.292-6.792 3.875-9.375z"></path>
</svg>
