<!-- Generated by IcoMoon.io -->
<svg version="1.1" xmlns="http://www.w3.org/2000/svg" width="32" height="32" viewBox="0 0 32 32">
<title>launch</title>
<path d="M18.687 4h9.313v9.313h-2.687v-4.75l-13.063 13.063-1.875-1.875 13.062-13.063h-4.75v-2.688zM25.313 25.313v-9.313h2.687v9.313c0 0.708-0.271 1.333-0.813 1.875s-1.167 0.813-1.875 0.813h-18.625c-0.75 0-1.396-0.271-1.938-0.813-0.5-0.542-0.75-1.167-0.75-1.875v-18.625c0-0.708 0.25-1.333 0.75-1.875 0.542-0.542 1.188-0.813 1.938-0.813h9.313v2.688h-9.313v18.625h18.625z"></path>
</svg>
