<!-- Generated by IcoMoon.io -->
<svg version="1.1" xmlns="http://www.w3.org/2000/svg" width="32" height="32" viewBox="0 0 32 32">
<title>lightbulb_outline</title>
<path d="M19.813 17.437c1.917-1.333 2.875-3.146 2.875-5.437 0-1.833-0.667-3.396-2-4.688-1.292-1.333-2.854-2-4.687-2s-3.417 0.667-4.75 2c-1.292 1.292-1.938 2.854-1.938 4.688 0 2.292 0.958 4.104 2.875 5.437l1.125 0.813v3.063h5.375v-3.063l1.125-0.813zM9.375 5.438c1.833-1.833 4.042-2.75 6.625-2.75s4.771 0.917 6.563 2.75c1.833 1.792 2.75 3.979 2.75 6.563 0 3.25-1.333 5.792-4 7.625v3.062c0 0.375-0.125 0.687-0.375 0.938s-0.563 0.375-0.937 0.375h-8c-0.375 0-0.688-0.125-0.938-0.375s-0.375-0.563-0.375-0.938v-3.062c-2.667-1.833-4-4.375-4-7.625 0-2.583 0.896-4.771 2.688-6.563zM12 28v-1.313h8v1.313c0 0.375-0.125 0.687-0.375 0.937s-0.563 0.375-0.938 0.375h-5.375c-0.375 0-0.688-0.125-0.938-0.375s-0.375-0.563-0.375-0.937z"></path>
</svg>
