<!-- Generated by IcoMoon.io -->
<svg version="1.1" xmlns="http://www.w3.org/2000/svg" width="32" height="32" viewBox="0 0 32 32">
<title>loyalty</title>
<path d="M23 20.375c0.667-0.667 1-1.458 1-2.375s-0.333-1.687-1-2.313c-0.625-0.667-1.396-1-2.313-1-0.958 0-1.75 0.313-2.375 0.938l-1 1-0.938-1c-0.625-0.625-1.417-0.938-2.375-0.938-0.917 0-1.708 0.333-2.375 1-0.625 0.625-0.938 1.396-0.938 2.313 0 0.958 0.313 1.75 0.938 2.375l5.688 5.688 5.687-5.688zM5.875 8.75c0.417 0.375 0.896 0.563 1.438 0.563s1-0.188 1.375-0.563c0.417-0.417 0.625-0.896 0.625-1.438s-0.208-1-0.625-1.375c-0.375-0.417-0.833-0.625-1.375-0.625s-1.021 0.208-1.438 0.625c-0.375 0.375-0.563 0.833-0.563 1.375s0.188 1.021 0.563 1.438zM28.563 15.437c0.5 0.5 0.75 1.125 0.75 1.875s-0.25 1.375-0.75 1.875l-9.375 9.375c-0.5 0.5-1.125 0.75-1.875 0.75s-1.375-0.25-1.875-0.75l-12-12c-0.5-0.5-0.75-1.125-0.75-1.875v-9.375c0-0.708 0.25-1.313 0.75-1.813 0.542-0.542 1.167-0.813 1.875-0.813h9.375c0.75 0 1.375 0.25 1.875 0.75l12 12z"></path>
</svg>
