<!-- Generated by IcoMoon.io -->
<svg version="1.1" xmlns="http://www.w3.org/2000/svg" width="32" height="32" viewBox="0 0 32 32">
<title>open_in_browser</title>
<path d="M16 13.313l5.313 5.375h-4v8h-2.625v-8h-4l5.313-5.375zM25.313 5.313c0.75 0 1.375 0.271 1.875 0.813 0.542 0.542 0.813 1.167 0.813 1.875v16c0 0.708-0.271 1.333-0.813 1.875s-1.167 0.813-1.875 0.813h-5.313v-2.687h5.313v-13.313h-18.625v13.313h5.313v2.687h-5.313c-0.75 0-1.396-0.271-1.938-0.813-0.5-0.542-0.75-1.167-0.75-1.875v-16c0-0.708 0.25-1.333 0.75-1.875 0.542-0.542 1.188-0.813 1.938-0.813h18.625z"></path>
</svg>
