<!-- Generated by IcoMoon.io -->
<svg version="1.1" xmlns="http://www.w3.org/2000/svg" width="32" height="32" viewBox="0 0 32 32">
<title>pageview</title>
<path d="M22.375 24.25l1.875-1.875-3.875-3.875c0.625-1.042 0.938-2.104 0.938-3.187 0-1.667-0.583-3.083-1.75-4.25s-2.583-1.75-4.25-1.75c-1.667 0-3.083 0.583-4.25 1.75s-1.75 2.583-1.75 4.25c0 1.667 0.583 3.083 1.75 4.25s2.583 1.75 4.25 1.75c1.083 0 2.146-0.313 3.187-0.938l3.875 3.875zM26.687 5.313c0.708 0 1.313 0.271 1.813 0.813 0.542 0.542 0.813 1.167 0.813 1.875v16c0 0.708-0.271 1.333-0.813 1.875-0.5 0.542-1.104 0.813-1.813 0.813h-21.375c-0.708 0-1.333-0.271-1.875-0.813-0.5-0.542-0.75-1.167-0.75-1.875v-16c0-0.708 0.25-1.333 0.75-1.875 0.542-0.542 1.167-0.813 1.875-0.813h21.375zM12.938 13c0.667-0.667 1.458-1 2.375-1s1.708 0.333 2.375 1c0.667 0.625 1 1.396 1 2.313s-0.333 1.708-1 2.375c-0.667 0.667-1.458 1-2.375 1s-1.708-0.333-2.375-1c-0.625-0.667-0.938-1.458-0.938-2.375s0.313-1.687 0.938-2.313z"></path>
</svg>
