<!-- Generated by IcoMoon.io -->
<svg version="1.1" xmlns="http://www.w3.org/2000/svg" width="32" height="32" viewBox="0 0 32 32">
<title>perm_identity</title>
<path d="M11.625 17.875c1.583-0.375 3.042-0.562 4.375-0.562s2.792 0.187 4.375 0.562c1.583 0.375 3.021 1 4.313 1.875 1.333 0.875 2 1.854 2 2.937v4h-21.375v-4c0-1.083 0.646-2.062 1.938-2.937 1.333-0.875 2.792-1.5 4.375-1.875zM12.25 6.938c1.042-1.083 2.292-1.625 3.75-1.625s2.708 0.542 3.75 1.625c1.042 1.042 1.563 2.292 1.563 3.75s-0.521 2.708-1.563 3.75c-1.042 1.042-2.292 1.563-3.75 1.563s-2.708-0.521-3.75-1.563c-1.042-1.042-1.563-2.292-1.563-3.75s0.521-2.708 1.563-3.75zM21.437 20.937c-1.792-0.708-3.604-1.063-5.437-1.063s-3.646 0.354-5.438 1.063c-1.792 0.667-2.688 1.25-2.688 1.75v1.438h16.25v-1.438c0-0.5-0.896-1.083-2.688-1.75zM18 8.688c-0.542-0.542-1.208-0.813-2-0.813s-1.458 0.271-2 0.813c-0.542 0.542-0.813 1.208-0.813 2s0.271 1.458 0.813 2c0.542 0.5 1.208 0.75 2 0.75s1.458-0.25 2-0.75c0.542-0.542 0.813-1.208 0.813-2s-0.271-1.458-0.813-2z"></path>
</svg>
