<!-- Generated by IcoMoon.io -->
<svg version="1.1" xmlns="http://www.w3.org/2000/svg" width="32" height="32" viewBox="0 0 32 32">
<title>perm_phone_msg</title>
<path d="M16 4h12v9.313h-8l-4 4v-13.313zM26.687 20.687c0.375 0 0.687 0.125 0.938 0.375s0.375 0.563 0.375 0.937v4.687c0 0.375-0.125 0.687-0.375 0.938s-0.563 0.375-0.938 0.375c-6.25 0-11.604-2.208-16.062-6.625-4.417-4.458-6.625-9.812-6.625-16.062 0-0.375 0.125-0.688 0.375-0.938s0.563-0.375 0.938-0.375h4.688c0.375 0 0.688 0.125 0.938 0.375s0.375 0.563 0.375 0.938c0 1.667 0.25 3.25 0.75 4.75 0.167 0.542 0.063 1-0.313 1.375l-2.938 2.937c2 3.875 4.938 6.813 8.813 8.813l2.937-2.937c0.375-0.375 0.833-0.479 1.375-0.313 1.5 0.5 3.083 0.75 4.75 0.75z"></path>
</svg>
