<!-- Generated by IcoMoon.io -->
<svg version="1.1" xmlns="http://www.w3.org/2000/svg" width="32" height="32" viewBox="0 0 32 32">
<title>perm_camera_mic</title>
<path d="M18.687 17.313v-5.313c0-0.708-0.271-1.333-0.813-1.875s-1.167-0.813-1.875-0.813-1.333 0.271-1.875 0.813c-0.542 0.542-0.813 1.167-0.813 1.875v5.313c0 0.708 0.271 1.333 0.813 1.875s1.167 0.813 1.875 0.813 1.333-0.271 1.875-0.813c0.542-0.542 0.813-1.167 0.813-1.875zM26.687 6.688c0.708 0 1.313 0.271 1.813 0.813 0.542 0.5 0.813 1.104 0.813 1.813v16c0 0.708-0.271 1.333-0.813 1.875-0.5 0.542-1.104 0.813-1.813 0.813h-9.375v-2.813c1.875-0.333 3.458-1.229 4.75-2.687 1.292-1.5 1.937-3.229 1.937-5.187h-2.687c0 1.458-0.521 2.729-1.563 3.813-1.042 1.042-2.292 1.562-3.75 1.562s-2.708-0.521-3.75-1.562c-1.042-1.083-1.563-2.354-1.563-3.813h-2.688c0 1.958 0.646 3.687 1.938 5.187 1.292 1.458 2.875 2.354 4.75 2.687v2.813h-9.375c-0.708 0-1.333-0.271-1.875-0.813-0.5-0.542-0.75-1.167-0.75-1.875v-16c0-0.708 0.25-1.313 0.75-1.813 0.542-0.542 1.167-0.813 1.875-0.813h4.25l2.438-2.688h8l2.437 2.688h4.25z"></path>
</svg>
