<!-- Generated by IcoMoon.io -->
<svg version="1.1" xmlns="http://www.w3.org/2000/svg" width="32" height="32" viewBox="0 0 32 32">
<title>pets</title>
<path d="M23.125 19.813c0.083 0.083 0.25 0.271 0.5 0.562 0.292 0.25 0.479 0.417 0.562 0.5s0.25 0.271 0.5 0.563c0.292 0.292 0.458 0.5 0.5 0.625 0.083 0.083 0.25 0.271 0.5 0.563s0.375 0.5 0.375 0.625c0.042 0.125 0.146 0.354 0.312 0.687 0.208 0.333 0.271 0.583 0.188 0.75-0.042 0.125-0.021 0.375 0.063 0.75 0.125 0.333 0.125 0.583 0 0.75-0.458 1.75-1.5 2.792-3.125 3.125-0.292 0.042-1.313-0.042-3.063-0.25-1.708-0.208-3.146-0.313-4.312-0.313h-0.25c-1.167 0-2.625 0.104-4.375 0.313-1.708 0.208-2.708 0.292-3 0.25-1.625-0.333-2.667-1.375-3.125-3.125-0.125-0.833 0.021-1.687 0.438-2.562s0.792-1.5 1.125-1.875c0.375-0.375 1.021-1.021 1.938-1.937 0.417-0.458 0.958-1.104 1.625-1.938 0.708-0.833 1.271-1.479 1.688-1.937 0.75-0.917 1.521-1.5 2.313-1.75 0.167-0.083 0.313-0.125 0.437-0.125 0.25-0.042 0.604-0.063 1.063-0.063 0.5 0 0.854 0.021 1.063 0.063 0.125 0 0.271 0.042 0.437 0.125 0.792 0.25 1.563 0.833 2.313 1.75 0.375 0.458 0.917 1.104 1.625 1.937s1.271 1.479 1.688 1.938zM23.625 15.063c-0.625-0.667-0.938-1.458-0.938-2.375s0.313-1.708 0.938-2.375c0.667-0.667 1.458-1 2.375-1s1.687 0.333 2.313 1c0.667 0.667 1 1.458 1 2.375s-0.333 1.708-1 2.375c-0.625 0.625-1.396 0.937-2.313 0.937s-1.708-0.313-2.375-0.937zM17.625 9.688c-0.625-0.667-0.938-1.458-0.938-2.375s0.313-1.688 0.938-2.313c0.667-0.667 1.458-1 2.375-1s1.687 0.333 2.313 1c0.667 0.625 1 1.396 1 2.313s-0.333 1.708-1 2.375c-0.625 0.667-1.396 1-2.313 1s-1.708-0.333-2.375-1zM9.625 9.688c-0.625-0.667-0.938-1.458-0.938-2.375s0.313-1.688 0.938-2.313c0.667-0.667 1.458-1 2.375-1s1.687 0.333 2.313 1c0.667 0.625 1 1.396 1 2.313s-0.333 1.708-1 2.375c-0.625 0.667-1.396 1-2.313 1s-1.708-0.333-2.375-1zM3.625 15.063c-0.625-0.667-0.938-1.458-0.938-2.375s0.313-1.708 0.938-2.375c0.667-0.667 1.458-1 2.375-1s1.688 0.333 2.313 1c0.667 0.667 1 1.458 1 2.375s-0.333 1.708-1 2.375c-0.625 0.625-1.396 0.937-2.313 0.937s-1.708-0.313-2.375-0.937z"></path>
</svg>
