<!-- Generated by IcoMoon.io -->
<svg version="1.1" xmlns="http://www.w3.org/2000/svg" width="32" height="32" viewBox="0 0 32 32">
<title>picture_in_picture_alt</title>
<path d="M28 25.375v-18.75h-24v18.75h24zM30.687 25.313c0 0.708-0.271 1.333-0.813 1.875s-1.167 0.813-1.875 0.813h-24c-0.708 0-1.333-0.271-1.875-0.813s-0.813-1.167-0.813-1.875v-18.688c0-0.708 0.271-1.313 0.813-1.813 0.542-0.542 1.167-0.813 1.875-0.813h24c0.708 0 1.333 0.271 1.875 0.813 0.542 0.5 0.813 1.104 0.813 1.813v18.688zM25.313 14.687v8h-10.625v-8h10.625z"></path>
</svg>
