<!-- Generated by IcoMoon.io -->
<svg version="1.1" xmlns="http://www.w3.org/2000/svg" width="32" height="32" viewBox="0 0 32 32">
<title>picture_in_picture</title>
<path d="M28 25.375v-18.75h-24v18.75h24zM28 4c0.708 0 1.333 0.271 1.875 0.813s0.813 1.167 0.813 1.875v18.625c0 0.708-0.271 1.333-0.813 1.875s-1.167 0.813-1.875 0.813h-24c-0.708 0-1.333-0.271-1.875-0.813s-0.813-1.167-0.813-1.875v-18.625c0-0.708 0.271-1.333 0.813-1.875s1.167-0.813 1.875-0.813h24zM25.313 9.313v8h-10.625v-8h10.625z"></path>
</svg>
