<!-- Generated by IcoMoon.io -->
<svg version="1.1" xmlns="http://www.w3.org/2000/svg" width="32" height="32" viewBox="0 0 32 32">
<title>power_settings_new</title>
<path d="M23.75 6.875c2.833 2.417 4.25 5.458 4.25 9.125 0 3.333-1.167 6.167-3.5 8.5s-5.167 3.5-8.5 3.5c-3.333 0-6.167-1.167-8.5-3.5s-3.5-5.167-3.5-8.5c0-3.667 1.417-6.708 4.25-9.125l1.875 1.875c-2.292 1.875-3.438 4.292-3.438 7.25 0 2.583 0.896 4.792 2.688 6.625 1.833 1.792 4.042 2.687 6.625 2.687s4.771-0.896 6.563-2.687c1.833-1.833 2.75-4.042 2.75-6.625 0-2.958-1.146-5.354-3.438-7.188l1.875-1.938zM17.313 4v13.313h-2.625v-13.313h2.625z"></path>
</svg>
