<!-- Generated by IcoMoon.io -->
<svg version="1.1" xmlns="http://www.w3.org/2000/svg" width="32" height="32" viewBox="0 0 32 32">
<title>pregnant_woman</title>
<path d="M21.313 17.313v5.375h-4v6.625h-4v-6.625h-2.625v-9.375c0-1.083 0.396-2.021 1.188-2.813s1.729-1.188 2.812-1.188c1.083 0 2.021 0.396 2.813 1.188s1.187 1.729 1.187 2.813c1.75 0.708 2.625 2.042 2.625 4zM12.75 7.25c-0.5-0.542-0.75-1.188-0.75-1.938s0.25-1.375 0.75-1.875c0.542-0.5 1.187-0.75 1.937-0.75s1.375 0.25 1.875 0.75c0.5 0.5 0.75 1.125 0.75 1.875s-0.25 1.396-0.75 1.938c-0.5 0.5-1.125 0.75-1.875 0.75s-1.396-0.25-1.937-0.75z"></path>
</svg>
