<!-- Generated by IcoMoon.io -->
<svg version="1.1" xmlns="http://www.w3.org/2000/svg" width="32" height="32" viewBox="0 0 32 32">
<title>print</title>
<path d="M24 4v5.313h-16v-5.313h16zM24.375 15.625c0.25 0.25 0.563 0.375 0.938 0.375s0.687-0.125 0.937-0.375c0.292-0.25 0.437-0.563 0.437-0.938s-0.146-0.687-0.437-0.937c-0.25-0.292-0.563-0.438-0.937-0.438s-0.687 0.146-0.938 0.438c-0.25 0.25-0.375 0.563-0.375 0.937s0.125 0.687 0.375 0.938zM21.313 25.313v-6.625h-10.625v6.625h10.625zM25.313 10.688c1.083 0 2.021 0.396 2.813 1.188s1.187 1.729 1.187 2.812v8h-5.313v5.313h-16v-5.313h-5.313v-8c0-1.083 0.396-2.021 1.188-2.812s1.729-1.188 2.813-1.188h18.625z"></path>
</svg>
