<!-- Generated by IcoMoon.io -->
<svg version="1.1" xmlns="http://www.w3.org/2000/svg" width="32" height="32" viewBox="0 0 32 32">
<title>question_answer</title>
<path d="M22.687 16c0 0.375-0.146 0.687-0.437 0.937-0.25 0.25-0.563 0.375-0.937 0.375h-13.313l-5.313 5.375v-18.687c0-0.375 0.125-0.688 0.375-0.938s0.563-0.375 0.938-0.375h17.313c0.375 0 0.687 0.125 0.937 0.375 0.292 0.25 0.437 0.563 0.437 0.938v12zM28 8c0.375 0 0.687 0.125 0.937 0.375s0.375 0.563 0.375 0.938v20l-5.313-5.313h-14.688c-0.375 0-0.688-0.125-0.938-0.375s-0.375-0.563-0.375-0.938v-2.687h17.313v-12h2.687z"></path>
</svg>
