<!-- Generated by IcoMoon.io -->
<svg version="1.1" xmlns="http://www.w3.org/2000/svg" width="32" height="32" viewBox="0 0 32 32">
<title>record_voice_over</title>
<path d="M26.75 2.688c2.583 2.708 3.875 5.854 3.875 9.438 0 3.542-1.292 6.604-3.875 9.188l-2.187-2.125c1.833-2.125 2.75-4.542 2.75-7.25 0-2.75-0.917-5.125-2.75-7.125l2.187-2.125zM22.375 7.125c1.333 1.458 2 3.104 2 4.938s-0.667 3.417-2 4.75l-2.25-2.25c0.583-0.792 0.875-1.646 0.875-2.563 0-0.958-0.292-1.833-0.875-2.625l2.25-2.25zM4.938 21.5c2.458-1 4.813-1.5 7.063-1.5s4.583 0.5 7 1.5c2.458 0.958 3.687 2.229 3.687 3.813v2.687h-21.375v-2.687c0-1.583 1.208-2.854 3.625-3.813zM8.25 15.75c-1.042-1.042-1.563-2.292-1.563-3.75s0.521-2.708 1.563-3.75 2.292-1.563 3.75-1.563c1.458 0 2.708 0.521 3.75 1.563s1.563 2.292 1.563 3.75c0 1.458-0.521 2.708-1.563 3.75s-2.292 1.563-3.75 1.563c-1.458 0-2.708-0.521-3.75-1.563z"></path>
</svg>
