<!-- Generated by IcoMoon.io -->
<svg version="1.1" xmlns="http://www.w3.org/2000/svg" width="32" height="32" viewBox="0 0 32 32">
<title>restore</title>
<path d="M16 10.688h2v5.625l4.687 2.813-1 1.625-5.687-3.437v-6.625zM8.813 7.5c2.375-2.333 5.208-3.5 8.5-3.5s6.104 1.167 8.437 3.5c2.375 2.333 3.563 5.167 3.563 8.5s-1.187 6.167-3.563 8.5c-2.333 2.333-5.146 3.5-8.437 3.5s-6.104-1.167-8.438-3.5l1.875-1.937c1.833 1.833 4.021 2.75 6.563 2.75 2.583 0 4.792-0.896 6.625-2.687 1.833-1.833 2.75-4.042 2.75-6.625s-0.917-4.771-2.75-6.563c-1.833-1.833-4.042-2.75-6.625-2.75s-4.792 0.917-6.625 2.75c-1.792 1.792-2.688 3.979-2.688 6.563h4l-5.375 5.375-0.125-0.187-5.188-5.187h4c0-3.333 1.167-6.167 3.5-8.5z"></path>
</svg>
