<!-- Generated by IcoMoon.io -->
<svg version="1.1" xmlns="http://www.w3.org/2000/svg" width="32" height="32" viewBox="0 0 32 32">
<title>rounded_corner</title>
<path d="M28 10.688v6.625h-2.687v-6.625c0-1.083-0.396-2.021-1.187-2.813s-1.729-1.188-2.813-1.188h-6.625v-2.688h6.625c1.833 0 3.396 0.667 4.687 2 1.333 1.292 2 2.854 2 4.688zM4 28v-2.687h2.688v2.687h-2.688zM9.313 28v-2.687h2.688v2.687h-2.688zM14.687 28v-2.687h2.625v2.687h-2.625zM9.313 6.688v-2.688h2.688v2.688h-2.688zM4 6.688v-2.688h2.688v2.688h-2.688zM4 12v-2.688h2.688v2.688h-2.688zM4 22.687v-2.687h2.688v2.687h-2.688zM4 17.313v-2.625h2.688v2.625h-2.688zM25.313 22.687v-2.687h2.687v2.687h-2.687zM25.313 25.313h2.687v2.687h-2.687v-2.687z"></path>
</svg>
