<!-- Generated by IcoMoon.io -->
<svg version="1.1" xmlns="http://www.w3.org/2000/svg" width="32" height="32" viewBox="0 0 32 32">
<title>rowing</title>
<path d="M28 28l-4 4-4-4v-2l-9.438-9.437c-0.292 0.042-0.708 0.063-1.25 0.063v-2.875c1.083 0.042 2.208-0.187 3.375-0.688 1.167-0.542 2.125-1.208 2.875-2l1.875-2.063c0.667-0.667 1.396-1 2.188-1h0.062c0.792 0 1.479 0.292 2.063 0.875 0.625 0.583 0.937 1.292 0.937 2.125v7.687c0 1.083-0.417 2.042-1.25 2.875l-4.75-4.75v-3.063c-0.833 0.708-1.854 1.333-3.062 1.875l8.375 8.375h2l4 4zM18.125 2.125c0.542-0.542 1.167-0.813 1.875-0.813s1.333 0.271 1.875 0.813c0.542 0.542 0.813 1.167 0.813 1.875s-0.271 1.333-0.813 1.875c-0.542 0.542-1.167 0.813-1.875 0.813s-1.333-0.271-1.875-0.813c-0.542-0.542-0.813-1.167-0.813-1.875s0.271-1.333 0.813-1.875zM11.313 19.313l3.375 3.375h-2.687l-4.688 4.625-2-2 6-6z"></path>
</svg>
