<!-- Generated by IcoMoon.io -->
<svg version="1.1" xmlns="http://www.w3.org/2000/svg" width="32" height="32" viewBox="0 0 32 32">
<title>schedule</title>
<path d="M16.687 9.313v7l6 3.562-1 1.688-7-4.25v-8h2zM8.438 23.563c2.125 2.083 4.646 3.125 7.563 3.125s5.417-1.042 7.5-3.125c2.125-2.125 3.187-4.646 3.187-7.563s-1.062-5.417-3.187-7.5c-2.083-2.125-4.583-3.188-7.5-3.188s-5.438 1.063-7.563 3.188c-2.083 2.083-3.125 4.583-3.125 7.5s1.042 5.437 3.125 7.563zM6.563 6.625c2.625-2.625 5.771-3.938 9.438-3.938s6.792 1.313 9.375 3.938c2.625 2.583 3.938 5.708 3.938 9.375s-1.313 6.813-3.938 9.437c-2.583 2.583-5.708 3.875-9.375 3.875s-6.813-1.292-9.438-3.875c-2.583-2.625-3.875-5.771-3.875-9.437s1.292-6.792 3.875-9.375z"></path>
</svg>
