<!-- Generated by IcoMoon.io -->
<svg version="1.1" xmlns="http://www.w3.org/2000/svg" width="32" height="32" viewBox="0 0 32 32">
<title>settings_remote</title>
<path d="M16 0c4.125 0 7.583 1.438 10.375 4.313l-1.875 1.875c-2.333-2.333-5.167-3.5-8.5-3.5s-6.167 1.167-8.5 3.5l-1.875-1.875c2.875-2.875 6.333-4.313 10.375-4.313zM9.375 8.063c1.833-1.833 4.042-2.75 6.625-2.75s4.792 0.917 6.625 2.75l-1.875 1.875c-1.292-1.292-2.875-1.938-4.75-1.938s-3.458 0.646-4.75 1.938l-1.875-1.875zM14.125 19.187c0.542 0.542 1.167 0.813 1.875 0.813s1.333-0.271 1.875-0.813c0.542-0.542 0.813-1.167 0.813-1.875s-0.271-1.313-0.813-1.813c-0.542-0.542-1.167-0.813-1.875-0.813s-1.333 0.271-1.875 0.813c-0.542 0.5-0.813 1.104-0.813 1.813s0.271 1.333 0.813 1.875zM20 12c0.375 0 0.687 0.125 0.937 0.375s0.375 0.563 0.375 0.938v16c0 0.375-0.125 0.708-0.375 1-0.25 0.25-0.563 0.375-0.937 0.375h-8c-0.375 0-0.688-0.125-0.938-0.375-0.25-0.292-0.375-0.625-0.375-1v-16c0-0.375 0.125-0.688 0.375-0.938s0.563-0.375 0.938-0.375h8z"></path>
</svg>
