<!-- Generated by IcoMoon.io -->
<svg version="1.1" xmlns="http://www.w3.org/2000/svg" width="32" height="32" viewBox="0 0 32 32">
<title>settings_input_svideo</title>
<path d="M19.25 20.563c0.417-0.375 0.896-0.563 1.437-0.563s1 0.187 1.375 0.563c0.417 0.375 0.625 0.854 0.625 1.437s-0.208 1.063-0.625 1.437c-0.375 0.375-0.833 0.563-1.375 0.563s-1.021-0.187-1.437-0.563c-0.375-0.375-0.563-0.854-0.563-1.437s0.187-1.063 0.563-1.437zM21.875 13.937c0.417-0.417 0.896-0.625 1.438-0.625s1 0.208 1.375 0.625c0.417 0.375 0.625 0.833 0.625 1.375s-0.208 1.021-0.625 1.437c-0.375 0.375-0.833 0.563-1.375 0.563s-1.021-0.187-1.438-0.563c-0.375-0.417-0.562-0.896-0.562-1.437s0.187-1 0.562-1.375zM7.5 24.5c2.333 2.333 5.167 3.5 8.5 3.5s6.167-1.167 8.5-3.5c2.333-2.333 3.5-5.167 3.5-8.5s-1.167-6.167-3.5-8.5c-2.333-2.333-5.167-3.5-8.5-3.5s-6.167 1.167-8.5 3.5c-2.333 2.333-3.5 5.167-3.5 8.5s1.167 6.167 3.5 8.5zM5.625 5.625c2.875-2.875 6.333-4.313 10.375-4.313s7.5 1.438 10.375 4.313c2.875 2.875 4.313 6.333 4.313 10.375s-1.437 7.5-4.313 10.375c-2.875 2.875-6.333 4.313-10.375 4.313s-7.5-1.437-10.375-4.313c-2.875-2.875-4.313-6.333-4.313-10.375s1.438-7.5 4.313-10.375zM9.875 20.563c0.417-0.375 0.896-0.563 1.438-0.563s1 0.187 1.375 0.563c0.417 0.375 0.625 0.854 0.625 1.437s-0.208 1.063-0.625 1.437c-0.375 0.375-0.833 0.563-1.375 0.563s-1.021-0.187-1.438-0.563c-0.375-0.375-0.563-0.854-0.563-1.437s0.188-1.063 0.563-1.437zM19.437 7.313c0.375 0.375 0.563 0.833 0.563 1.375s-0.187 1.021-0.563 1.438c-0.375 0.375-0.854 0.563-1.437 0.563h-4c-0.583 0-1.063-0.188-1.438-0.563-0.375-0.417-0.563-0.896-0.563-1.438s0.188-1 0.563-1.375c0.375-0.417 0.854-0.625 1.438-0.625h4c0.583 0 1.063 0.208 1.437 0.625zM10.063 13.937c0.417 0.375 0.625 0.833 0.625 1.375s-0.208 1.021-0.625 1.437c-0.375 0.375-0.833 0.563-1.375 0.563s-1.021-0.187-1.438-0.563c-0.375-0.417-0.563-0.896-0.563-1.437s0.188-1 0.563-1.375c0.417-0.417 0.896-0.625 1.438-0.625s1 0.208 1.375 0.625z"></path>
</svg>
