<!-- Generated by IcoMoon.io -->
<svg version="1.1" xmlns="http://www.w3.org/2000/svg" width="32" height="32" viewBox="0 0 32 32">
<title>settings_brightness</title>
<path d="M16 12v8c1.083 0 2.021-0.396 2.813-1.187s1.187-1.729 1.187-2.813-0.396-2.021-1.187-2.813c-0.792-0.792-1.729-1.188-2.813-1.188zM10.688 21.313v-3.313l-2-2 2-2v-3.313h3.313l2-2 2 2h3.313v3.313l2 2-2 2v3.313h-3.313l-2 2-2-2h-3.313zM28 25.375v-18.75h-24v18.75h24zM28 4c0.708 0 1.333 0.271 1.875 0.813s0.813 1.167 0.813 1.875v18.625c0 0.708-0.271 1.333-0.813 1.875s-1.167 0.813-1.875 0.813h-24c-0.708 0-1.333-0.271-1.875-0.813s-0.813-1.167-0.813-1.875v-18.625c0-0.708 0.271-1.333 0.813-1.875s1.167-0.813 1.875-0.813h24z"></path>
</svg>
