<!-- Generated by IcoMoon.io -->
<svg version="1.1" xmlns="http://www.w3.org/2000/svg" width="32" height="32" viewBox="0 0 32 32">
<title>settings_bluetooth</title>
<path d="M19.813 19.063l-2.5-2.5v5l2.5-2.5zM17.313 5.125v5l2.5-2.5-2.5-2.5zM23.625 7.625l-5.75 5.688 5.75 5.75-7.625 7.625h-1.313v-10.125l-6.125 6.125-1.875-1.875 7.438-7.5-7.438-7.438 1.875-1.875 6.125 6.125v-10.125h1.313l7.625 7.625zM20 32v-2.687h2.687v2.687h-2.687zM9.313 32v-2.687h2.688v2.687h-2.688zM14.687 32v-2.687h2.625v2.687h-2.625z"></path>
</svg>
