<!-- Generated by IcoMoon.io -->
<svg version="1.1" xmlns="http://www.w3.org/2000/svg" width="32" height="32" viewBox="0 0 32 32">
<title>shopping_cart</title>
<path d="M20.813 24.813c0.542-0.542 1.167-0.813 1.875-0.813s1.313 0.271 1.813 0.813c0.542 0.542 0.813 1.167 0.813 1.875s-0.271 1.333-0.813 1.875c-0.5 0.5-1.104 0.75-1.813 0.75s-1.333-0.25-1.875-0.75c-0.542-0.542-0.813-1.167-0.813-1.875s0.271-1.333 0.813-1.875zM1.313 2.688h4.375l1.25 2.625h19.75c0.375 0 0.687 0.146 0.938 0.438 0.25 0.25 0.375 0.563 0.375 0.938 0 0.208-0.063 0.417-0.187 0.625l-4.75 8.625c-0.5 0.917-1.271 1.375-2.313 1.375h-9.938l-1.188 2.187-0.063 0.187c0 0.208 0.104 0.313 0.313 0.313h15.438v2.687h-16c-0.708 0-1.333-0.271-1.875-0.813-0.5-0.542-0.75-1.167-0.75-1.875 0-0.417 0.104-0.833 0.313-1.25l1.813-3.313-4.813-10.125h-2.688v-2.625zM7.438 24.813c0.542-0.542 1.167-0.813 1.875-0.813s1.333 0.271 1.875 0.813c0.542 0.542 0.813 1.167 0.813 1.875s-0.271 1.333-0.813 1.875c-0.542 0.5-1.167 0.75-1.875 0.75s-1.333-0.25-1.875-0.75c-0.5-0.542-0.75-1.167-0.75-1.875s0.25-1.333 0.75-1.875z"></path>
</svg>
