<!-- Generated by IcoMoon.io -->
<svg version="1.1" xmlns="http://www.w3.org/2000/svg" width="32" height="32" viewBox="0 0 32 32">
<title>shop</title>
<path d="M12 24l10-6.687-10-5.313v12zM13.313 5.313v2.688h5.375v-2.688h-5.375zM21.313 8h8v17.313c0 0.75-0.25 1.396-0.75 1.937-0.5 0.5-1.125 0.75-1.875 0.75h-21.375c-0.75 0-1.375-0.25-1.875-0.75-0.5-0.542-0.75-1.187-0.75-1.937v-17.313h8v-2.688c0-0.75 0.25-1.375 0.75-1.875s1.125-0.75 1.875-0.75h5.375c0.75 0 1.375 0.25 1.875 0.75s0.75 1.125 0.75 1.875v2.688z"></path>
</svg>
