<!-- Generated by IcoMoon.io -->
<svg version="1.1" xmlns="http://www.w3.org/2000/svg" width="32" height="32" viewBox="0 0 32 32">
<title>shop_two</title>
<path d="M16 20l7.313-5.313-7.313-4v9.313zM16 4v2.688h5.313v-2.688h-5.313zM24 6.688h6.687v14.625c0 0.75-0.271 1.396-0.813 1.937-0.5 0.5-1.125 0.75-1.875 0.75h-18.688c-0.75 0-1.375-0.25-1.875-0.75-0.5-0.542-0.75-1.187-0.75-1.937v-14.625h6.625v-2.688c0-0.75 0.25-1.375 0.75-1.875 0.542-0.542 1.187-0.813 1.937-0.813h5.313c0.75 0 1.375 0.271 1.875 0.813 0.542 0.5 0.813 1.125 0.813 1.875v2.688zM4 12v14.687h21.313c0 0.75-0.25 1.375-0.75 1.875s-1.125 0.75-1.875 0.75h-18.687c-0.75 0-1.396-0.25-1.938-0.75-0.5-0.5-0.75-1.125-0.75-1.875v-14.687h2.688z"></path>
</svg>
