<!-- Generated by IcoMoon.io -->
<svg version="1.1" xmlns="http://www.w3.org/2000/svg" width="32" height="32" viewBox="0 0 32 32">
<title>system_update_alt</title>
<path d="M28 4.688c0.708 0 1.333 0.271 1.875 0.813 0.542 0.5 0.813 1.104 0.813 1.813v18.688c0 0.708-0.271 1.333-0.813 1.875s-1.167 0.813-1.875 0.813h-24c-0.708 0-1.333-0.271-1.875-0.813s-0.813-1.167-0.813-1.875v-18.688c0-0.708 0.271-1.313 0.813-1.813 0.542-0.542 1.167-0.813 1.875-0.813h8v2.625h-8v18.688h24v-18.688h-8v-2.625h8zM16 22l-5.313-5.313h4v-12h2.625v12h4l-5.313 5.313z"></path>
</svg>
