<!-- Generated by IcoMoon.io -->
<svg version="1.1" xmlns="http://www.w3.org/2000/svg" width="32" height="32" viewBox="0 0 32 32">
<title>tab_unselected</title>
<path d="M22.687 28v-2.687h2.625v2.687h-2.625zM17.313 28v-2.687h2.687v2.687h-2.687zM28 17.313v-2.625h2.687v2.625h-2.687zM28 28v-2.687h2.687c0 0.708-0.271 1.333-0.813 1.875s-1.167 0.813-1.875 0.813zM6.688 6.688v-2.688h2.625v2.688h-2.625zM6.688 28v-2.687h2.625v2.687h-2.625zM12 6.688v-2.688h2.687v2.688h-2.687zM28 22.687v-2.687h2.687v2.687h-2.687zM28 4c0.708 0 1.333 0.271 1.875 0.813s0.813 1.167 0.813 1.875v5.313h-13.375v-8h10.687zM4 28c-0.708 0-1.333-0.271-1.875-0.813s-0.813-1.167-0.813-1.875h2.688v2.687zM1.313 22.687v-2.687h2.688v2.687h-2.688zM12 28v-2.687h2.687v2.687h-2.687zM1.313 6.688c0-0.708 0.271-1.333 0.813-1.875s1.167-0.813 1.875-0.813v2.688h-2.688zM1.313 17.313v-2.625h2.688v2.625h-2.688zM1.313 12v-2.688h2.688v2.688h-2.688z"></path>
</svg>
