<!-- Generated by IcoMoon.io -->
<svg version="1.1" xmlns="http://www.w3.org/2000/svg" width="32" height="32" viewBox="0 0 32 32">
<title>thumb_up</title>
<path d="M30.687 13.313l-0.062 0.125h0.062v2.563c0 0.333-0.062 0.667-0.187 1l-4.063 9.375c-0.417 1.083-1.229 1.625-2.437 1.625h-12c-0.708 0-1.333-0.271-1.875-0.813s-0.813-1.167-0.813-1.875v-13.313c0-0.708 0.271-1.333 0.813-1.875l8.75-8.813 1.438 1.438c0.375 0.375 0.562 0.833 0.562 1.375v0.438l-1.312 6.125h8.437c0.708 0 1.333 0.271 1.875 0.813 0.542 0.5 0.813 1.104 0.813 1.813zM1.313 28v-16h5.375v16h-5.375z"></path>
</svg>
