<!-- Generated by IcoMoon.io -->
<svg version="1.1" xmlns="http://www.w3.org/2000/svg" width="32" height="32" viewBox="0 0 32 32">
<title>thumbs_up_down</title>
<path d="M30 13.313c0.583 0 1.063 0.208 1.437 0.625 0.375 0.375 0.563 0.833 0.563 1.375v8.687c0 0.583-0.187 1.063-0.563 1.437l-6.625 6.563-1.063-1.063c-0.292-0.292-0.437-0.646-0.437-1.063 0.125-0.583 0.292-1.417 0.5-2.5 0.25-1.083 0.396-1.771 0.437-2.062h-6.937c-0.375 0-0.687-0.125-0.938-0.375s-0.375-0.563-0.375-0.937v-1.687c0-0.125 0.042-0.354 0.125-0.687l3.062-7.063c0.375-0.833 0.979-1.25 1.813-1.25h9zM16 8v1.688c0 0.125-0.042 0.354-0.125 0.688l-3.062 7.062c-0.375 0.833-0.979 1.25-1.813 1.25h-9c-0.583 0-1.063-0.187-1.438-0.562-0.375-0.417-0.563-0.896-0.563-1.438v-8.687c0-0.583 0.188-1.063 0.563-1.438l6.625-6.563 1.063 1.063c0.292 0.292 0.438 0.646 0.438 1.063-0.125 0.583-0.313 1.417-0.563 2.5-0.208 1.083-0.333 1.771-0.375 2.063h6.937c0.375 0 0.687 0.125 0.938 0.375s0.375 0.563 0.375 0.938z"></path>
</svg>
