<!-- Generated by IcoMoon.io -->
<svg version="1.1" xmlns="http://www.w3.org/2000/svg" width="32" height="32" viewBox="0 0 32 32">
<title>thumb_down</title>
<path d="M25.313 4h5.375v16h-5.375v-16zM20 4c0.708 0 1.333 0.271 1.875 0.813s0.813 1.167 0.813 1.875v13.313c0 0.708-0.271 1.333-0.813 1.875l-8.75 8.813-1.438-1.437c-0.375-0.375-0.563-0.833-0.563-1.375v-0.437l1.313-6.125h-8.438c-0.708 0-1.333-0.25-1.875-0.75-0.542-0.542-0.813-1.167-0.813-1.875l0.063-0.125h-0.063v-2.563c0-0.333 0.063-0.667 0.188-1l4.063-9.375c0.417-1.083 1.229-1.625 2.438-1.625h12z"></path>
</svg>
