<!-- Generated by IcoMoon.io -->
<svg version="1.1" xmlns="http://www.w3.org/2000/svg" width="32" height="32" viewBox="0 0 32 32">
<title>today</title>
<path d="M9.313 13.313h6.688v6.688h-6.688v-6.688zM25.313 25.313v-14.625h-18.625v14.625h18.625zM25.313 4c0.708 0 1.333 0.271 1.875 0.813s0.813 1.167 0.813 1.875v18.625c0 0.708-0.271 1.333-0.813 1.875s-1.167 0.813-1.875 0.813h-18.625c-0.75 0-1.396-0.271-1.938-0.813-0.5-0.542-0.75-1.167-0.75-1.875v-18.625c0-0.708 0.25-1.333 0.75-1.875 0.542-0.542 1.188-0.813 1.938-0.813h1.313v-2.688h2.688v2.688h10.625v-2.688h2.687v2.688h1.313z"></path>
</svg>
