<!-- Generated by IcoMoon.io -->
<svg version="1.1" xmlns="http://www.w3.org/2000/svg" width="32" height="32" viewBox="0 0 32 32">
<title>toll</title>
<path d="M5.438 11.313c-0.958 1.375-1.438 2.938-1.438 4.688s0.479 3.313 1.438 4.687c1 1.375 2.292 2.333 3.875 2.875v2.75c-2.333-0.583-4.25-1.833-5.75-3.75s-2.25-4.104-2.25-6.563c0-2.458 0.75-4.646 2.25-6.563s3.417-3.167 5.75-3.75v2.75c-1.583 0.542-2.875 1.5-3.875 2.875zM14.313 21.687c1.583 1.542 3.479 2.313 5.687 2.313s4.083-0.771 5.625-2.313c1.583-1.583 2.375-3.479 2.375-5.687s-0.792-4.083-2.375-5.625c-1.542-1.583-3.417-2.375-5.625-2.375s-4.104 0.792-5.687 2.375c-1.542 1.542-2.313 3.417-2.313 5.625s0.771 4.104 2.313 5.687zM12.438 8.5c2.125-2.125 4.646-3.188 7.563-3.188s5.417 1.063 7.5 3.188c2.125 2.083 3.187 4.583 3.187 7.5s-1.062 5.437-3.187 7.563c-2.083 2.083-4.583 3.125-7.5 3.125s-5.437-1.042-7.563-3.125c-2.083-2.125-3.125-4.646-3.125-7.563s1.042-5.417 3.125-7.5z"></path>
</svg>
