<!-- Generated by IcoMoon.io -->
<svg version="1.1" xmlns="http://www.w3.org/2000/svg" width="32" height="32" viewBox="0 0 32 32">
<title>touch_app</title>
<path d="M25.125 21.187c0.792 0.375 1.187 0.979 1.187 1.813v0.25l-1 7.063c-0.042 0.5-0.25 0.917-0.625 1.25-0.375 0.292-0.813 0.437-1.313 0.437h-9.062c-0.542 0-1-0.187-1.375-0.563l-6.625-6.625 1.063-1.063c0.292-0.292 0.646-0.437 1.063-0.437 0.042 0 0.083 0.021 0.125 0.062 0.083 0 0.146 0 0.188 0l4.563 0.938v-14.313c0-0.583 0.188-1.063 0.562-1.438 0.417-0.375 0.896-0.563 1.438-0.563s1 0.188 1.375 0.563c0.417 0.375 0.625 0.854 0.625 1.438v8h1.062c0.125 0 0.354 0.042 0.688 0.125l6.063 3.062zM12 15c-1.792-1.167-2.688-2.833-2.688-5 0-1.667 0.583-3.083 1.75-4.25s2.583-1.75 4.25-1.75c1.667 0 3.083 0.583 4.25 1.75s1.75 2.583 1.75 4.25c0 2.208-0.875 3.875-2.625 5v-5c0-0.917-0.333-1.688-1-2.313-0.667-0.667-1.458-1-2.375-1s-1.708 0.333-2.375 1c-0.625 0.625-0.938 1.396-0.938 2.313v5z"></path>
</svg>
