<!-- Generated by IcoMoon.io -->
<svg version="1.1" xmlns="http://www.w3.org/2000/svg" width="32" height="32" viewBox="0 0 32 32">
<title>track_changes</title>
<path d="M25.437 6.563c2.583 2.583 3.875 5.729 3.875 9.438 0 3.667-1.313 6.813-3.938 9.437-2.583 2.583-5.708 3.875-9.375 3.875s-6.813-1.292-9.438-3.875c-2.583-2.625-3.875-5.771-3.875-9.437s1.292-6.792 3.875-9.375c2.625-2.625 5.771-3.938 9.438-3.938h1.313v11c0.917 0.5 1.375 1.271 1.375 2.313 0 0.708-0.271 1.333-0.813 1.875s-1.167 0.813-1.875 0.813-1.333-0.271-1.875-0.813c-0.542-0.542-0.813-1.167-0.813-1.875 0-1.042 0.458-1.813 1.375-2.313v-2.812c-1.167 0.333-2.125 0.958-2.875 1.875s-1.125 2-1.125 3.25c0 1.458 0.521 2.708 1.563 3.75s2.292 1.563 3.75 1.563c1.458 0 2.708-0.521 3.75-1.563s1.563-2.292 1.563-3.75c0-1.375-0.521-2.625-1.563-3.75l1.875-1.875c1.583 1.583 2.375 3.458 2.375 5.625 0 2.208-0.792 4.104-2.375 5.687-1.542 1.542-3.417 2.313-5.625 2.313s-4.104-0.771-5.688-2.313c-1.542-1.583-2.313-3.479-2.313-5.687 0-1.958 0.625-3.667 1.875-5.125 1.292-1.5 2.896-2.417 4.812-2.75v-2.688c-2.625 0.333-4.854 1.5-6.687 3.5-1.792 2-2.688 4.354-2.688 7.063 0 2.917 1.042 5.437 3.125 7.563 2.125 2.083 4.646 3.125 7.563 3.125s5.417-1.042 7.5-3.125c2.125-2.125 3.187-4.646 3.187-7.563 0-2.958-1.042-5.479-3.125-7.563l1.875-1.875z"></path>
</svg>
