<!-- Generated by IcoMoon.io -->
<svg version="1.1" xmlns="http://www.w3.org/2000/svg" width="32" height="32" viewBox="0 0 32 32">
<title>view_agenda</title>
<path d="M26.687 4c0.375 0 0.687 0.125 0.938 0.375s0.375 0.563 0.375 0.938v8c0 0.375-0.125 0.708-0.375 1-0.25 0.25-0.563 0.375-0.938 0.375h-22.687c-0.375 0-0.688-0.125-0.938-0.375-0.25-0.292-0.375-0.625-0.375-1v-8c0-0.375 0.125-0.688 0.375-0.938s0.563-0.375 0.938-0.375h22.687zM26.687 17.313c0.375 0 0.687 0.146 0.938 0.437 0.25 0.25 0.375 0.563 0.375 0.937v8c0 0.375-0.125 0.687-0.375 0.938s-0.563 0.375-0.938 0.375h-22.687c-0.375 0-0.688-0.125-0.938-0.375s-0.375-0.563-0.375-0.938v-8c0-0.375 0.125-0.687 0.375-0.937 0.25-0.292 0.563-0.437 0.938-0.437h22.687z"></path>
</svg>
