<!-- Generated by IcoMoon.io -->
<svg version="1.1" xmlns="http://www.w3.org/2000/svg" width="32" height="32" viewBox="0 0 32 32">
<title>visibility</title>
<path d="M13.188 13.188c0.792-0.792 1.729-1.188 2.813-1.188s2.021 0.396 2.813 1.188c0.792 0.792 1.187 1.729 1.187 2.813s-0.396 2.021-1.187 2.813c-0.792 0.792-1.729 1.187-2.813 1.187s-2.021-0.396-2.813-1.187c-0.792-0.792-1.188-1.729-1.188-2.813s0.396-2.021 1.188-2.813zM11.25 20.75c1.333 1.292 2.917 1.937 4.75 1.937s3.396-0.646 4.687-1.937c1.333-1.333 2-2.917 2-4.75s-0.667-3.396-2-4.688c-1.292-1.333-2.854-2-4.687-2s-3.417 0.667-4.75 2c-1.292 1.292-1.938 2.854-1.938 4.688s0.646 3.417 1.938 4.75zM7.063 8.75c2.667-1.833 5.646-2.75 8.938-2.75s6.271 0.917 8.937 2.75 4.583 4.25 5.75 7.25c-1.167 3-3.083 5.417-5.75 7.25s-5.646 2.75-8.937 2.75c-3.292 0-6.271-0.917-8.938-2.75s-4.583-4.25-5.75-7.25c1.167-3 3.083-5.417 5.75-7.25z"></path>
</svg>
