<svg id="Layer_1" enable-background="new 0 0 512 512" height="512" viewBox="0 0 512 512" width="512" xmlns="http://www.w3.org/2000/svg"><g><path d="m468.811 311.423-11.564 105.442c-1.701 15.477-8.276 29.649-18.396 39.796-2.182 2.183-4.534 4.167-7.029 5.953 3.401 8.56 5.186 16.865 5.272 23.98.113 10.119-3.174 18.253-9.977 22.534-8.531 5.895-20.324 1.701-28.033-3.486-11.706-7.908-20.834-20.55-26.87-33.164h-232.428c-6.065 12.727-15.079 25.199-26.87 33.164-7.965 5.357-18.509 9.014-27.494 3.827-7.172-4.167-10.63-12.501-10.517-22.874.085-7.115 1.871-15.42 5.301-23.98-2.494-1.786-4.847-3.77-7.029-5.953-10.148-10.147-16.695-24.319-18.396-39.796l-2.438-22.024c-.426-4.109 2.551-7.794 6.66-8.22 4.11-.454 7.795 2.522 8.221 6.632l2.438 22.024c1.304 12.046 6.349 23.016 14.115 30.754 7.37 7.398 16.865 11.451 27.353 11.451h23.81 265.959c10.459 0 19.955-4.053 27.353-11.451 7.738-7.738 12.783-18.707 14.115-30.754l11.31-102.977h-75.794v78.316c0 7.767-3.175 14.796-8.276 19.898-5.103 5.102-12.131 8.248-19.898 8.248h-73.044c-7.767 0-14.795-3.146-19.897-8.248s-8.248-12.131-8.248-19.898v-22.534c0-4.139 3.344-7.483 7.482-7.483s7.512 3.344 7.512 7.483v22.534c0 3.6 1.474 6.888 3.855 9.297 2.381 2.38 5.669 3.854 9.297 3.854h73.044c3.629 0 6.917-1.474 9.297-3.854 2.382-2.41 3.855-5.698 3.855-9.297v-85.827-30.584h-99.348v30.584 29.337c0 4.138-3.373 7.483-7.512 7.483s-7.482-3.345-7.482-7.483v-21.826h-190.196l5.187 47.194c.454 4.11-2.522 7.795-6.633 8.22-4.109.454-7.795-2.523-8.248-6.632l-5.442-49.66c-4.591-1.219-8.701-3.657-11.961-6.916-4.819-4.819-7.795-11.452-7.795-18.765s2.976-13.945 7.795-18.735c4.818-4.819 11.451-7.795 18.764-7.795h23.668c1.417-10.346 6.208-19.586 13.237-26.616 8.446-8.447 20.096-13.662 32.993-13.662 4.365 0 8.872.624 13.067 1.87 3.004-8.531 8.248-15.986 14.994-21.74 8.9-7.568 20.379-12.16 32.937-12.16 13.18 0 25.198 5.045 34.24 13.266 6.575 6.009 11.564 13.718 14.285 22.449 2.126-.907 4.309-1.672 6.548-2.295 5.471-1.587 11.254-2.438 17.205-2.438 6.889 0 13.549 1.162 19.813 3.259 2.466.822 4.876 1.814 7.228 2.948.851-3.685 2.069-7.2 3.628-10.545 3.346-7.171 8.249-13.52 14.286-18.679 3.147-2.665 7.852-2.296 10.517.85 2.663 3.146 2.295 7.852-.851 10.516-4.337 3.685-7.881 8.334-10.375 13.663-2.408 5.215-3.684 10.855-3.74 16.638 0 1.559-.482 3.118-1.503 4.479-2.494 3.288-7.172 3.911-10.46 1.417-4.023-3.033-8.56-5.471-13.491-7.114-4.677-1.559-9.751-2.438-15.052-2.438-4.563 0-8.956.652-13.095 1.843-4.309 1.247-8.362 3.061-12.018 5.385-.991.624-2.126.992-3.316 1.105-4.109.369-7.738-2.665-8.106-6.774-.851-9.155-5.158-17.318-11.593-23.186-6.378-5.811-14.853-9.354-24.149-9.354-8.929 0-17.035 3.231-23.271 8.532-6.491 5.527-10.827 13.18-12.188 21.627-.113.765-.368 1.531-.765 2.268-1.899 3.656-6.406 5.074-10.063 3.174-4.592-2.409-9.552-3.571-14.711-3.571-8.73 0-16.666 3.543-22.393 9.269-4.309 4.308-7.369 9.835-8.646 16.015h344.758v-.255c0-9.184-3.714-17.517-9.752-23.555-6.008-6.009-14.342-9.751-23.525-9.751-3.146 0-6.123.425-8.872 1.162-2.777.765-5.413 1.898-7.879 3.316-.624.425-1.333.766-2.098.964-3.997 1.134-8.106-1.19-9.24-5.159-2.353-8.447-7.398-15.731-14.172-20.946-6.605-5.074-14.826-8.135-23.754-8.249-4.139-.057-7.426-3.459-7.369-7.568.027-4.139 3.429-7.427 7.539-7.398 12.33.198 23.641 4.394 32.738 11.395 6.973 5.357 12.642 12.387 16.412 20.493 1.275-.454 2.551-.879 3.883-1.247 1.758-.482 3.515-.879 5.3-1.163v-162.074c0-9.381-3.854-17.942-10.033-24.121-6.208-6.208-14.739-10.062-24.15-10.062h-60.97c-9.381 0-17.914 3.854-24.12 10.062-4.621 4.621-7.938 10.573-9.325 17.177 12.84 1.815 24.348 7.795 33.105 16.553 10.573 10.573 17.092 25.17 17.092 41.327 0 4.138-3.344 7.483-7.483 7.483h-101.872c-4.139 0-7.483-3.345-7.483-7.483 0-16.156 6.52-30.754 17.12-41.327 9.014-9.014 20.976-15.107 34.326-16.695 1.559-10.714 6.576-20.323 13.918-27.664 8.9-8.901 21.201-14.428 34.721-14.428h60.97c13.55 0 25.851 5.527 34.751 14.428 8.9 8.929 14.427 21.23 14.427 34.75v162.075c10.347 1.616 19.587 6.491 26.646 13.549 9.183 9.184 14.2 21.428 14.143 34.411h13.407c7.313 0 13.974 2.976 18.764 7.795 4.818 4.79 7.795 11.422 7.795 18.735s-2.977 13.946-7.795 18.765c-3.26 3.259-7.371 5.696-11.963 6.915zm-236.281-142.829c0 4.139-3.373 7.511-7.511 7.511-4.139 0-7.483-3.373-7.483-7.511v-37.5c0-4.167 3.345-7.511 7.483-7.511s7.511 3.344 7.511 7.511zm61.962 0c0 4.139-3.373 7.511-7.512 7.511s-7.483-3.373-7.483-7.511v-37.5c0-4.167 3.344-7.511 7.483-7.511s7.512 3.344 7.512 7.511zm-30.98 13.407c0 4.167-3.373 7.511-7.512 7.511s-7.482-3.344-7.482-7.511v-50.907c0-4.167 3.344-7.511 7.482-7.511s7.512 3.344 7.512 7.511zm114.37 115.307h84.128c3.175 0 6.064-1.304 8.162-3.401 2.098-2.098 3.402-4.989 3.402-8.164 0-3.146-1.305-6.037-3.402-8.135-2.098-2.097-4.987-3.401-8.162-3.401h-84.128zm-129.364-23.101h-167.802-30.726c-3.174 0-6.065 1.304-8.163 3.401-2.097 2.098-3.401 4.989-3.401 8.135 0 3.175 1.305 6.066 3.401 8.164 2.098 2.098 4.989 3.401 8.163 3.401h198.527v-23.101zm38.208-204.819c-7.879-7.851-18.736-12.727-30.726-12.727-11.989 0-22.846 4.876-30.697 12.727-6.18 6.179-10.517 14.229-12.075 23.214h85.572c-1.587-8.985-5.895-17.035-12.074-23.214zm131.747 400.142c-4.904 1.73-10.148 2.721-15.703 2.919-4.508.142-9.128.028-13.662.028 5.441 9.24 12.046 16.468 18.366 20.749 4.933 3.316 9.185 4.677 11.622 3.288 2.834-1.587 3.089-7.001 3.061-9.807-.057-4.989-1.304-10.885-3.684-17.177zm-295.579 2.948c-4.507 0-9.127.113-13.634-.028-5.585-.198-10.828-1.19-15.731-2.891-2.381 6.264-3.629 12.16-3.686 17.149-.113 11.819 5.272 12.868 14.683 6.519 6.377-4.309 12.982-11.537 18.368-20.749z"/></g></svg>