<?xml version="1.0" encoding="iso-8859-1"?>
<!-- Generator: Adobe Illustrator 19.0.0, SVG Export Plug-In . SVG Version: 6.00 Build 0)  -->
<svg version="1.1" id="Capa_1" xmlns="http://www.w3.org/2000/svg" xmlns:xlink="http://www.w3.org/1999/xlink" x="0px" y="0px"
	 viewBox="0 0 512 512" style="enable-background:new 0 0 512 512;" xml:space="preserve">
<g>
	<g>
		<path d="M448.387,160.322H143.774c-12.976,0-23.533,10.557-23.533,23.532c0,10.42,6.81,19.275,16.212,22.36
			c0.187,3.441,0.526,6.85,1.01,10.22H85.912c-3.139-9.308-11.946-16.032-22.3-16.032c-12.976,0-23.532,10.557-23.532,23.532
			s10.557,23.532,23.532,23.532c10.353,0,19.16-6.724,22.3-16.032h54.728c10.642,37.841,39.979,69.585,79.23,87.752L196.463,440.9
			c-0.195-0.003-0.389-0.015-0.585-0.015c-19.606,0-35.556,15.95-35.556,35.556c0,19.606,15.951,35.558,35.557,35.558
			s35.557-15.951,35.557-35.557c0-14.168-8.332-26.424-20.352-32.134l3.94-20.487h162.115l15.787,82.094
			c0.69,3.589,3.833,6.085,7.357,6.085c0.47,0,0.946-0.044,1.425-0.136c4.067-0.782,6.731-4.714,5.949-8.782l-35.365-183.895
			c47.704-22.08,80.77-64.211,83.417-112.973c9.4-3.086,16.21-11.94,16.21-22.36C471.919,170.878,461.362,160.322,448.387,160.322z
			 M63.612,232.467c-4.705,0-8.532-3.828-8.532-8.532c0-4.704,3.828-8.532,8.532-8.532c4.704,0,8.532,3.828,8.532,8.532
			C72.144,228.639,68.317,232.467,63.612,232.467z M216.436,476.442c-0.001,11.335-9.223,20.557-20.557,20.557
			s-20.556-9.222-20.556-20.557c0-11.334,9.222-20.556,20.556-20.556C207.214,455.886,216.436,465.108,216.436,476.442z
			 M374.253,408.822H217.908l16.121-83.831c19.088,6.858,40.057,10.653,62.051,10.653c21.994,0,42.964-3.795,62.051-10.653
			L374.253,408.822z M448.387,192.386h-32.068c-4.142,0-7.5,3.358-7.5,7.5c0,4.142,3.358,7.5,7.5,7.5h24.28
			c-3.039,41.153-30.902,76.792-71.23,96.61l-1.795-9.333c-0.783-4.067-4.715-6.73-8.782-5.949
			c-4.067,0.782-6.731,4.714-5.949,8.782l2.422,12.593c-18.079,6.779-38.113,10.555-59.185,10.555
			c-21.073,0-41.107-3.776-59.185-10.555l2.422-12.593c0.782-4.068-1.881-8-5.949-8.782c-4.066-0.781-7.999,1.882-8.782,5.949
			l-1.795,9.333c-40.328-19.818-68.19-55.457-71.23-96.61h232.7c4.142,0,7.5-3.358,7.5-7.5c0-4.142-3.358-7.5-7.5-7.5H143.774
			c-4.705,0-8.533-3.828-8.533-8.532c0-4.704,3.828-8.532,8.533-8.532h304.613c4.705,0,8.532,3.828,8.532,8.532
			C456.919,188.558,453.091,192.386,448.387,192.386z"/>
	</g>
</g>
<g>
	<g>
		<path d="M397.675,134.577c-7.897-49.536-31.871-83.196-50.592-102.71c-20.36-21.223-38.833-30.671-39.609-31.063
			c-2.522-1.272-5.547-1.02-7.823,0.655c-2.276,1.674-3.418,4.486-2.954,7.274c5.109,30.652-3.579,50.352-9.388,59.552l-9.975-9.975
			c-1.598-1.598-3.83-2.391-6.078-2.157c-2.247,0.233-4.27,1.467-5.505,3.359c-9.687,14.833-23.048,24.95-35.97,34.735
			c-14.739,11.16-28.66,21.701-36.649,38.251c-1.8,3.729-0.236,8.212,3.494,10.013c1.051,0.508,2.162,0.748,3.255,0.748
			c2.788,0,5.466-1.562,6.759-4.241c6.418-13.294,18.364-22.34,32.196-32.814c11.261-8.527,23.794-18.018,34.119-31.062l9.805,9.805
			c2.929,2.929,7.678,2.929,10.606,0c0.975-0.974,21.397-21.945,19.782-62.811c20.339,14.693,59.482,50.621,69.714,114.802
			c0.652,4.091,4.501,6.879,8.587,6.226C395.539,142.512,398.327,138.667,397.675,134.577z"/>
	</g>
</g>
<g>
	<g>
		<path d="M354.79,133.92c-8.629-34.142-30.588-44.624-31.518-45.054c-3.7-1.708-8.083-0.149-9.877,3.508
			c-11.255,22.961-36.6,36.618-36.854,36.753c-3.657,1.935-5.057,6.466-3.126,10.127c1.932,3.665,6.469,5.069,10.132,3.136
			c1.097-0.579,24.625-13.177,39.065-35.856c5.416,4.773,13.392,14.267,17.635,31.06c0.859,3.399,3.913,5.665,7.266,5.665
			c0.608,0,1.227-0.075,1.843-0.23C353.372,142.014,355.805,137.936,354.79,133.92z"/>
	</g>
</g>
<g>
</g>
<g>
</g>
<g>
</g>
<g>
</g>
<g>
</g>
<g>
</g>
<g>
</g>
<g>
</g>
<g>
</g>
<g>
</g>
<g>
</g>
<g>
</g>
<g>
</g>
<g>
</g>
<g>
</g>
</svg>
