<!-- Generated by IcoMoon.io -->
<svg version="1.1" xmlns="http://www.w3.org/2000/svg" width="1024" height="1024" viewBox="0 0 1024 1024">
<title>vg-concierge</title>
<g id="icomoon-ignore">
</g>
<path d="M532.528 239.717c223.23 0 403.454 182.272 403.454 403.458v292.864h-845.822v-292.864c0-223.234 182.272-403.458 403.456-403.458h38.912zM532.528 147.556h-36.864c-274.432 0-497.664 221.185-497.664 495.619v323.584c0 32.768 26.624 61.44 61.44 61.44h907.262c32.768 0 61.44-26.624 61.44-61.44v-323.584c0-274.434-223.232-495.619-495.614-495.619z"></path>
<path d="M464.889 65.655c0 61.44 0 122.88 0 184.319 0 59.393 92.159 59.393 92.159 0 0-61.439 0-122.879 0-184.319 2.048-59.392-92.159-59.392-92.159 0z"></path>
<path d="M686.177 16.384c-10.24-10.24-22.528-16.384-38.912-16.384h-270.335c-32.768 0-49.152 26.624-49.152 51.2s16.384 51.2 49.152 51.2h272.383c32.768 0 49.152-26.624 49.152-51.2 0-12.288-6.144-24.576-12.288-34.816z"></path>
<path d="M970.883 689.948c-27.369-8.858 63.255-14.171 19.462-14.171h-937.355c-87.595 0-40.173 23.023-40.173 44.277 0 21.248-13.39 44.271 40.173 44.271h917.894c87.598 0 32.848-23.023 32.848-44.271 0-10.627-16.418-21.254-32.848-30.106z"></path>
</svg>
