<!-- Generated by IcoMoon.io -->
<svg version="1.1" xmlns="http://www.w3.org/2000/svg" width="32" height="32" viewBox="0 0 32 32">
<title>vg-cheers</title>
<path d="M28.795 7.816l0.879 4.786c-3.118 3.51-7.116 1.037-9.834 3.988-0.080-0.080-0.080-0.16-0.080-0.239l-1.199-6.78 10.234-1.755zM24.797 29.75c-0.4 0.080-0.72 0.479-0.64 0.877 0.080 0.479 0.48 0.798 0.879 0.718l5.117-0.957c0.4-0.080 0.72-0.479 0.64-0.877-0.080-0.479-0.48-0.718-0.959-0.638l-1.759 0.319-1.279-7.258c3.278-0.957 5.357-4.307 4.797-7.657l-1.359-7.577c-0.080-0.399-0.48-0.718-0.879-0.638l-11.833 2.074c-0.48 0.080-0.72 0.479-0.64 0.957l1.279 7.498c0.64 3.43 3.678 5.823 7.116 5.583l1.279 7.258-1.759 0.319zM29.994 14.516c0.48 2.792-1.359 5.504-4.237 5.982-2.079 0.399-4.077-0.558-5.197-2.233 2.079-3.031 5.916-0.798 9.434-3.749z"></path>
<path d="M3.449 7.816l-0.8 4.786c3.118 3.51 7.116 1.037 9.834 3.988 0-0.080 0-0.16 0.080-0.239l1.199-6.78-10.313-1.755zM7.527 29.75c0.4 0.080 0.72 0.479 0.64 0.877-0.080 0.479-0.48 0.798-0.959 0.718l-5.037-0.957c-0.48-0.080-0.72-0.479-0.64-0.877 0.080-0.479 0.48-0.718 0.879-0.638l1.759 0.319 1.279-7.258c-3.278-0.957-5.357-4.307-4.717-7.657l1.279-7.577c0.080-0.399 0.56-0.718 0.959-0.638l11.833 2.074c0.4 0.080 0.72 0.479 0.64 0.957l-1.359 7.498c-0.56 3.43-3.678 5.823-7.036 5.583l-1.279 7.258 1.759 0.319zM2.33 14.516c-0.56 2.792 1.359 5.504 4.157 5.982 2.079 0.399 4.157-0.558 5.277-2.233-2.079-3.031-5.996-0.798-9.434-3.749z"></path>
<path d="M16.962 0.798c0-0.479-0.4-0.798-0.8-0.798-0.48 0-0.799 0.319-0.799 0.798v3.35c0 0.399 0.32 0.798 0.799 0.798 0.4 0 0.8-0.399 0.8-0.798v-3.35z"></path>
<path d="M11.525 1.674c-0.16-0.399-0.64-0.558-1.039-0.399-0.4 0.239-0.56 0.718-0.32 1.037l1.359 3.111c0.24 0.399 0.72 0.558 1.039 0.319 0.4-0.16 0.56-0.638 0.4-0.957l-1.439-3.111z"></path>
<path d="M22.16 2.233c0.24-0.399 0-0.877-0.32-1.037-0.4-0.16-0.879 0-1.039 0.399l-1.439 3.031c-0.16 0.399 0 0.877 0.32 1.037 0.4 0.16 0.879 0 1.039-0.399l1.439-3.031z"></path>
</svg>
