<!-- Generated by IcoMoon.io -->
<svg version="1.1" xmlns="http://www.w3.org/2000/svg" width="32" height="32" viewBox="0 0 32 32">
<title>vg-calendar-full</title>
<path d="M27.875 2.5h-2.875v-1.5c0-0.552-0.448-1-1-1s-1 0.448-1 1v1.5h-14v-1.5c0-0.552-0.448-1-1-1s-1 0.448-1 1v1.5h-2.875c-2.275 0-4.125 1.85-4.125 4.125v21.25c0 2.275 1.85 4.125 4.125 4.125h23.75c2.275 0 4.125-1.851 4.125-4.125v-21.25c0-2.275-1.851-4.125-4.125-4.125zM30 27.875c0 1.174-0.951 2.125-2.125 2.125h-23.75c-1.174 0-2.125-0.951-2.125-2.125v-16.562c0-0.173 0.14-0.313 0.313-0.313h27.375c0.173 0 0.312 0.14 0.312 0.313v16.562z"></path>
</svg>
