<!-- Generated by IcoMoon.io -->
<svg version="1.1" xmlns="http://www.w3.org/2000/svg" width="32" height="32" viewBox="0 0 32 32">
<title>vg-checkin-full</title>
<path d="M21.035 3.37c0 1.604-1.285 2.917-2.856 2.917s-2.856-1.313-2.856-2.917c0-1.604 1.285-2.917 2.856-2.917s2.856 1.313 2.856 2.917zM8.895 31.813l3.999-20.566-2.571 1.021v4.959h-2.856v-6.855l7.212-3.121c1.385-0.598 2.985-0.073 3.785 1.225l1.428 2.334c1.143 2.042 3.428 3.501 6.141 3.501v2.917c-3.142 0-5.998-1.459-7.855-3.647l-0.857 4.376 2.999 2.917v10.94h-2.856v-8.752l-2.999-2.917-2.571 11.669h-2.999z"></path>
</svg>
