<!-- Generated by IcoMoon.io -->
<svg version="1.1" xmlns="http://www.w3.org/2000/svg" width="32" height="32" viewBox="0 0 32 32">
<title>vg-delete</title>
<path d="M25.986 3.63h-5.248v-0.886c0-1.513-1.231-2.743-2.743-2.743h-3.988c-1.513 0-2.743 1.231-2.743 2.743v0.886h-5.248c-1.834 0-3.326 1.492-3.326 3.326v1.904c0 0.345 0.28 0.625 0.625 0.625h1.775l1.585 18.819c0.085 1.011 0.543 1.945 1.29 2.632s1.716 1.064 2.731 1.064h10.613c1.014 0 1.984-0.378 2.731-1.064s1.205-1.621 1.29-2.632l1.585-18.819h1.775c0.345 0 0.625-0.28 0.625-0.625v-1.904c0-1.834-1.492-3.326-3.326-3.326v0zM12.512 2.743c0-0.823 0.67-1.493 1.493-1.493h3.988c0.823 0 1.493 0.67 1.493 1.493v0.886h-6.975v-0.886zM28.062 8.235h-9.293c-0.345 0-0.625 0.28-0.625 0.625s0.28 0.625 0.625 0.625h6.889l-1.576 18.714c-0.12 1.431-1.339 2.551-2.775 2.551h-10.613c-1.436 0-2.655-1.121-2.775-2.551l-1.576-18.714h6.926c0.345 0 0.625-0.28 0.625-0.625s-0.28-0.625-0.625-0.625h-9.331v-1.279c0-1.145 0.931-2.076 2.076-2.076h19.972c1.145 0 2.076 0.931 2.076 2.076v1.279h-0z"></path>
<path d="M12.435 14.337c-0.244-0.244-0.64-0.244-0.884 0s-0.244 0.64 0 0.884l3.565 3.565-3.565 3.565c-0.244 0.244-0.244 0.64 0 0.884 0.122 0.122 0.282 0.183 0.442 0.183s0.32-0.061 0.442-0.183l3.565-3.565 3.565 3.565c0.122 0.122 0.282 0.183 0.442 0.183s0.32-0.061 0.442-0.183c0.244-0.244 0.244-0.64 0-0.884l-3.565-3.565 3.565-3.565c0.244-0.244 0.244-0.64 0-0.884s-0.64-0.244-0.884 0l-3.565 3.565-3.565-3.565z"></path>
<path d="M15.485 9.098c0.131 0.314 0.5 0.468 0.816 0.338s0.468-0.502 0.338-0.816c-0.13-0.315-0.502-0.468-0.816-0.338s-0.466 0.502-0.337 0.816z"></path>
</svg>
