<!-- Generated by IcoMoon.io -->
<svg version="1.1" xmlns="http://www.w3.org/2000/svg" width="32" height="32" viewBox="0 0 32 32">
<title>vg-eye-hide</title>
<path d="M16 25.333c1.261 0 2.413-0.137 3.464-0.375l-2.343-2.343c-0.364 0.028-0.733 0.051-1.121 0.051-7.135 0-9.899-5.128-10.568-6.667 0.503-1.122 1.181-2.156 2.011-3.063l-1.864-1.864c-2.051 2.223-2.828 4.461-2.843 4.505-0.092 0.274-0.092 0.57 0 0.844 0.028 0.088 3.087 8.911 13.264 8.911zM16 6.667c-2.449 0-4.461 0.528-6.139 1.308l-4.919-4.917-1.885 1.885 24 24 1.885-1.885-4.425-4.425c3.485-2.601 4.729-6.153 4.748-6.209 0.092-0.274 0.092-0.57 0-0.844-0.029-0.089-3.088-8.912-13.265-8.912zM22.629 20.744l-3.040-3.040c0.253-0.52 0.411-1.092 0.411-1.704 0-2.188-1.812-4-4-4-0.612 0-1.184 0.157-1.703 0.412l-2.411-2.411c1.323-0.454 2.714-0.68 4.113-0.668 7.135 0 9.899 5.128 10.568 6.667-0.403 0.923-1.555 3.123-3.939 4.744z"></path>
</svg>
