<!-- Generated by IcoMoon.io -->
<svg version="1.1" xmlns="http://www.w3.org/2000/svg" width="1024" height="1024" viewBox="0 0 1024 1024">
<title>vg-concierge</title>
<g id="icomoon-ignore">
</g>
<path fill="#000" d="M907.543 967.614h-862.403v53.879h862.403v-53.879z"></path>
<path fill="#000" d="M925.921 90.124l-57.168-57.166c-47.26-47.261-124.24-47.307-171.5 0l-514.543 514.497c-3.24 3.24-5.601 7.266-6.851 11.665l-76.237 266.805c-2.685 9.441-0.046 19.534 6.851 26.477 5.138 5.14 11.989 7.918 19.071 7.918 2.453 0 4.953-0.324 7.406-1.020l266.807-76.239c4.444-1.249 8.425-3.609 11.665-6.849l514.499-514.589c22.909-22.913 35.549-53.37 35.549-85.726 0-32.402-12.64-62.906-35.549-85.773zM378.234 733.069l-213.436 60.965 60.962-213.438 414.281-414.327 152.474 152.474-414.281 414.326zM887.824 223.528l-57.168 57.166-152.474-152.474 57.168-57.166c26.243-26.246 69.014-26.246 95.306 0l57.168 57.166c12.73 12.729 19.718 29.625 19.718 47.631s-6.988 34.948-19.718 47.677z"></path>
</svg>
