<?xml version="1.0" encoding="iso-8859-1"?>
<!-- Generator: Adobe Illustrator 19.0.0, SVG Export Plug-In . SVG Version: 6.00 Build 0)  -->
<svg version="1.1" id="Capa_1" xmlns="http://www.w3.org/2000/svg" xmlns:xlink="http://www.w3.org/1999/xlink" x="0px" y="0px"
	 viewBox="0 0 512.001 512.001" style="enable-background:new 0 0 512.001 512.001;" xml:space="preserve">
<g>
	<g>
		<path d="M475.202,118.482h-74.89V97.462c0-23.881-17.556-43.734-40.438-47.344v-1.528c0-12.552-10.211-22.764-22.763-22.764
			H174.889c-12.552,0-22.764,10.212-22.764,22.764v1.528c-22.883,3.609-40.438,23.463-40.438,47.344v21.021H36.798
			C16.507,118.482,0,134.99,0,155.28v28.437c0,4.14,3.356,7.496,7.496,7.496c4.14,0,7.496-3.355,7.496-7.496V155.28
			c0-12.024,9.782-21.806,21.806-21.806h265.179c4.14,0,7.496-3.356,7.496-7.496c0-4.14-3.356-7.496-7.496-7.496H126.679V97.462
			c0-15.585,10.883-28.668,25.446-32.072v0.068c0,12.552,10.212,22.764,22.764,22.764h162.223c12.552,0,22.763-10.212,22.763-22.764
			v-0.067c14.563,3.404,25.446,16.486,25.446,32.071v21.021h-29.373c-4.14,0-7.496,3.356-7.496,7.496
			c0,4.14,3.355,7.496,7.496,7.496h119.254c12.024,0,21.806,9.782,21.806,21.806v294.097c0,12.024-9.782,21.806-21.806,21.806
			H36.798c-12.024,0-21.806-9.782-21.806-21.806V237.931c0-4.14-3.356-7.496-7.496-7.496c-4.14,0-7.496,3.356-7.496,7.496v211.446
			c0,20.29,16.507,36.798,36.798,36.798h438.405c20.29,0,36.798-16.508,36.798-36.798V155.28
			C512,134.99,495.492,118.482,475.202,118.482z M344.883,65.459c0,4.286-3.486,7.772-7.771,7.772H174.889
			c-4.285,0-7.772-3.486-7.772-7.772V48.589c0-4.286,3.486-7.772,7.772-7.772h162.223c4.285,0,7.771,3.487,7.771,7.772V65.459z"/>
	</g>
</g>
<g>
	<g>
		<path d="M317.403,268.729h-24.394c-1.881,0-3.41-1.53-3.41-3.41v-24.395c0-10.146-8.255-18.402-18.403-18.402h-30.392
			c-10.147,0-18.403,8.255-18.403,18.402v24.395c0,1.881-1.53,3.41-3.411,3.41h-24.394c-10.147,0-18.403,8.255-18.403,18.403v30.392
			c0,10.147,8.255,18.402,18.403,18.402h24.394c1.881,0,3.411,1.531,3.411,3.411v24.394c0,10.147,8.255,18.402,18.403,18.402h30.392
			c10.148,0,18.403-8.255,18.403-18.402v-24.394c0-1.881,1.529-3.411,3.41-3.411h24.394c10.148,0,18.403-8.255,18.403-18.402
			v-30.392C335.806,276.984,327.551,268.729,317.403,268.729z M320.814,317.525c0,1.881-1.53,3.41-3.411,3.41h-24.394
			c-10.147,0-18.402,8.255-18.402,18.403v24.394c0,1.881-1.53,3.41-3.411,3.41h-30.392c-1.881,0-3.411-1.53-3.411-3.41v-24.394
			c0-10.148-8.255-18.403-18.403-18.403h-24.394c-1.881,0-3.411-1.53-3.411-3.41v-30.392c0-1.881,1.53-3.411,3.411-3.411h24.394
			c10.147,0,18.403-8.255,18.403-18.402v-24.395c0-1.881,1.53-3.41,3.411-3.41h30.392c1.881,0,3.411,1.53,3.411,3.41v24.395
			c0,10.147,8.255,18.402,18.402,18.402h24.394c1.881,0,3.411,1.531,3.411,3.411V317.525z"/>
	</g>
</g>
<g>
</g>
<g>
</g>
<g>
</g>
<g>
</g>
<g>
</g>
<g>
</g>
<g>
</g>
<g>
</g>
<g>
</g>
<g>
</g>
<g>
</g>
<g>
</g>
<g>
</g>
<g>
</g>
<g>
</g>
</svg>
