<!-- Generated by IcoMoon.io -->
<svg version="1.1" xmlns="http://www.w3.org/2000/svg" width="32" height="32" viewBox="0 0 32 32">
<title>vg-feedback</title>
<path d="M25.488 0h-18.977c-1.336 0-2.608 0.419-3.679 1.212-0.209 0.155-0.253 0.449-0.098 0.658s0.449 0.253 0.658 0.098c0.908-0.672 1.986-1.027 3.119-1.027h18.977c2.893 0 5.247 2.354 5.247 5.247v12.446c0 2.893-2.354 5.247-5.247 5.247h-8.021c-0.194 0-0.381 0.081-0.514 0.222l-6.442 6.849c-0.139 0.148-0.3 0.106-0.363 0.081s-0.209-0.105-0.209-0.308v-6.14c0-0.389-0.316-0.705-0.705-0.705h-2.723c-2.893 0-5.248-2.354-5.248-5.247v-12.447c0-1.064 0.317-2.089 0.916-2.964 0.147-0.214 0.092-0.507-0.122-0.654s-0.507-0.092-0.654 0.122c-0.707 1.032-1.081 2.24-1.081 3.496v12.446c0 3.412 2.776 6.188 6.188 6.188h2.488v5.904c0 0.525 0.315 0.989 0.803 1.182 0.154 0.061 0.314 0.090 0.471 0.090 0.343 0 0.678-0.14 0.924-0.402l6.372-6.775h7.919c3.412 0 6.188-2.776 6.188-6.188v-12.447c0-3.412-2.776-6.188-6.188-6.188z"></path>
<path d="M22.757 7.558c-1.633-1.633-4.29-1.633-5.923 0l-0.82 0.82c-0.002 0.002-0.009 0.009-0.021 0.009s-0.019-0.007-0.021-0.009l-0.807-0.807c-1.633-1.633-4.29-1.633-5.923 0s-1.633 4.29 0 5.923l6.065 6.065c0.183 0.183 0.427 0.284 0.687 0.284s0.503-0.101 0.687-0.284l3.333-3.333c0.184-0.184 0.184-0.482 0-0.665s-0.482-0.184-0.665 0l-3.333 3.333c-0.002 0.002-0.009 0.009-0.021 0.009s-0.019-0.007-0.021-0.009l-6.065-6.065c-1.266-1.266-1.266-3.326 0-4.592s3.326-1.266 4.592 0l0.807 0.807c0.183 0.183 0.427 0.284 0.687 0.284s0.503-0.101 0.687-0.284l0.82-0.82c1.266-1.266 3.326-1.266 4.592 0s1.266 3.326 0 4.592l-1.405 1.405c-0.184 0.184-0.184 0.482 0 0.665s0.482 0.184 0.665-0l1.404-1.405c1.633-1.633 1.633-4.29 0-5.923z"></path>
</svg>
