<!-- Generated by IcoMoon.io -->
<svg version="1.1" xmlns="http://www.w3.org/2000/svg" width="32" height="32" viewBox="0 0 32 32">
<title>vg-heart</title>
<path d="M2.388 16.449c0.015 0.024 0.033 0.047 0.052 0.066l12.575 13.361c0.091 0.096 0.214 0.152 0.351 0.156h0.009c0.129 0 0.25-0.049 0.344-0.139l13.731-13.278c0.006-0.005 0.060-0.054 0.092-0.085 0.027-0.025 0.049-0.051 0.054-0.064 1.55-1.605 2.404-3.714 2.404-5.938 0-4.719-3.839-8.559-8.559-8.559-3.089 0-5.923 1.654-7.441 4.329-1.517-2.676-4.351-4.329-7.441-4.329-4.72 0-8.559 3.839-8.559 8.559-0.001 2.223 0.852 4.331 2.388 5.922zM8.559 2.957c3.061 0 5.803 1.826 6.985 4.654 0.077 0.184 0.256 0.303 0.456 0.303s0.378-0.119 0.456-0.303c1.183-2.826 3.925-4.653 6.986-4.653 4.175 0 7.572 3.397 7.572 7.571 0 1.992-0.773 3.874-2.176 5.302-0.014 0.014-0.025 0.028-0.036 0.042l-13.411 12.962-12.165-12.922c-0.018-0.029-0.039-0.057-0.065-0.082-1.402-1.426-2.174-3.308-2.174-5.301 0-4.175 3.397-7.571 7.572-7.571z"></path>
</svg>
