<svg width="25" height="25" viewBox="0 0 25 25" fill="none" xmlns="http://www.w3.org/2000/svg">
<line y1="7.75" x2="25" y2="7.75" stroke="#273951" stroke-width="0.5"/>
<g clip-path="url(#clip0)">
<path d="M17.75 16.3303C17.7497 16.3301 17.7495 16.3298 17.7493 16.3296L13.67 12.2505C13.4962 12.0766 13.265 11.9808 13.0191 11.9808C12.7732 11.9808 12.542 12.0766 12.3681 12.2505L8.291 16.3275C8.28962 16.3289 8.28817 16.3303 8.28688 16.3317C7.92982 16.6908 7.93043 17.2735 8.28863 17.6317C8.45228 17.7954 8.66835 17.8902 8.89944 17.9002C8.9089 17.9011 8.91836 17.9015 8.9279 17.9015H9.09041V20.9034C9.09041 21.4975 9.5738 21.9808 10.1679 21.9808H11.7638C11.9256 21.9808 12.0568 21.8496 12.0568 21.6879V19.3343C12.0568 19.0633 12.2774 18.8428 12.5484 18.8428H13.4898C13.7608 18.8428 13.9813 19.0633 13.9813 19.3343V21.6879C13.9813 21.8496 14.1125 21.9808 14.2743 21.9808H15.8702C16.4644 21.9808 16.9477 21.4975 16.9477 20.9034V17.9015H17.0985C17.3443 17.9015 17.5755 17.8058 17.7495 17.6318C18.1081 17.273 18.1082 16.6893 17.75 16.3303V16.3303ZM17.3351 17.2175C17.2719 17.2807 17.1878 17.3156 17.0985 17.3156H16.6547C16.4929 17.3156 16.3618 17.4467 16.3618 17.6086V20.9034C16.3618 21.1744 16.1413 21.3949 15.8702 21.3949H14.5673V19.3343C14.5673 18.7402 14.0839 18.2568 13.4898 18.2568H12.5484C11.9543 18.2568 11.4709 18.7402 11.4709 19.3343V21.3949H10.1679C9.89691 21.3949 9.67634 21.1744 9.67634 20.9034V17.6086C9.67634 17.4467 9.54519 17.3156 9.38337 17.3156H8.94728C8.9427 17.3153 8.9382 17.3151 8.93354 17.315C8.84626 17.3135 8.7644 17.2788 8.70306 17.2174C8.5726 17.0869 8.5726 16.8746 8.70306 16.7441C8.70314 16.7441 8.70314 16.744 8.70321 16.7439L8.70344 16.7437L12.7825 12.6648C12.8457 12.6015 12.9297 12.5667 13.0191 12.5667C13.1084 12.5667 13.1924 12.6015 13.2557 12.6648L17.3338 16.7429C17.3344 16.7435 17.3351 16.7441 17.3357 16.7447C17.4655 16.8754 17.4653 17.0872 17.3351 17.2175V17.2175Z" fill="#273951"/>
</g>
<circle cx="16" cy="4" r="0.75" stroke="#273951" stroke-width="0.5"/>
<circle cx="19" cy="4" r="0.75" stroke="#273951" stroke-width="0.5"/>
<circle cx="22" cy="4" r="0.75" stroke="#273951" stroke-width="0.5"/>
<path fill-rule="evenodd" clip-rule="evenodd" d="M2 0.5H23C23.8284 0.5 24.5 1.17157 24.5 2V11H25V2C25 0.895431 24.1046 0 23 0H2C0.895431 0 0 0.89543 0 2V23C0 24.1046 0.89543 25 2 25H23C24.1046 25 25 24.1046 25 23V21H24.5V23C24.5 23.8284 23.8284 24.5 23 24.5H2C1.17157 24.5 0.5 23.8284 0.5 23V2C0.5 1.17157 1.17157 0.5 2 0.5ZM24.5 19H25V17H24.5V19ZM25 13V15H24.5V13H25Z" fill="#273951"/>
<defs>
<clipPath id="clip0">
<rect width="10" height="10" fill="white" transform="translate(8 12)"/>
</clipPath>
</defs>
</svg>
