<!-- Generated by IcoMoon.io -->
<svg version="1.1" xmlns="http://www.w3.org/2000/svg" width="1024" height="1024" viewBox="0 0 1024 1024">
<title>vg-concierge</title>
<g id="icomoon-ignore">
</g>
<path d="M1012.556 781.017c-5.018 17.572-21.033 29.032-38.437 29.032-3.641 0-7.328-0.5-11.002-1.548-21.242-6.062-33.546-28.201-27.484-49.443 19.538-68.44 10.666-143.946-24.367-207.159-9.875-17.809-20.32-35.357-31.384-53.936-27.009-45.351-54.78-92.047-75.993-145.977h-574.219c-26.539 56.868-51.751 98.759-76.219 139.424-13.203 21.938-25.672 42.648-37.844 64.938-41.735 76.39-44.813 167.936-8.25 244.892 46.234 97.288 120.415 142.766 233.126 142.774 1.914 0 3.82-0.016 5.75-0.041 20.914-0.291 50.071-4.702 73.501-8.241 50.999-7.721 104.088-7.266 157.798 1.335 30.88 4.944 61.264 7.209 92.844 6.898 69.374-0.655 127.242-17.289 172.016-49.447 17.936-12.882 42.93-8.786 55.82 9.159 12.882 17.945 8.782 42.938-9.163 55.82-58.417 41.951-131.736 63.64-217.907 64.463-36.159 0.336-70.902-2.245-106.258-7.909-45.548-7.287-90.362-7.7-133.19-1.225-25.828 3.908-57.992 8.782-84.383 9.134-2.211 0.029-4.437 0.037-6.633 0.037-143.368 0.008-246.142-63.361-305.572-188.428-47.539-100.033-43.695-218.751 10.289-317.579 12.977-23.753 26.461-46.166 39.508-67.838 18.133-30.118 36.68-60.946 55.719-98.165h-38.726c-22.094 0-40-17.906-40-40s17.906-40 40-40h159.993c72.383 0 139.555-59.172 163.1-134.594-29.475-8.242-51.108-35.282-51.108-67.391 0-38.664 31.344-70 69.999-70 38.658 0 70.001 31.336 70.001 70 0 1.898-0.098 3.781-0.25 5.648 0.156 1.43 0.25 2.875 0.25 4.352 0 66.641-26.288 134.586-72.131 186.399-1.679 1.898-3.375 3.758-5.087 5.594h154.44c-1.712-1.836-3.416-3.695-5.087-5.594-45.842-51.813-72.135-119.758-72.135-186.399 0-1.477 0.094-2.922 0.242-4.352-0.147-1.867-0.242-3.75-0.242-5.648 0-38.664 31.338-70 69.992-70 38.666 0 70.001 31.336 70.001 70 0 32.109-21.623 59.149-51.102 67.391 23.548 75.43 90.718 134.602 163.095 134.602h160.002c22.086 0 39.993 17.906 39.993 39.993 0 22.094-17.908 40-39.993 40h-34.955c17.117 36.891 37.642 71.361 57.704 105.046 10.891 18.285 22.147 37.188 32.625 56.095 45.212 81.596 56.627 179.237 31.314 267.891v0zM239.029 574.276c-19.383-10.584-43.688-3.453-54.274 15.929-29.5 54.002-31.571 118.931-5.555 173.683 32.266 67.895 90.235 103.703 167.79 103.703 1.141 0 2.289-0.008 3.438-0.033 22.086-0.287 39.75-18.444 39.453-40.53-0.289-21.905-18.141-39.461-39.984-39.461-0.18 0-0.367 0.008-0.547 0.008-48.352 0.68-78.516-17.244-97.891-58.024-15.055-31.674-13.742-69.431 3.5-100.995 10.593-19.39 3.461-43.688-15.93-54.28v0z"></path>
</svg>
