<?xml version="1.0" encoding="UTF-8"?>
<svg xmlns="http://www.w3.org/2000/svg" id="Icons" viewBox="0 0 74 74" width="512" height="512"><path d="M22.371,9.13a1,1,0,0,1-.629-1.778,24.871,24.871,0,0,1,2.572-1.8,1,1,0,0,1,1.051,1.7A22.674,22.674,0,0,0,23,8.908,1,1,0,0,1,22.371,9.13Z"/><path d="M37,72a1,1,0,0,1-.744-.332A149.743,149.743,0,0,1,24.457,56.2C16.576,44.317,12.58,34.3,12.58,26.42a23.49,23.49,0,0,1,.2-3.111,1,1,0,0,1,1.983.262,21.594,21.594,0,0,0-.181,2.849c0,16.068,18.453,38.435,22.42,43.058,3.967-4.623,22.42-26.99,22.42-43.058A22.446,22.446,0,0,0,37,4a21.577,21.577,0,0,0-4.864.544A1,1,0,1,1,31.685,2.6,23.539,23.539,0,0,1,37,2,24.448,24.448,0,0,1,61.42,26.42c0,7.876-4,17.9-11.877,29.784a149.743,149.743,0,0,1-11.8,15.464A1,1,0,0,1,37,72Z"/><path d="M16.1,16.87a1.013,1.013,0,0,1-.439-.1,1,1,0,0,1-.459-1.338,20.825,20.825,0,0,1,1.6-2.722,1,1,0,1,1,1.642,1.142A18.676,18.676,0,0,0,17,16.31,1,1,0,0,1,16.1,16.87Z"/><path d="M37,44.6A17.611,17.611,0,1,1,54.61,26.985,17.63,17.63,0,0,1,37,44.6Zm0-33.221a15.611,15.611,0,1,0,15.61,15.61A15.628,15.628,0,0,0,37,11.375Z"/><path d="M32.322,20.5h5.586a11.776,11.776,0,0,1,3.079.342,3.321,3.321,0,0,1,1.966,1.481,4.646,4.646,0,0,1,.725,2.548,4.181,4.181,0,0,1-1.44,3.441,6.451,6.451,0,0,1-4.167,1.174H34.3v5.985H32.322ZM34.3,27.71h3.789A4.109,4.109,0,0,0,40.813,27a2.6,2.6,0,0,0,.812-2.063,2.872,2.872,0,0,0-.449-1.593,1.94,1.94,0,0,0-1.139-.878,8.142,8.142,0,0,0-1.986-.184H34.3Z"/><path d="M34.3,35.6H32.322a.125.125,0,0,1-.125-.125V20.5a.125.125,0,0,1,.125-.125h5.586a11.962,11.962,0,0,1,3.113.347,3.454,3.454,0,0,1,2.038,1.533,4.79,4.79,0,0,1,.744,2.616,4.317,4.317,0,0,1-1.486,3.538,6.6,6.6,0,0,1-4.246,1.2H34.429v5.86A.125.125,0,0,1,34.3,35.6Zm-1.857-.25h1.732v-5.86a.124.124,0,0,1,.125-.125h3.767a6.358,6.358,0,0,0,4.088-1.146,4.079,4.079,0,0,0,1.394-3.344,4.549,4.549,0,0,0-.7-2.481,3.213,3.213,0,0,0-1.894-1.427,11.717,11.717,0,0,0-3.046-.338H32.447Zm5.645-7.512H34.3a.124.124,0,0,1-.125-.125V22.277a.124.124,0,0,1,.125-.125h3.747a8.293,8.293,0,0,1,2.018.188,2.068,2.068,0,0,1,1.211.931,3,3,0,0,1,.47,1.661,2.73,2.73,0,0,1-.854,2.156A4.237,4.237,0,0,1,38.092,27.834Zm-3.663-.25h3.663A4.014,4.014,0,0,0,40.73,26.9a2.494,2.494,0,0,0,.77-1.969,2.763,2.763,0,0,0-.429-1.525,1.808,1.808,0,0,0-1.066-.826,8.1,8.1,0,0,0-1.954-.179H34.429Z"/></svg>
