<!-- Generated by IcoMoon.io -->
<svg version="1.1" xmlns="http://www.w3.org/2000/svg" width="32" height="32" viewBox="0 0 32 32">
<title>vg-pictures</title>
<path d="M31.525 12.859c0.262 0 0.473-0.212 0.473-0.473v-2.388c0-1.976-1.216-3.713-3.050-4.397-0.468-1.166-1.406-2.113-2.566-2.594-0.68-1.756-2.386-3.006-4.379-3.006h-2.428c-0.262 0-0.473 0.212-0.473 0.473s0.212 0.473 0.473 0.473h2.428c2.067 0 3.748 1.681 3.748 3.748v11.839l-6.56-7.404c-0.090-0.101-0.219-0.159-0.354-0.159s-0.264 0.058-0.354 0.159l-7.067 7.975-4.078-3.786c-0.183-0.17-0.467-0.168-0.648 0.004l-5.744 5.466v-14.094c0-2.067 1.681-3.748 3.748-3.748h11.188c0.261 0 0.473-0.212 0.473-0.473s-0.212-0.473-0.473-0.473h-11.188c-2.589 0-4.695 2.106-4.695 4.695v17.309c0 1.953 1.199 3.631 2.9 4.338 0.482 1.25 1.484 2.242 2.738 2.711 0.709 1.773 2.432 2.948 4.358 2.948h17.307c2.589 0 4.695-2.106 4.695-4.695v-12.663c0-0.261-0.212-0.473-0.473-0.473s-0.473 0.212-0.473 0.473v12.663c0 2.067-1.681 3.748-3.748 3.748h-17.307c-1.297 0-2.479-0.668-3.157-1.726 0.146 0.014 0.294 0.021 0.442 0.021h17.308c2.589 0 4.695-2.106 4.695-4.695v-17.308c0-0.185-0.011-0.369-0.032-0.551 1.103 0.667 1.799 1.867 1.799 3.204v2.388c0 0.261 0.212 0.473 0.473 0.473zM0.947 22.004v-1.908l6.074-5.78 4.107 3.813c0.093 0.087 0.218 0.131 0.345 0.126s0.247-0.063 0.331-0.159l7.034-7.938 6.915 7.803v4.042c0 2.067-1.681 3.748-3.748 3.748h-17.309c-2.067 0-3.748-1.682-3.748-3.748zM28.339 24.654c0 2.067-1.682 3.748-3.748 3.748h-17.308c-0.387 0-0.769-0.059-1.135-0.175-0.004-0.001-0.008-0.002-0.012-0.004-0.841-0.27-1.552-0.829-2.018-1.561 0.189 0.023 0.382 0.037 0.577 0.037h17.309c2.589 0 4.695-2.106 4.695-4.695v-17.309c0-0.156-0.008-0.31-0.023-0.461 0.672 0.454 1.195 1.12 1.461 1.895 0.134 0.39 0.202 0.8 0.202 1.217v17.308h0z"></path>
<path d="M3.59 6.171c0 1.425 1.159 2.584 2.584 2.584s2.584-1.159 2.584-2.584c0-1.425-1.159-2.584-2.584-2.584s-2.584 1.159-2.584 2.584zM7.812 6.171c0 0.903-0.735 1.637-1.637 1.637s-1.637-0.735-1.637-1.637c0-0.903 0.734-1.637 1.637-1.637s1.637 0.734 1.637 1.637z"></path>
</svg>
