<svg width="25" height="25" viewBox="0 0 25 25" fill="none" xmlns="http://www.w3.org/2000/svg">
<path d="M18.3524 8.52344H6.64423C4.03604 8.52344 1.91406 10.645 1.91406 13.2528V20.2696C1.91406 22.8774 4.03604 24.9989 6.64423 24.9989H18.3524C20.9606 24.9989 23.0825 22.8774 23.0825 20.2696V13.2528C23.0825 10.645 20.9606 8.52344 18.3524 8.52344ZM21.4648 20.2696C21.4648 21.9854 20.0686 23.3812 18.3524 23.3812H6.64423C4.928 23.3812 3.53177 21.9853 3.53177 20.2696V13.2528C3.53177 11.537 4.928 10.1411 6.64423 10.1411H18.3524C20.0686 10.1411 21.4648 11.537 21.4648 13.2528V20.2696Z" fill="#273951"/>
<path d="M12.4982 0C8.38737 0 5.04297 3.33566 5.04297 7.43578V9.33415C5.04297 9.78084 5.40513 10.143 5.85182 10.143C6.29851 10.143 6.66067 9.78084 6.66067 9.33415V7.43578C6.66067 4.22767 9.27938 1.6177 12.4982 1.6177C15.7174 1.6177 18.3365 4.22767 18.3365 7.43578V9.33415C18.3365 9.78084 18.6986 10.143 19.1453 10.143C19.592 10.143 19.9542 9.78084 19.9542 9.33415V7.43578C19.9542 3.33566 16.6094 0 12.4982 0Z" fill="#273951"/>
<path d="M12.6318 13.1133C11.3228 13.1133 10.2578 14.1782 10.2578 15.4873C10.2578 16.7963 11.3228 17.8612 12.6318 17.8612C13.9408 17.8612 15.0058 16.7963 15.0058 15.4873C15.0058 14.1782 13.9408 13.1133 12.6318 13.1133ZM12.6318 16.2435C12.2148 16.2435 11.8755 15.9043 11.8755 15.4873C11.8755 15.0702 12.2148 14.731 12.6318 14.731C13.0488 14.731 13.3881 15.0702 13.3881 15.4873C13.3881 15.9043 13.0488 16.2435 12.6318 16.2435Z" fill="#273951"/>
<path d="M12.6292 16.3438C12.1825 16.3438 11.8203 16.7059 11.8203 17.1526V20.2812C11.8203 20.728 12.1825 21.0901 12.6292 21.0901C13.0759 21.0901 13.438 20.7279 13.438 20.2812V17.1526C13.438 16.7059 13.0759 16.3438 12.6292 16.3438Z" fill="#273951"/>
</svg>
