<!-- Generated by IcoMoon.io -->
<svg version="1.1" xmlns="http://www.w3.org/2000/svg" width="32" height="32" viewBox="0 0 32 32">
<title>vg-pinhome</title>
<path d="M16 10.24c-3.226 0-5.85 2.624-5.85 5.85 0 1.090 0.302 2.153 0.873 3.076l4.644 7.483c0.089 0.143 0.246 0.23 0.414 0.23h0.004c0.17-0.001 0.327-0.091 0.414-0.237l4.525-7.556c0.54-0.903 0.825-1.94 0.825-2.997 0-3.226-2.624-5.85-5.85-5.85zM20.188 18.587l-4.114 6.869-4.222-6.804c-0.476-0.768-0.733-1.654-0.733-2.562 0-2.688 2.193-4.881 4.881-4.881s4.878 2.193 4.878 4.881c0 0.881-0.241 1.745-0.69 2.497z"></path>
<path d="M16 13.165c-1.613 0-2.925 1.312-2.925 2.925 0 1.603 1.291 2.925 2.925 2.925 1.654 0 2.925-1.34 2.925-2.925 0-1.613-1.312-2.925-2.925-2.925zM16 18.047c-1.081 0-1.957-0.879-1.957-1.957 0-1.075 0.881-1.957 1.957-1.957s1.953 0.881 1.953 1.957c0 1.062-0.855 1.957-1.953 1.957z"></path>
<path d="M31.139 18.083c-0.557 0.557-1.297 0.863-2.083 0.863h-0.483v9.606c0 1.901-1.547 3.448-3.448 3.448h-5.107c-0.063 0-0.124-0.006-0.183-0.018h-7.668c-0.059 0.012-0.12 0.018-0.183 0.018h-5.107c-1.901 0-3.448-1.547-3.448-3.448v-9.606h-0.52c-0.030 0-0.061-0.001-0.091-0.004-0.74-0.032-1.431-0.335-1.955-0.859-1.146-1.146-1.148-3.011-0.006-4.16l13.061-13.060c0.557-0.557 1.296-0.863 2.083-0.863s1.527 0.306 2.083 0.863l13.057 13.055c1.146 1.149 1.146 3.017-0.002 4.165zM23.113 30.125h2.012c0.868 0 1.573-0.706 1.573-1.573v-10.543c0-0.518 0.42-0.937 0.938-0.937h1.42c0.286 0 0.555-0.112 0.757-0.314 0.417-0.417 0.417-1.095 0.002-1.513l-0.006-0.006-13.051-13.050c-0.202-0.202-0.471-0.314-0.757-0.314s-0.555 0.111-0.757 0.314l-13.054 13.052c-0.418 0.418-0.419 1.098-0.001 1.516 0.196 0.197 0.458 0.307 0.738 0.312 0.015 0 0.029 0.001 0.044 0.002h1.396c0.518 0 0.938 0.42 0.938 0.937v10.543c0 0.867 0.706 1.573 1.573 1.573h2.015v-0.009l14.222 0.009z"></path>
</svg>
