<!-- Generated by IcoMoon.io -->
<svg version="1.1" xmlns="http://www.w3.org/2000/svg" width="32" height="32" viewBox="0 0 32 32">
<title>vg-socialconnect</title>
<path d="M25.928 16.469h1.394c0.218 1.079 1.174 1.894 2.316 1.894 1.303 0 2.363-1.060 2.363-2.363s-1.060-2.363-2.363-2.363c-1.142 0-2.098 0.815-2.316 1.894h-1.394c-0.111-2.388-1.069-4.558-2.579-6.217l2.51-2.51c0.494 0.36 1.102 0.573 1.758 0.573 1.651 0 2.994-1.343 2.994-2.994s-1.343-2.994-2.994-2.994c-1.651 0-2.994 1.343-2.994 2.994 0 0.657 0.213 1.264 0.573 1.758l-2.51 2.51c-1.659-1.51-3.829-2.468-6.217-2.579v-1.394c1.079-0.218 1.894-1.174 1.894-2.316 0-1.303-1.060-2.363-2.363-2.363s-2.363 1.060-2.363 2.363c0 1.142 0.815 2.098 1.894 2.316v1.394c-2.388 0.111-4.558 1.069-6.217 2.579l-2.51-2.51c0.36-0.494 0.573-1.102 0.573-1.758 0-0.997-0.494-1.925-1.321-2.484-0.215-0.145-0.506-0.088-0.651 0.126s-0.088 0.506 0.126 0.651c0.569 0.384 0.908 1.022 0.908 1.706 0 1.134-0.923 2.057-2.057 2.057s-2.057-0.923-2.057-2.057c0-0.916 0.615-1.73 1.495-1.98 0.249-0.071 0.394-0.33 0.323-0.579s-0.33-0.393-0.579-0.323c-1.282 0.364-2.176 1.549-2.176 2.882 0 1.651 1.343 2.994 2.994 2.994 0.657 0 1.264-0.213 1.758-0.573l2.51 2.51c-1.51 1.659-2.468 3.829-2.579 6.217h-1.394c-0.218-1.079-1.174-1.894-2.316-1.894-1.303 0-2.363 1.060-2.363 2.363s1.060 2.363 2.363 2.363c1.142 0 2.098-0.815 2.316-1.894h1.394c0.111 2.388 1.069 4.558 2.579 6.217l-2.51 2.51c-0.494-0.36-1.102-0.573-1.758-0.573-1.651 0-2.994 1.343-2.994 2.994s1.343 2.994 2.994 2.994c1.651 0 2.994-1.343 2.994-2.994 0-0.657-0.213-1.264-0.573-1.758l2.51-2.51c1.659 1.51 3.829 2.468 6.217 2.579v1.394c-1.079 0.218-1.894 1.174-1.894 2.316 0 1.303 1.060 2.363 2.363 2.363s2.363-1.060 2.363-2.363c0-1.142-0.815-2.098-1.894-2.316v-1.394c2.388-0.111 4.558-1.069 6.217-2.579l2.51 2.51c-0.36 0.494-0.573 1.102-0.573 1.759 0 1.651 1.343 2.994 2.994 2.994s2.994-1.343 2.994-2.994c0-0.324-0.052-0.643-0.153-0.949-0.082-0.245-0.348-0.378-0.593-0.296s-0.378 0.347-0.297 0.593c0.070 0.21 0.105 0.429 0.105 0.652 0 1.134-0.923 2.057-2.057 2.057s-2.057-0.923-2.057-2.057c0-1.134 0.923-2.057 2.057-2.057 0.26 0 0.513 0.048 0.752 0.142 0.241 0.095 0.513-0.024 0.608-0.265s-0.024-0.513-0.265-0.608c-0.349-0.137-0.718-0.207-1.095-0.207-0.657 0-1.264 0.213-1.759 0.573l-2.51-2.51c1.51-1.659 2.468-3.829 2.579-6.217zM29.637 14.575c0.786 0 1.425 0.639 1.425 1.425s-0.639 1.425-1.425 1.425c-0.786 0-1.425-0.639-1.425-1.425s0.639-1.425 1.425-1.425zM27.617 2.326c1.134 0 2.057 0.923 2.057 2.057s-0.922 2.057-2.057 2.057-2.057-0.923-2.057-2.057c0-1.134 0.923-2.057 2.057-2.057zM14.575 2.363c0-0.786 0.639-1.425 1.425-1.425s1.425 0.639 1.425 1.425c0 0.786-0.639 1.425-1.425 1.425s-1.425-0.639-1.425-1.425zM2.363 17.425c-0.786 0-1.425-0.639-1.425-1.425s0.639-1.425 1.425-1.425c0.786 0 1.425 0.639 1.425 1.425s-0.639 1.425-1.425 1.425zM16 6.998c4.963 0 9.001 4.038 9.001 9.002s-4.038 9.001-9.001 9.001c-4.963 0-9.002-4.038-9.002-9.001s4.038-9.002 9.002-9.002zM4.383 29.673c-1.134 0-2.057-0.922-2.057-2.057s0.923-2.057 2.057-2.057c1.134 0 2.057 0.923 2.057 2.057s-0.923 2.057-2.057 2.057zM17.425 29.637c0 0.786-0.639 1.425-1.425 1.425s-1.425-0.639-1.425-1.425c0-0.786 0.639-1.425 1.425-1.425s1.425 0.639 1.425 1.425z"></path>
<path d="M20.863 16.303c-0.167 0.167-0.389 0.259-0.625 0.259h-0.145v2.882c0 0.57-0.464 1.034-1.035 1.034h-1.532c-0.019 0-0.037-0.002-0.055-0.005h-2.3c-0.018 0.004-0.036 0.005-0.055 0.005h-1.532c-0.57 0-1.034-0.464-1.034-1.034v-2.882h-0.156c-0.009 0-0.018-0-0.027-0.001-0.222-0.010-0.429-0.101-0.586-0.258-0.344-0.344-0.345-0.903-0.002-1.248l3.918-3.918c0.167-0.167 0.389-0.259 0.625-0.259s0.458 0.092 0.625 0.259l3.917 3.917c0.344 0.345 0.344 0.905-0.001 1.249zM18.455 19.916h0.603c0.26 0 0.472-0.212 0.472-0.472v-3.163c0-0.155 0.126-0.281 0.281-0.281h0.426c0.086 0 0.166-0.033 0.227-0.094 0.125-0.125 0.125-0.328 0.001-0.454l-0.002-0.002-3.915-3.915c-0.061-0.061-0.141-0.094-0.227-0.094s-0.166 0.033-0.227 0.094l-3.916 3.916c-0.125 0.125-0.126 0.33-0 0.455 0.059 0.059 0.137 0.092 0.221 0.094l0.013 0.001h0.419c0.155 0 0.281 0.126 0.281 0.281v3.163c0 0.26 0.212 0.472 0.472 0.472h0.605v-0.003l4.267 0.003z"></path>
</svg>
