<!-- Generated by IcoMoon.io -->
<svg version="1.1" xmlns="http://www.w3.org/2000/svg" width="1024" height="1024" viewBox="0 0 1024 1024">
<title>vg-concierge</title>
<g id="icomoon-ignore">
</g>
<path fill="#5f6d83" d="M837.088 472.438h22.816c6.026 0.039 11.788 2.458 16.037 6.735 4.246 4.273 6.628 10.055 6.628 16.081v465.79c0 3.009-0.595 5.986-1.749 8.763-1.158 2.781-2.851 5.301-4.982 7.42-2.135 2.123-4.667 3.801-7.452 4.939-2.784 1.134-5.77 1.713-8.779 1.694h-801.424c-6.051 0-11.854-2.406-16.132-6.684s-6.682-10.082-6.682-16.132v-833.599c0-6.051 2.404-11.854 6.682-16.132s10.081-6.682 16.132-6.682h608.526c6.053 0 11.855 2.404 16.132 6.682 4.281 4.278 6.684 10.081 6.684 16.132v22.814c0.020 3.008-0.555 5.99-1.694 8.775s-2.816 5.317-4.935 7.451c-2.123 2.134-4.643 3.828-7.42 4.983s-5.758 1.751-8.767 1.751h-562.751v742.052h710.314v-420.017c0-6.053 2.406-11.855 6.684-16.136 4.277-4.277 10.082-6.68 16.132-6.68z"></path>
<path fill="#5f6d83" d="M360.328 726.174l-16.087-16.234c-2.127-2.119-3.814-4.636-4.966-7.408-1.152-2.777-1.744-5.746-1.744-8.751 0-3.001 0.593-5.975 1.744-8.747s2.839-5.293 4.966-7.412l482.611-475.59c2.107-2.122 4.612-3.807 7.373-4.957s5.723-1.742 8.712-1.742c2.993 0 5.955 0.592 8.716 1.742s5.266 2.834 7.373 4.957l16.089 16.233c2.127 2.119 3.812 4.638 4.962 7.411 1.154 2.773 1.745 5.746 1.745 8.749s-0.591 5.976-1.745 8.749c-1.15 2.773-2.836 5.292-4.962 7.411l-482.612 475.59c-2.109 2.146-4.625 3.848-7.4 5.010s-5.753 1.76-8.761 1.76c-3.008 0-5.986-0.599-8.761-1.76s-5.29-2.863-7.399-5.010h0.146z"></path>
<path fill="#5f6d83" d="M172.987 460.3v-22.816c-0.040-5.975 2.266-11.729 6.423-16.022s9.832-6.786 15.807-6.94h97.985c3.008 0 5.987 0.595 8.765 1.753 2.777 1.154 5.299 2.848 7.419 4.982s3.798 4.667 4.936 7.452c1.138 2.784 1.714 5.766 1.695 8.775v22.816c0 2.997-0.59 5.963-1.737 8.732-1.146 2.765-2.827 5.281-4.946 7.4s-4.633 3.797-7.401 4.947c-2.768 1.146-5.735 1.737-8.731 1.737h-97.985c-2.996 0-5.963-0.591-8.731-1.737-2.768-1.15-5.283-2.828-7.402-4.947s-3.799-4.636-4.946-7.4c-1.146-2.769-1.736-5.734-1.736-8.732h0.585z"></path>
<path fill="#5f6d83" d="M172.987 309.227v-22.814c-0.002-5.951 2.321-11.667 6.474-15.929s9.807-6.733 15.755-6.885h304.63c6.049 0 11.855 2.404 16.132 6.682s6.684 10.081 6.684 16.132v22.814c0.020 3.009-0.559 5.991-1.697 8.776s-2.812 5.317-4.935 7.451c-2.119 2.134-4.64 3.828-7.42 4.983-2.777 1.156-5.754 1.751-8.763 1.751h-304.63c-3.008 0-5.987-0.595-8.765-1.751s-5.299-2.849-7.419-4.983c-2.12-2.134-3.798-4.666-4.936-7.451s-1.714-5.767-1.694-8.776h0.585z"></path>
<path fill="#fff" d="M441.722 105.51h492.367v492.367h-492.367v-492.367z"></path>
<path fill="#5f6d83" d="M601.305 382.273c-1.284 0-2.572-0.145-3.856-0.482-7.916-1.887-13.643-8.822-13.643-17.141v-35.867c0-128.545 102.183-233.133 227.773-233.133h5.841v-77.714c0-7.316 4.344-13.892 10.98-16.642 6.609-2.723 14.202-1.077 19.153 4.207l151.851 161.4c6.538 6.935 6.538 17.933 0 24.868l-151.851 161.4c-4.951 5.285-12.591 6.913-19.153 4.207-6.636-2.749-10.98-9.325-10.98-16.642v-77.71h-27.754c-73.492 0-139.54 41.795-172.383 109.058-3.013 6.217-9.346 10.188-15.978 10.188v0zM811.579 131.518c-98.119 0-179.365 75.437-191.26 172.634 42.468-48.489 103.373-76.991 169.346-76.991h45.273c9.673 0 17.522 8.034 17.522 17.933v51.168l110.005-116.925-110.005-116.925v51.173c0 9.899-7.849 17.933-17.522 17.933h-23.359z"></path>
</svg>
