<!-- Generated by IcoMoon.io -->
<svg version="1.1" xmlns="http://www.w3.org/2000/svg" width="1024" height="1024" viewBox="0 0 1024 1024">
<title>vg-concierge</title>
<g id="icomoon-ignore">
</g>
<path fill="none" stroke-linejoin="miter" stroke-linecap="butt" stroke-miterlimit="4" stroke-width="44.5217" stroke="#5f6d83" d="M843.49 180.762v-0.002l-0.254-0.25c-91.933-90.474-202.739-135.988-331.237-135.988-128.506 0-238.686 45.526-329.273 136.114-91.906 91.905-138.204 202.752-138.204 331.364 0 128.561 46.268 238.739 138.203 329.274 90.536 91.937 200.712 138.204 329.275 138.204 128.614 0 239.46-46.298 331.366-138.204 90.588-90.588 136.112-200.766 136.112-329.274 0-128.497-45.515-239.305-135.987-331.237z"></path>
<path fill="#5f6d83" d="M464.347 529.883v-265.884c0-36.883 29.901-66.783 66.783-66.783s66.783 29.899 66.783 66.783v265.884c0 36.882-29.901 66.783-66.783 66.783s-66.783-29.901-66.783-66.783z"></path>
<path fill="#5f6d83" d="M531.13 686.333c36.882 0 66.783 30.212 66.783 67.094s-29.901 67.094-66.783 67.094c-36.882 0-66.783-30.212-66.783-67.094s29.901-67.094 66.783-67.094z"></path>
</svg>
