<svg id="Capa_1" enable-background="new 0 0 512 512" height="512" viewBox="0 0 512 512" width="512" xmlns="http://www.w3.org/2000/svg"><g><g><path d="m490.093 424.5c13.166-8.454 21.907-23.226 21.907-40 0-26.191-21.309-47.5-47.5-47.5h-31.06c23.25-15.745 38.56-42.368 38.56-72.5 0-48.248-39.252-87.5-87.5-87.5h-8.782c14.342-21.252 22.131-46.259 22.287-72.449.031-5.233-1.986-10.15-5.68-13.844-3.666-3.665-8.534-5.679-13.721-5.679h-.121c-5.438.032-10.847.41-16.199 1.109-.74-17.049-4.384-33.73-10.89-49.703-2.147-5.272-6.221-9.373-11.47-11.548s-11.029-2.155-16.275.055c-9.606 4.046-18.704 9.061-27.172 14.932-6.803-12.203-15.2-23.433-25.088-33.439-4.1-4.149-9.566-6.434-15.389-6.434s-11.289 2.285-15.39 6.436c-9.887 10.005-18.285 21.235-25.088 33.439-8.468-5.872-17.566-10.887-27.171-14.933-5.246-2.21-11.026-2.229-16.275-.055-5.25 2.175-9.323 6.275-11.47 11.548-6.504 15.968-10.152 32.652-10.892 49.702-5.35-.699-10.758-1.076-16.195-1.108h-.121c-5.187 0-10.056 2.014-13.721 5.679-3.694 3.693-5.711 8.61-5.68 13.843.155 26.191 7.945 51.198 22.287 72.45h-48.784c-26.191-.001-47.5 21.308-47.5 47.499 0 16.774 8.741 31.546 21.907 40-13.166 8.454-21.907 23.226-21.907 40 0 15.225 7.208 28.789 18.382 37.488-33.975 12.025-58.382 44.469-58.382 82.512 0 48.248 39.252 87.5 87.5 87.5h377c26.191 0 47.5-21.309 47.5-47.5 0-16.774-8.741-31.546-21.907-40zm-111.52-324.472h.027c1.182 0 2.288.456 3.118 1.285.837.837 1.294 1.955 1.287 3.148-.182 30.788-12.27 59.731-34.037 81.498-12.718 12.718-27.755 22.091-44.157 27.749 11.111-11.925 17.927-27.901 17.927-45.447 0-15.019-5.56-30.438-13.48-44.792 19.861-14.999 44.246-23.292 69.315-23.441zm-125.657-17.094c.82-.832 1.916-1.289 3.084-1.289s2.264.457 3.085 1.289c14.628 14.821 48.653 52.805 48.653 85.328 0 28.528-23.209 51.738-51.738 51.738-28.528 0-51.738-23.21-51.738-51.738 0-32.524 34.025-70.507 48.654-85.328zm76.556-44.168c1.522-.642 3.196-.649 4.713-.021s2.695 1.817 3.319 3.348c6.128 15.045 9.435 30.787 9.873 46.871-16.541 4.142-32.196 11.479-45.981 21.645-8.022-11.991-17.12-22.785-25.102-31.384 13.952-17.701 32.221-31.632 53.178-40.459zm-78.193-21.787c1.261-1.276 2.938-1.979 4.721-1.979s3.46.703 4.721 1.979c9.46 9.574 17.431 20.372 23.754 32.156-6.998 5.993-13.423 12.648-19.21 19.868-2.807-1.537-5.97-2.358-9.265-2.358s-6.457.821-9.265 2.358c-5.787-7.22-12.213-13.874-19.211-19.867 6.324-11.785 14.295-22.584 23.755-32.157zm-76.782 25.114c.624-1.53 1.802-2.72 3.319-3.348 1.516-.629 3.19-.621 4.713.021 20.954 8.826 39.227 22.758 53.179 40.458-7.982 8.598-17.08 19.393-25.102 31.384-13.786-10.167-29.44-17.503-45.98-21.645.438-16.085 3.745-31.829 9.871-46.87zm-44.215 59.22c.83-.829 1.936-1.285 3.118-1.285h.028c25.069.148 49.451 8.442 69.314 23.443-7.921 14.353-13.48 29.772-13.48 44.79 0 17.432 6.725 33.318 17.709 45.218-16.387-5.717-31.478-15.058-43.939-27.52-21.767-21.767-33.855-50.71-34.037-81.499-.007-1.191.45-2.31 1.287-3.147zm334.218 395.687h-377c-39.977 0-72.5-32.523-72.5-72.5s32.523-72.5 72.5-72.5h39.573c4.142 0 7.5-3.357 7.5-7.5s-3.358-7.5-7.5-7.5h-39.573c-17.92 0-32.5-14.579-32.5-32.5s14.58-32.5 32.5-32.5h297c4.142 0 7.5-3.357 7.5-7.5s-3.358-7.5-7.5-7.5h-297c-17.92 0-32.5-14.579-32.5-32.5s14.58-32.5 32.5-32.5h60.571c1.411 1.551 2.862 3.075 4.355 4.567 24.574 24.574 58.193 38.433 92.871 38.431h21.408c34.668 0 68.305-13.867 92.87-38.431 1.493-1.493 2.943-3.016 4.355-4.567h20.57c39.977 0 72.5 32.523 72.5 72.5s-32.523 72.5-72.5 72.5h-227.427c-4.142 0-7.5 3.357-7.5 7.5s3.358 7.5 7.5 7.5h307.427c17.92 0 32.5 14.579 32.5 32.5s-14.58 32.5-32.5 32.5h-65c-4.142 0-7.5 3.357-7.5 7.5s3.358 7.5 7.5 7.5h65c17.92 0 32.5 14.579 32.5 32.5s-14.58 32.5-32.5 32.5z"/><path d="m369.5 417h-282c-4.142 0-7.5 3.357-7.5 7.5s3.358 7.5 7.5 7.5h282c4.142 0 7.5-3.357 7.5-7.5s-3.358-7.5-7.5-7.5z"/></g></g></svg>