<svg width="23" height="22" viewBox="0 0 23 22" fill="none" xmlns="http://www.w3.org/2000/svg">
<g clip-path="url(#clip0)">
<path d="M22.8667 11C22.8667 17.0752 17.7479 22 11.4333 22C5.1188 22 0 17.0752 0 11C0 4.92479 5.1188 0 11.4333 0C17.7479 0 22.8667 4.92479 22.8667 11Z" fill="url(#paint0_linear)"/>
<path d="M12.999 10.5395C12.508 10.9088 12.4991 11.1665 12.4991 11.6131C12.4991 11.7763 12.4097 11.9651 11.9724 11.9651C11.6063 11.9651 11.4814 11.8363 11.4814 11.3897C11.4814 10.6512 11.8205 10.299 12.0795 10.0843C12.374 9.84389 12.8739 9.57763 12.8739 9.11381C12.8739 8.71869 12.5169 8.52969 12.0705 8.52969C11.1599 8.52969 11.3564 9.19107 10.8743 9.19107C10.6332 9.19107 10.3387 9.03641 10.3387 8.70145C10.3387 8.23777 10.8922 7.5506 12.0973 7.5506C13.24 7.5506 13.9987 8.16038 13.9987 8.96771C13.9987 9.77504 13.24 10.3592 12.999 10.5395ZM12.6687 13.2192C12.6687 13.5713 12.3652 13.8804 11.9813 13.8804C11.5974 13.8804 11.3029 13.5713 11.3029 13.2192C11.3029 12.8584 11.6063 12.5578 11.9813 12.5578C12.3563 12.5578 12.6687 12.8584 12.6687 13.2192Z" fill="white"/>
<path d="M12.182 16.762H6.13808C5.82912 16.762 5.57846 16.521 5.57846 16.2236V10.4088C5.57846 6.90561 8.5408 4.05554 12.182 4.05554C15.8233 4.05554 18.7855 6.90561 18.7855 10.4088C18.7855 13.9119 15.8233 16.762 12.182 16.762ZM6.6977 15.6852H12.182C15.2061 15.6852 17.6663 13.3182 17.6663 10.4088C17.6663 7.4994 15.2061 5.13236 12.182 5.13236C9.15799 5.13236 6.6977 7.4994 6.6977 10.4088V15.6852Z" fill="white"/>
</g>
<defs>
<linearGradient id="paint0_linear" x1="0" y1="11" x2="22.8667" y2="11" gradientUnits="userSpaceOnUse">
<stop stop-color="#0F77FF"/>
<stop offset="1" stop-color="#104993"/>
</linearGradient>
<clipPath id="clip0">
<rect width="22.8667" height="22" fill="white"/>
</clipPath>
</defs>
</svg>
