<svg width="100" height="100" viewBox="0 0 100 100" fill="none" xmlns="http://www.w3.org/2000/svg">
<path d="M90.6249 12H9.37506C4.20534 12 0 16.2053 0 21.3751V77.625C0 82.7948 4.20534 87.0001 9.37506 87.0001H90.6249C95.7947 87.0001 100 82.7948 100 77.625V21.3751C100 16.2053 95.7947 12 90.6249 12V12ZM90.6249 18.25C91.0495 18.25 91.4534 18.3381 91.8227 18.4919L50 54.7399L8.17709 18.4919C8.54636 18.3383 8.95027 18.25 9.37486 18.25H90.6249ZM90.6249 80.7499H9.37506C7.65085 80.7499 6.24997 79.3493 6.24997 77.6248V25.0951L47.9522 61.237C48.5413 61.7466 49.2707 62 50 62C50.7293 62 51.4587 61.7468 52.0478 61.237L93.75 25.0951V77.625C93.7498 79.3493 92.3492 80.7499 90.6249 80.7499V80.7499Z" fill="black"/>
</svg>
