<svg width="25" height="25" viewBox="0 0 25 25" fill="none" xmlns="http://www.w3.org/2000/svg">
<g clip-path="url(#clip0)">
<path d="M12.4896 0C9.80521 0 8.88438 1.9125 7.76042 4.24375C1.0625 17.5958 1.0625 18.3312 1.0625 19.6667C1.0625 21.2406 1.73229 22.724 2.89896 23.7354C4.44271 25.074 6.56042 25.126 7.15729 24.8771L7.15938 24.8865C9.27292 24.6323 11.0938 23.0615 12.5 21.4885C18.2073 27.8719 23.9375 24.3156 23.9375 19.6667C23.9375 18.3312 23.9375 17.5958 17.2427 4.24896C16.1104 1.90312 15.2031 0 12.4896 0V0ZM12.5 19.0812C10.7948 16.824 9.89583 14.8802 9.89583 13.4479C9.89583 11.5271 11.2042 10.6667 12.5 10.6667C13.7958 10.6667 15.1042 11.5271 15.1042 13.4479C15.1042 14.8812 14.2052 16.824 12.5 19.0812ZM22.375 19.6667C22.375 22.9385 18.3719 25.7854 13.5354 20.3C15.6135 17.6167 16.6667 15.3115 16.6667 13.4479C16.6667 10.5958 14.5708 9.10417 12.5 9.10417C10.4292 9.10417 8.33333 10.5958 8.33333 13.4479C8.33333 15.3115 9.3875 17.6167 11.4646 20.3C6.44063 25.9979 2.625 22.7385 2.625 19.6667C2.625 17.5875 6.04688 11.4865 9.325 4.59583C10.2865 2.60313 10.8646 1.5625 12.5104 1.5625C14.4125 1.5625 14.9146 3.10521 15.8396 4.93542C15.8406 4.93854 15.8417 4.94062 15.8438 4.94375C22.375 17.9656 22.375 18.6792 22.375 19.6667Z" fill="#FF385C"/>
</g>
<defs>
<clipPath id="clip0">
<rect width="25" height="25" fill="white"/>
</clipPath>
</defs>
</svg>
