<svg width="50" height="50" viewBox="0 0 50 50" fill="none" xmlns="http://www.w3.org/2000/svg">
<g clip-path="url(#clip0)">
<path d="M25.4838 6C21.2962 6 19.8597 8.9835 18.1063 12.6202C7.65753 33.4495 7.65753 34.5967 7.65753 36.68C7.65753 39.1354 8.70241 41.4494 10.5224 43.0272C12.9307 45.1154 16.2343 45.1966 17.1654 44.8082L17.1687 44.8229C20.4658 44.4264 23.3063 41.9759 25.5 39.5221C34.4034 49.4801 43.3425 43.9324 43.3425 36.68C43.3425 34.5967 43.3425 33.4495 32.8987 12.6284C31.1323 8.96887 29.7169 6 25.4838 6V6ZM25.5 35.7667C22.8399 32.2454 21.4375 29.2131 21.4375 26.9787C21.4375 23.9822 23.4785 22.64 25.5 22.64C27.5215 22.64 29.5625 23.9822 29.5625 26.9787C29.5625 29.2147 28.1602 32.2454 25.5 35.7667ZM40.905 36.68C40.905 41.7841 34.6602 46.2252 27.1153 37.668C30.3572 33.482 32 29.8859 32 26.9787C32 22.5295 28.7305 20.2025 25.5 20.2025C22.2695 20.2025 19 22.5295 19 26.9787C19 29.8859 20.6445 33.482 23.8848 37.668C16.0474 46.5567 10.095 41.4721 10.095 36.68C10.095 33.4365 15.4332 23.9189 20.547 13.1695C22.0469 10.0609 22.9488 8.4375 25.5163 8.4375C28.4835 8.4375 29.2668 10.8441 30.7098 13.6992C30.7114 13.7041 30.713 13.7074 30.7163 13.7122C40.905 34.0264 40.905 35.1395 40.905 36.68V36.68Z" fill="black"/>
</g>
<defs>
<clipPath id="clip0">
<rect x="6" y="6" width="39" height="39" fill="white"/>
</clipPath>
</defs>
</svg>
