<svg width="21" height="25" viewBox="0 0 21 25" fill="none" xmlns="http://www.w3.org/2000/svg">
<path d="M12.72 11.9267C12.72 12.0579 12.7156 12.1869 12.7047 12.318C12.7004 12.3782 12.6939 12.4363 12.6874 12.4965C12.6852 12.5159 12.6765 12.5847 12.683 12.5288C12.6787 12.5632 12.6721 12.5976 12.6678 12.6298C12.6265 12.8792 12.5678 13.1243 12.4896 13.3651C12.4527 13.4791 12.4092 13.5909 12.3658 13.7027C12.3636 13.707 12.3462 13.75 12.3592 13.7177C12.3745 13.6812 12.3506 13.7371 12.3462 13.7457C12.3353 13.7715 12.3223 13.7973 12.3114 13.8231C12.2854 13.879 12.2593 13.9349 12.231 13.9908C12.1202 14.2058 11.9964 14.4122 11.8551 14.6079C11.8204 14.6573 11.7834 14.7068 11.7465 14.7562C11.7791 14.7132 11.74 14.7648 11.7269 14.7799C11.7052 14.8057 11.6856 14.8315 11.6639 14.8573C11.5857 14.9519 11.5031 15.0422 11.4162 15.1303C11.3336 15.2142 11.2489 15.2959 11.1598 15.3754C11.1142 15.4163 11.0664 15.4571 11.0207 15.4958C10.999 15.513 10.9773 15.5324 10.9555 15.5496C10.9403 15.5603 10.873 15.6119 10.9208 15.5775C10.7274 15.7237 10.5231 15.8549 10.3123 15.971C10.2037 16.0312 10.0929 16.0871 9.97989 16.1387C9.95381 16.1516 9.92774 16.1624 9.90166 16.1731C9.88862 16.1796 9.87559 16.1839 9.86255 16.1903C9.86689 16.1882 9.90818 16.171 9.87341 16.186C9.8104 16.2118 9.74738 16.2355 9.68437 16.2591C9.44969 16.343 9.21067 16.4096 8.9673 16.4591C8.90863 16.4698 8.84996 16.4806 8.79129 16.4913C8.75653 16.4978 8.72176 16.5021 8.68917 16.5064C8.65005 16.5128 8.69569 16.5064 8.7022 16.5042C8.68265 16.5064 8.66309 16.5085 8.64354 16.5107C8.51751 16.5257 8.39365 16.5343 8.26762 16.5386C8.00469 16.5494 7.74177 16.5386 7.47884 16.5085C7.46363 16.5064 7.44842 16.5042 7.43321 16.5021C7.43756 16.5021 7.48536 16.5085 7.44625 16.5042C7.41583 16.4999 7.38758 16.4956 7.35716 16.4913C7.29415 16.4806 7.23113 16.4698 7.16812 16.4569C7.04426 16.4311 6.91823 16.4032 6.79654 16.3688C6.67486 16.3344 6.55535 16.2957 6.43584 16.2527C6.38151 16.2333 6.32719 16.2118 6.27287 16.1903C6.2142 16.1667 6.30112 16.2032 6.24462 16.1774C6.2142 16.1645 6.18378 16.1495 6.15336 16.1366C5.92737 16.0333 5.71008 15.9151 5.50148 15.7796C5.40152 15.7151 5.30591 15.6463 5.21031 15.5754C5.26028 15.6141 5.18858 15.5582 5.17554 15.5474C5.15381 15.5302 5.13208 15.5109 5.11035 15.4937C5.06255 15.455 5.01691 15.4141 4.97128 15.3733C4.78876 15.2099 4.6171 15.0336 4.45847 14.8465C4.44109 14.825 4.42153 14.8035 4.40415 14.782C4.39111 14.767 4.352 14.7154 4.38459 14.7584C4.34765 14.7089 4.31071 14.6595 4.27595 14.61C4.20424 14.509 4.13688 14.4079 4.07386 14.3026C4.01085 14.1972 3.95001 14.0897 3.89351 13.98C3.86743 13.9284 3.84353 13.8768 3.81963 13.8252C3.80659 13.7994 3.79573 13.7736 3.78486 13.7478C3.77834 13.7349 3.774 13.722 3.76748 13.7091C3.78052 13.7392 3.77834 13.7328 3.76748 13.707C3.67404 13.4748 3.59582 13.2383 3.53715 12.9932C3.5089 12.8749 3.485 12.7545 3.46544 12.6341C3.4611 12.604 3.45675 12.5761 3.4524 12.546C3.44589 12.5073 3.4524 12.5524 3.45458 12.5589C3.4524 12.5395 3.45023 12.5202 3.44806 12.5008C3.44154 12.4363 3.43502 12.3718 3.4285 12.3073C3.40895 12.0514 3.40895 11.7956 3.43068 11.5397C3.43502 11.4752 3.44154 11.4107 3.45023 11.3484C3.45241 11.3333 3.45458 11.3183 3.45675 11.3032C3.45675 11.3075 3.45023 11.3548 3.45458 11.3161C3.45892 11.2817 3.46544 11.2473 3.46979 11.2151C3.49152 11.0904 3.51542 10.9657 3.54584 10.8431C3.60451 10.6044 3.68274 10.3722 3.77617 10.1443C3.78921 10.1099 3.774 10.1508 3.77183 10.1551C3.77834 10.1422 3.78269 10.1293 3.78921 10.1164C3.80007 10.0906 3.81311 10.0648 3.82398 10.039C3.85222 9.97878 3.88047 9.91858 3.91089 9.86053C3.96522 9.75517 4.02389 9.65197 4.08473 9.55092C4.14774 9.44557 4.21728 9.34451 4.28898 9.24346C4.32158 9.19831 4.35634 9.15101 4.39111 9.10801C4.35852 9.15101 4.39763 9.09941 4.41067 9.08436C4.43457 9.05426 4.45847 9.0263 4.48237 8.9962C4.63665 8.81345 4.80614 8.64144 4.98649 8.48019C5.02995 8.44364 5.07124 8.40494 5.11687 8.37054C5.1386 8.35334 5.16033 8.33399 5.18206 8.31679C5.19292 8.30818 5.20379 8.29958 5.21465 8.29098C5.28636 8.23508 5.1864 8.31248 5.22769 8.28023C5.3233 8.20928 5.41891 8.14048 5.51886 8.07813C5.72746 7.94482 5.94476 7.82442 6.17074 7.72337C6.19682 7.71047 6.22289 7.69972 6.24897 7.68897C6.30546 7.66317 6.21854 7.69972 6.27721 7.67607C6.33588 7.65242 6.39455 7.63092 6.45322 7.60942C6.57273 7.56641 6.69224 7.52771 6.81393 7.49546C6.93561 7.46106 7.06164 7.43311 7.1855 7.40731C7.24417 7.39656 7.30284 7.38581 7.36151 7.37721C7.39193 7.37291 7.42018 7.36861 7.4506 7.36431C7.48971 7.35786 7.44408 7.36431 7.43756 7.36646C7.45712 7.36431 7.47667 7.36216 7.49623 7.36001C7.75698 7.32991 8.02208 7.32131 8.285 7.33206C8.41103 7.33636 8.53706 7.34711 8.66092 7.36216C8.67613 7.36431 8.69134 7.36646 8.70655 7.36861C8.7022 7.36861 8.6544 7.36216 8.69351 7.36646C8.72828 7.37076 8.76305 7.37721 8.79564 7.38151C8.85866 7.39226 8.92167 7.40301 8.98469 7.41591C9.22805 7.46536 9.46925 7.53201 9.70175 7.61802C9.76042 7.63952 9.81909 7.66317 9.87776 7.68467C9.91253 7.69757 9.87124 7.68252 9.8669 7.68037C9.87993 7.68682 9.89297 7.69112 9.90601 7.69757C9.93643 7.71047 9.96685 7.72552 9.99727 7.73842C10.1103 7.79002 10.2211 7.84592 10.3297 7.90612C10.434 7.96418 10.5362 8.02438 10.6361 8.08888C10.6883 8.12328 10.7382 8.15768 10.7904 8.19208C10.8143 8.20928 10.836 8.22433 10.8599 8.24153C10.8708 8.25013 10.8838 8.25873 10.8947 8.26733C10.899 8.27163 10.9468 8.30603 10.9186 8.28453C10.8947 8.26733 10.9534 8.31249 10.9642 8.32109C10.986 8.33829 11.0077 8.35764 11.0294 8.37484C11.0794 8.41784 11.1315 8.46084 11.1793 8.50384C11.2663 8.58339 11.3532 8.66509 11.4336 8.74895C11.5183 8.8371 11.6009 8.9274 11.6791 9.022C11.6965 9.0435 11.7161 9.06501 11.7334 9.08651C11.7465 9.10156 11.7856 9.15316 11.753 9.11016C11.7943 9.16176 11.8334 9.21551 11.8703 9.26926C12.0094 9.46707 12.1354 9.67347 12.2441 9.88848C12.2702 9.94008 12.2941 9.99168 12.318 10.0433C12.331 10.0734 12.3462 10.1035 12.3592 10.1336C12.3614 10.1379 12.3788 10.1809 12.3658 10.1486C12.3527 10.1164 12.3745 10.1701 12.3766 10.1766C12.4223 10.2884 12.4635 10.4002 12.5005 10.5141C12.5787 10.755 12.6374 11.0001 12.6765 11.2495C12.6808 11.2796 12.6852 11.3075 12.6895 11.3376C12.6808 11.2817 12.6895 11.3484 12.6939 11.3699C12.7004 11.4279 12.7069 11.4881 12.7113 11.5483C12.7156 11.6666 12.72 11.7977 12.72 11.9267C12.72 12.0944 12.8699 12.2578 13.0459 12.2492C13.2219 12.2406 13.3718 12.1073 13.3718 11.9267C13.3675 10.8496 13.035 9.77668 12.4005 8.89945C11.7682 8.02438 10.8882 7.35571 9.8669 6.9859C8.83475 6.61179 7.67441 6.57524 6.61836 6.8698C5.59709 7.15575 4.65838 7.75347 3.9826 8.56619C3.27857 9.41117 2.85485 10.4432 2.76793 11.5354C2.68319 12.6105 2.94828 13.7113 3.51107 14.6337C4.05865 15.5302 4.88002 16.2656 5.8448 16.6977C6.87477 17.16 8.02425 17.2911 9.13462 17.0697C10.1798 16.8611 11.1598 16.3215 11.8964 15.5582C12.633 14.7971 13.1393 13.8123 13.3023 12.7696C13.3458 12.49 13.3718 12.2084 13.3718 11.9246C13.3718 11.7569 13.2219 11.5935 13.0459 11.6021C12.8699 11.6128 12.7221 11.7461 12.72 11.9267Z" fill="#5F6D83"/>
<path d="M12.7175 11.9248C12.7175 11.9506 12.7154 11.9786 12.7132 12.0044C12.711 12.0538 12.7154 11.9678 12.7197 11.9657C12.7132 11.9721 12.7154 11.9958 12.7132 12.0044C12.7067 12.028 12.7023 12.0517 12.6958 12.0732C12.6915 12.0861 12.6871 12.099 12.6828 12.1119C12.6589 12.185 12.6763 12.1011 12.6893 12.1033C12.6871 12.1033 12.6241 12.2258 12.6176 12.2387C12.6024 12.2645 12.5828 12.2882 12.5676 12.3118C12.5524 12.3355 12.5611 12.3441 12.585 12.2903C12.5785 12.3032 12.5589 12.3226 12.5502 12.3333C12.5089 12.3806 12.4655 12.4236 12.422 12.4666C12.4003 12.4881 12.3764 12.5075 12.3525 12.529C12.3395 12.5397 12.3242 12.5505 12.3112 12.5634C12.2547 12.6107 12.3329 12.5505 12.309 12.5655C12.183 12.6515 12.057 12.7375 11.9223 12.8106C11.8549 12.8472 11.7854 12.8816 11.7137 12.916C11.6724 12.9353 11.6311 12.9525 11.5898 12.9719C11.5724 12.9783 11.555 12.9869 11.5398 12.9934C11.605 12.9654 11.529 12.9977 11.5137 13.0041C11.329 13.0772 11.14 13.1417 10.951 13.1976C10.5359 13.3202 10.1079 13.4062 9.67979 13.4686C9.49943 13.4944 9.23216 13.5223 9.00835 13.5395C8.75412 13.5589 8.49988 13.5696 8.24565 13.5739C7.74588 13.5804 7.24393 13.5589 6.74633 13.5051C6.34434 13.4621 5.88585 13.3826 5.45561 13.2729C5.26004 13.2234 5.06448 13.1654 4.87326 13.0987C4.78634 13.0686 4.69943 13.0364 4.61468 13.002C4.5973 12.9955 4.57992 12.9869 4.56253 12.9805C4.62337 13.0063 4.56688 12.9826 4.55167 12.9762C4.50604 12.9568 4.4604 12.9353 4.41695 12.916C4.27353 12.8493 4.13229 12.7741 3.99974 12.6881C3.93673 12.6472 3.87371 12.6042 3.81287 12.5591C3.86937 12.5999 3.82156 12.5634 3.79549 12.5419C3.76289 12.5161 3.73247 12.4881 3.70205 12.4602C3.65859 12.4193 3.61948 12.3785 3.58037 12.3333C3.5695 12.3226 3.56081 12.3097 3.54995 12.2968C3.5217 12.2645 3.59558 12.3656 3.56081 12.3118C3.5456 12.286 3.52604 12.2645 3.51083 12.2387C3.49562 12.2151 3.48041 12.1893 3.46737 12.1635C3.45868 12.1484 3.42609 12.071 3.44782 12.1269C3.47172 12.185 3.4413 12.1033 3.43478 12.0882C3.42609 12.0603 3.41957 12.0323 3.41305 12.0022C3.39132 11.9141 3.41305 12.0474 3.41088 12.0022C3.41088 11.9764 3.40653 11.9506 3.40653 11.9227C3.40653 11.899 3.40871 11.8754 3.40871 11.8517C3.41088 11.8023 3.42826 11.8539 3.40436 11.8818C3.40871 11.8754 3.41088 11.8431 3.41305 11.8345C3.4174 11.8173 3.46086 11.7034 3.45651 11.6969C3.46737 11.7098 3.4174 11.7743 3.44999 11.7141C3.45434 11.7034 3.46086 11.6948 3.4652 11.684C3.48041 11.6561 3.49562 11.6281 3.51301 11.6023C3.52822 11.5808 3.54343 11.5593 3.55864 11.5356C3.58689 11.4905 3.54125 11.555 3.54125 11.5571C3.54777 11.5421 3.56733 11.527 3.57602 11.5141C3.61948 11.4647 3.66511 11.4174 3.71292 11.3744C3.73464 11.3529 3.75855 11.3335 3.78245 11.312C3.79983 11.2991 3.8824 11.2346 3.80852 11.2884C3.86937 11.2432 3.93021 11.2002 3.9954 11.1594C4.13664 11.0691 4.2844 10.9917 4.4365 10.9207C4.4691 10.9057 4.50169 10.8906 4.53428 10.8756C4.54298 10.8713 4.62772 10.8369 4.55819 10.8648C4.57557 10.8584 4.59295 10.8498 4.61034 10.8433C4.69943 10.8068 4.79069 10.7745 4.88195 10.7423C5.28177 10.6047 5.69463 10.5058 6.11183 10.4327C7.03316 10.2693 8.04792 10.2349 9.02139 10.3101C9.48857 10.3467 9.8797 10.3983 10.3469 10.4993C10.7424 10.5832 11.1335 10.695 11.5094 10.8433C11.5072 10.8433 11.5941 10.8777 11.5485 10.8584C11.5029 10.839 11.5876 10.8756 11.5854 10.8756C11.6224 10.8928 11.6593 10.9078 11.6963 10.925C11.7788 10.9637 11.8592 11.0046 11.9375 11.0476C12.0678 11.1185 12.1917 11.2002 12.3112 11.2862C12.2352 11.2303 12.3286 11.3013 12.346 11.3163C12.3677 11.3335 12.3873 11.3529 12.4068 11.3701C12.4568 11.4174 12.5046 11.4647 12.5502 11.5163C12.5524 11.5206 12.5807 11.5507 12.5807 11.5528C12.5785 11.555 12.5328 11.484 12.5633 11.5313C12.5807 11.555 12.598 11.5786 12.6132 11.6045C12.6263 11.626 12.6393 11.6496 12.6524 11.6711C12.6589 11.684 12.6654 11.6969 12.6719 11.7077C12.7023 11.7636 12.6545 11.7034 12.6654 11.6905C12.6611 11.6948 12.7067 11.8152 12.7089 11.8281C12.711 11.841 12.7132 11.8539 12.7154 11.8668C12.7284 11.9055 12.7089 11.7765 12.711 11.8367C12.7154 11.8732 12.7175 11.899 12.7175 11.9248C12.7197 12.0925 12.8653 12.2559 13.0435 12.2473C13.2195 12.2387 13.3716 12.1054 13.3694 11.9248C13.3629 11.2841 12.8349 10.8154 12.3112 10.5208C11.5681 10.1016 10.7054 9.8887 9.86449 9.76615C8.80627 9.61349 7.72849 9.58984 6.66593 9.7124C5.75547 9.81775 4.83632 10.0091 4.00843 10.4133C3.4891 10.6692 2.88503 11.0884 2.77421 11.6969C2.6547 12.3398 3.08059 12.8493 3.58471 13.1933C4.26049 13.6513 5.10359 13.8835 5.90106 14.0276C6.94407 14.2168 8.01749 14.2619 9.07571 14.1759C10.0188 14.0985 10.964 13.9265 11.8375 13.5589C12.4264 13.3116 13.0652 12.9332 13.2999 12.3075C13.3455 12.1871 13.3673 12.0538 13.3673 11.9248C13.3694 11.7571 13.2151 11.5937 13.0413 11.6023C12.8653 11.6109 12.7197 11.7442 12.7175 11.9248Z" fill="#5F6D83"/>
<path d="M8.06392 7.31911C8.09 7.31911 8.11824 7.32126 8.14432 7.32341C8.1943 7.32556 8.10738 7.32126 8.10521 7.31696C8.11172 7.32341 8.13563 7.32126 8.14432 7.32341C8.16822 7.32986 8.19212 7.33416 8.21385 7.34061C8.22689 7.34491 8.23993 7.34921 8.25297 7.35351C8.32684 7.37717 8.2421 7.35996 8.24427 7.34706C8.24427 7.34921 8.36813 7.41157 8.38117 7.41802C8.40724 7.43307 8.43115 7.45242 8.45505 7.46747C8.47895 7.48252 8.48764 7.47392 8.43332 7.45027C8.44636 7.45672 8.46591 7.47607 8.47678 7.48467C8.52458 7.52552 8.56804 7.56852 8.6115 7.61152C8.63323 7.63302 8.65278 7.65667 8.67451 7.68032C8.68538 7.69322 8.69624 7.70827 8.70928 7.72117C8.75708 7.77708 8.69624 7.69967 8.71145 7.72332C8.79837 7.84803 8.88529 7.97273 8.95917 8.10604C8.99611 8.17269 9.03087 8.24149 9.06564 8.31244C9.0852 8.35329 9.10258 8.39414 9.12214 8.43499C9.12866 8.4522 9.13735 8.4694 9.14387 8.48445C9.11562 8.41994 9.14821 8.4952 9.15473 8.51025C9.22861 8.693 9.2938 8.88006 9.35029 9.06711C9.47415 9.47777 9.56107 9.90134 9.62408 10.3249C9.65016 10.5034 9.67841 10.7678 9.69579 10.9893C9.71535 11.2408 9.72621 11.4924 9.73056 11.7439C9.73708 12.2385 9.71535 12.7351 9.66102 13.2275C9.61756 13.6252 9.53717 14.0789 9.42635 14.5046C9.37637 14.6981 9.3177 14.8916 9.25034 15.0808C9.21992 15.1668 9.18732 15.2528 9.15256 15.3367C9.14604 15.3539 9.13735 15.3711 9.13083 15.3883C9.1569 15.3281 9.133 15.384 9.12648 15.399C9.10693 15.4442 9.0852 15.4893 9.06564 15.5323C8.99828 15.6742 8.92223 15.814 8.83531 15.9452C8.79402 16.0075 8.75057 16.0699 8.70493 16.1301C8.74622 16.0742 8.70928 16.1215 8.68755 16.1473C8.66148 16.1795 8.63323 16.2096 8.60498 16.2397C8.56369 16.2827 8.52241 16.3214 8.47678 16.3601C8.46591 16.3709 8.45287 16.3795 8.43984 16.3902C8.40724 16.4182 8.50937 16.3451 8.45505 16.3795C8.42897 16.3945 8.40724 16.4139 8.38117 16.4289C8.35726 16.444 8.33119 16.459 8.30511 16.4719C8.2899 16.4805 8.21168 16.5128 8.26818 16.4913C8.32684 16.4676 8.24427 16.4977 8.22906 16.5042C8.20081 16.5128 8.17257 16.5192 8.14214 16.5257C8.05305 16.5472 8.18778 16.5257 8.14214 16.5278C8.11607 16.5278 8.08999 16.5321 8.06175 16.5321C8.03784 16.5321 8.01394 16.53 7.99004 16.53C7.94006 16.5278 7.99221 16.5106 8.02046 16.5343C8.01394 16.53 7.98135 16.5278 7.97266 16.5257C7.95527 16.5214 7.84011 16.4784 7.83359 16.4827C7.84663 16.4719 7.91182 16.5214 7.85097 16.4891C7.84011 16.4848 7.83142 16.4784 7.82055 16.4741C7.7923 16.459 7.76406 16.444 7.73798 16.4268C7.71625 16.4117 7.69452 16.3967 7.67062 16.3816C7.62499 16.3537 7.69018 16.3988 7.69235 16.3988C7.67714 16.3924 7.66193 16.373 7.64889 16.3644C7.59891 16.3214 7.55111 16.2763 7.50765 16.229C7.48592 16.2075 7.46636 16.1838 7.44463 16.1602C7.4316 16.143 7.36641 16.0613 7.42073 16.1344C7.3751 16.0742 7.33164 16.014 7.29036 15.9495C7.19909 15.8097 7.12087 15.6635 7.04916 15.513C7.03395 15.4807 7.01874 15.4485 7.00353 15.4162C6.99918 15.4076 6.96442 15.3238 6.99267 15.3926C6.98615 15.3754 6.97746 15.3582 6.97094 15.341C6.934 15.2528 6.9014 15.1625 6.86881 15.0722C6.72974 14.6766 6.62979 14.2681 6.55591 13.8553C6.39076 12.9437 6.356 11.9396 6.43205 10.9764C6.46899 10.5141 6.52114 10.1271 6.62327 9.66483C6.70801 9.27352 6.821 8.88651 6.97094 8.51455C6.97094 8.5167 7.0057 8.43069 6.98615 8.47585C6.96659 8.521 7.00353 8.43715 7.00353 8.4393C7.02091 8.40274 7.03612 8.36619 7.05351 8.32964C7.09262 8.24794 7.13391 8.16839 7.17736 8.09098C7.24907 7.96198 7.33164 7.83943 7.41856 7.72117C7.36206 7.79643 7.43377 7.70397 7.44898 7.68677C7.46636 7.66527 7.48592 7.64592 7.5033 7.62657C7.55111 7.57712 7.59891 7.52982 7.65106 7.48467C7.65541 7.48252 7.68583 7.45457 7.688 7.45457C7.69018 7.45672 7.61847 7.50187 7.66627 7.47177C7.69018 7.45457 7.71408 7.43737 7.74015 7.42232C7.76188 7.40942 7.78579 7.39652 7.80751 7.38362C7.82055 7.37716 7.83359 7.37071 7.84445 7.36426C7.90095 7.33416 7.84011 7.38146 7.82707 7.37071C7.83142 7.37501 7.9531 7.32986 7.96614 7.32771C7.97918 7.32556 7.99221 7.32341 8.00525 7.32126C8.04436 7.30836 7.91399 7.32771 7.97483 7.32556C8.0096 7.32341 8.03784 7.31911 8.06392 7.31911C8.23341 7.31696 8.39855 7.17291 8.38986 6.9966C8.38117 6.82245 8.24645 6.67194 8.06392 6.6741C7.41639 6.68055 6.94269 7.20301 6.645 7.72117C6.22128 8.4565 6.00616 9.31007 5.8823 10.1421C5.72802 11.1892 5.70412 12.2557 5.82797 13.307C5.93445 14.2079 6.12784 15.1174 6.53635 15.9366C6.79493 16.4504 7.21865 17.0481 7.83359 17.1578C8.4833 17.276 8.99828 16.8546 9.34595 16.3558C9.80878 15.6872 10.0435 14.8529 10.189 14.0639C10.3803 13.0318 10.4259 11.9697 10.339 10.9226C10.2608 9.98949 10.0869 9.05421 9.71535 8.18989C9.46546 7.60722 9.08302 6.9751 8.4507 6.7429C8.32902 6.69775 8.1943 6.67625 8.06392 6.67625C7.89443 6.6741 7.72929 6.82675 7.73798 6.99875C7.74667 7.17291 7.88139 7.31696 8.06392 7.31911Z" fill="#5F6D83"/>
<path d="M15.4713 4.37501C15.4713 4.50402 15.4713 4.63517 15.4713 4.76418C15.4713 5.12108 15.4713 5.478 15.4713 5.83491C15.4713 6.36167 15.4713 6.88843 15.4713 7.4152C15.4713 8.06022 15.4713 8.70308 15.4713 9.3481C15.4713 10.0598 15.4713 10.7714 15.4713 11.4831C15.4713 12.2012 15.4713 12.9215 15.4713 13.6396C15.4713 14.3147 15.4713 14.992 15.4713 15.6671C15.4713 16.2498 15.4713 16.8325 15.4713 17.4151C15.4713 17.8451 15.4713 18.2751 15.4713 18.703C15.4713 18.9288 15.4713 19.1567 15.4713 19.3824C15.4713 19.4018 15.4713 19.419 15.4713 19.4383C15.4713 19.4405 15.4713 19.4448 15.4713 19.4469C15.4713 19.4813 15.4691 19.5157 15.4669 19.5523C15.4626 19.591 15.4669 19.5437 15.4691 19.5394C15.4669 19.5544 15.4648 19.5673 15.4604 19.5824C15.4539 19.6146 15.4452 19.6469 15.4343 19.6791C15.4278 19.6985 15.4039 19.7608 15.4256 19.7092C15.4148 19.735 15.4017 19.7608 15.3887 19.7845C15.3735 19.8124 15.3561 19.8404 15.3366 19.8683C15.33 19.8812 15.3213 19.892 15.3127 19.9027C15.33 19.8769 15.33 19.8834 15.3105 19.9027C15.2714 19.9436 15.2323 19.9823 15.191 20.021C15.1475 20.0597 15.217 20.0081 15.1671 20.0382C15.1388 20.0554 15.1106 20.0747 15.0823 20.0898C15.0584 20.1027 15.0323 20.1156 15.0063 20.1285C14.9715 20.1436 15.0128 20.1242 15.0171 20.1242C15.0041 20.1285 14.9911 20.135 14.9759 20.1393C14.9476 20.1479 14.9194 20.1565 14.8911 20.1629C14.8715 20.1672 14.7846 20.1801 14.8476 20.1737C14.8064 20.178 14.7651 20.1801 14.7238 20.1801C14.55 20.1823 14.3761 20.1801 14.2023 20.1801C13.7851 20.1801 13.3657 20.1801 12.9485 20.1801C12.3575 20.1801 11.7643 20.1801 11.1732 20.1801C10.4735 20.1801 9.77602 20.1801 9.07634 20.1801C8.34841 20.1801 7.62047 20.1801 6.89254 20.1801C6.20155 20.1801 5.51056 20.1801 4.81956 20.1801C4.23504 20.1801 3.64835 20.1801 3.06383 20.1801C2.65967 20.1801 2.25768 20.1801 1.85351 20.1801C1.69923 20.1801 1.54495 20.1823 1.39068 20.1801C1.38199 20.1801 1.36895 20.1801 1.36026 20.1801C1.3407 20.1801 1.32114 20.178 1.29941 20.1758C1.29507 20.1758 1.24509 20.1694 1.2842 20.1737C1.3168 20.178 1.23857 20.1629 1.22553 20.1608C1.19294 20.1522 1.16035 20.1414 1.12775 20.1328C1.06908 20.1177 1.15165 20.15 1.0995 20.1221C1.07343 20.1091 1.04735 20.0962 1.02345 20.0833C0.999549 20.0683 0.975647 20.0532 0.951744 20.0382C0.947399 20.036 0.910459 20.0081 0.938707 20.0296C0.966955 20.0511 0.921323 20.0145 0.916977 20.0102C0.875692 19.9715 0.836579 19.9328 0.799639 19.8898C0.775737 19.8619 0.803985 19.8963 0.806158 19.9006C0.797466 19.8898 0.788774 19.8769 0.782256 19.8662C0.764872 19.8382 0.747489 19.8103 0.730105 19.7823C0.717068 19.7565 0.70403 19.7329 0.693165 19.7071C0.714895 19.7587 0.690993 19.6963 0.684474 19.677C0.675782 19.649 0.66709 19.6211 0.662744 19.5931C0.658399 19.5738 0.654053 19.5544 0.65188 19.5351C0.658399 19.5673 0.654053 19.563 0.65188 19.5329C0.647534 19.4727 0.647534 19.4147 0.647534 19.3545C0.647534 19.1115 0.647534 18.8707 0.647534 18.6278C0.647534 18.187 0.647534 17.7441 0.647534 17.3033C0.647534 16.7121 0.647534 16.1229 0.647534 15.5317C0.647534 14.8523 0.647534 14.1707 0.647534 13.4913C0.647534 12.771 0.647534 12.0507 0.647534 11.3326C0.647534 10.6231 0.647534 9.91357 0.647534 9.2062C0.647534 8.56763 0.647534 7.92906 0.647534 7.29265C0.647534 6.77448 0.647534 6.25847 0.647534 5.7403C0.647534 5.39629 0.647534 5.05013 0.647534 4.70612C0.647534 4.61797 0.647534 4.52767 0.647534 4.43952C0.647534 4.41802 0.647534 4.39651 0.647534 4.37716C0.647534 4.30406 0.649707 4.28041 0.662744 4.22021C0.671436 4.18581 0.682301 4.15356 0.690993 4.11916C0.690993 4.12131 0.710549 4.06756 0.699684 4.09336C0.68882 4.11916 0.712722 4.06756 0.710549 4.06971C0.725759 4.03961 0.743143 4.0095 0.760526 3.98155C0.769218 3.9665 0.780083 3.9536 0.788775 3.93855C0.819196 3.89125 0.758354 3.97295 0.795293 3.92995C0.838752 3.87835 0.886556 3.8289 0.94088 3.7859C0.971301 3.76225 0.949571 3.7816 0.943053 3.7859C0.95609 3.77515 0.971301 3.76655 0.986511 3.75795C1.02128 3.73645 1.05605 3.7171 1.09299 3.6999C1.05605 3.7171 1.15817 3.67625 1.17121 3.67195C1.21032 3.66119 1.24944 3.65044 1.28855 3.64399C1.30811 3.64184 1.35808 3.63969 1.40371 3.63969C1.40589 3.63969 1.41023 3.63969 1.41241 3.63969C1.47325 3.63969 1.53192 3.63969 1.59276 3.63969C1.91218 3.63969 2.23377 3.63969 2.5532 3.63969C3.07687 3.63969 3.60272 3.63969 4.1264 3.63969C4.7848 3.63969 5.4432 3.63969 6.10159 3.63969C6.82735 3.63969 7.55311 3.63969 8.28104 3.63969C8.99594 3.63969 9.71301 3.63969 10.4279 3.63969C11.0667 3.63969 11.7034 3.63969 12.3423 3.63969C12.8333 3.63969 13.3222 3.63969 13.8133 3.63969C14.0849 3.63969 14.3587 3.63969 14.6304 3.63969C14.6912 3.63969 14.7542 3.63969 14.8151 3.64399C14.8781 3.64829 14.7846 3.63539 14.8455 3.64829C14.8737 3.65474 14.902 3.66119 14.9302 3.66764C14.9585 3.67624 14.9845 3.68485 15.0128 3.6956C14.9606 3.6784 15.0215 3.6999 15.0389 3.7085C15.0888 3.7343 15.1388 3.7644 15.1845 3.79665C15.141 3.7644 15.191 3.8031 15.2062 3.816C15.2279 3.83535 15.2475 3.8547 15.267 3.87405C15.2779 3.8848 15.3322 3.9493 15.3148 3.9278C15.2974 3.90415 15.3387 3.96435 15.3452 3.9751C15.3605 3.99875 15.3735 4.0224 15.3887 4.04821C15.3952 4.06111 15.4256 4.12776 15.4148 4.09981C15.4039 4.07186 15.4278 4.14281 15.4322 4.15571C15.4409 4.18366 15.4474 4.21161 15.4539 4.23956C15.4561 4.25461 15.4604 4.26751 15.4626 4.28256C15.4626 4.27826 15.4582 4.23096 15.4604 4.26966C15.4691 4.30621 15.4713 4.34061 15.4713 4.37501C15.4735 4.54272 15.619 4.70612 15.7972 4.69752C15.9711 4.68892 16.1253 4.55562 16.1232 4.37501C16.1145 3.77945 15.7342 3.25913 15.1649 3.06563C15.0041 3.00973 14.8324 2.99683 14.6608 2.99683C14.4044 2.99683 14.148 2.99683 13.8916 2.99683C13.4048 2.99683 12.9181 2.99683 12.4313 2.99683C11.7882 2.99683 11.145 2.99683 10.504 2.99683C9.78254 2.99683 9.06113 2.99683 8.33971 2.99683C7.60526 2.99683 6.87299 2.99683 6.13853 2.99683C5.46927 2.99683 4.80001 2.99683 4.13074 2.99683C3.60272 2.99683 3.07253 2.99683 2.5445 2.99683C2.22508 2.99683 1.90566 2.99683 1.58407 2.99683C1.52757 2.99683 1.4689 2.99683 1.41241 2.99683C0.875692 3.00113 0.354188 3.29783 0.132549 3.7945C0.00217307 4.08476 0 4.35781 0 4.66097C0 4.99423 0 5.32749 0 5.6629C0 6.17891 0 6.69493 0 7.21309C0 7.85381 0 8.49238 0 9.1331C0 9.84692 0 10.5629 0 11.2767C0 12.0077 0 12.7387 0 13.4676C0 14.1556 0 14.8437 0 15.5317C0 16.1272 0 16.725 0 17.3205C0 17.7656 0 18.2128 0 18.6579C0 18.8965 0 19.1352 0 19.3738C0 19.4878 0.00651873 19.5996 0.0260751 19.7157C0.121684 20.264 0.601902 20.7284 1.156 20.8101C1.36895 20.8423 1.58624 20.8316 1.80136 20.8316C2.19466 20.8316 2.59014 20.8316 2.98344 20.8316C3.56795 20.8316 4.1503 20.8316 4.73482 20.8316C5.43233 20.8316 6.12984 20.8316 6.82953 20.8316C7.56398 20.8316 8.3006 20.8316 9.03505 20.8316C9.74126 20.8316 10.4475 20.8316 11.1558 20.8316C11.7556 20.8316 12.3575 20.8316 12.9572 20.8316C13.3766 20.8316 13.7981 20.8316 14.2175 20.8316C14.387 20.8316 14.5565 20.8337 14.7281 20.8316C15.2388 20.8251 15.732 20.5456 15.9645 20.0898C16.0732 19.8769 16.1232 19.6469 16.1232 19.4082C16.1232 19.1975 16.1232 18.9847 16.1232 18.774C16.1232 18.3483 16.1232 17.9247 16.1232 17.499C16.1232 16.9163 16.1232 16.3358 16.1232 15.7531C16.1232 15.0737 16.1232 14.3921 16.1232 13.7127C16.1232 12.9839 16.1232 12.255 16.1232 11.5261C16.1232 10.8058 16.1232 10.0877 16.1232 9.36745C16.1232 8.71598 16.1232 8.06667 16.1232 7.4152C16.1232 6.88198 16.1232 6.34877 16.1232 5.81555C16.1232 5.45864 16.1232 5.10388 16.1232 4.74697C16.1232 4.62227 16.1232 4.49972 16.1232 4.37501C16.1232 4.20731 15.9732 4.04391 15.7972 4.05251C15.6212 4.06111 15.4713 4.19441 15.4713 4.37501Z" fill="#5F6D83"/>
<path d="M13.3827 0.849596C13.3827 1.57202 13.3827 2.29444 13.3827 3.01686C13.3827 3.11791 13.3827 3.22111 13.3827 3.32216C13.4913 3.21466 13.6 3.10716 13.7086 2.99966C13.2958 2.99966 12.8829 2.99966 12.4701 2.99966C11.4814 2.99966 10.4905 2.99966 9.50184 2.99966C8.31542 2.99966 7.13117 2.99966 5.94475 2.99966C4.91913 2.99966 3.89568 2.99966 2.87005 2.99966C2.38549 2.99966 1.9031 2.99536 1.41853 2.99966C1.36204 2.99966 1.30772 3.00396 1.25122 3.01041C1.27947 3.22111 1.30989 3.43182 1.33814 3.64467C1.75099 3.54362 2.16168 3.43612 2.57453 3.33077C3.55887 3.08136 4.54104 2.8298 5.52538 2.58039C6.69659 2.28154 7.86997 1.98483 9.04118 1.68597C10.0168 1.43871 10.9925 1.18931 11.9681 0.942049C12.2571 0.868947 12.5439 0.795845 12.8329 0.722743C12.909 0.703392 12.9872 0.684042 13.0633 0.664691C13.0807 0.660391 13.098 0.656091 13.1154 0.651791C13.1198 0.651791 13.1219 0.649641 13.1263 0.649641C13.1263 0.649641 13.1263 0.649641 13.1285 0.649641C13.211 0.62599 13.0763 0.643191 13.1611 0.645341C13.1784 0.645341 13.2545 0.660391 13.1893 0.643191C13.2176 0.649641 13.2436 0.656091 13.2719 0.664691C13.2545 0.658241 13.2241 0.63674 13.2697 0.666841C13.2784 0.673291 13.3479 0.727043 13.2958 0.679742C13.3088 0.692642 13.3219 0.705542 13.3371 0.718443C13.3914 0.767894 13.3219 0.675442 13.3545 0.742093C13.3631 0.759294 13.374 0.774344 13.3805 0.791545C13.3501 0.727043 13.3827 0.813045 13.3849 0.821646C13.4066 0.901198 13.3805 0.759294 13.3827 0.849596C13.387 1.0173 13.5283 1.18071 13.7086 1.17211C13.8803 1.1635 14.0389 1.0302 14.0346 0.849596C14.0194 0.288431 13.5022 -0.10288 12.9503 0.0239734C12.9177 0.0325736 12.8829 0.0411739 12.8503 0.0497741C12.6243 0.107826 12.3962 0.165877 12.1702 0.223929C11.2597 0.456135 10.3515 0.686192 9.441 0.918398C8.25893 1.21941 7.07685 1.52041 5.8926 1.82142C4.83873 2.09018 3.78703 2.35679 2.73316 2.62555C2.22035 2.7567 1.70319 2.8728 1.19472 3.01686C1.18603 3.01901 1.17517 3.02116 1.16647 3.02331C1.00785 3.06201 0.912241 3.22326 0.933971 3.37807C0.953527 3.52212 1.09259 3.67692 1.25339 3.65757C1.4055 3.64037 1.55978 3.64682 1.71188 3.64682C2.00523 3.64682 2.2964 3.64682 2.58975 3.64682C3.56974 3.64682 4.54973 3.64682 5.52972 3.64682C6.71397 3.64682 7.90039 3.64682 9.08464 3.64682C10.119 3.64682 11.1511 3.64682 12.1854 3.64682C12.6852 3.64682 13.1893 3.65972 13.6891 3.64682C13.6956 3.64682 13.7021 3.64682 13.7108 3.64682C13.8868 3.64682 14.0368 3.49847 14.0368 3.32431C14.0368 2.60189 14.0368 1.87947 14.0368 1.15705C14.0368 1.056 14.0368 0.952799 14.0368 0.851746C14.0368 0.684042 13.8868 0.520637 13.7108 0.529237C13.5326 0.533538 13.3827 0.668991 13.3827 0.849596Z" fill="#5F6D83"/>
<g clip-path="url(#clip0)">
<path d="M19.1389 16.7001L19.1389 16.7L19.1332 16.6944C18.2199 15.7955 17.111 15.3398 15.8333 15.3398C14.5554 15.3398 13.4515 15.7958 12.5501 16.6972C11.6373 17.61 11.1732 18.7197 11.1732 20C11.1732 21.2792 11.6366 22.383 12.5501 23.2832C13.4504 24.1967 14.5541 24.6602 15.8333 24.6602C17.1136 24.6602 18.2233 24.196 19.1361 23.2832C20.0375 22.3818 20.4935 21.2779 20.4935 20C20.4935 18.7223 20.0378 17.6134 19.1389 16.7001Z" fill="#5F6D83" stroke="white"/>
</g>
<defs>
<clipPath id="clip0">
<rect width="10" height="10" fill="white" transform="translate(20.8333 25) rotate(-180)"/>
</clipPath>
</defs>
</svg>
