<svg width="25" height="25" viewBox="0 0 25 25" fill="none" xmlns="http://www.w3.org/2000/svg">
<path d="M20.3016 2.83579H16.2012V2.14326C16.2013 0.961426 15.2398 0 14.058 0H10.9421C9.76029 0 8.79882 0.961426 8.79882 2.14326V2.83584H4.69843C3.26581 2.83584 2.10028 4.00137 2.10028 5.43398V6.92158C2.10028 7.19121 2.31893 7.40986 2.58856 7.40986H3.97513L5.21332 22.1123C5.27982 22.902 5.63768 23.6321 6.22108 24.1684C6.80443 24.7046 7.56205 25 8.35448 25H16.6456C17.4381 25 18.1957 24.7046 18.779 24.1684C19.3624 23.6321 19.7203 22.9019 19.7868 22.1123L21.0249 7.40986H22.4115C22.6811 7.40986 22.8998 7.19121 22.8998 6.92158V5.43398C22.8998 4.00132 21.7343 2.83579 20.3016 2.83579V2.83579ZM9.77538 2.14326C9.77538 1.49995 10.2988 0.976562 10.9421 0.976562H14.058C14.7013 0.976562 15.2247 1.49995 15.2247 2.14326V2.83584H9.77538V2.14326ZM21.9232 6.43325H14.6632C14.3935 6.43325 14.1749 6.6519 14.1749 6.92153C14.1749 7.19116 14.3935 7.40981 14.6632 7.40981H20.0449L18.8136 22.0304C18.7195 23.148 17.7672 24.0234 16.6456 24.0234H8.35448C7.2329 24.0234 6.2806 23.1479 6.18651 22.0304L4.95521 7.40981H10.3665C10.6361 7.40981 10.8548 7.19116 10.8548 6.92153C10.8548 6.6519 10.6361 6.43325 10.3665 6.43325H3.07684V5.43394C3.07684 4.53975 3.80424 3.81235 4.69843 3.81235H20.3017C21.1959 3.81235 21.9233 4.53975 21.9233 5.43394V6.43325H21.9232Z" fill="#273951"/>
<path d="M9.71499 11.2009C9.52427 11.0103 9.21519 11.0103 9.02441 11.2009C8.83374 11.3916 8.83374 11.7007 9.02441 11.8915L11.8096 14.6767L9.02441 17.4619C8.83374 17.6525 8.83374 17.9617 9.02441 18.1524C9.11978 18.2478 9.24473 18.2955 9.36968 18.2955C9.49463 18.2955 9.61958 18.2478 9.71494 18.1524L12.5002 15.3672L15.2854 18.1524C15.3808 18.2477 15.5057 18.2954 15.6307 18.2954C15.7556 18.2954 15.8806 18.2477 15.9759 18.1524C16.1666 17.9617 16.1666 17.6525 15.9759 17.4618L13.1907 14.6766L15.9759 11.8914C16.1666 11.7007 16.1666 11.3916 15.9759 11.2008C15.7852 11.0102 15.4761 11.0102 15.2854 11.2008L12.5002 13.9861L9.71499 11.2009Z" fill="#273951"/>
<path d="M12.098 7.10808C12.2003 7.35364 12.489 7.4739 12.7352 7.37224C12.9813 7.27063 13.1008 6.98015 12.9993 6.7345C12.8978 6.48855 12.6075 6.36863 12.3616 6.47034C12.115 6.57239 11.9972 6.86219 12.098 7.10808Z" fill="#273951"/>
</svg>
