<svg width="25" height="25" viewBox="0 0 25 25" fill="none" xmlns="http://www.w3.org/2000/svg">
<g clip-path="url(#clip0)">
<path d="M21.7773 1.95312H19.5312V0.78125C19.5312 0.349805 19.1815 0 18.75 0C18.3185 0 17.9688 0.349805 17.9688 0.78125V1.95312H7.03125V0.78125C7.03125 0.349805 6.68149 0 6.25 0C5.81851 0 5.46875 0.349805 5.46875 0.78125V1.95312H3.22266C1.44565 1.95312 0 3.39878 0 5.17578V21.7773C0 23.5543 1.44565 25 3.22266 25H21.7773C23.5543 25 25 23.5543 25 21.7773V5.17578C25 3.39878 23.5543 1.95312 21.7773 1.95312ZM3.22266 3.51562H5.46875V4.29688C5.46875 4.72832 5.81851 5.07812 6.25 5.07812C6.68149 5.07812 7.03125 4.72832 7.03125 4.29688V3.51562H17.9688V4.29688C17.9688 4.72832 18.3185 5.07812 18.75 5.07812C19.1815 5.07812 19.5312 4.72832 19.5312 4.29688V3.51562H21.7773C22.6928 3.51562 23.4375 4.26035 23.4375 5.17578V7.03125H1.5625V5.17578C1.5625 4.26035 2.30723 3.51562 3.22266 3.51562ZM21.7773 23.4375H3.22266C2.30723 23.4375 1.5625 22.6928 1.5625 21.7773V8.59375H23.4375V21.7773C23.4375 22.6928 22.6928 23.4375 21.7773 23.4375Z" fill="#273951"/>
</g>
<path d="M9.27655 12.5632L8.53992 11.8797C8.35473 11.7079 8.05802 11.8462 8.07135 12.0959L8.15046 14.3134C8.1564 14.4721 8.28398 14.5904 8.44264 14.5845L10.656 14.5016C10.9058 14.4882 11.0214 14.182 10.8362 14.0102L10.0996 13.3268C11.3634 11.9646 13.4974 11.8847 14.8596 13.1485C15.1847 13.4501 15.4443 13.8058 15.6175 14.1886C15.7084 14.3878 15.9191 14.499 16.1333 14.491C16.5379 14.4759 16.7922 14.0532 16.6196 13.6863C16.3864 13.1866 16.0512 12.7225 15.6232 12.3254C13.8043 10.6378 10.9641 10.7442 9.27655 12.5632ZM15.0379 17.9084C13.7742 19.2706 11.6401 19.3506 10.2779 18.0868C9.95283 17.7852 9.69323 17.4294 9.52 17.0466C9.42912 16.8475 9.21839 16.7362 9.00419 16.7442C8.5996 16.7594 8.34532 17.182 8.51795 17.5489C8.75118 18.0486 9.08634 18.5128 9.51433 18.9098C11.3333 20.5974 14.1734 20.491 15.861 18.6721L16.5976 19.3555C16.7828 19.5273 17.0795 19.3891 17.0662 19.1393L16.9833 16.9259C16.9773 16.7673 16.8498 16.6489 16.6911 16.6548L14.4777 16.7378C14.4223 16.7404 14.369 16.7593 14.3244 16.7922C14.2798 16.8251 14.2459 16.8705 14.2271 16.9226C14.2082 16.9747 14.2052 17.0312 14.2184 17.085C14.2316 17.1389 14.2605 17.1876 14.3013 17.225L15.0379 17.9084V17.9084Z" fill="#273951"/>
<defs>
<clipPath id="clip0">
<rect width="25" height="25" fill="white"/>
</clipPath>
</defs>
</svg>
