<svg width="25" height="25" viewBox="0 0 25 25" fill="none" xmlns="http://www.w3.org/2000/svg">
<g clip-path="url(#clip0)">
<path d="M24.1683 5.72721C23.6692 5.20439 22.98 4.89546 22.1958 4.89546H18.251V4.84793C18.251 4.25383 18.0133 3.68348 17.6093 3.30326C17.2053 2.89926 16.6587 2.66162 16.0646 2.66162H8.93536C8.31749 2.66162 7.77091 2.89926 7.36692 3.30326C6.96293 3.70725 6.72529 4.25383 6.72529 4.84793V4.89546H2.80418C2.01996 4.89546 1.3308 5.20439 0.831749 5.72721C0.3327 6.22626 0 6.93918 0 7.69964V19.5342C0 20.3185 0.308935 21.0076 0.831749 21.5067C1.3308 22.0057 2.04373 22.3384 2.80418 22.3384H22.1958C22.98 22.3384 23.6692 22.0295 24.1683 21.5067C24.6673 21.0076 25 20.2947 25 19.5342V7.69964C25 6.91542 24.6911 6.22626 24.1683 5.72721ZM23.7643 19.5342H23.7405C23.7405 19.962 23.5741 20.3422 23.289 20.6274C23.0038 20.9126 22.6236 21.0789 22.1958 21.0789H2.80418C2.37643 21.0789 1.9962 20.9126 1.71103 20.6274C1.42586 20.3422 1.25951 19.962 1.25951 19.5342V7.69964C1.25951 7.27188 1.42586 6.89166 1.71103 6.60648C1.9962 6.32131 2.37643 6.15496 2.80418 6.15496H7.39068C7.74715 6.15496 8.03232 5.86979 8.03232 5.51333V4.82417C8.03232 4.56276 8.12738 4.32512 8.29373 4.15877C8.46008 3.99242 8.69772 3.89736 8.95913 3.89736H16.0646C16.326 3.89736 16.5637 3.99242 16.73 4.15877C16.8964 4.32512 16.9914 4.56276 16.9914 4.82417V5.51333C16.9914 5.86979 17.2766 6.15496 17.6331 6.15496H22.2196C22.6473 6.15496 23.0276 6.32131 23.3127 6.60648C23.5979 6.89166 23.7643 7.27188 23.7643 7.69964V19.5342Z" fill="#273951"/>
<path d="M12.5 7.771C10.884 7.771 9.41065 8.4364 8.36502 9.48202C7.29563 10.5514 6.65399 12.001 6.65399 13.617C6.65399 15.233 7.31939 16.7064 8.36502 17.752C9.43441 18.8214 10.884 19.463 12.5 19.463C14.116 19.463 15.5894 18.7976 16.635 17.752C17.7044 16.6826 18.346 15.233 18.346 13.617C18.346 12.001 17.6806 10.5277 16.635 9.48202C15.5894 8.4364 14.116 7.771 12.5 7.771ZM15.7319 16.8727C14.9002 17.6807 13.7595 18.2035 12.5 18.2035C11.2405 18.2035 10.0998 17.6807 9.26806 16.8727C8.43631 16.041 7.93726 14.9003 7.93726 13.6408C7.93726 12.3813 8.46008 11.2406 9.26806 10.4088C10.0998 9.57708 11.2405 9.07803 12.5 9.07803C13.7595 9.07803 14.9002 9.60084 15.7319 10.4088C16.5637 11.2406 17.0627 12.3813 17.0627 13.6408C17.0865 14.9003 16.5637 16.041 15.7319 16.8727Z" fill="#273951"/>
<path d="M20.9601 10.0761C21.6032 10.0761 22.1246 9.55475 22.1246 8.91164C22.1246 8.26853 21.6032 7.74719 20.9601 7.74719C20.317 7.74719 19.7957 8.26853 19.7957 8.91164C19.7957 9.55475 20.317 10.0761 20.9601 10.0761Z" fill="#273951"/>
</g>
<defs>
<clipPath id="clip0">
<rect width="25" height="25" fill="white"/>
</clipPath>
</defs>
</svg>
