<svg width="25" height="25" viewBox="0 0 25 25" fill="none" xmlns="http://www.w3.org/2000/svg">
<g clip-path="url(#clip0)">
<path fill-rule="evenodd" clip-rule="evenodd" d="M16.4333 2.6332C16.4333 3.88668 15.4292 4.91227 14.2019 4.91227C12.9746 4.91227 11.9704 3.88668 11.9704 2.6332C11.9704 1.37971 12.9746 0.354126 14.2019 0.354126C15.4292 0.354126 16.4333 1.37971 16.4333 2.6332ZM6.94959 24.8542L10.0736 8.78678L8.06533 9.58445V13.4589H5.83386V8.10306L11.4683 5.66445C12.5506 5.19724 13.8002 5.60748 14.425 6.62166L15.5407 8.44492C16.4333 10.0403 18.2185 11.1798 20.3384 11.1798V13.4589C17.8838 13.4589 15.6523 12.3193 14.2019 10.61L13.5324 14.0286L15.8755 16.3077V24.8542H13.644V18.017L11.301 15.7379L9.29263 24.8542H6.94959Z" fill="white"/>
<path d="M10.0736 8.78678L10.319 8.83449L10.4063 8.38565L9.98136 8.55444L10.0736 8.78678ZM6.94959 24.8542L6.70419 24.8065L6.6463 25.1042H6.94959V24.8542ZM8.06533 9.58445L7.97304 9.35211L7.81533 9.41475V9.58445H8.06533ZM8.06533 13.4589V13.7089H8.31533V13.4589H8.06533ZM5.83386 13.4589H5.58386V13.7089H5.83386V13.4589ZM5.83386 8.10306L5.73456 7.87363L5.58386 7.93885V8.10306H5.83386ZM11.4683 5.66445L11.3692 5.43493L11.369 5.43502L11.4683 5.66445ZM14.425 6.62166L14.6382 6.49117L14.6379 6.49053L14.425 6.62166ZM15.5407 8.44492L15.7591 8.32276L15.754 8.31443L15.5407 8.44492ZM20.3384 11.1798H20.5884V10.9298H20.3384V11.1798ZM20.3384 13.4589V13.7089H20.5884V13.4589H20.3384ZM14.2019 10.61L14.3925 10.4483L14.0563 10.0522L13.9565 10.562L14.2019 10.61ZM13.5324 14.0286L13.2871 13.9806L13.2611 14.1135L13.3581 14.2078L13.5324 14.0286ZM15.8755 16.3077H16.1255V16.2021L16.0498 16.1285L15.8755 16.3077ZM15.8755 24.8542V25.1042H16.1255V24.8542H15.8755ZM13.644 24.8542H13.394V25.1042H13.644V24.8542ZM13.644 18.017H13.894V17.9114L13.8183 17.8378L13.644 18.017ZM11.301 15.7379L11.4753 15.5587L11.1534 15.2457L11.0568 15.6842L11.301 15.7379ZM9.29263 24.8542V25.1042H9.49355L9.53678 24.908L9.29263 24.8542ZM14.2019 5.16227C15.5722 5.16227 16.6833 4.01975 16.6833 2.6332H16.1833C16.1833 3.75361 15.2861 4.66227 14.2019 4.66227V5.16227ZM11.7204 2.6332C11.7204 4.01975 12.8315 5.16227 14.2019 5.16227V4.66227C13.1176 4.66227 12.2204 3.75361 12.2204 2.6332H11.7204ZM14.2019 0.104126C12.8315 0.104126 11.7204 1.24664 11.7204 2.6332H12.2204C12.2204 1.51278 13.1176 0.604126 14.2019 0.604126V0.104126ZM16.6833 2.6332C16.6833 1.24664 15.5722 0.104126 14.2019 0.104126V0.604126C15.2861 0.604126 16.1833 1.51278 16.1833 2.6332H16.6833ZM9.82824 8.73906L6.70419 24.8065L7.195 24.9019L10.319 8.83449L9.82824 8.73906ZM8.15761 9.8168L10.1659 9.01912L9.98136 8.55444L7.97304 9.35211L8.15761 9.8168ZM8.31533 13.4589V9.58445H7.81533V13.4589H8.31533ZM5.83386 13.7089H8.06533V13.2089H5.83386V13.7089ZM5.58386 8.10306V13.4589H6.08386V8.10306H5.58386ZM11.369 5.43502L5.73456 7.87363L5.93316 8.33249L11.5676 5.89389L11.369 5.43502ZM14.6379 6.49053C13.95 5.37395 12.569 4.91699 11.3692 5.43493L11.5674 5.89398C12.5321 5.4775 13.6504 5.84101 14.2122 6.75279L14.6379 6.49053ZM15.754 8.31443L14.6382 6.49117L14.2118 6.75216L15.3275 8.57541L15.754 8.31443ZM20.3384 10.9298C18.3096 10.9298 16.6076 9.83975 15.7589 8.32285L15.3226 8.56699C16.259 10.2408 18.1273 11.4298 20.3384 11.4298V10.9298ZM20.5884 13.4589V11.1798H20.0884V13.4589H20.5884ZM14.0112 10.7718C15.5065 12.5339 17.8063 13.7089 20.3384 13.7089V13.2089C17.9613 13.2089 15.7981 12.1048 14.3925 10.4483L14.0112 10.7718ZM13.7778 14.0767L14.4472 10.6581L13.9565 10.562L13.2871 13.9806L13.7778 14.0767ZM16.0498 16.1285L13.7067 13.8494L13.3581 14.2078L15.7011 16.4869L16.0498 16.1285ZM16.1255 24.8542V16.3077H15.6255V24.8542H16.1255ZM13.644 25.1042H15.8755V24.6042H13.644V25.1042ZM13.394 18.017V24.8542H13.894V18.017H13.394ZM11.1266 15.9171L13.4697 18.1962L13.8183 17.8378L11.4753 15.5587L11.1266 15.9171ZM9.53678 24.908L11.5451 15.7917L11.0568 15.6842L9.04849 24.8004L9.53678 24.908ZM6.94959 25.1042H9.29263V24.6042H6.94959V25.1042Z" fill="#273951"/>
</g>
<defs>
<clipPath id="clip0">
<rect width="25" height="25" fill="white"/>
</clipPath>
</defs>
</svg>
