<svg width="28" height="28" viewBox="0 0 28 28" fill="none" xmlns="http://www.w3.org/2000/svg">
<path d="M20.074 10.2592C19.619 9.80358 18.8793 9.80358 18.4243 10.2592L13.4158 15.2671L11.324 13.1759C10.869 12.7203 10.1293 12.7203 9.67433 13.1759C9.21875 13.6314 9.21875 14.3699 9.67433 14.8255L12.591 17.7422C12.8185 17.9703 13.1172 18.0841 13.4158 18.0841C13.7145 18.0841 14.0132 17.9703 14.2407 17.7422L20.074 11.9088C20.5296 11.4533 20.5296 10.7148 20.074 10.2592Z" fill="#273951"/>
<path d="M26.8333 12.8333C26.1893 12.8333 25.6667 13.356 25.6667 14C25.6667 20.433 20.433 25.6667 14 25.6667C7.567 25.6667 2.33333 20.433 2.33333 14C2.33333 7.567 7.567 2.33333 14 2.33333C17.1319 2.33333 20.0719 3.55717 22.2792 5.77967C22.7325 6.23758 23.4716 6.23992 23.9289 5.7855C24.3862 5.33167 24.3886 4.59317 23.9347 4.13583C21.2864 1.46883 17.7578 0 14 0C6.28017 0 0 6.28017 0 14C0 21.7198 6.28017 28 14 28C21.7198 28 28 21.7198 28 14C28 13.356 27.4773 12.8333 26.8333 12.8333Z" fill="#273951"/>
</svg>
