<svg width="50" height="50" viewBox="0 0 50 50" fill="none" xmlns="http://www.w3.org/2000/svg">
<path d="M0.00447096 18.1898C0.235126 22.1109 0.215791 25.3624 0.198702 28.2312C0.153489 35.8372 0.0826904 40.7926 5.43121 46.1412C10.5711 51.281 18.9347 51.2814 24.0749 46.1412C24.075 46.1411 24.075 46.141 24.0751 46.1409L38.5755 31.6405C40.2928 29.9232 40.2931 27.1434 38.5755 25.4259C38.2126 25.0629 37.8012 24.7768 37.3623 24.5676L39.7655 22.1644C41.4788 20.4511 41.4788 17.6633 39.7655 15.9498C39.3614 15.5457 38.8972 15.2382 38.4017 15.0246C39.3569 13.3608 39.14 11.1811 37.6939 9.73517C37.3112 9.35247 36.8747 9.0559 36.4087 8.84419C37.4939 7.16115 37.322 4.867 35.8177 3.36286C34.3869 1.93205 32.2073 1.6972 30.5307 2.65458C30.3134 2.15226 30.0018 1.68997 29.6031 1.29136C27.8899 -0.421956 25.1019 -0.422054 23.3905 1.2895C23.3014 1.37817 15.6385 9.01332 10.7316 13.9132L9.9782 8.58648C9.91883 6.21646 7.98209 4.3052 5.58541 4.3052C3.18608 4.3052 1.24993 6.21939 1.19241 8.59205C1.19134 8.63257 1.19212 8.6732 1.19446 8.71362C1.31174 10.7055 1.37532 12.7106 1.3928 14.9688C0.404358 15.8948 -0.0507027 17.2126 0.00447096 18.1898V18.1898ZM36.504 29.5691L22.0034 44.0697C18.0057 48.0675 11.5006 48.0676 7.50271 44.0697C3.0606 39.6276 3.08326 35.8248 3.12827 28.2486C3.14546 25.3526 3.16499 22.0728 2.93317 18.0892C3.0065 16.8357 4.54004 16.2488 5.43121 17.14C5.92817 17.6369 5.73784 17.8508 5.87485 18.3819C5.87514 18.3845 5.87553 18.3872 5.87602 18.3897L7.05175 26.704C7.22069 27.8973 8.6847 28.3882 9.53799 27.5346C12.0662 25.006 9.27296 27.7976 24.117 12.9589C24.6907 12.4277 25.5887 12.4394 26.1464 12.997C26.719 13.5695 26.719 14.4959 26.1464 15.0685C26.1462 15.0687 26.1461 15.0688 26.1459 15.069L19.9318 21.2831C19.3598 21.8551 19.3598 22.7825 19.9318 23.3546C20.5037 23.9266 21.4312 23.9266 22.0033 23.3546C22.4896 22.8682 29.8052 15.5528 30.2895 15.0685C30.8608 14.4974 31.79 14.4974 32.3609 15.0686C32.9335 15.6411 32.9335 16.5675 32.3609 17.1401C32.3609 17.1401 24.5602 24.9408 24.0748 25.4262C23.5028 25.9982 23.5028 26.9256 24.0748 27.4977C24.6468 28.0697 25.5743 28.0697 26.1463 27.4977L32.3609 21.2831C32.9322 20.7119 33.8615 20.712 34.4324 21.2831C35.0036 21.8542 35.0037 22.7835 34.4325 23.3546C33.3984 24.3887 28.6691 29.118 28.2179 29.5692C27.6459 30.1412 27.6459 31.0686 28.2179 31.6407C28.7899 32.2127 29.7174 32.2127 30.2894 31.6407L34.4398 27.4902C35.0117 26.9265 35.9353 26.929 36.504 27.4976C37.0766 28.07 37.0766 28.9965 36.504 29.5691V29.5691ZM35.6225 11.8069C36.1951 12.3794 36.1951 13.3058 35.6225 13.8784L35.292 14.2089C35.0794 13.7649 34.7909 13.3552 34.4324 12.9969C34.074 12.6385 33.6645 12.35 33.2204 12.1374L33.5517 11.8062C34.1229 11.2358 35.0517 11.236 35.6225 11.8069V11.8069ZM37.6941 20.093L37.3616 20.4255C37.1524 19.9863 36.8672 19.5746 36.504 19.2115C36.141 18.8484 35.7293 18.563 35.2901 18.3539L35.6225 18.0215C36.1938 17.4503 37.1231 17.4504 37.694 18.0214C38.2651 18.5925 38.2652 19.5218 37.6941 20.093V20.093ZM33.7463 5.43455C34.3171 6.00533 34.3193 6.92912 33.7499 7.50244C33.5632 7.68769 34.8292 6.43178 29.0774 12.1375C28.8648 11.6935 28.5763 11.2838 28.2178 10.9254C27.8579 10.5654 27.4501 10.2821 27.0152 10.0733C27.2763 9.81348 31.5119 5.59656 31.6746 5.43446C32.2462 4.86329 33.1752 4.86348 33.7463 5.43455V5.43455ZM10.728 18.0585C15.103 13.6828 25.3552 3.46754 25.4601 3.36305C26.0315 2.79188 26.9605 2.79198 27.5317 3.36305C28.0782 3.90952 28.0984 4.76856 27.6178 5.33964C13.9196 19.0104 34.0596 -1.13267 9.5415 23.3878L8.80618 18.1885C9.39287 18.6344 10.2126 18.5741 10.728 18.0585V18.0585ZM4.12316 8.61304C4.1962 7.35977 5.73013 6.77288 6.62121 7.66386C7.11816 8.16091 6.92774 8.37458 7.06474 8.90571C7.06513 8.90844 8.02525 15.6976 8.02525 15.6976C7.16406 14.4418 5.76362 13.7572 4.30909 13.7855C4.28116 11.9629 4.22042 10.2839 4.12316 8.61304V8.61304Z" fill="#273951"/>
<path d="M48.5351 8.98804H45.6055C44.7966 8.98804 44.1407 9.64387 44.1407 10.4528C44.1407 11.2618 44.7966 11.9176 45.6055 11.9176H48.5351C49.3441 11.9176 49.9999 11.2618 49.9999 10.4528C49.9999 9.64387 49.3442 8.98804 48.5351 8.98804Z" fill="#273951"/>
<path d="M43.6142 5.43402L46.5438 2.50444C47.1158 1.9324 47.1158 1.00499 46.5438 0.432942C45.9718 -0.139106 45.0443 -0.139106 44.4723 0.432942L41.5427 3.36252C40.9706 3.93456 40.9706 4.86197 41.5427 5.43402C42.1146 6.00606 43.0421 6.00616 43.6142 5.43402Z" fill="#273951"/>
</svg>
