<svg width="50" height="50" viewBox="0 0 50 50" fill="none" xmlns="http://www.w3.org/2000/svg">
<g clip-path="url(#clip0)">
<path d="M20.2695 5.98834C20.6796 5.98834 21.0122 5.6557 21.0122 5.24524V3.16508C21.0122 2.755 20.6796 2.42236 20.2695 2.42236C19.859 2.42236 19.5264 2.755 19.5264 3.16508V5.24524C19.5264 5.6557 19.859 5.98834 20.2695 5.98834Z" fill="#273951"/>
<path d="M20.2695 11.2617C20.6796 11.2617 21.0122 10.929 21.0122 10.5186V8.43842C21.0122 8.02795 20.6796 7.69531 20.2695 7.69531C19.859 7.69531 19.5264 8.02795 19.5264 8.43842V10.5186C19.5264 10.929 19.859 11.2617 20.2695 11.2617Z" fill="#273951"/>
<path d="M21.8659 7.5847H23.9461C24.3565 7.5847 24.6892 7.25206 24.6892 6.84198C24.6892 6.43152 24.3565 6.09888 23.9461 6.09888H21.8659C21.4554 6.09888 21.1228 6.43152 21.1228 6.84198C21.1228 7.25206 21.4554 7.5847 21.8659 7.5847Z" fill="#273951"/>
<path d="M16.5925 7.5847H18.6726C19.0831 7.5847 19.4157 7.25206 19.4157 6.84198C19.4157 6.43152 19.0831 6.09888 18.6726 6.09888H16.5925C16.182 6.09888 15.8494 6.43152 15.8494 6.84198C15.8494 7.25206 16.182 7.5847 16.5925 7.5847Z" fill="#273951"/>
<path d="M13.47 14.5203C13.8805 14.5203 14.2131 14.1877 14.2131 13.7772V11.6971C14.2131 11.2866 13.8805 10.954 13.47 10.954C13.0599 10.954 12.7273 11.2866 12.7273 11.6971V13.7772C12.7273 14.1877 13.0599 14.5203 13.47 14.5203Z" fill="#273951"/>
<path d="M13.47 19.7934C13.8805 19.7934 14.2131 19.4608 14.2131 19.0507V16.9705C14.2131 16.5601 13.8805 16.2274 13.47 16.2274C13.0599 16.2274 12.7273 16.5601 12.7273 16.9705V19.0507C12.7273 19.4608 13.0599 19.7934 13.47 19.7934Z" fill="#273951"/>
<path d="M15.0665 16.1167H17.147C17.5571 16.1167 17.8897 15.784 17.8897 15.3736C17.8897 14.9635 17.5571 14.6309 17.147 14.6309H15.0665C14.6564 14.6309 14.3237 14.9635 14.3237 15.3736C14.3237 15.784 14.6564 16.1167 15.0665 16.1167Z" fill="#273951"/>
<path d="M9.7934 16.1167H11.8735C12.284 16.1167 12.6167 15.784 12.6167 15.3736C12.6167 14.9635 12.284 14.6309 11.8735 14.6309H9.7934C9.38293 14.6309 9.05029 14.9635 9.05029 15.3736C9.05029 15.784 9.38293 16.1167 9.7934 16.1167Z" fill="#273951"/>
<path d="M33.0853 36.6696C32.6748 36.6696 32.3422 37.0022 32.3422 37.4127V39.4928C32.3422 39.9029 32.6748 40.2355 33.0853 40.2355C33.4953 40.2355 33.828 39.9029 33.828 39.4928V37.4127C33.828 37.0022 33.4953 36.6696 33.0853 36.6696V36.6696Z" fill="#273951"/>
<path d="M33.0853 41.943C32.6748 41.943 32.3422 42.2756 32.3422 42.6861V44.7663C32.3422 45.1763 32.6748 45.509 33.0853 45.509C33.4953 45.509 33.828 45.1763 33.828 44.7663V42.6861C33.828 42.2756 33.4953 41.943 33.0853 41.943V41.943Z" fill="#273951"/>
<path d="M36.7619 40.3466H34.6817C34.2712 40.3466 33.9386 40.6792 33.9386 41.0893C33.9386 41.4997 34.2712 41.8324 34.6817 41.8324H36.7619C37.1723 41.8324 37.505 41.4997 37.505 41.0893C37.505 40.6792 37.1723 40.3466 36.7619 40.3466V40.3466Z" fill="#273951"/>
<path d="M31.4884 40.3466H29.4083C28.9978 40.3466 28.6652 40.6792 28.6652 41.0893C28.6652 41.4997 28.9978 41.8324 29.4083 41.8324H31.4884C31.8989 41.8324 32.2315 41.4997 32.2315 41.0893C32.2315 40.6792 31.8989 40.3466 31.4884 40.3466V40.3466Z" fill="#273951"/>
<path d="M48.9758 7.28149L45.7875 4.09279C45.4972 3.80287 45.0268 3.80287 44.7369 4.09279C44.4466 4.38309 44.4466 4.85344 44.7369 5.14336L47.9252 8.33206C48.2907 8.69751 48.4921 9.1835 48.4921 9.70039C48.4921 10.2177 48.2907 10.7037 47.9252 11.0691L45.3068 13.6871C44.9414 14.053 44.4554 14.2544 43.9385 14.2544C43.4216 14.2544 42.9356 14.053 42.5698 13.6871L36.2908 7.40814C35.5358 6.65321 35.5358 5.42564 36.2908 4.6711L38.9088 2.05269C39.2746 1.68724 39.7606 1.48582 40.2775 1.48582C40.7944 1.48582 41.2804 1.68724 41.6458 2.05269L42.5316 2.93846C42.8219 3.22838 43.2923 3.22838 43.5822 2.93846C43.8725 2.64816 43.8725 2.17781 43.5822 1.88751L42.6964 1.00212C42.0502 0.355911 41.1911 0 40.2775 0C39.3635 0 38.5044 0.355911 37.8582 1.00212L35.2398 3.62053C34.0866 4.77409 33.9314 6.55251 34.7729 7.87544L32.0759 10.5724C31.0097 11.6383 31.0097 13.3728 32.0759 14.439L35.3344 17.6975C35.8673 18.2308 36.5677 18.4971 37.2677 18.4971C37.9681 18.4971 38.6681 18.2308 39.201 17.6975L41.8617 15.0372C42.4553 15.4926 43.1778 15.7402 43.9385 15.7402C44.8525 15.7402 45.7115 15.3843 46.3578 14.7381L48.9762 12.1197C49.6224 11.4735 49.9783 10.6144 49.9783 9.70039C49.9779 8.78677 49.622 7.9277 48.9758 7.28149V7.28149ZM38.1504 16.647C37.6637 17.1337 36.8717 17.1337 36.385 16.647L33.1265 13.3884C32.6397 12.9017 32.6397 12.1098 33.1265 11.623L35.7651 8.98399L40.7891 14.0079L38.1504 16.647Z" fill="#273951"/>
<path d="M30.0087 30.1998C30.7079 30.1998 31.4068 29.9336 31.9389 29.4014C33.0032 28.3371 33.0032 26.6053 31.9389 25.541L24.437 18.039C23.3727 16.9747 21.6408 16.9743 20.5765 18.039C19.7517 18.8637 19.5663 20.089 20.0195 21.0942L17.4133 23.7007C15.3599 25.7538 12.5145 26.9051 9.61342 26.862C7.95822 26.8357 6.34346 27.1378 4.81262 27.7592C3.2795 28.3802 1.90887 29.2881 0.73967 30.4573L0.217438 30.9796C-0.0724792 31.2695 -0.0724792 31.7398 0.217438 32.0301C0.362778 32.1751 0.55275 32.2476 0.743103 32.2476C0.933075 32.2476 1.12343 32.1751 1.26839 32.0301L1.79024 31.5083C2.81792 30.4806 4.0226 29.6826 5.37109 29.1363C6.71654 28.59 8.13713 28.3253 9.59053 28.3478C9.91516 28.3528 10.2394 28.344 10.5625 28.323C11.2885 31.334 12.9822 34.0615 15.3812 36.06C15.5201 36.1756 15.6887 36.232 15.8566 36.232C16.0694 36.232 16.2807 36.1412 16.4276 35.9646C16.6904 35.6491 16.6477 35.1807 16.3326 34.9182C14.2212 33.1597 12.7186 30.7728 12.0468 28.1346C14.4577 27.6772 16.713 26.5019 18.4639 24.7513L20.9457 22.2695L27.7088 29.0322L25.2266 31.5136C24.0574 32.684 23.1495 34.0538 22.5277 35.5862C22.2576 36.2534 22.0478 36.9366 21.899 37.632C20.8241 37.4005 19.7838 37.0354 18.7992 36.5383C18.433 36.3537 17.9863 36.5006 17.8013 36.8668C17.6163 37.2334 17.7635 37.6801 18.1297 37.8651C19.2554 38.4331 20.4464 38.8474 21.6778 39.1041C21.64 39.5291 21.624 39.9571 21.6305 40.3881C21.6755 43.2915 20.5238 46.1342 18.47 48.188L17.9264 48.7316C17.6361 49.0219 17.6361 49.4923 17.9264 49.7822C18.0714 49.9276 18.2613 50 18.4517 50C18.6417 50 18.832 49.9276 18.977 49.7822L19.5206 49.2386C21.8571 46.9021 23.1674 43.668 23.1163 40.3652C23.0942 38.9103 23.3593 37.4905 23.9048 36.1447C24.4514 34.7977 25.2499 33.5926 26.2775 32.5642L28.8841 29.9584C29.2404 30.119 29.6246 30.1998 30.0087 30.1998V30.1998ZM21.627 19.0895C21.862 18.8546 22.1745 18.7252 22.5067 18.7252C22.839 18.7252 23.1514 18.8546 23.3864 19.0895L30.8884 26.5915C31.3732 27.0768 31.3732 27.8656 30.8884 28.3509C30.6534 28.5858 30.341 28.7152 30.0087 28.7152C29.6764 28.7152 29.364 28.5858 29.129 28.3509L21.627 20.8489C21.3921 20.6139 21.2627 20.3015 21.2627 19.9692C21.2627 19.6369 21.3921 19.3245 21.627 19.0895V19.0895Z" fill="#273951"/>
<path d="M30.2571 21.8452C30.4021 21.9905 30.5924 22.063 30.7824 22.063C30.9727 22.063 31.1627 21.9905 31.3077 21.8452L34.1767 18.9765C34.4666 18.6862 34.4666 18.2159 34.1767 17.926C33.8864 17.6357 33.4161 17.6357 33.1261 17.926L30.2571 20.7946C29.9672 21.0849 29.9672 21.5553 30.2571 21.8452Z" fill="#273951"/>
<path d="M30.7968 15.5968L28.9185 17.4747C28.6286 17.765 28.6286 18.2354 28.9185 18.5253C29.0634 18.6706 29.2538 18.7431 29.4438 18.7431C29.6341 18.7431 29.8241 18.6706 29.9691 18.5253L31.8474 16.6473C32.1373 16.357 32.1373 15.8867 31.8474 15.5968C31.5571 15.3065 31.0868 15.3065 30.7968 15.5968V15.5968Z" fill="#273951"/>
<path d="M45.6348 20.2454C39.1041 19.3127 33.6796 23.1441 33.4518 23.3074C33.1184 23.547 33.0425 24.0112 33.2817 24.3442C33.427 24.5464 33.6548 24.654 33.886 24.654C34.0359 24.654 34.1873 24.6086 34.3185 24.5144C34.3697 24.4778 39.4787 20.8671 45.4247 21.7167C45.8309 21.7743 46.2074 21.4924 46.2654 21.0861C46.3234 20.6798 46.0411 20.3033 45.6348 20.2454V20.2454Z" fill="#273951"/>
<path d="M25.4288 16.4913C25.56 16.5859 25.7115 16.6309 25.8618 16.6309C26.0925 16.6309 26.3207 16.5237 26.4656 16.3216C26.6293 16.0938 30.4608 10.6697 29.5277 4.13819C29.4697 3.7323 29.0928 3.44964 28.6873 3.508C28.281 3.56598 27.9987 3.94211 28.0567 4.34838C28.9024 10.2665 25.3056 15.3889 25.2586 15.4549C25.0195 15.7883 25.0958 16.2521 25.4288 16.4913V16.4913Z" fill="#273951"/>
</g>
<defs>
<clipPath id="clip0">
<rect width="50" height="50" fill="white"/>
</clipPath>
</defs>
</svg>
