<svg width="50" height="50" viewBox="0 0 50 50" fill="none" xmlns="http://www.w3.org/2000/svg">
<g clip-path="url(#clip0)">
<path d="M48.0711 27.8731C48.3241 27.3968 48.1432 26.8056 47.6669 26.5525C42.1949 23.6447 35.5199 24.3421 30.7781 28.2386L29.2003 26.6608L31.7771 24.084C32.1585 23.7026 32.1585 23.0843 31.7771 22.7028C31.3957 22.3215 30.7775 22.3215 30.396 22.7028L27.8191 25.2797L21.5319 18.9925C22.962 17.0746 23.8617 14.8219 24.1454 12.4232C24.4723 9.65795 23.9521 6.89194 22.6407 4.42447C22.3877 3.9482 21.7963 3.76734 21.3201 4.02037C20.8439 4.27349 20.663 4.8647 20.916 5.34097C23.0193 9.29896 22.6901 13.9987 20.1341 17.5946L15.9909 13.4514C15.4095 12.87 14.5831 12.6288 13.7802 12.8057C12.9773 12.9827 12.3291 13.5492 12.046 14.3212L0.149608 46.7754C-0.175293 47.6618 0.0374996 48.6272 0.705173 49.2948C1.16621 49.7558 1.76904 50 2.39003 50C2.66835 50 2.95028 49.9508 3.2246 49.8504L35.6786 37.9538C36.4505 37.6709 37.017 37.0226 37.1942 36.2198C37.3711 35.4168 37.1298 34.5905 36.5485 34.0091L32.1676 29.6282C36.2939 26.3358 42.0342 25.7711 46.7505 28.2773C47.2267 28.5304 47.8179 28.3494 48.0711 27.8731V27.8731ZM15.5542 43.2505L6.74948 34.4457L9.18912 27.7904L22.2096 40.8108L15.5542 43.2505ZM10.7821 44.9998L5.00017 39.2179L6.00857 36.467L13.533 43.9914L10.7821 44.9998ZM2.55233 48.0165C2.32089 48.1013 2.16103 47.9885 2.08612 47.9137C2.01132 47.8389 1.89853 47.679 1.98339 47.4476L4.25916 41.2392L8.76071 45.7407L2.55233 48.0165ZM35.2869 35.7991C35.2673 35.8877 35.2049 36.0472 35.0065 36.1199L29.0029 38.3206L23.4485 32.7662C23.0672 32.3847 22.4488 32.3848 22.0675 32.7661C21.6861 33.1474 21.686 33.7658 22.0674 34.1471L26.9816 39.0614L24.2308 40.0698L9.93004 25.7691L10.9384 23.0182L15.8528 27.9325C16.0434 28.1232 16.2934 28.2185 16.5433 28.2185C16.7932 28.2185 17.0432 28.1231 17.2338 27.9325C17.6152 27.5511 17.6152 26.9328 17.2337 26.5514L11.6793 20.9971L13.88 14.9935C13.9528 14.795 14.1122 14.7326 14.2009 14.713C14.2279 14.707 14.2625 14.702 14.3019 14.702C14.3916 14.702 14.506 14.7285 14.6099 14.8325L35.1674 35.3901C35.3168 35.5396 35.3064 35.7106 35.2869 35.7991V35.7991Z" fill="#273951"/>
<path d="M29.4528 7.79331C29.9921 7.79331 30.4293 7.3561 30.4293 6.81675C30.4293 5.99888 31.0948 5.33354 31.9126 5.33354C33.8074 5.33354 35.349 3.79204 35.349 1.89722C35.349 1.35786 34.9117 0.920654 34.3724 0.920654C33.8331 0.920654 33.3958 1.35786 33.3958 1.89722C33.3958 2.71509 32.7304 3.38042 31.9126 3.38042C30.0178 3.38042 28.4762 4.92192 28.4762 6.81675C28.4762 7.3561 28.9135 7.79331 29.4528 7.79331Z" fill="#273951"/>
<path d="M38.1169 17.0112C40.0739 17.0112 41.666 15.4191 41.666 13.4623C41.666 12.5824 42.3818 11.8665 43.2618 11.8665C43.801 11.8665 44.2383 11.4292 44.2383 10.8899C44.2383 10.3505 43.801 9.91333 43.2618 9.91333C41.3049 9.91333 39.7128 11.5054 39.7128 13.4623C39.7128 14.3421 38.9969 15.0581 38.1169 15.0581C37.5777 15.0581 37.1404 15.4953 37.1404 16.0346C37.1404 16.574 37.5777 17.0112 38.1169 17.0112Z" fill="#273951"/>
<path d="M43.75 18.895C43.75 20.6182 45.1519 22.02 46.875 22.02C48.5981 22.02 50 20.6182 50 18.895C50 17.1719 48.5981 15.77 46.875 15.77C45.1519 15.77 43.75 17.1719 43.75 18.895V18.895ZM46.875 17.7231C47.5212 17.7231 48.0469 18.2488 48.0469 18.895C48.0469 19.5412 47.5212 20.0669 46.875 20.0669C46.2288 20.0669 45.7031 19.5412 45.7031 18.895C45.7031 18.2488 46.2288 17.7231 46.875 17.7231Z" fill="#273951"/>
<path d="M30.7723 16.5873C32.4955 16.5873 33.8973 15.1854 33.8973 13.4623C33.8973 11.7391 32.4955 10.3373 30.7723 10.3373C29.0492 10.3373 27.6473 11.7391 27.6473 13.4623C27.6473 15.1854 29.0493 16.5873 30.7723 16.5873ZM30.7723 12.2904C31.4185 12.2904 31.9442 12.8161 31.9442 13.4623C31.9442 14.1085 31.4185 14.6342 30.7723 14.6342C30.1261 14.6342 29.6005 14.1085 29.6005 13.4623C29.6005 12.8161 30.1261 12.2904 30.7723 12.2904Z" fill="#273951"/>
<path d="M12.5002 6.25C14.2234 6.25 15.6252 4.84814 15.6252 3.125C15.6252 1.40186 14.2234 0 12.5002 0C10.7771 0 9.37524 1.40186 9.37524 3.125C9.37524 4.84814 10.7771 6.25 12.5002 6.25ZM12.5002 1.95312C13.1464 1.95312 13.6721 2.47881 13.6721 3.125C13.6721 3.77119 13.1464 4.29688 12.5002 4.29688C11.8541 4.29688 11.3284 3.77119 11.3284 3.125C11.3284 2.47881 11.8541 1.95312 12.5002 1.95312Z" fill="#273951"/>
<path d="M44.1897 34.2828C43.8085 33.9015 43.1903 33.9015 42.8086 34.2828C42.4272 34.6641 42.4272 35.2825 42.8086 35.6638L43.7293 36.5845C43.92 36.7752 44.1699 36.8705 44.4198 36.8705C44.6697 36.8705 44.9196 36.7751 45.1104 36.5845C45.4917 36.2032 45.4917 35.5848 45.1104 35.2035L44.1897 34.2828Z" fill="#273951"/>
<path d="M48.7933 38.8864C48.4118 38.505 47.7937 38.505 47.4121 38.8864C47.0308 39.2677 47.0308 39.8861 47.4121 40.2675L48.3328 41.1882C48.5235 41.3789 48.7734 41.4742 49.0233 41.4742C49.2732 41.4742 49.5231 41.3789 49.7139 41.1882C50.0952 40.8069 50.0952 40.1885 49.7139 39.8071L48.7933 38.8864Z" fill="#273951"/>
<path d="M48.3328 34.2829L47.4121 35.2036C47.0308 35.5849 47.0308 36.2033 47.4121 36.5846C47.6028 36.7753 47.8527 36.8707 48.1026 36.8707C48.3525 36.8707 48.6025 36.7752 48.7932 36.5846L49.7139 35.6639C50.0952 35.2826 50.0952 34.6642 49.7139 34.2829C49.3325 33.9014 48.7142 33.9015 48.3328 34.2829V34.2829Z" fill="#273951"/>
<path d="M43.7293 38.8864L42.8086 39.8071C42.4272 40.1884 42.4272 40.8068 42.8086 41.1882C42.9993 41.3789 43.2492 41.4742 43.4991 41.4742C43.7491 41.4742 43.9989 41.3789 44.1896 41.1882L45.1104 40.2675C45.4917 39.8862 45.4917 39.2678 45.1104 38.8864C44.7289 38.505 44.1107 38.505 43.7293 38.8864V38.8864Z" fill="#273951"/>
<path d="M48.1027 2.87393C48.3526 2.87393 48.6026 2.77861 48.7933 2.58789L49.714 1.66719C50.0953 1.28584 50.0953 0.667481 49.714 0.286133C49.3325 -0.0952148 48.7142 -0.0952148 48.3328 0.286133L47.4121 1.20684C47.0308 1.58818 47.0308 2.20654 47.4121 2.58789C47.6029 2.77861 47.8527 2.87393 48.1027 2.87393V2.87393Z" fill="#273951"/>
<path d="M43.4991 7.47729C43.7491 7.47729 43.9989 7.38198 44.1896 7.19126L45.1103 6.27056C45.4917 5.88921 45.4917 5.27085 45.1103 4.8894C44.7289 4.50806 44.1107 4.50806 43.7292 4.8894L42.8085 5.81011C42.4271 6.19145 42.4271 6.80981 42.8085 7.19126C42.9993 7.38198 43.2492 7.47729 43.4991 7.47729Z" fill="#273951"/>
<path d="M48.7933 4.88953C48.4118 4.50818 47.7937 4.50818 47.4121 4.88953C47.0308 5.27087 47.0308 5.88923 47.4121 6.27068L48.3328 7.19138C48.5235 7.3821 48.7734 7.47742 49.0233 7.47742C49.2732 7.47742 49.5231 7.3821 49.7139 7.19138C50.0952 6.81003 50.0952 6.19167 49.7139 5.81023L48.7933 4.88953Z" fill="#273951"/>
<path d="M43.7293 2.58789C43.92 2.77861 44.1699 2.87393 44.4198 2.87393C44.6697 2.87393 44.9196 2.77861 45.1103 2.58789C45.4917 2.20654 45.4917 1.58818 45.1103 1.20684L44.1896 0.286133C43.8084 -0.0952148 43.1902 -0.0952148 42.8085 0.286133C42.4271 0.667481 42.4271 1.28584 42.8085 1.66719L43.7293 2.58789Z" fill="#273951"/>
<path d="M19.6504 29.3729C19.3936 29.3729 19.1416 29.4774 18.96 29.6591C18.7783 29.8407 18.6738 30.0927 18.6738 30.3495C18.6738 30.6063 18.7783 30.8583 18.96 31.0399C19.1416 31.2216 19.3936 31.326 19.6504 31.326C19.9072 31.326 20.1592 31.2216 20.3408 31.0399C20.5225 30.8583 20.627 30.6063 20.627 30.3495C20.627 30.0927 20.5225 29.8407 20.3408 29.6591C20.1592 29.4774 19.9072 29.3729 19.6504 29.3729Z" fill="#273951"/>
<path d="M33.8981 19.2007L33.1901 19.9087C32.8087 20.29 32.8087 20.9084 33.1901 21.2898C33.3808 21.4806 33.6307 21.5759 33.8806 21.5759C34.1305 21.5759 34.3804 21.4806 34.5711 21.2898L35.2791 20.5818C35.6605 20.2005 35.6605 19.5821 35.2791 19.2007C34.8977 18.8193 34.2795 18.8193 33.8981 19.2007V19.2007Z" fill="#273951"/>
</g>
<defs>
<clipPath id="clip0">
<rect width="50" height="50" fill="white"/>
</clipPath>
</defs>
</svg>
