<svg width="25" height="25" viewBox="0 0 25 25" fill="none" xmlns="http://www.w3.org/2000/svg">
<g clip-path="url(#clip0)">
<path d="M23.2419 10.4332H23.8906C24.0619 10.4343 24.2258 10.5031 24.3466 10.6247C24.4673 10.7462 24.5351 10.9106 24.5351 11.0819V24.3263C24.5351 24.4118 24.5182 24.4965 24.4853 24.5755C24.4525 24.6544 24.4043 24.7261 24.3436 24.7864C24.283 24.8467 24.211 24.8944 24.1318 24.9268C24.0526 24.9591 23.9678 24.9755 23.8822 24.975H1.0945C0.922457 24.975 0.757457 24.9066 0.635801 24.785C0.514146 24.6633 0.445801 24.4983 0.445801 24.3263V0.623678C0.445801 0.451631 0.514146 0.286632 0.635801 0.164976C0.757457 0.043321 0.922457 -0.0250244 1.0945 -0.0250244H18.3974C18.5694 -0.0250244 18.7344 0.043321 18.8561 0.164976C18.9777 0.286632 19.0461 0.451631 19.0461 0.623678V1.27238C19.0466 1.35792 19.0303 1.44272 18.9979 1.5219C18.9656 1.60109 18.9179 1.67309 18.8576 1.73377C18.7973 1.79445 18.7256 1.84261 18.6466 1.87547C18.5676 1.90833 18.4829 1.92524 18.3974 1.92524H2.39607V23.0247H22.5932V11.0819C22.5932 10.9099 22.6615 10.7449 22.7832 10.6232C22.9048 10.5016 23.0698 10.4332 23.2419 10.4332Z" fill="#273951"/>
<path d="M9.68566 17.648L9.22824 17.1864C9.16776 17.1261 9.11978 17.0545 9.08704 16.9757C9.0543 16.8968 9.03744 16.8123 9.03744 16.7269C9.03744 16.6415 9.0543 16.557 9.08704 16.4781C9.11978 16.3993 9.16776 16.3277 9.22824 16.2674L22.9508 2.74444C23.0107 2.68409 23.082 2.63619 23.1605 2.60351C23.239 2.57082 23.3232 2.55399 23.4082 2.55399C23.4932 2.55399 23.5774 2.57082 23.6559 2.60351C23.7345 2.63619 23.8057 2.68409 23.8656 2.74444L24.323 3.20602C24.3835 3.26628 24.4315 3.33789 24.4642 3.41675C24.497 3.4956 24.5138 3.58013 24.5138 3.66551C24.5138 3.75089 24.497 3.83543 24.4642 3.91428C24.4315 3.99313 24.3835 4.06474 24.323 4.12501L10.6005 17.648C10.5405 17.7089 10.469 17.7574 10.3901 17.7904C10.3112 17.8235 10.2265 17.8405 10.141 17.8405C10.0555 17.8405 9.97078 17.8235 9.89189 17.7904C9.813 17.7574 9.74148 17.7089 9.6815 17.648H9.68566Z" fill="#273951"/>
<path d="M4.3588 10.0881V9.43938C4.35766 9.26945 4.42323 9.10587 4.54143 8.98378C4.65962 8.8617 4.821 8.79087 4.99087 8.78652H7.77697C7.86251 8.78651 7.9472 8.80343 8.02618 8.83629C8.10515 8.86915 8.17685 8.9173 8.23714 8.97798C8.29744 9.03866 8.34513 9.11067 8.37749 9.18985C8.40984 9.26904 8.42622 9.35384 8.42567 9.43938V10.0881C8.42567 10.1733 8.40889 10.2576 8.37629 10.3363C8.34369 10.415 8.2959 10.4865 8.23567 10.5468C8.17543 10.607 8.10392 10.6548 8.02521 10.6874C7.94651 10.72 7.86215 10.7368 7.77697 10.7368H4.99087C4.90568 10.7368 4.82133 10.72 4.74262 10.6874C4.66392 10.6548 4.59241 10.607 4.53217 10.5468C4.47193 10.4865 4.42415 10.415 4.39155 10.3363C4.35895 10.2576 4.34217 10.1733 4.34217 10.0881H4.3588Z" fill="#273951"/>
<path d="M4.35879 5.7925V5.1438C4.35874 4.9746 4.42479 4.81207 4.54287 4.69088C4.66096 4.56969 4.82171 4.49944 4.99086 4.4951H13.6527C13.8247 4.4951 13.9897 4.56344 14.1114 4.6851C14.2331 4.80675 14.3014 4.97175 14.3014 5.1438V5.7925C14.3019 5.87804 14.2856 5.96284 14.2532 6.04203C14.2209 6.12121 14.1732 6.19322 14.1129 6.25389C14.0526 6.31457 13.9809 6.36273 13.9019 6.39559C13.8229 6.42845 13.7382 6.44536 13.6527 6.44536H4.99086C4.90532 6.44536 4.82063 6.42845 4.74165 6.39559C4.66267 6.36273 4.59097 6.31457 4.53068 6.25389C4.47039 6.19322 4.42269 6.12121 4.39034 6.04203C4.35799 5.96284 4.34161 5.87804 4.34216 5.7925H4.35879Z" fill="#273951"/>
</g>
<defs>
<clipPath id="clip0">
<rect width="25" height="25" fill="white"/>
</clipPath>
</defs>
</svg>
