<?xml version="1.0"?>
<svg xmlns="http://www.w3.org/2000/svg" viewBox="0 0 64 64" width="512" height="512"><g id="Layer_29" data-name="Layer 29"><path d="M32,36a5,5,0,0,0,5-5H35a3,3,0,0,1-6,0H27A5,5,0,0,0,32,36Z"/><path d="M32,1A31,31,0,1,0,63,32,31,31,0,0,0,32,1ZM46,26V23.05A2.5,2.5,0,0,1,45.85,28,14.27,14.27,0,0,0,46,26ZM44,21a9.34,9.34,0,0,1-7.14-4.46,1,1,0,0,0-1.72,0,9.34,9.34,0,0,1-8,4.51H20V20a12,12,0,0,1,24,0ZM18.15,28A2.5,2.5,0,0,1,18,23.05V26A14.27,14.27,0,0,0,18.15,28ZM20,23h7.17A11.38,11.38,0,0,0,36,18.75,11.39,11.39,0,0,0,44,23v3a12,12,0,0,1-24,0ZM50,54.71a28.48,28.48,0,0,1-4,2.68V51H44v7.39A28.72,28.72,0,0,1,33,61V46.62l4.55,2.27a1,1,0,0,0,.83,0,1,1,0,0,0,.57-.6l2.72-8.17A10,10,0,0,1,50,50ZM34.86,40,32,43.44,29.14,40Zm2.56,6.59-3.84-1.92L37.47,40h2.14ZM26.53,40l3.89,4.67-3.84,1.92L24.39,40Zm-4.2.15,2.72,8.17A1,1,0,0,0,26,49a1,1,0,0,0,.45-.11L31,46.62V61a28.72,28.72,0,0,1-11-2.58V51H18v6.39a28.48,28.48,0,0,1-4-2.68V50A10,10,0,0,1,22.33,40.15ZM52,53V50A12,12,0,0,0,40,38h-.83a14,14,0,0,0,6.24-8h.09a4.49,4.49,0,0,0,.5-8.95V20a14,14,0,0,0-28,0v1.05a4.49,4.49,0,0,0,.5,9h.09a14,14,0,0,0,6.24,8H24A12,12,0,0,0,12,50v3a29,29,0,1,1,40,0Z"/></g></svg>
