<svg width="25" height="25" viewBox="0 0 25 25" fill="none" xmlns="http://www.w3.org/2000/svg">
<path d="M24.5017 16.9629C24.4336 16.9591 24.3655 16.9719 24.3035 17.0004C24.2194 17.0356 24.1461 17.0926 24.0912 17.1656C24.0363 17.2386 24.0018 17.3249 23.9911 17.4158L23.8836 23.1036L13.23 12.401L23.8807 1.70494L23.986 7.53733C23.9895 7.67153 24.0451 7.79905 24.1411 7.8926C24.2371 7.98614 24.3657 8.03828 24.4995 8.03786H24.5054C24.6362 8.03481 24.7608 7.98087 24.8528 7.8874C24.901 7.83913 24.9389 7.7815 24.9642 7.71803C24.9895 7.65455 25.0016 7.58658 24.9998 7.51825L24.8762 0.622423C24.8732 0.490965 24.8196 0.365785 24.7266 0.273148C24.6335 0.180512 24.5084 0.127618 24.3774 0.125566L17.479 6.68976e-05C17.3446 -0.00152417 17.2149 0.0499987 17.118 0.14351C17.0211 0.237021 16.9648 0.365017 16.9611 0.49986C16.9602 0.599584 16.9881 0.697438 17.0415 0.781581C17.0948 0.865723 17.1713 0.932547 17.2617 0.973966C17.3238 1.00155 17.3907 1.01651 17.4585 1.018L22.7828 1.11414L12.388 11.5533L1.99916 1.11781L7.54214 1.01727C7.6764 1.01342 7.80375 0.95665 7.89658 0.859251C7.98941 0.761852 8.04024 0.631672 8.03807 0.496924C8.03443 0.362474 7.97808 0.23489 7.88126 0.141868C7.78444 0.0488454 7.65496 -0.00210847 7.52093 6.68976e-05L0.623293 0.125566C0.491823 0.127258 0.366169 0.180213 0.272925 0.273221C0.179682 0.36623 0.126167 0.491992 0.123708 0.623891L0.000823092 7.51825C-0.000759043 7.65325 0.0506919 7.78346 0.144047 7.8807C0.237402 7.97794 0.365157 8.03439 0.499677 8.03786C0.791528 8.0584 1.00804 7.81695 1.01535 7.53659L1.11629 1.92438L11.5461 12.401L1.11264 22.8797L1.01535 17.4613C1.01118 17.3276 0.955338 17.2007 0.859648 17.1076C0.763958 17.0145 0.635917 16.9623 0.502603 16.9622H0.496019C0.361764 16.9653 0.234195 17.0216 0.141246 17.1189C0.0482969 17.2161 -0.00245898 17.3464 9.16882e-05 17.4811L0.122976 24.3762C0.12956 24.6521 0.349728 24.8701 0.62183 24.8738L7.51947 25H7.5319C7.66447 24.9993 7.7915 24.9466 7.88592 24.8532C7.98034 24.7599 8.03467 24.6332 8.03734 24.5002C8.03893 24.3657 7.98773 24.236 7.8948 24.139C7.80188 24.0421 7.67468 23.9857 7.54068 23.9821L1.80386 23.8786L12.388 13.2486L22.9744 23.8823L17.4585 23.9821C17.3273 23.988 17.2034 24.0448 17.113 24.1404C17.0226 24.236 16.9727 24.3631 16.9738 24.4949C16.9748 24.6267 17.0267 24.753 17.1186 24.8472C17.2105 24.9414 17.3352 24.9962 17.4665 25H17.479L24.3759 24.8738C24.444 24.8731 24.5112 24.8583 24.5734 24.8304C24.6356 24.8025 24.6913 24.7621 24.7372 24.7116C24.823 24.6204 24.8724 24.5008 24.8762 24.3754L24.9991 17.4818C25.0009 17.4148 24.9895 17.3482 24.9654 17.2857C24.9413 17.2232 24.905 17.1661 24.8587 17.1178C24.8125 17.0695 24.757 17.031 24.6957 17.0044C24.6344 16.9778 24.5685 16.9637 24.5017 16.9629Z" fill="#273951"/>
</svg>
