<svg xmlns="http://www.w3.org/2000/svg" height="511pt" version="1.1" viewBox="-38 1 511 511.99979" width="511pt">
<g id="surface1">
<path d="M 218.492188 178.949219 L 156.097656 235.378906 L 156.097656 326.367188 L 280.890625 326.367188 L 280.871094 235.363281 Z M 218.492188 178.949219 " style=" stroke:none;fill-rule:nonzero;fill:rgb(0%,0%,0%);fill-opacity:1;" />
<path d="M 435.984375 138.914062 L 435.972656 138.519531 C 435.75 133.59375 435.597656 128.390625 435.511719 122.609375 C 435.09375 94.375 412.648438 71.027344 384.417969 69.449219 C 325.550781 66.160156 280.011719 46.964844 241.101562 9.042969 L 240.769531 8.726562 C 228.074219 -2.910156 208.933594 -2.910156 196.242188 8.726562 L 195.90625 9.042969 C 156.996094 46.964844 111.457031 66.160156 52.585938 69.449219 C 24.355469 71.027344 1.914062 94.375 1.492188 122.609375 C 1.410156 128.390625 1.257812 133.59375 1.035156 138.519531 L 1.011719 139.441406 C -0.132812 199.46875 -1.554688 274.175781 23.433594 341.988281 C 37.179688 379.273438 57.988281 411.691406 85.289062 438.332031 C 116.382812 468.675781 157.109375 492.765625 206.34375 509.933594 C 207.921875 510.484375 209.554688 510.929688 211.207031 511.261719 L 211.296875 511.28125 C 213.6875 511.761719 216.09375 512 218.503906 512 C 220.910156 512 223.316406 511.761719 225.707031 511.28125 C 227.398438 510.945312 229.070312 510.488281 230.6875 509.925781 C 279.855469 492.730469 320.535156 468.628906 351.605469 438.289062 C 378.894531 411.636719 399.707031 379.210938 413.460938 341.917969 C 438.546875 273.902344 437.125 199.054688 435.984375 138.914062 Z M 346.097656 274.09375 C 343.132812 277.371094 339.046875 279.039062 334.949219 279.039062 C 331.359375 279.039062 327.753906 277.757812 324.878906 275.160156 L 310.921875 262.539062 L 310.9375 336.996094 C 310.9375 347.703125 302.230469 356.410156 291.527344 356.410156 L 145.460938 356.410156 C 134.757812 356.410156 126.050781 347.703125 126.050781 337 L 126.050781 262.550781 L 112.109375 275.160156 C 109.234375 277.757812 105.628906 279.039062 102.039062 279.039062 C 97.9375 279.039062 93.855469 277.375 90.890625 274.09375 C 85.328125 267.941406 85.804688 258.441406 91.957031 252.875 L 132.03125 216.632812 C 132.300781 216.375 132.574219 216.125 132.859375 215.882812 L 206.003906 149.734375 L 206.351562 149.457031 C 206.445312 149.378906 206.546875 149.3125 206.644531 149.238281 C 206.796875 149.121094 206.953125 149.007812 207.109375 148.898438 C 213.941406 143.925781 223.046875 143.925781 229.878906 148.898438 C 230.035156 149.007812 230.191406 149.125 230.347656 149.242188 C 230.445312 149.316406 230.546875 149.378906 230.640625 149.457031 L 231.316406 150.03125 L 304.140625 215.890625 C 304.148438 215.898438 304.15625 215.90625 304.164062 215.914062 L 345.03125 252.875 C 351.183594 258.441406 351.660156 267.941406 346.097656 274.09375 Z M 346.097656 274.09375 " style=" stroke:none;fill-rule:nonzero;fill:rgb(0%,0%,0%);fill-opacity:1;" />
</g>
</svg>