<svg width="50" height="50" viewBox="0 0 50 50" fill="none" xmlns="http://www.w3.org/2000/svg">
<rect width="50" height="50" fill="white"/>
<path d="M14.6459 1.00027C14.603 1.00045 14.5602 1.00383 14.5179 1.01037H6.89765C5.94216 1.01037 5.10904 1.44506 4.55063 2.06434C3.99222 2.68346 3.66331 3.45771 3.47309 4.25647L0.024956 18.7393C0.00112927 18.8362 -0.00570674 18.9364 0.00475204 19.0356C0.00246891 19.0614 0.0013453 19.0872 0.00138473 19.1131C0.00139283 21.6052 1.30925 23.9127 3.44279 25.1642C3.44497 25.1654 3.44733 25.1662 3.44952 25.1675V48.4222C3.44954 48.6508 3.54037 48.8701 3.70203 49.0318C3.86369 49.1934 4.08293 49.2842 4.31155 49.2843H45.6892C45.9178 49.2842 46.137 49.1934 46.2987 49.0318C46.4604 48.8701 46.5512 48.6508 46.5512 48.4222V25.1675C46.5525 25.1668 46.5533 25.1649 46.5546 25.1642C48.6881 23.9127 49.9993 21.6052 49.9993 19.1131C49.9991 19.0906 49.998 19.0681 49.996 19.0457C49.996 19.0435 49.996 19.0412 49.996 19.039C49.996 19.0345 49.996 19.03 49.996 19.0255C50.0053 18.9297 49.9984 18.8329 49.9758 18.7393L46.5276 4.25647C46.3374 3.45771 46.0085 2.68346 45.4501 2.06434C44.8917 1.44506 44.0586 1.01037 43.1031 1.01037H35.4828C35.4316 1.00235 35.3798 0.998973 35.3279 1.00027C35.2873 1.00078 35.2468 1.00415 35.2067 1.01037H25.1384C25.0883 1.00255 25.0376 0.999173 24.9869 1.00027C24.9429 1.00028 24.899 1.00366 24.8556 1.01037H14.7907C14.7428 1.00294 14.6943 0.999561 14.6459 1.00027V1.00027ZM6.89765 2.73444H13.703L12.1338 18.251H6.89765H1.91402L5.15002 4.65718C5.29164 4.06238 5.5367 3.54484 5.83021 3.21933C6.12373 2.89383 6.42044 2.73444 6.89765 2.73444ZM15.4372 2.73444H24.1383V18.251H18.9661H13.8714L15.4372 2.73444ZM25.8624 2.73444H34.5635L36.1294 18.251H31.0346H25.8624V2.73444ZM36.2977 2.73444H43.1031C43.5803 2.73444 43.8736 2.89469 44.1671 3.21933C44.4607 3.54484 44.7091 4.06238 44.8507 4.65718L48.0867 18.251H43.1031H37.8669L36.2977 2.73444ZM1.95106 19.9751H6.89765H11.8409C11.5784 21.4994 10.8158 22.8939 9.47702 23.6792C7.87656 24.6179 5.91538 24.6179 4.31492 23.6792C2.97601 22.8937 2.21346 21.4997 1.95106 19.9751ZM14.0195 19.9751H18.9661H23.9094C23.6468 21.4994 22.8842 22.8939 21.5455 23.6792C19.945 24.6179 17.9838 24.6179 16.3834 23.6792C15.0445 22.8937 14.2819 21.4997 14.0195 19.9751ZM26.088 19.9751H31.0346H35.9778C35.7153 21.4994 34.9527 22.8939 33.614 23.6792C32.0135 24.6179 30.0523 24.6179 28.4519 23.6792C27.113 22.8937 26.3504 21.4997 26.088 19.9751ZM38.1565 19.9751H43.1031H48.0463C47.7838 21.4994 47.0212 22.8939 45.6824 23.6792C44.082 24.6179 42.1208 24.6179 40.5203 23.6792C39.1814 22.8937 38.4189 21.4997 38.1565 19.9751ZM12.9285 22.4804C13.5236 23.5764 14.4044 24.5149 15.5113 25.1642C17.6448 26.4157 20.2841 26.4157 22.4176 25.1642C23.524 24.5152 24.401 23.5758 24.997 22.4804C25.5921 23.5764 26.4729 24.5149 27.5797 25.1642C29.7133 26.4157 32.3526 26.4157 34.4861 25.1642C35.5925 24.5152 36.4695 23.5758 37.0655 22.4804C37.6605 23.5764 38.5414 24.5149 39.6482 25.1642C41.234 26.0944 43.0979 26.3306 44.8271 25.878V47.5602H5.17359V25.878C6.90195 26.3295 8.76433 26.0938 10.3492 25.1642C11.4556 24.5152 12.3326 23.5758 12.9285 22.4804ZM36.3617 33.7677C36.0832 33.7595 35.8054 33.7752 35.53 33.8114C34.4284 33.9562 33.3729 34.4532 32.5465 35.2796C30.8938 36.9321 30.5563 39.5019 31.7249 41.526C32.8935 43.55 35.2861 44.5386 37.5436 43.9336C39.8012 43.3288 41.379 41.2772 41.379 38.9399C41.379 38.7112 41.2882 38.492 41.1265 38.3303C40.9648 38.1687 40.7456 38.0778 40.517 38.0778H36.2068C36.0926 38.0762 35.9792 38.0973 35.8732 38.1399C35.7672 38.1825 35.6707 38.2457 35.5893 38.3259C35.508 38.4062 35.4434 38.5017 35.3993 38.6071C35.3552 38.7125 35.3325 38.8256 35.3325 38.9399C35.3325 39.0541 35.3552 39.1672 35.3993 39.2726C35.4434 39.378 35.508 39.4736 35.5893 39.5538C35.6707 39.634 35.7672 39.6972 35.8732 39.7398C35.9792 39.7824 36.0926 39.8035 36.2068 39.8019H39.362C39.0402 40.9536 38.3003 41.9483 37.0991 42.2701C35.5872 42.6751 34.0026 42.0194 33.22 40.6639C32.4374 39.3085 32.6588 37.6052 33.7655 36.4985C34.8723 35.3917 36.5754 35.1705 37.9309 35.953C38.1291 36.0661 38.3639 36.096 38.5841 36.0363C38.8043 35.9766 38.9919 35.8321 39.1059 35.6345C39.2199 35.4368 39.2509 35.2021 39.1922 34.9816C39.1336 34.7611 38.99 34.5728 38.7929 34.458C38.0339 34.0197 37.1971 33.7922 36.3617 33.7677Z" fill="#273951"/>
</svg>
