<svg width="18" height="18" viewBox="0 0 18 18" fill="none" xmlns="http://www.w3.org/2000/svg">
<path d="M18 9C18 13.9706 13.9706 18 9 18C4.02937 18 0 13.9706 0 9C0 4.02937 4.02937 0 9 0C13.9706 0 18 4.02937 18 9Z" fill="url(#paint0_linear)"/>
<path d="M10.2324 8.62318C9.84588 8.92534 9.83889 9.1362 9.83889 9.50157C9.83889 9.6351 9.76856 9.78963 9.4243 9.78963C9.13612 9.78963 9.03781 9.6842 9.03781 9.31883C9.03781 8.71461 9.30476 8.42644 9.50861 8.2508C9.74046 8.05406 10.1339 7.83621 10.1339 7.45672C10.1339 7.13345 9.85288 6.97881 9.5015 6.97881C8.78474 6.97881 8.93938 7.51993 8.55989 7.51993C8.37015 7.51993 8.13831 7.3934 8.13831 7.11934C8.13831 6.73997 8.574 6.17773 9.52261 6.17773C10.4221 6.17773 11.0193 6.67664 11.0193 7.33719C11.0193 7.99773 10.4221 8.47565 10.2324 8.62318V8.62318ZM9.97242 10.8157C9.97242 11.1037 9.73346 11.3567 9.43129 11.3567C9.12913 11.3567 8.89728 11.1037 8.89728 10.8157C8.89728 10.5205 9.13612 10.2745 9.43129 10.2745C9.72646 10.2745 9.97242 10.5205 9.97242 10.8157Z" fill="white"/>
<path d="M9.58934 13.7143H4.83175C4.58855 13.7143 4.39124 13.5171 4.39124 13.2738V8.51622C4.39124 5.64999 6.72311 3.31812 9.58934 3.31812C12.4557 3.31812 14.7874 5.64999 14.7874 8.51622C14.7874 11.3824 12.4557 13.7143 9.58934 13.7143ZM5.27227 12.8333H9.58934C11.9699 12.8333 13.9064 10.8966 13.9064 8.51622C13.9064 6.13582 11.9699 4.19915 9.58934 4.19915C7.20894 4.19915 5.27227 6.13582 5.27227 8.51622V12.8333Z" fill="white"/>
<defs>
<linearGradient id="paint0_linear" x1="0" y1="9" x2="18" y2="9" gradientUnits="userSpaceOnUse">
<stop stop-color="#0F77FF"/>
<stop offset="1" stop-color="#104993"/>
</linearGradient>
</defs>
</svg>
