<svg width="27" height="27" viewBox="0 0 27 27" fill="none" xmlns="http://www.w3.org/2000/svg">
<path fill-rule="evenodd" clip-rule="evenodd" d="M10.375 26H16.625V1H10.375V26ZM1 26H7.25V13.5001H1V26ZM19.7501 26V8.81255H26.0001V26H19.7501Z" fill="white"/>
<path d="M16.625 26V26.5H17.125V26H16.625ZM10.375 26H9.87504V26.5H10.375V26ZM16.625 1H17.125V0.5H16.625V1ZM10.375 1V0.5H9.87504V1H10.375ZM7.25 26V26.5H7.75V26H7.25ZM1 26H0.5V26.5H1V26ZM7.25 13.5001H7.75V13.0001H7.25V13.5001ZM1 13.5001V13.0001H0.5V13.5001H1ZM19.7501 8.81255V8.31255H19.2501V8.81255H19.7501ZM19.7501 26H19.2501V26.5H19.7501V26ZM26.0001 8.81255H26.5001V8.31255H26.0001V8.81255ZM26.0001 26V26.5H26.5001V26H26.0001ZM16.625 25.5H10.375V26.5H16.625V25.5ZM16.125 1V26H17.125V1H16.125ZM10.375 1.5H16.625V0.5H10.375V1.5ZM10.875 26V1H9.87504V26H10.875ZM7.25 25.5H1V26.5H7.25V25.5ZM6.75 13.5001V26H7.75V13.5001H6.75ZM1 14.0001H7.25V13.0001H1V14.0001ZM1.5 26V13.5001H0.5V26H1.5ZM19.2501 8.81255V26H20.2501V8.81255H19.2501ZM26.0001 8.31255H19.7501V9.31255H26.0001V8.31255ZM26.5001 26V8.81255H25.5001V26H26.5001ZM19.7501 26.5H26.0001V25.5H19.7501V26.5Z" fill="#273951"/>
</svg>
