<svg width="25" height="25" viewBox="0 0 25 25" fill="none" xmlns="http://www.w3.org/2000/svg">
<g clip-path="url(#clip0)">
<path d="M24.3754 10.8258C24.3746 10.8253 24.3741 10.8245 24.3735 10.8239L14.1755 0.626275C13.7408 0.191399 13.1628 -0.0479736 12.5481 -0.0479736C11.9334 -0.0479736 11.3554 0.191399 10.9206 0.626275L0.727856 10.8188C0.724423 10.8222 0.720799 10.8258 0.717556 10.8293C-0.175085 11.7271 -0.173559 13.1837 0.721943 14.0792C1.13107 14.4885 1.67123 14.7254 2.24897 14.7504C2.27262 14.7527 2.29627 14.7538 2.32011 14.7538H2.72638V22.2585C2.72638 23.7438 3.93488 24.9521 5.42013 24.9521H9.40993C9.81448 24.9521 10.1424 24.624 10.1424 24.2197V18.3359C10.1424 17.6582 10.6938 17.1069 11.3715 17.1069H13.7247C14.4024 17.1069 14.9537 17.6582 14.9537 18.3359V24.2197C14.9537 24.624 15.2815 24.9521 15.6861 24.9521H19.6759C21.1613 24.9521 22.3696 23.7438 22.3696 22.2585V14.7538H22.7465C23.3611 14.7538 23.939 14.5145 24.3741 14.0794C25.2705 13.1826 25.2709 11.7233 24.3754 10.8258V10.8258ZM23.3382 13.0437C23.1801 13.2018 22.9699 13.289 22.7465 13.289H21.6372C21.2327 13.289 20.9048 13.6169 20.9048 14.0214V22.2585C20.9048 22.936 20.3536 23.4872 19.6759 23.4872H16.4185V18.3359C16.4185 16.8506 15.2102 15.6421 13.7247 15.6421H11.3715C9.88601 15.6421 8.67751 16.8506 8.67751 18.3359V23.4872H5.42013C4.74264 23.4872 4.19123 22.936 4.19123 22.2585V14.0214C4.19123 13.6169 3.86335 13.289 3.4588 13.289H2.36856C2.35712 13.2882 2.34586 13.2877 2.33423 13.2875C2.11603 13.2837 1.91137 13.1971 1.75802 13.0435C1.43186 12.7174 1.43186 12.1865 1.75802 11.8602C1.75821 11.8602 1.75821 11.86 1.7584 11.8598L1.75897 11.8592L11.9566 1.66197C12.1146 1.50385 12.3246 1.41687 12.5481 1.41687C12.7715 1.41687 12.9815 1.50385 13.1396 1.66197L23.3349 11.8571C23.3365 11.8587 23.3382 11.8602 23.3397 11.8617C23.6641 12.1885 23.6636 12.7181 23.3382 13.0437V13.0437Z" fill="#273951"/>
</g>
<defs>
<clipPath id="clip0">
<rect width="25" height="25" fill="white"/>
</clipPath>
</defs>
</svg>
