<svg width="50" height="50" viewBox="0 0 50 50" fill="none" xmlns="http://www.w3.org/2000/svg">
<g clip-path="url(#clip0)">
<path d="M43.0256 23.8883C43.0244 23.8874 43.0235 23.8862 43.0226 23.8853L27.1137 7.977C26.4356 7.29859 25.534 6.92517 24.575 6.92517C23.616 6.92517 22.7145 7.29859 22.036 7.977L6.13543 23.8773C6.13008 23.8827 6.12442 23.8883 6.11937 23.8937C4.72685 25.2942 4.72923 27.5666 6.12621 28.9636C6.76445 29.6021 7.6071 29.9717 8.50837 30.0107C8.54527 30.0142 8.58216 30.016 8.61936 30.016H9.25313V41.7233C9.25313 44.0403 11.1384 45.9252 13.4554 45.9252H19.6795C20.3106 45.9252 20.8221 45.4135 20.8221 44.7827V35.6039C20.8221 34.5468 21.6823 33.6868 22.7394 33.6868H26.4106C27.4678 33.6868 28.3277 34.5468 28.3277 35.6039V44.7827C28.3277 45.4135 28.8392 45.9252 29.4703 45.9252H35.6943C38.0116 45.9252 39.8966 44.0403 39.8966 41.7233V30.016H40.4846C41.4432 30.016 42.3448 29.6426 43.0235 28.9639C44.422 27.5648 44.4226 25.2883 43.0256 23.8883V23.8883ZM41.4075 27.3482C41.1609 27.5949 40.833 27.7308 40.4846 27.7308H38.754C38.1229 27.7308 37.6114 28.2423 37.6114 28.8734V41.7233C37.6114 42.7802 36.7515 43.6401 35.6943 43.6401H30.6128V35.6039C30.6128 33.2869 28.7279 31.4017 26.4106 31.4017H22.7394C20.4222 31.4017 18.5369 33.2869 18.5369 35.6039V43.6401H13.4554C12.3985 43.6401 11.5383 42.7802 11.5383 41.7233V28.8734C11.5383 28.2423 11.0268 27.7308 10.3957 27.7308H8.69493C8.67708 27.7297 8.65952 27.7288 8.64137 27.7285C8.30098 27.7225 7.98171 27.5874 7.74248 27.3479C7.23368 26.8391 7.23368 26.011 7.74248 25.5019C7.74278 25.5019 7.74278 25.5016 7.74308 25.5013L7.74397 25.5004L23.6523 9.59268C23.8987 9.34601 24.2263 9.21033 24.575 9.21033C24.9234 9.21033 25.251 9.34601 25.4977 9.59268L41.4025 25.4972C41.4049 25.4995 41.4075 25.5019 41.4099 25.5043C41.9161 26.014 41.9152 26.8403 41.4075 27.3482V27.3482Z" fill="black"/>
</g>
<defs>
<clipPath id="clip0">
<rect x="5" y="7" width="39" height="39" fill="white"/>
</clipPath>
</defs>
</svg>
