<?xml version="1.0" encoding="utf-8"?>
<!-- Generator: Adobe Illustrator 22.1.0, SVG Export Plug-In . SVG Version: 6.00 Build 0)  -->
<svg version="1.1" id="Livello_1" xmlns="http://www.w3.org/2000/svg" xmlns:xlink="http://www.w3.org/1999/xlink" x="0px" y="0px"
	 viewBox="0 0 50 50" style="enable-background:new 0 0 50 50;" xml:space="preserve">
<style type="text/css">
	.st0{fill:#273951;}
	.st1{fill:none;stroke:#273951;stroke-width:4.5;stroke-miterlimit:10;}
</style>
<g>
	<path class="st0" d="M26,11.7c10.9,0,19.7,8.9,19.7,19.7l0,14.3H4.4V31.4c0-10.9,8.9-19.7,19.7-19.7H26 M26,7.2h-1.8
		C10.8,7.2-0.1,18-0.1,31.4v15.8c0,1.6,1.3,3,3,3h44.3c1.6,0,3-1.3,3-3l0-15.8C50.2,18,39.3,7.2,26,7.2L26,7.2z"/>
</g>
<line class="st1" x1="-0.1" y1="35.7" x2="47.9" y2="35.7"/>
<g>
	<g>
		<path class="st0" d="M22.7,3.2c0,3,0,6,0,9c0,2.9,4.5,2.9,4.5,0c0-3,0-6,0-9C27.3,0.3,22.7,0.3,22.7,3.2L22.7,3.2z"/>
	</g>
</g>
<path class="st0" d="M33.5,0.8C33,0.3,32.4,0,31.6,0H18.4c-1.6,0-2.4,1.3-2.4,2.5c0,1.2,0.8,2.5,2.4,2.5h13.3c1.6,0,2.4-1.3,2.4-2.5
	C34.1,1.9,33.8,1.3,33.5,0.8z"/>
</svg>
