<svg width="50" height="50" viewBox="0 0 50 50" fill="none" xmlns="http://www.w3.org/2000/svg">
<path d="M25 1.25C11.9 1.25 1.25 11.9 1.25 25C1.25 38.1 11.9 48.75 25 48.75C38.1 48.75 48.75 38.1 48.75 25C48.75 11.9 38.1 1.25 25 1.25ZM30.1 13.6C28.45 13.9 26.75 14.05 25 14.05C23.25 14.05 21.55 13.9 19.9 13.6C21.2 7.7 23.35 4.2 25 4.2C26.65 4.2 28.8 7.7 30.1 13.6ZM30.05 4.85C33.65 5.75 36.9 7.6 39.5 10.15C37.6 11.35 35.4 12.3 33 12.95C32.3 9.75 31.3 6.95 30.05 4.85ZM18.8 23.5C18.85 20.95 19.05 18.6 19.4 16.5C21.25 16.8 23.1 17 25.05 17C26.95 17 28.85 16.8 30.7 16.5C31 18.6 31.2 20.95 31.3 23.5H18.8ZM31.2 26.5C31.15 29.05 30.95 31.4 30.65 33.5C28.8 33.2 26.95 33 25 33C23.1 33 21.2 33.2 19.35 33.5C19.05 31.4 18.85 29.05 18.8 26.5H31.2ZM17 12.95C14.6 12.3 12.4 11.35 10.5 10.15C13.1 7.6 16.35 5.8 19.95 4.85C18.7 6.95 17.7 9.75 17 12.95ZM16.5 15.9C16.1 18.35 15.9 20.95 15.85 23.55H4.35C4.65 19.4 6.2 15.55 8.6 12.4C10.8 13.9 13.55 15.1 16.5 15.9ZM15.8 26.5C15.85 29.1 16.1 31.65 16.45 34.15C13.5 34.95 10.8 36.1 8.5 37.65C6.1 34.5 4.6 30.65 4.3 26.5H15.8ZM17 37.05C17.7 40.25 18.7 43.1 19.95 45.15C16.35 44.25 13.1 42.4 10.5 39.85C12.4 38.65 14.6 37.7 17 37.05ZM19.9 36.4C21.55 36.1 23.25 35.95 25 35.95C26.75 35.95 28.45 36.1 30.1 36.4C28.8 42.3 26.65 45.8 25 45.8C23.35 45.8 21.2 42.3 19.9 36.4ZM33 37.05C35.4 37.7 37.6 38.65 39.5 39.9C36.9 42.45 33.65 44.25 30.05 45.2C31.3 43.05 32.3 40.25 33 37.05ZM33.5 34.1C33.9 31.65 34.1 29.05 34.15 26.45H45.65C45.35 30.6 43.8 34.45 41.4 37.6C39.15 36.1 36.45 34.9 33.5 34.1ZM34.2 23.5C34.15 20.9 33.9 18.35 33.55 15.85C36.5 15.05 39.2 13.9 41.5 12.35C43.9 15.5 45.45 19.3 45.75 23.5H34.2Z" fill="#273951"/>
</svg>
