<svg width="25" height="25" viewBox="0 0 25 25" fill="none" xmlns="http://www.w3.org/2000/svg">
<g clip-path="url(#clip0)">
<path d="M13 5.85C18.45 5.85 22.85 10.3 22.85 15.7V22.85H2.20001V15.7C2.20001 10.25 6.65 5.85 12.05 5.85H13ZM13 3.59998H12.1C5.4 3.59998 -0.0499878 9 -0.0499878 15.7V23.6C-0.0499878 24.4 0.60001 25.1 1.45001 25.1H23.6C24.4 25.1 25.1 24.45 25.1 23.6V15.7C25.1 9 19.65 3.59998 13 3.59998Z" fill="#273951"/>
<path d="M11.35 1.60007C11.35 3.10007 11.35 4.60007 11.35 6.10006C11.35 7.55006 13.6 7.55006 13.6 6.10006C13.6 4.60007 13.6 3.10007 13.6 1.60007C13.65 0.150074 11.35 0.150074 11.35 1.60007Z" fill="#273951"/>
<path d="M16.75 0.4C16.5 0.15 16.2 0 15.8 0H9.2C8.4 0 8 0.65 8 1.25C8 1.85 8.4 2.5 9.2 2.5H15.85C16.65 2.5 17.05 1.85 17.05 1.25C17.05 0.95 16.9 0.65 16.75 0.4Z" fill="#273951"/>
<path d="M23.7033 16.8459C23.035 16.6297 25.2476 16.5 24.1783 16.5H1.29368C-0.844861 16.5 0.312896 17.062 0.312896 17.5809C0.312896 18.0997 -0.0140083 18.6617 1.29368 18.6617H23.7033C25.8418 18.6617 24.5052 18.0997 24.5052 17.5809C24.5052 17.3214 24.1043 17.062 23.7033 16.8459Z" fill="#273951"/>
</g>
<defs>
<clipPath id="clip0">
<rect width="25" height="25" fill="white"/>
</clipPath>
</defs>
</svg>
