<svg width="25" height="25" viewBox="0 0 25 25" fill="none" xmlns="http://www.w3.org/2000/svg">
<g clip-path="url(#clip0)">
<path d="M5.19623 20.8158H20.834C21.4415 20.8158 21.917 20.3158 21.917 19.7368V1.07895C21.917 0.473684 21.4151 0 20.834 0H3.08302C2.47547 0 2 0.5 2 1.07895V21.8158C2 23.5789 3.42642 25 5.19623 25H20.834C21.4415 25 21.917 24.5 21.917 23.9211C21.917 23.3158 21.4151 22.8421 20.834 22.8421H5.19623C4.64151 22.8421 4.19245 22.3947 4.19245 21.8421C4.19245 21.2632 4.64151 20.8158 5.19623 20.8158ZM4.19245 2.18421H19.751V18.6316H5.19623C4.85283 18.6316 4.50944 18.6842 4.19245 18.7895V2.18421V2.18421Z" fill="#273951"/>
<path d="M12.7518 15.8686C13.914 13.8686 15.948 10.1318 15.948 8.57915C15.948 6.39494 14.1518 4.60547 11.9593 4.60547C9.76687 4.60547 7.97064 6.39494 7.97064 8.57915C7.97064 10.1318 10.0046 13.8686 11.1669 15.8686C11.5103 16.5002 12.4084 16.5002 12.7518 15.8686ZM10.1103 8.57915C10.1103 7.55284 10.9556 6.73705 11.9593 6.73705C12.9895 6.73705 13.8084 7.57915 13.8084 8.57915C13.8084 9.57915 12.9631 10.4213 11.9593 10.4213C10.9291 10.4213 10.1103 9.60547 10.1103 8.57915Z" fill="#273951"/>
</g>
<defs>
<clipPath id="clip0">
<rect width="25" height="25" fill="white"/>
</clipPath>
</defs>
</svg>
