<svg width="50" height="50" viewBox="0 0 50 50" fill="none" xmlns="http://www.w3.org/2000/svg">
<path d="M10.2 31.9C9.75004 31.9 9.35004 31.5 9.35004 31.05C9.35004 22.45 16.35 15.4 25 15.4C25.45 15.4 25.85 15.8 25.85 16.25C25.85 16.7 25.45 17.1 25 17.1C17.3 17.1 11.05 23.35 11.05 31.05C11.05 31.5 10.65 31.9 10.2 31.9Z" fill="#273951"/>
<path d="M46.65 38.45C47.1 38.45 47.5 38.05 47.5 37.6V34.05C47.5 33.6 47.1 33.2 46.65 33.2C45.45 33.2 44.5 32.25 44.5 31.05C44.5 20.6 36.2 12 25.85 11.6V8.6C27.15 8.25 28.15 7.05 28.15 5.6C28.15 3.9 26.75 2.5 25.05 2.5C23.35 2.5 21.95 3.9 21.95 5.6C21.95 7.05 22.9 8.25 24.25 8.6V11.6C13.8 12 5.5 20.6 5.5 31.05C5.5 32.25 4.55 33.2 3.35 33.2C2.9 33.2 2.5 33.6 2.5 34.05V37.6C2.5 38.05 2.9 38.45 3.35 38.45H5.5V40.65H3.35C2.9 40.65 2.5 41.05 2.5 41.5V46.3C2.5 46.75 2.9 47.15 3.35 47.15H46.65C47.1 47.15 47.5 46.75 47.5 46.3V41.45C47.5 41 47.1 40.6 46.65 40.6H44.5V38.4H46.65V38.45ZM23.55 5.55C23.55 4.75 24.2 4.1 25 4.1C25.8 4.1 26.45 4.75 26.45 5.55C26.45 6.35 25.8 7 25 7C24.2 7 23.55 6.35 23.55 5.55ZM45.8 42.3V45.45H4.2V42.3H45.8ZM7.2 40.65V38.45H42.8V40.65H7.2ZM4.2 36.75V34.8C5.9 34.4 7.2 32.85 7.2 31.05C7.2 21.25 15.2 13.25 25 13.25C34.8 13.25 42.8 21.25 42.8 31.05C42.8 32.9 44.1 34.4 45.8 34.8V36.75H4.2Z" fill="#273951"/>
</svg>
