<svg width="25" height="25" viewBox="0 0 25 25" fill="none" xmlns="http://www.w3.org/2000/svg">
<path d="M18.2639 14.3122C18.2639 14.4695 18.2587 14.6243 18.2457 14.7817C18.2405 14.854 18.2326 14.9236 18.2248 14.9959C18.2222 15.0191 18.2118 15.1017 18.2196 15.0346C18.2144 15.0759 18.2066 15.1171 18.2014 15.1558C18.1518 15.4551 18.0814 15.7493 17.9875 16.0382C17.9432 16.175 17.8911 16.3091 17.8389 16.4433C17.8363 16.4485 17.8154 16.5001 17.8311 16.4614C17.8493 16.4175 17.8207 16.4846 17.8154 16.4949C17.8024 16.5259 17.7868 16.5568 17.7737 16.5878C17.7424 16.6549 17.7111 16.7219 17.6772 16.789C17.5443 17.047 17.3956 17.2947 17.2261 17.5295C17.1844 17.5888 17.1401 17.6482 17.0958 17.7075C17.1349 17.6559 17.0879 17.7178 17.0723 17.7359C17.0462 17.7669 17.0228 17.7978 16.9967 17.8288C16.9028 17.9423 16.8037 18.0507 16.6994 18.1565C16.6003 18.2571 16.4986 18.3551 16.3917 18.4506C16.337 18.4996 16.2796 18.5486 16.2249 18.5951C16.1988 18.6157 16.1727 18.6389 16.1466 18.6596C16.1284 18.6725 16.0475 18.7344 16.1049 18.6931C15.8728 18.8686 15.6277 19.0259 15.3748 19.1653C15.2444 19.2375 15.1114 19.3046 14.9759 19.3665C14.9446 19.382 14.9133 19.3949 14.882 19.4078C14.8663 19.4155 14.8507 19.4207 14.835 19.4284C14.8403 19.4259 14.8898 19.4052 14.8481 19.4233C14.7725 19.4542 14.6968 19.4826 14.6212 19.511C14.3396 19.6116 14.0528 19.6916 13.7607 19.7509C13.6903 19.7638 13.6199 19.7767 13.5495 19.7896C13.5078 19.7974 13.4661 19.8025 13.427 19.8077C13.3801 19.8154 13.4348 19.8077 13.4426 19.8051C13.4192 19.8077 13.3957 19.8103 13.3722 19.8129C13.221 19.8309 13.0724 19.8412 12.9211 19.8464C12.6056 19.8593 12.2901 19.8464 11.9746 19.8103C11.9563 19.8077 11.9381 19.8051 11.9198 19.8025C11.9251 19.8025 11.9824 19.8103 11.9355 19.8051C11.899 19.8 11.8651 19.7948 11.8286 19.7896C11.753 19.7767 11.6773 19.7638 11.6017 19.7484C11.4531 19.7174 11.3019 19.6839 11.1558 19.6426C11.0098 19.6013 10.8664 19.5549 10.723 19.5033C10.6578 19.48 10.5926 19.4542 10.5274 19.4284C10.457 19.4001 10.5613 19.4439 10.4935 19.413C10.457 19.3975 10.4205 19.3794 10.384 19.3639C10.1128 19.2401 9.85208 19.0982 9.60176 18.9356C9.48182 18.8582 9.36708 18.7757 9.25235 18.6905C9.31233 18.737 9.22628 18.6699 9.21063 18.657C9.18456 18.6364 9.15848 18.6131 9.13241 18.5925C9.07504 18.5461 9.02029 18.497 8.96553 18.448C8.7465 18.2519 8.5405 18.0404 8.35015 17.8159C8.32929 17.7901 8.30583 17.7643 8.28497 17.7385C8.26932 17.7204 8.22239 17.6585 8.2615 17.7101C8.21717 17.6508 8.17284 17.5914 8.13112 17.5321C8.04507 17.4108 7.96424 17.2896 7.88862 17.1631C7.813 17.0367 7.73999 16.9077 7.6722 16.7761C7.64091 16.7142 7.61223 16.6523 7.58354 16.5904C7.5679 16.5594 7.55486 16.5284 7.54182 16.4975C7.534 16.482 7.52879 16.4665 7.52096 16.451C7.53661 16.4872 7.534 16.4794 7.52096 16.4485C7.40884 16.1698 7.31497 15.886 7.24457 15.5919C7.21067 15.45 7.18199 15.3055 7.15852 15.161C7.1533 15.1249 7.14809 15.0913 7.14287 15.0552C7.13505 15.0088 7.14287 15.063 7.14548 15.0707C7.14287 15.0475 7.14027 15.0243 7.13766 15.001C7.12984 14.9236 7.12201 14.8462 7.11419 14.7688C7.09072 14.4618 7.09072 14.1548 7.1168 13.8477C7.12201 13.7703 7.12984 13.6929 7.14027 13.6181C7.14287 13.6001 7.14548 13.582 7.14809 13.5639C7.14809 13.5691 7.14027 13.6259 7.14548 13.5794C7.1507 13.5381 7.15852 13.4969 7.16373 13.4582C7.18981 13.3085 7.21849 13.1589 7.255 13.0118C7.3254 12.7254 7.41927 12.4468 7.53139 12.1733C7.54704 12.132 7.52879 12.181 7.52618 12.1862C7.534 12.1707 7.53922 12.1552 7.54704 12.1397C7.56008 12.1088 7.57572 12.0778 7.58876 12.0469C7.62266 11.9746 7.65655 11.9024 7.69306 11.8327C7.75825 11.7063 7.82865 11.5824 7.90166 11.4612C7.97728 11.3348 8.06072 11.2135 8.14677 11.0922C8.18588 11.038 8.2276 10.9813 8.26932 10.9297C8.23021 10.9813 8.27714 10.9194 8.29279 10.9013C8.32147 10.8652 8.35015 10.8316 8.37884 10.7955C8.56397 10.5762 8.76736 10.3698 8.98378 10.1763C9.03593 10.1324 9.08547 10.086 9.14023 10.0447C9.16631 10.0241 9.19238 10.0009 9.21846 9.98022C9.23149 9.9699 9.24453 9.95957 9.25757 9.94925C9.34362 9.88217 9.22367 9.97505 9.27321 9.93635C9.38794 9.85121 9.50268 9.76865 9.62262 9.69383C9.87294 9.53386 10.1337 9.38938 10.4049 9.26812C10.4362 9.25264 10.4675 9.23973 10.4987 9.22683C10.5665 9.19587 10.4622 9.23974 10.5326 9.21135C10.603 9.18297 10.6735 9.15717 10.7439 9.13137C10.8873 9.07977 11.0307 9.03333 11.1767 8.99463C11.3227 8.95335 11.474 8.91981 11.6226 8.88885C11.693 8.87595 11.7634 8.86304 11.8338 8.85272C11.8703 8.84756 11.9042 8.8424 11.9407 8.83724C11.9876 8.8295 11.9329 8.83724 11.9251 8.83982C11.9485 8.83724 11.972 8.83466 11.9955 8.83208C12.3084 8.79596 12.6265 8.78564 12.942 8.79854C13.0932 8.8037 13.2445 8.8166 13.3931 8.83466C13.4113 8.83724 13.4296 8.83982 13.4478 8.8424C13.4426 8.8424 13.3853 8.83466 13.4322 8.83982C13.4739 8.84498 13.5156 8.85272 13.5548 8.85788C13.6304 8.87078 13.706 8.88369 13.7816 8.89917C14.0737 8.95851 14.3631 9.03849 14.6421 9.14169C14.7125 9.16749 14.7829 9.19587 14.8533 9.22167C14.895 9.23716 14.8455 9.21909 14.8403 9.21651C14.8559 9.22425 14.8716 9.22942 14.8872 9.23716C14.9237 9.25264 14.9602 9.2707 14.9967 9.28618C15.1323 9.3481 15.2653 9.41518 15.3957 9.48742C15.5208 9.55708 15.6434 9.62933 15.7633 9.70673C15.8259 9.74801 15.8859 9.78929 15.9485 9.83057C15.9771 9.85121 16.0032 9.86927 16.0319 9.88991C16.0449 9.90023 16.0606 9.91055 16.0736 9.92087C16.0788 9.92603 16.1362 9.96732 16.1023 9.94151C16.0736 9.92087 16.144 9.97506 16.1571 9.98538C16.1831 10.006 16.2092 10.0292 16.2353 10.0499C16.2953 10.1015 16.3578 10.1531 16.4152 10.2047C16.5195 10.3001 16.6238 10.3982 16.7203 10.4988C16.822 10.6046 16.9211 10.713 17.0149 10.8265C17.0358 10.8523 17.0593 10.8781 17.0801 10.9039C17.0958 10.9219 17.1427 10.9839 17.1036 10.9323C17.1531 10.9942 17.2001 11.0587 17.2444 11.1232C17.4113 11.3606 17.5625 11.6082 17.6929 11.8662C17.7242 11.9282 17.7529 11.9901 17.7815 12.052C17.7972 12.0881 17.8154 12.1243 17.8311 12.1604C17.8337 12.1655 17.8545 12.2171 17.8389 12.1784C17.8233 12.1397 17.8493 12.2042 17.8519 12.212C17.9067 12.3461 17.9562 12.4803 18.0006 12.617C18.0944 12.906 18.1648 13.2001 18.2118 13.4994C18.217 13.5356 18.2222 13.5691 18.2274 13.6052C18.217 13.5381 18.2274 13.6181 18.2326 13.6439C18.2405 13.7136 18.2483 13.7858 18.2535 13.8581C18.2587 14 18.2639 14.1574 18.2639 14.3122C18.2639 14.5134 18.4438 14.7095 18.6551 14.6992C18.8663 14.6888 19.0462 14.5289 19.0462 14.3122C19.041 13.0195 18.642 11.7321 17.8806 10.6794C17.1218 9.62933 16.0658 8.82692 14.8403 8.38315C13.6017 7.93422 12.2093 7.89036 10.942 8.24383C9.71649 8.58698 8.59005 9.30424 7.77911 10.2795C6.93427 11.2935 6.42581 12.5319 6.32151 13.8426C6.21981 15.1326 6.53793 16.4536 7.21328 17.5605C7.87037 18.6364 8.85601 19.5187 10.0137 20.0373C11.2497 20.592 12.6291 20.7494 13.9615 20.4837C15.2157 20.2334 16.3917 19.5858 17.2757 18.6699C18.1596 17.7565 18.7672 16.5749 18.9627 15.3235C19.0149 14.9881 19.0462 14.6501 19.0462 14.3096C19.0462 14.1083 18.8663 13.9122 18.6551 13.9226C18.4438 13.9355 18.2665 14.0954 18.2639 14.3122Z" fill="#273951"/>
<path d="M18.2611 14.3098C18.2611 14.3408 18.2584 14.3743 18.2558 14.4053C18.2532 14.4646 18.2584 14.3614 18.2637 14.3589C18.2558 14.3666 18.2584 14.395 18.2558 14.4053C18.248 14.4337 18.2428 14.4621 18.235 14.4879C18.2298 14.5033 18.2246 14.5188 18.2193 14.5343C18.1907 14.622 18.2115 14.5214 18.2272 14.524C18.2245 14.524 18.1489 14.6711 18.1411 14.6865C18.1229 14.7175 18.0994 14.7459 18.0811 14.7743C18.0629 14.8026 18.0733 14.813 18.102 14.7485C18.0942 14.7639 18.0707 14.7872 18.0603 14.8001C18.0107 14.8568 17.9586 14.9084 17.9064 14.96C17.8804 14.9858 17.8517 15.009 17.823 15.0348C17.8073 15.0477 17.7891 15.0606 17.7734 15.0761C17.7057 15.1329 17.7995 15.0606 17.7708 15.0787C17.6196 15.1819 17.4684 15.2851 17.3067 15.3728C17.2259 15.4167 17.1424 15.458 17.0564 15.4993C17.0068 15.5225 16.9573 15.5431 16.9078 15.5663C16.8869 15.5741 16.866 15.5844 16.8478 15.5921C16.926 15.5586 16.8347 15.5973 16.8165 15.605C16.5949 15.6928 16.368 15.7702 16.1411 15.8372C15.6431 15.9843 15.1294 16.0875 14.6157 16.1623C14.3993 16.1933 14.0786 16.2268 13.81 16.2475C13.5049 16.2707 13.1999 16.2836 12.8948 16.2888C12.2951 16.2965 11.6927 16.2707 11.0956 16.2062C10.6132 16.1546 10.063 16.0591 9.54673 15.9276C9.31205 15.8682 9.07738 15.7985 8.84791 15.7186C8.74361 15.6824 8.63931 15.6437 8.53762 15.6025C8.51676 15.5947 8.4959 15.5844 8.47504 15.5767C8.54805 15.6076 8.48025 15.5792 8.462 15.5715C8.40724 15.5483 8.35248 15.5225 8.30033 15.4993C8.12824 15.4193 7.95875 15.329 7.79969 15.2258C7.72407 15.1768 7.64846 15.1251 7.57544 15.071C7.64324 15.12 7.58588 15.0761 7.55458 15.0503C7.51547 15.0194 7.47897 14.9858 7.44246 14.9523C7.39031 14.9033 7.34338 14.8542 7.29644 14.8001C7.2834 14.7872 7.27297 14.7717 7.25993 14.7562C7.22604 14.7175 7.31469 14.8388 7.27297 14.7743C7.25472 14.7433 7.23125 14.7175 7.213 14.6865C7.19475 14.6582 7.17649 14.6272 7.16085 14.5962C7.15042 14.5782 7.11131 14.4853 7.13738 14.5524C7.16606 14.622 7.12956 14.524 7.12174 14.5059C7.11131 14.4724 7.10348 14.4388 7.09566 14.4027C7.06959 14.2969 7.09566 14.4569 7.09305 14.4027C7.09305 14.3718 7.08784 14.3408 7.08784 14.3073C7.08784 14.2789 7.09045 14.2505 7.09045 14.2221C7.09305 14.1628 7.11391 14.2247 7.08523 14.2582C7.09045 14.2505 7.09305 14.2118 7.09566 14.2015C7.10088 14.1808 7.15303 14.0441 7.14781 14.0364C7.16085 14.0518 7.10088 14.1292 7.13999 14.057C7.1452 14.0441 7.15303 14.0338 7.15824 14.0209C7.17649 13.9873 7.19475 13.9538 7.21561 13.9228C7.23386 13.897 7.25211 13.8712 7.27036 13.8429C7.30426 13.7887 7.2495 13.8661 7.2495 13.8687C7.25733 13.8506 7.2808 13.8325 7.29123 13.8171C7.34338 13.7577 7.39813 13.7009 7.4555 13.6493C7.48157 13.6235 7.51026 13.6003 7.53894 13.5745C7.5598 13.559 7.65888 13.4816 7.57023 13.5461C7.64324 13.492 7.71625 13.4404 7.79448 13.3913C7.96396 13.283 8.14128 13.1901 8.3238 13.105C8.36292 13.0869 8.40203 13.0688 8.44114 13.0508C8.45157 13.0456 8.55326 13.0043 8.46982 13.0379C8.49068 13.0301 8.51154 13.0198 8.5324 13.0121C8.63931 12.9682 8.74883 12.9295 8.85834 12.8908C9.33813 12.7257 9.83356 12.607 10.3342 12.5193C11.4398 12.3232 12.6575 12.2819 13.8257 12.3722C14.3863 12.4161 14.8556 12.478 15.4163 12.5993C15.8908 12.6999 16.3602 12.834 16.8113 13.0121C16.8087 13.0121 16.913 13.0533 16.8582 13.0301C16.8035 13.0069 16.9051 13.0508 16.9025 13.0508C16.9469 13.0714 16.9912 13.0895 17.0355 13.1101C17.1346 13.1566 17.2311 13.2056 17.325 13.2572C17.4814 13.3423 17.63 13.4404 17.7734 13.5436C17.6822 13.4765 17.7943 13.5616 17.8152 13.5797C17.8412 13.6003 17.8647 13.6235 17.8882 13.6442C17.9482 13.7009 18.0055 13.7577 18.0603 13.8196C18.0629 13.8248 18.0968 13.8609 18.0968 13.8635C18.0942 13.8661 18.0394 13.7809 18.0759 13.8377C18.0968 13.8661 18.1176 13.8945 18.1359 13.9254C18.1515 13.9512 18.1672 13.9796 18.1828 14.0054C18.1907 14.0209 18.1985 14.0364 18.2063 14.0493C18.2428 14.1163 18.1854 14.0441 18.1985 14.0286C18.1933 14.0338 18.248 14.1783 18.2506 14.1937C18.2532 14.2092 18.2558 14.2247 18.2584 14.2402C18.2741 14.2866 18.2506 14.1318 18.2532 14.2041C18.2584 14.2479 18.2611 14.2789 18.2611 14.3098C18.2637 14.5111 18.4384 14.7072 18.6522 14.6969C18.8634 14.6865 19.0459 14.5266 19.0433 14.3098C19.0355 13.541 18.4019 12.9785 17.7734 12.6251C16.8817 12.1219 15.8465 11.8665 14.8374 11.7194C13.5675 11.5363 12.2742 11.5079 10.9991 11.6549C9.90657 11.7814 8.80359 12.011 7.81012 12.4961C7.18692 12.8031 6.46203 13.3062 6.32905 14.0364C6.18564 14.8078 6.69671 15.4193 7.30166 15.8321C8.11259 16.3816 9.12431 16.6603 10.0813 16.8332C11.3329 17.0602 12.621 17.1144 13.8909 17.0112C15.0225 16.9183 16.1568 16.7119 17.205 16.2707C17.9116 15.974 18.6783 15.5199 18.9599 14.7691C19.0146 14.6246 19.0407 14.4646 19.0407 14.3098C19.0433 14.1086 18.8582 13.9125 18.6496 13.9228C18.4384 13.9332 18.2637 14.0931 18.2611 14.3098Z" fill="#273951"/>
<path d="M12.6767 8.78296C12.708 8.78296 12.7419 8.78554 12.7732 8.78812C12.8332 8.7907 12.7289 8.78554 12.7263 8.78038C12.7341 8.78812 12.7628 8.78554 12.7732 8.78812C12.8019 8.79586 12.8306 8.80102 12.8566 8.80876C12.8723 8.81392 12.8879 8.81908 12.9036 8.82424C12.9922 8.85262 12.8905 8.83198 12.8932 8.8165C12.8932 8.81908 13.0418 8.8939 13.0574 8.90164C13.0887 8.9197 13.1174 8.94292 13.1461 8.96099C13.1748 8.97905 13.1852 8.96873 13.12 8.94034C13.1357 8.94809 13.1591 8.97131 13.1722 8.98163C13.2295 9.03065 13.2817 9.08225 13.3338 9.13385C13.3599 9.15965 13.3834 9.18803 13.4094 9.21641C13.4225 9.23189 13.4355 9.24995 13.4512 9.26543C13.5085 9.33252 13.4355 9.23963 13.4538 9.26801C13.5581 9.41766 13.6624 9.5673 13.751 9.72727C13.7954 9.80725 13.8371 9.88981 13.8788 9.97495C13.9023 10.024 13.9231 10.073 13.9466 10.122C13.9544 10.1427 13.9648 10.1633 13.9727 10.1814C13.9388 10.104 13.9779 10.1943 13.9857 10.2123C14.0744 10.4316 14.1526 10.6561 14.2204 10.8806C14.369 11.3734 14.4733 11.8816 14.5489 12.3899C14.5802 12.604 14.6141 12.9214 14.635 13.1871C14.6584 13.489 14.6715 13.7909 14.6767 14.0928C14.6845 14.6862 14.6584 15.2822 14.5933 15.873C14.5411 16.3503 14.4446 16.8947 14.3116 17.4056C14.2517 17.6378 14.1813 17.87 14.1004 18.097C14.0639 18.2002 14.0248 18.3034 13.9831 18.4041C13.9753 18.4247 13.9648 18.4453 13.957 18.466C13.9883 18.3937 13.9596 18.4608 13.9518 18.4789C13.9283 18.5331 13.9023 18.5872 13.8788 18.6388C13.798 18.8091 13.7067 18.9768 13.6024 19.1342C13.5529 19.209 13.5007 19.2839 13.4459 19.3561C13.4955 19.289 13.4512 19.3458 13.4251 19.3767C13.3938 19.4154 13.3599 19.4516 13.326 19.4877C13.2765 19.5393 13.2269 19.5857 13.1722 19.6322C13.1591 19.6451 13.1435 19.6554 13.1278 19.6683C13.0887 19.7018 13.2113 19.6141 13.1461 19.6554C13.1148 19.6734 13.0887 19.6967 13.0574 19.7147C13.0287 19.7328 12.9975 19.7509 12.9662 19.7663C12.9479 19.7767 12.854 19.8154 12.9218 19.7896C12.9922 19.7612 12.8932 19.7973 12.8749 19.805C12.841 19.8154 12.8071 19.8231 12.7706 19.8308C12.6637 19.8566 12.8254 19.8308 12.7706 19.8334C12.7393 19.8334 12.708 19.8386 12.6741 19.8386C12.6454 19.8386 12.6168 19.836 12.5881 19.836C12.5281 19.8334 12.5907 19.8128 12.6246 19.8412C12.6168 19.836 12.5776 19.8334 12.5672 19.8308C12.5464 19.8257 12.4082 19.7741 12.4003 19.7792C12.416 19.7663 12.4942 19.8257 12.4212 19.787C12.4082 19.7818 12.3977 19.7741 12.3847 19.7689C12.3508 19.7509 12.3169 19.7328 12.2856 19.7122C12.2595 19.6941 12.2335 19.676 12.2048 19.658C12.15 19.6244 12.2282 19.6786 12.2308 19.6786C12.2126 19.6709 12.1943 19.6476 12.1787 19.6373C12.1187 19.5857 12.0614 19.5315 12.0092 19.4748C11.9831 19.449 11.9597 19.4206 11.9336 19.3922C11.9179 19.3716 11.8397 19.2735 11.9049 19.3613C11.8501 19.289 11.798 19.2168 11.7485 19.1394C11.6389 18.9717 11.5451 18.7962 11.459 18.6156C11.4408 18.5769 11.4225 18.5382 11.4043 18.4995C11.399 18.4892 11.3573 18.3886 11.3912 18.4711C11.3834 18.4505 11.373 18.4299 11.3651 18.4092C11.3208 18.3034 11.2817 18.1951 11.2426 18.0867C11.0757 17.612 10.9558 17.1218 10.8671 16.6264C10.6689 15.5324 10.6272 14.3275 10.7185 13.1717C10.7628 12.6169 10.8254 12.1525 10.9479 11.5978C11.0496 11.1282 11.1852 10.6638 11.3651 10.2175C11.3651 10.2201 11.4069 10.1169 11.3834 10.171C11.3599 10.2252 11.4043 10.1246 11.4043 10.1272C11.4251 10.0833 11.4434 10.0395 11.4642 9.99559C11.5112 9.89755 11.5607 9.80209 11.6129 9.70921C11.6989 9.5544 11.798 9.40734 11.9023 9.26543C11.8345 9.35574 11.9205 9.24479 11.9388 9.22415C11.9597 9.19835 11.9831 9.17513 12.004 9.15191C12.0614 9.09257 12.1187 9.03581 12.1813 8.98163C12.1865 8.97905 12.223 8.9455 12.2256 8.9455C12.2282 8.94808 12.1422 9.00227 12.1996 8.96615C12.2282 8.94551 12.2569 8.92486 12.2882 8.9068C12.3143 8.89132 12.343 8.87584 12.369 8.86036C12.3847 8.85262 12.4003 8.84488 12.4134 8.83714C12.4812 8.80102 12.4082 8.85778 12.3925 8.84488C12.3977 8.85004 12.5437 8.79586 12.5594 8.79328C12.575 8.7907 12.5907 8.78812 12.6063 8.78554C12.6533 8.77006 12.4968 8.79328 12.5698 8.7907C12.6115 8.78812 12.6454 8.78296 12.6767 8.78296C12.8801 8.78038 13.0783 8.60752 13.0679 8.39595C13.0574 8.18696 12.8958 8.00636 12.6767 8.00894C11.8997 8.01668 11.3313 8.64364 10.974 9.26543C10.4656 10.1478 10.2074 11.1721 10.0588 12.1706C9.87365 13.4271 9.84497 14.7068 9.99359 15.9685C10.1214 17.0495 10.3534 18.1409 10.8436 19.1239C11.1539 19.7405 11.6624 20.4578 12.4003 20.5894C13.18 20.7313 13.798 20.2256 14.2152 19.627C14.7706 18.8246 15.0522 17.8235 15.2269 16.8766C15.4563 15.6382 15.5111 14.3637 15.4068 13.1072C15.3129 11.9874 15.1043 10.8651 14.6584 9.82789C14.3586 9.12869 13.8997 8.37015 13.1409 8.0915C12.9948 8.03732 12.8332 8.01152 12.6767 8.01152C12.4733 8.00894 12.2752 8.19212 12.2856 8.39853C12.296 8.60752 12.4577 8.78038 12.6767 8.78296Z" fill="#273951"/>
<path d="M21.5655 5.25002C21.5655 5.40482 21.5655 5.56221 21.5655 5.71701C21.5655 6.1453 21.5655 6.57359 21.5655 7.00189C21.5655 7.634 21.5655 8.26612 21.5655 8.89824C21.5655 9.67226 21.5655 10.4437 21.5655 11.2177C21.5655 12.0717 21.5655 12.9257 21.5655 13.7797C21.5655 14.6415 21.5655 15.5058 21.5655 16.3675C21.5655 17.1777 21.5655 17.9904 21.5655 18.8006C21.5655 19.4998 21.5655 20.199 21.5655 20.8981C21.5655 21.4142 21.5655 21.9302 21.5655 22.4436C21.5655 22.7145 21.5655 22.988 21.5655 23.2589C21.5655 23.2821 21.5655 23.3028 21.5655 23.326C21.5655 23.3286 21.5655 23.3337 21.5655 23.3363C21.5655 23.3776 21.5629 23.4189 21.5603 23.4627C21.5551 23.5092 21.5603 23.4524 21.5629 23.4473C21.5603 23.4653 21.5577 23.4808 21.5525 23.4989C21.5447 23.5376 21.5342 23.5763 21.5212 23.615C21.5134 23.6382 21.4847 23.713 21.5108 23.6511C21.4977 23.682 21.4821 23.713 21.4664 23.7414C21.4482 23.7749 21.4273 23.8085 21.4039 23.842C21.396 23.8575 21.3856 23.8704 21.3752 23.8833C21.396 23.8523 21.396 23.8601 21.3726 23.8833C21.3256 23.9323 21.2787 23.9788 21.2292 24.0252C21.177 24.0716 21.2605 24.0097 21.2005 24.0458C21.1666 24.0665 21.1327 24.0897 21.0988 24.1078C21.0701 24.1232 21.0388 24.1387 21.0075 24.1542C20.9658 24.1723 21.0153 24.149 21.0206 24.149C21.0049 24.1542 20.9893 24.1619 20.971 24.1671C20.9371 24.1774 20.9032 24.1877 20.8693 24.1955C20.8459 24.2006 20.7416 24.2161 20.8172 24.2084C20.7676 24.2135 20.7181 24.2161 20.6685 24.2161C20.4599 24.2187 20.2513 24.2161 20.0427 24.2161C19.5421 24.2161 19.0388 24.2161 18.5382 24.2161C17.829 24.2161 17.1171 24.2161 16.4079 24.2161C15.5682 24.2161 14.7312 24.2161 13.8916 24.2161C13.0181 24.2161 12.1446 24.2161 11.271 24.2161C10.4419 24.2161 9.61267 24.2161 8.78348 24.2161C8.08205 24.2161 7.37802 24.2161 6.6766 24.2161C6.1916 24.2161 5.70921 24.2161 5.22421 24.2161C5.03908 24.2161 4.85395 24.2187 4.66881 24.2161C4.65838 24.2161 4.64274 24.2161 4.63231 24.2161C4.60884 24.2161 4.58537 24.2135 4.5593 24.211C4.55408 24.211 4.49411 24.2032 4.54104 24.2084C4.58016 24.2135 4.48629 24.1955 4.47064 24.1929C4.43153 24.1826 4.39241 24.1697 4.3533 24.1594C4.2829 24.1413 4.38199 24.18 4.3194 24.1465C4.28811 24.131 4.25682 24.1155 4.22814 24.1C4.19946 24.082 4.17078 24.0639 4.14209 24.0458C4.13688 24.0433 4.09255 24.0097 4.12645 24.0355C4.16035 24.0613 4.10559 24.0175 4.10037 24.0123C4.05083 23.9659 4.00389 23.9194 3.95957 23.8678C3.93088 23.8343 3.96478 23.8756 3.96739 23.8807C3.95696 23.8678 3.94653 23.8523 3.93871 23.8394C3.91785 23.8059 3.89699 23.7724 3.87613 23.7388C3.86048 23.7078 3.84484 23.6795 3.8318 23.6485C3.85787 23.7104 3.82919 23.6356 3.82137 23.6124C3.81094 23.5788 3.80051 23.5453 3.79529 23.5118C3.79008 23.4885 3.78486 23.4653 3.78226 23.4421C3.79008 23.4808 3.78486 23.4756 3.78226 23.4395C3.77704 23.3673 3.77704 23.2976 3.77704 23.2254C3.77704 22.9338 3.77704 22.6449 3.77704 22.3533C3.77704 21.8244 3.77704 21.2929 3.77704 20.764C3.77704 20.0545 3.77704 19.3475 3.77704 18.638C3.77704 17.8227 3.77704 17.0048 3.77704 16.1895C3.77704 15.3252 3.77704 14.4609 3.77704 13.5991C3.77704 12.7477 3.77704 11.8963 3.77704 11.0474C3.77704 10.2812 3.77704 9.51488 3.77704 8.75117C3.77704 8.12938 3.77704 7.51016 3.77704 6.88836C3.77704 6.47555 3.77704 6.06016 3.77704 5.64735C3.77704 5.54157 3.77704 5.4332 3.77704 5.32742C3.77704 5.30162 3.77704 5.27582 3.77704 5.2526C3.77704 5.16487 3.77965 5.13649 3.79529 5.06425C3.80572 5.02297 3.81876 4.98427 3.82919 4.94299C3.82919 4.94557 3.85266 4.88107 3.83962 4.91203C3.82658 4.94299 3.85527 4.88107 3.85266 4.88365C3.87091 4.84753 3.89177 4.81141 3.91263 4.77786C3.92306 4.7598 3.9361 4.74432 3.94653 4.72626C3.98303 4.6695 3.91002 4.76754 3.95435 4.71594C4.0065 4.65402 4.06387 4.59468 4.12906 4.54308C4.16556 4.5147 4.13949 4.53792 4.13166 4.54308C4.14731 4.53018 4.16556 4.51986 4.18381 4.50954C4.22553 4.48374 4.26725 4.46052 4.31158 4.43987C4.26725 4.46052 4.38981 4.41149 4.40545 4.40633C4.45239 4.39343 4.49932 4.38053 4.54626 4.37279C4.56973 4.37021 4.6297 4.36763 4.68446 4.36763C4.68706 4.36763 4.69228 4.36763 4.69489 4.36763C4.7679 4.36763 4.8383 4.36763 4.91131 4.36763C5.29462 4.36763 5.68053 4.36763 6.06383 4.36763C6.69225 4.36763 7.32327 4.36763 7.95168 4.36763C8.74176 4.36763 9.53183 4.36763 10.3219 4.36763C11.1928 4.36763 12.0637 4.36763 12.9373 4.36763C13.7951 4.36763 14.6556 4.36763 15.5135 4.36763C16.2801 4.36763 17.0441 4.36763 17.8107 4.36763C18.4 4.36763 18.9867 4.36763 19.576 4.36763C19.9019 4.36763 20.2305 4.36763 20.5564 4.36763C20.6294 4.36763 20.7051 4.36763 20.7781 4.37279C20.8537 4.37795 20.7416 4.36247 20.8146 4.37795C20.8485 4.38569 20.8824 4.39343 20.9163 4.40117C20.9502 4.41149 20.9815 4.42181 21.0153 4.43471C20.9528 4.41407 21.0258 4.43987 21.0466 4.4502C21.1066 4.48116 21.1666 4.51728 21.2213 4.55598C21.1692 4.51728 21.2292 4.56372 21.2474 4.5792C21.2735 4.60242 21.297 4.62564 21.3204 4.64886C21.3335 4.66176 21.3987 4.73916 21.3778 4.71336C21.3569 4.68498 21.4065 4.75722 21.4143 4.77012C21.4326 4.7985 21.4482 4.82689 21.4664 4.85785C21.4743 4.87333 21.5108 4.95331 21.4977 4.91977C21.4847 4.88623 21.5134 4.97137 21.5186 4.98685C21.529 5.02039 21.5369 5.05393 21.5447 5.08747C21.5473 5.10553 21.5525 5.12101 21.5551 5.13907C21.5551 5.13391 21.5499 5.07715 21.5525 5.12359C21.5629 5.16745 21.5655 5.20874 21.5655 5.25002C21.5681 5.45126 21.7428 5.64735 21.9567 5.63703C22.1653 5.62671 22.3504 5.46674 22.3478 5.25002C22.3374 4.53534 21.881 3.91096 21.1979 3.67875C21.0049 3.61167 20.7989 3.59619 20.5929 3.59619C20.2852 3.59619 19.9776 3.59619 19.6699 3.59619C19.0858 3.59619 18.5017 3.59619 17.9176 3.59619C17.1458 3.59619 16.374 3.59619 15.6047 3.59619C14.7391 3.59619 13.8734 3.59619 13.0077 3.59619C12.1263 3.59619 11.2476 3.59619 10.3662 3.59619C9.56312 3.59619 8.76001 3.59619 7.95689 3.59619C7.32327 3.59619 6.68703 3.59619 6.0534 3.59619C5.6701 3.59619 5.28679 3.59619 4.90088 3.59619C4.83309 3.59619 4.76268 3.59619 4.69489 3.59619C4.05083 3.60135 3.42503 3.9574 3.15906 4.5534C3.00261 4.90171 3 5.22938 3 5.59317C3 5.99308 3 6.39299 3 6.79548C3 7.4147 3 8.03391 3 8.65571C3 9.42457 3 10.1909 3 10.9597C3 11.8163 3 12.6755 3 13.532C3 14.4093 3 15.2865 3 16.1611C3 16.9868 3 17.8124 3 18.638C3 19.3527 3 20.0699 3 20.7846C3 21.3187 3 21.8554 3 22.3894C3 22.6758 3 22.9622 3 23.2486C3 23.3853 3.00782 23.5195 3.03129 23.6588C3.14602 24.3167 3.72228 24.874 4.3872 24.9721C4.64274 25.0108 4.90349 24.9979 5.16163 24.9979C5.63359 24.9979 6.10816 24.9979 6.58012 24.9979C7.28155 24.9979 7.98036 24.9979 8.68178 24.9979C9.5188 24.9979 10.3558 24.9979 11.1954 24.9979C12.0768 24.9979 12.9607 24.9979 13.8421 24.9979C14.6895 24.9979 15.537 24.9979 16.387 24.9979C17.1067 24.9979 17.829 24.9979 18.5486 24.9979C19.0519 24.9979 19.5577 24.9979 20.061 24.9979C20.2644 24.9979 20.4678 25.0005 20.6738 24.9979C21.2865 24.9901 21.8784 24.6547 22.1574 24.1078C22.2878 23.8523 22.3478 23.5763 22.3478 23.2899C22.3478 23.037 22.3478 22.7816 22.3478 22.5288C22.3478 22.0179 22.3478 21.5096 22.3478 20.9988C22.3478 20.2996 22.3478 19.603 22.3478 18.9038C22.3478 18.0885 22.3478 17.2706 22.3478 16.4553C22.3478 15.5806 22.3478 14.706 22.3478 13.8313C22.3478 12.967 22.3478 12.1053 22.3478 11.2409C22.3478 10.4592 22.3478 9.68 22.3478 8.89824C22.3478 8.25838 22.3478 7.61852 22.3478 6.97866C22.3478 6.55037 22.3478 6.12466 22.3478 5.69637C22.3478 5.54673 22.3478 5.39966 22.3478 5.25002C22.3478 5.04877 22.1679 4.85269 21.9567 4.86301C21.7455 4.87333 21.5655 5.03329 21.5655 5.25002Z" fill="#273951"/>
<path d="M19.0593 1.01952C19.0593 1.88642 19.0593 2.75332 19.0593 3.62023C19.0593 3.74149 19.0593 3.86533 19.0593 3.9866C19.1897 3.85759 19.32 3.72859 19.4504 3.59959C18.955 3.59959 18.4595 3.59959 17.9641 3.59959C16.7777 3.59959 15.5887 3.59959 14.4022 3.59959C12.9785 3.59959 11.5574 3.59959 10.1337 3.59959C8.90299 3.59959 7.67485 3.59959 6.4441 3.59959C5.86262 3.59959 5.28376 3.59443 4.70228 3.59959C4.63448 3.59959 4.56929 3.60475 4.5015 3.61249C4.5354 3.86533 4.5719 4.11818 4.6058 4.37361C5.10123 4.25235 5.59405 4.12334 6.08948 3.99692C7.27068 3.69763 8.44928 3.39576 9.63049 3.09647C11.0359 2.73784 12.444 2.38179 13.8495 2.02316C15.0202 1.72646 16.191 1.42717 17.3618 1.13046C17.7086 1.04274 18.0528 0.955014 18.3996 0.867291C18.4908 0.844071 18.5847 0.82085 18.676 0.797629C18.6968 0.792469 18.7177 0.787309 18.7386 0.782149C18.7438 0.782149 18.7464 0.779569 18.7516 0.779569C18.7516 0.779569 18.7516 0.779569 18.7542 0.779569C18.8533 0.751188 18.6916 0.771829 18.7933 0.774409C18.8142 0.774409 18.9054 0.792469 18.8272 0.771829C18.8611 0.779569 18.8924 0.787309 18.9263 0.797629C18.9054 0.789889 18.8689 0.764088 18.9237 0.800209C18.9341 0.80795 19.0176 0.872451 18.955 0.81569C18.9706 0.83117 18.9863 0.846651 19.0045 0.862131C19.0697 0.921473 18.9863 0.81053 19.0254 0.890512C19.0358 0.911153 19.0488 0.929213 19.0567 0.949854C19.0202 0.872452 19.0593 0.975654 19.0619 0.985975C19.088 1.08144 19.0567 0.911153 19.0593 1.01952C19.0645 1.22076 19.234 1.41685 19.4504 1.40653C19.6564 1.39621 19.8467 1.23624 19.8415 1.01952C19.8233 0.346117 19.2027 -0.123456 18.5404 0.0287681C18.5013 0.0390884 18.4595 0.0494087 18.4204 0.059729C18.1493 0.129391 17.8755 0.199053 17.6043 0.268715C16.5117 0.547362 15.4218 0.82343 14.3292 1.10208C12.9107 1.46329 11.4923 1.8245 10.0712 2.18571C8.80651 2.50822 7.54447 2.82815 6.27983 3.15065C5.66445 3.30804 5.04386 3.44736 4.4337 3.62023C4.42327 3.62281 4.41024 3.62539 4.39981 3.62797C4.20946 3.67441 4.09473 3.86791 4.1208 4.05368C4.14427 4.22654 4.31115 4.41231 4.50411 4.38909C4.68663 4.36845 4.87177 4.37619 5.05429 4.37619C5.40631 4.37619 5.75572 4.37619 6.10773 4.37619C7.28372 4.37619 8.45971 4.37619 9.6357 4.37619C11.0568 4.37619 12.4805 4.37619 13.9016 4.37619C15.1428 4.37619 16.3814 4.37619 17.6225 4.37619C18.2223 4.37619 18.8272 4.39167 19.4269 4.37619C19.4348 4.37619 19.4426 4.37619 19.453 4.37619C19.6642 4.37619 19.8441 4.19816 19.8441 3.98918C19.8441 3.12227 19.8441 2.25537 19.8441 1.38847C19.8441 1.2672 19.8441 1.14336 19.8441 1.0221C19.8441 0.82085 19.6642 0.624765 19.453 0.635085C19.2392 0.640245 19.0593 0.80279 19.0593 1.01952Z" fill="#273951"/>
</svg>
