<svg width="18" height="18" viewBox="0 0 18 18" fill="none" xmlns="http://www.w3.org/2000/svg">
<g clip-path="url(#clip0)">
<path d="M6.89019 9.40112C6.48242 9.40112 6.15186 9.73169 6.15186 10.1395C6.15186 10.5472 6.48242 10.8778 6.89019 10.8778C7.29797 10.8778 7.62853 10.5472 7.62853 10.1395C7.62853 9.73169 7.29797 9.40112 6.89019 9.40112ZM6.89019 10.5764C6.64886 10.5764 6.45322 10.3808 6.45322 10.1395C6.45322 9.89813 6.64886 9.70249 6.89019 9.70249C7.13152 9.70249 7.32717 9.89813 7.32717 10.1395C7.32717 10.3808 7.13154 10.5764 6.89019 10.5764Z" fill="#273951"/>
<path d="M11.5462 9.98865H8.14079C8.05757 9.98865 7.99011 10.0561 7.99011 10.1393C7.99011 10.2226 8.05757 10.29 8.14079 10.29H11.5462C11.6294 10.29 11.6969 10.2226 11.6969 10.1393C11.6969 10.0561 11.6294 9.98865 11.5462 9.98865Z" fill="#273951"/>
<path d="M6.89019 7.29114C6.48242 7.29114 6.15186 7.6217 6.15186 8.02948C6.15186 8.43725 6.48242 8.76781 6.89019 8.76781C7.29797 8.76781 7.62853 8.43725 7.62853 8.02948C7.62853 7.6217 7.29797 7.29114 6.89019 7.29114ZM6.89019 8.46645C6.64886 8.46645 6.45322 8.27081 6.45322 8.02948C6.45322 7.78815 6.64886 7.5925 6.89019 7.5925C7.13152 7.5925 7.32717 7.78815 7.32717 8.02948C7.32717 8.27081 7.13154 8.46645 6.89019 8.46645Z" fill="#273951"/>
<path d="M8.14079 8.18003H11.5462C11.6294 8.18003 11.6969 8.11257 11.6969 8.02934C11.6969 7.94612 11.6294 7.87866 11.5462 7.87866H8.14079C8.05757 7.87866 7.99011 7.94612 7.99011 8.02934C7.99011 8.11257 8.05757 8.18003 8.14079 8.18003Z" fill="#273951"/>
<path d="M6.89019 11.5106C6.48242 11.5106 6.15186 11.8412 6.15186 12.249C6.15186 12.6567 6.48242 12.9873 6.89019 12.9873C7.29797 12.9873 7.62853 12.6567 7.62853 12.249C7.62853 11.8412 7.29797 11.5106 6.89019 11.5106ZM7.32717 12.249C7.32717 12.4903 7.13152 12.6859 6.89019 12.6859C6.64886 12.6859 6.45322 12.4903 6.45322 12.249C6.45322 12.0076 6.64886 11.812 6.89019 11.812C7.13152 11.812 7.32717 12.0076 7.32717 12.249Z" fill="#273951"/>
<path d="M11.5462 12.0983H8.14079C8.05757 12.0983 7.99011 12.1657 7.99011 12.2489C7.99011 12.3322 8.05757 12.3996 8.14079 12.3996H11.5462C11.6294 12.3996 11.6969 12.3322 11.6969 12.2489C11.6969 12.1657 11.6294 12.0983 11.5462 12.0983Z" fill="#273951"/>
</g>
<path fill-rule="evenodd" clip-rule="evenodd" d="M17.5166 7.82913L17.5152 7.82776L10.1719 0.485458C9.85891 0.172348 9.44276 0 9.0001 0C8.55745 0 8.1413 0.172348 7.82816 0.485458L0.488685 7.82405L0.481268 7.8316C-0.161497 8.47801 -0.160398 9.52679 0.484427 10.1716C0.779028 10.4663 1.16798 10.6368 1.584 10.6548C1.60103 10.6565 1.61806 10.6573 1.63522 10.6573H1.92776V16.0606C1.92776 17.13 2.79797 18 3.86746 18H6.7404C6.75548 18 6.77041 17.9994 6.78516 17.9981H11.2149C11.2297 17.9994 11.2446 18 11.2597 18H14.1326C15.2022 18 16.0723 17.13 16.0723 16.0606V10.6573H16.3437C16.7862 10.6573 17.2024 10.4849 17.5156 10.1717C18.1612 9.52597 18.1614 8.47526 17.5166 7.82913ZM12.0623 16.9544H12.2055V16.9453H14.1326C14.6206 16.9453 15.0175 16.5484 15.0175 16.0606V10.1299C15.0175 9.83867 15.2536 9.6026 15.5449 9.6026H16.3437C16.5045 9.6026 16.6559 9.53984 16.7697 9.42599C17.004 9.19157 17.0045 8.81021 16.7708 8.57496L16.7674 8.57167L9.426 1.23116C9.31215 1.11731 9.16093 1.05469 9.0001 1.05469C8.83914 1.05469 8.68792 1.11731 8.5742 1.23116L1.23116 8.57318L1.23075 8.57359L1.23047 8.57386C0.995618 8.80884 0.995618 9.19102 1.23047 9.42585C1.3409 9.5364 1.48827 9.59875 1.64539 9.6015C1.65377 9.60164 1.66187 9.60205 1.67011 9.6026H2.45516C2.74647 9.6026 2.98256 9.83867 2.98256 10.1299V16.0606C2.98256 16.5484 3.37962 16.9453 3.86746 16.9453H5.53863C5.54367 16.9448 5.54874 16.9446 5.55384 16.9446H12.0071C12.026 16.9446 12.0444 16.9479 12.0623 16.9544Z" fill="#273951"/>
<defs>
<clipPath id="clip0">
<rect width="5.6962" height="5.6962" fill="white" transform="translate(6.15186 7.29114)"/>
</clipPath>
</defs>
</svg>
