<svg width="115" height="103" viewBox="0 0 115 103" fill="none" xmlns="http://www.w3.org/2000/svg">
<path d="M114.508 23.5719C114.508 20.2414 111.812 17.5322 108.498 17.5322H76.4134V9.11475C76.4134 4.48942 72.6692 0.726562 68.0675 0.726562H46.9309C42.3292 0.726562 38.5849 4.48942 38.5849 9.11475V17.5322H6.50021C3.18673 17.5322 0.49082 20.2414 0.49082 23.5667L0.429692 52.8943C0.427978 53.7976 0.940424 54.6216 1.7488 55.0155C3.07276 55.6609 4.436 56.2591 5.80609 56.8488V96.8359C5.80609 100.166 8.50144 102.874 11.8149 102.874H103.183C106.496 102.874 109.192 100.166 109.192 96.8359V56.2509C110.594 55.6015 111.975 54.9279 113.32 54.215C114.089 53.8073 114.57 53.004 114.569 52.1295L114.508 23.5719ZM43.2649 9.11475C43.2649 7.08316 44.9097 5.43056 46.9309 5.43056H68.0675C70.0544 5.43056 71.7334 7.11762 71.7334 9.11475V17.5322H43.2649V9.11475ZM104.512 96.8359C104.512 97.5467 103.891 98.1703 103.183 98.1703H11.8149C11.0945 98.1703 10.4861 97.5594 10.4861 96.8359V58.7137C21.2815 62.7207 33.3547 65.1219 46.5344 65.8463V69.4008C46.5344 71.8252 48.4962 73.797 50.9082 73.797H64.0902C66.5021 73.797 68.4639 71.8252 68.4639 69.4008V65.8065C81.815 65.002 93.8927 62.4701 104.512 58.2583V96.8359V96.8359ZM51.2144 69.093V60.6193H63.7839V69.093H51.2144ZM68.4639 61.0771V60.3121C68.4639 57.8877 66.5021 55.9153 64.0902 55.9153H50.9082C48.4962 55.9153 46.5344 57.8877 46.5344 60.3121V61.1323C30.9889 60.2507 17.0588 56.9943 5.11255 51.414L5.17082 23.5719C5.17082 22.8478 5.77981 22.2362 6.50021 22.2362H108.498C109.219 22.2362 109.828 22.8478 109.828 23.577L109.886 50.7031C98.2267 56.6209 84.2945 60.0913 68.4639 61.0771Z" fill="black"/>
</svg>
