<svg width="25" height="25" viewBox="0 0 25 25" fill="none" xmlns="http://www.w3.org/2000/svg">
<g clip-path="url(#clip0)">
<path d="M24.192 9.40662L16.6975 8.31742L13.3472 1.52542C13.2557 1.33946 13.1052 1.18892 12.9192 1.09742C12.4528 0.867182 11.8861 1.05905 11.6529 1.52542L8.30266 8.31742L0.808145 9.40662C0.601522 9.43614 0.41261 9.53354 0.267974 9.68113C0.0931164 9.86085 -0.00323781 10.1026 8.308e-05 10.3534C0.00340397 10.6041 0.106128 10.8433 0.285684 11.0183L5.70806 16.3049L4.427 23.7699C4.39696 23.9435 4.41618 24.1221 4.48247 24.2854C4.54877 24.4487 4.65949 24.5901 4.80208 24.6937C4.94467 24.7973 5.11342 24.8588 5.28921 24.8713C5.46499 24.8839 5.64077 24.8469 5.79662 24.7646L12.5001 21.2402L19.2035 24.7646C19.3865 24.862 19.599 24.8945 19.8027 24.8591C20.3163 24.7705 20.6617 24.2835 20.5731 23.7699L19.2921 16.3049L24.7144 11.0183C24.862 10.8736 24.9594 10.6847 24.9889 10.4781C25.0686 9.96155 24.7085 9.48336 24.192 9.40662V9.40662Z" fill="#9F3658"/>
</g>
<defs>
<clipPath id="clip0">
<rect width="25" height="25" fill="white"/>
</clipPath>
</defs>
</svg>
