<svg width="27" height="27" viewBox="0 0 27 27" fill="none" xmlns="http://www.w3.org/2000/svg">
<path fill-rule="evenodd" clip-rule="evenodd" d="M10.2133 26.1666H16.4633V1.16663H10.2133V26.1666ZM0.838257 26.1667H7.08826V13.6667H0.838257V26.1667ZM19.5884 26.1667V8.97918H25.8384V26.1667H19.5884Z" fill="white"/>
<path d="M16.4633 26.1666V26.6666H16.9633V26.1666H16.4633ZM10.2133 26.1666H9.71329V26.6666H10.2133V26.1666ZM16.4633 1.16663H16.9633V0.666626H16.4633V1.16663ZM10.2133 1.16663V0.666626H9.71329V1.16663H10.2133ZM7.08826 26.1667V26.6667H7.58826V26.1667H7.08826ZM0.838257 26.1667H0.338257V26.6667H0.838257V26.1667ZM7.08826 13.6667H7.58826V13.1667H7.08826V13.6667ZM0.838257 13.6667V13.1667H0.338257V13.6667H0.838257ZM19.5884 8.97918V8.47918H19.0884V8.97918H19.5884ZM19.5884 26.1667H19.0884V26.6667H19.5884V26.1667ZM25.8384 8.97918H26.3384V8.47918H25.8384V8.97918ZM25.8384 26.1667V26.6667H26.3384V26.1667H25.8384ZM16.4633 25.6666H10.2133V26.6666H16.4633V25.6666ZM15.9633 1.16663V26.1666H16.9633V1.16663H15.9633ZM10.2133 1.66663H16.4633V0.666626H10.2133V1.66663ZM10.7133 26.1666V1.16663H9.71329V26.1666H10.7133ZM7.08826 25.6667H0.838257V26.6667H7.08826V25.6667ZM6.58826 13.6667V26.1667H7.58826V13.6667H6.58826ZM0.838257 14.1667H7.08826V13.1667H0.838257V14.1667ZM1.33826 26.1667V13.6667H0.338257V26.1667H1.33826ZM19.0884 8.97918V26.1667H20.0884V8.97918H19.0884ZM25.8384 8.47918H19.5884V9.47918H25.8384V8.47918ZM26.3384 26.1667V8.97918H25.3384V26.1667H26.3384ZM19.5884 26.6667H25.8384V25.6667H19.5884V26.6667Z" fill="#273951"/>
</svg>
