<svg width="25" height="25" viewBox="0 0 25 25" fill="none" xmlns="http://www.w3.org/2000/svg">
<path d="M7.7243 12.9249C8.64254 12.9249 9.54015 12.6507 10.3036 12.1369C11.0671 11.6231 11.6622 10.8928 12.0136 10.0384C12.365 9.18397 12.4569 8.2438 12.2778 7.33676C12.0986 6.42972 11.6565 5.59655 11.0072 4.94261C10.3579 4.28867 9.53064 3.84333 8.63004 3.66291C7.72945 3.48249 6.79596 3.57509 5.94762 3.929C5.09928 4.28291 4.37419 4.88223 3.86405 5.65118C3.3539 6.42014 3.08161 7.32418 3.08161 8.24899C3.08265 9.4888 3.57212 10.6775 4.44257 11.5542C5.31302 12.4309 6.4933 12.9239 7.7243 12.9249V12.9249ZM7.7243 5.14612C8.33363 5.14612 8.92927 5.3281 9.43591 5.66905C9.94254 6.01 10.3374 6.4946 10.5706 7.06157C10.8038 7.62855 10.8648 8.25243 10.7459 8.85433C10.627 9.45622 10.3336 10.0091 9.90276 10.443C9.4719 10.877 8.92296 11.1725 8.32534 11.2922C7.72772 11.412 7.10827 11.3505 6.54533 11.1157C5.98238 10.8808 5.50123 10.4831 5.1627 9.97285C4.82418 9.46258 4.64349 8.86268 4.64349 8.24899C4.64453 7.42638 4.96944 6.63776 5.54698 6.05608C6.12452 5.47441 6.90754 5.14717 7.7243 5.14612ZM18.5364 9.9361C19.3156 9.9361 20.0774 9.70337 20.7253 9.26736C21.3732 8.83135 21.8782 8.21162 22.1764 7.48656C22.4745 6.76149 22.5526 5.96365 22.4006 5.19392C22.2485 4.4242 21.8733 3.71716 21.3223 3.16222C20.7713 2.60727 20.0693 2.22935 19.305 2.07625C18.5408 1.92314 17.7486 2.00172 17.0287 2.30205C16.3088 2.60238 15.6935 3.11098 15.2606 3.76352C14.8276 4.41606 14.5966 5.18324 14.5966 5.96805C14.5976 7.02012 15.013 8.0288 15.7517 8.77273C16.4903 9.51666 17.4918 9.93506 18.5364 9.9361ZM18.5364 3.57306C19.0067 3.57306 19.4665 3.71353 19.8575 3.97669C20.2486 4.23986 20.5534 4.6139 20.7334 5.05153C20.9133 5.48915 20.9604 5.97071 20.8687 6.43529C20.7769 6.89987 20.5505 7.32662 20.2179 7.66156C19.8853 7.99651 19.4616 8.22461 19.0003 8.31702C18.5391 8.40943 18.0609 8.362 17.6264 8.18073C17.1919 7.99946 16.8205 7.69249 16.5592 7.29863C16.2979 6.90478 16.1585 6.44173 16.1585 5.96805C16.1585 5.33286 16.409 4.72369 16.8549 4.27454C17.3009 3.82539 17.9057 3.57306 18.5364 3.57306ZM0.00471052 21.5768C0.156538 20.2152 0.660795 18.9177 1.46701 17.8141C2.27322 16.7105 3.3531 15.8396 4.59857 15.2884C5.84404 14.7373 7.21139 14.5253 8.56377 14.6737C9.91614 14.8221 11.2061 15.3256 12.3045 16.134C12.7242 14.6806 13.6315 13.4189 14.8716 12.5639C16.1117 11.7089 17.6078 11.3136 19.1049 11.4454C20.602 11.5771 22.0074 12.2278 23.0814 13.2865C24.1555 14.3451 24.8317 15.7462 24.9948 17.2508C25.0067 17.3542 24.9981 17.459 24.9696 17.559C24.941 17.659 24.893 17.7524 24.8283 17.8336C24.7637 17.9148 24.6837 17.9823 24.5929 18.0321C24.5022 18.0819 24.4025 18.1131 24.2997 18.1239H24.2138C24.0208 18.1251 23.8341 18.0542 23.6899 17.9249C23.5457 17.7956 23.4541 17.6171 23.4329 17.4239C23.2968 16.2139 22.724 15.0964 21.8235 14.2838C20.923 13.4713 19.7574 13.0202 18.5484 13.0163C17.3393 13.0124 16.1709 13.456 15.2653 14.2628C14.3596 15.0696 13.7798 16.1833 13.636 17.3924C14.6382 18.5744 15.2653 20.032 15.4361 21.5768C15.448 21.6796 15.4397 21.7837 15.4117 21.8833C15.3836 21.9828 15.3363 22.0758 15.2724 22.157C15.2086 22.2381 15.1295 22.3057 15.0396 22.3559C14.9498 22.4062 14.851 22.4381 14.7489 22.4498H14.663C14.4699 22.451 14.2832 22.3801 14.139 22.2508C13.9948 22.1215 13.9032 21.9431 13.882 21.7498C13.7036 20.2312 12.9782 18.8312 11.8432 17.8154C10.7082 16.7996 9.24265 16.2385 7.7243 16.2385C6.20595 16.2385 4.74037 16.7996 3.60541 17.8154C2.47044 18.8312 1.74499 20.2312 1.56659 21.7498C1.55531 21.8531 1.52394 21.9531 1.47427 22.0442C1.4246 22.1353 1.35761 22.2156 1.27712 22.2806C1.19662 22.3456 1.1042 22.394 1.00514 22.423C0.906074 22.4521 0.802301 22.4612 0.699747 22.4498C0.597193 22.4384 0.497864 22.4068 0.407433 22.3568C0.317002 22.3068 0.23724 22.2393 0.1727 22.1583C0.10816 22.0772 0.0601059 21.9841 0.0312822 21.8843C0.00245861 21.7846 -0.00657047 21.68 0.00471052 21.5768V21.5768Z" fill="#5F6D83"/>
</svg>
