<svg width="25" height="25" viewBox="0 0 25 25" fill="none" xmlns="http://www.w3.org/2000/svg">
<path d="M7.42188 11.7188C7.65365 11.7188 7.88022 11.7875 8.07293 11.9162C8.26565 12.045 8.41585 12.228 8.50455 12.4422C8.59324 12.6563 8.61645 12.8919 8.57123 13.1192C8.52602 13.3466 8.41441 13.5555 8.25052 13.7194C8.08663 13.8833 7.87782 13.9949 7.6505 14.0401C7.42318 14.0853 7.18755 14.0621 6.97342 13.9734C6.75929 13.8847 6.57626 13.7345 6.4475 13.5418C6.31873 13.3491 6.25 13.1225 6.25 12.8907C6.25 12.5799 6.37347 12.2819 6.59324 12.0621C6.813 11.8423 7.11108 11.7188 7.42188 11.7188ZM7.42188 10.1562C6.88107 10.1564 6.3524 10.3166 5.90274 10.6171C5.45307 10.9175 5.1026 11.3446 4.89564 11.8442C4.68868 12.3439 4.63454 12.8937 4.74004 13.4241C4.84555 13.9545 5.10597 14.4417 5.48838 14.8241C5.87079 15.2065 6.35801 15.4671 6.88843 15.5726C7.41884 15.6781 7.96863 15.6238 8.46828 15.4169C8.96792 15.2099 9.39497 14.8594 9.69543 14.4098C9.99588 13.9601 10.1563 13.4315 10.1563 12.8907C10.1563 12.1655 9.86817 11.4699 9.35537 10.9571C8.84258 10.4443 8.14708 10.1562 7.42188 10.1562Z" fill="#273951"/>
<path d="M19.5312 10.9354H13.2812C12.8668 10.9354 12.4694 11.1 12.1764 11.3931C11.8834 11.6861 11.7188 12.0835 11.7188 12.4979V17.1854H3.125V8.27917L12.5 3.23229L22.2891 8.49792L23.0234 7.12292L12.8672 1.65417C12.7542 1.59398 12.6281 1.5625 12.5 1.5625C12.3719 1.5625 12.2458 1.59398 12.1328 1.65417L1.97656 7.12292C1.85181 7.18934 1.74742 7.28836 1.6745 7.40943C1.60159 7.5305 1.56288 7.66909 1.5625 7.81042V23.4354H3.125V18.7479H21.875V23.4354H23.4375V14.8417C23.4375 13.8057 23.0259 12.8121 22.2934 12.0795C21.5608 11.347 20.5673 10.9354 19.5312 10.9354ZM13.2812 17.1854V12.4979H19.5312C20.1529 12.4979 20.749 12.7448 21.1885 13.1844C21.6281 13.6239 21.875 14.2201 21.875 14.8417V17.1854H13.2812Z" fill="#273951"/>
</svg>
