<svg width="25" height="25" viewBox="0 0 25 25" fill="none" xmlns="http://www.w3.org/2000/svg">
<g clip-path="url(#clip0)">
<path d="M24.7206 19.0678C24.5981 19.4968 24.2071 19.7766 23.7822 19.7766C23.6933 19.7766 23.6033 19.7644 23.5136 19.7388C22.995 19.5908 22.6946 19.0503 22.8426 18.5317C23.3196 16.8608 23.103 15.0174 22.2477 13.4741C22.0066 13.0393 21.7516 12.6109 21.4815 12.1573C20.8221 11.0501 20.1441 9.91005 19.6262 8.5934H5.60717C4.95924 9.98177 4.34373 11.0045 3.74635 11.9973C3.42401 12.5329 3.11959 13.0385 2.82243 13.5827C1.80352 15.4477 1.72837 17.6827 2.62101 19.5615C3.74978 21.9367 5.56082 23.047 8.31256 23.0472C8.35929 23.0472 8.40583 23.0468 8.45294 23.0462C8.96354 23.0391 9.67537 22.9314 10.2474 22.845C11.4925 22.6565 12.7886 22.6676 14.0999 22.8776C14.8538 22.9983 15.5956 23.0536 16.3666 23.046C18.0603 23.03 19.4731 22.6239 20.5662 21.8388C21.0041 21.5243 21.6143 21.6243 21.929 22.0624C22.2435 22.5005 22.1434 23.1107 21.7053 23.4252C20.2791 24.4494 18.4891 24.9789 16.3853 24.999C15.5025 25.0072 14.6543 24.9442 13.7911 24.8059C12.6791 24.628 11.585 24.6179 10.5394 24.776C9.90883 24.8714 9.12357 24.9904 8.47926 24.999C8.42528 24.9997 8.37093 24.9999 8.31733 24.9999C4.81714 25.0001 2.30801 23.453 0.857087 20.3996C-0.303539 17.9574 -0.209697 15.059 1.10829 12.6462C1.4251 12.0663 1.75431 11.5191 2.07284 10.99C2.51553 10.2547 2.96834 9.50207 3.43316 8.5934H2.48769C1.94829 8.5934 1.51112 8.15624 1.51112 7.61684C1.51112 7.07744 1.94829 6.64027 2.48769 6.64027H6.39376C8.16093 6.64027 9.80087 5.19564 10.3757 3.35428C9.6561 3.15305 9.12795 2.49291 9.12795 1.70899C9.12795 0.765041 9.89319 0 10.8369 0C11.7807 0 12.5459 0.765041 12.5459 1.70899C12.5459 1.75534 12.5435 1.80131 12.5398 1.84689C12.5436 1.8818 12.5459 1.91708 12.5459 1.95313C12.5459 3.58011 11.9041 5.23893 10.7849 6.50389C10.7439 6.55024 10.7025 6.59564 10.6607 6.64046H14.4312C14.3894 6.59564 14.3478 6.55024 14.307 6.50389C13.1878 5.23893 12.5459 3.58011 12.5459 1.95313C12.5459 1.91708 12.5482 1.8818 12.5518 1.84689C12.5482 1.80131 12.5459 1.75534 12.5459 1.70899C12.5459 0.765041 13.311 0 14.2547 0C15.1987 0 15.9637 0.765041 15.9637 1.70899C15.9637 2.49291 15.4358 3.15305 14.7161 3.35428C15.291 5.19583 16.9309 6.64046 18.6979 6.64046H22.6042C23.1434 6.64046 23.5806 7.07763 23.5806 7.61684C23.5806 8.15624 23.1434 8.5934 22.6042 8.5934H21.7508C22.1687 9.49406 22.6698 10.3356 23.1596 11.158C23.4255 11.6044 23.7003 12.0659 23.9561 12.5275C25.0599 14.5196 25.3386 16.9034 24.7206 19.0678V19.0678ZM5.83567 14.0204C5.36245 13.762 4.76907 13.9361 4.51063 14.4093C3.79041 15.7277 3.73986 17.3129 4.37501 18.6496C5.16275 20.3072 6.57801 21.1814 8.47144 21.1814C8.49929 21.1814 8.52733 21.1812 8.55537 21.1806C9.09458 21.1736 9.52583 20.7303 9.51858 20.1911C9.51152 19.6563 9.07569 19.2277 8.5424 19.2277C8.53801 19.2277 8.53343 19.2279 8.52905 19.2279C7.34858 19.2445 6.61215 18.8069 6.13913 17.8113C5.77158 17.038 5.80362 16.1162 6.22458 15.3456C6.48321 14.8722 6.30907 14.279 5.83567 14.0204V14.0204Z" fill="#273951"/>
</g>
<defs>
<clipPath id="clip0">
<rect width="25" height="25" fill="white"/>
</clipPath>
</defs>
</svg>
