<svg width="50" height="50" viewBox="0 0 50 50" fill="none" xmlns="http://www.w3.org/2000/svg">
<path d="M21.5017 35.8814V38.4336C21.5017 39.8143 22.621 40.9336 24.0017 40.9336H26.5234C27.9042 40.9336 29.0234 39.8143 29.0234 38.4336L29.0234 35.8814C29.0234 34.5007 27.9041 33.3814 26.5234 33.3814H24.0017C22.621 33.3814 21.5017 34.5007 21.5017 35.8814ZM21.5017 11.9988L21.5017 27.5031C21.5017 28.8838 22.621 30.0031 24.0017 30.0031H26.5234C27.9042 30.0031 29.0234 28.8838 29.0234 27.5031L29.0234 11.9988C29.0234 10.6181 27.9041 9.49881 26.5234 9.49881L24.0017 9.49881C22.621 9.49881 21.5017 10.6181 21.5017 11.9988Z" fill="#5F6D83" stroke="#5F6D83"/>
<mask id="path-2-inside-1" fill="white">
<path fill-rule="evenodd" clip-rule="evenodd" d="M25 48C37.7025 48 48 37.7025 48 25C48 12.2975 37.7025 2 25 2C12.2975 2 2 12.2975 2 25C2 37.7025 12.2975 48 25 48ZM25 50C38.8071 50 50 38.8071 50 25C50 11.1929 38.8071 0 25 0C11.1929 0 0 11.1929 0 25C0 38.8071 11.1929 50 25 50Z"/>
</mask>
<path fill-rule="evenodd" clip-rule="evenodd" d="M25 48C37.7025 48 48 37.7025 48 25C48 12.2975 37.7025 2 25 2C12.2975 2 2 12.2975 2 25C2 37.7025 12.2975 48 25 48ZM25 50C38.8071 50 50 38.8071 50 25C50 11.1929 38.8071 0 25 0C11.1929 0 0 11.1929 0 25C0 38.8071 11.1929 50 25 50Z" fill="#273951"/>
<path d="M46 25C46 36.598 36.598 46 25 46V50C38.8071 50 50 38.8071 50 25H46ZM25 4C36.598 4 46 13.402 46 25H50C50 11.1929 38.8071 0 25 0V4ZM4 25C4 13.402 13.402 4 25 4V0C11.1929 0 0 11.1929 0 25H4ZM25 46C13.402 46 4 36.598 4 25H0C0 38.8071 11.1929 50 25 50V46ZM48 25C48 37.7025 37.7025 48 25 48V52C39.9117 52 52 39.9117 52 25H48ZM25 2C37.7025 2 48 12.2975 48 25H52C52 10.0883 39.9117 -2 25 -2V2ZM2 25C2 12.2975 12.2975 2 25 2V-2C10.0883 -2 -2 10.0883 -2 25H2ZM25 48C12.2975 48 2 37.7025 2 25H-2C-2 39.9117 10.0883 52 25 52V48Z" fill="#5F6D83" mask="url(#path-2-inside-1)"/>
</svg>
