<svg width="23" height="23" viewBox="0 0 23 23" fill="none" xmlns="http://www.w3.org/2000/svg">
<rect width="23" height="23" transform="translate(23 23) rotate(-180)" fill="white"/>
<path d="M18.5139 3.62844L18.514 3.6284L18.5083 3.62279C16.4434 1.59067 13.9545 0.568359 11.0684 0.568359C8.18199 0.568359 5.70724 1.59092 3.67255 3.6256C1.60826 5.68989 0.568359 8.1796 0.568359 11.0684C0.568359 13.956 1.60757 16.4306 3.67253 18.4642C5.70605 20.5291 8.18071 21.5684 11.0684 21.5684C13.9571 21.5684 16.4468 20.5285 18.5111 18.4642C20.5458 16.4295 21.5684 13.9547 21.5684 11.0684C21.5684 8.18218 20.546 5.69333 18.5139 3.62844Z" fill="white" stroke="#5F6D83"/>
<path d="M10 11.472L10 5.5C10 4.67157 10.6716 4 11.5 4C12.3284 4 13 4.67157 13 5.5L13 11.472C13 12.3004 12.3284 12.972 11.5 12.972C10.6716 12.972 10 12.3004 10 11.472Z" fill="#5F6D83"/>
<path d="M11.5 14.986C12.3284 14.986 13 15.6646 13 16.493C13 17.3214 12.3284 18 11.5 18C10.6716 18 10 17.3214 10 16.493C10 15.6646 10.6716 14.986 11.5 14.986Z" fill="#5F6D83"/>
</svg>
