<!-- Generated by IcoMoon.io -->
<svg version="1.1" xmlns="http://www.w3.org/2000/svg" width="32" height="32" viewBox="0 0 32 32">
<title>bathroom</title>
<path fill="none" stroke-linejoin="miter" stroke-linecap="butt" stroke-miterlimit="4" stroke-width="3.0476" stroke="#000" d="M30.4 14.933h-1.067v-0.534c-0.001-0.883-0.717-1.599-1.6-1.6h-7.467c-0.883 0.001-1.599 0.717-1.6 1.6v0.534h-14.933v-10.667c-0.001-1.674 1.289-3.065 2.958-3.191s3.153 1.057 3.402 2.712c-1.52 0.278-2.624 1.601-2.627 3.146v0.533c0 0.295 0.239 0.533 0.533 0.533h5.333c0.295 0 0.533-0.239 0.533-0.533v-0.533c-0.003-1.572-1.145-2.909-2.697-3.156-0.259-2.246-2.226-3.9-4.483-3.77s-4.021 1.999-4.020 4.26v10.667h-1.067c-0.883 0.001-1.599 0.716-1.6 1.6 0.001 0.677 0.428 1.279 1.067 1.503v4.364c0.006 3.913 3.030 7.158 6.933 7.44v0.56c0 0.884 0.716 1.6 1.6 1.6s1.6-0.716 1.6-1.6v-0.533h9.6v0.533c0 0.884 0.716 1.6 1.6 1.6s1.6-0.716 1.6-1.6v-0.56c3.903-0.282 6.927-3.527 6.933-7.44v-4.365c0.637-0.224 1.065-0.826 1.067-1.502-0.004-0.882-0.718-1.596-1.6-1.6zM12.8 6.933h-4.267c0-1.178 0.955-2.133 2.133-2.133s2.133 0.955 2.133 2.133zM27.2 14.933v-0.534c0-0.294 0.239-0.533 0.534-0.533s0.533 0.239 0.533 0.533v0.534h-1.067zM19.733 14.399c0-0.294 0.239-0.533 0.533-0.533h5.965c-0.063 0.171-0.097 0.351-0.098 0.533v5.867h-4.8c-0.294 0-0.533 0.239-0.533 0.533s0.239 0.533 0.533 0.533h4.8v1.067h-6.4v-8zM23.467 28.799h-14.933c-3.533-0.004-6.396-2.867-6.4-6.4v-4.267h1.295c0.294 0 0.533-0.239 0.533-0.534s-0.239-0.533-0.533-0.533h-1.828c-0.144 0-0.281-0.059-0.38-0.163-0.099-0.097-0.155-0.231-0.154-0.37 0-0.294 0.239-0.533 0.533-0.533h17.067v6.4c0.001 0.379 0.204 0.729 0.533 0.918v1.215c0 0.295 0.239 0.533 0.534 0.533s0.533-0.239 0.533-0.533v-1.067h1.067v1.067c0 0.295 0.239 0.533 0.533 0.533s0.533-0.239 0.533-0.533v-1.067h1.067v1.067c0 0.295 0.239 0.533 0.533 0.533s0.533-0.239 0.533-0.533v-1.067h1.067v1.067c0 0.295 0.239 0.533 0.533 0.533s0.533-0.239 0.533-0.533v-1.215c0.329-0.189 0.532-0.539 0.533-0.918v-4.267h2.667v4.267c-0.004 3.533-2.867 6.396-6.4 6.4zM30.4 17.066h-3.2v-1.067h3.2c0.144-0 0.281 0.059 0.38 0.163 0.099 0.097 0.154 0.231 0.153 0.37-0 0.294-0.239 0.533-0.533 0.533z"></path>
<path fill="none" stroke-linejoin="miter" stroke-linecap="butt" stroke-miterlimit="4" stroke-width="0.7619" stroke="#000" d="M10.667 9.448c0.084 0 0.152 0.068 0.152 0.152v0.533c0 0.084-0.068 0.152-0.152 0.152s-0.153-0.068-0.153-0.152v-0.533c0-0.084 0.068-0.152 0.153-0.152z"></path>
<path fill="none" stroke-linejoin="miter" stroke-linecap="butt" stroke-miterlimit="4" stroke-width="0.7619" stroke="#000" d="M8.691 9.264l0-0 0.373-0.381c0 0 0 0 0 0s0-0 0-0c0.059-0.060 0.156-0.061 0.216-0.002l-0-0c0.060 0.059 0.061 0.156 0.002 0.216h-0l-0.373 0.381c0 0 0 0 0 0s0 0 0 0c-0.059 0.060-0.156 0.061-0.216 0.002l0 0c-0.060-0.059-0.061-0.155-0.002-0.216z"></path>
<path fill="none" stroke-linejoin="miter" stroke-linecap="butt" stroke-miterlimit="4" stroke-width="0.7619" stroke="#000" d="M12.571 9.519l0-0c0.053-0.014 0.094-0.054 0.109-0.107s0-0.109-0.038-0.148c0 0-0-0-0-0l-0.374-0.381c-0.028-0.029-0.067-0.045-0.107-0.046l0.41 0.681zM12.571 9.519c-0.052 0.014-0.108-0.002-0.147-0.041-0 0-0 0-0 0l-0.373-0.38c-0 0-0-0-0-0M12.571 9.519l-0.52-0.422M12.052 9.097c-0.059-0.061-0.058-0.157 0.002-0.216 0.029-0.028 0.068-0.044 0.108-0.044l-0.11 0.26z"></path>
</svg>
