<!-- Generated by IcoMoon.io -->
<svg version="1.1" xmlns="http://www.w3.org/2000/svg" width="32" height="32" viewBox="0 0 32 32">
<title>calendar</title>
<path d="M17.389 22.687c0 1.375 1.118 2.493 2.493 2.493h2.929c1.375 0 2.493-1.118 2.493-2.493v-2.929c0-1.375-1.118-2.493-2.493-2.493h-2.929c-1.375 0-2.493 1.118-2.493 2.493v2.929zM19.882 19.757h2.929l0.002 2.929c0 0-0 0-0.002 0h-2.929v-2.929z"></path>
<path d="M24.058 14.335c0.688 0 1.247-0.558 1.247-1.246s-0.558-1.247-1.247-1.247c-0.688 0-1.247 0.558-1.247 1.247s0.558 1.246 1.247 1.246z"></path>
<path d="M18.636 14.335c0.688 0 1.247-0.558 1.247-1.246s-0.558-1.247-1.247-1.247c-0.688 0-1.247 0.558-1.247 1.247s0.558 1.246 1.247 1.246z"></path>
<path d="M30.665 21.939c0.688 0 1.247-0.558 1.247-1.247v-13.213c0-2.749-2.237-4.986-4.986-4.986h-1.621v-1.247c0-0.688-0.558-1.247-1.247-1.247s-1.247 0.558-1.247 1.247v1.247h-5.672v-1.247c0-0.688-0.558-1.247-1.246-1.247s-1.247 0.558-1.247 1.247v1.247h-5.609v-1.247c0-0.688-0.558-1.247-1.247-1.247s-1.247 0.558-1.247 1.247v1.247h-1.558c-2.749 0-4.986 2.237-4.986 4.986v19.446c0 2.749 2.237 4.986 4.986 4.986h21.939c2.749 0 4.986-2.237 4.986-4.986 0-0.688-0.558-1.247-1.247-1.247s-1.247 0.558-1.247 1.247c0 1.375-1.118 2.493-2.493 2.493h-21.939c-1.375 0-2.493-1.118-2.493-2.493v-19.446c0-1.375 1.118-2.493 2.493-2.493h1.558v1.247c0 0.688 0.558 1.247 1.247 1.247s1.247-0.558 1.247-1.247v-1.247h5.609v1.247c0 0.688 0.558 1.247 1.247 1.247s1.247-0.558 1.247-1.247v-1.247h5.672v1.247c0 0.688 0.558 1.247 1.247 1.247s1.247-0.558 1.247-1.247v-1.247h1.621c1.375 0 2.493 1.118 2.493 2.493v13.213c0 0.688 0.558 1.247 1.247 1.247z"></path>
<path d="M7.791 25.18c0.688 0 1.247-0.558 1.247-1.247s-0.558-1.247-1.247-1.247c-0.688 0-1.247 0.558-1.247 1.247s0.558 1.247 1.247 1.247z"></path>
<path d="M7.791 14.335c0.688 0 1.247-0.558 1.247-1.246s-0.558-1.247-1.247-1.247c-0.688 0-1.247 0.558-1.247 1.247s0.558 1.246 1.247 1.246z"></path>
<path d="M7.791 19.757c0.688 0 1.247-0.558 1.247-1.247s-0.558-1.247-1.247-1.247-1.247 0.558-1.247 1.247c0 0.688 0.558 1.247 1.247 1.247z"></path>
<path d="M13.214 19.757c0.688 0 1.246-0.558 1.246-1.247s-0.558-1.247-1.246-1.247-1.247 0.558-1.247 1.247c0 0.688 0.558 1.247 1.247 1.247z"></path>
<path d="M13.214 14.335c0.688 0 1.246-0.558 1.246-1.246s-0.558-1.247-1.246-1.247c-0.688 0-1.247 0.558-1.247 1.247s0.558 1.246 1.247 1.246z"></path>
<path d="M13.214 25.18c0.688 0 1.246-0.558 1.246-1.247s-0.558-1.247-1.246-1.247c-0.688 0-1.247 0.558-1.247 1.247s0.558 1.247 1.247 1.247z"></path>
</svg>
