<svg width="14" height="18" viewBox="0 0 14 18" fill="none" xmlns="http://www.w3.org/2000/svg">
<path fill-rule="evenodd" clip-rule="evenodd" d="M9.5 0L10.5 1H14V3H0V1H3.5L4.5 0H9.5ZM7 9.59L9.12 7.47L10.53 8.88L8.41 11L10.53 13.12L9.12 14.53L7 12.41L4.88 14.53L3.47 13.12L5.59 11L3.46 8.88L4.87 7.47L7 9.59ZM1 16C1 17.1 1.9 18 3 18H11C12.1 18 13 17.1 13 16V4H1V16ZM11 6H3V16H11V6Z" fill="url(#paint0_linear)"/>
<defs>
<linearGradient id="paint0_linear" x1="-1.9275" y1="16.9891" x2="11.8069" y2="23.0061" gradientUnits="userSpaceOnUse">
<stop stop-color="#273951"/>
<stop offset="0.9994" stop-color="#9F3658"/>
<stop offset="0.9995" stop-color="#EBEF22"/>
<stop offset="0.9996" stop-color="#4E0D22"/>
</linearGradient>
</defs>
</svg>
