<!-- Generated by IcoMoon.io -->
<svg version="1.1" xmlns="http://www.w3.org/2000/svg" width="31" height="32" viewBox="0 0 31 32">
<title>facebook_round</title>
<path fill="none" stroke="#fff" stroke-linejoin="miter" stroke-linecap="butt" stroke-miterlimit="10" stroke-width="1.4222" d="M15.375 31.051c8.062-0.018 14.584-6.751 14.566-15.037s-6.569-14.989-14.631-14.97c-8.062 0.018-14.584 6.751-14.566 15.037s6.569 14.989 14.631 14.97z"></path>
<path fill="#a43458" d="M15.342 27.989c6.383 0 11.557-5.347 11.557-11.942s-5.174-11.942-11.557-11.942-11.557 5.347-11.557 11.942c0 6.596 5.174 11.942 11.557 11.942z"></path>
<path fill="#efebe3" d="M13.323 24.518h3.215v-8.276h2.243l0.239-2.771h-2.483v-1.578c0-0.653 0.128-0.911 0.742-0.911h1.74v-2.876h-2.226c-2.393 0-3.472 1.083-3.472 3.156v2.209h-1.672v2.806h1.672v8.241z"></path>
</svg>
