<!-- Generated by IcoMoon.io -->
<svg version="1.1" xmlns="http://www.w3.org/2000/svg" width="32" height="32" viewBox="0 0 32 32">
<title>insta_round</title>
<path fill="none" stroke="#fff" stroke-linejoin="miter" stroke-linecap="butt" stroke-miterlimit="10" stroke-width="1.1636" d="M18.848 28.089c6.601-1.667 10.601-8.371 8.934-14.972s-8.371-10.601-14.972-8.934c-6.601 1.667-10.601 8.371-8.934 14.972s8.371 10.601 14.972 8.934z"></path>
<path fill="#a43458" d="M15.82 25.772c5.323 0 9.638-4.315 9.638-9.637s-4.315-9.638-9.638-9.638c-5.323 0-9.637 4.315-9.637 9.638s4.315 9.637 9.637 9.637z"></path>
<path fill="#efebe3" d="M15.831 11.344c1.632 0 1.826 0.006 2.469 0.036 0.388 0.005 0.772 0.076 1.135 0.21 0.264 0.102 0.503 0.257 0.703 0.457s0.355 0.439 0.457 0.703c0.135 0.363 0.206 0.747 0.21 1.135 0.029 0.645 0.036 0.838 0.036 2.469s-0.006 1.826-0.036 2.469c-0.005 0.388-0.076 0.772-0.21 1.135-0.102 0.264-0.257 0.503-0.457 0.703s-0.439 0.356-0.703 0.457c-0.364 0.135-0.748 0.206-1.135 0.211-0.645 0.029-0.838 0.036-2.469 0.036s-1.826-0.006-2.469-0.036c-0.388-0.005-0.772-0.076-1.135-0.211-0.264-0.102-0.503-0.258-0.703-0.457s-0.356-0.439-0.457-0.703c-0.135-0.364-0.206-0.747-0.211-1.135-0.029-0.645-0.036-0.838-0.036-2.469s0.006-1.826 0.036-2.469c0.005-0.388 0.076-0.772 0.211-1.135 0.102-0.264 0.258-0.503 0.457-0.703s0.439-0.356 0.703-0.457c0.364-0.135 0.747-0.206 1.135-0.21 0.645-0.029 0.838-0.036 2.469-0.036zM15.831 10.243c-1.66 0-1.868 0.007-2.521 0.037-0.507 0.010-1.009 0.106-1.484 0.284-0.406 0.157-0.775 0.397-1.083 0.705s-0.548 0.677-0.705 1.083c-0.178 0.475-0.274 0.977-0.284 1.484-0.030 0.652-0.037 0.86-0.037 2.521s0.007 1.869 0.037 2.521c0.010 0.507 0.106 1.009 0.284 1.484 0.157 0.406 0.397 0.775 0.705 1.083s0.677 0.548 1.083 0.705c0.475 0.178 0.977 0.274 1.484 0.284 0.652 0.030 0.86 0.037 2.521 0.037s1.869-0.007 2.521-0.037c0.507-0.010 1.009-0.106 1.484-0.284 0.406-0.157 0.775-0.397 1.083-0.705s0.548-0.677 0.705-1.083c0.178-0.475 0.274-0.977 0.284-1.484 0.030-0.652 0.037-0.86 0.037-2.521s-0.007-1.868-0.037-2.521c-0.010-0.507-0.106-1.009-0.284-1.484-0.157-0.406-0.397-0.775-0.705-1.083s-0.677-0.548-1.083-0.705c-0.475-0.178-0.977-0.274-1.484-0.284-0.652-0.030-0.86-0.037-2.521-0.037z"></path>
<path fill="#efebe3" d="M15.831 13.217c-0.621 0-1.228 0.184-1.744 0.529s-0.919 0.835-1.156 1.409-0.3 1.205-0.179 1.814c0.121 0.609 0.42 1.168 0.859 1.607s0.998 0.738 1.607 0.859 1.24 0.059 1.814-0.179c0.574-0.238 1.064-0.64 1.409-1.156s0.529-1.123 0.529-1.744c0-0.833-0.331-1.631-0.919-2.22s-1.387-0.919-2.22-0.919v0zM15.831 18.394c-0.403 0-0.797-0.119-1.132-0.343s-0.596-0.542-0.751-0.915c-0.154-0.372-0.195-0.782-0.116-1.177s0.273-0.758 0.558-1.043c0.285-0.285 0.648-0.479 1.043-0.558s0.805-0.038 1.177 0.116c0.372 0.154 0.691 0.415 0.915 0.751s0.343 0.729 0.343 1.132c0 0.54-0.215 1.059-0.597 1.441s-0.9 0.597-1.441 0.597z"></path>
<path fill="#efebe3" d="M19.828 13.093c0 0.145-0.043 0.287-0.124 0.408s-0.195 0.215-0.329 0.27c-0.134 0.056-0.281 0.070-0.424 0.042s-0.273-0.098-0.376-0.201c-0.103-0.103-0.172-0.233-0.201-0.376s-0.014-0.29 0.042-0.424c0.055-0.134 0.149-0.249 0.27-0.329s0.262-0.124 0.407-0.124c0.195 0 0.381 0.077 0.519 0.215s0.215 0.324 0.215 0.519z"></path>
</svg>
