<!-- Generated by IcoMoon.io -->
<svg version="1.1" xmlns="http://www.w3.org/2000/svg" width="32" height="32" viewBox="0 0 32 32">
<title>insta</title>
<path fill="none" stroke="#273951" stroke-linejoin="miter" stroke-linecap="butt" stroke-miterlimit="10" stroke-width="1.2549" d="M19.236 28.165c6.598-1.666 10.595-8.366 8.929-14.964s-8.366-10.595-14.964-8.929-10.595 8.366-8.929 14.964c1.666 6.598 8.366 10.595 14.964 8.929z"></path>
<path d="M16.221 11.43c1.631 0 1.825 0.006 2.468 0.036 0.387 0.005 0.771 0.076 1.135 0.21 0.264 0.102 0.503 0.257 0.703 0.457s0.355 0.439 0.457 0.703c0.135 0.363 0.206 0.747 0.21 1.134 0.029 0.644 0.036 0.838 0.036 2.468s-0.006 1.825-0.036 2.468c-0.005 0.387-0.076 0.771-0.21 1.134-0.102 0.264-0.257 0.503-0.457 0.703s-0.439 0.355-0.703 0.457c-0.363 0.135-0.747 0.206-1.135 0.21-0.644 0.029-0.837 0.036-2.468 0.036s-1.825-0.006-2.468-0.036c-0.387-0.005-0.771-0.076-1.134-0.21-0.264-0.102-0.503-0.257-0.703-0.457s-0.355-0.439-0.457-0.703c-0.135-0.363-0.206-0.747-0.21-1.134-0.029-0.644-0.036-0.838-0.036-2.468s0.006-1.825 0.036-2.468c0.005-0.387 0.076-0.771 0.21-1.134 0.102-0.264 0.257-0.503 0.457-0.703s0.439-0.355 0.703-0.457c0.363-0.135 0.747-0.206 1.134-0.21 0.645-0.029 0.838-0.036 2.468-0.036zM16.221 10.329c-1.659 0-1.867 0.007-2.52 0.037-0.507 0.010-1.008 0.106-1.483 0.284-0.406 0.157-0.775 0.397-1.082 0.705s-0.548 0.676-0.705 1.082c-0.178 0.475-0.274 0.976-0.284 1.483-0.030 0.652-0.037 0.86-0.037 2.52s0.007 1.868 0.037 2.52c0.010 0.507 0.106 1.008 0.284 1.483 0.157 0.406 0.397 0.775 0.705 1.082s0.676 0.548 1.082 0.705c0.475 0.178 0.976 0.274 1.483 0.284 0.652 0.030 0.86 0.037 2.52 0.037s1.868-0.007 2.52-0.037c0.507-0.010 1.009-0.106 1.483-0.284 0.406-0.157 0.774-0.397 1.082-0.705s0.548-0.676 0.705-1.082c0.178-0.475 0.274-0.976 0.284-1.483 0.030-0.652 0.037-0.86 0.037-2.52s-0.007-1.867-0.037-2.52c-0.010-0.507-0.106-1.008-0.284-1.483-0.157-0.406-0.397-0.774-0.705-1.082s-0.676-0.548-1.082-0.705c-0.475-0.178-0.976-0.274-1.483-0.284-0.652-0.030-0.86-0.037-2.52-0.037z"></path>
<path d="M16.221 13.301c-0.621 0-1.227 0.184-1.743 0.529s-0.918 0.835-1.156 1.408c-0.238 0.573-0.3 1.204-0.178 1.813s0.42 1.168 0.859 1.606c0.439 0.439 0.998 0.738 1.607 0.859s1.24 0.059 1.813-0.179c0.573-0.238 1.063-0.64 1.408-1.156s0.529-1.123 0.529-1.743c0-0.832-0.331-1.63-0.919-2.219s-1.386-0.919-2.219-0.919v0zM16.221 18.475c-0.403 0-0.797-0.119-1.132-0.343s-0.596-0.542-0.75-0.914-0.194-0.782-0.116-1.177c0.079-0.395 0.273-0.758 0.557-1.043s0.648-0.479 1.043-0.557c0.395-0.079 0.805-0.038 1.177 0.116s0.69 0.415 0.914 0.75 0.343 0.729 0.343 1.131c0 0.54-0.215 1.058-0.597 1.44s-0.9 0.597-1.44 0.597z"></path>
<path d="M20.216 13.177c0 0.145-0.043 0.287-0.124 0.407s-0.195 0.215-0.329 0.27c-0.134 0.055-0.281 0.070-0.424 0.042s-0.273-0.098-0.375-0.201c-0.103-0.102-0.172-0.233-0.201-0.375s-0.014-0.29 0.042-0.424 0.149-0.248 0.27-0.329c0.121-0.081 0.262-0.124 0.407-0.124 0.194 0 0.381 0.077 0.518 0.215s0.215 0.324 0.215 0.518z"></path>
</svg>
