<!-- Generated by IcoMoon.io -->
<svg version="1.1" xmlns="http://www.w3.org/2000/svg" width="1024" height="1024" viewBox="0 0 1024 1024">
<title></title>
<g id="icomoon-ignore">
</g>
<path d="M698.001 597.999h144c8-37.333 11.998-65.997 11.998-85.999s-3.998-48.666-11.998-86h-144c3.998 27.999 5.999 56.666 5.999 86s-2.001 58.001-5.999 85.999zM621.999 834.001c81.335-26.667 143.334-77.333 186.001-152h-125.999c-13.333 53.333-33.335 104-60.002 152zM612.002 597.999c3.998-27.998 5.999-56.666 5.999-85.999s-2.001-58.001-5.999-86h-200.002c-4 27.999-6 56.666-6 86s2 58.001 6 85.999h200.002zM512 852.002c37.333-54.669 64.666-111.334 82.001-170.001h-164.002c17.335 58.667 44.668 115.332 82.001 170.001zM342 342c13.333-53.333 33.334-104 60-152-81.334 26.667-143.334 77.333-186 152h126zM216 682.001c42.667 74.667 104.666 125.333 186 152-26.667-48-46.667-98.667-60-152h-126zM182 597.999h144c-4-27.998-6-56.666-6-85.999s2-58.001 6-86h-144c-8 37.334-12 65.998-12 86s4 48.666 12 85.999zM512 172c-37.333 54.667-64.666 111.333-82.001 170h164.002c-17.335-58.667-44.668-115.333-82.001-170zM808 342c-42.667-74.667-104.666-125.333-186.001-152 26.667 48 46.669 98.667 60.002 152h125.999zM210 212c84-84 184.666-126 302-126s217.335 42 299.998 126c84.002 82.667 126.003 182.667 126.003 300s-42.001 218.001-126.003 301.999c-82.662 82.667-182.665 124.002-299.998 124.002s-218-41.335-302-124.002c-82.667-83.998-124-184.666-124-301.999s41.334-217.333 124-300z"></path>
</svg>
