<!-- Generated by IcoMoon.io -->
<svg version="1.1" xmlns="http://www.w3.org/2000/svg" width="1024" height="1024" viewBox="0 0 1024 1024">
<title></title>
<g id="icomoon-ignore">
</g>
<path d="M725.999 298c58.667 0 108.668 21.333 149.999 64 41.335 41.333 62.003 91.333 62.003 150s-20.668 109.333-62.003 152c-41.331 41.331-91.332 61.999-149.999 61.999h-171.998v-81.997h171.998c36.002 0 66.667-12.668 92.002-38.003 26.667-26.667 40-57.997 40-93.999s-13.333-66.667-40-92c-25.335-26.667-56-40-92.002-40h-171.998v-82h171.998zM342 554.001v-84.002h340.001v84.002h-340.001zM204 420c-25.333 25.333-38 55.998-38 92s12.667 67.332 38 93.999c26.667 25.335 58 38.003 94 38.003h171.999v81.997h-171.999c-58.667 0-108.667-20.668-150-61.999-41.333-42.667-62-93.333-62-152s20.667-108.667 62-150c41.333-42.667 91.334-64 150-64h171.999v82h-171.999c-36 0-67.334 13.333-94 40z"></path>
</svg>
