<!-- Generated by IcoMoon.io -->
<svg version="1.1" xmlns="http://www.w3.org/2000/svg" width="32" height="32" viewBox="0 0 32 32">
<title>more_vert</title>
<path d="M14.125 22.125c0.542-0.542 1.167-0.812 1.875-0.812s1.333 0.271 1.875 0.812c0.542 0.542 0.812 1.167 0.812 1.875s-0.271 1.333-0.812 1.875c-0.542 0.542-1.167 0.812-1.875 0.812s-1.333-0.271-1.875-0.812c-0.542-0.542-0.812-1.167-0.812-1.875s0.271-1.333 0.812-1.875zM14.125 14.125c0.542-0.542 1.167-0.812 1.875-0.812s1.333 0.271 1.875 0.812c0.542 0.542 0.812 1.167 0.812 1.875s-0.271 1.333-0.812 1.875c-0.542 0.542-1.167 0.812-1.875 0.812s-1.333-0.271-1.875-0.812c-0.542-0.542-0.812-1.167-0.812-1.875s0.271-1.333 0.812-1.875zM17.875 9.875c-0.542 0.542-1.167 0.812-1.875 0.812s-1.333-0.271-1.875-0.812c-0.542-0.542-0.812-1.167-0.812-1.875s0.271-1.333 0.812-1.875c0.542-0.542 1.167-0.813 1.875-0.813s1.333 0.271 1.875 0.813c0.542 0.542 0.812 1.167 0.812 1.875s-0.271 1.333-0.812 1.875z"></path>
</svg>
