<!-- Generated by IcoMoon.io -->
<svg version="1.1" xmlns="http://www.w3.org/2000/svg" width="43" height="32" viewBox="0 0 43 32">
<title>people</title>
<path fill="#273951" d="M31.252 26.847c-0.138-0.662-0.786-1.086-1.448-0.949s-1.086 0.786-0.949 1.448c0.079 0.381-0.015 0.772-0.259 1.072-0.141 0.174-0.457 0.465-0.979 0.465h-23.903c-0.522 0-0.838-0.292-0.979-0.465-0.244-0.3-0.339-0.691-0.259-1.072 1.27-6.101 6.651-10.557 12.865-10.707 0.108 0.004 0.216 0.006 0.324 0.006s0.218-0.002 0.326-0.006c4.377 0.105 8.423 2.322 10.873 5.976 0.376 0.561 1.137 0.711 1.698 0.335s0.711-1.137 0.335-1.698c-2.008-2.995-4.924-5.173-8.249-6.267 2.026-1.519 3.339-3.94 3.339-6.662 0-4.589-3.733-8.322-8.322-8.322s-8.322 3.733-8.322 8.322c0 2.723 1.315 5.145 3.343 6.665-1.858 0.612-3.602 1.564-5.128 2.819-2.799 2.302-4.744 5.513-5.479 9.041-0.23 1.106 0.046 2.241 0.757 3.115 0.707 0.87 1.756 1.369 2.878 1.369h23.903c1.122 0 2.171-0.499 2.878-1.369 0.711-0.874 0.987-2.010 0.757-3.115zM9.791 8.322c0-3.239 2.635-5.875 5.875-5.875s5.875 2.635 5.875 5.875c0 3.14-2.476 5.712-5.577 5.867-0.099-0.002-0.198-0.003-0.297-0.003s-0.198 0.001-0.296 0.003c-3.102-0.155-5.578-2.727-5.578-5.867z"></path>
<path fill="#fff" d="M15.665 5.222h26.109v26.109h-26.109v-26.109z"></path>
<path fill="#273951" d="M41.709 27.594c-0.115-0.551-0.655-0.905-1.206-0.791s-0.905 0.655-0.791 1.206c0.066 0.318-0.013 0.643-0.216 0.893-0.118 0.145-0.38 0.388-0.816 0.388h-19.919c-0.435 0-0.698-0.243-0.816-0.388-0.203-0.25-0.282-0.576-0.216-0.893 1.058-5.084 5.543-8.798 10.721-8.923 0.090 0.003 0.18 0.005 0.27 0.005s0.181-0.002 0.271-0.005c3.648 0.087 7.019 1.935 9.061 4.98 0.314 0.468 0.947 0.593 1.415 0.279s0.593-0.947 0.279-1.415c-1.673-2.496-4.104-4.311-6.874-5.223 1.688-1.266 2.783-3.283 2.783-5.552 0-3.824-3.111-6.935-6.935-6.935s-6.935 3.111-6.935 6.935c0 2.269 1.096 4.288 2.786 5.554-1.549 0.51-3.002 1.303-4.273 2.349-2.332 1.918-3.954 4.594-4.566 7.534-0.192 0.921 0.038 1.868 0.63 2.596 0.59 0.725 1.464 1.141 2.398 1.141h19.919c0.935 0 1.809-0.416 2.398-1.141 0.593-0.729 0.822-1.675 0.63-2.596zM23.825 12.157c0-2.699 2.196-4.895 4.895-4.895s4.895 2.196 4.895 4.895c0 2.616-2.063 4.76-4.648 4.889-0.082-0.001-0.165-0.002-0.248-0.002s-0.165 0.001-0.247 0.002c-2.585-0.129-4.649-2.273-4.649-4.889z"></path>
</svg>
