<!-- Generated by IcoMoon.io -->
<svg version="1.1" xmlns="http://www.w3.org/2000/svg" width="31" height="32" viewBox="0 0 31 32">
<title>visibility</title>
<path d="M12.881 13.188c0.773-0.792 1.689-1.188 2.747-1.188s1.974 0.396 2.747 1.188c0.773 0.792 1.16 1.729 1.16 2.813s-0.387 2.021-1.16 2.813c-0.773 0.792-1.689 1.188-2.747 1.188s-1.974-0.396-2.747-1.188c-0.773-0.792-1.16-1.729-1.16-2.813s0.387-2.021 1.16-2.813zM10.988 20.75c1.302 1.292 2.849 1.938 4.64 1.938s3.317-0.646 4.578-1.938c1.302-1.333 1.953-2.917 1.953-4.75s-0.651-3.396-1.953-4.687c-1.262-1.333-2.788-2-4.578-2s-3.337 0.667-4.64 2c-1.262 1.292-1.892 2.854-1.892 4.687s0.631 3.417 1.892 4.75zM6.898 8.75c2.605-1.833 5.515-2.75 8.73-2.75s6.125 0.917 8.73 2.75c2.605 1.833 4.477 4.25 5.616 7.25-1.139 3-3.012 5.417-5.616 7.25s-5.515 2.75-8.73 2.75-6.125-0.917-8.73-2.75c-2.605-1.833-4.477-4.25-5.616-7.25 1.14-3 3.012-5.417 5.616-7.25z"></path>
</svg>
