<!-- Generated by IcoMoon.io -->
<svg version="1.1" xmlns="http://www.w3.org/2000/svg" width="33" height="32" viewBox="0 0 33 32">
<title>visibility_off</title>
<path d="M16.18 12h0.192c1.109 0 2.068 0.396 2.878 1.188s1.215 1.729 1.215 2.813v0.25l-4.285-4.25zM10.296 13.062c-0.512 1-0.767 1.979-0.767 2.938 0 1.833 0.661 3.417 1.983 4.75 1.364 1.292 2.984 1.938 4.86 1.938 0.981 0 1.983-0.25 3.006-0.75l-2.11-2.063c-0.341 0.083-0.639 0.125-0.895 0.125-1.109 0-2.068-0.396-2.878-1.188s-1.215-1.729-1.215-2.813c0-0.25 0.043-0.542 0.128-0.875l-2.111-2.063zM2.75 5.688l1.727-1.688 24.174 23.625-1.727 1.688c-0.213-0.208-0.895-0.854-2.046-1.938-1.109-1.083-1.961-1.917-2.558-2.5-1.833 0.75-3.816 1.125-5.948 1.125-3.368 0-6.417-0.917-9.145-2.75s-4.69-4.25-5.884-7.25c1.066-2.583 2.771-4.792 5.116-6.625-0.512-0.5-1.236-1.208-2.174-2.125-0.895-0.917-1.407-1.438-1.535-1.563zM16.372 9.313c-0.853 0-1.684 0.167-2.494 0.5l-2.942-2.875c1.663-0.625 3.475-0.938 5.436-0.938 3.368 0 6.395 0.917 9.081 2.75 2.729 1.833 4.69 4.25 5.884 7.25-1.023 2.458-2.579 4.563-4.669 6.312l-3.965-3.875c0.341-0.792 0.512-1.604 0.512-2.438 0-1.833-0.682-3.396-2.046-4.687-1.322-1.333-2.921-2-4.797-2z"></path>
</svg>
