<svg height="512pt" viewBox="0 -2 512.00013 512" width="512pt" xmlns="http://www.w3.org/2000/svg"><path d="m7.257812 377.296875c4.550782 3.191406 10.367188 3.96875 15.59375 2.082031l190.480469-68.566406.011719 103.324219-45.085938 37.566406c-3.882812 3.242187-6.128906 8.042969-6.125 13.101563v27.199218c0 5.394532 2.550782 10.472656 6.875 13.691406 4.328126 3.222657 9.925782 4.207032 15.09375 2.660157l71.898438-21.578125 71.898438 21.578125c1.605468.484375 3.273437.730469 4.949218.730469 9.40625-.042969 17.011719-7.675782 17.019532-17.082032v-27.199218c0-5.066407-2.25-9.875-6.144532-13.117188l-45.054687-37.546875v-103.328125l190.472656 68.566406c5.230469 1.890625 11.050781 1.109375 15.601563-2.082031 4.550781-3.195313 7.257812-8.410156 7.257812-13.96875v-42.921875c.015625-5.820312-2.953125-11.246094-7.867188-14.367188l-205.464843-131.5v-131.867187c.003906-12.039063-5.078125-23.523437-13.996094-31.609375-8.917969-8.089844-20.839844-12.035156-32.820313-10.859375-22.160156 2.679687-38.753906 21.605469-38.519531 43.925781v130.410156l-205.464843 131.488282c-4.914063 3.128906-7.882813 8.554687-7.867188 14.378906v42.921875c.00390625 5.558594 2.710938 10.769531 7.257812 13.96875zm9.808594-56.890625 209.402344-134.019531c2.449219-1.566407 3.929688-4.273438 3.929688-7.183594v-135.074219c-.289063-13.542968 9.640624-25.140625 23.066406-26.941406 7.199218-.71875 14.363281 1.644531 19.722656 6.5s8.417969 11.75 8.414062 18.984375v136.53125c0 2.910156 1.480469 5.617187 3.929688 7.183594l209.402344 134.019531v42.921875l-201.910156-72.679687c-2.613282-.945313-5.523438-.554688-7.796876 1.039062-2.273437 1.597656-3.628906 4.203125-3.625 6.984375v115.464844c-.003906 5.066406 2.25 9.875 6.140626 13.117187l45.058593 37.546875v27.199219l-71.925781-21.578125c-3.191406-.949219-6.585938-.945313-9.773438.007813l-71.902343 21.574218-.007813-27.199218 45.082032-37.566407c3.886718-3.242187 6.128906-8.042969 6.125-13.101562v-115.464844c.003906-2.78125-1.351563-5.386719-3.625-6.984375-2.273438-1.59375-5.183594-1.984375-7.796876-1.039062l-201.910156 72.679687zm0 0"/></svg>