<!-- Generated by IcoMoon.io -->
<svg version="1.1" xmlns="http://www.w3.org/2000/svg" width="32" height="32" viewBox="0 0 32 32">
<title>vg-calendar</title>
<path d="M27.875 2.5h-2.875v-1.5c0-0.552-0.448-1-1-1s-1 0.448-1 1v1.5h-14v-1.5c0-0.552-0.448-1-1-1s-1 0.448-1 1v1.5h-2.875c-2.275 0-4.125 1.85-4.125 4.125v21.25c0 2.275 1.85 4.125 4.125 4.125h23.75c2.275 0 4.125-1.85 4.125-4.125v-21.25c0-2.275-1.85-4.125-4.125-4.125zM4.125 4.5h2.875v1c0 0.552 0.448 1 1 1s1-0.448 1-1v-1h14v1c0 0.552 0.448 1 1 1s1-0.448 1-1v-1h2.875c1.172 0 2.125 0.953 2.125 2.125v2.375h-28v-2.375c0-1.172 0.953-2.125 2.125-2.125zM27.875 30h-23.75c-1.172 0-2.125-0.953-2.125-2.125v-16.875h28v16.875c0 1.172-0.953 2.125-2.125 2.125z"></path>
</svg>
