<?xml version="1.0" encoding="iso-8859-1"?>
<!-- Generator: Adobe Illustrator 19.0.0, SVG Export Plug-In . SVG Version: 6.00 Build 0)  -->
<svg version="1.1" id="Layer_1" xmlns="http://www.w3.org/2000/svg" xmlns:xlink="http://www.w3.org/1999/xlink" x="0px" y="0px"
	 viewBox="0 0 469.333 469.333" style="enable-background:new 0 0 469.333 469.333;" xml:space="preserve">
<g>
	<g>
		<g>
			<path d="M44.562,324.604C37.125,335.375,0,390.406,0,416c0,29.406,23.917,53.333,53.333,53.333
				c29.417,0,53.333-23.927,53.333-53.333c0-25.594-37.125-80.625-44.563-91.396C58.146,318.833,48.521,318.833,44.562,324.604z
				 M53.333,448c-17.646,0-32-14.354-32-32c0-11.646,16.646-42.052,32-66.052c15.354,23.99,32,54.385,32,66.052
				C85.333,433.646,70.979,448,53.333,448z"/>
			<path d="M448,389.936V42.667C448,19.135,428.854,0,405.333,0H202.667C196.771,0,192,4.771,192,10.667v42.667
				C192,59.229,196.771,64,202.667,64h138.667v158.729l-128.417-105.76c-24.771-20.406-56.083-31.635-88.167-31.635H42.667
				C19.146,85.333,0,104.469,0,128v96c0,5.896,4.771,10.667,10.667,10.667H96c5.896,0,10.667-4.771,10.667-10.667v-32h16.167
				c14.042,0,27.792,5.698,37.708,15.625l101.167,101.167c10.083,10.083,15.625,23.479,15.625,37.719v43.426
				C264.645,397.337,256,410.944,256,426.667v32c0,5.896,4.771,10.667,10.667,10.667h192c5.896,0,10.667-4.771,10.667-10.667v-32
				C469.333,410.944,460.689,397.337,448,389.936z M276.792,293.708L175.625,192.542c-13.896-13.896-33.125-21.875-52.792-21.875H96
				c-5.896,0-10.667,4.771-10.667,10.667v32h-64V128c0-11.76,9.563-21.333,21.333-21.333h82.083c27.146,0,53.646,9.51,74.604,26.76
				l145.875,120.135c3.167,2.625,7.563,3.198,11.333,1.417c3.729-1.76,6.104-5.521,6.104-9.646v-192
				c0-5.896-4.771-10.667-10.667-10.667H213.333V21.333h192c11.771,0,21.333,9.573,21.333,21.333V384h-128v-37.49
				C298.667,326.573,290.896,307.823,276.792,293.708z M448,448H277.333v-21.333c0-11.76,9.563-21.333,21.333-21.333h128
				c11.771,0,21.333,9.573,21.333,21.333V448z"/>
		</g>
	</g>
</g>
<g>
</g>
<g>
</g>
<g>
</g>
<g>
</g>
<g>
</g>
<g>
</g>
<g>
</g>
<g>
</g>
<g>
</g>
<g>
</g>
<g>
</g>
<g>
</g>
<g>
</g>
<g>
</g>
<g>
</g>
</svg>
