<svg width="60" height="60" viewBox="0 0 60 60" fill="none" xmlns="http://www.w3.org/2000/svg">
<g clip-path="url(#clip0)">
<path d="M53.0893 7.38185C52.4088 5.79572 51.1722 4.53463 49.6072 3.83109C38.2432 -1.27687 21.7466 -1.27722 10.3823 3.83121C8.81753 4.53463 7.58094 5.7956 6.9006 7.38162C4.78164 12.3205 3.47943 18.3208 3.13457 24.7334C2.80354 30.8925 3.37374 37.0396 4.77954 42.5454L3.38686 43.938C3.16715 44.1579 3.04364 44.4558 3.04364 44.7666V58.8281C3.04364 59.4752 3.56837 59.9999 4.21543 59.9999H22.9641C23.9582 59.9999 24.8564 59.5845 25.4965 58.9189C26.8529 59.628 28.3894 59.9999 29.9949 59.9999C33.4319 59.9999 36.4483 58.2645 37.9053 55.691C42.2234 55.0709 46.1599 53.9728 49.6078 52.4231C51.1726 51.7196 52.4089 50.4588 53.0891 48.873C58.2466 36.8524 58.2466 19.4028 53.0893 7.38185ZM16.1329 41.2511H29.9436C30.5671 41.2511 31.1124 41.7205 31.154 42.3426C31.1997 43.025 30.6576 43.5947 29.9849 43.5947H22.9645H20.7412H17.1457C16.5216 43.5947 15.9766 44.0655 15.9362 44.6883C15.8919 45.3708 16.4324 45.9383 17.1054 45.9383H20.7411H22.923C23.5465 45.9383 24.0919 46.4077 24.1334 47.0298C24.1791 47.7121 23.6371 48.2819 22.9644 48.2819H17.1457C16.5216 48.2819 15.9766 48.7527 15.9362 49.3755C15.8919 50.058 16.4324 50.6255 17.1054 50.6255H22.923C23.5465 50.6255 24.0919 51.0949 24.1334 51.717C24.1791 52.3993 23.6371 52.969 22.9644 52.969H17.1457C16.5216 52.969 15.9766 53.4399 15.9362 54.0627C15.8919 54.7451 16.4324 55.3126 17.1054 55.3126H22.9228C23.5463 55.3126 24.0916 55.7819 24.1334 56.404C24.1793 57.0864 23.6367 57.6564 22.964 57.6564H5.38711V45.2521L13.6902 36.949C14.2024 36.4366 15.0361 36.4366 15.5483 36.949C15.8101 37.2107 15.9478 37.5635 15.9318 37.9359C15.9173 38.277 15.7592 38.5963 15.5178 38.8377L15.1046 39.251C15.034 39.3249 14.7215 39.6683 14.7561 40.1353C14.7868 40.5513 15.0831 40.9354 15.5236 41.1321C15.7144 41.2172 15.9241 41.2511 16.1329 41.2511ZM50.9354 47.9492C50.4873 48.9938 49.6744 49.8236 48.6469 50.2855C45.716 51.603 42.3967 52.5763 38.7632 53.1864C38.7662 53.165 38.7705 53.1439 38.7734 53.1224C38.858 52.4807 38.4064 51.892 37.7649 51.8074C37.1228 51.7222 36.5345 52.1744 36.4499 52.8159C36.0862 55.5755 33.311 57.6563 29.995 57.6563C28.7236 57.6563 27.5158 57.3544 26.4663 56.7799C26.4745 56.6824 26.4796 56.5841 26.4796 56.4845C26.4796 55.5848 26.1396 54.7634 25.5816 54.1409C26.1394 53.5185 26.4796 52.6971 26.4796 51.7974C26.4796 50.8977 26.1396 50.0762 25.5816 49.4538C26.1394 48.8313 26.4796 48.0099 26.4796 47.1102C26.4796 46.6994 26.4081 46.3052 26.2781 45.9384H29.9847C31.9231 45.9384 33.5001 44.3614 33.5001 42.423C33.5001 40.4846 31.9231 38.9076 29.9847 38.9076H18.1282C18.4903 37.666 18.1831 36.2689 17.2058 35.2917C15.7797 33.8657 13.4592 33.8657 12.0332 35.2917L6.7226 40.6022C5.61549 35.6805 5.18345 30.2787 5.47488 24.8591C5.80485 18.7184 7.04274 12.9942 9.05435 8.30534C9.50256 7.26046 10.3154 6.43059 11.3431 5.96867C16.5379 3.63376 23.1618 2.34783 29.9948 2.34783C36.8277 2.34783 43.4517 3.63376 48.6463 5.96867C49.6742 6.43071 50.4873 7.26069 50.9356 8.30569C53.3003 13.8176 54.6025 20.857 54.6025 28.1274C54.6025 35.398 53.3002 42.4374 50.9354 47.9492Z" fill="#9F3658"/>
<path d="M31.1669 34.6893C30.5198 34.6893 29.9951 35.2141 29.9951 35.8611C29.9951 36.5082 30.5198 37.0329 31.1669 37.0329C35.6898 37.0329 39.3695 40.7126 39.3695 45.2355C39.3695 45.8825 39.8942 46.4072 40.5412 46.4072C41.1883 46.4072 41.713 45.8825 41.713 45.2355C41.713 39.4203 36.982 34.6893 31.1669 34.6893Z" fill="#9F3658"/>
<path d="M13.4671 18.807C14.5919 16.5502 18.2664 15.3678 21.4917 16.2248C22.1166 16.3913 22.7588 16.0187 22.925 15.3933C23.0913 14.7678 22.719 14.1262 22.0935 13.96C17.7214 12.7976 13.0112 14.4681 11.3694 17.7615C11.0808 18.3406 11.3162 19.0443 11.8954 19.333C12.0633 19.4167 12.2415 19.4563 12.4172 19.4563C12.8477 19.4563 13.262 19.2184 13.4671 18.807Z" fill="#9F3658"/>
<path d="M38.733 16.2248C41.9581 15.3677 45.6328 16.5504 46.7575 18.8069C46.9626 19.2183 47.3768 19.4562 47.8072 19.4562C47.9829 19.4562 48.1612 19.4166 48.329 19.3329C48.9082 19.0442 49.1436 18.3405 48.855 17.7614C47.2132 14.4679 42.5025 12.7977 38.1309 13.9599C37.5054 14.1261 37.1331 14.7679 37.2994 15.3933C37.4658 16.0189 38.1083 16.3915 38.733 16.2248Z" fill="#9F3658"/>
<path d="M18.2769 21.7996C15.0463 21.7996 12.418 24.4279 12.418 27.6585C12.418 28.3056 12.9427 28.8303 13.5898 28.8303C14.2368 28.8303 14.7616 28.3056 14.7616 27.6585C14.7616 25.7201 16.3386 24.1431 18.2769 24.1431C18.6878 24.1431 19.082 24.2146 19.4487 24.3447C18.0849 24.8284 17.1051 26.131 17.1051 27.6585C17.1051 29.5969 18.6821 31.1739 20.6205 31.1739C22.5589 31.1739 24.1359 29.5969 24.1359 27.6585C24.1359 24.4279 21.5077 21.7996 18.2769 21.7996ZM20.6205 28.8303C19.9744 28.8303 19.4487 28.3046 19.4487 27.6585C19.4487 27.0124 19.9744 26.4867 20.6205 26.4867C21.2666 26.4867 21.7923 27.0124 21.7923 27.6585C21.7923 28.3046 21.2666 28.8303 20.6205 28.8303Z" fill="#9F3658"/>
<path d="M44.0562 21.7996C40.8256 21.7996 38.1973 24.4279 38.1973 27.6585C38.1973 28.3056 38.722 28.8303 39.3691 28.8303C40.0161 28.8303 40.5408 28.3056 40.5408 27.6585C40.5408 25.7201 42.1178 24.1431 44.0562 24.1431C44.4671 24.1431 44.8612 24.2146 45.228 24.3447C43.8642 24.8284 42.8844 26.131 42.8844 27.6585C42.8844 29.5969 44.4614 31.1739 46.3998 31.1739C48.3382 31.1739 49.9152 29.5969 49.9152 27.6585C49.9152 24.4279 47.287 21.7996 44.0562 21.7996ZM46.3998 28.8303C45.7537 28.8303 45.228 28.3046 45.228 27.6585C45.228 27.0124 45.7537 26.4867 46.3998 26.4867C47.0459 26.4867 47.5716 27.0124 47.5716 27.6585C47.5716 28.3046 47.0459 28.8303 46.3998 28.8303Z" fill="#9F3658"/>
</g>
<defs>
<clipPath id="clip0">
<rect width="60" height="60" fill="white"/>
</clipPath>
</defs>
</svg>
