<svg id="Icons" height="512" viewBox="0 0 74 74" width="512" xmlns="http://www.w3.org/2000/svg"><path d="m45.19 72h-24.19a1 1 0 0 1 -1-1v-46.56a7.31 7.31 0 0 1 7.31-7.3h11.57a7.31 7.31 0 0 1 7.31 7.3v46.56a1 1 0 0 1 -1 1zm-23.19-2h22.2v-45.56a5.31 5.31 0 0 0 -5.31-5.3h-11.59a5.31 5.31 0 0 0 -5.3 5.3z"/><path d="m38.53 19.14h-10.88a1 1 0 0 1 -1-1v-11.56a2.12 2.12 0 0 1 2.11-2.11h8.66a2.12 2.12 0 0 1 2.11 2.11v11.56a1 1 0 0 1 -1 1zm-9.88-2h8.88v-10.56a.11.11 0 0 0 -.11-.11h-8.66a.11.11 0 0 0 -.11.11z"/><path d="m45.19 14.87h-6.66a1 1 0 0 1 0-2h5.66v-2.34h-5.66a1 1 0 0 1 0-2h6.66a1 1 0 0 1 1 1v4.34a1 1 0 0 1 -1 1z"/><path d="m66.93 18.94h-.1l-21.74-2.22a1 1 0 0 1 -.9-1v-8a1 1 0 0 1 .9-1l21.74-2.25a1 1 0 0 1 1.1 1v12.47a1 1 0 0 1 -.33.74 1 1 0 0 1 -.67.26zm-20.74-4.12 19.74 2v-10.24l-19.74 2z"/><path d="m39.61 46.75h-12.83a1 1 0 0 1 -1-1v-11.44a1 1 0 0 1 1-1h12.83a1 1 0 0 1 1 1v11.44a1 1 0 0 1 -1 1zm-11.83-2h10.83v-9.44h-10.83z"/><path d="m24.29 10.76a4.38 4.38 0 1 1 4.38-4.38 4.39 4.39 0 0 1 -4.38 4.38zm0-6.76a2.38 2.38 0 1 0 2.38 2.38 2.39 2.39 0 0 0 -2.38-2.38z"/><path d="m7.07 31.58a1 1 0 0 1 -1-1c.21-19 17.93-21.78 18.08-21.81a1 1 0 0 1 .29 2c-.66.1-16.18 2.58-16.37 19.84a1 1 0 0 1 -1 .97z"/></svg>