<?xml version="1.0"?>
<svg xmlns="http://www.w3.org/2000/svg" id="Layer_1" data-name="Layer 1" viewBox="0 0 128 128" width="512" height="512"><title>SWITCH</title><path d="M48.7,73.314A4.114,4.114,0,0,0,52.81,69.2v-.3H56.5a1.25,1.25,0,0,0,0-2.5H40.883a1.25,1.25,0,0,0,0,2.5h3.689v.3a4.114,4.114,0,0,0,4.109,4.109ZM47.072,69.2v-.3H50.31v.3A1.611,1.611,0,0,1,48.7,70.814h-.02A1.611,1.611,0,0,1,47.072,69.2Z"/><path d="M92.218,52.224H60.126a14.154,14.154,0,1,0-22.369.662A8.8,8.8,0,0,1,39.633,58.5v3.278a1.25,1.25,0,0,0,1.25,1.25H56.5a1.25,1.25,0,0,0,1.25-1.25V58.308a8.9,8.9,0,0,1,.727-3.584H90.968V95.75H49.941V77.667a1.25,1.25,0,1,0-2.5,0V97a1.25,1.25,0,0,0,1.25,1.25H92.218A1.25,1.25,0,0,0,93.468,97V53.474A1.25,1.25,0,0,0,92.218,52.224Zm-36.968,8.3H42.133V58.5a11.3,11.3,0,0,0-2.446-7.2,11.57,11.57,0,0,1-2.534-9.079,11.728,11.728,0,0,1,10.167-9.889A11.649,11.649,0,0,1,57.644,51.359a10.807,10.807,0,0,0-2.394,6.948Z"/><path d="M77.562,88.528a1.25,1.25,0,0,0,1.246-1.353L76.8,63.092a1.251,1.251,0,0,0-1.246-1.146h-10.2a1.251,1.251,0,0,0-1.246,1.146L62.1,87.175a1.25,1.25,0,0,0,1.246,1.353Zm-12.857-2.5.8-9.541h9.909l.8,9.541Zm9.7-21.583.8,9.542H65.709l.8-9.542Z"/></svg>
