<svg width="66" height="55" viewBox="0 0 66 55" fill="none" xmlns="http://www.w3.org/2000/svg">
<circle opacity="0.2" cx="32.5" cy="19.5" r="18.5" stroke="#273951" stroke-width="2"/>
<path d="M2.3852 44.59V46.995H6.5972V48.685H2.3852V52H0.279195V42.9H7.1562V44.59H2.3852ZM11.0695 44.902C12.1528 44.902 12.9848 45.162 13.5655 45.682C14.1462 46.1933 14.4365 46.969 14.4365 48.009V52H12.5385V51.129C12.1572 51.779 11.4465 52.104 10.4065 52.104C9.86917 52.104 9.40117 52.013 9.0025 51.831C8.6125 51.649 8.3135 51.3977 8.1055 51.077C7.8975 50.7563 7.7935 50.3923 7.7935 49.985C7.7935 49.335 8.03617 48.8237 8.5215 48.451C9.0155 48.0783 9.77383 47.892 10.7965 47.892H12.4085C12.4085 47.45 12.2742 47.112 12.0055 46.878C11.7368 46.6353 11.3338 46.514 10.7965 46.514C10.4238 46.514 10.0555 46.5747 9.6915 46.696C9.33617 46.8087 9.03283 46.9647 8.7815 47.164L8.0535 45.747C8.43483 45.4783 8.88983 45.2703 9.4185 45.123C9.95583 44.9757 10.5062 44.902 11.0695 44.902ZM10.9135 50.739C11.2602 50.739 11.5678 50.661 11.8365 50.505C12.1052 50.3403 12.2958 50.102 12.4085 49.79V49.075H11.0175C10.1855 49.075 9.7695 49.348 9.7695 49.894C9.7695 50.154 9.86917 50.362 10.0685 50.518C10.2765 50.6653 10.5582 50.739 10.9135 50.739ZM19.7281 52.104C18.9828 52.104 18.3111 51.9523 17.7131 51.649C17.1238 51.337 16.6601 50.908 16.3221 50.362C15.9928 49.816 15.8281 49.1963 15.8281 48.503C15.8281 47.8097 15.9928 47.19 16.3221 46.644C16.6601 46.098 17.1238 45.6733 17.7131 45.37C18.3111 45.058 18.9828 44.902 19.7281 44.902C20.4648 44.902 21.1061 45.058 21.6521 45.37C22.2068 45.6733 22.6098 46.111 22.8611 46.683L21.2881 47.528C20.9241 46.8867 20.3998 46.566 19.7151 46.566C19.1864 46.566 18.7488 46.7393 18.4021 47.086C18.0554 47.4327 17.8821 47.905 17.8821 48.503C17.8821 49.101 18.0554 49.5733 18.4021 49.92C18.7488 50.2667 19.1864 50.44 19.7151 50.44C20.4084 50.44 20.9328 50.1193 21.2881 49.478L22.8611 50.336C22.6098 50.8907 22.2068 51.324 21.6521 51.636C21.1061 51.948 20.4648 52.104 19.7281 52.104ZM30.7909 48.529C30.7909 48.555 30.7779 48.737 30.7519 49.075H25.4609C25.5562 49.5083 25.7816 49.8507 26.1369 50.102C26.4922 50.3533 26.9342 50.479 27.4629 50.479C27.8269 50.479 28.1476 50.427 28.4249 50.323C28.7109 50.2103 28.9752 50.037 29.2179 49.803L30.2969 50.973C29.6382 51.727 28.6762 52.104 27.4109 52.104C26.6222 52.104 25.9246 51.9523 25.3179 51.649C24.7112 51.337 24.2432 50.908 23.9139 50.362C23.5846 49.816 23.4199 49.1963 23.4199 48.503C23.4199 47.8183 23.5802 47.203 23.9009 46.657C24.2302 46.1023 24.6766 45.6733 25.2399 45.37C25.8119 45.058 26.4489 44.902 27.1509 44.902C27.8356 44.902 28.4552 45.0493 29.0099 45.344C29.5646 45.6387 29.9979 46.0633 30.3099 46.618C30.6306 47.164 30.7909 47.801 30.7909 48.529ZM27.1639 46.436C26.7046 46.436 26.3189 46.566 26.0069 46.826C25.6949 47.086 25.5042 47.4413 25.4349 47.892H28.8799C28.8106 47.45 28.6199 47.099 28.3079 46.839C27.9959 46.5703 27.6146 46.436 27.1639 46.436ZM36.2751 44.902C36.9251 44.902 37.5144 45.0537 38.0431 45.357C38.5804 45.6517 39.0007 46.072 39.3041 46.618C39.6074 47.1553 39.7591 47.7837 39.7591 48.503C39.7591 49.2223 39.6074 49.855 39.3041 50.401C39.0007 50.9383 38.5804 51.3587 38.0431 51.662C37.5144 51.9567 36.9251 52.104 36.2751 52.104C35.3131 52.104 34.5807 51.8007 34.0781 51.194V52H32.1411V42.354H34.1691V45.747C34.6804 45.1837 35.3824 44.902 36.2751 44.902ZM35.9241 50.44C36.4441 50.44 36.8687 50.2667 37.1981 49.92C37.5361 49.5647 37.7051 49.0923 37.7051 48.503C37.7051 47.9137 37.5361 47.4457 37.1981 47.099C36.8687 46.7437 36.4441 46.566 35.9241 46.566C35.4041 46.566 34.9751 46.7437 34.6371 47.099C34.3077 47.4457 34.1431 47.9137 34.1431 48.503C34.1431 49.0923 34.3077 49.5647 34.6371 49.92C34.9751 50.2667 35.4041 50.44 35.9241 50.44ZM44.4447 52.104C43.708 52.104 43.045 51.9523 42.4557 51.649C41.875 51.337 41.42 50.908 41.0907 50.362C40.7613 49.816 40.5967 49.1963 40.5967 48.503C40.5967 47.8097 40.7613 47.19 41.0907 46.644C41.42 46.098 41.875 45.6733 42.4557 45.37C43.045 45.058 43.708 44.902 44.4447 44.902C45.1813 44.902 45.84 45.058 46.4207 45.37C47.0013 45.6733 47.4563 46.098 47.7857 46.644C48.115 47.19 48.2797 47.8097 48.2797 48.503C48.2797 49.1963 48.115 49.816 47.7857 50.362C47.4563 50.908 47.0013 51.337 46.4207 51.649C45.84 51.9523 45.1813 52.104 44.4447 52.104ZM44.4447 50.44C44.9647 50.44 45.3893 50.2667 45.7187 49.92C46.0567 49.5647 46.2257 49.0923 46.2257 48.503C46.2257 47.9137 46.0567 47.4457 45.7187 47.099C45.3893 46.7437 44.9647 46.566 44.4447 46.566C43.9247 46.566 43.4957 46.7437 43.1577 47.099C42.8197 47.4457 42.6507 47.9137 42.6507 48.503C42.6507 49.0923 42.8197 49.5647 43.1577 49.92C43.4957 50.2667 43.9247 50.44 44.4447 50.44ZM52.9632 52.104C52.2266 52.104 51.5636 51.9523 50.9742 51.649C50.3936 51.337 49.9386 50.908 49.6092 50.362C49.2799 49.816 49.1152 49.1963 49.1152 48.503C49.1152 47.8097 49.2799 47.19 49.6092 46.644C49.9386 46.098 50.3936 45.6733 50.9742 45.37C51.5636 45.058 52.2266 44.902 52.9632 44.902C53.6999 44.902 54.3586 45.058 54.9392 45.37C55.5199 45.6733 55.9749 46.098 56.3042 46.644C56.6336 47.19 56.7982 47.8097 56.7982 48.503C56.7982 49.1963 56.6336 49.816 56.3042 50.362C55.9749 50.908 55.5199 51.337 54.9392 51.649C54.3586 51.9523 53.6999 52.104 52.9632 52.104ZM52.9632 50.44C53.4832 50.44 53.9079 50.2667 54.2372 49.92C54.5752 49.5647 54.7442 49.0923 54.7442 48.503C54.7442 47.9137 54.5752 47.4457 54.2372 47.099C53.9079 46.7437 53.4832 46.566 52.9632 46.566C52.4432 46.566 52.0142 46.7437 51.6762 47.099C51.3382 47.4457 51.1692 47.9137 51.1692 48.503C51.1692 49.0923 51.3382 49.5647 51.6762 49.92C52.0142 50.2667 52.4432 50.44 52.9632 50.44ZM61.1568 49.257L60.1818 50.219V52H58.1538V42.354H60.1818V47.814L63.1458 45.006H65.5638L62.6518 47.97L65.8238 52H63.3668L61.1568 49.257Z" fill="#9F3658"/>
<g clip-path="url(#clip0)">
<path d="M34.4853 30.957H30.9553C30.3657 30.957 29.8861 30.4783 29.8861 29.8899V21.9433H27.8266C27.237 21.9433 26.7573 21.4645 26.7573 20.8762V17.4711C26.7573 16.8826 27.237 16.4039 27.8266 16.4039H29.8861V14.6987C29.8861 13.008 30.418 11.5696 31.4242 10.5392C32.4349 9.50404 33.8474 8.95703 35.509 8.95703L38.2011 8.9614C38.7897 8.9624 39.2685 9.4411 39.2685 10.0286V13.1901C39.2685 13.7786 38.7891 14.2573 38.1996 14.2573L36.387 14.258C35.8342 14.258 35.6935 14.3686 35.6634 14.4025C35.6138 14.4587 35.5547 14.6177 35.5547 15.0566V16.4037H38.0634C38.2523 16.4037 38.4352 16.4502 38.5925 16.5378C38.9317 16.727 39.1426 17.0847 39.1426 17.4712L39.1412 20.8763C39.1412 21.4645 38.6616 21.9432 38.072 21.9432H35.5547V29.8899C35.5547 30.4783 35.0749 30.957 34.4853 30.957ZM31.1783 29.6673H34.2623V21.3659C34.2623 20.973 34.5827 20.6534 34.9762 20.6534H37.849L37.8502 17.6936H34.976C34.5825 17.6936 34.2623 17.374 34.2623 16.9811V15.0566C34.2623 14.5527 34.3136 13.9797 34.6947 13.549C35.1551 13.0283 35.8808 12.9682 36.3867 12.9682L37.9763 12.9676V10.2508L35.508 10.2468C32.8377 10.2468 31.1783 11.9528 31.1783 14.6987V16.9811C31.1783 17.3739 30.8581 17.6936 30.4646 17.6936H28.0496V20.6534H30.4646C30.8581 20.6534 31.1783 20.973 31.1783 21.3659V29.6673ZM38.1986 10.2511H38.1988H38.1986Z" fill="#9F3658"/>
</g>
<defs>
<clipPath id="clip0">
<rect width="22" height="22" fill="white" transform="translate(22 9)"/>
</clipPath>
</defs>
</svg>
