<svg width="30" height="24" viewBox="0 0 30 24" fill="none" xmlns="http://www.w3.org/2000/svg">
<path d="M0 3.5013C0 3.04106 0.373096 2.66797 0.833333 2.66797H28.5C28.9602 2.66797 29.3333 3.04106 29.3333 3.5013C29.3333 3.96154 28.9602 4.33464 28.5 4.33464H0.833334C0.373097 4.33464 0 3.96154 0 3.5013Z" fill="#5F6D83"/>
<circle cx="8.66536" cy="3.33333" r="2.58333" fill="white" stroke="#5F6D83" stroke-width="1.5"/>
<path d="M0 12.1654C0 11.7051 0.373096 11.332 0.833333 11.332H28.5C28.9602 11.332 29.3333 11.7051 29.3333 12.1654C29.3333 12.6256 28.9602 12.9987 28.5 12.9987H0.833334C0.373097 12.9987 0 12.6256 0 12.1654Z" fill="#5F6D83"/>
<circle cx="20.6654" cy="12.0013" r="2.58333" fill="white" stroke="#5F6D83" stroke-width="1.5"/>
<path d="M0 20.8333C0 20.3731 0.373096 20 0.833333 20H28.5C28.9602 20 29.3333 20.3731 29.3333 20.8333C29.3333 21.2936 28.9602 21.6667 28.5 21.6667H0.833334C0.373097 21.6667 0 21.2936 0 20.8333Z" fill="#5F6D83"/>
<circle cx="11.3333" cy="20.6654" r="2.58333" fill="white" stroke="#5F6D83" stroke-width="1.5"/>
</svg>
