<svg width="70" height="70" viewBox="0 0 70 70" fill="none" xmlns="http://www.w3.org/2000/svg">
<circle opacity="0.2" cx="35.5" cy="27.5" r="18.5" stroke="#273951" stroke-width="2"/>
<path fill-rule="evenodd" clip-rule="evenodd" d="M37 29V27H46V28C46 33.5228 41.5228 38 36 38C30.4772 38 26 33.5228 26 28C26 22.4772 30.4772 18 36 18C39.0799 18 41.9313 19.4025 43.8167 21.7626L42.2542 23.0109C40.7443 21.1209 38.4653 20 36 20C31.5817 20 28 23.5817 28 28C28 32.4183 31.5817 36 36 36C40.0796 36 43.446 32.9463 43.9381 29H37Z" fill="#9F3658"/>
<path d="M18.5879 55.307H20.5119V58.999C20.0179 59.3717 19.4459 59.6577 18.7959 59.857C18.1459 60.0563 17.4915 60.156 16.8329 60.156C15.8882 60.156 15.0389 59.9567 14.2849 59.558C13.5309 59.1507 12.9372 58.5917 12.5039 57.881C12.0792 57.1617 11.8669 56.3513 11.8669 55.45C11.8669 54.5487 12.0792 53.7427 12.5039 53.032C12.9372 52.3127 13.5352 51.7537 14.2979 51.355C15.0605 50.9477 15.9185 50.744 16.8719 50.744C17.6692 50.744 18.3929 50.8783 19.0429 51.147C19.6929 51.4157 20.2389 51.8057 20.6809 52.317L19.3289 53.565C18.6789 52.8803 17.8945 52.538 16.9759 52.538C16.3952 52.538 15.8795 52.6593 15.4289 52.902C14.9782 53.1447 14.6272 53.487 14.3759 53.929C14.1245 54.371 13.9989 54.878 13.9989 55.45C13.9989 56.0133 14.1245 56.516 14.3759 56.958C14.6272 57.4 14.9739 57.7467 15.4159 57.998C15.8665 58.2407 16.3779 58.362 16.9499 58.362C17.5565 58.362 18.1025 58.232 18.5879 57.972V55.307ZM25.6532 60.104C24.9165 60.104 24.2535 59.9523 23.6642 59.649C23.0835 59.337 22.6285 58.908 22.2992 58.362C21.9698 57.816 21.8052 57.1963 21.8052 56.503C21.8052 55.8097 21.9698 55.19 22.2992 54.644C22.6285 54.098 23.0835 53.6733 23.6642 53.37C24.2535 53.058 24.9165 52.902 25.6532 52.902C26.3898 52.902 27.0485 53.058 27.6292 53.37C28.2098 53.6733 28.6648 54.098 28.9942 54.644C29.3235 55.19 29.4882 55.8097 29.4882 56.503C29.4882 57.1963 29.3235 57.816 28.9942 58.362C28.6648 58.908 28.2098 59.337 27.6292 59.649C27.0485 59.9523 26.3898 60.104 25.6532 60.104ZM25.6532 58.44C26.1732 58.44 26.5978 58.2667 26.9272 57.92C27.2652 57.5647 27.4342 57.0923 27.4342 56.503C27.4342 55.9137 27.2652 55.4457 26.9272 55.099C26.5978 54.7437 26.1732 54.566 25.6532 54.566C25.1332 54.566 24.7042 54.7437 24.3662 55.099C24.0282 55.4457 23.8592 55.9137 23.8592 56.503C23.8592 57.0923 24.0282 57.5647 24.3662 57.92C24.7042 58.2667 25.1332 58.44 25.6532 58.44ZM34.1717 60.104C33.435 60.104 32.772 59.9523 32.1827 59.649C31.602 59.337 31.147 58.908 30.8177 58.362C30.4884 57.816 30.3237 57.1963 30.3237 56.503C30.3237 55.8097 30.4884 55.19 30.8177 54.644C31.147 54.098 31.602 53.6733 32.1827 53.37C32.772 53.058 33.435 52.902 34.1717 52.902C34.9084 52.902 35.567 53.058 36.1477 53.37C36.7284 53.6733 37.1834 54.098 37.5127 54.644C37.842 55.19 38.0067 55.8097 38.0067 56.503C38.0067 57.1963 37.842 57.816 37.5127 58.362C37.1834 58.908 36.7284 59.337 36.1477 59.649C35.567 59.9523 34.9084 60.104 34.1717 60.104ZM34.1717 58.44C34.6917 58.44 35.1164 58.2667 35.4457 57.92C35.7837 57.5647 35.9527 57.0923 35.9527 56.503C35.9527 55.9137 35.7837 55.4457 35.4457 55.099C35.1164 54.7437 34.6917 54.566 34.1717 54.566C33.6517 54.566 33.2227 54.7437 32.8847 55.099C32.5467 55.4457 32.3777 55.9137 32.3777 56.503C32.3777 57.0923 32.5467 57.5647 32.8847 57.92C33.2227 58.2667 33.6517 58.44 34.1717 58.44ZM46.5773 53.006V58.83C46.5773 60.1127 46.2436 61.066 45.5763 61.69C44.9089 62.314 43.9339 62.626 42.6513 62.626C41.9753 62.626 41.3339 62.5437 40.7273 62.379C40.1206 62.2143 39.6179 61.976 39.2193 61.664L40.0253 60.208C40.3199 60.4507 40.6926 60.6413 41.1433 60.78C41.5939 60.9273 42.0446 61.001 42.4953 61.001C43.1973 61.001 43.7129 60.8407 44.0423 60.52C44.3803 60.208 44.5493 59.7313 44.5493 59.09V58.791C44.0206 59.3717 43.2839 59.662 42.3393 59.662C41.6979 59.662 41.1086 59.5233 40.5713 59.246C40.0426 58.96 39.6223 58.5613 39.3103 58.05C38.9983 57.5387 38.8423 56.9493 38.8423 56.282C38.8423 55.6147 38.9983 55.0253 39.3103 54.514C39.6223 54.0027 40.0426 53.6083 40.5713 53.331C41.1086 53.045 41.6979 52.902 42.3393 52.902C43.3533 52.902 44.1246 53.2357 44.6533 53.903V53.006H46.5773ZM42.7423 57.998C43.2796 57.998 43.7173 57.842 44.0553 57.53C44.4019 57.2093 44.5753 56.7933 44.5753 56.282C44.5753 55.7707 44.4019 55.359 44.0553 55.047C43.7173 54.7263 43.2796 54.566 42.7423 54.566C42.2049 54.566 41.7629 54.7263 41.4163 55.047C41.0696 55.359 40.8963 55.7707 40.8963 56.282C40.8963 56.7933 41.0696 57.2093 41.4163 57.53C41.7629 57.842 42.2049 57.998 42.7423 57.998ZM48.4648 50.354H50.4928V60H48.4648V50.354ZM59.226 56.529C59.226 56.555 59.213 56.737 59.187 57.075H53.896C53.9913 57.5083 54.2166 57.8507 54.572 58.102C54.9273 58.3533 55.3693 58.479 55.898 58.479C56.262 58.479 56.5826 58.427 56.86 58.323C57.146 58.2103 57.4103 58.037 57.653 57.803L58.732 58.973C58.0733 59.727 57.1113 60.104 55.846 60.104C55.0573 60.104 54.3596 59.9523 53.753 59.649C53.1463 59.337 52.6783 58.908 52.349 58.362C52.0196 57.816 51.855 57.1963 51.855 56.503C51.855 55.8183 52.0153 55.203 52.336 54.657C52.6653 54.1023 53.1116 53.6733 53.675 53.37C54.247 53.058 54.884 52.902 55.586 52.902C56.2706 52.902 56.8903 53.0493 57.445 53.344C57.9996 53.6387 58.433 54.0633 58.745 54.618C59.0656 55.164 59.226 55.801 59.226 56.529ZM55.599 54.436C55.1396 54.436 54.754 54.566 54.442 54.826C54.13 55.086 53.9393 55.4413 53.87 55.892H57.315C57.2456 55.45 57.055 55.099 56.743 54.839C56.431 54.5703 56.0496 54.436 55.599 54.436Z" fill="#9F3658"/>
</svg>
