<svg width="20" height="20" viewBox="0 0 20 20" fill="none" xmlns="http://www.w3.org/2000/svg">
<rect x="0.5" y="0.5" width="19" height="19" rx="0.5" stroke="#5F6D83"/>
<path d="M6.23993 9.87211C6.71052 9.87256 7.17066 9.73007 7.56215 9.46266C7.95364 9.19525 8.25889 8.81495 8.43927 8.36986C8.61966 7.92477 8.66708 7.43489 8.57554 6.96219C8.484 6.48949 8.25761 6.05522 7.92501 5.7143C7.59241 5.37339 7.16855 5.14115 6.70703 5.04697C6.24552 4.9528 5.7671 5.00091 5.33229 5.18522C4.89749 5.36953 4.52583 5.68177 4.26434 6.08242C4.00285 6.48308 3.86328 6.95415 3.86328 7.43606C3.86386 8.08157 4.11438 8.7005 4.5599 9.15716C5.00541 9.61381 5.60958 9.87092 6.23993 9.87211V9.87211ZM6.23993 6.12676C6.49281 6.12676 6.74 6.20355 6.95026 6.34742C7.16051 6.49128 7.32439 6.69577 7.42116 6.93501C7.51793 7.17425 7.54325 7.43751 7.49392 7.69149C7.44458 7.94547 7.32281 8.17876 7.144 8.36187C6.9652 8.54498 6.73738 8.66968 6.48937 8.7202C6.24135 8.77071 5.98428 8.74479 5.75065 8.64569C5.51703 8.54659 5.31735 8.37878 5.17686 8.16346C5.03637 7.94815 4.96138 7.69501 4.96138 7.43606C4.96196 7.08899 5.09685 6.75631 5.3365 6.5109C5.57615 6.26549 5.90102 6.12736 6.23993 6.12676V6.12676Z" fill="#5F6D83"/>
<path d="M3.04168 14.4562H9.44543C9.59134 14.4562 9.73127 14.3968 9.83445 14.2912C9.93762 14.1855 9.99558 14.0422 9.99558 13.8928V12.9553C9.99562 12.872 9.97758 12.7896 9.94277 12.7142C9.58451 12.0333 9.0489 11.4675 8.39547 11.0796C7.74204 10.6917 6.99638 10.497 6.24136 10.517C5.48707 10.4978 4.74234 10.693 4.08976 11.0808C3.43718 11.4686 2.90226 12.034 2.54434 12.7142C2.51256 12.7903 2.49753 12.8726 2.50033 12.9553V13.8973C2.50146 14.0444 2.55872 14.1852 2.65988 14.2896C2.76103 14.3941 2.89806 14.4538 3.04168 14.4562V14.4562ZM3.59183 13.1041C3.87006 12.6445 4.2612 12.2678 4.72614 12.0116C5.19108 11.7553 5.71356 11.6285 6.24136 11.6438C6.76889 11.6274 7.29139 11.753 7.7567 12.008C8.22201 12.2631 8.61385 12.6387 8.89308 13.0973V13.3227H3.60063L3.59183 13.1041Z" fill="#5F6D83"/>
<line x1="10.5" y1="6.5" x2="17.5" y2="6.5" stroke="#5F6D83"/>
<line x1="10.5" y1="6.5" x2="17.5" y2="6.5" stroke="#5F6D83"/>
<line x1="11.5" y1="9.5" x2="17.5" y2="9.5" stroke="#5F6D83"/>
<line x1="12.5" y1="12.5" x2="17.5" y2="12.5" stroke="#5F6D83"/>
<mask id="mask0" mask-type="alpha" maskUnits="userSpaceOnUse" x="11" y="0" width="9" height="10">
<path d="M11 0H20V10H11V0Z" fill="#C4C4C4"/>
</mask>
<g mask="url(#mask0)">
</g>
</svg>
