<!-- Generated by IcoMoon.io -->
<svg version="1.1" xmlns="http://www.w3.org/2000/svg" width="32" height="32" viewBox="0 0 32 32">
<title>vg-link</title>
<path d="M16.915 13.872c-0.351 0.351-0.351 0.915 0 1.266 1.452 1.452 1.452 3.811 0 5.263l-7.622 7.622c-1.452 1.452-3.811 1.452-5.263 0l-1.147-1.147c-1.452-1.452-1.452-3.811 0-5.263l7.622-7.622c0.351-0.351 0.351-0.915 0-1.266s-0.915-0.351-1.266 0l-7.622 7.622c-1.041 1.041-1.617 2.426-1.617 3.897s0.57 2.857 1.617 3.897l1.147 1.147c1.074 1.074 2.486 1.611 3.897 1.611s2.824-0.537 3.897-1.611l7.622-7.622c2.147-2.148 2.147-5.647 0-7.795-0.345-0.351-0.915-0.351-1.266 0z"></path>
<path d="M30.389 3.858l-1.147-1.147c-2.148-2.147-5.647-2.147-7.795 0l-7.622 7.622c-2.147 2.148-2.147 5.647 0 7.794 0.351 0.351 0.915 0.351 1.266 0s0.351-0.915 0-1.266c-1.452-1.452-1.452-3.811 0-5.263l7.622-7.622c1.452-1.452 3.811-1.452 5.263 0l1.147 1.147c1.451 1.452 1.451 3.811 0 5.263l-7.622 7.622c-0.351 0.351-0.351 0.915 0 1.266 0.172 0.172 0.404 0.265 0.63 0.265s0.457-0.086 0.63-0.265l7.622-7.622c1.041-1.041 1.617-2.426 1.617-3.897s-0.57-2.857-1.611-3.897z"></path>
</svg>
