<!-- Generated by IcoMoon.io -->
<svg version="1.1" xmlns="http://www.w3.org/2000/svg" width="32" height="32" viewBox="0 0 32 32">
<title>vg-list</title>
<path d="M4.148 11.853c-2.291 0-4.148 1.857-4.148 4.148s1.857 4.148 4.148 4.148c2.291 0 4.148-1.857 4.148-4.148s-1.857-4.148-4.148-4.148zM4.148 18.456c-1.356 0-2.455-1.099-2.455-2.455s1.099-2.455 2.455-2.455c1.356 0 2.455 1.099 2.455 2.455s-1.099 2.455-2.455 2.455z"></path>
<path d="M30.305 15.154h-19.131c-0.468 0-0.847 0.379-0.847 0.846s0.379 0.846 0.847 0.846h19.131c0.467 0 0.846-0.379 0.846-0.846s-0.379-0.846-0.846-0.846z"></path>
<path d="M4.148 0c-2.291 0-4.148 1.857-4.148 4.148s1.857 4.148 4.148 4.148c2.291 0 4.148-1.857 4.148-4.148s-1.857-4.148-4.148-4.148zM4.148 6.603c-1.356 0-2.455-1.099-2.455-2.455s1.099-2.455 2.455-2.455c1.356 0 2.455 1.099 2.455 2.455s-1.099 2.455-2.455 2.455z"></path>
<path d="M11.174 4.994h19.131c0.467 0 0.846-0.379 0.846-0.846s-0.379-0.846-0.846-0.846h-19.131c-0.468 0-0.847 0.379-0.847 0.846s0.379 0.846 0.847 0.846z"></path>
<path d="M4.148 23.704c-2.291 0-4.148 1.857-4.148 4.148s1.857 4.148 4.148 4.148c2.291 0 4.148-1.857 4.148-4.148s-1.857-4.148-4.148-4.148zM6.603 27.852c0 1.356-1.099 2.455-2.455 2.455s-2.455-1.099-2.455-2.455c0-1.356 1.099-2.455 2.455-2.455s2.455 1.099 2.455 2.455z"></path>
<path d="M30.305 27.005h-19.131c-0.468 0-0.847 0.379-0.847 0.846s0.379 0.846 0.847 0.846h19.131c0.467 0 0.846-0.379 0.846-0.846s-0.379-0.846-0.846-0.846z"></path>
</svg>
