<svg width="101" height="26" viewBox="0 0 101 26" fill="none" xmlns="http://www.w3.org/2000/svg">
<g filter="url(#filter0_d_4852_2616)">
<path d="M6.49216 18.303C6.38595 18.3437 6.12042 18.398 5.69557 18.4659C5.27073 18.5473 4.87908 18.588 4.52061 18.588C4.17543 18.588 3.97628 18.4862 3.92318 18.2827C3.6842 17.4413 3.32574 15.7993 2.84779 13.3566C2.36984 10.9004 1.88525 8.67486 1.39402 6.68002C0.916071 4.68518 0.451397 3.36207 0 2.7107C0.730202 2.35787 1.30772 2.18145 1.73257 2.18145C2.15741 2.18145 2.46277 2.22895 2.64864 2.32394C2.83451 2.41894 3.01374 2.62928 3.18634 2.95497C3.3722 3.28065 3.53152 3.7149 3.66428 4.25771C3.86343 5.07194 4.10904 6.2797 4.40113 7.881C4.69321 9.4823 4.85916 10.3644 4.89899 10.5272C5.36366 12.9427 5.66902 14.5983 5.81506 15.494C6.67803 13.6077 7.63393 11.104 8.68276 7.98278C9.7316 4.84803 10.256 2.81248 10.256 1.87612C11.7562 2.13396 12.5064 2.63606 12.5064 3.38243C12.5064 3.93881 12.128 5.11943 11.3712 6.92429C10.6278 8.71558 9.72496 10.7851 8.66285 13.1327C7.61401 15.4668 6.89045 17.1903 6.49216 18.303Z" fill="white"/>
<path d="M13.8226 14.4558C13.8226 15.0936 13.9354 15.6161 14.1611 16.0232C14.4001 16.4167 14.732 16.6135 15.1568 16.6135C15.7808 16.6135 16.3716 16.2403 16.9292 15.494C17.5001 14.7476 17.9515 13.7909 18.2834 12.6238C18.6286 11.4568 18.8012 10.3508 18.8012 9.30589C18.8012 8.2474 18.7614 7.39247 18.6817 6.74109C19.08 6.71395 19.3588 6.70038 19.5181 6.70038C20.1952 6.70038 20.7064 6.8293 21.0516 7.08713C21.3967 7.34497 21.5693 7.80636 21.5693 8.47131C21.5693 8.72915 21.41 9.78085 21.0914 11.6264C20.7728 13.4584 20.6134 14.9308 20.6134 16.0436C20.6134 17.1428 20.8192 18.1198 21.2308 18.9748C20.2351 18.7983 19.5049 18.4252 19.0402 17.8552C18.5755 17.2717 18.3432 16.4371 18.3432 15.3515C18.3432 15.1615 18.3697 14.7951 18.4228 14.2523C18.0644 15.5415 17.4271 16.5796 16.511 17.3667C15.595 18.1538 14.6922 18.5473 13.8027 18.5473C12.9264 18.5473 12.2162 18.2148 11.6718 17.5499C11.1408 16.8714 10.8752 15.9146 10.8752 14.6797C10.8752 13.4448 11.0877 12.2507 11.5125 11.0972C11.9506 9.93012 12.6012 8.94627 13.4641 8.14562C14.3271 7.3314 15.2896 6.92429 16.3517 6.92429C16.9624 6.92429 17.5864 7.07356 18.2237 7.37211C16.8828 7.86064 15.814 8.82414 15.0174 10.2626C14.2209 11.6875 13.8226 13.0852 13.8226 14.4558Z" fill="white"/>
<path d="M23.4566 17.7941C23.2972 17.5227 23.1977 17.2649 23.1578 17.0206C23.118 16.7628 23.0981 16.3693 23.0981 15.84C23.0981 15.3108 23.3172 13.2277 23.7553 9.59086C24.2067 5.95401 24.5043 4.00325 24.5043 2.64622C24.5043 1.28918 24.4247 0.407111 24.2653 0C25.2611 0.271408 25.9382 0.685303 26.2966 1.24169C26.6684 1.7845 26.8542 2.55801 26.8542 3.56222C26.8542 4.15931 26.5898 5.55368 26.2048 8.83771C25.8198 12.1217 25.6273 14.768 25.6273 16.7764C25.6273 17.2106 25.6538 17.8213 25.7069 18.6084C24.4988 18.5541 23.7486 18.2827 23.4566 17.7941Z" fill="white"/>
<path d="M34.5456 6.55789C34.9439 6.53075 35.2227 6.51718 35.382 6.51718C36.0724 6.51718 36.5968 6.6461 36.9552 6.90393C37.3137 7.16177 37.4929 7.63673 37.4929 8.32882C37.4929 8.54595 37.3668 9.50266 37.1145 11.199C36.8623 12.8817 36.7362 14.3269 36.7362 15.5347C36.7362 16.7424 36.8623 17.8077 37.1145 18.7305C36.1188 18.4048 35.4284 17.9434 35.0434 17.3463C34.6584 16.7492 34.4659 16.0096 34.4659 15.1276C34.4659 14.7883 34.5389 14.0216 34.685 12.8274C34.2734 14.3744 33.6428 15.6772 32.7931 16.7357C31.9567 17.7806 31.1667 18.303 30.4232 18.303C28.8965 18.303 28.1331 17.1767 28.1331 14.924C28.1331 14.1776 28.2393 13.1395 28.4517 11.8096C28.6774 10.4662 28.7902 9.44837 28.7902 8.75629C28.7902 8.0642 28.6973 7.36533 28.5114 6.65967C29.6134 6.65967 30.41 6.80894 30.9012 7.10749C31.4057 7.39247 31.658 7.96921 31.658 8.83771C31.658 9.2991 31.5185 10.2151 31.2397 11.5857C30.9609 12.9563 30.8215 13.9877 30.8215 14.6797C30.8215 15.684 31.0871 16.1861 31.6181 16.1861C31.8836 16.1861 32.189 16.0029 32.5342 15.6365C32.8794 15.2565 33.2113 14.7612 33.5299 14.1505C33.8486 13.5263 34.1141 12.7528 34.3265 11.83C34.5522 10.8936 34.6651 9.95048 34.6651 9.00055C34.6651 8.03706 34.6252 7.22284 34.5456 6.55789Z" fill="white"/>
<path d="M42.9318 13.2956C42.2946 13.2956 41.6706 13.2209 41.0599 13.0717C41.0466 13.2074 41.04 13.4177 41.04 13.7027C41.04 14.829 41.2457 15.6772 41.6573 16.2471C42.0689 16.8171 42.5601 17.1021 43.131 17.1021C43.7019 17.1021 44.2462 16.9256 44.764 16.5728C45.2818 16.22 45.7332 15.7315 46.1182 15.1072C46.5961 15.2158 46.8351 15.4668 46.8351 15.8604C45.6668 17.6924 44.1599 18.6084 42.3145 18.6084C41.1993 18.6084 40.2235 18.1741 39.387 17.3056C38.5506 16.4235 38.1324 15.2022 38.1324 13.6416C38.1324 12.4746 38.3515 11.3686 38.7896 10.3237C39.2277 9.26518 39.9247 8.37632 40.8806 7.65709C41.8365 6.92429 42.892 6.55789 44.0471 6.55789C45.2154 6.55789 46.0717 6.8293 46.616 7.37211C47.1604 7.91493 47.4325 8.62737 47.4325 9.50944C47.4325 10.7851 46.9944 11.735 46.1182 12.3592C45.2552 12.9835 44.1931 13.2956 42.9318 13.2956ZM43.7683 7.81993C43.0912 7.81993 42.5203 8.2474 42.0556 9.10233C41.5909 9.95726 41.2856 10.9954 41.1395 12.2167H41.4382C42.5933 12.2167 43.443 11.9114 43.9873 11.3007C44.5449 10.6901 44.8237 9.95726 44.8237 9.10233C44.8237 8.7495 44.7308 8.45095 44.5449 8.20669C44.3723 7.94885 44.1134 7.81993 43.7683 7.81993Z" fill="white"/>
<path d="M54.4852 23.514C56.7024 23.514 57.9638 20.8475 58.2691 15.5143C57.7779 16.2336 57.187 16.7832 56.4966 17.1631C55.8062 17.5295 55.0959 17.7127 54.3657 17.7127C53.0912 17.7127 51.9959 17.1835 51.0798 16.125C50.1637 15.0665 49.7057 13.5941 49.7057 11.7078C49.7057 9.1159 50.3629 6.86322 51.6772 4.9498C52.3145 4.01345 53.1377 3.27387 54.1467 2.73105C55.1557 2.17467 56.3042 1.89648 57.592 1.89648C58.8931 1.89648 59.8822 2.24252 60.5593 2.93461C61.2497 3.61313 61.5949 4.45448 61.5949 5.45869C61.5949 6.4629 61.2895 7.25676 60.6788 7.84029C60.0681 8.42381 59.3445 8.71558 58.5081 8.71558C57.9638 8.71558 57.4459 8.57987 56.9547 8.30847C56.4634 8.03706 56.085 7.64352 55.8195 7.12784C56.178 7.22284 56.5165 7.27033 56.8352 7.27033C57.5521 7.27033 58.1164 7.05999 58.528 6.63931C58.9529 6.21863 59.1653 5.74367 59.1653 5.21443C59.1653 4.68518 58.9927 4.25093 58.6475 3.91167C58.3023 3.55884 57.811 3.38243 57.1737 3.38243C56.3373 3.38243 55.5739 3.82346 54.8835 4.70554C54.2064 5.57404 53.6953 6.63253 53.3501 7.881C53.0049 9.1159 52.8323 10.3983 52.8323 11.7282C52.8323 13.0581 53.0845 14.103 53.5891 14.8629C54.1068 15.6093 54.7308 15.9825 55.461 15.9825C56.1912 15.9825 56.8219 15.6161 57.353 14.8833C57.8973 14.1505 58.1695 13.1599 58.1695 11.9114C58.1695 11.5993 58.1496 11.2804 58.1098 10.9547V10.8936C58.4019 10.8665 58.7072 10.8529 59.0259 10.8529C59.7959 10.8529 60.327 10.9886 60.619 11.26C60.9244 11.5179 61.0771 11.9657 61.0771 12.6035C61.0771 16.7424 60.3535 19.9722 58.9064 22.2927C58.4019 23.0934 57.7446 23.7447 56.9347 24.2468C56.1249 24.7489 55.2088 25 54.1865 25C52.7925 25 51.7436 24.6336 51.04 23.9008C50.3496 23.1816 50.0044 22.3538 50.0044 21.4174C50.0044 20.4811 50.25 19.7279 50.7413 19.158C51.2325 18.6016 51.8432 18.3234 52.5734 18.3234C52.9717 18.3234 53.4098 18.4387 53.8878 18.6694C53.1841 19.5786 52.8323 20.5354 52.8323 21.5396C52.8323 22.1231 52.9651 22.598 53.2306 22.9644C53.4961 23.3308 53.9143 23.514 54.4852 23.514Z" fill="white"/>
<path d="M68.9693 6.55789C69.3675 6.53075 69.6463 6.51718 69.8057 6.51718C70.496 6.51718 71.0205 6.6461 71.3789 6.90393C71.7374 7.16177 71.9166 7.63673 71.9166 8.32882C71.9166 8.54595 71.7905 9.50266 71.5382 11.199C71.286 12.8817 71.1599 14.3269 71.1599 15.5347C71.1599 16.7424 71.286 17.8077 71.5382 18.7305C70.5425 18.4048 69.8521 17.9434 69.4671 17.3463C69.0821 16.7492 68.8896 16.0096 68.8896 15.1276C68.8896 14.7883 68.9626 14.0216 69.1087 12.8274C68.6971 14.3744 68.0665 15.6772 67.2168 16.7357C66.3804 17.7806 65.5904 18.303 64.8469 18.303C63.3201 18.303 62.5568 17.1767 62.5568 14.924C62.5568 14.1776 62.663 13.1395 62.8754 11.8096C63.1011 10.4662 63.2139 9.44837 63.2139 8.75629C63.2139 8.0642 63.121 7.36533 62.9351 6.65967C64.0371 6.65967 64.8337 6.80894 65.3249 7.10749C65.8294 7.39247 66.0816 7.96921 66.0816 8.83771C66.0816 9.2991 65.9422 10.2151 65.6634 11.5857C65.3846 12.9563 65.2452 13.9877 65.2452 14.6797C65.2452 15.684 65.5108 16.1861 66.0418 16.1861C66.3073 16.1861 66.6127 16.0029 66.9579 15.6365C67.3031 15.2565 67.635 14.7612 67.9536 14.1505C68.2722 13.5263 68.5378 12.7528 68.7502 11.83C68.9759 10.8936 69.0887 9.95048 69.0887 9.00055C69.0887 8.03706 69.0489 7.22284 68.9693 6.55789Z" fill="white"/>
<path d="M78.0193 13.2956C77.3821 13.2956 76.7581 13.2209 76.1474 13.0717C76.1341 13.2074 76.1275 13.4177 76.1275 13.7027C76.1275 14.829 76.3332 15.6772 76.7448 16.2471C77.1564 16.8171 77.6476 17.1021 78.2185 17.1021C78.7894 17.1021 79.3337 16.9256 79.8515 16.5728C80.3693 16.22 80.8207 15.7315 81.2057 15.1072C81.6836 15.2158 81.9226 15.4668 81.9226 15.8604C80.7543 17.6924 79.2474 18.6084 77.402 18.6084C76.2868 18.6084 75.311 18.1741 74.4746 17.3056C73.6381 16.4235 73.2199 15.2022 73.2199 13.6416C73.2199 12.4746 73.439 11.3686 73.8771 10.3237C74.3152 9.26518 75.0123 8.37632 75.9682 7.65709C76.924 6.92429 77.9795 6.55789 79.1346 6.55789C80.3029 6.55789 81.1592 6.8293 81.7036 7.37211C82.2479 7.91493 82.52 8.62737 82.52 9.50944C82.52 10.7851 82.0819 11.735 81.2057 12.3592C80.3427 12.9835 79.2806 13.2956 78.0193 13.2956ZM78.8558 7.81993C78.1787 7.81993 77.6078 8.2474 77.1431 9.10233C76.6784 9.95726 76.3731 10.9954 76.227 12.2167H76.5258C77.6808 12.2167 78.5305 11.9114 79.0748 11.3007C79.6324 10.6901 79.9112 9.95726 79.9112 9.10233C79.9112 8.7495 79.8183 8.45095 79.6324 8.20669C79.4598 7.94885 79.201 7.81993 78.8558 7.81993Z" fill="white"/>
<path d="M88.0278 7.75887C87.6561 7.75887 87.3242 7.88778 87.0321 8.14562C86.74 8.38989 86.594 8.74272 86.594 9.20411C86.594 9.6655 86.7467 10.0998 87.052 10.5069C87.3707 10.914 87.7557 11.2736 88.2071 11.5857C88.6585 11.8843 89.1099 12.1964 89.5613 12.5221C90.0259 12.8342 90.4309 13.2277 90.776 13.7027C91.1212 14.1641 91.3137 14.6797 91.3536 15.2497C91.3536 16.2268 90.942 17.0478 90.1189 17.7127C89.2957 18.3777 88.2734 18.7101 87.052 18.7101C85.8306 18.7101 84.8681 18.4591 84.1644 17.957C83.474 17.4549 83.1288 16.8781 83.1288 16.2268C83.1288 15.5754 83.3214 15.0529 83.7064 14.6594C84.1047 14.2523 84.5959 14.0487 85.18 14.0487C85.4854 14.0487 85.7708 14.103 86.0364 14.2116C85.6115 14.673 85.3991 15.1615 85.3991 15.6772C85.3991 16.1928 85.5385 16.6067 85.8173 16.9189C86.0961 17.231 86.4745 17.387 86.9524 17.387C87.4304 17.387 87.8287 17.2649 88.1473 17.0206C88.4792 16.7628 88.6452 16.4371 88.6452 16.0436C88.6452 15.6365 88.5323 15.2768 88.3066 14.9647C88.0809 14.6526 87.7955 14.3812 87.4503 14.1505C87.1184 13.9062 86.7533 13.6348 86.355 13.3363C85.9567 13.0377 85.585 12.7392 85.2398 12.4406C84.9079 12.1285 84.6291 11.7418 84.4034 11.2804C84.1777 10.8054 84.0648 10.2897 84.0648 9.73335C84.0648 8.76986 84.4498 7.98278 85.2199 7.37211C86.0032 6.74788 86.9724 6.43576 88.1274 6.43576C89.2957 6.43576 90.1454 6.66645 90.6765 7.12784C91.2208 7.58924 91.493 8.13205 91.493 8.75629C91.493 9.36695 91.3005 9.88941 90.9155 10.3237C90.5437 10.7579 90.0591 10.975 89.4617 10.975C89.1696 10.975 88.8377 10.914 88.466 10.7918C88.758 10.534 88.9837 10.2422 89.1431 9.91655C89.3024 9.57729 89.382 9.24482 89.382 8.91913C89.382 8.59344 89.2493 8.32204 88.9837 8.10491C88.7182 7.87421 88.3996 7.75887 88.0278 7.75887Z" fill="white"/>
<path d="M97.3115 8.73593C97.2451 9.22446 97.1057 10.0726 96.8933 11.2804C96.4419 13.8452 96.2162 15.745 96.2162 16.9799C96.2162 18.2148 96.3092 19.0426 96.495 19.4633C95.4727 19.1919 94.7691 18.778 94.3841 18.2216C93.9991 17.6517 93.8066 16.851 93.8066 15.8197C93.8066 14.9104 93.946 13.6688 94.2248 12.0946C94.5036 10.5069 94.6828 9.4348 94.7625 8.87842C94.0721 9.00055 93.3352 9.23803 92.5519 9.59086C92.5254 9.29232 92.5121 9.06841 92.5121 8.91913C92.5121 8.1999 92.7245 7.71137 93.1494 7.45353C93.5742 7.18213 94.1849 7.03964 94.9815 7.02607C95.0745 6.00829 95.1209 5.27549 95.1209 4.82767C95.1209 4.37985 95.1143 4.00666 95.101 3.70812C95.101 3.40957 95.101 3.18566 95.101 3.03639C95.9772 3.13138 96.6145 3.40278 97.0128 3.85061C97.4111 4.28486 97.6102 4.90909 97.6102 5.72331C97.6102 6.049 97.5771 6.50361 97.5107 7.08713C98.6259 7.05999 99.4424 6.83608 99.9602 6.4154C99.9867 6.68681 100 6.89036 100 7.02607C100 7.67744 99.8871 8.13205 99.6614 8.38989C99.4357 8.63415 99.0574 8.75629 98.5263 8.75629C97.9953 8.75629 97.5903 8.7495 97.3115 8.73593Z" fill="white"/>
<path d="M6.49216 18.303C6.38595 18.3437 6.12042 18.398 5.69557 18.4659C5.27073 18.5473 4.87908 18.588 4.52061 18.588C4.17543 18.588 3.97628 18.4862 3.92318 18.2827C3.6842 17.4413 3.32574 15.7993 2.84779 13.3566C2.36984 10.9004 1.88525 8.67486 1.39402 6.68002C0.916071 4.68518 0.451397 3.36207 0 2.7107C0.730202 2.35787 1.30772 2.18145 1.73257 2.18145C2.15741 2.18145 2.46277 2.22895 2.64864 2.32394C2.83451 2.41894 3.01374 2.62928 3.18634 2.95497C3.3722 3.28065 3.53152 3.7149 3.66428 4.25771C3.86343 5.07194 4.10904 6.2797 4.40113 7.881C4.69321 9.4823 4.85916 10.3644 4.89899 10.5272C5.36366 12.9427 5.66902 14.5983 5.81506 15.494C6.67803 13.6077 7.63393 11.104 8.68276 7.98278C9.7316 4.84803 10.256 2.81248 10.256 1.87612C11.7562 2.13396 12.5064 2.63606 12.5064 3.38243C12.5064 3.93881 12.128 5.11943 11.3712 6.92429C10.6278 8.71558 9.72496 10.7851 8.66285 13.1327C7.61401 15.4668 6.89045 17.1903 6.49216 18.303Z" stroke="white"/>
<path d="M13.8226 14.4558C13.8226 15.0936 13.9354 15.6161 14.1611 16.0232C14.4001 16.4167 14.732 16.6135 15.1568 16.6135C15.7808 16.6135 16.3716 16.2403 16.9292 15.494C17.5001 14.7476 17.9515 13.7909 18.2834 12.6238C18.6286 11.4568 18.8012 10.3508 18.8012 9.30589C18.8012 8.2474 18.7614 7.39247 18.6817 6.74109C19.08 6.71395 19.3588 6.70038 19.5181 6.70038C20.1952 6.70038 20.7064 6.8293 21.0516 7.08713C21.3967 7.34497 21.5693 7.80636 21.5693 8.47131C21.5693 8.72915 21.41 9.78085 21.0914 11.6264C20.7728 13.4584 20.6134 14.9308 20.6134 16.0436C20.6134 17.1428 20.8192 18.1198 21.2308 18.9748C20.2351 18.7983 19.5049 18.4252 19.0402 17.8552C18.5755 17.2717 18.3432 16.4371 18.3432 15.3515C18.3432 15.1615 18.3697 14.7951 18.4228 14.2523C18.0644 15.5415 17.4271 16.5796 16.511 17.3667C15.595 18.1538 14.6922 18.5473 13.8027 18.5473C12.9264 18.5473 12.2162 18.2148 11.6718 17.5499C11.1408 16.8714 10.8752 15.9146 10.8752 14.6797C10.8752 13.4448 11.0877 12.2507 11.5125 11.0972C11.9506 9.93012 12.6012 8.94627 13.4641 8.14562C14.3271 7.3314 15.2896 6.92429 16.3517 6.92429C16.9624 6.92429 17.5864 7.07356 18.2237 7.37211C16.8828 7.86064 15.814 8.82414 15.0174 10.2626C14.2209 11.6875 13.8226 13.0852 13.8226 14.4558Z" stroke="white"/>
<path d="M23.4566 17.7941C23.2972 17.5227 23.1977 17.2649 23.1578 17.0206C23.118 16.7628 23.0981 16.3693 23.0981 15.84C23.0981 15.3108 23.3172 13.2277 23.7553 9.59086C24.2067 5.95401 24.5043 4.00325 24.5043 2.64622C24.5043 1.28918 24.4247 0.407111 24.2653 0C25.2611 0.271408 25.9382 0.685303 26.2966 1.24169C26.6684 1.7845 26.8542 2.55801 26.8542 3.56222C26.8542 4.15931 26.5898 5.55368 26.2048 8.83771C25.8198 12.1217 25.6273 14.768 25.6273 16.7764C25.6273 17.2106 25.6538 17.8213 25.7069 18.6084C24.4988 18.5541 23.7486 18.2827 23.4566 17.7941Z" stroke="white"/>
<path d="M34.5456 6.55789C34.9439 6.53075 35.2227 6.51718 35.382 6.51718C36.0724 6.51718 36.5968 6.6461 36.9552 6.90393C37.3137 7.16177 37.4929 7.63673 37.4929 8.32882C37.4929 8.54595 37.3668 9.50266 37.1145 11.199C36.8623 12.8817 36.7362 14.3269 36.7362 15.5347C36.7362 16.7424 36.8623 17.8077 37.1145 18.7305C36.1188 18.4048 35.4284 17.9434 35.0434 17.3463C34.6584 16.7492 34.4659 16.0096 34.4659 15.1276C34.4659 14.7883 34.5389 14.0216 34.685 12.8274C34.2734 14.3744 33.6428 15.6772 32.7931 16.7357C31.9567 17.7806 31.1667 18.303 30.4232 18.303C28.8965 18.303 28.1331 17.1767 28.1331 14.924C28.1331 14.1776 28.2393 13.1395 28.4517 11.8096C28.6774 10.4662 28.7902 9.44837 28.7902 8.75629C28.7902 8.0642 28.6973 7.36533 28.5114 6.65967C29.6134 6.65967 30.41 6.80894 30.9012 7.10749C31.4057 7.39247 31.658 7.96921 31.658 8.83771C31.658 9.2991 31.5185 10.2151 31.2397 11.5857C30.9609 12.9563 30.8215 13.9877 30.8215 14.6797C30.8215 15.684 31.0871 16.1861 31.6181 16.1861C31.8836 16.1861 32.189 16.0029 32.5342 15.6365C32.8794 15.2565 33.2113 14.7612 33.5299 14.1505C33.8486 13.5263 34.1141 12.7528 34.3265 11.83C34.5522 10.8936 34.6651 9.95048 34.6651 9.00055C34.6651 8.03706 34.6252 7.22284 34.5456 6.55789Z" stroke="white"/>
<path d="M42.9318 13.2956C42.2946 13.2956 41.6706 13.2209 41.0599 13.0717C41.0466 13.2074 41.04 13.4177 41.04 13.7027C41.04 14.829 41.2457 15.6772 41.6573 16.2471C42.0689 16.8171 42.5601 17.1021 43.131 17.1021C43.7019 17.1021 44.2462 16.9256 44.764 16.5728C45.2818 16.22 45.7332 15.7315 46.1182 15.1072C46.5961 15.2158 46.8351 15.4668 46.8351 15.8604C45.6668 17.6924 44.1599 18.6084 42.3145 18.6084C41.1993 18.6084 40.2235 18.1741 39.387 17.3056C38.5506 16.4235 38.1324 15.2022 38.1324 13.6416C38.1324 12.4746 38.3515 11.3686 38.7896 10.3237C39.2277 9.26518 39.9247 8.37632 40.8806 7.65709C41.8365 6.92429 42.892 6.55789 44.0471 6.55789C45.2154 6.55789 46.0717 6.8293 46.616 7.37211C47.1604 7.91493 47.4325 8.62737 47.4325 9.50944C47.4325 10.7851 46.9944 11.735 46.1182 12.3592C45.2552 12.9835 44.1931 13.2956 42.9318 13.2956ZM43.7683 7.81993C43.0912 7.81993 42.5203 8.2474 42.0556 9.10233C41.5909 9.95726 41.2856 10.9954 41.1395 12.2167H41.4382C42.5933 12.2167 43.443 11.9114 43.9873 11.3007C44.5449 10.6901 44.8237 9.95726 44.8237 9.10233C44.8237 8.7495 44.7308 8.45095 44.5449 8.20669C44.3723 7.94885 44.1134 7.81993 43.7683 7.81993Z" stroke="white"/>
<path d="M54.4852 23.514C56.7024 23.514 57.9638 20.8475 58.2691 15.5143C57.7779 16.2336 57.187 16.7832 56.4966 17.1631C55.8062 17.5295 55.0959 17.7127 54.3657 17.7127C53.0912 17.7127 51.9959 17.1835 51.0798 16.125C50.1637 15.0665 49.7057 13.5941 49.7057 11.7078C49.7057 9.1159 50.3629 6.86322 51.6772 4.9498C52.3145 4.01345 53.1377 3.27387 54.1467 2.73105C55.1557 2.17467 56.3042 1.89648 57.592 1.89648C58.8931 1.89648 59.8822 2.24252 60.5593 2.93461C61.2497 3.61313 61.5949 4.45448 61.5949 5.45869C61.5949 6.4629 61.2895 7.25676 60.6788 7.84029C60.0681 8.42381 59.3445 8.71558 58.5081 8.71558C57.9638 8.71558 57.4459 8.57987 56.9547 8.30847C56.4634 8.03706 56.085 7.64352 55.8195 7.12784C56.178 7.22284 56.5165 7.27033 56.8352 7.27033C57.5521 7.27033 58.1164 7.05999 58.528 6.63931C58.9529 6.21863 59.1653 5.74367 59.1653 5.21443C59.1653 4.68518 58.9927 4.25093 58.6475 3.91167C58.3023 3.55884 57.811 3.38243 57.1737 3.38243C56.3373 3.38243 55.5739 3.82346 54.8835 4.70554C54.2064 5.57404 53.6953 6.63253 53.3501 7.881C53.0049 9.1159 52.8323 10.3983 52.8323 11.7282C52.8323 13.0581 53.0845 14.103 53.5891 14.8629C54.1068 15.6093 54.7308 15.9825 55.461 15.9825C56.1912 15.9825 56.8219 15.6161 57.353 14.8833C57.8973 14.1505 58.1695 13.1599 58.1695 11.9114C58.1695 11.5993 58.1496 11.2804 58.1098 10.9547V10.8936C58.4019 10.8665 58.7072 10.8529 59.0259 10.8529C59.7959 10.8529 60.327 10.9886 60.619 11.26C60.9244 11.5179 61.0771 11.9657 61.0771 12.6035C61.0771 16.7424 60.3535 19.9722 58.9064 22.2927C58.4019 23.0934 57.7446 23.7447 56.9347 24.2468C56.1249 24.7489 55.2088 25 54.1865 25C52.7925 25 51.7436 24.6336 51.04 23.9008C50.3496 23.1816 50.0044 22.3538 50.0044 21.4174C50.0044 20.4811 50.25 19.7279 50.7413 19.158C51.2325 18.6016 51.8432 18.3234 52.5734 18.3234C52.9717 18.3234 53.4098 18.4387 53.8878 18.6694C53.1841 19.5786 52.8323 20.5354 52.8323 21.5396C52.8323 22.1231 52.9651 22.598 53.2306 22.9644C53.4961 23.3308 53.9143 23.514 54.4852 23.514Z" stroke="white"/>
<path d="M68.9693 6.55789C69.3675 6.53075 69.6463 6.51718 69.8057 6.51718C70.496 6.51718 71.0205 6.6461 71.3789 6.90393C71.7374 7.16177 71.9166 7.63673 71.9166 8.32882C71.9166 8.54595 71.7905 9.50266 71.5382 11.199C71.286 12.8817 71.1599 14.3269 71.1599 15.5347C71.1599 16.7424 71.286 17.8077 71.5382 18.7305C70.5425 18.4048 69.8521 17.9434 69.4671 17.3463C69.0821 16.7492 68.8896 16.0096 68.8896 15.1276C68.8896 14.7883 68.9626 14.0216 69.1087 12.8274C68.6971 14.3744 68.0665 15.6772 67.2168 16.7357C66.3804 17.7806 65.5904 18.303 64.8469 18.303C63.3201 18.303 62.5568 17.1767 62.5568 14.924C62.5568 14.1776 62.663 13.1395 62.8754 11.8096C63.1011 10.4662 63.2139 9.44837 63.2139 8.75629C63.2139 8.0642 63.121 7.36533 62.9351 6.65967C64.0371 6.65967 64.8337 6.80894 65.3249 7.10749C65.8294 7.39247 66.0816 7.96921 66.0816 8.83771C66.0816 9.2991 65.9422 10.2151 65.6634 11.5857C65.3846 12.9563 65.2452 13.9877 65.2452 14.6797C65.2452 15.684 65.5108 16.1861 66.0418 16.1861C66.3073 16.1861 66.6127 16.0029 66.9579 15.6365C67.3031 15.2565 67.635 14.7612 67.9536 14.1505C68.2722 13.5263 68.5378 12.7528 68.7502 11.83C68.9759 10.8936 69.0887 9.95048 69.0887 9.00055C69.0887 8.03706 69.0489 7.22284 68.9693 6.55789Z" stroke="white"/>
<path d="M78.0193 13.2956C77.3821 13.2956 76.7581 13.2209 76.1474 13.0717C76.1341 13.2074 76.1275 13.4177 76.1275 13.7027C76.1275 14.829 76.3332 15.6772 76.7448 16.2471C77.1564 16.8171 77.6476 17.1021 78.2185 17.1021C78.7894 17.1021 79.3337 16.9256 79.8515 16.5728C80.3693 16.22 80.8207 15.7315 81.2057 15.1072C81.6836 15.2158 81.9226 15.4668 81.9226 15.8604C80.7543 17.6924 79.2474 18.6084 77.402 18.6084C76.2868 18.6084 75.311 18.1741 74.4746 17.3056C73.6381 16.4235 73.2199 15.2022 73.2199 13.6416C73.2199 12.4746 73.439 11.3686 73.8771 10.3237C74.3152 9.26518 75.0123 8.37632 75.9682 7.65709C76.924 6.92429 77.9795 6.55789 79.1346 6.55789C80.3029 6.55789 81.1592 6.8293 81.7036 7.37211C82.2479 7.91493 82.52 8.62737 82.52 9.50944C82.52 10.7851 82.0819 11.735 81.2057 12.3592C80.3427 12.9835 79.2806 13.2956 78.0193 13.2956ZM78.8558 7.81993C78.1787 7.81993 77.6078 8.2474 77.1431 9.10233C76.6784 9.95726 76.3731 10.9954 76.227 12.2167H76.5258C77.6808 12.2167 78.5305 11.9114 79.0748 11.3007C79.6324 10.6901 79.9112 9.95726 79.9112 9.10233C79.9112 8.7495 79.8183 8.45095 79.6324 8.20669C79.4598 7.94885 79.201 7.81993 78.8558 7.81993Z" stroke="white"/>
<path d="M88.0278 7.75887C87.6561 7.75887 87.3242 7.88778 87.0321 8.14562C86.74 8.38989 86.594 8.74272 86.594 9.20411C86.594 9.6655 86.7467 10.0998 87.052 10.5069C87.3707 10.914 87.7557 11.2736 88.2071 11.5857C88.6585 11.8843 89.1099 12.1964 89.5613 12.5221C90.0259 12.8342 90.4309 13.2277 90.776 13.7027C91.1212 14.1641 91.3137 14.6797 91.3536 15.2497C91.3536 16.2268 90.942 17.0478 90.1189 17.7127C89.2957 18.3777 88.2734 18.7101 87.052 18.7101C85.8306 18.7101 84.8681 18.4591 84.1644 17.957C83.474 17.4549 83.1288 16.8781 83.1288 16.2268C83.1288 15.5754 83.3214 15.0529 83.7064 14.6594C84.1047 14.2523 84.5959 14.0487 85.18 14.0487C85.4854 14.0487 85.7708 14.103 86.0364 14.2116C85.6115 14.673 85.3991 15.1615 85.3991 15.6772C85.3991 16.1928 85.5385 16.6067 85.8173 16.9189C86.0961 17.231 86.4745 17.387 86.9524 17.387C87.4304 17.387 87.8287 17.2649 88.1473 17.0206C88.4792 16.7628 88.6452 16.4371 88.6452 16.0436C88.6452 15.6365 88.5323 15.2768 88.3066 14.9647C88.0809 14.6526 87.7955 14.3812 87.4503 14.1505C87.1184 13.9062 86.7533 13.6348 86.355 13.3363C85.9567 13.0377 85.585 12.7392 85.2398 12.4406C84.9079 12.1285 84.6291 11.7418 84.4034 11.2804C84.1777 10.8054 84.0648 10.2897 84.0648 9.73335C84.0648 8.76986 84.4498 7.98278 85.2199 7.37211C86.0032 6.74788 86.9724 6.43576 88.1274 6.43576C89.2957 6.43576 90.1454 6.66645 90.6765 7.12784C91.2208 7.58924 91.493 8.13205 91.493 8.75629C91.493 9.36695 91.3005 9.88941 90.9155 10.3237C90.5437 10.7579 90.0591 10.975 89.4617 10.975C89.1696 10.975 88.8377 10.914 88.466 10.7918C88.758 10.534 88.9837 10.2422 89.1431 9.91655C89.3024 9.57729 89.382 9.24482 89.382 8.91913C89.382 8.59344 89.2493 8.32204 88.9837 8.10491C88.7182 7.87421 88.3996 7.75887 88.0278 7.75887Z" stroke="white"/>
<path d="M97.3115 8.73593C97.2451 9.22446 97.1057 10.0726 96.8933 11.2804C96.4419 13.8452 96.2162 15.745 96.2162 16.9799C96.2162 18.2148 96.3092 19.0426 96.495 19.4633C95.4727 19.1919 94.7691 18.778 94.3841 18.2216C93.9991 17.6517 93.8066 16.851 93.8066 15.8197C93.8066 14.9104 93.946 13.6688 94.2248 12.0946C94.5036 10.5069 94.6828 9.4348 94.7625 8.87842C94.0721 9.00055 93.3352 9.23803 92.5519 9.59086C92.5254 9.29232 92.5121 9.06841 92.5121 8.91913C92.5121 8.1999 92.7245 7.71137 93.1494 7.45353C93.5742 7.18213 94.1849 7.03964 94.9815 7.02607C95.0745 6.00829 95.1209 5.27549 95.1209 4.82767C95.1209 4.37985 95.1143 4.00666 95.101 3.70812C95.101 3.40957 95.101 3.18566 95.101 3.03639C95.9772 3.13138 96.6145 3.40278 97.0128 3.85061C97.4111 4.28486 97.6102 4.90909 97.6102 5.72331C97.6102 6.049 97.5771 6.50361 97.5107 7.08713C98.6259 7.05999 99.4424 6.83608 99.9602 6.4154C99.9867 6.68681 100 6.89036 100 7.02607C100 7.67744 99.8871 8.13205 99.6614 8.38989C99.4357 8.63415 99.0574 8.75629 98.5263 8.75629C97.9953 8.75629 97.5903 8.7495 97.3115 8.73593Z" stroke="white"/>
</g>
<defs>
<filter id="filter0_d_4852_2616" x="0" y="0" width="101" height="26" filterUnits="userSpaceOnUse" color-interpolation-filters="sRGB">
<feFlood flood-opacity="0" result="BackgroundImageFix"/>
<feColorMatrix in="SourceAlpha" type="matrix" values="0 0 0 0 0 0 0 0 0 0 0 0 0 0 0 0 0 0 127 0" result="hardAlpha"/>
<feOffset dx="1" dy="1"/>
<feColorMatrix type="matrix" values="0 0 0 0 0.152941 0 0 0 0 0.223529 0 0 0 0 0.317647 0 0 0 0.3 0"/>
<feBlend mode="normal" in2="BackgroundImageFix" result="effect1_dropShadow_4852_2616"/>
<feBlend mode="normal" in="SourceGraphic" in2="effect1_dropShadow_4852_2616" result="shape"/>
</filter>
</defs>
</svg>
