<svg height="512" viewBox="0 0 128 128" width="512" xmlns="http://www.w3.org/2000/svg"><path d="m95.963 51.988v-7.1a17.384 17.384 0 0 0 -17.363-17.369h-29.2a17.384 17.384 0 0 0 -17.363 17.364v7.1a8.992 8.992 0 0 0 -3.62 16.04v18.041a1.749 1.749 0 0 0 1.75 1.75h2.885l-3.281 10.391a1.75 1.75 0 0 0 1.669 2.276h3.833a1.751 1.751 0 0 0 1.532-.9l6.5-11.764h41.395l6.5 11.764a1.751 1.751 0 0 0 1.532.9h3.828a1.75 1.75 0 0 0 1.669-2.276l-3.281-10.391h2.885a1.749 1.749 0 0 0 1.75-1.75v-18.036a8.992 8.992 0 0 0 -3.62-16.04zm-46.563-20.969h29.2a13.88 13.88 0 0 1 13.863 13.864v7.1a9.013 9.013 0 0 0 -7.25 8.826v7.25h-42.426v-7.25a9.013 9.013 0 0 0 -7.25-8.826v-7.1a13.88 13.88 0 0 1 13.863-13.864zm-8.913 40.545h47.026a.94.94 0 1 1 0 1.88h-47.026a.94.94 0 1 1 0-1.88zm-6.246 25.417h-.413l2.895-9.167h2.584zm59.931 0h-.413l-5.066-9.167h2.584zm2.785-31.407a1.75 1.75 0 0 0 -.874 1.515v17.225h-64.166v-17.225a1.75 1.75 0 0 0 -.874-1.515 5.5 5.5 0 1 1 8.244-4.76v7.436a4.428 4.428 0 0 0 1.2 8.694h47.026a4.428 4.428 0 0 0 1.2-8.694v-7.436a5.5 5.5 0 1 1 8.244 4.76z"/></svg>