<svg height="512pt" viewBox="-3 0 512 512" width="512pt" xmlns="http://www.w3.org/2000/svg"><path d="m499.257812 266.820312c4.167969 0 7.546876-3.378906 7.546876-7.550781v-136.835937c0-4.171875-3.378907-7.550782-7.546876-7.550782h-491.707031c-4.171875 0-7.550781 3.378907-7.550781 7.550782v334.457031c0 4.171875 3.378906 7.550781 7.550781 7.550781h34.761719c-.046875.839844-.085938 1.675782-.085938 2.519532 0 24.832031 20.207032 45.039062 45.042969 45.039062 24.835938 0 45.039063-20.207031 45.039063-45.039062 0-.84375-.035156-1.679688-.082032-2.519532h242.941407c-.046875.839844-.085938 1.675782-.085938 2.519532 0 24.832031 20.207031 45.039062 45.042969 45.039062s45.039062-20.207031 45.039062-45.039062c0-.84375-.035156-1.679688-.082031-2.519532h34.175781c4.171876 0 7.550782-3.378906 7.550782-7.550781v-167.417969c0-4.171875-3.378906-7.550781-7.550782-7.550781-4.171874 0-7.550781 3.378906-7.550781 7.550781v159.871094h-368.058593c-.039063-.003906-.074219 0-.113282 0h-72.566406c-.023438 0-.046875-.003906-.070312 0h-35.796876v-319.359375h476.605469v129.285156c0 4.171875 3.378907 7.550781 7.550781 7.550781zm-108.960937 197.621094h59.648437c.070313.835938.121094 1.675782.121094 2.519532 0 16.507812-13.433594 29.9375-29.941406 29.9375-16.511719 0-29.941406-13.429688-29.941406-29.9375-.003906-.84375.046875-1.683594.113281-2.519532zm-332.851563 0h59.648438c.070312.835938.117188 1.675782.117188 2.519532 0 16.507812-13.433594 29.9375-29.941407 29.9375-16.511719 0-29.941406-13.429688-29.941406-29.9375 0-.84375.046875-1.683594.117187-2.519532zm0 0"/><path d="m57.007812 240.574219c-4.171874 0-7.550781 3.378906-7.550781 7.550781v159.441406c0 4.171875 3.378907 7.550782 7.550781 7.550782h325.625c4.167969 0 7.546876-3.378907 7.546876-7.550782v-235.808594c0-4.167968-3.378907-7.550781-7.546876-7.550781h-325.625c-4.171874 0-7.550781 3.382813-7.550781 7.550781v46.164063c0 4.171875 3.378907 7.550781 7.550781 7.550781 4.167969 0 7.550782-3.378906 7.550782-7.550781v-38.613281h310.523437v220.707031h-310.523437v-151.890625c0-4.171875-3.382813-7.550781-7.550782-7.550781zm0 0"/><path d="m440.257812 161.617188c-16.269531 0-29.503906 13.234374-29.503906 29.503906 0 16.265625 13.234375 29.5 29.503906 29.5 16.265626 0 29.5-13.234375 29.5-29.5 0-16.269532-13.234374-29.503906-29.5-29.503906zm0 43.90625c-7.945312 0-14.40625-6.460938-14.40625-14.402344s6.460938-14.402344 14.40625-14.402344c7.941407 0 14.402344 6.460938 14.402344 14.402344s-6.460937 14.402344-14.402344 14.402344zm0 0"/><path d="m440.257812 235.460938c-16.269531 0-29.503906 13.234374-29.503906 29.503906 0 16.265625 13.234375 29.503906 29.503906 29.503906 16.265626 0 29.5-13.238281 29.5-29.503906 0-16.269532-13.234374-29.503906-29.5-29.503906zm0 43.90625c-7.945312 0-14.40625-6.460938-14.40625-14.402344 0-7.945313 6.460938-14.40625 14.40625-14.40625 7.941407 0 14.402344 6.460937 14.402344 14.40625 0 7.941406-6.460937 14.402344-14.402344 14.402344zm0 0"/><path d="m457.613281 311.933594h-37.488281c-4.171875 0-7.550781 3.378906-7.550781 7.550781 0 4.167969 3.378906 7.550781 7.550781 7.550781h37.488281c4.171875 0 7.550781-3.382812 7.550781-7.550781 0-4.171875-3.378906-7.550781-7.550781-7.550781zm0 0"/><path d="m457.613281 344.5h-37.488281c-4.171875 0-7.550781 3.382812-7.550781 7.550781 0 4.171875 3.378906 7.550781 7.550781 7.550781h37.488281c4.171875 0 7.550781-3.378906 7.550781-7.550781 0-4.167969-3.378906-7.550781-7.550781-7.550781zm0 0"/><path d="m457.613281 377.066406h-37.488281c-4.171875 0-7.550781 3.382813-7.550781 7.550782 0 4.171874 3.378906 7.550781 7.550781 7.550781h37.488281c4.171875 0 7.550781-3.378907 7.550781-7.550781 0-4.167969-3.378906-7.550782-7.550781-7.550782zm0 0"/><path d="m223.425781 60.359375c0 4.171875 3.378907 7.550781 7.546875 7.550781 4.171875 0 7.550782-3.378906 7.550782-7.550781 0-8.203125 6.675781-14.875 14.878906-14.875s14.878906 6.671875 14.878906 14.875c0 4.171875 3.378906 7.550781 7.550781 7.550781 4.167969 0 7.546875-3.378906 7.546875-7.550781 0-16.527344-13.445312-29.976563-29.976562-29.976563s-29.976563 13.449219-29.976563 29.976563zm0 0"/><path d="m200.691406 67.8125c4.167969 0 7.550782-3.382812 7.550782-7.550781 0-24.902344 20.257812-45.160157 45.160156-45.160157s45.160156 20.257813 45.160156 45.160157c0 4.167969 3.378906 7.550781 7.550781 7.550781 4.167969 0 7.550781-3.382812 7.550781-7.550781 0-33.226563-27.035156-60.261719-60.261718-60.261719-33.226563 0-60.261719 27.035156-60.261719 60.261719 0 4.167969 3.382813 7.550781 7.550781 7.550781zm0 0"/><path d="m98.304688 359.632812c0 4.167969 3.378906 7.550782 7.550781 7.550782h105.515625c1.976562.082031 3.957031.136718 5.949218.136718 1.988282 0 3.972657-.054687 5.949219-.136718h109.96875c4.167969 0 7.550781-3.382813 7.550781-7.550782 0-4.171874-3.382812-7.550781-7.550781-7.550781h-52.410156c17.097656-8.746093 32.410156-21.070312 44.898437-36.472656 1.832032-2.257813 2.203126-5.371094.949219-8-1.253906-2.628906-3.90625-4.304687-6.816406-4.304687h-205.082031c-2.910156 0-5.5625 1.675781-6.816406 4.304687-1.25 2.628906-.882813 5.742187.953124 8 12.484376 15.402344 27.796876 27.726563 44.894532 36.472656h-47.953125c-4.171875 0-7.550781 3.378907-7.550781 7.550781zm33.746093-41.226562h170.535157c-21.542969 20.328125-49.53125 32.28125-79.371094 33.675781h-11.792969c-29.839844-1.394531-57.828125-13.347656-79.371094-33.675781zm0 0"/><path d="m184.902344 279.464844c0 4.167968 3.378906 7.550781 7.550781 7.550781 4.167969 0 7.546875-3.382813 7.546875-7.550781 0-2.652344.71875-3.585938 2.457031-5.839844 2.230469-2.890625 5.597657-7.257812 5.597657-15.054688 0-7.796874-3.367188-12.167968-5.597657-15.058593-1.738281-2.253907-2.457031-3.1875-2.457031-5.839844 0-2.648437.71875-3.582031 2.457031-5.835937 2.230469-2.890626 5.597657-7.261719 5.597657-15.054688 0-4.171875-3.378907-7.550781-7.550782-7.550781-4.167968 0-7.550781 3.378906-7.550781 7.550781 0 2.648438-.71875 3.582031-2.453125 5.835938-2.230469 2.890624-5.597656 7.261718-5.597656 15.054687 0 7.796875 3.367187 12.167969 5.597656 15.058594 1.734375 2.253906 2.453125 3.1875 2.453125 5.839843 0 2.648438-.71875 3.582032-2.453125 5.835938-2.230469 2.890625-5.597656 7.261719-5.597656 15.058594zm0 0"/><path d="m229.902344 279.464844c0 4.167968 3.378906 7.550781 7.550781 7.550781 4.167969 0 7.550781-3.382813 7.550781-7.550781 0-2.652344.71875-3.585938 2.453125-5.839844 2.230469-2.890625 5.597657-7.257812 5.597657-15.054688 0-7.796874-3.367188-12.167968-5.597657-15.058593-1.734375-2.253907-2.453125-3.1875-2.453125-5.839844 0-2.648437.71875-3.582031 2.453125-5.835937 2.230469-2.890626 5.597657-7.261719 5.597657-15.054688 0-4.171875-3.378907-7.550781-7.550782-7.550781-4.167968 0-7.546875 3.378906-7.546875 7.550781 0 2.648438-.71875 3.582031-2.457031 5.835938-2.230469 2.890624-5.597656 7.261718-5.597656 15.054687 0 7.796875 3.367187 12.167969 5.597656 15.058594 1.738281 2.253906 2.457031 3.1875 2.457031 5.839843 0 2.648438-.71875 3.582032-2.457031 5.835938-2.230469 2.890625-5.597656 7.261719-5.597656 15.058594zm0 0"/></svg>