<!-- Generated by IcoMoon.io -->
<svg version="1.1" xmlns="http://www.w3.org/2000/svg" width="32" height="32" viewBox="0 0 32 32">
<title>vg-phone</title>
<path d="M15.36 1.28c-8.47 0-15.36 6.89-15.36 15.36s6.89 15.36 15.36 15.36c3.415 0 6.648-1.097 9.381-3.2 1.085-0.951 1.066-2.31 0.564-3.236-0.317-0.586-0.801-0.987-1.364-1.184l0.257-0.288c0.383-0.43 0.552-1.005 0.462-1.576s-0.428-1.065-0.925-1.358l-3.38-1.979c-0.785-0.46-1.797-0.3-2.404 0.38l-0.75 0.844c-0.133 0.15-0.316 0.232-0.524 0.214-0.2-0.015-0.378-0.119-0.488-0.285l-4.12-6.217c-0.105-0.157-0.134-0.344-0.082-0.527 0.051-0.182 0.174-0.325 0.347-0.406l1.179-0.548c0.828-0.383 1.274-1.304 1.060-2.191l-0.918-3.807c-0.134-0.562-0.511-1.028-1.030-1.279-0.521-0.252-1.119-0.257-1.644-0.014l-1.052 0.488c-1.555 0.722-2.701 2.085-3.142 3.741l-0.192 0.722c-0.347 1.299-0.227 2.687 0.339 3.907l0.946 2.040c1.388 2.994 3.282 5.687 5.629 8.006l0.781 0.771c1.16 1.146 2.696 1.806 4.324 1.859 0.070 0.003 0.142 0.004 0.212 0.004 1.414 0 2.769-0.463 3.878-1.303 0.022-0.004 0.044 0.001 0.065-0.005 0.87-0.243 1.302 0.399 1.411 0.602 0.259 0.479 0.271 1.179-0.251 1.638-2.476 1.902-5.439 2.908-8.57 2.908-7.763 0-14.080-6.317-14.080-14.080s6.317-14.080 14.080-14.080c7.763 0 14.080 6.317 14.080 14.080 0 0.353 0.287 0.64 0.64 0.64s0.64-0.287 0.64-0.64c0-8.47-6.89-15.36-15.36-15.36zM23.246 23.242l-0.557 0.625c-1.023 1.149-2.479 1.784-4.032 1.731-1.304-0.042-2.536-0.572-3.465-1.49l-0.781-0.772c-2.239-2.211-4.045-4.78-5.368-7.634l-0.946-2.040c-0.44-0.95-0.534-2.028-0.265-3.039l0.192-0.722c0.343-1.288 1.234-2.349 2.445-2.909l1.052-0.488c0.084-0.038 0.177-0.059 0.269-0.059 0.096 0 0.191 0.020 0.28 0.063 0.174 0.084 0.298 0.239 0.344 0.426l0.918 3.807c0.072 0.296-0.077 0.603-0.353 0.731l-1.179 0.548c-0.508 0.236-0.888 0.681-1.041 1.22s-0.063 1.116 0.247 1.583l4.119 6.217c0.333 0.499 0.865 0.812 1.464 0.854 0.608 0.044 1.172-0.189 1.572-0.639l0.75-0.844c0.202-0.227 0.541-0.28 0.801-0.127l3.379 1.979c0.166 0.099 0.279 0.264 0.308 0.453 0.029 0.191-0.027 0.383-0.155 0.526z"></path>
</svg>
