<svg id="Capa_1" enable-background="new 0 0 512 512" height="512" viewBox="0 0 512 512" width="512" xmlns="http://www.w3.org/2000/svg"><g><path d="m470.819 86.73-7.938-32.229c-2.229-9.049-10.294-15.368-19.613-15.368h-82.637l-5.536-19.162c-3.397-11.759-14.317-19.971-26.557-19.971h-96.427c-12.239 0-23.159 8.212-26.557 19.971l-5.536 19.162h-57.376c-9.433 0-17.106 7.674-17.106 17.106v29.919l-32.418-32.418c-10.774-11.228-31.621-12.344-43.546.001-12.005 12.006-12.005 31.54 0 43.546l82.058 82.058c11.445 11.556 31.147 12.146 43.546 0 12.005-12.006 12.005-31.54 0-43.547l-24.037-24.037h271.643v118.31c0 7.3-.736 14.619-2.189 21.755l-45.999 226.057c-2.26 11.077-12.102 19.117-23.402 19.117h-179.152c11.859-10.685 19.33-26.151 19.33-43.333 0-29.62-22.197-54.137-50.828-57.833v-185.195c0-4.143-3.357-7.5-7.5-7.5s-7.5 3.357-7.5 7.5v185.194c-28.635 3.692-50.837 28.211-50.837 57.834 0 32.165 26.168 58.333 58.332 58.333h.003s.001 0 .002 0h218.15c18.399 0 34.423-13.089 38.1-31.125l46-226.059c1.652-8.117 2.49-16.443 2.49-24.746v-118.31h13.425c11.61.272 23.02-11.913 19.612-25.03zm-381.115 366.937c0-23.894 19.438-43.332 43.332-43.332s43.333 19.438 43.333 43.332-19.439 43.333-43.333 43.333-43.332-19.439-43.332-43.333zm130.261-429.532c1.554-5.379 6.549-9.135 12.146-9.135h96.427c5.598 0 10.593 3.756 12.146 9.135l4.333 14.998h-129.385zm-55.396 144.602c-5.174 5.238-15.674 6.676-22.331 0l-82.058-82.057c-6.157-6.156-6.157-16.175 0-22.332 5.174-5.238 15.674-6.676 22.331 0l82.058 82.057c6.157 6.158 6.157 16.176 0 22.332zm290.729-73.968c-.583.744-1.89 1.992-4.092 1.992l-310.67-.001v-40.521c0-1.161.945-2.106 2.106-2.106h300.625c2.399 0 4.475 1.627 5.049 3.956l7.938 32.229c.527 2.139-.373 3.706-.956 4.451z"/><path d="m158.967 453.667c0-14.298-11.633-25.931-25.931-25.931s-25.931 11.633-25.931 25.931c0 14.299 11.633 25.932 25.931 25.932s25.931-11.633 25.931-25.932zm-36.861 0c0-6.027 4.903-10.931 10.931-10.931 6.027 0 10.931 4.903 10.931 10.931s-4.903 10.932-10.931 10.932-10.931-4.905-10.931-10.932z"/><path d="m315.8 245.112s-2.941 1.263-3.922 5.129l-5.621 25.752c-.884 4.047 1.681 8.044 5.728 8.927.539.118 1.077.175 1.606.175 3.449 0 6.555-2.395 7.32-5.902l1.81-8.292 20.534 31.507c1.775 2.724 1.911 6.056.363 8.913-1.549 2.858-4.413 4.564-7.664 4.564h-44.074l-16.48-16.48c-2.93-2.928-7.678-2.928-10.607 0-2.929 2.93-2.929 7.678 0 10.607l5.874 5.873h-47.298c-3.251 0-6.116-1.706-7.664-4.564-1.549-2.858-1.413-6.189.363-8.913l17.472-26.791 22.784-4.795c4.053-.853 6.647-4.83 5.794-8.884-.853-4.053-4.827-6.652-8.884-5.794l-8.108 1.706 27.234-41.758c1.639-2.513 4.301-3.955 7.301-3.955 3 .001 5.661 1.442 7.333 4.005l6.935 10.45c2.288 3.45 6.942 4.394 10.396 2.103 3.452-2.29 4.393-6.944 2.103-10.396l-6.901-10.4c-4.394-6.738-11.819-10.761-19.863-10.762-.001 0-.001 0-.001 0-8.044 0-15.471 4.023-19.865 10.762l-27.249 41.781-1.715-8.15c-.853-4.053-4.834-6.655-8.884-5.794-4.053.853-6.647 4.83-5.794 8.884l4.804 22.83-17.456 26.765c-4.761 7.299-5.14 16.591-.99 24.252 4.149 7.661 12.141 12.42 20.854 12.42h47.298l-5.874 5.873c-2.929 2.93-2.929 7.678 0 10.607 1.465 1.464 3.385 2.196 5.304 2.196s3.839-.732 5.304-2.196l16.48-16.48h44.073c8.713 0 16.703-4.759 20.853-12.419 4.15-7.661 3.772-16.953-.986-24.25l-20.334-31.2 7.937 1.733c4.054.89 8.044-1.682 8.927-5.728.884-4.047-1.681-8.044-5.728-8.927l-25.806-5.634c-2.702-.59-5.016.65-5.016.65z"/></g></svg>