<!-- Generated by IcoMoon.io -->
<svg version="1.1" xmlns="http://www.w3.org/2000/svg" width="32" height="32" viewBox="0 0 32 32">
<title>vg-seo</title>
<path d="M29.44 0.64c1.060 0 1.92 0.86 1.92 1.92v26.88c0 1.060-0.86 1.92-1.92 1.92h-26.88c-1.060 0-1.92-0.86-1.92-1.92v-26.88c0-1.060 0.86-1.92 1.92-1.92h26.88zM2.56 0c-1.414 0-2.56 1.146-2.56 2.56v26.88c0 1.414 1.146 2.56 2.56 2.56h26.88c1.414 0 2.56-1.146 2.56-2.56v-26.88c0-1.414-1.146-2.56-2.56-2.56h-26.88z"></path>
<path d="M8.093 21.974c-0.932 0-1.72-0.256-2.365-0.768-0.635-0.522-1.101-1.218-1.398-2.089l1.905-0.891 0.184 0.307c0.297 0.512 0.579 0.911 0.845 1.198 0.276 0.287 0.62 0.43 1.029 0.43 0.266 0 0.502-0.128 0.707-0.384 0.215-0.256 0.323-0.538 0.323-0.845 0-0.287-0.072-0.548-0.215-0.783s-0.328-0.425-0.553-0.568l-2.012-1.198c-0.584-0.328-1.050-0.742-1.398-1.244s-0.522-1.065-0.522-1.69c0-0.666 0.154-1.26 0.461-1.782 0.317-0.522 0.742-0.927 1.275-1.213 0.543-0.287 1.152-0.43 1.828-0.43 0.788 0 1.459 0.195 2.012 0.584s0.963 0.968 1.229 1.736l-1.905 0.86c-0.041-0.082-0.128-0.266-0.261-0.553s-0.297-0.492-0.492-0.614c-0.184-0.133-0.415-0.2-0.691-0.2-0.338 0-0.599 0.108-0.783 0.323-0.174 0.215-0.261 0.492-0.261 0.829 0 0.246 0.067 0.471 0.2 0.676 0.143 0.195 0.312 0.348 0.507 0.461l1.859 1.091c1.372 0.778 2.094 1.802 2.166 3.072 0 0.727-0.164 1.372-0.492 1.935-0.317 0.553-0.758 0.983-1.321 1.29-0.553 0.307-1.172 0.461-1.859 0.461z"></path>
<path d="M13.242 21.759v-11.52h5.852l-0.184 1.797h-3.41v2.749h2.427l-0.015 1.935h-2.412v3.241h3.717l-0.184 1.797h-5.791z"></path>
<path d="M23.769 21.974c-1.3 0-2.217-0.558-2.749-1.674-0.522-1.126-0.783-2.58-0.783-4.362 0-1.894 0.282-3.354 0.845-4.378s1.47-1.536 2.719-1.536c2.386 0 3.579 1.951 3.579 5.852 0 1.751-0.271 3.205-0.814 4.362-0.532 1.157-1.464 1.736-2.796 1.736zM23.8 20.162c0.543 0 0.901-0.353 1.075-1.060 0.174-0.717 0.261-1.797 0.261-3.241 0-1.157-0.087-2.115-0.261-2.872-0.164-0.768-0.522-1.152-1.075-1.152s-0.911 0.379-1.075 1.137c-0.164 0.758-0.246 1.715-0.246 2.872 0 1.454 0.082 2.539 0.246 3.256 0.174 0.707 0.532 1.060 1.075 1.060z"></path>
</svg>
