<!-- Generated by IcoMoon.io -->
<svg version="1.1" xmlns="http://www.w3.org/2000/svg" width="1024" height="1024" viewBox="0 0 1024 1024">
<title>vg-concierge</title>
<g id="icomoon-ignore">
</g>
<path fill="#5f6d83" d="M212.838 852.615h640.523c24.883 0 44.36-20.48 44.36-44.196v-764.226c0-24.792-20.558-44.194-44.36-44.194h-727.080c-24.885 0-44.36 20.48-44.36 44.194v849.381c0 72.217 58.426 130.425 130.918 130.425h640.523c24.883 0 44.36-20.48 44.36-44.192 0-24.793-20.558-44.196-44.36-44.196h-640.523c-22.721 0-41.115-18.326-41.115-40.96 0-23.712 18.393-42.037 41.115-42.037zM171.723 89.465h637.278v673.685h-596.163c-14.066 0-28.131 2.154-41.115 6.468v-680.153z"></path>
<path fill="#fff" d="M450.56 0h450.56v491.52h-450.56v-491.52z"></path>
<path fill="#5f6d83" d="M548.762 445.219c-1.495 0-2.994-0.168-4.489-0.561-9.22-2.2-15.888-10.277-15.888-19.964v-41.773c0-149.711 119.009-271.52 265.277-271.52h6.799v-90.51c0-8.521 5.063-16.18 12.788-19.382 7.696-3.172 16.54-1.254 22.311 4.9l176.853 187.975c7.614 8.077 7.614 20.886 0 28.963l-176.853 187.976c-5.771 6.152-14.668 8.049-22.311 4.899-7.725-3.203-12.788-10.861-12.788-19.381v-90.505h-32.322c-85.594 0-162.517 48.676-200.765 127.016-3.514 7.242-10.887 11.866-18.612 11.866v0zM793.661 153.174c-114.274 0-208.9 87.858-222.753 201.060 49.463-56.473 120.394-89.668 197.231-89.668h52.728c11.264 0 20.406 9.357 20.406 20.886v59.594l128.119-136.178-128.119-136.178v59.599c0 11.529-9.142 20.886-20.406 20.886h-27.206z"></path>
</svg>
