<!-- Generated by IcoMoon.io -->
<svg version="1.1" xmlns="http://www.w3.org/2000/svg" width="1024" height="1024" viewBox="0 0 1024 1024">
<title>vg-passport</title>
<g id="icomoon-ignore">
</g>
<path d="M891.998 80h-92v-48c0-17.672-14.324-32-31.998-32s-31.998 14.328-31.998 32v48h-448.002v-48c0-17.672-14.326-32-32-32s-32 14.328-32 32v48h-92c-72.786 0-132 59.214-132 132v679.998c0 72.786 59.214 132.002 132 132.002h759.998c72.786 0 132.002-59.216 132.002-132.002v-679.998c0-72.786-59.216-132-132.002-132zM132 144h92v32c0 17.672 14.326 32 32 32s32-14.328 32-32v-32h448.002v32c0 17.672 14.324 32 31.998 32s31.998-14.328 31.998-32v-32h92c37.499 0 68.002 30.504 68.002 68v76h-896v-76c0-37.496 30.504-68 68-68zM891.998 960h-759.998c-37.496 0-68-30.503-68-68.002v-539.998h896v539.998c0 37.499-30.503 68.002-68.002 68.002z"></path>
<path d="M379.967 514.589l-30.172-27.996c-7.585-7.037-19.739-1.372-19.193 8.856l3.24 90.829c0.243 6.5 5.469 11.346 11.968 11.104l90.659-3.396c10.232-0.549 14.967-13.091 7.381-20.128l-30.171-27.992c51.765-55.796 139.174-59.068 194.97-7.303 13.316 12.354 23.949 26.923 31.044 42.602 3.723 8.159 12.354 12.714 21.127 12.386 16.572-0.618 26.989-17.932 19.919-32.961-9.552-20.468-23.282-39.477-40.813-55.742-74.502-69.124-190.837-64.766-259.959 9.74zM615.952 733.528c-51.761 55.796-139.174 59.073-194.97 7.307-13.315-12.354-23.948-26.927-31.044-42.607-3.722-8.155-12.354-12.714-21.128-12.386-16.572 0.623-26.987 17.932-19.916 32.961 9.553 20.468 23.281 39.481 40.812 55.742 74.505 69.124 190.836 64.766 259.96-9.736l30.171 27.992c7.586 7.037 19.739 1.376 19.194-8.856l-3.396-90.661c-0.246-6.496-5.468-11.346-11.969-11.104l-90.661 3.4c-2.269 0.106-4.452 0.881-6.279 2.228s-3.215 3.207-3.985 5.341c-0.774 2.134-0.897 4.448-0.356 6.652 0.541 2.208 1.724 4.202 3.396 5.734l30.171 27.992z"></path>
</svg>
