<svg width="20" height="20" viewBox="0 0 20 20" fill="none" xmlns="http://www.w3.org/2000/svg">
<rect x="0.5" y="3.10938" width="16.3913" height="16.3913" rx="0.5" stroke="#5F6D83"/>
<path d="M5.42603 11.1937C5.83523 11.194 6.23536 11.0701 6.57578 10.8376C6.91621 10.6051 7.18164 10.2744 7.3385 9.88734C7.49536 9.50031 7.53659 9.07432 7.45699 8.66328C7.37739 8.25224 7.18053 7.87461 6.89132 7.57816C6.6021 7.28172 6.23352 7.07977 5.8322 6.99788C5.43089 6.91598 5.01487 6.95782 4.63678 7.11809C4.25869 7.27836 3.93551 7.54987 3.70812 7.89827C3.48074 8.24666 3.35938 8.6563 3.35938 9.07534C3.35988 9.63666 3.57772 10.1749 3.96513 10.572C4.35253 10.969 4.8779 11.1926 5.42603 11.1937ZM5.42603 7.93682C5.64592 7.93682 5.86087 8.0036 6.0437 8.1287C6.22653 8.2538 6.36903 8.43161 6.45318 8.63965C6.53733 8.84769 6.55935 9.07661 6.51645 9.29746C6.47355 9.51831 6.36766 9.72117 6.21218 9.8804C6.05669 10.0396 5.85859 10.1481 5.64293 10.192C5.42726 10.2359 5.20372 10.2134 5.00057 10.1272C4.79742 10.041 4.62378 9.8951 4.50161 9.70787C4.37945 9.52064 4.31425 9.30052 4.31425 9.07534C4.31475 8.77355 4.43205 8.48426 4.64044 8.27086C4.84883 8.05746 5.13132 7.93734 5.42603 7.93682Z" fill="#5F6D83"/>
<path d="M2.64681 15.1805H8.21529C8.34216 15.1805 8.46385 15.1289 8.55356 15.037C8.64328 14.9451 8.69368 14.8205 8.69368 14.6906V13.8754C8.69371 13.8029 8.67803 13.7313 8.64775 13.6657C8.33622 13.0736 7.87048 12.5816 7.30228 12.2443C6.73408 11.907 6.08567 11.7377 5.42913 11.7551C4.77323 11.7384 4.12564 11.9081 3.55818 12.2454C2.99072 12.5826 2.52557 13.0742 2.21434 13.6657C2.1867 13.7319 2.17363 13.8035 2.17607 13.8754V14.6945C2.17705 14.8224 2.22684 14.9448 2.31481 15.0356C2.40277 15.1265 2.52192 15.1784 2.64681 15.1805ZM3.1252 14.0047C3.36714 13.6051 3.70726 13.2775 4.11156 13.0547C4.51585 12.8319 4.97018 12.7216 5.42913 12.7349C5.88786 12.7207 6.34221 12.8299 6.74683 13.0517C7.15144 13.2734 7.49217 13.6 7.73498 13.9988V14.1948H3.13285L3.1252 14.0047Z" fill="#5F6D83"/>
<line x1="9.12891" y1="8.19531" x2="15.2159" y2="8.19531" stroke="#5F6D83"/>
<line x1="9.12891" y1="8.19531" x2="15.2159" y2="8.19531" stroke="#5F6D83"/>
<line x1="10" y1="10.8047" x2="15.2174" y2="10.8047" stroke="#5F6D83"/>
<line x1="10.8711" y1="13.4141" x2="15.2189" y2="13.4141" stroke="#5F6D83"/>
<mask id="mask0" mask-type="alpha" maskUnits="userSpaceOnUse" x="9" y="2" width="9" height="10">
<path d="M9.56641 2.60938H17.3925V11.305H9.56641V2.60938Z" fill="#C4C4C4"/>
</mask>
<g mask="url(#mask0)">
</g>
<rect x="8.69531" y="2.60938" width="8.69565" height="8.69565" fill="white"/>
<path d="M10.8316 8.69565C10.8024 8.69565 10.7731 8.69237 10.7439 8.6847C10.5638 8.64177 10.4336 8.48402 10.4336 8.29479V7.47893C10.4336 4.55488 12.758 2.17581 15.6148 2.17581H15.7476V0.408033C15.7476 0.241613 15.8464 0.0920245 15.9974 0.0294802C16.1477 -0.0324666 16.3204 0.0049803 16.4331 0.125189L19.8872 3.79658C20.036 3.95434 20.036 4.20451 19.8872 4.36227L16.4331 8.03366C16.3204 8.15387 16.1466 8.19092 15.9974 8.12937C15.8464 8.06682 15.7476 7.91723 15.7476 7.75081V5.98314H15.1163C13.4445 5.98314 11.9422 6.93385 11.1951 8.4639C11.1265 8.60532 10.9825 8.69565 10.8316 8.69565ZM15.6148 2.99167C13.3828 2.99167 11.5347 4.70766 11.2642 6.91862C12.2302 5.81563 13.6156 5.16728 15.1163 5.16728H16.1461C16.3661 5.16728 16.5447 5.35003 16.5447 5.57521V6.73915L19.047 4.07942L16.5447 1.4197V2.58374C16.5447 2.80892 16.3661 2.99167 16.1461 2.99167H15.6148Z" fill="#5F6D83"/>
</svg>
