<svg id="Layer_1" enable-background="new 0 0 128 128" height="512" viewBox="0 0 128 128" width="512" xmlns="http://www.w3.org/2000/svg"><g><path d="m109 54.6h-2.8c-5.7 0-10.2 4.6-10.2 10.2v3.3h-16.1c-2.8 0-5.3-1.6-6.4-4.1l-1.1-2.4 23.3-8.3c2.6-.9 4-3.8 3.1-6.5l-2-5.6-7.1-19.9c-1.2-3.2-4.7-4.9-7.9-3.8l-54.8 19.5c-3.2 1.1-4.8 4.5-3.8 7.7l-2.7 1c-2.8 1-4.2 4-3.2 6.8l5.3 14.9c1 2.8 4 4.2 6.8 3.2l6.3-2.2.3.9c.9 2.6 3.8 4 6.5 3.1l15.9-5.7 1.2 2.7c3.7 8.3 12 13.6 21.2 13.6h15.2v3.3c0 5.7 4.6 10.2 10.2 10.2h2.8c1 0 1.7-.8 1.8-1.7v-38.5c0-1-.8-1.7-1.8-1.7zm-80.8 12.7c-.9.3-2-.2-2.3-1.1-.1-.1-5.3-14.8-5.3-14.9-.3-.9.2-2 1.1-2.3l2.7-1 2 5.7c1.2 3.3 3.6 6 6.7 7.6l1.4 3.8zm1.5-14.8-3.1-8.8c-.5-1.4.2-3 1.6-3.5l54.6-19.5c1.4-.5 3 .2 3.5 1.6l6.5 18.3c-3 1.1 14.3-5.1-50.2 17.9-5.6 2.1-11.1-.9-12.9-6zm11.5 16.5c-.8.3-1.7-.1-2-.9 0 0-1.8-4.9-1.9-5.5 2.2.3 4.4.1 6.5-.7l50.2-17.9 1.4 4c.3.8-.1 1.7-.9 2-57.9 20.7 4.4-1.6-53.3 19zm54.8 10.5h-15.2c-7.8 0-14.8-4.5-18.1-11.6l-1.1-2.4c.2-.1 7.6-2.7 7.5-2.7l1.2 2.7c1.7 3.8 5.5 6.2 9.6 6.2h16.1zm11.3 13.6h-1c-3.7 0-6.7-3-6.7-6.7v-21.6c0-3.7 3-6.7 6.7-6.7h1z"/><path d="m80.3 25.9-11.2 4c-.9.3-1.4 1.3-1.1 2.2s1.4 1.4 2.2 1.1l11.2-4c.9-.3 1.4-1.3 1.1-2.2-.2-1-1.2-1.5-2.2-1.1z"/></g></svg>