<svg id="Layer_1" height="512" viewBox="0 0 128 128" width="512" xmlns="http://www.w3.org/2000/svg" data-name="Layer 1"><path d="m34.5 60.873a12.764 12.764 0 0 0 -12.75 12.75v3.627a1.75 1.75 0 0 0 3.5 0v-3.627a9.26 9.26 0 0 1 9.25-9.25 1.75 1.75 0 0 0 0-3.5z"/><path d="m112.5 110.75h-6.846l-13.867-83.681a21.066 21.066 0 0 0 -10.88-15.157l-8.979-4.739a20.913 20.913 0 0 0 -30.688 18.497v16.08h-1.25a1.75 1.75 0 0 0 -1.75 1.75v8.37h-3.74a21.775 21.775 0 0 0 -21.75 21.75v5.334a9.761 9.761 0 0 0 -8 9.585v11.055a9.761 9.761 0 0 0 8 9.585v4.271a1.749 1.749 0 0 0 1.75 1.75h21.827a13.491 13.491 0 1 0 20.413-16.247v-45.333a1.75 1.75 0 0 0 -1.75-1.75h-1.25v-8.37a1.75 1.75 0 0 0 -1.75-1.75h-1.25v-16.08a11.426 11.426 0 0 1 16.751-10.1l8.981 4.75a11.457 11.457 0 0 1 5.928 8.28l13.626 82.15h-6.609a10.762 10.762 0 0 0 -10.75 10.75 1.75 1.75 0 0 0 1.75 1.75h41.083a1.75 1.75 0 0 0 1.75-1.75 10.762 10.762 0 0 0 -10.75-10.75zm-104.25-11.156v-11.055a6.264 6.264 0 0 1 4.5-6v23.061a6.263 6.263 0 0 1 -4.5-6.006zm50.419 10.156a10 10 0 1 1 -10-10 10.011 10.011 0 0 1 10 10zm-10-13.5a13.4 13.4 0 0 0 -13.344 15.45h-19.075v-38.08a18.271 18.271 0 0 1 18.25-18.25h18.74v41.692a13.409 13.409 0 0 0 -4.571-.813zm-6.929-44.38v-6.62h8.5v6.62zm44.118-23.836a14.968 14.968 0 0 0 -7.75-10.811l-8.981-4.75a14.92 14.92 0 0 0 -21.887 13.197v16.08h-2.5v-16.08a17.416 17.416 0 0 1 25.553-15.4l8.978 4.739a17.547 17.547 0 0 1 9.062 12.629l13.773 83.114h-2.532zm-3.477 91.716a7.261 7.261 0 0 1 7.036-5.5h23.083a7.261 7.261 0 0 1 7.036 5.5z"/></svg>