<!-- Generated by IcoMoon.io -->
<svg version="1.1" xmlns="http://www.w3.org/2000/svg" width="30" height="32" viewBox="0 0 30 32">
<title>bed</title>
<path d="M29.369 18.133h-0.498v-1.6c-0.001-1.059-0.587-2.017-1.493-2.441v-8.226c-0-0.212-0.117-0.404-0.299-0.489 0.194-0.333 0.298-0.718 0.299-1.111 0-1.178-0.891-2.133-1.991-2.133s-1.991 0.955-1.991 2.133c0.002 0.376 0.098 0.744 0.277 1.067h-17.478c0.179-0.323 0.275-0.691 0.277-1.067 0-1.178-0.891-2.133-1.991-2.133s-1.991 0.955-1.991 2.133c0.001 0.393 0.104 0.778 0.299 1.111-0.181 0.085-0.299 0.277-0.299 0.489v8.226c-0.906 0.424-1.492 1.381-1.493 2.441v1.6h-0.498c-0.275 0-0.498 0.239-0.498 0.533v7.467c0 0.295 0.223 0.533 0.498 0.533h0.498v2.667c0 0.295 0.223 0.533 0.498 0.533h1.991c0.275 0 0.498-0.239 0.498-0.533v-2.667h21.902v2.667c0 0.295 0.223 0.533 0.498 0.533h1.991c0.275 0 0.498-0.239 0.498-0.533v-2.667h0.498c0.275 0 0.498-0.239 0.498-0.533v-7.467c0-0.295-0.223-0.533-0.498-0.533zM25.387 3.2c0.55 0 0.996 0.478 0.996 1.067s-0.446 1.067-0.996 1.067c-0.55 0-0.996-0.478-0.996-1.067s0.446-1.067 0.996-1.067zM4.48 3.2c0.55 0 0.996 0.478 0.996 1.067s-0.446 1.067-0.996 1.067c-0.55 0-0.996-0.478-0.996-1.067s0.446-1.067 0.996-1.067zM3.484 6.4h22.898v7.467h-2.004c0.329-0.459 0.509-1.021 0.511-1.6v-1.067c-0.002-1.472-1.115-2.665-2.489-2.667h-3.982c-1.374 0.002-2.487 1.195-2.489 2.667v1.067c0.002 0.579 0.181 1.141 0.511 1.6h-3.013c0.329-0.459 0.509-1.021 0.511-1.6v-1.067c-0.002-1.472-1.115-2.665-2.489-2.667h-3.982c-1.374 0.002-2.487 1.195-2.489 2.667v1.067c0.002 0.579 0.181 1.141 0.511 1.6h-2.004v-7.467zM23.893 11.2v1.067c0 0.884-0.669 1.6-1.493 1.6h-3.982c-0.825 0-1.493-0.716-1.493-1.6v-1.067c0-0.884 0.669-1.6 1.493-1.6h3.982c0.825 0 1.493 0.716 1.493 1.6zM12.942 11.2v1.067c0 0.884-0.669 1.6-1.493 1.6h-3.982c-0.825 0-1.493-0.716-1.493-1.6v-1.067c0-0.884 0.669-1.6 1.493-1.6h3.982c0.825 0 1.493 0.716 1.493 1.6zM1.991 16.533c0-0.884 0.669-1.6 1.493-1.6h22.898c0.825 0 1.493 0.716 1.493 1.6v1.6h-25.884v-1.6zM2.987 28.8h-0.996v-2.133h0.996v2.133zM27.876 28.8h-0.996v-2.133h0.996v2.133zM28.871 25.6h-27.876v-6.4h27.876v6.4z"></path>
<path d="M4.48 23.467h-1.991c-0.275 0-0.498 0.239-0.498 0.533s0.223 0.533 0.498 0.533h1.991c0.275 0 0.498-0.239 0.498-0.533s-0.223-0.533-0.498-0.533z"></path>
<path d="M27.378 23.467h-20.907c-0.275 0-0.498 0.239-0.498 0.533s0.223 0.533 0.498 0.533h20.907c0.275 0 0.498-0.239 0.498-0.533s-0.223-0.533-0.498-0.533z"></path>
</svg>
