<!-- Generated by IcoMoon.io -->
<svg version="1.1" xmlns="http://www.w3.org/2000/svg" width="32" height="32" viewBox="0 0 32 32">
<title>bell</title>
<path d="M5.015 21.5c0.13-2.827 1.344-5.495 3.39-7.45s4.766-3.048 7.595-3.050v1c-2.563 0.005-5.026 0.993-6.882 2.76s-2.963 4.18-3.093 6.74h21.96c-0.126-3.094-1.444-6.019-3.678-8.163s-5.21-3.342-8.307-3.342c-3.097 0-6.073 1.197-8.307 3.342s-3.552 5.069-3.678 8.163h1z"></path>
<path d="M16 9c0.17 0 0.335 0.005 0.5 0.015v-2.015h-1v2.015c0.165-0.010 0.33-0.015 0.5-0.015z"></path>
<path d="M18.75 4.5h-5.5c-0.199 0-0.39 0.079-0.53 0.22s-0.22 0.331-0.22 0.53c0 0.199 0.079 0.39 0.22 0.53s0.331 0.22 0.53 0.22h5.5c0.199 0 0.39-0.079 0.53-0.22s0.22-0.331 0.22-0.53c0-0.199-0.079-0.39-0.22-0.53s-0.331-0.22-0.53-0.22z"></path>
<path d="M2 25.5h28v2h-28v-2z"></path>
<path d="M3.195 24.5h25.61l-0.665-2h-24.28l-0.665 2z"></path>
<path d="M2.5 12.5h2v1h-2v-1z"></path>
<path d="M5.5 9.5h1v2h-1v-2z"></path>
<path d="M3.17 10.878l0.707-0.707 1.414 1.414-0.707 0.707-1.414-1.414z"></path>
<path d="M27.5 12.5h2v1h-2v-1z"></path>
<path d="M25.5 9.5h1v2h-1v-2z"></path>
<path d="M26.703 11.588l1.414-1.414 0.707 0.707-1.414 1.414-0.707-0.707z"></path>
</svg>
