<!-- Generated by IcoMoon.io -->
<svg version="1.1" xmlns="http://www.w3.org/2000/svg" width="1024" height="1024" viewBox="0 0 1024 1024">
<title>directions_bike</title>
<g id="icomoon-ignore">
</g>
<path fill="#1f8830" stroke="#fff" stroke-linejoin="miter" stroke-linecap="butt" stroke-miterlimit="4" stroke-width="85.3333" d="M749.501 340.838l0.649 0.671-324.009 324.009-109.869-110.906 109.728 109.728 323.501-323.501zM179.59 843.928l-0.004 0.003 0.486 0.479c91.942 90.485 203.341 136.258 331.928 136.258 128.603 0 239.469-45.798 330.17-136.497 91.889-91.89 138.498-203.364 138.498-332.17 0-128.712-46.549-239.569-138.499-330.172-90.602-91.948-201.458-138.495-330.169-138.495-128.806 0-240.28 46.607-332.17 138.497-90.701 90.701-136.496 201.567-136.496 330.17 0 128.587 45.774 239.986 136.257 331.928z"></path>
</svg>
