<!-- Generated by IcoMoon.io -->
<svg version="1.1" xmlns="http://www.w3.org/2000/svg" width="32" height="32" viewBox="0 0 32 32">
<title>check</title>
<path d="M22.878 11.692c-0.518-0.519-1.361-0.519-1.88 0l-5.708 5.707-2.384-2.383c-0.519-0.519-1.361-0.519-1.88 0s-0.519 1.361 0 1.88l3.324 3.324c0.259 0.26 0.6 0.39 0.94 0.39s0.681-0.13 0.94-0.39l6.648-6.648c0.519-0.519 0.519-1.361 0-1.88z"></path>
<path d="M30.581 14.626c-0.734 0-1.33 0.596-1.33 1.33 0 7.332-5.965 13.296-13.296 13.296s-13.296-5.965-13.296-13.296c0-7.332 5.965-13.296 13.296-13.296 3.569 0 6.92 1.395 9.436 3.928 0.517 0.522 1.359 0.525 1.88 0.007s0.524-1.359 0.007-1.88c-3.018-3.040-7.040-4.714-11.322-4.714-8.798 0-15.956 7.157-15.956 15.956s7.157 15.956 15.956 15.956c8.798 0 15.956-7.157 15.956-15.956 0-0.734-0.596-1.33-1.33-1.33z"></path>
</svg>
