<!-- Generated by IcoMoon.io -->
<svg version="1.1" xmlns="http://www.w3.org/2000/svg" width="34" height="32" viewBox="0 0 34 32">
<title>collections_bookmark</title>
<path d="M28.023 16.001v-10.687h-7.022v10.687l3.478-2 3.544 2zM28.023 2.688c0.744 0 1.378 0.271 1.903 0.813 0.569 0.5 0.853 1.104 0.853 1.813v16c0 0.708-0.284 1.333-0.853 1.875-0.525 0.542-1.159 0.812-1.903 0.812h-16.8c-0.744 0-1.4-0.271-1.969-0.812s-0.853-1.167-0.853-1.875v-16c0-0.708 0.284-1.313 0.853-1.813 0.569-0.542 1.225-0.813 1.969-0.813h16.8zM5.579 8.001v18.688h19.622v2.625h-19.622c-0.744 0-1.4-0.25-1.969-0.75-0.525-0.542-0.788-1.167-0.788-1.875v-18.688h2.756z"></path>
</svg>
