<!-- Generated by IcoMoon.io -->
<svg version="1.1" xmlns="http://www.w3.org/2000/svg" width="32" height="32" viewBox="0 0 32 32">
<title>config</title>
<path d="M28.225 17.568c0.066-0.512 0.115-1.024 0.115-1.568s-0.049-1.056-0.115-1.568l3.471-2.64c0.313-0.24 0.395-0.672 0.197-1.024l-3.29-5.536c-0.197-0.352-0.642-0.48-1.003-0.352l-4.096 1.6c-0.855-0.64-1.776-1.168-2.78-1.568l-0.625-4.24c-0.049-0.384-0.395-0.672-0.806-0.672h-6.58c-0.411 0-0.757 0.288-0.806 0.672l-0.625 4.24c-1.003 0.4-1.925 0.944-2.78 1.568l-4.096-1.6c-0.378-0.144-0.806 0-1.003 0.352l-3.29 5.536c-0.214 0.352-0.115 0.784 0.197 1.024l3.471 2.64c-0.066 0.512-0.115 1.040-0.115 1.568s0.049 1.056 0.115 1.568l-3.471 2.64c-0.313 0.24-0.395 0.672-0.197 1.024l3.29 5.536c0.197 0.352 0.641 0.48 1.003 0.352l4.096-1.6c0.855 0.64 1.777 1.168 2.78 1.568l0.625 4.24c0.049 0.384 0.395 0.672 0.806 0.672h6.58c0.411 0 0.757-0.288 0.806-0.672l0.625-4.24c1.003-0.4 1.925-0.944 2.78-1.568l4.096 1.6c0.378 0.144 0.806 0 1.003-0.352l3.29-5.536c0.197-0.352 0.115-0.784-0.197-1.024l-3.471-2.64zM16.004 21.6c-3.175 0-5.757-2.512-5.757-5.6s2.582-5.6 5.757-5.6c3.175 0 5.757 2.512 5.757 5.6s-2.582 5.6-5.757 5.6z"></path>
</svg>
