<!-- Generated by IcoMoon.io -->
<svg version="1.1" xmlns="http://www.w3.org/2000/svg" width="32" height="32" viewBox="0 0 32 32">
<title>delete_forever</title>
<path d="M20.686 5.531h4.625v2.633h-18.625v-2.633h4.625l1.375-1.286h6.625l1.375 1.286zM11.249 15.816l2.875 2.816-2.812 2.755 1.875 1.837 2.812-2.755 2.812 2.755 1.875-1.837-2.812-2.755 2.812-2.816-1.875-1.837-2.812 2.816-2.812-2.816-1.938 1.837zM7.999 25.122v-15.673h16v15.673c0 0.694-0.271 1.306-0.812 1.837s-1.167 0.796-1.875 0.796h-10.625c-0.708 0-1.333-0.265-1.875-0.796s-0.812-1.143-0.812-1.837z"></path>
</svg>
