<!-- Generated by IcoMoon.io -->
<svg version="1.1" xmlns="http://www.w3.org/2000/svg" width="36" height="32" viewBox="0 0 36 32">
<title>hand</title>
<path d="M17.73 31.994h9.825c3.315 0 6-2.387 6-5.333v-18.467c0-1.84-1.68-3.333-3.75-3.333-0.255 0-0.51 0.027-0.75 0.067v-0.373c0-1.84-1.68-3.333-3.75-3.333-0.495 0-0.975 0.080-1.41 0.24-0.675-0.88-1.8-1.453-3.090-1.453-1.98 0-3.6 1.373-3.735 3.107-0.255-0.040-0.51-0.067-0.765-0.067-2.070 0-3.75 1.493-3.75 3.333v12.733l-3.615-1.707c-1.095-0.52-2.46-0.373-3.39 0.36l-3.105 2.44 10.95 10.147c1.125 1.040 2.715 1.64 4.335 1.64zM15.555 28.499l-8.79-8.133 0.765-0.6 8.025 3.773v-17.16c0-0.36 0.33-0.667 0.75-0.667s0.75 0.293 0.75 0.667v9.613h3v-12.653c0-0.373 0.33-0.667 0.75-0.667s0.75 0.293 0.75 0.667v12.653h3v-11.44c0-0.373 0.33-0.667 0.75-0.667s0.75 0.293 0.75 0.667v11.44h3v-7.8c0-0.373 0.33-0.667 0.75-0.667s0.75 0.293 0.75 0.667v18.467c0 1.467-1.35 2.667-3 2.667h-9.84c-0.81 0-1.59-0.307-2.16-0.827z"></path>
</svg>
