<!-- Generated by IcoMoon.io -->
<svg version="1.1" xmlns="http://www.w3.org/2000/svg" width="34" height="32" viewBox="0 0 34 32">
<title>help</title>
<path fill="#000" d="M33.561 16c0 8.837-7.513 16-16.78 16s-16.78-7.163-16.78-16c0-8.837 7.513-16 16.78-16s16.78 7.163 16.78 16z"></path>
<path fill="#fff" d="M19.078 15.33c-0.721 0.537-0.734 0.912-0.734 1.562 0 0.237-0.131 0.512-0.773 0.512-0.537 0-0.721-0.187-0.721-0.837 0-1.074 0.498-1.587 0.878-1.899 0.432-0.35 1.166-0.737 1.166-1.412 0-0.575-0.524-0.85-1.179-0.85-1.336 0-1.048 0.962-1.756 0.962-0.354 0-0.786-0.225-0.786-0.712 0-0.674 0.812-1.674 2.581-1.674 1.677 0 2.791 0.887 2.791 2.061s-1.114 2.024-1.467 2.286zM18.593 19.228c0 0.512-0.445 0.962-1.009 0.962s-0.996-0.45-0.996-0.962c0-0.525 0.445-0.962 0.996-0.962s1.009 0.437 1.009 0.962z"></path>
<path fill="#fff" d="M17.879 24.381h-8.87c-0.453 0-0.821-0.351-0.821-0.783v-8.458c0-5.096 4.348-9.241 9.692-9.241s9.692 4.146 9.692 9.241-4.348 9.241-9.692 9.241zM9.83 22.815h8.049c4.438 0 8.049-3.443 8.049-7.675s-3.611-7.675-8.049-7.675c-4.438 0-8.049 3.443-8.049 7.675v7.675z"></path>
</svg>
