<!-- Generated by IcoMoon.io -->
<svg version="1.1" xmlns="http://www.w3.org/2000/svg" width="32" height="32" viewBox="0 0 32 32">
<title>password</title>
<path d="M23.125 22.875c0.69 0 1.25-0.56 1.25-1.25s-0.56-1.25-1.25-1.25c-0.69 0-1.25 0.56-1.25 1.25s0.56 1.25 1.25 1.25z"></path>
<path d="M28.75 22.625c0.69 0 1.25-0.56 1.25-1.25v-4.625c0-2.757-2.243-5-5-5h-1.502v-4.408c0-4.048-3.365-7.342-7.5-7.342s-7.5 3.293-7.5 7.342v4.408h-1.498c-2.757 0-5 2.243-5 5v10.25c0 2.757 2.243 5 5 5h18c2.757 0 5-2.243 5-5 0-0.69-0.56-1.25-1.25-1.25s-1.25 0.56-1.25 1.25c0 1.378-1.122 2.5-2.5 2.5h-18c-1.378 0-2.5-1.122-2.5-2.5v-10.25c0-1.379 1.122-2.5 2.5-2.5h18c1.378 0 2.5 1.121 2.5 2.5v4.625c0 0.69 0.56 1.25 1.25 1.25zM20.998 11.75h-10v-4.408c0-2.67 2.243-4.842 5-4.842s5 2.172 5 4.842v4.408z"></path>
<path d="M13.687 22.875c0.69 0 1.25-0.56 1.25-1.25s-0.56-1.25-1.25-1.25c-0.69 0-1.25 0.56-1.25 1.25s0.56 1.25 1.25 1.25z"></path>
<path d="M9 22.875c0.69 0 1.25-0.56 1.25-1.25s-0.56-1.25-1.25-1.25c-0.69 0-1.25 0.56-1.25 1.25s0.56 1.25 1.25 1.25z"></path>
<path d="M18.375 22.875c0.69 0 1.25-0.56 1.25-1.25s-0.56-1.25-1.25-1.25c-0.69 0-1.25 0.56-1.25 1.25s0.56 1.25 1.25 1.25z"></path>
</svg>
