<!-- Generated by IcoMoon.io -->
<svg version="1.1" xmlns="http://www.w3.org/2000/svg" width="46" height="32" viewBox="0 0 46 32">
<title>person_add</title>
<path d="M28.573 15.997c4.209 0 7.619-3.41 7.619-7.619s-3.41-7.619-7.619-7.619c-4.21 0-7.619 3.41-7.619 7.619s3.41 7.619 7.619 7.619zM28.573 4.568c2.095 0 3.809 1.714 3.809 3.81s-1.714 3.809-3.809 3.809c-2.095 0-3.81-1.714-3.81-3.809s1.714-3.81 3.81-3.81zM13.335 27.426c0-5.067 10.153-7.619 15.238-7.619s15.238 2.552 15.238 7.619v3.81h-30.476v-3.81zM17.144 27.426c0.419-1.371 6.305-3.81 11.428-3.81 5.143 0 11.048 2.457 11.429 3.81h-22.857zM11.43 15.997v5.714h-3.81v-5.714h-5.714v-3.81h5.714v-5.714h3.81v5.714h5.714v3.81h-5.714z"></path>
</svg>
