<!-- Generated by IcoMoon.io -->
<svg version="1.1" xmlns="http://www.w3.org/2000/svg" width="32" height="32" viewBox="0 0 32 32">
<title>search</title>
<path d="M8.438 16.938c1.167 1.167 2.583 1.75 4.25 1.75s3.083-0.583 4.25-1.75c1.167-1.167 1.75-2.583 1.75-4.25s-0.583-3.083-1.75-4.25c-1.167-1.167-2.583-1.75-4.25-1.75s-3.083 0.583-4.25 1.75c-1.167 1.167-1.75 2.583-1.75 4.25s0.583 3.083 1.75 4.25zM20.687 18.687l6.625 6.625-2 2-6.625-6.625v-1.062l-0.375-0.375c-1.583 1.375-3.458 2.063-5.625 2.063-2.417 0-4.479-0.833-6.187-2.5-1.667-1.667-2.5-3.708-2.5-6.125s0.833-4.458 2.5-6.125c1.708-1.708 3.771-2.563 6.187-2.563s4.458 0.854 6.125 2.563c1.667 1.667 2.5 3.708 2.5 6.125 0 2.167-0.688 4.042-2.063 5.625l0.375 0.375h1.062z"></path>
</svg>
