<!-- Generated by IcoMoon.io -->
<svg version="1.1" xmlns="http://www.w3.org/2000/svg" width="32" height="32" viewBox="0 0 32 32">
<title>share</title>
<path fill="none" stroke="#273951" stroke-linejoin="miter" stroke-linecap="butt" stroke-miterlimit="4" stroke-width="1.6" d="M31.2 16c0 8.395-6.805 15.2-15.2 15.2s-15.2-6.805-15.2-15.2c0-8.395 6.805-15.2 15.2-15.2s15.2 6.805 15.2 15.2z"></path>
<path d="M20.8 19.262c0.65 0 1.2 0.238 1.65 0.713 0.45 0.45 0.675 0.987 0.675 1.612 0 0.65-0.237 1.212-0.712 1.688-0.45 0.45-0.988 0.675-1.612 0.675s-1.175-0.225-1.65-0.675c-0.45-0.475-0.675-1.038-0.675-1.688 0-0.25 0.012-0.425 0.037-0.525l-5.662-3.3c-0.475 0.425-1.025 0.638-1.65 0.638-0.65 0-1.212-0.238-1.688-0.712s-0.712-1.038-0.712-1.688 0.238-1.212 0.712-1.688c0.475-0.475 1.038-0.712 1.688-0.712 0.625 0 1.175 0.212 1.65 0.638l5.625-3.262c-0.050-0.25-0.075-0.438-0.075-0.563 0-0.65 0.238-1.212 0.712-1.688s1.038-0.712 1.688-0.712 1.212 0.238 1.688 0.712c0.475 0.475 0.712 1.038 0.712 1.688s-0.238 1.212-0.712 1.688c-0.475 0.475-1.038 0.712-1.688 0.712-0.6 0-1.15-0.225-1.65-0.675l-5.625 3.3c0.050 0.25 0.075 0.438 0.075 0.562s-0.025 0.312-0.075 0.562l5.7 3.3c0.45-0.4 0.975-0.6 1.575-0.6z"></path>
</svg>
