<svg height="512pt" viewBox="0 0 512 512" width="512pt" xmlns="http://www.w3.org/2000/svg"><path d="m207.558594 61.320312c4.199218 0 7.605468-3.40625 7.605468-7.609374v-21.300782c0-4.199218-3.40625-7.605468-7.605468-7.605468-4.203125 0-7.609375 3.40625-7.609375 7.605468v21.300782c0 4.203124 3.40625 7.609374 7.609375 7.609374zm0 0"/><path d="m207.558594 115.320312c4.199218 0 7.605468-3.40625 7.605468-7.609374v-21.300782c0-4.203125-3.40625-7.609375-7.605468-7.609375-4.203125 0-7.609375 3.40625-7.609375 7.609375v21.300782c0 4.203124 3.40625 7.609374 7.609375 7.609374zm0 0"/><path d="m223.90625 77.667969h21.300781c4.203125 0 7.609375-3.40625 7.609375-7.605469 0-4.203125-3.40625-7.609375-7.609375-7.609375h-21.300781c-4.203125 0-7.609375 3.40625-7.609375 7.609375 0 4.199219 3.40625 7.605469 7.609375 7.605469zm0 0"/><path d="m169.90625 77.667969h21.300781c4.203125 0 7.609375-3.40625 7.609375-7.605469 0-4.203125-3.40625-7.609375-7.609375-7.609375h-21.300781c-4.203125 0-7.609375 3.40625-7.609375 7.609375 0 4.199219 3.40625 7.605469 7.609375 7.605469zm0 0"/><path d="m137.933594 148.6875c4.203125 0 7.609375-3.40625 7.609375-7.609375v-21.300781c0-4.203125-3.40625-7.609375-7.609375-7.609375-4.199219 0-7.605469 3.40625-7.605469 7.609375v21.300781c0 4.203125 3.40625 7.609375 7.605469 7.609375zm0 0"/><path d="m137.933594 202.683594c4.203125 0 7.609375-3.40625 7.609375-7.605469v-21.300781c0-4.203125-3.40625-7.609375-7.609375-7.609375-4.199219 0-7.605469 3.40625-7.605469 7.609375v21.300781c0 4.199219 3.40625 7.605469 7.605469 7.605469zm0 0"/><path d="m154.28125 165.035156h21.304688c4.199218 0 7.605468-3.40625 7.605468-7.609375 0-4.199219-3.40625-7.605469-7.605468-7.605469h-21.304688c-4.199219 0-7.605469 3.40625-7.605469 7.605469 0 4.203125 3.40625 7.609375 7.605469 7.609375zm0 0"/><path d="m100.285156 165.035156h21.300782c4.203124 0 7.609374-3.40625 7.609374-7.609375 0-4.199219-3.40625-7.605469-7.609374-7.605469h-21.300782c-4.203125 0-7.609375 3.40625-7.609375 7.605469 0 4.203125 3.40625 7.609375 7.609375 7.609375zm0 0"/><path d="m338.792969 375.496094c-4.203125 0-7.609375 3.40625-7.609375 7.609375v21.300781c0 4.199219 3.40625 7.605469 7.609375 7.605469 4.199219 0 7.605469-3.40625 7.605469-7.605469v-21.300781c0-4.203125-3.40625-7.609375-7.605469-7.609375zm0 0"/><path d="m338.792969 429.496094c-4.203125 0-7.609375 3.40625-7.609375 7.609375v21.300781c0 4.199219 3.40625 7.605469 7.609375 7.605469 4.199219 0 7.605469-3.40625 7.605469-7.605469v-21.300781c0-4.203125-3.40625-7.609375-7.605469-7.609375zm0 0"/><path d="m376.441406 413.148438h-21.300781c-4.203125 0-7.609375 3.40625-7.609375 7.605468 0 4.203125 3.40625 7.609375 7.609375 7.609375h21.300781c4.203125 0 7.609375-3.40625 7.609375-7.609375 0-4.199218-3.40625-7.605468-7.609375-7.605468zm0 0"/><path d="m322.441406 413.148438h-21.300781c-4.203125 0-7.609375 3.40625-7.609375 7.605468 0 4.203125 3.40625 7.609375 7.609375 7.609375h21.300781c4.203125 0 7.609375-3.40625 7.609375-7.609375 0-4.199218-3.40625-7.605468-7.609375-7.605468zm0 0"/><path d="m501.511719 74.5625-32.648438-32.652344c-2.972656-2.96875-7.789062-2.96875-10.757812 0-2.972657 2.972656-2.972657 7.789063 0 10.757813l32.648437 32.652343c3.742188 3.742188 5.804688 8.71875 5.804688 14.011719 0 5.296875-2.0625 10.273438-5.804688 14.015625l-26.8125 26.808594c-3.742187 3.746094-8.71875 5.808594-14.011718 5.808594-5.292969 0-10.269532-2.0625-14.015626-5.808594l-64.296874-64.296875c-7.730469-7.730469-7.730469-20.300781 0-28.027344l26.808593-26.8125c3.746094-3.742187 8.722657-5.804687 14.015625-5.804687 5.292969 0 10.269532 2.0625 14.011719 5.804687l9.070313 9.070313c2.972656 2.96875 7.789062 2.96875 10.757812 0 2.972656-2.972656 2.972656-7.789063 0-10.761719l-9.070312-9.066406c-6.617188-6.617188-15.414063-10.261719-24.769532-10.261719-9.359375 0-18.15625 3.644531-24.773437 10.261719l-26.8125 26.8125c-11.808594 11.8125-13.398438 30.023437-4.78125 43.570312l-27.617188 27.617188c-10.917969 10.914062-10.917969 28.675781 0 39.59375l33.367188 33.367187c5.457031 5.460938 12.628906 8.1875 19.796875 8.1875 7.171875 0 14.339844-2.726562 19.796875-8.1875l27.246093-27.242187c6.078126 4.664062 13.476563 7.199219 21.265626 7.199219 9.359374 0 18.15625-3.644532 24.773437-10.261719l26.8125-26.8125c6.617187-6.617188 10.261719-15.414063 10.261719-24.773438-.003906-9.355469-3.648438-18.152343-10.265625-24.769531zm-110.851563 95.902344c-4.984375 4.984375-13.09375 4.984375-18.078125 0l-33.367187-33.367188c-4.984375-4.984375-4.984375-13.09375 0-18.078125l27.019531-27.023437 51.445313 51.445312zm0 0"/><path d="m307.289062 309.246094c7.160157 0 14.316407-2.726563 19.765626-8.175782 10.898437-10.898437 10.898437-28.632812 0-39.53125l-76.820313-76.820312c-10.898437-10.898438-28.632813-10.902344-39.53125 0-8.445313 8.445312-10.34375 20.992188-5.703125 31.285156l-26.6875 26.691406c-21.027344 21.023438-50.164062 32.8125-79.871094 32.371094-16.949218-.269531-33.484375 2.824219-49.160156 9.1875-15.699219 6.359375-29.734375 15.65625-41.707031 27.628906l-5.347657 5.347657c-2.96875 2.96875-2.96875 7.785156 0 10.757812 1.488282 1.484375 3.433594 2.226563 5.382813 2.226563 1.945313 0 3.894531-.742188 5.378906-2.226563l5.34375-5.34375c10.523438-10.523437 22.859375-18.695312 36.667969-24.289062 13.777344-5.59375 28.324219-8.304688 43.207031-8.074219 3.324219.050781 6.644531-.039062 9.953125-.253906 7.433594 30.832031 24.777344 58.761718 49.34375 79.226562 1.421875 1.183594 3.148438 1.761719 4.867188 1.761719 2.179687 0 4.34375-.929687 5.847656-2.738281 2.691406-3.230469 2.253906-8.027344-.972656-10.714844-21.621094-18.007812-37.007813-42.449219-43.886719-69.464844 24.6875-4.683594 47.78125-16.71875 65.710937-34.644531l25.414063-25.414063 69.253906 69.25-25.417969 25.410157c-11.972656 11.984375-21.269531 26.011719-27.636718 41.703125-2.765625 6.832031-4.914063 13.828125-6.4375 20.949218-11.007813-2.371093-21.660156-6.109374-31.742188-11.199218-3.75-1.890625-8.324218-.386719-10.21875 3.363281-1.894531 3.753906-.386718 8.328125 3.363282 10.222656 11.527343 5.816407 23.722656 10.058594 36.332031 12.6875-.386719 4.351563-.550781 8.734375-.484375 13.148438.460937 29.730469-11.332032 58.839843-32.363282 79.871093l-5.566406 5.566407c-2.972656 2.972656-2.972656 7.789062 0 10.757812 1.484375 1.488281 3.429688 2.230469 5.378906 2.230469 1.945313 0 3.894532-.742188 5.378907-2.230469l5.566406-5.566406c23.925781-23.925781 37.34375-57.042969 36.820313-90.863281-.226563-14.898438 2.488281-29.4375 8.074218-43.21875 5.597656-13.792969 13.773438-26.132813 24.296875-36.664063l26.691407-26.683593c3.648437 1.644531 7.582031 2.472656 11.515624 2.472656zm-85.828124-113.769532c2.40625-2.40625 5.605468-3.730468 9.007812-3.730468s6.601562 1.324218 9.007812 3.730468l76.820313 76.820313c4.964844 4.96875 4.964844 13.046875 0 18.015625-2.40625 2.40625-5.605469 3.730469-9.007813 3.730469-3.402343 0-6.601562-1.324219-9.007812-3.730469l-76.820312-76.820312c-2.40625-2.40625-3.730469-5.605469-3.730469-9.007813s1.324219-6.601563 3.730469-9.007813zm0 0"/><path d="m309.832031 223.695312c1.484375 1.488282 3.433594 2.230469 5.378907 2.230469 1.949218 0 3.894531-.742187 5.378906-2.230469l29.378906-29.375c2.96875-2.972656 2.96875-7.789062 0-10.757812-2.972656-2.972656-7.789062-2.972656-10.757812 0l-29.378907 29.375c-2.96875 2.972656-2.96875 7.789062 0 10.757812zm0 0"/><path d="m315.359375 159.710938-19.234375 19.230468c-2.96875 2.972656-2.96875 7.789063 0 10.757813 1.484375 1.488281 3.433594 2.230469 5.378906 2.230469 1.949219 0 3.894532-.742188 5.378906-2.230469l19.234376-19.230469c2.96875-2.972656 2.96875-7.789062 0-10.757812-2.972657-2.972657-7.789063-2.972657-10.757813 0zm0 0"/><path d="m467.300781 207.3125c-66.875-9.550781-122.421875 29.683594-124.753906 31.355469-3.414063 2.453125-4.191406 7.207031-1.742187 10.617187 1.488281 2.070313 3.820312 3.171875 6.1875 3.171875 1.535156 0 3.085937-.464843 4.429687-1.429687.523437-.375 52.839844-37.347656 113.726563-28.648438 4.160156.589844 8.015624-2.296875 8.609374-6.457031s-2.296874-8.015625-6.457031-8.609375zm0 0"/><path d="m260.390625 168.871094c1.34375.96875 2.894531 1.429687 4.433594 1.429687 2.363281 0 4.699219-1.097656 6.183593-3.167969 1.675782-2.332031 40.910157-57.875 31.355469-124.757812-.59375-4.15625-4.453125-7.050781-8.605469-6.453125-4.160156.59375-7.050781 4.445313-6.457031 8.605469 8.660157 60.601562-28.171875 113.054687-28.652343 113.730468-2.449219 3.414063-1.667969 8.164063 1.742187 10.613282zm0 0"/></svg>