<svg width="25" height="25" viewBox="0 0 25 25" fill="none" xmlns="http://www.w3.org/2000/svg">
<path d="M12.5 19.7917C13.4854 19.7917 14.3854 19.6844 15.2063 19.499L13.376 17.6688C13.0917 17.6906 12.8031 17.7083 12.5 17.7083C6.92605 17.7083 4.76667 13.7021 4.24376 12.5C4.63641 11.6238 5.16672 10.816 5.81459 10.1073L4.35834 8.65105C2.75626 10.3875 2.14897 12.1365 2.13751 12.1708C2.06565 12.3848 2.06565 12.6163 2.13751 12.8302C2.15938 12.899 4.54897 19.7917 12.5 19.7917ZM12.5 5.20834C10.5865 5.20834 9.01459 5.62084 7.70418 6.23022L3.86147 2.38855L2.38855 3.86147L21.1385 22.6115L22.6115 21.1385L19.1542 17.6813C21.8771 15.649 22.849 12.874 22.8635 12.8302C22.9354 12.6163 22.9354 12.3848 22.8635 12.1708C22.8406 12.101 20.451 5.20834 12.5 5.20834ZM17.6792 16.2063L15.3042 13.8313C15.5021 13.425 15.625 12.9781 15.625 12.5C15.625 10.7906 14.2094 9.37501 12.5 9.37501C12.0219 9.37501 11.575 9.49792 11.1698 9.69688L9.28647 7.81355C10.3203 7.45877 11.407 7.2823 12.5 7.29167C18.074 7.29167 20.2333 11.2979 20.7563 12.5C20.4417 13.2208 19.5417 14.9396 17.6792 16.2063Z" fill="#273951"/>
</svg>
