<svg width="25" height="25" viewBox="0 0 25 25" fill="none" xmlns="http://www.w3.org/2000/svg">
<path d="M22.6562 4.125H2.34377C1.05133 4.125 0 5.17633 0 6.46877V20.5313C0 21.8237 1.05133 22.875 2.34377 22.875H22.6562C23.9487 22.875 25 21.8237 25 20.5313V6.46877C25 5.17633 23.9487 4.125 22.6562 4.125ZM22.6562 5.68749C22.7624 5.68749 22.8634 5.70952 22.9557 5.74798L12.5 14.81L2.04427 5.74798C2.13659 5.70957 2.23757 5.68749 2.34371 5.68749H22.6562ZM22.6562 21.3125H2.34377C1.91271 21.3125 1.56249 20.9623 1.56249 20.5312V7.39877L11.9881 16.4343C12.1353 16.5616 12.3177 16.625 12.5 16.625C12.6823 16.625 12.8647 16.5617 13.0119 16.4343L23.4375 7.39877V20.5313C23.4375 20.9623 23.0873 21.3125 22.6562 21.3125Z" fill="#273951"/>
</svg>
