<svg width="25" height="25" viewBox="0 0 25 25" fill="none" xmlns="http://www.w3.org/2000/svg">
<g clip-path="url(#clip0)">
<path d="M7.16898 19.7905H17.8356C18.2159 19.7905 18.5398 19.5165 18.6054 19.1436L19.7825 12.3727C19.8315 12.0915 19.7242 11.8082 19.5023 11.63C19.2815 11.4509 18.9815 11.4092 18.7169 11.5155L15.5242 12.8196L13.1804 8.72483C12.9013 8.23837 12.1034 8.23837 11.8242 8.72483L9.48044 12.8196L6.28773 11.5155C6.02315 11.4092 5.72419 11.4509 5.50231 11.63C5.28148 11.8082 5.17419 12.0915 5.2221 12.3727L6.39919 19.1436C6.46481 19.5165 6.78981 19.7905 7.16898 19.7905ZM17.1784 18.228H7.82627L7.00335 13.4957L9.52315 14.5238C9.88669 14.6727 10.3023 14.528 10.4971 14.1894L12.5023 10.6863L14.5075 14.1894C14.7023 14.528 15.1169 14.6727 15.4815 14.5238L18.0013 13.4957L17.1784 18.228Z" fill="#273951"/>
<path d="M2.86458 23.96H22.1354C23.7156 23.96 25 22.6756 25 21.0954V3.90792C25 2.32771 23.7156 1.04333 22.1354 1.04333H2.86458C1.28438 1.04333 9.53674e-07 2.32771 9.53674e-07 3.90792V21.0954C9.53674e-07 22.6756 1.28438 23.96 2.86458 23.96ZM22.1354 2.60583C22.8531 2.60583 23.4375 3.19021 23.4375 3.90792V21.0954C23.4375 21.8131 22.8531 22.3975 22.1354 22.3975H2.86458C2.14688 22.3975 1.5625 21.8131 1.5625 21.0954V3.90792C1.5625 3.19021 2.14688 2.60583 2.86458 2.60583H22.1354Z" fill="#273951"/>
<path d="M0.781251 6.25H24.2188C24.65 6.25 25 5.9 25 5.46875C25 5.0375 24.65 4.6875 24.2188 4.6875H0.781251C0.350001 4.6875 9.53674e-07 5.0375 9.53674e-07 5.46875C9.53674e-07 5.9 0.350001 6.25 0.781251 6.25Z" fill="#273951"/>
</g>
<defs>
<clipPath id="clip0">
<rect width="25" height="25" fill="white" transform="matrix(-1 0 0 1 25 0)"/>
</clipPath>
</defs>
</svg>
