<svg width="25" height="25" viewBox="0 0 25 25" fill="none" xmlns="http://www.w3.org/2000/svg">
<g clip-path="url(#clip0)">
<path d="M16.0533 11.9267C16.0533 12.0579 16.0489 12.1869 16.0381 12.318C16.0337 12.3782 16.0272 12.4363 16.0207 12.4965C16.0185 12.5159 16.0098 12.5847 16.0163 12.5288C16.012 12.5632 16.0055 12.5976 16.0011 12.6298C15.9598 12.8792 15.9012 13.1243 15.8229 13.3651C15.786 13.4791 15.7425 13.5909 15.6991 13.7027C15.6969 13.707 15.6795 13.75 15.6926 13.7177C15.7078 13.6812 15.6839 13.7371 15.6795 13.7457C15.6687 13.7715 15.6556 13.7973 15.6448 13.8231C15.6187 13.879 15.5926 13.9349 15.5644 13.9908C15.4535 14.2058 15.3297 14.4122 15.1884 14.6079C15.1537 14.6573 15.1167 14.7068 15.0798 14.7562C15.1124 14.7132 15.0733 14.7648 15.0602 14.7799C15.0385 14.8057 15.0189 14.8315 14.9972 14.8573C14.919 14.9519 14.8364 15.0422 14.7495 15.1303C14.6669 15.2142 14.5822 15.2959 14.4931 15.3754C14.4475 15.4163 14.3997 15.4571 14.354 15.4958C14.3323 15.513 14.3106 15.5324 14.2888 15.5496C14.2736 15.5603 14.2063 15.6119 14.2541 15.5775C14.0607 15.7237 13.8564 15.8549 13.6457 15.971C13.537 16.0312 13.4262 16.0871 13.3132 16.1387C13.2871 16.1516 13.261 16.1624 13.235 16.1731C13.2219 16.1796 13.2089 16.1839 13.1959 16.1903C13.2002 16.1882 13.2415 16.171 13.2067 16.186C13.1437 16.2118 13.0807 16.2355 13.0177 16.2591C12.783 16.343 12.544 16.4096 12.3006 16.4591C12.2419 16.4698 12.1833 16.4806 12.1246 16.4913C12.0898 16.4978 12.0551 16.5021 12.0225 16.5064C11.9834 16.5128 12.029 16.5064 12.0355 16.5042C12.016 16.5064 11.9964 16.5085 11.9768 16.5107C11.8508 16.5257 11.727 16.5343 11.6009 16.5386C11.338 16.5494 11.0751 16.5386 10.8122 16.5085C10.7969 16.5064 10.7817 16.5042 10.7665 16.5021C10.7709 16.5021 10.8187 16.5085 10.7796 16.5042C10.7491 16.4999 10.7209 16.4956 10.6905 16.4913C10.6275 16.4806 10.5644 16.4698 10.5014 16.4569C10.3776 16.4311 10.2515 16.4032 10.1299 16.3688C10.0082 16.3344 9.88866 16.2957 9.76915 16.2527C9.71483 16.2333 9.6605 16.2118 9.60618 16.1903C9.54751 16.1667 9.63443 16.2032 9.57793 16.1774C9.54751 16.1645 9.51709 16.1494 9.48667 16.1365C9.26068 16.0333 9.04339 15.9151 8.83479 15.7796C8.73484 15.7151 8.63923 15.6463 8.54362 15.5754C8.5936 15.6141 8.52189 15.5582 8.50885 15.5474C8.48712 15.5302 8.46539 15.5109 8.44366 15.4937C8.39586 15.455 8.35023 15.4141 8.3046 15.3733C8.12207 15.2099 7.95041 15.0336 7.79178 14.8465C7.7744 14.825 7.75484 14.8035 7.73746 14.782C7.72442 14.767 7.68531 14.7154 7.7179 14.7584C7.68096 14.7089 7.64403 14.6595 7.60926 14.61C7.53755 14.509 7.47019 14.4079 7.40718 14.3025C7.34416 14.1972 7.28332 14.0897 7.22682 13.98C7.20075 13.9284 7.17685 13.8768 7.15294 13.8252C7.13991 13.7994 7.12904 13.7736 7.11818 13.7478C7.11166 13.7349 7.10731 13.722 7.10079 13.7091C7.11383 13.7392 7.11166 13.7328 7.10079 13.707C7.00736 13.4748 6.92913 13.2383 6.87046 12.9932C6.84221 12.8749 6.81831 12.7545 6.79876 12.6341C6.79441 12.604 6.79006 12.5761 6.78572 12.546C6.7792 12.5073 6.78572 12.5524 6.78789 12.5589C6.78572 12.5395 6.78354 12.5201 6.78137 12.5008C6.77485 12.4363 6.76833 12.3718 6.76182 12.3073C6.74226 12.0514 6.74226 11.7956 6.76399 11.5397C6.76833 11.4752 6.77485 11.4107 6.78354 11.3484C6.78572 11.3333 6.78789 11.3183 6.79006 11.3032C6.79006 11.3075 6.78354 11.3548 6.78789 11.3161C6.79224 11.2817 6.79876 11.2473 6.8031 11.2151C6.82483 11.0904 6.84873 10.9657 6.87915 10.8431C6.93782 10.6044 7.01605 10.3722 7.10948 10.1443C7.12252 10.1099 7.10731 10.1508 7.10514 10.1551C7.11166 10.1422 7.116 10.1293 7.12252 10.1164C7.13339 10.0906 7.14642 10.0648 7.15729 10.039C7.18554 9.97878 7.21378 9.91858 7.24421 9.86053C7.29853 9.75517 7.3572 9.65197 7.41804 9.55092C7.48106 9.44557 7.55059 9.34451 7.6223 9.24346C7.65489 9.19831 7.68966 9.15101 7.72442 9.10801C7.69183 9.15101 7.73094 9.09941 7.74398 9.08436C7.76788 9.05426 7.79178 9.0263 7.81569 8.9962C7.96996 8.81345 8.13945 8.64144 8.31981 8.48019C8.36326 8.44364 8.40455 8.40494 8.45018 8.37054C8.47191 8.35334 8.49364 8.33399 8.51537 8.31679C8.52623 8.30818 8.5371 8.29958 8.54796 8.29098C8.61967 8.23508 8.51972 8.31248 8.561 8.28023C8.65661 8.20928 8.75222 8.14048 8.85217 8.07813C9.06078 7.94482 9.27807 7.82442 9.50405 7.72337C9.53013 7.71047 9.5562 7.69972 9.58228 7.68897C9.63877 7.66317 9.55186 7.69972 9.61053 7.67607C9.6692 7.65242 9.72786 7.63092 9.78653 7.60942C9.90604 7.56641 10.0256 7.52771 10.1472 7.49546C10.2689 7.46106 10.395 7.43311 10.5188 7.40731C10.5775 7.39656 10.6361 7.38581 10.6948 7.37721C10.7252 7.37291 10.7535 7.36861 10.7839 7.36431C10.823 7.35786 10.7774 7.36431 10.7709 7.36646C10.7904 7.36431 10.81 7.36216 10.8295 7.36001C11.0903 7.32991 11.3554 7.32131 11.6183 7.33206C11.7443 7.33636 11.8704 7.34711 11.9942 7.36216C12.0094 7.36431 12.0247 7.36646 12.0399 7.36861C12.0355 7.36861 11.9877 7.36216 12.0268 7.36646C12.0616 7.37076 12.0964 7.37721 12.129 7.38151C12.192 7.39226 12.255 7.40301 12.318 7.41591C12.5614 7.46536 12.8026 7.53201 13.0351 7.61802C13.0937 7.63952 13.1524 7.66317 13.2111 7.68467C13.2458 7.69757 13.2046 7.68252 13.2002 7.68037C13.2132 7.68682 13.2263 7.69112 13.2393 7.69757C13.2697 7.71047 13.3002 7.72552 13.3306 7.73842C13.4436 7.79002 13.5544 7.84592 13.663 7.90612C13.7673 7.96418 13.8695 8.02438 13.9694 8.08888C14.0216 8.12328 14.0716 8.15768 14.1237 8.19208C14.1476 8.20928 14.1693 8.22433 14.1932 8.24153C14.2041 8.25013 14.2171 8.25873 14.228 8.26733C14.2323 8.27163 14.2802 8.30603 14.2519 8.28453C14.228 8.26733 14.2867 8.31249 14.2975 8.32109C14.3193 8.33829 14.341 8.35764 14.3627 8.37484C14.4127 8.41784 14.4649 8.46084 14.5127 8.50384C14.5996 8.58339 14.6865 8.66509 14.7669 8.74895C14.8516 8.8371 14.9342 8.9274 15.0124 9.022C15.0298 9.0435 15.0494 9.06501 15.0668 9.08651C15.0798 9.10156 15.1189 9.15316 15.0863 9.11016C15.1276 9.16176 15.1667 9.21551 15.2036 9.26926C15.3427 9.46707 15.4687 9.67347 15.5774 9.88848C15.6035 9.94008 15.6274 9.99168 15.6513 10.0433C15.6643 10.0734 15.6795 10.1035 15.6926 10.1336C15.6947 10.1379 15.7121 10.1809 15.6991 10.1486C15.686 10.1164 15.7078 10.1701 15.7099 10.1766C15.7556 10.2884 15.7969 10.4002 15.8338 10.5141C15.912 10.755 15.9707 11.0001 16.0098 11.2495C16.0142 11.2796 16.0185 11.3075 16.0228 11.3376C16.0142 11.2817 16.0228 11.3484 16.0272 11.3699C16.0337 11.4279 16.0402 11.4881 16.0446 11.5483C16.0489 11.6666 16.0533 11.7977 16.0533 11.9267C16.0533 12.0944 16.2032 12.2578 16.3792 12.2492C16.5552 12.2406 16.7051 12.1073 16.7051 11.9267C16.7008 10.8496 16.3683 9.77668 15.7338 8.89945C15.1015 8.02438 14.2215 7.35571 13.2002 6.9859C12.1681 6.61179 11.0077 6.57524 9.95168 6.8698C8.9304 7.15575 7.99169 7.75347 7.31591 8.56619C6.61188 9.41117 6.18816 10.4432 6.10124 11.5354C6.0165 12.6105 6.2816 13.7113 6.84439 14.6337C7.39197 15.5302 8.21333 16.2656 9.17811 16.6977C10.2081 17.16 11.3576 17.2911 12.4679 17.0697C13.5131 16.8611 14.4931 16.3215 15.2297 15.5582C15.9663 14.7971 16.4726 13.8123 16.6356 12.7696C16.6791 12.49 16.7051 12.2084 16.7051 11.9246C16.7051 11.7569 16.5552 11.5935 16.3792 11.6021C16.2032 11.6128 16.0554 11.7461 16.0533 11.9267Z" fill="#273951"/>
<path d="M16.0509 11.9248C16.0509 11.9506 16.0487 11.9786 16.0465 12.0044C16.0444 12.0538 16.0487 11.9678 16.0531 11.9657C16.0465 11.9721 16.0487 11.9958 16.0465 12.0044C16.04 12.028 16.0357 12.0517 16.0292 12.0732C16.0248 12.0861 16.0205 12.099 16.0161 12.1119C15.9922 12.185 16.0096 12.1011 16.0226 12.1033C16.0205 12.1033 15.9575 12.2258 15.9509 12.2387C15.9357 12.2645 15.9162 12.2882 15.901 12.3118C15.8857 12.3355 15.8944 12.3441 15.9183 12.2903C15.9118 12.3032 15.8923 12.3226 15.8836 12.3333C15.8423 12.3806 15.7988 12.4236 15.7554 12.4666C15.7336 12.4881 15.7097 12.5075 15.6858 12.529C15.6728 12.5397 15.6576 12.5505 15.6445 12.5634C15.5881 12.6107 15.6663 12.5505 15.6424 12.5655C15.5163 12.6515 15.3903 12.7375 15.2556 12.8106C15.1882 12.8472 15.1187 12.8816 15.047 12.916C15.0057 12.9353 14.9644 12.9525 14.9231 12.9719C14.9058 12.9783 14.8884 12.9869 14.8732 12.9934C14.9383 12.9654 14.8623 12.9977 14.8471 13.0041C14.6624 13.0772 14.4733 13.1417 14.2843 13.1976C13.8693 13.3202 13.4412 13.4062 13.0131 13.4686C12.8328 13.4944 12.5655 13.5223 12.3417 13.5395C12.0875 13.5589 11.8332 13.5696 11.579 13.5739C11.0792 13.5804 10.5773 13.5589 10.0797 13.5051C9.67768 13.4621 9.21919 13.3826 8.78895 13.2729C8.59339 13.2234 8.39782 13.1654 8.2066 13.0987C8.11969 13.0686 8.03277 13.0364 7.94803 13.002C7.93064 12.9955 7.91326 12.9869 7.89588 12.9805C7.95672 13.0063 7.90022 12.9826 7.88501 12.9762C7.83938 12.9568 7.79375 12.9353 7.75029 12.916C7.60688 12.8493 7.46564 12.7741 7.33309 12.6881C7.27007 12.6472 7.20706 12.6042 7.14621 12.5591C7.20271 12.5999 7.15491 12.5634 7.12883 12.5419C7.09624 12.5161 7.06582 12.4881 7.03539 12.4602C6.99194 12.4193 6.95282 12.3785 6.91371 12.3333C6.90285 12.3226 6.89415 12.3097 6.88329 12.2968C6.85504 12.2645 6.92892 12.3656 6.89415 12.3118C6.87894 12.286 6.85939 12.2645 6.84418 12.2387C6.82897 12.2151 6.81376 12.1893 6.80072 12.1635C6.79203 12.1484 6.75943 12.071 6.78116 12.1269C6.80506 12.185 6.77464 12.1033 6.76812 12.0882C6.75943 12.0603 6.75291 12.0323 6.74639 12.0022C6.72467 11.9141 6.74639 12.0474 6.74422 12.0022C6.74422 11.9764 6.73988 11.9506 6.73988 11.9227C6.73988 11.899 6.74205 11.8754 6.74205 11.8517C6.74422 11.8023 6.76161 11.8539 6.7377 11.8818C6.74205 11.8754 6.74422 11.8431 6.74639 11.8345C6.75074 11.8173 6.7942 11.7034 6.78985 11.6969C6.80072 11.7098 6.75074 11.7743 6.78333 11.7141C6.78768 11.7034 6.7942 11.6948 6.79854 11.684C6.81376 11.6561 6.82897 11.6281 6.84635 11.6023C6.86156 11.5808 6.87677 11.5593 6.89198 11.5356C6.92023 11.4905 6.8746 11.555 6.8746 11.5571C6.88112 11.5421 6.90067 11.527 6.90936 11.5141C6.95282 11.4647 6.99845 11.4174 7.04626 11.3744C7.06799 11.3529 7.09189 11.3335 7.11579 11.312C7.13318 11.2991 7.21575 11.2346 7.14187 11.2884C7.20271 11.2432 7.26355 11.2002 7.32874 11.1594C7.46998 11.0691 7.61774 10.9917 7.76985 10.9207C7.80244 10.9057 7.83503 10.8906 7.86763 10.8756C7.87632 10.8713 7.96106 10.8369 7.89153 10.8648C7.90891 10.8584 7.9263 10.8498 7.94368 10.8433C8.03277 10.8068 8.12403 10.7745 8.2153 10.7423C8.61512 10.6047 9.02797 10.5058 9.44518 10.4327C10.3665 10.2693 11.3813 10.2349 12.3547 10.3101C12.8219 10.3467 13.213 10.3983 13.6802 10.4993C14.0757 10.5832 14.4668 10.695 14.8427 10.8433C14.8406 10.8433 14.9275 10.8777 14.8819 10.8584C14.8362 10.839 14.921 10.8756 14.9188 10.8756C14.9557 10.8928 14.9927 10.9078 15.0296 10.925C15.1122 10.9637 15.1926 11.0046 15.2708 11.0476C15.4012 11.1185 15.525 11.2002 15.6445 11.2862C15.5685 11.2303 15.6619 11.3013 15.6793 11.3163C15.701 11.3335 15.7206 11.3529 15.7402 11.3701C15.7901 11.4174 15.8379 11.4647 15.8836 11.5163C15.8857 11.5206 15.914 11.5507 15.914 11.5528C15.9118 11.555 15.8662 11.484 15.8966 11.5313C15.914 11.555 15.9314 11.5786 15.9466 11.6044C15.9596 11.626 15.9727 11.6496 15.9857 11.6711C15.9922 11.684 15.9987 11.6969 16.0053 11.7077C16.0357 11.7636 15.9879 11.7034 15.9987 11.6905C15.9944 11.6948 16.04 11.8152 16.0422 11.8281C16.0444 11.841 16.0465 11.8539 16.0487 11.8668C16.0618 11.9055 16.0422 11.7765 16.0444 11.8367C16.0487 11.8732 16.0509 11.899 16.0509 11.9248C16.0531 12.0925 16.1986 12.2559 16.3768 12.2473C16.5528 12.2387 16.7049 12.1054 16.7028 11.9248C16.6962 11.2841 16.1682 10.8154 15.6445 10.5208C14.9014 10.1016 14.0388 9.8887 13.1978 9.76615C12.1396 9.61349 11.0618 9.58984 9.99927 9.7124C9.08881 9.81775 8.16966 10.0091 7.34178 10.4133C6.82245 10.6692 6.21837 11.0884 6.10755 11.6969C5.98804 12.3398 6.41394 12.8493 6.91806 13.1933C7.59384 13.6513 8.43694 13.8835 9.2344 14.0276C10.2774 14.2168 11.3508 14.2619 12.4091 14.1759C13.3521 14.0985 14.2973 13.9265 15.1709 13.5589C15.7597 13.3116 16.3986 12.9332 16.6332 12.3075C16.6789 12.1871 16.7006 12.0538 16.7006 11.9248C16.7028 11.7571 16.5485 11.5937 16.3747 11.6023C16.1986 11.6109 16.0531 11.7442 16.0509 11.9248Z" fill="#273951"/>
<path d="M11.3973 7.31911C11.4234 7.31911 11.4516 7.32126 11.4777 7.32341C11.5277 7.32556 11.4408 7.32126 11.4386 7.31696C11.4451 7.32341 11.469 7.32126 11.4777 7.32341C11.5016 7.32986 11.5255 7.33416 11.5472 7.34061C11.5603 7.34491 11.5733 7.34921 11.5863 7.35351C11.6602 7.37717 11.5755 7.35996 11.5776 7.34706C11.5776 7.34921 11.7015 7.41157 11.7145 7.41802C11.7406 7.43307 11.7645 7.45242 11.7884 7.46747C11.8123 7.48252 11.821 7.47392 11.7667 7.45027C11.7797 7.45672 11.7993 7.47607 11.8101 7.48467C11.858 7.52552 11.9014 7.56852 11.9449 7.61152C11.9666 7.63302 11.9862 7.65667 12.0079 7.68032C12.0188 7.69322 12.0296 7.70827 12.0427 7.72117C12.0905 7.77708 12.0296 7.69967 12.0448 7.72332C12.1317 7.84803 12.2187 7.97273 12.2925 8.10604C12.3295 8.17269 12.3642 8.24149 12.399 8.31244C12.4186 8.35329 12.436 8.39414 12.4555 8.43499C12.462 8.4522 12.4707 8.4694 12.4772 8.48445C12.449 8.41994 12.4816 8.4952 12.4881 8.51025C12.562 8.693 12.6272 8.88006 12.6837 9.06711C12.8075 9.47777 12.8944 9.90134 12.9575 10.3249C12.9835 10.5034 13.0118 10.7678 13.0292 10.9893C13.0487 11.2408 13.0596 11.4924 13.0639 11.7439C13.0704 12.2385 13.0487 12.7351 12.9944 13.2275C12.9509 13.6252 12.8705 14.0789 12.7597 14.5046C12.7097 14.6981 12.6511 14.8916 12.5837 15.0808C12.5533 15.1668 12.5207 15.2528 12.4859 15.3367C12.4794 15.3539 12.4707 15.3711 12.4642 15.3883C12.4903 15.3281 12.4664 15.384 12.4599 15.399C12.4403 15.4442 12.4186 15.4893 12.399 15.5323C12.3317 15.6742 12.2556 15.814 12.1687 15.9452C12.1274 16.0075 12.0839 16.0699 12.0383 16.1301C12.0796 16.0742 12.0427 16.1215 12.0209 16.1473C11.9948 16.1795 11.9666 16.2096 11.9384 16.2397C11.8971 16.2827 11.8558 16.3214 11.8101 16.3601C11.7993 16.3709 11.7862 16.3795 11.7732 16.3902C11.7406 16.4182 11.8427 16.3451 11.7884 16.3795C11.7623 16.3945 11.7406 16.4139 11.7145 16.4289C11.6906 16.444 11.6646 16.459 11.6385 16.4719C11.6233 16.4805 11.5451 16.5128 11.6015 16.4913C11.6602 16.4676 11.5776 16.4977 11.5624 16.5042C11.5342 16.5128 11.5059 16.5192 11.4755 16.5257C11.3864 16.5472 11.5211 16.5257 11.4755 16.5278C11.4494 16.5278 11.4234 16.5321 11.3951 16.5321C11.3712 16.5321 11.3473 16.53 11.3234 16.53C11.2734 16.5278 11.3256 16.5106 11.3538 16.5343C11.3473 16.53 11.3147 16.5278 11.306 16.5257C11.2886 16.5214 11.1735 16.4784 11.167 16.4827C11.18 16.4719 11.2452 16.5214 11.1843 16.4891C11.1735 16.4848 11.1648 16.4784 11.1539 16.4741C11.1257 16.459 11.0974 16.444 11.0714 16.4268C11.0496 16.4117 11.0279 16.3967 11.004 16.3816C10.9584 16.3537 11.0235 16.3988 11.0257 16.3988C11.0105 16.3924 10.9953 16.373 10.9823 16.3644C10.9323 16.3214 10.8845 16.2763 10.841 16.229C10.8193 16.2075 10.7997 16.1838 10.778 16.1602C10.765 16.143 10.6998 16.0613 10.7541 16.1344C10.7085 16.0742 10.665 16.014 10.6237 15.9495C10.5325 15.8097 10.4542 15.6635 10.3825 15.513C10.3673 15.4807 10.3521 15.4485 10.3369 15.4162C10.3326 15.4076 10.2978 15.3238 10.326 15.3926C10.3195 15.3754 10.3108 15.3582 10.3043 15.341C10.2674 15.2528 10.2348 15.1625 10.2022 15.0722C10.0631 14.6766 9.96316 14.2681 9.88928 13.8553C9.72414 12.9437 9.68937 11.9396 9.76542 10.9764C9.80236 10.5141 9.85451 10.1271 9.95664 9.66483C10.0414 9.27352 10.1544 8.88651 10.3043 8.51455C10.3043 8.5167 10.3391 8.43069 10.3195 8.47585C10.3 8.521 10.3369 8.43715 10.3369 8.4393C10.3543 8.40274 10.3695 8.36619 10.3869 8.32964C10.426 8.24794 10.4673 8.16839 10.5107 8.09098C10.5824 7.96198 10.665 7.83943 10.7519 7.72117C10.6954 7.79643 10.7671 7.70397 10.7824 7.68677C10.7997 7.66527 10.8193 7.64592 10.8367 7.62657C10.8845 7.57712 10.9323 7.52982 10.9844 7.48467C10.9888 7.48252 11.0192 7.45457 11.0214 7.45457C11.0235 7.45672 10.9518 7.50187 10.9996 7.47177C11.0235 7.45457 11.0475 7.43737 11.0735 7.42232C11.0953 7.40942 11.1192 7.39652 11.1409 7.38362C11.1539 7.37716 11.167 7.37071 11.1778 7.36426C11.2343 7.33416 11.1735 7.38146 11.1604 7.37071C11.1648 7.37501 11.2865 7.32986 11.2995 7.32771C11.3125 7.32556 11.3256 7.32341 11.3386 7.32126C11.3777 7.30836 11.2474 7.32771 11.3082 7.32556C11.343 7.32341 11.3712 7.31911 11.3973 7.31911C11.5668 7.31696 11.7319 7.17291 11.7232 6.9966C11.7145 6.82245 11.5798 6.67194 11.3973 6.6741C10.7498 6.68055 10.2761 7.20301 9.97837 7.72117C9.55465 8.4565 9.33953 9.31007 9.21567 10.1421C9.06139 11.1892 9.03749 12.2557 9.16135 13.307C9.26782 14.2079 9.46121 15.1174 9.86972 15.9366C10.1283 16.4504 10.552 17.0481 11.167 17.1578C11.8167 17.276 12.3317 16.8546 12.6793 16.3558C13.1422 15.6872 13.3768 14.8529 13.5224 14.0639C13.7136 13.0318 13.7593 11.9697 13.6724 10.9226C13.5941 9.98949 13.4203 9.05421 13.0487 8.18989C12.7988 7.60722 12.4164 6.9751 11.7841 6.7429C11.6624 6.69775 11.5277 6.67625 11.3973 6.67625C11.2278 6.6741 11.0627 6.82675 11.0714 6.99875C11.08 7.17291 11.2148 7.31696 11.3973 7.31911Z" fill="#273951"/>
<path d="M18.8046 4.37501C18.8046 4.50402 18.8046 4.63517 18.8046 4.76418C18.8046 5.12109 18.8046 5.478 18.8046 5.83491C18.8046 6.36167 18.8046 6.88843 18.8046 7.4152C18.8046 8.06022 18.8046 8.70309 18.8046 9.3481C18.8046 10.0598 18.8046 10.7714 18.8046 11.4831C18.8046 12.2012 18.8046 12.9215 18.8046 13.6396C18.8046 14.3147 18.8046 14.992 18.8046 15.6671C18.8046 16.2498 18.8046 16.8325 18.8046 17.4151C18.8046 17.8451 18.8046 18.2752 18.8046 18.703C18.8046 18.9288 18.8046 19.1567 18.8046 19.3824C18.8046 19.4018 18.8046 19.419 18.8046 19.4383C18.8046 19.4405 18.8046 19.4448 18.8046 19.4469C18.8046 19.4813 18.8024 19.5157 18.8003 19.5523C18.7959 19.591 18.8003 19.5437 18.8024 19.5394C18.8003 19.5544 18.7981 19.5673 18.7938 19.5824C18.7872 19.6146 18.7785 19.6469 18.7677 19.6791C18.7612 19.6985 18.7373 19.7608 18.759 19.7092C18.7481 19.735 18.7351 19.7608 18.722 19.7845C18.7068 19.8124 18.6895 19.8404 18.6699 19.8683C18.6634 19.8812 18.6547 19.892 18.646 19.9027C18.6634 19.8769 18.6634 19.8834 18.6438 19.9027C18.6047 19.9436 18.5656 19.9823 18.5243 20.021C18.4809 20.0597 18.5504 20.0081 18.5004 20.0382C18.4722 20.0554 18.4439 20.0748 18.4157 20.0898C18.3918 20.1027 18.3657 20.1156 18.3396 20.1285C18.3048 20.1436 18.3461 20.1242 18.3505 20.1242C18.3374 20.1285 18.3244 20.135 18.3092 20.1393C18.2809 20.1479 18.2527 20.1565 18.2244 20.1629C18.2049 20.1672 18.118 20.1801 18.181 20.1737C18.1397 20.178 18.0984 20.1801 18.0571 20.1801C17.8833 20.1823 17.7095 20.1801 17.5356 20.1801C17.1184 20.1801 16.699 20.1801 16.2818 20.1801C15.6908 20.1801 15.0976 20.1801 14.5066 20.1801C13.8069 20.1801 13.1094 20.1801 12.4097 20.1801C11.6817 20.1801 10.9538 20.1801 10.2259 20.1801C9.53489 20.1801 8.8439 20.1801 8.15291 20.1801C7.56839 20.1801 6.9817 20.1801 6.39718 20.1801C5.99301 20.1801 5.59102 20.1801 5.18685 20.1801C5.03258 20.1801 4.8783 20.1823 4.72402 20.1801C4.71533 20.1801 4.70229 20.1801 4.6936 20.1801C4.67404 20.1801 4.65449 20.178 4.63276 20.1758C4.62841 20.1758 4.57843 20.1694 4.61755 20.1737C4.65014 20.178 4.57191 20.1629 4.55888 20.1608C4.52628 20.1522 4.49369 20.1414 4.4611 20.1328C4.40243 20.1178 4.485 20.15 4.43285 20.1221C4.40677 20.1092 4.3807 20.0963 4.35679 20.0834C4.33289 20.0683 4.30899 20.0532 4.28509 20.0382C4.28074 20.036 4.2438 20.0081 4.27205 20.0296C4.3003 20.0511 4.25467 20.0145 4.25032 20.0102C4.20904 19.9715 4.16992 19.9328 4.13298 19.8898C4.10908 19.8619 4.13733 19.8963 4.1395 19.9006C4.13081 19.8898 4.12212 19.8769 4.1156 19.8662C4.09822 19.8382 4.08083 19.8103 4.06345 19.7823C4.05041 19.7565 4.03737 19.7329 4.02651 19.7071C4.04824 19.7587 4.02434 19.6963 4.01782 19.677C4.00913 19.649 4.00043 19.6211 3.99609 19.5931C3.99174 19.5738 3.9874 19.5544 3.98522 19.5351C3.99174 19.5673 3.9874 19.563 3.98522 19.5329C3.98088 19.4727 3.98088 19.4147 3.98088 19.3545C3.98088 19.1115 3.98088 18.8707 3.98088 18.6278C3.98088 18.187 3.98088 17.7441 3.98088 17.3033C3.98088 16.7121 3.98088 16.1229 3.98088 15.5317C3.98088 14.8523 3.98088 14.1707 3.98088 13.4913C3.98088 12.771 3.98088 12.0507 3.98088 11.3326C3.98088 10.6231 3.98088 9.91357 3.98088 9.2062C3.98088 8.56763 3.98088 7.92906 3.98088 7.29265C3.98088 6.77448 3.98088 6.25847 3.98088 5.7403C3.98088 5.39629 3.98088 5.05013 3.98088 4.70612C3.98088 4.61797 3.98088 4.52767 3.98088 4.43952C3.98088 4.41802 3.98088 4.39651 3.98088 4.37716C3.98088 4.30406 3.98305 4.28041 3.99609 4.22021C4.00478 4.18581 4.01564 4.15356 4.02434 4.11916C4.02434 4.12131 4.04389 4.06756 4.03303 4.09336C4.02216 4.11916 4.04607 4.06756 4.04389 4.06971C4.0591 4.03961 4.07649 4.0095 4.09387 3.98155C4.10256 3.9665 4.11343 3.9536 4.12212 3.93855C4.15254 3.89125 4.0917 3.97295 4.12864 3.92995C4.1721 3.87835 4.2199 3.8289 4.27422 3.7859C4.30464 3.76225 4.28291 3.7816 4.2764 3.7859C4.28943 3.77515 4.30464 3.76655 4.31985 3.75795C4.35462 3.73645 4.38939 3.7171 4.42633 3.6999C4.38939 3.7171 4.49152 3.67625 4.50455 3.67195C4.54367 3.66119 4.58278 3.65044 4.62189 3.64399C4.64145 3.64184 4.69143 3.63969 4.73706 3.63969C4.73923 3.63969 4.74358 3.63969 4.74575 3.63969C4.80659 3.63969 4.86526 3.63969 4.9261 3.63969C5.24552 3.63969 5.56712 3.63969 5.88654 3.63969C6.41022 3.63969 6.93606 3.63969 7.45974 3.63969C8.11814 3.63969 8.77654 3.63969 9.43494 3.63969C10.1607 3.63969 10.8865 3.63969 11.6144 3.63969C12.3293 3.63969 13.0464 3.63969 13.7612 3.63969C14.4001 3.63969 15.0368 3.63969 15.6756 3.63969C16.1667 3.63969 16.6556 3.63969 17.1467 3.63969C17.4183 3.63969 17.6921 3.63969 17.9637 3.63969C18.0245 3.63969 18.0876 3.63969 18.1484 3.64399C18.2114 3.64829 18.118 3.63539 18.1788 3.64829C18.2071 3.65474 18.2353 3.66119 18.2636 3.66764C18.2918 3.67624 18.3179 3.68485 18.3461 3.6956C18.294 3.6784 18.3548 3.6999 18.3722 3.7085C18.4222 3.7343 18.4722 3.7644 18.5178 3.79665C18.4743 3.7644 18.5243 3.8031 18.5395 3.816C18.5613 3.83535 18.5808 3.8547 18.6004 3.87405C18.6112 3.8848 18.6656 3.9493 18.6482 3.9278C18.6308 3.90415 18.6721 3.96435 18.6786 3.9751C18.6938 3.99875 18.7068 4.0224 18.722 4.04821C18.7286 4.06111 18.759 4.12776 18.7481 4.09981C18.7373 4.07186 18.7612 4.14281 18.7655 4.15571C18.7742 4.18366 18.7807 4.21161 18.7872 4.23956C18.7894 4.25461 18.7938 4.26751 18.7959 4.28256C18.7959 4.27826 18.7916 4.23096 18.7938 4.26966C18.8024 4.30621 18.8046 4.34061 18.8046 4.37501C18.8068 4.54272 18.9524 4.70612 19.1306 4.69752C19.3044 4.68892 19.4587 4.55562 19.4565 4.37501C19.4478 3.77945 19.0675 3.25913 18.4982 3.06563C18.3374 3.00973 18.1658 2.99683 17.9941 2.99683C17.7377 2.99683 17.4813 2.99683 17.2249 2.99683C16.7382 2.99683 16.2514 2.99683 15.7647 2.99683C15.1215 2.99683 14.4783 2.99683 13.8373 2.99683C13.1159 2.99683 12.3945 2.99683 11.6731 2.99683C10.9386 2.99683 10.2063 2.99683 9.47188 2.99683C8.80261 2.99683 8.13335 2.99683 7.46409 2.99683C6.93606 2.99683 6.40587 2.99683 5.87785 2.99683C5.55843 2.99683 5.239 2.99683 4.91741 2.99683C4.86091 2.99683 4.80225 2.99683 4.74575 2.99683C4.20904 3.00113 3.68753 3.29783 3.46589 3.7945C3.33552 4.08476 3.33334 4.35781 3.33334 4.66097C3.33334 4.99423 3.33334 5.32749 3.33334 5.6629C3.33334 6.17891 3.33334 6.69493 3.33334 7.21309C3.33334 7.85381 3.33334 8.49238 3.33334 9.1331C3.33334 9.84692 3.33334 10.5629 3.33334 11.2767C3.33334 12.0077 3.33334 12.7387 3.33334 13.4676C3.33334 14.1556 3.33334 14.8437 3.33334 15.5317C3.33334 16.1272 3.33334 16.725 3.33334 17.3205C3.33334 17.7656 3.33334 18.2128 3.33334 18.6579C3.33334 18.8965 3.33334 19.1352 3.33334 19.3738C3.33334 19.4878 3.33986 19.5996 3.35942 19.7157C3.45503 20.264 3.93525 20.7284 4.48934 20.8101C4.70229 20.8423 4.91958 20.8316 5.1347 20.8316C5.528 20.8316 5.92348 20.8316 6.31678 20.8316C6.9013 20.8316 7.48364 20.8316 8.06816 20.8316C8.76567 20.8316 9.46318 20.8316 10.1629 20.8316C10.8973 20.8316 11.6339 20.8316 12.3684 20.8316C13.0746 20.8316 13.7808 20.8316 14.4892 20.8316C15.0889 20.8316 15.6908 20.8316 16.2905 20.8316C16.7099 20.8316 17.1315 20.8316 17.5508 20.8316C17.7203 20.8316 17.8898 20.8337 18.0615 20.8316C18.5721 20.8251 19.0654 20.5456 19.2979 20.0898C19.4065 19.8769 19.4565 19.6469 19.4565 19.4082C19.4565 19.1975 19.4565 18.9847 19.4565 18.774C19.4565 18.3483 19.4565 17.9247 19.4565 17.499C19.4565 16.9163 19.4565 16.3358 19.4565 15.7531C19.4565 15.0737 19.4565 14.3921 19.4565 13.7127C19.4565 12.9839 19.4565 12.255 19.4565 11.5261C19.4565 10.8058 19.4565 10.0877 19.4565 9.36745C19.4565 8.71598 19.4565 8.06667 19.4565 7.4152C19.4565 6.88198 19.4565 6.34877 19.4565 5.81555C19.4565 5.45864 19.4565 5.10388 19.4565 4.74697C19.4565 4.62227 19.4565 4.49972 19.4565 4.37501C19.4565 4.20731 19.3066 4.04391 19.1306 4.05251C18.9546 4.06111 18.8046 4.19441 18.8046 4.37501Z" fill="#273951"/>
<path d="M16.7161 0.849596C16.7161 1.57202 16.7161 2.29444 16.7161 3.01686C16.7161 3.11791 16.7161 3.22111 16.7161 3.32216C16.8247 3.21466 16.9334 3.10716 17.042 2.99966C16.6292 2.99966 16.2163 2.99966 15.8034 2.99966C14.8148 2.99966 13.8239 2.99966 12.8352 2.99966C11.6488 2.99966 10.4645 2.99966 9.27813 2.99966C8.2525 2.99966 7.22905 2.99966 6.20343 2.99966C5.71886 2.99966 5.23647 2.99536 4.75191 2.99966C4.69541 2.99966 4.64109 3.00396 4.58459 3.01041C4.61284 3.22111 4.64326 3.43182 4.67151 3.64467C5.08437 3.54362 5.49505 3.43612 5.90791 3.33077C6.89225 3.08136 7.87441 2.8298 8.85875 2.58039C10.03 2.28154 11.2033 1.98483 12.3746 1.68597C13.3502 1.43871 14.3259 1.18931 15.3015 0.942049C15.5905 0.868947 15.8773 0.795845 16.1663 0.722743C16.2424 0.703392 16.3206 0.684042 16.3967 0.664691C16.414 0.660391 16.4314 0.656091 16.4488 0.651791C16.4532 0.651791 16.4553 0.649641 16.4597 0.649641C16.4597 0.649641 16.4597 0.649641 16.4618 0.649641C16.5444 0.62599 16.4097 0.643191 16.4944 0.645341C16.5118 0.645341 16.5879 0.660391 16.5227 0.643191C16.5509 0.649641 16.577 0.656091 16.6053 0.664691C16.5879 0.658241 16.5575 0.63674 16.6031 0.666841C16.6118 0.673291 16.6813 0.727043 16.6292 0.679742C16.6422 0.692642 16.6552 0.705542 16.6704 0.718443C16.7248 0.767894 16.6552 0.675442 16.6878 0.742093C16.6965 0.759294 16.7074 0.774344 16.7139 0.791545C16.6835 0.727043 16.7161 0.813045 16.7182 0.821646C16.74 0.901198 16.7139 0.759294 16.7161 0.849596C16.7204 1.0173 16.8617 1.18071 17.042 1.17211C17.2137 1.1635 17.3723 1.0302 17.368 0.849596C17.3527 0.288431 16.8356 -0.10288 16.2837 0.0239734C16.2511 0.0325736 16.2163 0.0411739 16.1837 0.0497741C15.9577 0.107826 15.7296 0.165877 15.5036 0.223929C14.5931 0.456135 13.6848 0.686192 12.7744 0.918398C11.5923 1.21941 10.4102 1.52041 9.22598 1.82142C8.17211 2.09018 7.12041 2.35679 6.06653 2.62555C5.55372 2.7567 5.03656 2.8728 4.5281 3.01686C4.5194 3.01901 4.50854 3.02116 4.49985 3.02331C4.34122 3.06201 4.24562 3.22326 4.26734 3.37807C4.2869 3.52212 4.42597 3.67692 4.58677 3.65757C4.73887 3.64037 4.89315 3.64682 5.04525 3.64682C5.3386 3.64682 5.62977 3.64682 5.92312 3.64682C6.90311 3.64682 7.88311 3.64682 8.8631 3.64682C10.0473 3.64682 11.2338 3.64682 12.418 3.64682C13.4523 3.64682 14.4845 3.64682 15.5188 3.64682C16.0186 3.64682 16.5227 3.65972 17.0225 3.64682C17.029 3.64682 17.0355 3.64682 17.0442 3.64682C17.2202 3.64682 17.3701 3.49847 17.3701 3.32431C17.3701 2.60189 17.3701 1.87947 17.3701 1.15705C17.3701 1.056 17.3701 0.952799 17.3701 0.851746C17.3701 0.684042 17.2202 0.520637 17.0442 0.529237C16.866 0.533538 16.7161 0.668991 16.7161 0.849596Z" fill="#273951"/>
<path d="M15.8611 23.2999L15.8611 23.3L15.8668 23.3056C16.7801 24.2045 17.889 24.6602 19.1667 24.6602C20.4446 24.6602 21.5485 24.2042 22.4499 23.3028C23.3627 22.39 23.8268 21.2803 23.8268 20C23.8268 18.7208 23.3634 17.617 22.4499 16.7168C21.5496 15.8033 20.4459 15.3398 19.1667 15.3398C17.8864 15.3398 16.7767 15.804 15.8639 16.7168C14.9625 17.6182 14.5065 18.7221 14.5065 20C14.5065 21.2777 14.9622 22.3866 15.8611 23.2999Z" fill="#273951" stroke="white"/>
</g>
<defs>
<clipPath id="clip0">
<rect width="25" height="25" fill="white"/>
</clipPath>
</defs>
</svg>
