<svg width="50" height="50" viewBox="0 0 50 50" fill="none" xmlns="http://www.w3.org/2000/svg">
<g clip-path="url(#clip0)">
<path d="M45.4081 12.2118L46.8109 19.6895C41.8374 25.1733 35.4613 21.3097 31.1255 25.9211C30.998 25.7965 30.998 25.6718 30.998 25.5472L29.085 14.9536L45.4081 12.2118ZM39.0319 46.4851C38.3943 46.6096 37.8842 47.2328 38.0117 47.856C38.1393 48.6037 38.7769 49.1023 39.4145 48.9776L47.576 47.4821C48.2136 47.3574 48.7237 46.7342 48.5962 46.1112C48.4687 45.3633 47.8311 44.9894 47.0659 45.1141L44.2604 45.6126L42.22 34.2713C47.4485 32.7758 50.7641 27.5413 49.8714 22.3068L47.7036 10.467C47.576 9.8438 46.9384 9.34528 46.3008 9.46991L27.4272 12.7103C26.6621 12.835 26.2795 13.4581 26.4071 14.2059L28.4474 25.9211C29.4676 31.2802 34.3136 35.019 39.797 34.6452L41.8374 45.9865L39.0319 46.4851ZM47.321 22.6807C48.0861 27.0427 45.1531 31.2802 40.5622 32.0279C37.2466 32.6511 34.0585 31.1556 32.2732 28.5383C35.5888 23.8024 41.7099 27.292 47.321 22.6807Z" fill="#273951"/>
<path d="M4.98105 12.2118L3.70582 19.6895C8.67923 25.1733 15.0555 21.3097 19.3912 25.9211C19.3912 25.7965 19.3912 25.6718 19.5188 25.5472L21.4316 14.9536L4.98105 12.2118ZM11.4847 46.4851C12.1223 46.6096 12.6324 47.2328 12.5049 47.856C12.3774 48.6037 11.7398 49.1023 10.9746 48.9776L2.94067 47.4821C2.17553 47.3574 1.79296 46.7342 1.92048 46.1112C2.048 45.3633 2.68563 44.9894 3.32324 45.1141L6.12877 45.6126L8.16914 34.2713C2.94067 32.7758 -0.374942 27.5413 0.645247 22.3068L2.68563 10.467C2.81315 9.8438 3.57829 9.34528 4.21591 9.46991L23.0894 12.7103C23.727 12.835 24.2371 13.4581 24.1096 14.2059L21.9417 25.9211C21.049 31.2802 16.0756 35.019 10.7196 34.6452L8.67923 45.9865L11.4847 46.4851ZM3.19572 22.6807C2.30306 27.0427 5.36362 31.2802 9.82695 32.0279C13.1425 32.6511 16.4582 31.1556 18.2435 28.5383C14.9278 23.8024 8.67923 27.292 3.19572 22.6807Z" fill="#273951"/>
<path d="M26.534 1.2463C26.534 0.49852 25.8963 0 25.2587 0C24.4936 0 23.9835 0.49852 23.9835 1.2463V6.48076C23.9835 7.10391 24.4936 7.72706 25.2587 7.72706C25.8963 7.72706 26.534 7.10391 26.534 6.48076V1.2463Z" fill="#273951"/>
<path d="M17.8624 2.61601C17.6073 1.99285 16.8422 1.7436 16.2046 1.99285C15.567 2.36674 15.3119 3.11453 15.6945 3.61305L17.8624 8.47361C18.2449 9.09676 19.0102 9.34603 19.5203 8.97213C20.1579 8.72287 20.4129 7.97509 20.1579 7.47658L17.8624 2.61601Z" fill="#273951"/>
<path d="M34.8258 3.48951C35.2084 2.86636 34.8258 2.11858 34.3157 1.86932C33.6781 1.62006 32.913 1.86932 32.6579 2.49248L30.3625 7.22841C30.1075 7.85156 30.3625 8.59934 30.8726 8.8486C31.5102 9.09786 32.2754 8.8486 32.5304 8.22545L34.8258 3.48951Z" fill="#273951"/>
</g>
<defs>
<clipPath id="clip0">
<rect width="50" height="50" fill="white"/>
</clipPath>
</defs>
</svg>
