<svg width="25" height="25" viewBox="0 0 25 25" fill="none" xmlns="http://www.w3.org/2000/svg">
<path d="M21.8854 19.1656C23.376 17.8375 24.2187 16.0677 24.2187 14.2302C24.2187 12.2781 23.3052 10.4521 21.6448 9.08854C20.0302 7.76146 17.8917 7.03125 15.625 7.03125C13.3583 7.03125 11.2198 7.76146 9.60521 9.08854C7.94583 10.4521 7.03125 12.2781 7.03125 14.2302C7.03125 16.1823 7.94479 18.0083 9.60521 19.3719C11.2198 20.6979 13.3583 21.4292 15.625 21.4292C15.9271 21.4292 16.2312 21.4156 16.5323 21.3896L17.0469 21.8354C18.8184 23.3764 21.0885 24.2231 23.4365 24.2188H24.2177V22.5563L23.9885 22.3271C23.1018 21.4381 22.3951 20.3862 21.9073 19.2292L21.8833 19.1656H21.8854ZM18.0708 20.6542L17.0375 19.7583L16.6927 19.801C16.3719 19.8427 16.001 19.8656 15.625 19.8656C11.7479 19.8656 8.59375 17.3375 8.59375 14.2292C8.59375 11.1208 11.7479 8.59271 15.625 8.59271C19.5021 8.59271 22.6562 11.1208 22.6562 14.2292C22.6562 15.7771 21.8833 17.2229 20.4813 18.299L20.0312 18.6438L20.2385 19.2313C20.6672 20.4399 21.2985 21.5667 22.1052 22.5635L22.0885 22.5427C20.5963 22.2936 19.2021 21.6364 18.0604 20.6438L18.0708 20.6521V20.6542Z" fill="#273951"/>
<path d="M2.93854 15.5024C3.65538 14.5986 4.22137 13.5848 4.61458 12.5003L4.63854 12.4253L4.84479 11.8409L4.39479 11.4961C3.07187 10.4816 2.34375 9.11905 2.34375 7.66072C2.34375 4.72947 5.32292 2.34509 8.98437 2.34509C11.6781 2.34509 14.0021 3.63572 15.0427 5.48468C15.2354 5.4753 15.4302 5.47009 15.625 5.47009C16.0167 5.47009 16.4045 5.48919 16.7885 5.52738C16.3865 4.48572 15.6885 3.53468 14.7281 2.74613C13.1865 1.48051 11.1469 0.782593 8.98437 0.782593C6.82187 0.782593 4.78125 1.47947 3.24062 2.74613C1.65521 4.04926 0.78125 5.79405 0.78125 7.66072C0.78125 9.40863 1.57917 11.093 2.99062 12.3597C2.52898 13.4675 1.85604 14.4747 1.00937 15.3253L0.78125 15.5534V17.1888H1.5625C3.02721 17.1907 4.47152 16.8455 5.77708 16.1816L5.72396 16.2055C5.58195 15.6739 5.49915 15.1282 5.47708 14.5784L5.47604 14.5628C4.70744 15.0175 3.86467 15.3331 2.98646 15.4951L2.93854 15.5024V15.5024Z" fill="#273951"/>
</svg>
