<svg width="25" height="25" viewBox="0 0 25 25" fill="none" xmlns="http://www.w3.org/2000/svg">
<path fill-rule="evenodd" clip-rule="evenodd" d="M20.0298 1H5.16757V2.7242H0V10.8117C0 13.9373 3.48853 16.5094 6.91183 16.777C8.03565 17.9811 10.0124 18.8557 11.7717 19.2286V21.3425C10.0893 21.8593 7.08409 23.0734 6.91183 24.3962H18.4578C18.2838 23.0734 14.9726 21.8576 13.2868 21.3425V19.2286C15.0528 18.8557 17.1182 17.9811 18.2437 16.777C21.6653 16.5094 25 13.9373 25 10.8117V2.7242H20.0298V1ZM1.58706 4.25607H5.04716V11.2231C5.04716 12.5978 5.4017 13.9055 6.02549 15.0829C3.43668 14.2584 1.58706 12.1345 1.58706 9.64941V4.25607ZM15.1398 12.7533L12.5577 11.3301L9.97224 12.7533L10.4656 9.74306L8.37514 7.61248L11.2633 7.17265L12.5577 4.43668L13.8488 7.17265L16.7369 7.61248L14.6465 9.74306L15.1398 12.7533ZM18.9779 15.3053C19.605 14.0745 19.9645 12.7132 19.9645 11.2733V4.30122H23.433V9.62934C23.433 12.2265 21.575 14.444 18.9779 15.3053Z" fill="#9F3658"/>
</svg>
