<svg width="25" height="25" viewBox="0 0 25 25" fill="none" xmlns="http://www.w3.org/2000/svg">
<g clip-path="url(#clip0)">
<path d="M12.5469 8.69141L9.50024 11.4468V15.8896H15.5937L15.5927 11.446L12.5469 8.69141Z" fill="#9F3658"/>
<path d="M23.167 6.73536L23.1664 6.71609C23.1555 6.47558 23.1481 6.22152 23.1439 5.93923C23.1235 4.5606 22.0275 3.42057 20.6491 3.34352C17.7747 3.18292 15.5511 2.24565 13.6512 0.393992L13.635 0.378542C13.0151 -0.189657 12.0805 -0.189657 11.4608 0.378542L11.4444 0.393992C9.54448 2.24565 7.3209 3.18292 4.44633 3.34352C3.06789 3.42057 1.97212 4.5606 1.95152 5.93923C1.94751 6.22152 1.94007 6.47558 1.9292 6.71609L1.92806 6.76111C1.87217 9.69213 1.80274 13.3399 3.02287 16.6511C3.69407 18.4717 4.71012 20.0546 6.04316 21.3554C7.56141 22.837 9.55002 24.0133 11.954 24.8516C12.0311 24.8784 12.1108 24.9002 12.1915 24.9164L12.1959 24.9174C12.3126 24.9408 12.4301 24.9524 12.5478 24.9524C12.6653 24.9524 12.7828 24.9408 12.8995 24.9174C12.9821 24.901 13.0637 24.8786 13.1427 24.8512C15.5435 24.0116 17.5298 22.8347 19.0469 21.3533C20.3794 20.0519 21.3956 18.4686 22.0672 16.6477C23.2921 13.3266 23.2227 9.67191 23.167 6.73536ZM18.778 13.3359C18.6332 13.496 18.4337 13.5774 18.2336 13.5774C18.0583 13.5774 17.8823 13.5148 17.7419 13.388L17.0604 12.7717L17.0612 16.4073C17.0612 16.9301 16.636 17.3553 16.1134 17.3553H8.98124C8.45863 17.3553 8.03348 16.9301 8.03348 16.4075V12.7723L7.35275 13.388C7.21237 13.5148 7.03632 13.5774 6.86103 13.5774C6.66076 13.5774 6.46144 13.4961 6.31668 13.3359C6.04507 13.0355 6.06834 12.5717 6.36875 12.2999L8.3255 10.5302C8.33866 10.5176 8.35201 10.5054 8.36593 10.4936L11.9374 7.26369L11.9544 7.25015C11.959 7.24633 11.964 7.24309 11.9687 7.23947C11.9762 7.23375 11.9838 7.22822 11.9914 7.22287C12.325 6.98007 12.7696 6.98007 13.1032 7.22287C13.1108 7.22822 13.1185 7.23394 13.1261 7.23966C13.1309 7.24328 13.1358 7.24633 13.1404 7.25015L13.1734 7.27819L16.7293 10.494C16.7297 10.4944 16.73 10.4947 16.7304 10.4951L18.7259 12.2999C19.0263 12.5717 19.0496 13.0355 18.778 13.3359Z" fill="#9F3658"/>
</g>
<defs>
<clipPath id="clip0">
<rect width="25" height="25" fill="white"/>
</clipPath>
</defs>
</svg>
