<svg width="16" height="17" viewBox="0 0 16 17" fill="none" xmlns="http://www.w3.org/2000/svg">
<line y1="16.6" x2="15.1111" y2="16.6" stroke="#5F6D83" stroke-width="0.8"/>
<path d="M14.8505 3.59413L12.7776 5.66711L9.44433 2.33362L11.5172 0.260635C11.5997 0.178013 11.6976 0.112466 11.8055 0.0677429C11.9133 0.0230201 12.0289 0 12.1456 0C12.2624 0 12.378 0.0230201 12.4858 0.0677429C12.5936 0.112466 12.6916 0.178013 12.7741 0.260635L14.8505 2.33718C14.9331 2.41966 14.9987 2.51762 15.0434 2.62546C15.0881 2.7333 15.1111 2.84891 15.1111 2.96565C15.1111 3.0824 15.0881 3.198 15.0434 3.30584C14.9987 3.41368 14.9331 3.51164 14.8505 3.59413ZM0 11.7776L8.94656 2.83142L12.2799 6.16491L3.33329 15.1111H0.000888814V11.7776H0ZM12.1083 0.929112L10.7394 2.29718L12.8167 4.37283L14.1838 3.00476L12.1083 0.929112ZM10.9848 6.20492L8.90923 4.12837L0.889767 12.1474V14.224H2.96619L10.9848 6.20492Z" fill="#5F6D83"/>
</svg>
