<svg width="25" height="25" viewBox="0 0 25 25" fill="none" xmlns="http://www.w3.org/2000/svg">
<g clip-path="url(#clip0)">
<path d="M22.1568 23.6234H1.10205V24.9388H22.1568V23.6234Z" fill="#273951"/>
<path d="M22.6055 2.20029L21.2098 0.804633C20.056 -0.349189 18.1766 -0.350319 17.0228 0.804633L4.46072 13.3656C4.38161 13.4447 4.32398 13.543 4.29347 13.6504L2.43221 20.1642C2.36666 20.3947 2.43108 20.6411 2.59946 20.8106C2.7249 20.9361 2.89216 21.0039 3.06506 21.0039C3.12495 21.0039 3.18598 20.996 3.24587 20.979L9.75971 19.1177C9.8682 19.0872 9.96539 19.0296 10.0445 18.9505L22.6055 6.38728C23.1648 5.82788 23.4734 5.08429 23.4734 4.29435C23.4734 3.50329 23.1648 2.75856 22.6055 2.20029ZM9.23422 17.8972L4.02338 19.3856L5.51171 14.1747L15.626 4.05929L19.3485 7.78181L9.23422 17.8972ZM21.6754 5.45722L20.2797 6.85288L16.5572 3.13036L17.9529 1.7347C18.5936 1.09394 19.6378 1.09394 20.2797 1.7347L21.6754 3.13036C21.9862 3.44113 22.1568 3.85362 22.1568 4.29322C22.1568 4.73283 21.9862 5.14644 21.6754 5.45722Z" fill="#273951"/>
</g>
<defs>
<clipPath id="clip0">
<rect width="25" height="25" fill="white"/>
</clipPath>
</defs>
</svg>
