<svg width="50" height="50" viewBox="0 0 50 50" fill="none" xmlns="http://www.w3.org/2000/svg">
<g clip-path="url(#clip0)">
<path d="M28.3757 49.9024H20.353C19.013 49.9024 17.9229 48.8144 17.9229 47.477V29.4167H13.2423C11.9022 29.4167 10.8121 28.3283 10.8121 26.9913V19.2524C10.8121 17.915 11.9022 16.827 13.2423 16.827H17.9229V12.9517C17.9229 9.10912 19.1318 5.83992 21.4186 3.49808C23.7158 1.14555 26.926 -0.0976562 30.7023 -0.0976562L36.8208 -0.0877381C38.1586 -0.0854492 39.2467 1.0025 39.2467 2.33765V9.52301C39.2467 10.8604 38.157 11.9484 36.8174 11.9484L32.6978 11.9499C31.4415 11.9499 31.1216 12.2013 31.0532 12.2784C30.9404 12.4062 30.8062 12.7674 30.8062 13.765V16.8266H36.5078C36.937 16.8266 37.3528 16.9323 37.7102 17.1314C38.4811 17.5613 38.9604 18.3743 38.9604 19.2528L38.9574 26.9917C38.9574 28.3283 37.8673 29.4163 36.5273 29.4163H30.8062V47.477C30.8062 48.8144 29.7158 49.9024 28.3757 49.9024V49.9024ZM20.8598 46.9711H27.8689V28.1044C27.8689 27.2114 28.597 26.4851 29.4914 26.4851H36.0204L36.0231 19.7582H29.491C28.5967 19.7582 27.8689 19.0319 27.8689 18.1389V13.765C27.8689 12.6198 27.9855 11.3174 28.8516 10.3386C29.8981 9.15527 31.5474 9.01871 32.6971 9.01871L36.3098 9.01718V2.84271L30.7 2.83356C24.6312 2.83356 20.8598 6.71082 20.8598 12.9517V18.1389C20.8598 19.0315 20.1321 19.7582 19.2377 19.7582H13.7491V26.4851H19.2377C20.1321 26.4851 20.8598 27.2114 20.8598 28.1044V46.9711ZM36.8151 2.84348H36.8155H36.8151Z" fill="#273951"/>
</g>
<defs>
<clipPath id="clip0">
<rect width="50" height="50" fill="white"/>
</clipPath>
</defs>
</svg>
