<svg width="50" height="51" viewBox="0 0 50 51" fill="none" xmlns="http://www.w3.org/2000/svg">
<path d="M2.25368 49.4225C2.25368 48.5811 2.25368 47.7455 2.25368 46.9041C2.25368 44.8882 2.25368 42.8724 2.25368 40.8565C2.25368 38.4141 2.25368 35.9775 2.25368 33.5351C2.25368 31.4257 2.25368 29.3105 2.25368 27.2011C2.25368 26.1727 2.28941 25.1385 2.25368 24.116C2.25368 24.0984 2.25368 24.0868 2.25368 24.0692C2.25368 23.3155 1.06275 23.3155 1.06275 24.0692C1.06275 24.9106 1.06275 25.7462 1.06275 26.5876C1.06275 28.6035 1.06275 30.6194 1.06275 32.6352C1.06275 35.0777 1.06275 37.5142 1.06275 39.9567C1.06275 42.066 1.06275 44.1812 1.06275 46.2906C1.06275 47.319 1.02703 48.3532 1.06275 49.3758C1.06275 49.3933 1.06275 49.405 1.06275 49.4225C1.06275 50.1763 2.25368 50.1763 2.25368 49.4225Z" fill="#273951"/>
<path d="M48.9398 49.4362C48.9398 47.3444 48.9398 45.2584 48.9398 43.1666C48.9398 42.4888 48.9398 41.8168 48.9398 41.139C48.9398 40.8235 48.6659 40.5547 48.3443 40.5547C47.856 40.5547 47.3677 40.5547 46.8795 40.5547C45.5814 40.5547 44.2832 40.5547 42.9792 40.5547C41.1154 40.5547 39.2456 40.5547 37.3818 40.5547C35.2024 40.5547 33.023 40.5547 30.8436 40.5547C28.5749 40.5547 26.3122 40.5547 24.0435 40.5547C21.9415 40.5547 19.8395 40.5547 17.7435 40.5547C16.0583 40.5547 14.3731 40.5547 12.6939 40.5547C11.6578 40.5547 10.6158 40.5547 9.57966 40.5547C9.0616 40.5547 8.54951 40.5547 8.03145 40.5547C6.06047 40.5547 4.08949 40.5547 2.11851 40.5547C1.96964 40.5547 1.81482 40.5547 1.66595 40.5547C0.897807 40.5547 0.897807 41.7233 1.66595 41.7233C3.3273 41.7233 4.98864 41.7233 6.64998 41.7233C7.50149 41.7233 8.353 41.7233 9.20452 41.7233C10.0441 41.7233 10.8897 41.7233 11.7293 41.7233C13.2775 41.7233 14.8257 41.7233 16.3739 41.7233C18.3985 41.7233 20.423 41.7233 22.4417 41.7233C24.6925 41.7233 26.9374 41.7233 29.1883 41.7233C31.4093 41.7233 33.6304 41.7233 35.8515 41.7233C37.8165 41.7233 39.7875 41.7233 41.7525 41.7233C43.2114 41.7233 44.6703 41.7233 46.1351 41.7233C46.8378 41.7233 47.5523 41.7525 48.2609 41.7233C48.2907 41.7233 48.3205 41.7233 48.3503 41.7233C48.1538 41.5305 47.9513 41.3318 47.7548 41.139C47.7548 43.4587 47.7548 45.7784 47.7548 48.0923C47.7548 48.5422 47.7548 48.9863 47.7548 49.4362C47.7488 50.19 48.9398 50.19 48.9398 49.4362Z" fill="#273951"/>
<path d="M14.4344 33.759C14.4225 35.1555 13.5352 36.4761 12.1716 36.9493C10.7782 37.4343 9.23597 37.0253 8.28918 35.9093C7.36621 34.8283 7.27094 33.2273 7.9974 32.0236C8.72982 30.8141 10.2185 30.1363 11.6297 30.4226C13.2553 30.7498 14.4165 32.1346 14.4344 33.759C14.4403 34.5128 15.6312 34.5128 15.6253 33.759C15.6074 31.8425 14.3927 30.148 12.5646 29.4702C10.7782 28.8099 8.6405 29.3708 7.42576 30.8141C6.17529 32.3041 5.96092 34.4485 6.99107 36.1196C8.00931 37.7674 9.99221 38.5971 11.9096 38.229C14.0652 37.82 15.6015 35.8859 15.6253 33.759C15.6312 33.0052 14.4403 33.0052 14.4344 33.759Z" fill="#273951"/>
<path d="M47.7477 36.8446C47.7477 38.2762 47.7477 39.7078 47.7477 41.1393C47.9442 40.9465 48.1467 40.7478 48.3432 40.555C47.4083 40.555 46.4734 40.555 45.5385 40.555C43.2817 40.555 41.0249 40.555 38.7681 40.555C36.0468 40.555 33.3256 40.555 30.6043 40.555C28.2463 40.555 25.8882 40.555 23.5243 40.555C22.7561 40.555 21.982 40.555 21.2139 40.555C20.8447 40.555 20.4636 40.5258 20.1003 40.555C20.0825 40.555 20.0706 40.555 20.0527 40.555C20.2492 40.7478 20.4517 40.9465 20.6482 41.1393C20.6482 38.6034 20.6482 36.0675 20.6482 33.5257C20.6482 33.0466 20.6482 32.5616 20.6482 32.0825C20.6482 31.4982 20.8149 30.9372 21.3568 30.61C21.9105 30.277 22.637 30.3821 23.2742 30.3821C26.2098 30.3821 29.1454 30.3821 32.0811 30.3821C34.8321 30.3821 37.5831 30.3821 40.3342 30.3821C41.3226 30.3821 42.2813 30.4055 43.24 30.7152C45.342 31.3988 46.9855 33.1459 47.5393 35.2378C47.6822 35.7695 47.7417 36.3012 47.7477 36.8446C47.7537 37.5984 48.9446 37.5984 48.9386 36.8446C48.9267 34.3671 47.6822 32.0591 45.6338 30.6159C44.2523 29.6401 42.6029 29.2135 40.9177 29.2135C38.4227 29.2135 35.9337 29.2135 33.4387 29.2135C30.2709 29.2135 27.103 29.2135 23.9351 29.2135C23.298 29.2135 22.6489 29.1901 22.0118 29.2135C20.8566 29.2603 19.8264 30.1192 19.5466 31.206C19.4394 31.6326 19.4632 32.0708 19.4632 32.5032C19.4632 35.302 19.4632 38.1067 19.4632 40.9056C19.4632 40.9816 19.4632 41.0517 19.4632 41.1276C19.4632 41.4432 19.7371 41.7119 20.0587 41.7119C20.9935 41.7119 21.9284 41.7119 22.8633 41.7119C25.1201 41.7119 27.3769 41.7119 29.6337 41.7119C32.355 41.7119 35.0762 41.7119 37.7975 41.7119C40.1555 41.7119 42.5136 41.7119 44.8776 41.7119C46.0149 41.7119 47.1641 41.7528 48.3015 41.7119C48.3193 41.7119 48.3312 41.7119 48.3491 41.7119C48.6707 41.7119 48.9446 41.4432 48.9446 41.1276C48.9446 39.6961 48.9446 38.2645 48.9446 36.8329C48.9386 36.0909 47.7477 36.0909 47.7477 36.8446Z" fill="#273951"/>
<path d="M0.885402 15.3294C1.69523 14.8561 2.51102 14.3828 3.32085 13.9095C5.26206 12.776 7.20327 11.6482 9.14448 10.5147C11.4906 9.14739 13.8367 7.78011 16.1828 6.40697C18.2193 5.22082 20.2558 4.02883 22.2923 2.84267C22.9652 2.45119 23.6321 2.0597 24.305 1.66821C24.6206 1.48707 24.96 1.32347 25.2577 1.11311C25.2696 1.10143 25.2875 1.09558 25.2994 1.08974C25.0969 1.08974 24.9004 1.08974 24.698 1.08974C25.5078 1.56303 26.3236 2.03633 27.1334 2.50962C29.0746 3.64318 31.0158 4.7709 32.957 5.90447C35.3032 7.27175 37.6493 8.63904 39.9954 10.0122C42.0319 11.1983 44.0684 12.3903 46.1049 13.5765C47.0933 14.1491 48.064 14.7685 49.0703 15.306C49.0822 15.3119 49.1001 15.3236 49.112 15.3294C49.7729 15.7151 50.3743 14.7042 49.7134 14.3186C48.9036 13.8453 48.0878 13.372 47.2779 12.8987C45.3367 11.7651 43.3955 10.6374 41.4543 9.50382C39.1082 8.13654 36.7621 6.76925 34.4159 5.39612C32.3794 4.20996 30.343 3.01797 28.3065 1.83182C27.318 1.25919 26.3474 0.639821 25.3411 0.102255C25.3292 0.0964115 25.3113 0.0847251 25.2994 0.078882C25.1148 -0.026294 24.8826 -0.026294 24.698 0.078882C23.8881 0.552174 23.0724 1.02547 22.2625 1.49876C20.3213 2.63232 18.3801 3.76004 16.4389 4.89361C14.0928 6.2609 11.7467 7.62818 9.40053 9.00132C7.36404 10.1875 5.32756 11.3795 3.29107 12.5656C2.3026 13.1382 1.29032 13.6875 0.325666 14.2952C0.313757 14.301 0.295893 14.3127 0.283984 14.3186C-0.371026 14.7042 0.224437 15.7151 0.885402 15.3294Z" fill="#273951"/>
</svg>
