<svg width="18" height="18" viewBox="0 0 18 18" fill="none" xmlns="http://www.w3.org/2000/svg">
<path fill-rule="evenodd" clip-rule="evenodd" d="M17.5166 7.82913L17.5152 7.82776L10.1719 0.485458C9.85891 0.172348 9.44276 0 9.0001 0C8.55745 0 8.1413 0.172348 7.82816 0.485458L0.488685 7.82405L0.481268 7.8316C-0.161497 8.47801 -0.160398 9.52679 0.484427 10.1716C0.779028 10.4663 1.16798 10.6368 1.584 10.6548C1.60103 10.6565 1.61806 10.6573 1.63522 10.6573H1.92776V16.0606C1.92776 17.13 2.79797 18 3.86746 18H6.7404C6.75548 18 6.77041 17.9994 6.78516 17.9981H11.2149C11.2297 17.9994 11.2446 18 11.2597 18H14.1326C15.2022 18 16.0723 17.13 16.0723 16.0606V10.6573H16.3437C16.7862 10.6573 17.2024 10.4849 17.5156 10.1717C18.1612 9.52597 18.1614 8.47526 17.5166 7.82913ZM12.0623 16.9544H12.2055V16.9453H14.1326C14.6206 16.9453 15.0175 16.5484 15.0175 16.0606V10.1299C15.0175 9.83867 15.2536 9.6026 15.5449 9.6026H16.3437C16.5045 9.6026 16.6559 9.53984 16.7697 9.42599C17.004 9.19157 17.0045 8.81021 16.7708 8.57496L16.7674 8.57167L9.426 1.23116C9.31215 1.11731 9.16093 1.05469 9.0001 1.05469C8.83914 1.05469 8.68792 1.11731 8.5742 1.23116L1.23116 8.57318L1.23075 8.57359L1.23047 8.57386C0.995618 8.80884 0.995618 9.19102 1.23047 9.42585C1.3409 9.5364 1.48827 9.59875 1.64539 9.6015C1.65377 9.60164 1.66187 9.60205 1.67011 9.6026H2.45516C2.74647 9.6026 2.98256 9.83867 2.98256 10.1299V16.0606C2.98256 16.5484 3.37962 16.9453 3.86746 16.9453H5.53861C5.54365 16.9448 5.54873 16.9446 5.55384 16.9446H12.0071C12.026 16.9446 12.0444 16.9479 12.0623 16.9544ZM10.3158 8.07463C10.3158 8.51646 9.95754 8.87463 9.51567 8.87463C9.0738 8.87463 8.71559 8.51646 8.71559 8.07463C8.71559 7.6328 9.0738 7.27463 9.51567 7.27463C9.95754 7.27463 10.3158 7.6328 10.3158 8.07463ZM10.3338 12.1205C10.3117 12.1057 10.2868 12.0954 10.2607 12.0902C10.2346 12.0851 10.2077 12.0852 10.1816 12.0906C10.1555 12.096 10.1308 12.1066 10.1088 12.1217C10.0869 12.1368 10.0681 12.1561 10.0538 12.1785C9.8604 12.4649 9.62353 12.7192 9.3517 12.9325L9.34597 12.9369C9.27252 12.9926 9.03686 13.1714 8.93565 13.1325C8.86982 13.1124 8.89929 12.992 8.91552 12.9256L8.91965 12.9085L9.02566 12.5945C9.06967 12.4665 9.83574 10.1945 9.91975 9.93453C10.0438 9.55453 9.98976 9.18053 9.4237 9.27053C9.33068 9.2802 8.72393 9.35772 8.25181 9.41804L8.25127 9.41811L8.25025 9.41824C7.94144 9.45769 7.6906 9.48974 7.67953 9.49053C7.65326 9.49224 7.62759 9.4991 7.60397 9.51073C7.58036 9.52236 7.55927 9.53853 7.5419 9.5583C7.52454 9.57808 7.51123 9.60109 7.50276 9.62601C7.49429 9.65092 7.4908 9.67727 7.49251 9.70353C7.49422 9.7298 7.50108 9.75547 7.51271 9.77908C7.52434 9.80269 7.54051 9.82378 7.56029 9.84115C7.58007 9.85851 7.60308 9.87181 7.628 9.88028C7.65292 9.88876 7.67926 9.89224 7.70553 9.89053C7.70553 9.89053 8.30559 9.81253 8.3716 9.80653C8.40541 9.80323 8.43945 9.80978 8.46962 9.8254C8.49979 9.84101 8.52479 9.86502 8.54161 9.89453C8.57786 10.0066 8.57289 10.1278 8.52761 10.2365C8.50268 10.3324 8.30078 10.9146 8.09444 11.5095C7.87036 12.1556 7.64106 12.8168 7.62752 12.8865C7.59963 12.9987 7.60738 13.1167 7.64968 13.2242C7.69198 13.3318 7.76673 13.4234 7.86355 13.4865C8.04527 13.6076 8.26164 13.6659 8.47961 13.6525C8.69154 13.6499 8.90114 13.6079 9.09767 13.5285C9.59572 13.3285 10.1158 12.7965 10.3898 12.3785C10.4134 12.3361 10.4207 12.2865 10.4104 12.239C10.4001 12.1915 10.3729 12.1494 10.3338 12.1205Z" fill="#273951"/>
</svg>
