<svg width="25" height="25" viewBox="0 0 25 25" fill="none" xmlns="http://www.w3.org/2000/svg">
<path d="M3.24048 9.26013C1.45081 9.26013 0 10.7109 0 12.5006C0 14.2903 1.45081 15.7411 3.24048 15.7411C5.03015 15.7411 6.48097 14.2903 6.48097 12.5006C6.48097 10.7109 5.03015 9.26013 3.24048 9.26013ZM3.24048 14.4185C2.18131 14.4185 1.32265 13.5598 1.32265 12.5006C1.32265 11.4414 2.18131 10.5828 3.24048 10.5828C4.29965 10.5828 5.15832 11.4414 5.15832 12.5006C5.15832 13.5598 4.29972 14.4185 3.24048 14.4185Z" fill="#273951"/>
<path d="M23.6755 11.839H8.72956C8.36431 11.839 8.06824 12.1351 8.06824 12.5003C8.06824 12.8656 8.36431 13.1616 8.72956 13.1616H23.6755C24.0407 13.1616 24.3368 12.8656 24.3368 12.5003C24.3368 12.1351 24.0407 11.839 23.6755 11.839Z" fill="#273951"/>
<path d="M3.24048 0C1.45081 0 0 1.45081 0 3.24048C0 5.03015 1.45081 6.48096 3.24048 6.48096C5.03015 6.48096 6.48097 5.03015 6.48097 3.24048C6.48097 1.45081 5.03015 0 3.24048 0ZM3.24048 5.15832C2.18131 5.15832 1.32265 4.29965 1.32265 3.24048C1.32265 2.18131 2.18131 1.32265 3.24048 1.32265C4.29965 1.32265 5.15832 2.18131 5.15832 3.24048C5.15832 4.29965 4.29972 5.15832 3.24048 5.15832Z" fill="#273951"/>
<path d="M8.72956 3.90138H23.6755C24.0407 3.90138 24.3368 3.60531 24.3368 3.24006C24.3368 2.87481 24.0407 2.57874 23.6755 2.57874H8.72956C8.36431 2.57874 8.06824 2.87481 8.06824 3.24006C8.06824 3.60531 8.36431 3.90138 8.72956 3.90138Z" fill="#273951"/>
<path d="M3.24048 18.5189C1.45081 18.5189 0 19.9697 0 21.7594C0 23.5491 1.45081 24.9999 3.24048 24.9999C5.03015 24.9999 6.48097 23.5491 6.48097 21.7594C6.48097 19.9697 5.03015 18.5189 3.24048 18.5189ZM5.15832 21.7594C5.15832 22.8186 4.29965 23.6772 3.24048 23.6772C2.18131 23.6772 1.32265 22.8186 1.32265 21.7594C1.32265 20.7002 2.18131 19.8416 3.24048 19.8416C4.29965 19.8416 5.15832 20.7002 5.15832 21.7594Z" fill="#273951"/>
<path d="M23.6755 21.0978H8.72956C8.36431 21.0978 8.06824 21.3939 8.06824 21.7591C8.06824 22.1244 8.36431 22.4204 8.72956 22.4204H23.6755C24.0407 22.4204 24.3368 22.1244 24.3368 21.7591C24.3368 21.3939 24.0407 21.0978 23.6755 21.0978Z" fill="#273951"/>
</svg>
