<svg width="50" height="50" viewBox="0 0 50 50" fill="none" xmlns="http://www.w3.org/2000/svg">
<path d="M25.7567 19.3974C34.0837 15.0301 41.4411 15.6257 48 22.1766V46.1968C42.7529 50.7626 39.5589 39.2488 25.4715 47.2886C11.9544 39.3481 8.07605 50.6137 3 46.1968V22.1766C9.61597 15.576 16.8593 14.9805 25.3004 19.3974H25.7567ZM26.6692 21.3826V43.9635C36.0228 38.2562 41.9544 45.4524 45.6046 45.2042V22.9707C39.616 17.2138 33.5133 17.8093 26.6692 21.3826ZM24.3308 43.9635V21.3826C17.5437 17.8093 11.384 17.2138 5.39544 22.9707V45.2042C8.36122 45.6012 14.5209 38.2066 24.3308 43.9635Z" fill="#5F6D83"/>
<path d="M25.4668 4.5C28.0842 4.5 30.3075 5.41258 32.1643 7.24835C34.0198 9.08273 34.9419 11.2932 34.9419 13.9086C34.9419 15.2028 34.6176 16.7252 33.9442 18.4847C33.2683 20.2506 32.4519 21.8827 31.4958 23.3821C30.5251 24.9043 29.5551 26.3372 28.5858 27.681C27.6185 29.0221 26.8091 30.0829 26.1563 30.8672L25.4663 31.6003C25.2731 31.3865 25.0469 31.1243 24.7869 30.8122C24.3542 30.293 23.5755 29.2735 22.4441 27.7428C21.321 26.2233 20.3205 24.7499 19.442 23.3224C18.5732 21.9106 17.788 20.3088 17.088 18.5149C16.3925 16.7327 16.0582 15.2006 16.0582 13.9086C16.0582 11.2914 16.9706 9.08027 18.8045 7.24634C20.6384 5.4124 22.8495 4.5 25.4668 4.5ZM25.4668 17.9331C26.5738 17.9331 27.5404 17.5378 28.3417 16.7615C29.1469 15.9815 29.5578 15.0212 29.5578 13.9086C29.5578 12.796 29.1469 11.8357 28.3417 11.0557C27.5404 10.2795 26.5738 9.88407 25.4668 9.88407C24.3594 9.88407 23.4008 10.28 22.6194 11.0613C21.8381 11.8426 21.4422 12.8012 21.4422 13.9086C21.4422 15.016 21.8381 15.9746 22.6194 16.7559C23.4008 17.5373 24.3594 17.9331 25.4668 17.9331Z" fill="#5F6D83" stroke="white"/>
</svg>
