<svg width="25" height="25" viewBox="0 0 25 25" fill="none" xmlns="http://www.w3.org/2000/svg">
<g clip-path="url(#clip0)">
<path d="M23.2419 10.4332H23.8906C24.062 10.4343 24.2259 10.5031 24.3466 10.6247C24.4674 10.7462 24.5352 10.9106 24.5352 11.0819V24.3263C24.5352 24.4118 24.5183 24.4965 24.4854 24.5755C24.4525 24.6544 24.4044 24.7261 24.3437 24.7864C24.283 24.8467 24.211 24.8944 24.1318 24.9268C24.0527 24.9591 23.9678 24.9755 23.8823 24.975H1.09456C0.922518 24.975 0.757518 24.9066 0.635863 24.785C0.514207 24.6633 0.445862 24.4983 0.445862 24.3263V0.623678C0.445862 0.451631 0.514207 0.286632 0.635863 0.164976C0.757518 0.043321 0.922518 -0.0250244 1.09456 -0.0250244H18.3975C18.5695 -0.0250244 18.7345 0.043321 18.8562 0.164976C18.9778 0.286632 19.0462 0.451631 19.0462 0.623678V1.27238C19.0467 1.35792 19.0303 1.44272 18.998 1.5219C18.9656 1.60109 18.9179 1.67309 18.8576 1.73377C18.7973 1.79445 18.7256 1.84261 18.6467 1.87547C18.5677 1.90833 18.483 1.92524 18.3975 1.92524H2.39613V23.0247H22.5932V11.0819C22.5932 10.9099 22.6616 10.7449 22.7832 10.6232C22.9049 10.5016 23.0699 10.4332 23.2419 10.4332Z" fill="black"/>
<path d="M9.68572 17.648L9.2283 17.1864C9.16783 17.1261 9.11984 17.0545 9.0871 16.9757C9.05436 16.8968 9.0375 16.8123 9.0375 16.7269C9.0375 16.6415 9.05436 16.557 9.0871 16.4781C9.11984 16.3993 9.16783 16.3277 9.2283 16.2674L22.9509 2.74444C23.0108 2.68409 23.082 2.63619 23.1605 2.60351C23.239 2.57082 23.3232 2.55399 23.4083 2.55399C23.4933 2.55399 23.5775 2.57082 23.656 2.60351C23.7345 2.63619 23.8058 2.68409 23.8657 2.74444L24.3231 3.20602C24.3836 3.26628 24.4316 3.33789 24.4643 3.41675C24.497 3.4956 24.5139 3.58013 24.5139 3.66551C24.5139 3.75089 24.497 3.83543 24.4643 3.91428C24.4316 3.99313 24.3836 4.06474 24.3231 4.12501L10.6006 17.648C10.5406 17.7089 10.4691 17.7574 10.3902 17.7904C10.3113 17.8235 10.2266 17.8405 10.1411 17.8405C10.0555 17.8405 9.97084 17.8235 9.89196 17.7904C9.81307 17.7574 9.74154 17.7089 9.68156 17.648H9.68572Z" fill="black"/>
<path d="M4.35886 10.0881V9.43938C4.35772 9.26945 4.42329 9.10587 4.54149 8.98378C4.65969 8.8617 4.82106 8.79087 4.99093 8.78652H7.77703C7.86257 8.78651 7.94726 8.80343 8.02624 8.83629C8.10522 8.86915 8.17691 8.9173 8.2372 8.97798C8.2975 9.03866 8.34519 9.11067 8.37755 9.18985C8.4099 9.26904 8.42628 9.35384 8.42573 9.43938V10.0881C8.42573 10.1733 8.40895 10.2576 8.37635 10.3363C8.34375 10.415 8.29597 10.4865 8.23573 10.5468C8.17549 10.607 8.10398 10.6548 8.02527 10.6874C7.94657 10.72 7.86222 10.7368 7.77703 10.7368H4.99093C4.90574 10.7368 4.82139 10.72 4.74269 10.6874C4.66398 10.6548 4.59247 10.607 4.53223 10.5468C4.47199 10.4865 4.42421 10.415 4.39161 10.3363C4.35901 10.2576 4.34223 10.1733 4.34223 10.0881H4.35886Z" fill="black"/>
<path d="M4.35885 5.7925V5.1438C4.3588 4.9746 4.42485 4.81207 4.54294 4.69088C4.66102 4.56969 4.82177 4.49944 4.99092 4.4951H13.6528C13.8248 4.4951 13.9898 4.56344 14.1115 4.6851C14.2331 4.80675 14.3015 4.97175 14.3015 5.1438V5.7925C14.302 5.87804 14.2856 5.96284 14.2533 6.04203C14.2209 6.12121 14.1732 6.19322 14.1129 6.25389C14.0526 6.31457 13.9809 6.36273 13.902 6.39559C13.823 6.42845 13.7383 6.44536 13.6528 6.44536H4.99092C4.90538 6.44536 4.82069 6.42845 4.74171 6.39559C4.66273 6.36273 4.59104 6.31457 4.53074 6.25389C4.47045 6.19322 4.42276 6.12121 4.3904 6.04203C4.35805 5.96284 4.34167 5.87804 4.34222 5.7925H4.35885Z" fill="black"/>
</g>
<defs>
<clipPath id="clip0">
<rect width="25" height="25" fill="white"/>
</clipPath>
</defs>
</svg>
