<svg width="25" height="25" viewBox="0 0 25 25" fill="none" xmlns="http://www.w3.org/2000/svg">
<path d="M12.5 0C5.60526 0 0 5.60526 0 12.5C0 19.3947 5.60526 25 12.5 25C19.3947 25 25 19.3947 25 12.5C25 5.60526 19.3947 0 12.5 0ZM15.1842 6.5C14.3158 6.6579 13.4211 6.73684 12.5 6.73684C11.5789 6.73684 10.6842 6.6579 9.81579 6.5C10.5 3.39474 11.6316 1.55263 12.5 1.55263C13.3684 1.55263 14.5 3.39474 15.1842 6.5ZM15.1579 1.89474C17.0526 2.36842 18.7632 3.34211 20.1316 4.68421C19.1316 5.31579 17.9737 5.81579 16.7105 6.1579C16.3421 4.47368 15.8158 3 15.1579 1.89474ZM9.23684 11.7105C9.26316 10.3684 9.36842 9.13158 9.55263 8.02632C10.5263 8.18421 11.5 8.28947 12.5263 8.28947C13.5263 8.28947 14.5263 8.18421 15.5 8.02632C15.6579 9.13158 15.7632 10.3684 15.8158 11.7105H9.23684ZM15.7632 13.2895C15.7368 14.6316 15.6316 15.8684 15.4737 16.9737C14.5 16.8158 13.5263 16.7105 12.5 16.7105C11.5 16.7105 10.5 16.8158 9.52632 16.9737C9.36842 15.8684 9.26316 14.6316 9.23684 13.2895H15.7632ZM8.28947 6.1579C7.02632 5.81579 5.86842 5.31579 4.86842 4.68421C6.23684 3.34211 7.94737 2.39474 9.84211 1.89474C9.18421 3 8.65789 4.47368 8.28947 6.1579ZM8.02632 7.71053C7.81579 9 7.71053 10.3684 7.68421 11.7368H1.63158C1.78947 9.55263 2.60526 7.52632 3.86842 5.86842C5.02632 6.65789 6.47368 7.28947 8.02632 7.71053ZM7.6579 13.2895C7.68421 14.6579 7.81579 16 8 17.3158C6.44737 17.7368 5.02632 18.3421 3.81579 19.1579C2.55263 17.5 1.76316 15.4737 1.60526 13.2895H7.6579ZM8.28947 18.8421C8.65789 20.5263 9.18421 22.0263 9.84211 23.1053C7.94737 22.6316 6.23684 21.6579 4.86842 20.3158C5.86842 19.6842 7.02632 19.1842 8.28947 18.8421ZM9.81579 18.5C10.6842 18.3421 11.5789 18.2632 12.5 18.2632C13.4211 18.2632 14.3158 18.3421 15.1842 18.5C14.5 21.6053 13.3684 23.4474 12.5 23.4474C11.6316 23.4474 10.5 21.6053 9.81579 18.5ZM16.7105 18.8421C17.9737 19.1842 19.1316 19.6842 20.1316 20.3421C18.7632 21.6842 17.0526 22.6316 15.1579 23.1316C15.8158 22 16.3421 20.5263 16.7105 18.8421ZM16.9737 17.2895C17.1842 16 17.2895 14.6316 17.3158 13.2632H23.3684C23.2105 15.4474 22.3947 17.4737 21.1316 19.1316C19.9474 18.3421 18.5263 17.7105 16.9737 17.2895ZM17.3421 11.7105C17.3158 10.3421 17.1842 9 17 7.68421C18.5526 7.26316 19.9737 6.6579 21.1842 5.84211C22.4474 7.5 23.2632 9.5 23.4211 11.7105H17.3421Z" fill="#273951"/>
</svg>
