<svg id="light" enable-background="new 0 0 24 24" height="512" viewBox="0 0 24 24" width="512" xmlns="http://www.w3.org/2000/svg"><g><path d="m12 4c-1.1 0-2-.9-2-2s.9-2 2-2 2 .9 2 2-.9 2-2 2zm0-3c-.6 0-1 .4-1 1s.4 1 1 1 1-.4 1-1-.4-1-1-1z"/></g><g><path d="m15.5 9c-.3 0-.5-.2-.5-.5v-1c0-.8-.7-1.5-1.5-1.5h-3c-.8 0-1.5.7-1.5 1.5v1c0 .3-.2.5-.5.5s-.5-.2-.5-.5v-1c0-1.4 1.1-2.5 2.5-2.5h3c1.4 0 2.5 1.1 2.5 2.5v1c0 .3-.2.5-.5.5z"/></g><g><path d="m4 19c-1.1 0-2-.9-2-2s.9-2 2-2 2 .9 2 2-.9 2-2 2zm0-3c-.6 0-1 .4-1 1s.4 1 1 1 1-.4 1-1-.4-1-1-1z"/></g><g><path d="m7.5 24c-.3 0-.5-.2-.5-.5v-1c0-.8-.7-1.5-1.5-1.5h-3c-.8 0-1.5.7-1.5 1.5v1c0 .3-.2.5-.5.5s-.5-.2-.5-.5v-1c0-1.4 1.1-2.5 2.5-2.5h3c1.4 0 2.5 1.1 2.5 2.5v1c0 .3-.2.5-.5.5z"/></g><g><path d="m20 19c-1.1 0-2-.9-2-2s.9-2 2-2 2 .9 2 2-.9 2-2 2zm0-3c-.6 0-1 .4-1 1s.4 1 1 1 1-.4 1-1-.4-1-1-1z"/></g><g><path d="m23.5 24c-.3 0-.5-.2-.5-.5v-1c0-.8-.7-1.5-1.5-1.5h-3c-.8 0-1.5.7-1.5 1.5v1c0 .3-.2.5-.5.5s-.5-.2-.5-.5v-1c0-1.4 1.1-2.5 2.5-2.5h3c1.4 0 2.5 1.1 2.5 2.5v1c0 .3-.2.5-.5.5z"/></g><g><path d="m20 14c-.3 0-.5-.2-.5-.5v-1.5h-15v1.5c0 .3-.2.5-.5.5s-.5-.2-.5-.5v-2c0-.3.2-.5.5-.5h16c.3 0 .5.2.5.5v2c0 .3-.2.5-.5.5z"/></g><g><path d="m12 12c-.3 0-.5-.2-.5-.5v-2c0-.3.2-.5.5-.5s.5.2.5.5v2c0 .3-.2.5-.5.5z"/></g></svg>