<?xml version="1.0" encoding="iso-8859-1"?>
<!-- Generator: Adobe Illustrator 19.0.0, SVG Export Plug-In . SVG Version: 6.00 Build 0)  -->
<svg version="1.1" id="Layer_1" xmlns="http://www.w3.org/2000/svg" xmlns:xlink="http://www.w3.org/1999/xlink" x="0px" y="0px"
	 viewBox="0 0 494.528 494.528" style="enable-background:new 0 0 494.528 494.528;" xml:space="preserve">
<g>
	<g>
		<path d="M363.065,168.624H131.464c-51.593,0-93.568,41.967-93.568,93.552v138.8c0,51.585,41.975,93.552,93.568,93.552h231.6
			c51.593,0,93.568-41.967,93.568-93.552v-138.8C456.632,210.591,414.658,168.624,363.065,168.624z M424.632,400.976
			c0,33.94-27.619,61.552-61.567,61.552H131.464c-33.949,0-61.568-27.613-61.568-61.552v-138.8c0-33.94,27.619-61.552,61.568-61.552
			h231.601c33.948,0,61.567,27.612,61.567,61.552V400.976z"/>
	</g>
</g>
<g>
	<g>
		<path d="M247.256,0C165.94,0,99.784,65.983,99.784,147.088v37.552c0,8.836,7.164,16,16,16s16-7.164,16-16v-37.552
			C131.784,83.628,183.585,32,247.256,32c63.68,0,115.488,51.628,115.488,115.088v37.552c0,8.836,7.163,16,16,16
			c8.837,0,16-7.164,16-16v-37.552C394.744,65.983,328.581,0,247.256,0z"/>
	</g>
</g>
<g>
	<g>
		<path d="M249.832,259.36c-25.894,0-46.96,21.066-46.96,46.96s21.066,46.96,46.96,46.96c25.894,0,46.96-21.066,46.96-46.96
			S275.726,259.36,249.832,259.36z M249.832,321.28c-8.249,0-14.96-6.711-14.96-14.96c0-8.249,6.711-14.96,14.96-14.96
			c8.249,0,14.96,6.711,14.96,14.96C264.792,314.569,258.081,321.28,249.832,321.28z"/>
	</g>
</g>
<g>
	<g>
		<path d="M249.832,323.312c-8.836,0-16,7.163-16,16V401.2c0,8.837,7.164,16,16,16c8.837,0,16-7.164,16-16v-61.888
			C265.832,330.475,258.669,323.312,249.832,323.312z"/>
	</g>
</g>
<g>
</g>
<g>
</g>
<g>
</g>
<g>
</g>
<g>
</g>
<g>
</g>
<g>
</g>
<g>
</g>
<g>
</g>
<g>
</g>
<g>
</g>
<g>
</g>
<g>
</g>
<g>
</g>
<g>
</g>
</svg>
