<svg width="20" height="25" viewBox="0 0 20 25" fill="none" xmlns="http://www.w3.org/2000/svg">
<path d="M15.0079 14.072C15.0079 14.2268 15.0027 14.379 14.9899 14.5337C14.9848 14.6047 14.9771 14.6732 14.9694 14.7443C14.9668 14.7671 14.9566 14.8483 14.9643 14.7823C14.9592 14.8229 14.9515 14.8635 14.9463 14.9015C14.8976 15.1958 14.8284 15.485 14.7361 15.7691C14.6925 15.9036 14.6412 16.0355 14.59 16.1674C14.5874 16.1725 14.5669 16.2232 14.5823 16.1852C14.6002 16.142 14.572 16.208 14.5669 16.2181C14.5541 16.2486 14.5387 16.279 14.5259 16.3095C14.4951 16.3754 14.4643 16.4414 14.431 16.5073C14.3003 16.761 14.1541 17.0045 13.9875 17.2354C13.9465 17.2937 13.9029 17.3521 13.8593 17.4104C13.8978 17.3597 13.8516 17.4206 13.8362 17.4383C13.8106 17.4688 13.7875 17.4992 13.7619 17.5297C13.6696 17.6413 13.5722 17.7478 13.4696 17.8518C13.3722 17.9508 13.2722 18.0472 13.1671 18.141C13.1132 18.1892 13.0568 18.2374 13.003 18.2831C12.9774 18.3034 12.9517 18.3262 12.9261 18.3465C12.9081 18.3592 12.8287 18.4201 12.8851 18.3795C12.6569 18.552 12.4159 18.7067 12.1672 18.8437C12.039 18.9147 11.9083 18.9807 11.7749 19.0416C11.7442 19.0568 11.7134 19.0695 11.6826 19.0822C11.6673 19.0898 11.6519 19.0949 11.6365 19.1025C11.6416 19.0999 11.6903 19.0796 11.6493 19.0974C11.575 19.1278 11.5006 19.1557 11.4263 19.1837C11.1494 19.2826 10.8674 19.3612 10.5802 19.4196C10.511 19.4323 10.4418 19.4449 10.3726 19.4576C10.3315 19.4652 10.2905 19.4703 10.2521 19.4754C10.2059 19.483 10.2598 19.4754 10.2674 19.4728C10.2444 19.4754 10.2213 19.4779 10.1982 19.4805C10.0495 19.4982 9.90339 19.5084 9.75469 19.5134C9.44447 19.5261 9.13426 19.5134 8.82404 19.4779C8.80609 19.4754 8.78815 19.4728 8.7702 19.4703C8.77533 19.4703 8.83173 19.4779 8.78558 19.4728C8.74969 19.4678 8.71636 19.4627 8.68047 19.4576C8.60612 19.4449 8.53177 19.4323 8.45742 19.417C8.31128 19.3866 8.16259 19.3536 8.01901 19.313C7.87544 19.2724 7.73444 19.2268 7.59343 19.176C7.52933 19.1532 7.46524 19.1278 7.40114 19.1025C7.33192 19.0746 7.43447 19.1177 7.36781 19.0873C7.33192 19.072 7.29603 19.0543 7.26014 19.0391C6.9935 18.9173 6.73713 18.7778 6.491 18.6179C6.37307 18.5418 6.26026 18.4607 6.14746 18.3769C6.20643 18.4226 6.12182 18.3567 6.10644 18.344C6.0808 18.3237 6.05516 18.3008 6.02952 18.2806C5.97312 18.2349 5.91928 18.1867 5.86544 18.1385C5.65009 17.9457 5.44755 17.7377 5.26039 17.517C5.23988 17.4916 5.21681 17.4662 5.1963 17.4409C5.18091 17.4231 5.13477 17.3622 5.17322 17.413C5.12964 17.3546 5.08606 17.2963 5.04503 17.2379C4.96043 17.1187 4.88095 16.9995 4.8066 16.8752C4.73225 16.7509 4.66047 16.624 4.59381 16.4947C4.56304 16.4338 4.53484 16.3729 4.50664 16.312C4.49126 16.2816 4.47844 16.2511 4.46562 16.2207C4.45793 16.2055 4.4528 16.1902 4.44511 16.175C4.46049 16.2105 4.45793 16.2029 4.44511 16.1725C4.33487 15.8985 4.24257 15.6195 4.17335 15.3303C4.14002 15.1907 4.11182 15.0487 4.08875 14.9066C4.08362 14.8711 4.07849 14.8381 4.07336 14.8026C4.06567 14.7569 4.07336 14.8102 4.07593 14.8178C4.07336 14.795 4.0708 14.7722 4.06824 14.7493C4.06054 14.6732 4.05285 14.5971 4.04516 14.521C4.02209 14.2191 4.02209 13.9173 4.04773 13.6154C4.05285 13.5393 4.06054 13.4632 4.0708 13.3896C4.07336 13.3719 4.07593 13.3541 4.07849 13.3363C4.07849 13.3414 4.0708 13.3972 4.07593 13.3516C4.08105 13.311 4.08875 13.2704 4.09387 13.2323C4.11951 13.0852 4.14771 12.9381 4.18361 12.7935C4.25283 12.5119 4.34512 12.2379 4.45537 11.969C4.47075 11.9284 4.4528 11.9766 4.45024 11.9817C4.45793 11.9665 4.46306 11.9513 4.47075 11.936C4.48357 11.9056 4.49895 11.8752 4.51177 11.8447C4.5451 11.7737 4.57843 11.7027 4.61432 11.6342C4.67841 11.5099 4.74764 11.3881 4.81942 11.2689C4.89377 11.1446 4.97581 11.0253 5.06042 10.9061C5.09887 10.8528 5.13989 10.797 5.18091 10.7463C5.14246 10.797 5.18861 10.7361 5.20399 10.7184C5.23219 10.6829 5.26039 10.6499 5.28859 10.6144C5.47062 10.3987 5.6706 10.1958 5.88339 10.0055C5.93466 9.96241 5.98338 9.91675 6.03722 9.87616C6.06285 9.85587 6.08849 9.83304 6.11413 9.81274C6.12695 9.8026 6.13977 9.79245 6.15259 9.7823C6.23719 9.71635 6.11926 9.80767 6.16797 9.76962C6.28077 9.6859 6.39358 9.60473 6.51151 9.53116C6.75764 9.37388 7.01401 9.23182 7.28065 9.11259C7.31141 9.09737 7.34218 9.08468 7.37294 9.072C7.4396 9.04156 7.33705 9.08469 7.40627 9.05678C7.47549 9.02888 7.54472 9.00351 7.61394 8.97814C7.75495 8.9274 7.89595 8.88174 8.03952 8.84369C8.1831 8.8031 8.33179 8.77012 8.47793 8.73968C8.54715 8.727 8.61637 8.71431 8.6856 8.70417C8.72149 8.69909 8.75482 8.69402 8.79071 8.68895C8.83686 8.68134 8.78302 8.68895 8.77533 8.69148C8.7984 8.68895 8.82148 8.68641 8.84455 8.68387C9.1522 8.64836 9.46498 8.63821 9.7752 8.65089C9.9239 8.65597 10.0726 8.66865 10.2187 8.68641C10.2367 8.68895 10.2546 8.69148 10.2726 8.69402C10.2674 8.69402 10.211 8.68641 10.2572 8.69148C10.2982 8.69656 10.3392 8.70417 10.3777 8.70924C10.452 8.72192 10.5264 8.73461 10.6007 8.74983C10.8879 8.80817 11.1725 8.88682 11.4468 8.98829C11.516 9.01365 11.5852 9.04156 11.6544 9.06693C11.6955 9.08215 11.6468 9.06439 11.6416 9.06185C11.657 9.06946 11.6724 9.07454 11.6878 9.08215C11.7237 9.09737 11.7596 9.11513 11.7955 9.13035C11.9288 9.19123 12.0595 9.25719 12.1877 9.32822C12.3108 9.39671 12.4313 9.46774 12.5492 9.54384C12.6107 9.58443 12.6697 9.62502 12.7312 9.66561C12.7594 9.6859 12.7851 9.70366 12.8133 9.72396C12.8261 9.7341 12.8415 9.74425 12.8543 9.7544C12.8594 9.75947 12.9158 9.80006 12.8825 9.77469C12.8543 9.7544 12.9235 9.80767 12.9363 9.81782C12.962 9.83811 12.9876 9.86094 13.0132 9.88124C13.0722 9.93197 13.1337 9.98271 13.1902 10.0334C13.2927 10.1273 13.3953 10.2237 13.4901 10.3226C13.5901 10.4266 13.6875 10.5332 13.7798 10.6448C13.8003 10.6702 13.8234 10.6955 13.8439 10.7209C13.8593 10.7387 13.9054 10.7996 13.867 10.7488C13.9157 10.8097 13.9618 10.8731 14.0054 10.9365C14.1695 11.1699 14.3182 11.4135 14.4464 11.6671C14.4772 11.728 14.5054 11.7889 14.5336 11.8498C14.549 11.8853 14.5669 11.9208 14.5823 11.9563C14.5848 11.9614 14.6054 12.0121 14.59 11.9741C14.5746 11.936 14.6002 11.9995 14.6028 12.0071C14.6566 12.139 14.7053 12.2709 14.7489 12.4053C14.8412 12.6895 14.9104 12.9787 14.9566 13.2729C14.9617 13.3084 14.9668 13.3414 14.972 13.3769C14.9617 13.311 14.972 13.3896 14.9771 13.415C14.9848 13.4835 14.9925 13.5545 14.9976 13.6255C15.0027 13.7651 15.0079 13.9198 15.0079 14.072C15.0079 14.2699 15.1848 14.4627 15.3924 14.4525C15.6001 14.4424 15.777 14.2851 15.777 14.072C15.7719 12.8011 15.3796 11.5352 14.631 10.5002C13.8849 9.46774 12.8466 8.6788 11.6416 8.24247C10.4238 7.80107 9.05478 7.75794 7.80878 8.10548C6.60381 8.44288 5.49626 9.1481 4.69893 10.107C3.86826 11.104 3.36832 12.3216 3.26577 13.6103C3.16579 14.8787 3.47857 16.1776 4.14259 17.2658C4.78866 18.3237 5.75776 19.1913 6.89608 19.7012C8.11131 20.2466 9.46755 20.4013 10.7776 20.14C12.0108 19.894 13.1671 19.2572 14.0362 18.3567C14.9053 17.4586 15.5027 16.2968 15.695 15.0664C15.7462 14.7367 15.777 14.4043 15.777 14.0695C15.777 13.8716 15.6001 13.6788 15.3924 13.689C15.1848 13.7016 15.0104 13.8589 15.0079 14.072Z" fill="#273951"/>
<path d="M15.0051 14.0698C15.0051 14.1003 15.0025 14.1332 14.9999 14.1637C14.9974 14.222 15.0025 14.1206 15.0076 14.118C14.9999 14.1256 15.0025 14.1535 14.9999 14.1637C14.9923 14.1916 14.9871 14.2195 14.9794 14.2449C14.9743 14.2601 14.9692 14.2753 14.964 14.2905C14.9358 14.3768 14.9564 14.2778 14.9717 14.2804C14.9692 14.2804 14.8948 14.425 14.8871 14.4402C14.8692 14.4706 14.8461 14.4985 14.8282 14.5264C14.8102 14.5544 14.8205 14.5645 14.8487 14.5011C14.841 14.5163 14.8179 14.5391 14.8077 14.5518C14.7589 14.6076 14.7077 14.6584 14.6564 14.7091C14.6308 14.7345 14.6026 14.7573 14.5744 14.7827C14.559 14.7953 14.541 14.808 14.5256 14.8233C14.459 14.8791 14.5513 14.808 14.5231 14.8258C14.3744 14.9273 14.2257 15.0287 14.0667 15.115C13.9873 15.1581 13.9052 15.1987 13.8206 15.2393C13.7719 15.2621 13.7232 15.2824 13.6745 15.3052C13.654 15.3129 13.6334 15.323 13.6155 15.3306C13.6924 15.2976 13.6027 15.3357 13.5847 15.3433C13.3668 15.4295 13.1438 15.5056 12.9207 15.5716C12.431 15.7162 11.926 15.8177 11.4209 15.8912C11.2081 15.9217 10.8928 15.9547 10.6287 15.975C10.3287 15.9978 10.0288 16.0105 9.72881 16.0155C9.13915 16.0232 8.54691 15.9978 7.95981 15.9344C7.48551 15.8836 6.94455 15.7898 6.43692 15.6604C6.20618 15.602 5.97544 15.5336 5.74983 15.4549C5.64728 15.4194 5.54473 15.3813 5.44474 15.3408C5.42423 15.3331 5.40372 15.323 5.38321 15.3154C5.455 15.3458 5.38834 15.3179 5.37039 15.3103C5.31655 15.2875 5.26271 15.2621 5.21144 15.2393C5.04223 15.1606 4.87558 15.0719 4.71919 14.9704C4.64484 14.9222 4.57049 14.8715 4.49871 14.8182C4.56537 14.8664 4.50896 14.8233 4.4782 14.7979C4.43974 14.7674 4.40385 14.7345 4.36796 14.7015C4.31668 14.6533 4.27053 14.6051 4.22438 14.5518C4.21156 14.5391 4.20131 14.5239 4.18849 14.5087C4.15516 14.4706 4.24233 14.5899 4.20131 14.5264C4.18336 14.496 4.16029 14.4706 4.14234 14.4402C4.1244 14.4123 4.10645 14.3818 4.09107 14.3514C4.08081 14.3336 4.04236 14.2423 4.06799 14.3083C4.0962 14.3768 4.0603 14.2804 4.05261 14.2626C4.04236 14.2296 4.03466 14.1967 4.02697 14.1611C4.00134 14.0571 4.02697 14.2144 4.02441 14.1611C4.02441 14.1307 4.01928 14.1003 4.01928 14.0673C4.01928 14.0394 4.02185 14.0115 4.02185 13.9836C4.02441 13.9252 4.04492 13.9861 4.01672 14.0191C4.02185 14.0115 4.02441 13.9734 4.02697 13.9633C4.0321 13.943 4.08338 13.8085 4.07825 13.8009C4.09107 13.8161 4.0321 13.8922 4.07056 13.8212C4.07568 13.8085 4.08338 13.7984 4.0885 13.7857C4.10645 13.7527 4.1244 13.7197 4.14491 13.6893C4.16285 13.6639 4.1808 13.6386 4.19875 13.6107C4.23207 13.5574 4.17824 13.6335 4.17824 13.636C4.18593 13.6183 4.209 13.6005 4.21926 13.5853C4.27053 13.5269 4.32437 13.4711 4.38077 13.4204C4.40641 13.395 4.43461 13.3722 4.46282 13.3468C4.48333 13.3316 4.58075 13.2555 4.49358 13.3189C4.56537 13.2657 4.63715 13.2149 4.71407 13.1667C4.88071 13.0602 5.05505 12.9689 5.23451 12.8851C5.27297 12.8674 5.31143 12.8496 5.34988 12.8319C5.36014 12.8268 5.46012 12.7862 5.37808 12.8192C5.39859 12.8116 5.4191 12.8014 5.43961 12.7938C5.54473 12.7507 5.65241 12.7126 5.76009 12.6746C6.23182 12.5122 6.71894 12.3955 7.21118 12.3093C8.29823 12.1165 9.49551 12.0759 10.6441 12.1647C11.1953 12.2078 11.6568 12.2687 12.208 12.3879C12.6746 12.4869 13.1361 12.6188 13.5796 12.7938C13.577 12.7938 13.6796 12.8344 13.6258 12.8116C13.5719 12.7887 13.6719 12.8319 13.6693 12.8319C13.7129 12.8522 13.7565 12.8699 13.8001 12.8902C13.8975 12.9359 13.9924 12.9841 14.0847 13.0348C14.2385 13.1185 14.3846 13.2149 14.5256 13.3164C14.4359 13.2504 14.5462 13.3342 14.5667 13.3519C14.5923 13.3722 14.6154 13.395 14.6384 13.4153C14.6974 13.4711 14.7538 13.5269 14.8077 13.5878C14.8102 13.5929 14.8436 13.6284 14.8436 13.631C14.841 13.6335 14.7871 13.5498 14.823 13.6056C14.8436 13.6335 14.8641 13.6614 14.882 13.6918C14.8974 13.7172 14.9128 13.7451 14.9282 13.7705C14.9358 13.7857 14.9435 13.8009 14.9512 13.8136C14.9871 13.8796 14.9307 13.8085 14.9435 13.7933C14.9384 13.7984 14.9923 13.9404 14.9948 13.9557C14.9974 13.9709 14.9999 13.9861 15.0025 14.0013C15.0179 14.047 14.9948 13.8948 14.9974 13.9658C15.0025 14.0089 15.0051 14.0394 15.0051 14.0698C15.0076 14.2677 15.1794 14.4605 15.3896 14.4503C15.5973 14.4402 15.7768 14.2829 15.7742 14.0698C15.7665 13.3139 15.1435 12.7608 14.5256 12.4133C13.6488 11.9186 12.631 11.6675 11.6388 11.5229C10.3903 11.3428 9.11864 11.3149 7.86495 11.4595C6.79073 11.5838 5.70625 11.8095 4.72945 12.2865C4.11671 12.5883 3.40398 13.083 3.27322 13.8009C3.13221 14.5594 3.63471 15.1606 4.22951 15.5665C5.02685 16.1069 6.02159 16.3808 6.9625 16.5508C8.19311 16.774 9.45962 16.8273 10.7082 16.7258C11.8209 16.6345 12.9361 16.4316 13.9667 15.9978C14.6615 15.7061 15.4153 15.2596 15.6922 14.5214C15.746 14.3793 15.7716 14.222 15.7716 14.0698C15.7742 13.872 15.5922 13.6792 15.3871 13.6893C15.1794 13.6995 15.0076 13.8567 15.0051 14.0698Z" fill="#273951"/>
<path d="M9.5144 8.63558C9.54517 8.63558 9.5785 8.63811 9.60926 8.64065C9.66823 8.64319 9.56568 8.63811 9.56311 8.63304C9.57081 8.64065 9.59901 8.63811 9.60926 8.64065C9.63746 8.64826 9.66567 8.65333 9.6913 8.66094C9.70669 8.66602 9.72207 8.67109 9.73745 8.67617C9.82462 8.70407 9.72463 8.68378 9.7272 8.66855C9.7272 8.67109 9.87333 8.74466 9.88871 8.75227C9.91948 8.77003 9.94768 8.79286 9.97588 8.81062C10.0041 8.82837 10.0143 8.81823 9.95024 8.79032C9.96563 8.79793 9.9887 8.82076 10.0015 8.83091C10.0579 8.87911 10.1092 8.92984 10.1605 8.98058C10.1861 9.00595 10.2092 9.03385 10.2348 9.06176C10.2476 9.07698 10.2605 9.09474 10.2758 9.10996C10.3322 9.17591 10.2605 9.08459 10.2784 9.11249C10.381 9.25963 10.4835 9.40676 10.5707 9.56404C10.6143 9.64268 10.6553 9.72386 10.6963 9.80757C10.7194 9.85577 10.7399 9.90397 10.763 9.95217C10.7707 9.97247 10.7809 9.99276 10.7886 10.0105C10.7553 9.93441 10.7937 10.0232 10.8014 10.041C10.8886 10.2566 10.9655 10.4773 11.0322 10.698C11.1783 11.1825 11.2808 11.6823 11.3552 12.182C11.386 12.3926 11.4193 12.7046 11.4398 12.9659C11.4629 13.2627 11.4757 13.5595 11.4808 13.8563C11.4885 14.4398 11.4629 15.0258 11.3988 15.6067C11.3475 16.076 11.2526 16.6113 11.1219 17.1135C11.0629 17.3419 10.9937 17.5702 10.9142 17.7934C10.8783 17.8949 10.8399 17.9963 10.7989 18.0953C10.7912 18.1156 10.7809 18.1359 10.7732 18.1562C10.804 18.0851 10.7758 18.1511 10.7681 18.1688C10.745 18.2221 10.7194 18.2754 10.6963 18.3261C10.6168 18.4936 10.5271 18.6584 10.4245 18.8132C10.3758 18.8868 10.3246 18.9603 10.2707 19.0314C10.3194 18.9654 10.2758 19.0212 10.2502 19.0516C10.2194 19.0897 10.1861 19.1252 10.1528 19.1607C10.1041 19.2115 10.0554 19.2571 10.0015 19.3028C9.9887 19.3155 9.97332 19.3256 9.95794 19.3383C9.91948 19.3713 10.04 19.285 9.97588 19.3256C9.94512 19.3434 9.91948 19.3662 9.88871 19.384C9.86051 19.4017 9.82975 19.4195 9.79898 19.4347C9.78103 19.4449 9.68874 19.4829 9.7554 19.4575C9.82462 19.4296 9.7272 19.4651 9.70925 19.4728C9.67592 19.4829 9.64259 19.4905 9.6067 19.4981C9.50158 19.5235 9.66054 19.4981 9.6067 19.5007C9.57593 19.5007 9.54517 19.5057 9.51184 19.5057C9.48364 19.5057 9.45544 19.5032 9.42723 19.5032C9.36827 19.5007 9.4298 19.4804 9.46313 19.5083C9.45544 19.5032 9.41698 19.5007 9.40672 19.4981C9.38621 19.4931 9.25033 19.4423 9.24264 19.4474C9.25802 19.4347 9.33494 19.4931 9.26315 19.455C9.25033 19.4499 9.24008 19.4423 9.22726 19.4372C9.19393 19.4195 9.1606 19.4017 9.12984 19.3814C9.1042 19.3637 9.07856 19.3459 9.05036 19.3282C8.99652 19.2952 9.07343 19.3485 9.076 19.3485C9.05805 19.3408 9.0401 19.318 9.02472 19.3079C8.96575 19.2571 8.90935 19.2039 8.85808 19.148C8.83244 19.1227 8.80936 19.0948 8.78373 19.0669C8.76834 19.0466 8.69143 18.9502 8.75552 19.0364C8.70169 18.9654 8.65041 18.8944 8.6017 18.8183C8.49402 18.6534 8.40172 18.4809 8.31712 18.3033C8.29917 18.2652 8.28123 18.2272 8.26328 18.1891C8.25815 18.179 8.21713 18.0801 8.25046 18.1612C8.24277 18.1409 8.23251 18.1206 8.22482 18.1004C8.18124 17.9963 8.14278 17.8898 8.10433 17.7833C7.94024 17.3165 7.82231 16.8345 7.73514 16.3474C7.5403 15.2718 7.49927 14.0871 7.58901 12.9507C7.63259 12.4053 7.69412 11.9486 7.81462 11.4032C7.91461 10.9415 8.04792 10.4849 8.22482 10.046C8.22482 10.0486 8.26584 9.9471 8.24277 10.0004C8.2197 10.0536 8.26328 9.95471 8.26328 9.95725C8.28379 9.91412 8.30174 9.87099 8.32225 9.82787C8.36839 9.73147 8.41711 9.63761 8.46838 9.54629C8.55299 9.39408 8.65041 9.24948 8.75296 9.10996C8.6863 9.19874 8.77091 9.08966 8.78885 9.06937C8.80936 9.044 8.83244 9.02117 8.85295 8.99834C8.90935 8.93999 8.96575 8.88418 9.02729 8.83091C9.03241 8.82837 9.06831 8.79539 9.07087 8.79539C9.07343 8.79793 8.98883 8.8512 9.04523 8.81569C9.07343 8.79539 9.10163 8.7751 9.1324 8.75734C9.15804 8.74212 9.18624 8.7269 9.21188 8.71168C9.22726 8.70407 9.24264 8.69646 9.25546 8.68885C9.32212 8.65333 9.25033 8.70914 9.23495 8.69646C9.24008 8.70153 9.38365 8.64826 9.39903 8.64572C9.41442 8.64319 9.4298 8.64065 9.44518 8.63811C9.49133 8.62289 9.3375 8.64572 9.40929 8.64319C9.45031 8.64065 9.48364 8.63558 9.5144 8.63558C9.71438 8.63304 9.90922 8.46307 9.89897 8.25506C9.88871 8.04958 9.72976 7.872 9.5144 7.87454C8.7504 7.88215 8.19149 8.49859 7.84026 9.10996C7.34032 9.97754 7.08651 10.9846 6.94037 11.9664C6.75834 13.2018 6.73014 14.4601 6.87628 15.7005C7.0019 16.7635 7.23008 17.8365 7.71207 18.803C8.01716 19.4093 8.51709 20.1146 9.24264 20.2439C10.0092 20.3835 10.6168 19.8863 11.027 19.2977C11.5731 18.5088 11.85 17.5245 12.0218 16.5935C12.2474 15.3758 12.3012 14.1227 12.1987 12.8872C12.1064 11.7863 11.9013 10.6828 11.4629 9.66298C11.168 8.97551 10.7168 8.22969 9.97075 7.95572C9.82718 7.90244 9.66823 7.87708 9.5144 7.87708C9.31443 7.87454 9.11958 8.05465 9.12984 8.25759C9.14009 8.46307 9.29905 8.63304 9.5144 8.63558Z" fill="#273951"/>
<path d="M18.2541 5.16197C18.2541 5.31418 18.2541 5.46892 18.2541 5.62113C18.2541 6.04224 18.2541 6.46335 18.2541 6.88445C18.2541 7.50597 18.2541 8.12748 18.2541 8.749C18.2541 9.51003 18.2541 10.2685 18.2541 11.0296C18.2541 11.8692 18.2541 12.7089 18.2541 13.5486C18.2541 14.3959 18.2541 15.2457 18.2541 16.093C18.2541 16.8896 18.2541 17.6886 18.2541 18.4852C18.2541 19.1727 18.2541 19.8601 18.2541 20.5476C18.2541 21.055 18.2541 21.5623 18.2541 22.0671C18.2541 22.3335 18.2541 22.6024 18.2541 22.8688C18.2541 22.8916 18.2541 22.9119 18.2541 22.9347C18.2541 22.9373 18.2541 22.9423 18.2541 22.9449C18.2541 22.9855 18.2515 23.0261 18.249 23.0692C18.2438 23.1148 18.249 23.059 18.2515 23.054C18.249 23.0717 18.2464 23.0869 18.2413 23.1047C18.2336 23.1427 18.2233 23.1808 18.2105 23.2189C18.2028 23.2417 18.1746 23.3153 18.2003 23.2544C18.1874 23.2848 18.1721 23.3153 18.1567 23.3432C18.1387 23.3761 18.1182 23.4091 18.0951 23.4421C18.0875 23.4573 18.0772 23.47 18.0669 23.4827C18.0875 23.4522 18.0875 23.4598 18.0644 23.4827C18.0182 23.5309 17.9721 23.5765 17.9234 23.6222C17.8721 23.6679 17.9541 23.607 17.8952 23.6425C17.8618 23.6628 17.8285 23.6856 17.7952 23.7034C17.767 23.7186 17.7362 23.7338 17.7055 23.749C17.6644 23.7668 17.7131 23.744 17.7183 23.744C17.7029 23.749 17.6875 23.7567 17.6696 23.7617C17.6362 23.7719 17.6029 23.782 17.5696 23.7896C17.5465 23.7947 17.4439 23.8099 17.5183 23.8023C17.4696 23.8074 17.4209 23.8099 17.3722 23.8099C17.1671 23.8125 16.962 23.8099 16.7569 23.8099C16.2646 23.8099 15.7698 23.8099 15.2776 23.8099C14.5802 23.8099 13.8803 23.8099 13.1829 23.8099C12.3574 23.8099 11.5344 23.8099 10.7089 23.8099C9.85004 23.8099 8.99117 23.8099 8.13231 23.8099C7.31702 23.8099 6.50174 23.8099 5.68646 23.8099C4.9968 23.8099 4.30458 23.8099 3.61493 23.8099C3.13806 23.8099 2.66377 23.8099 2.1869 23.8099C2.00487 23.8099 1.82285 23.8125 1.64082 23.8099C1.63056 23.8099 1.61518 23.8099 1.60493 23.8099C1.58185 23.8099 1.55878 23.8074 1.53314 23.8049C1.52801 23.8049 1.46905 23.7972 1.51519 23.8023C1.55365 23.8074 1.46135 23.7896 1.44597 23.7871C1.40751 23.7769 1.36906 23.7643 1.3306 23.7541C1.26138 23.7364 1.3588 23.7744 1.29727 23.7414C1.26651 23.7262 1.23574 23.711 1.20754 23.6958C1.17934 23.678 1.15114 23.6603 1.12293 23.6425C1.11781 23.64 1.07422 23.607 1.10755 23.6324C1.14088 23.6577 1.08704 23.6146 1.08191 23.6095C1.0332 23.5639 0.987055 23.5182 0.94347 23.4675C0.915269 23.4345 0.948598 23.4751 0.951162 23.4801C0.940907 23.4675 0.930652 23.4522 0.92296 23.4396C0.90245 23.4066 0.88194 23.3736 0.86143 23.3406C0.846047 23.3102 0.830664 23.2823 0.817845 23.2518C0.843483 23.3127 0.815282 23.2391 0.80759 23.2163C0.797335 23.1833 0.78708 23.1504 0.781952 23.1174C0.776825 23.0945 0.771697 23.0717 0.769133 23.0489C0.776825 23.0869 0.771697 23.0819 0.769133 23.0464C0.764006 22.9753 0.764006 22.9068 0.764006 22.8358C0.764006 22.5491 0.764006 22.265 0.764006 21.9784C0.764006 21.4583 0.764006 20.9357 0.764006 20.4157C0.764006 19.7181 0.764006 19.023 0.764006 18.3254C0.764006 17.5238 0.764006 16.7196 0.764006 15.918C0.764006 15.0681 0.764006 14.2183 0.764006 13.371C0.764006 12.5339 0.764006 11.6967 0.764006 10.8621C0.764006 10.1087 0.764006 9.35529 0.764006 8.6044C0.764006 7.99303 0.764006 7.3842 0.764006 6.77283C0.764006 6.36695 0.764006 5.95852 0.764006 5.55264C0.764006 5.44863 0.764006 5.34208 0.764006 5.23808C0.764006 5.21271 0.764006 5.18734 0.764006 5.16451C0.764006 5.07826 0.76657 5.05035 0.781952 4.97932C0.792207 4.93873 0.805026 4.90068 0.815282 4.86009C0.815282 4.86263 0.838355 4.79921 0.825537 4.82965C0.812718 4.86009 0.840919 4.79921 0.838355 4.80175C0.856302 4.76623 0.876812 4.73072 0.897322 4.69774C0.907578 4.67998 0.920396 4.66476 0.930652 4.647C0.966545 4.59119 0.894759 4.68759 0.938343 4.63686C0.989619 4.57597 1.04602 4.51763 1.11012 4.46689C1.14601 4.43899 1.12037 4.46182 1.11268 4.46689C1.12806 4.45421 1.14601 4.44406 1.16396 4.43391C1.20498 4.40855 1.246 4.38571 1.28958 4.36542C1.246 4.38571 1.36649 4.33751 1.38188 4.33244C1.42802 4.31976 1.47417 4.30707 1.52032 4.29946C1.54339 4.29693 1.60236 4.29439 1.6562 4.29439C1.65876 4.29439 1.66389 4.29439 1.66646 4.29439C1.73824 4.29439 1.80746 4.29439 1.87925 4.29439C2.25612 4.29439 2.63556 4.29439 3.01244 4.29439C3.63031 4.29439 4.25074 4.29439 4.86861 4.29439C5.64544 4.29439 6.42226 4.29439 7.19909 4.29439C8.05539 4.29439 8.91169 4.29439 9.77056 4.29439C10.614 4.29439 11.4601 4.29439 12.3036 4.29439C13.0573 4.29439 13.8085 4.29439 14.5623 4.29439C15.1417 4.29439 15.7185 4.29439 16.2979 4.29439C16.6184 4.29439 16.9414 4.29439 17.2619 4.29439C17.3337 4.29439 17.4081 4.29439 17.4798 4.29946C17.5542 4.30454 17.4439 4.28932 17.5157 4.30454C17.5491 4.31215 17.5824 4.31976 17.6157 4.32737C17.649 4.33751 17.6798 4.34766 17.7131 4.36035C17.6516 4.34005 17.7234 4.36542 17.7439 4.37557C17.8029 4.40601 17.8618 4.44152 17.9157 4.47957C17.8644 4.44152 17.9234 4.48719 17.9413 4.50241C17.967 4.52524 17.99 4.54807 18.0131 4.5709C18.0259 4.58358 18.09 4.65969 18.0695 4.63432C18.049 4.60641 18.0977 4.67744 18.1054 4.69013C18.1233 4.71803 18.1387 4.74594 18.1567 4.77638C18.1644 4.7916 18.2003 4.87024 18.1874 4.83726C18.1746 4.80428 18.2028 4.888 18.208 4.90322C18.2182 4.9362 18.2259 4.96918 18.2336 5.00215C18.2362 5.01991 18.2413 5.03513 18.2438 5.05289C18.2438 5.04782 18.2387 4.99201 18.2413 5.03767C18.2515 5.08079 18.2541 5.12138 18.2541 5.16197C18.2567 5.35984 18.4284 5.55264 18.6387 5.54249C18.8438 5.53234 19.0258 5.37506 19.0232 5.16197C19.013 4.45928 18.5643 3.84538 17.8926 3.61707C17.7029 3.55111 17.5004 3.53589 17.2978 3.53589C16.9953 3.53589 16.6928 3.53589 16.3902 3.53589C15.8159 3.53589 15.2417 3.53589 14.6674 3.53589C13.9085 3.53589 13.1496 3.53589 12.3933 3.53589C11.5421 3.53589 10.691 3.53589 9.83978 3.53589C8.97322 3.53589 8.10923 3.53589 7.24267 3.53589C6.45303 3.53589 5.66339 3.53589 4.87374 3.53589C4.25074 3.53589 3.62518 3.53589 3.00218 3.53589C2.62531 3.53589 2.24843 3.53589 1.86899 3.53589C1.80234 3.53589 1.73311 3.53589 1.66646 3.53589C1.0332 3.54096 0.417896 3.89104 0.156391 4.47704C0.00256393 4.81951 0 5.14168 0 5.49937C0 5.89257 0 6.28577 0 6.68151C0 7.29034 0 7.89917 0 8.51054C0 9.2665 0 10.0199 0 10.7759C0 11.6181 0 12.4629 0 13.3051C0 14.1676 0 15.0301 0 15.8901C0 16.7018 0 17.5136 0 18.3254C0 19.0281 0 19.7333 0 20.436C0 20.9611 0 21.4888 0 22.0139C0 22.2955 0 22.577 0 22.8586C0 22.9931 0.00769126 23.125 0.0307653 23.262C0.143572 23.9089 0.710167 24.4568 1.36393 24.5532C1.61518 24.5913 1.87156 24.5786 2.12537 24.5786C2.58942 24.5786 3.05602 24.5786 3.52007 24.5786C4.20972 24.5786 4.89682 24.5786 5.58647 24.5786C6.40945 24.5786 7.23242 24.5786 8.05795 24.5786C8.92451 24.5786 9.79363 24.5786 10.6602 24.5786C11.4934 24.5786 12.3266 24.5786 13.1624 24.5786C13.87 24.5786 14.5802 24.5786 15.2878 24.5786C15.7826 24.5786 16.28 24.5786 16.7748 24.5786C16.9748 24.5786 17.1748 24.5811 17.3773 24.5786C17.9798 24.571 18.5618 24.2412 18.8361 23.7034C18.9643 23.4522 19.0232 23.1808 19.0232 22.8992C19.0232 22.6506 19.0232 22.3995 19.0232 22.1509C19.0232 21.6486 19.0232 21.1488 19.0232 20.6465C19.0232 19.9591 19.0232 19.2741 19.0232 18.5867C19.0232 17.785 19.0232 16.9809 19.0232 16.1793C19.0232 15.3193 19.0232 14.4593 19.0232 13.5993C19.0232 12.7495 19.0232 11.9022 19.0232 11.0524C19.0232 10.2838 19.0232 9.51764 19.0232 8.749C19.0232 8.11987 19.0232 7.49075 19.0232 6.86162C19.0232 6.44051 19.0232 6.02194 19.0232 5.60084C19.0232 5.4537 19.0232 5.30911 19.0232 5.16197C19.0232 4.9641 18.8463 4.77131 18.6387 4.78145C18.431 4.7916 18.2541 4.94888 18.2541 5.16197Z" fill="#273951"/>
<path d="M15.7899 1.00241C15.7899 1.85478 15.7899 2.70714 15.7899 3.5595C15.7899 3.67873 15.7899 3.80049 15.7899 3.91972C15.9181 3.79288 16.0463 3.66604 16.1745 3.5392C15.6873 3.5392 15.2002 3.5392 14.7131 3.5392C13.5466 3.5392 12.3775 3.5392 11.211 3.5392C9.81116 3.5392 8.4139 3.5392 7.01408 3.5392C5.80397 3.5392 4.59643 3.5392 3.38633 3.5392C2.81461 3.5392 2.24545 3.53413 1.67372 3.5392C1.60707 3.5392 1.54297 3.54428 1.47631 3.55189C1.50964 3.80049 1.54554 4.0491 1.57887 4.30024C2.06598 4.18101 2.55054 4.05417 3.03765 3.92987C4.19905 3.6356 5.35787 3.3388 6.51927 3.04453C7.90114 2.69192 9.28558 2.34184 10.6675 1.98923C11.8186 1.69749 12.9697 1.40323 14.1209 1.1115C14.4619 1.02524 14.8003 0.938994 15.1413 0.852743C15.231 0.829912 15.3233 0.80708 15.413 0.784249C15.4335 0.779176 15.454 0.774102 15.4745 0.769029C15.4797 0.769029 15.4822 0.766492 15.4874 0.766492C15.4874 0.766492 15.4874 0.766492 15.4899 0.766492C15.5874 0.738587 15.4284 0.758881 15.5284 0.761418C15.5489 0.761418 15.6386 0.779176 15.5617 0.758881C15.595 0.766492 15.6258 0.774102 15.6591 0.784249C15.6386 0.776639 15.6027 0.751271 15.6566 0.786786C15.6668 0.794397 15.7489 0.857816 15.6873 0.802007C15.7027 0.817228 15.7181 0.832448 15.736 0.847669C15.8001 0.906015 15.7181 0.796933 15.7566 0.875574C15.7668 0.895868 15.7796 0.913626 15.7873 0.93392C15.7514 0.857816 15.7899 0.959288 15.7925 0.969435C15.8181 1.0633 15.7873 0.895868 15.7899 1.00241C15.795 1.20028 15.9617 1.39308 16.1745 1.38293C16.377 1.37278 16.5642 1.2155 16.559 1.00241C16.5411 0.340311 15.9309 -0.121385 15.2797 0.0282855C15.2412 0.0384327 15.2002 0.0485799 15.1618 0.058727C14.8951 0.12722 14.6259 0.195714 14.3593 0.264207C13.2851 0.538181 12.2134 0.809617 11.1392 1.08359C9.7445 1.43874 8.3498 1.79389 6.95255 2.14904C5.70911 2.46614 4.46824 2.7807 3.22481 3.0978C2.61976 3.25255 2.00958 3.38953 1.40966 3.5595C1.3994 3.56204 1.38658 3.56457 1.37633 3.56711C1.18917 3.61277 1.07636 3.80303 1.102 3.98568C1.12508 4.15565 1.28916 4.33829 1.47888 4.31546C1.65834 4.29517 1.84037 4.30278 2.01983 4.30278C2.36594 4.30278 2.70949 4.30278 3.0556 4.30278C4.21187 4.30278 5.36813 4.30278 6.52439 4.30278C7.92165 4.30278 9.32148 4.30278 10.7187 4.30278C11.9391 4.30278 13.1569 4.30278 14.3772 4.30278C14.9669 4.30278 15.5617 4.318 16.1514 4.30278C16.1591 4.30278 16.1668 4.30278 16.177 4.30278C16.3847 4.30278 16.5616 4.12774 16.5616 3.92226C16.5616 3.0699 16.5616 2.21754 16.5616 1.36517C16.5616 1.24595 16.5616 1.12418 16.5616 1.00495C16.5616 0.807081 16.3847 0.614284 16.177 0.624431C15.9668 0.629505 15.7899 0.789323 15.7899 1.00241Z" fill="#273951"/>
</svg>
