<svg id="_x31__x2C_5" enable-background="new 0 0 24 24" height="512" viewBox="0 0 24 24" width="512" xmlns="http://www.w3.org/2000/svg"><g><path d="m17.12 19h-10.24c-.365 0-.676-.263-.739-.621l-1.13-6.5c-.047-.27.056-.542.269-.713.212-.172.5-.212.754-.11l3.065 1.252 2.25-3.931c.268-.467 1.034-.467 1.302 0l2.25 3.931 3.065-1.252c.254-.102.541-.062.754.11.212.171.315.443.269.713l-1.13 6.5c-.063.358-.375.621-.739.621zm-9.609-1.5h8.978l.79-4.543-2.419.987c-.349.143-.748.004-.935-.321l-1.925-3.363-1.925 3.363c-.187.325-.585.464-.935.321l-2.419-.987z"/></g><g><path d="m21.25 23h-18.5c-1.517 0-2.75-1.233-2.75-2.75v-16.5c0-1.517 1.233-2.75 2.75-2.75h18.5c1.517 0 2.75 1.233 2.75 2.75v16.5c0 1.517-1.233 2.75-2.75 2.75zm-18.5-20.5c-.689 0-1.25.561-1.25 1.25v16.5c0 .689.561 1.25 1.25 1.25h18.5c.689 0 1.25-.561 1.25-1.25v-16.5c0-.689-.561-1.25-1.25-1.25z"/></g><g><path d="m23.25 6h-22.5c-.414 0-.75-.336-.75-.75s.336-.75.75-.75h22.5c.414 0 .75.336.75.75s-.336.75-.75.75z"/></g></svg>