<svg width="25" height="25" viewBox="0 0 25 25" fill="none" xmlns="http://www.w3.org/2000/svg">
<rect x="0.5" y="3.76086" width="20.7391" height="20.7391" rx="0.5" stroke="#5F6D83"/>
<path d="M6.78254 13.9915C7.29404 13.9919 7.7942 13.8371 8.21973 13.5464C8.64526 13.2557 8.97705 12.8424 9.17312 12.3586C9.3692 11.8748 9.42074 11.3423 9.32124 10.8285C9.22174 10.3147 8.97567 9.84265 8.61414 9.47209C8.25262 9.10154 7.7919 8.84911 7.29025 8.74674C6.78861 8.64437 6.26859 8.69666 5.79597 8.897C5.32336 9.09734 4.91938 9.43673 4.63516 9.87222C4.35093 10.3077 4.19922 10.8198 4.19922 11.3436C4.19985 12.0452 4.47215 12.718 4.95641 13.2143C5.44067 13.7107 6.09737 13.9902 6.78254 13.9915V13.9915ZM6.78254 9.92042C7.0574 9.92042 7.32609 10.0039 7.55463 10.1603C7.78317 10.3166 7.96129 10.5389 8.06648 10.799C8.17166 11.059 8.19918 11.3451 8.14556 11.6212C8.09194 11.8973 7.95958 12.1509 7.76522 12.3499C7.57086 12.5489 7.32324 12.6845 7.05366 12.7394C6.78408 12.7943 6.50465 12.7661 6.25071 12.6584C5.99677 12.5507 5.77972 12.3683 5.62702 12.1342C5.47431 11.9002 5.39281 11.625 5.39281 11.3436C5.39344 10.9663 5.54006 10.6047 5.80055 10.338C6.06103 10.0712 6.41415 9.92107 6.78254 9.92042V9.92042Z" fill="#5F6D83"/>
<path d="M3.30619 18.9741H10.2668C10.4254 18.9741 10.5775 18.9096 10.6896 18.7948C10.8018 18.6799 10.8648 18.5242 10.8648 18.3618V17.3428C10.8648 17.2521 10.8452 17.1626 10.8074 17.0807C10.418 16.3406 9.83578 15.7256 9.12553 15.3039C8.41528 14.8823 7.60477 14.6707 6.7841 14.6924C5.96422 14.6716 5.15473 14.8837 4.4454 15.3053C3.73608 15.7268 3.15465 16.3413 2.76561 17.0807C2.73105 17.1634 2.71472 17.2529 2.71777 17.3428V18.3667C2.719 18.5265 2.78124 18.6796 2.89119 18.7931C3.00114 18.9066 3.15008 18.9716 3.30619 18.9741V18.9741ZM3.90418 17.5044C4.20661 17.0049 4.63175 16.5955 5.13712 16.3169C5.6425 16.0384 6.21041 15.9006 6.7841 15.9172C7.3575 15.8994 7.92544 16.0359 8.43121 16.3131C8.93699 16.5903 9.36289 16.9986 9.66641 17.4971V17.742H3.91375L3.90418 17.5044Z" fill="#5F6D83"/>
<line x1="11.4131" y1="10.3695" x2="19.0218" y2="10.3695" stroke="#5F6D83"/>
<line x1="11.4131" y1="10.3695" x2="19.0218" y2="10.3695" stroke="#5F6D83"/>
<line x1="12.5" y1="13.6304" x2="19.0217" y2="13.6304" stroke="#5F6D83"/>
<line x1="13.5869" y1="16.8914" x2="19.0217" y2="16.8914" stroke="#5F6D83"/>
<mask id="mask0" mask-type="alpha" maskUnits="userSpaceOnUse" x="11" y="3" width="11" height="12">
<path d="M11.9565 3.26086H21.7392V14.1304H11.9565V3.26086Z" fill="#C4C4C4"/>
</mask>
<g mask="url(#mask0)">
</g>
<rect x="10.8695" y="3.26086" width="10.8696" height="10.8696" fill="white"/>
<path d="M13.5409 10.8696C13.5044 10.8696 13.4678 10.8655 13.4313 10.8559C13.2062 10.8022 13.0435 10.605 13.0435 10.3685V9.34866C13.0435 5.6936 15.9489 2.71976 19.5199 2.71976H19.6859V0.510041C19.6859 0.302016 19.8095 0.115031 19.9982 0.0368502C20.1861 -0.0405832 20.402 0.00622538 20.5428 0.156486L24.8605 4.74573C25.0465 4.94292 25.0465 5.25564 24.8605 5.45283L20.5428 10.0421C20.402 10.1923 20.1847 10.2386 19.9982 10.1617C19.8095 10.0835 19.6859 9.89654 19.6859 9.68852V7.47893H18.8968C16.8071 7.47893 14.9292 8.66732 13.9953 10.5799C13.9096 10.7567 13.7296 10.8696 13.5409 10.8696V10.8696ZM19.5199 3.73959C16.73 3.73959 14.4198 5.88457 14.0817 8.64827C15.2892 7.26953 17.0209 6.4591 18.8968 6.4591H20.1841C20.4591 6.4591 20.6823 6.68754 20.6823 6.96901V8.42394L23.8102 5.09928L20.6823 1.77462V3.22967C20.6823 3.51115 20.4591 3.73959 20.1841 3.73959H19.5199Z" fill="#5F6D83"/>
</svg>
