<svg width="25" height="25" viewBox="0 0 25 25" fill="none" xmlns="http://www.w3.org/2000/svg">
<g clip-path="url(#clip0)">
<path d="M5.19623 20.8158H20.834C21.4415 20.8158 21.917 20.3158 21.917 19.7368V1.07895C21.917 0.473684 21.4151 0 20.834 0H3.08302C2.47547 0 2 0.5 2 1.07895V21.8158C2 23.5789 3.42642 25 5.19623 25H20.834C21.4415 25 21.917 24.5 21.917 23.9211C21.917 23.3158 21.4151 22.8421 20.834 22.8421H5.19623C4.64151 22.8421 4.19245 22.3947 4.19245 21.8421C4.19245 21.2632 4.64151 20.8158 5.19623 20.8158ZM4.19245 2.18421H19.751V18.6316H5.19623C4.85283 18.6316 4.50944 18.6842 4.19245 18.7895V2.18421V2.18421Z" fill="#5F6D83"/>
</g>
<rect x="11" width="11" height="12" fill="white"/>
<path d="M13.3975 10.8696C13.361 10.8696 13.3244 10.8655 13.2879 10.8559C13.0628 10.8022 12.9 10.605 12.9 10.3685V9.34866C12.9 5.6936 15.8055 2.71976 19.3765 2.71976H19.5425V0.510041C19.5425 0.302016 19.6661 0.115031 19.8547 0.0368502C20.0426 -0.0405832 20.2585 0.00622538 20.3994 0.156486L24.7171 4.74573C24.903 4.94292 24.903 5.25564 24.7171 5.45283L20.3994 10.0421C20.2585 10.1923 20.0413 10.2386 19.8547 10.1617C19.6661 10.0835 19.5425 9.89654 19.5425 9.68852V7.47893H18.7534C16.6637 7.47893 14.7857 8.66732 13.8519 10.5799C13.7661 10.7567 13.5861 10.8696 13.3975 10.8696V10.8696ZM19.3765 3.73959C16.5866 3.73959 14.2764 5.88457 13.9382 8.64827C15.1458 7.26953 16.8775 6.4591 18.7534 6.4591H20.0407C20.3157 6.4591 20.5389 6.68754 20.5389 6.96901V8.42394L23.6668 5.09928L20.5389 1.77462V3.22967C20.5389 3.51115 20.3157 3.73959 20.0407 3.73959H19.3765Z" fill="#5F6D83"/>
<defs>
<clipPath id="clip0">
<rect width="25" height="25" fill="white"/>
</clipPath>
</defs>
</svg>
