<svg width="25" height="26" viewBox="0 0 25 26" fill="none" xmlns="http://www.w3.org/2000/svg">
<g clip-path="url(#clip0)">
<path d="M20.7542 11.9955H21.3335C21.4865 11.9965 21.6328 12.0579 21.7407 12.1665C21.8485 12.275 21.909 12.4218 21.909 12.5748V24.4015C21.909 24.4779 21.8939 24.5535 21.8646 24.624C21.8352 24.6946 21.7922 24.7586 21.7381 24.8124C21.6839 24.8663 21.6196 24.9089 21.5489 24.9378C21.4782 24.9666 21.4024 24.9813 21.326 24.9808H0.977341C0.823709 24.9808 0.67637 24.9197 0.567736 24.8111C0.459101 24.7025 0.398071 24.5551 0.398071 24.4015V3.23589C0.398071 3.08225 0.459101 2.93491 0.567736 2.82628C0.67637 2.71765 0.823709 2.65662 0.977341 2.65662H16.4282C16.5819 2.65662 16.7292 2.71765 16.8378 2.82628C16.9465 2.93491 17.0075 3.08225 17.0075 3.23589V3.81516C17.008 3.89154 16.9934 3.96726 16.9645 4.03797C16.9356 4.10868 16.893 4.17298 16.8392 4.22716C16.7853 4.28135 16.7213 4.32435 16.6508 4.35369C16.5803 4.38303 16.5046 4.39814 16.4282 4.39814H2.13959V23.2393H20.1749V12.5748C20.1749 12.4211 20.236 12.2738 20.3446 12.1651C20.4532 12.0565 20.6006 11.9955 20.7542 11.9955Z" fill="#5F6D83"/>
<path d="M8.64896 18.438L8.2405 18.0258C8.1865 17.972 8.14365 17.9081 8.11441 17.8377C8.08517 17.7672 8.07012 17.6918 8.07012 17.6155C8.07012 17.5393 8.08517 17.4638 8.11441 17.3934C8.14365 17.323 8.1865 17.259 8.2405 17.2052L20.4943 5.12966C20.5478 5.07577 20.6114 5.03299 20.6815 5.00381C20.7516 4.97462 20.8268 4.95959 20.9027 4.95959C20.9787 4.95959 21.0539 4.97462 21.124 5.00381C21.1941 5.03299 21.2577 5.07577 21.3112 5.12966L21.7197 5.54183C21.7737 5.59564 21.8165 5.65959 21.8457 5.73C21.875 5.80041 21.89 5.8759 21.89 5.95214C21.89 6.02838 21.875 6.10387 21.8457 6.17428C21.8165 6.2447 21.7737 6.30864 21.7197 6.36246L9.46588 18.438C9.41232 18.4925 9.34845 18.5357 9.278 18.5652C9.20756 18.5947 9.13194 18.6099 9.05556 18.6099C8.97918 18.6099 8.90357 18.5947 8.83312 18.5652C8.76267 18.5357 8.69881 18.4925 8.64525 18.438H8.64896Z" fill="#5F6D83"/>
<path d="M3.89225 11.6873V11.108C3.89123 10.9563 3.94979 10.8102 4.05533 10.7012C4.16088 10.5922 4.30498 10.5289 4.45667 10.525H6.94456C7.02094 10.525 7.09657 10.5401 7.1671 10.5695C7.23762 10.5988 7.30164 10.6418 7.35548 10.696C7.40932 10.7502 7.45191 10.8145 7.4808 10.8852C7.5097 10.9559 7.52432 11.0316 7.52383 11.108V11.6873C7.52383 11.7634 7.50884 11.8387 7.47973 11.909C7.45062 11.9792 7.40795 12.0431 7.35416 12.0969C7.30037 12.1507 7.23652 12.1933 7.16624 12.2225C7.09596 12.2516 7.02063 12.2666 6.94456 12.2666H4.45667C4.3806 12.2666 4.30527 12.2516 4.23499 12.2225C4.16471 12.1933 4.10085 12.1507 4.04706 12.0969C3.99327 12.0431 3.95061 11.9792 3.92149 11.909C3.89238 11.8387 3.8774 11.7634 3.8774 11.6873H3.89225Z" fill="#5F6D83"/>
<path d="M3.89224 7.85147V7.27221C3.89219 7.12111 3.95118 6.97598 4.05662 6.86776C4.16206 6.75955 4.30562 6.69681 4.45666 6.69294H12.1914C12.345 6.69294 12.4924 6.75397 12.601 6.8626C12.7096 6.97123 12.7707 7.11857 12.7707 7.27221V7.85147C12.7712 7.92786 12.7565 8.00358 12.7276 8.07429C12.6987 8.145 12.6562 8.2093 12.6023 8.26348C12.5485 8.31767 12.4845 8.36067 12.4139 8.39001C12.3434 8.41935 12.2678 8.43446 12.1914 8.43446H4.45666C4.38028 8.43446 4.30465 8.41935 4.23412 8.39001C4.1636 8.36067 4.09957 8.31767 4.04574 8.26348C3.9919 8.2093 3.94931 8.145 3.92041 8.07429C3.89152 8.00358 3.8769 7.92786 3.87739 7.85147H3.89224Z" fill="#5F6D83"/>
</g>
<rect x="10.7156" y="2.67896" width="12.5015" height="12.5015" fill="white"/>
<path d="M14.7675 9.70616C14.7349 9.70616 14.7022 9.70249 14.6696 9.69393C14.4686 9.64602 14.3232 9.46993 14.3232 9.25872V8.34804C14.3232 5.0842 16.9177 2.42865 20.1065 2.42865H20.2548V0.45545C20.2548 0.26969 20.3651 0.102719 20.5336 0.032906C20.7014 -0.0362395 20.8942 0.00555906 21.0199 0.139737L24.8755 4.23778C25.0415 4.41386 25.0415 4.69311 24.8755 4.8692L21.0199 8.96724C20.8942 9.10142 20.7002 9.14277 20.5336 9.07407C20.3651 9.00426 20.2548 8.83729 20.2548 8.65153V6.67843H19.5501C17.6841 6.67843 16.0071 7.73963 15.1732 9.44748C15.0967 9.60533 14.9359 9.70616 14.7675 9.70616V9.70616ZM20.1065 3.33933C17.6152 3.33933 15.5523 5.25473 15.2503 7.72262C16.3286 6.49145 17.875 5.76776 19.5501 5.76776H20.6996C20.9452 5.76776 21.1445 5.97175 21.1445 6.2231V7.5223L23.9376 4.55349L21.1445 1.58468V2.88399C21.1445 3.13534 20.9452 3.33933 20.6996 3.33933H20.1065Z" fill="#5F6D83"/>
<defs>
<clipPath id="clip0">
<rect width="22.3242" height="22.3242" fill="white" transform="translate(0 2.67896)"/>
</clipPath>
</defs>
</svg>
