<svg xmlns="http://www.w3.org/2000/svg" data-name="Layer 1" viewBox="0 0 64 80" x="0px" y="0px"><title>team_3</title><path d="M19.77,33.78A11.89,11.89,0,1,0,7.88,21.89,11.9,11.9,0,0,0,19.77,33.78Zm0-19.78a7.89,7.89,0,1,1-7.89,7.89A7.9,7.9,0,0,1,19.77,14ZM47.46,26.18A10.09,10.09,0,1,0,37.37,16.09,10.1,10.1,0,0,0,47.46,26.18Zm0-16.18a6.09,6.09,0,1,1-6.09,6.09A6.09,6.09,0,0,1,47.46,10ZM0,55.78a19.89,19.89,0,0,1,31.5-13.84A16.63,16.63,0,0,1,64,44.78,2,2,0,0,1,62.22,47H62a2,2,0,0,1-2-1.78,12.63,12.63,0,0,0-25.09-.08,19.75,19.75,0,0,1,4.61,10.64A2,2,0,0,1,37.76,58h-.22a2,2,0,0,1-2-1.78A15.88,15.88,0,0,0,4,56.22a2,2,0,0,1-4-.44Z"/><text x="0" y="79" fill="#000000" font-size="5px" font-weight="bold" font-family="'Helvetica Neue', Helvetica, Arial-Unicode, Arial, Sans-serif">Created by Mello</text><text x="0" y="84" fill="#000000" font-size="5px" font-weight="bold" font-family="'Helvetica Neue', Helvetica, Arial-Unicode, Arial, Sans-serif">from the Noun Project</text></svg>