<svg width="20" height="20" viewBox="0 0 20 20" fill="none" xmlns="http://www.w3.org/2000/svg">
<path d="M14.3365 7.33C14.0115 7.00458 13.4831 7.00458 13.1581 7.33L9.58062 10.9071L8.08646 9.41335C7.76146 9.08793 7.23312 9.08793 6.90812 9.41335C6.58271 9.73877 6.58271 10.2663 6.90812 10.5917L8.99146 12.675C9.15396 12.838 9.36729 12.9192 9.58062 12.9192C9.79396 12.9192 10.0073 12.838 10.1698 12.675L14.3365 8.50834C14.6619 8.18292 14.6619 7.65542 14.3365 7.33Z" fill="#273951"/>
<path d="M19.1667 9.16667C18.7067 9.16667 18.3333 9.54 18.3333 10C18.3333 14.595 14.595 18.3333 10 18.3333C5.405 18.3333 1.66667 14.595 1.66667 10C1.66667 5.405 5.405 1.66667 10 1.66667C12.2371 1.66667 14.3371 2.54083 15.9137 4.12833C16.2375 4.45542 16.7654 4.45708 17.0921 4.1325C17.4187 3.80833 17.4204 3.28083 17.0962 2.95417C15.2046 1.04917 12.6842 0 10 0C4.48583 0 0 4.48583 0 10C0 15.5142 4.48583 20 10 20C15.5142 20 20 15.5142 20 10C20 9.54 19.6267 9.16667 19.1667 9.16667Z" fill="#273951"/>
</svg>
