<svg width="25" height="25" viewBox="0 0 25 25" fill="none" xmlns="http://www.w3.org/2000/svg">
<path d="M12.5 9.375C11.6729 9.38046 10.8812 9.71145 10.2963 10.2963C9.71145 10.8812 9.38046 11.6729 9.375 12.5C9.375 14.2104 10.7896 15.625 12.5 15.625C14.2094 15.625 15.625 14.2104 15.625 12.5C15.625 10.7906 14.2094 9.375 12.5 9.375Z" fill="#273951"/>
<path d="M12.5 5.20837C4.54897 5.20837 2.15939 12.1011 2.13752 12.1709L2.0271 12.5L2.13647 12.8292C2.15939 12.899 4.54897 19.7917 12.5 19.7917C20.4511 19.7917 22.8406 12.899 22.8625 12.8292L22.9729 12.5L22.8636 12.1709C22.8406 12.1011 20.4511 5.20837 12.5 5.20837ZM12.5 17.7084C6.92606 17.7084 4.76668 13.7021 4.24377 12.5C4.76877 11.2938 6.92918 7.29171 12.5 7.29171C18.074 7.29171 20.2334 11.298 20.7563 12.5C20.2313 13.7063 18.0708 17.7084 12.5 17.7084V17.7084Z" fill="#273951"/>
</svg>
