<svg width="50" height="50" viewBox="0 0 50 50" fill="none" xmlns="http://www.w3.org/2000/svg">
<path d="M25.0834 4.16675C13.7084 4.16675 4.43754 13.4376 4.43754 24.8126C4.43754 28.4584 5.39587 32.0001 7.18754 35.1251L4.27087 45.8334L15.2084 42.9584C18.2292 44.6042 21.625 45.4792 25.0834 45.4792C36.4584 45.4792 45.7292 36.2084 45.7292 24.8334C45.7292 19.3126 43.5834 14.1251 39.6875 10.2292C37.7775 8.29993 35.5025 6.77022 32.9951 5.72936C30.4877 4.68849 27.7982 4.15729 25.0834 4.16675V4.16675ZM25.1042 7.64592C29.6875 7.64592 33.9792 9.43758 37.2292 12.6876C38.8242 14.2821 40.0888 16.1757 40.9504 18.26C41.812 20.3443 42.2536 22.5781 42.25 24.8334C42.25 34.2917 34.5417 41.9792 25.0834 41.9792C22 41.9792 18.9792 41.1667 16.3542 39.5834L15.7292 39.2292L9.22921 40.9376L10.9584 34.6042L10.5417 33.9376C8.82075 31.2056 7.91048 28.0414 7.91671 24.8126C7.93754 15.3542 15.625 7.64592 25.1042 7.64592V7.64592ZM17.7709 15.2709C17.4375 15.2709 16.875 15.3959 16.3959 15.9167C15.9375 16.4376 14.5834 17.7084 14.5834 20.2292C14.5834 22.7709 16.4375 25.2084 16.6667 25.5626C16.9584 25.9167 20.3334 31.1251 25.5209 33.3334C26.75 33.8959 27.7084 34.2084 28.4584 34.4376C29.6875 34.8334 30.8125 34.7709 31.7084 34.6459C32.7084 34.5001 34.75 33.3959 35.1875 32.1876C35.625 30.9792 35.625 29.9584 35.5 29.7292C35.3542 29.5209 35.0209 29.3959 34.5 29.1667C33.9792 28.8751 31.4375 27.6251 30.9792 27.4584C30.5 27.2917 30.2084 27.2084 29.8125 27.7084C29.4792 28.2292 28.4792 29.3959 28.1875 29.7292C27.875 30.0834 27.5834 30.1251 27.0834 29.8751C26.5417 29.6042 24.875 29.0626 22.9167 27.3126C21.375 25.9376 20.3542 24.2501 20.0417 23.7292C19.7917 23.2292 20.0209 22.9167 20.2709 22.6876C20.5 22.4584 20.8334 22.0834 21.0417 21.7709C21.3125 21.4792 21.3959 21.2501 21.5625 20.9167C21.7292 20.5626 21.6459 20.2709 21.5209 20.0209C21.3959 19.7917 20.3542 17.2084 19.9167 16.1876C19.5 15.1876 19.0834 15.3126 18.75 15.2918C18.4584 15.2918 18.125 15.2709 17.7709 15.2709V15.2709Z" fill="#5F6D83"/>
</svg>
