<svg width="50" height="50" viewBox="0 0 50 50" fill="none" xmlns="http://www.w3.org/2000/svg">
<g clip-path="url(#clip0)">
<path d="M32.6958 22.754L21.6496 16.71C21.0145 16.3625 20.2638 16.3755 19.6412 16.7444C19.0183 17.1136 18.6467 17.7659 18.6467 18.49V30.4742C18.6467 31.1948 19.016 31.846 19.6347 32.2156C19.9578 32.4087 20.316 32.5055 20.675 32.5055C21.0038 32.5055 21.3334 32.4243 21.6367 32.261L32.6832 26.3212C33.339 25.9683 33.7483 25.2866 33.7514 24.5416C33.754 23.7966 33.3497 23.1119 32.6958 22.754V22.754ZM21.5768 28.9667V20.0097L29.8325 24.5271L21.5768 28.9667Z" fill="#273951"/>
<path d="M49.6321 14.9929L49.6298 14.97C49.5874 14.5676 49.1659 10.9879 47.4257 9.1671C45.4142 7.02553 43.1338 6.76537 42.037 6.64062C41.9462 6.63033 41.8631 6.62079 41.7887 6.61087L41.7013 6.60172C35.0913 6.12106 25.1086 6.05545 25.0087 6.05507L24.9999 6.05469L24.9911 6.05507C24.8912 6.05545 14.9085 6.12106 8.23895 6.60172L8.15083 6.61087C8.07988 6.62041 8.00168 6.62918 7.91661 6.6391C6.83248 6.76422 4.57647 7.02477 2.55927 9.24377C0.901791 11.0451 0.422667 14.5481 0.373457 14.9418L0.367735 14.9929C0.352858 15.1604 0 19.1471 0 23.1495V26.8909C0 30.8933 0.352858 34.8801 0.367735 35.0479L0.370406 35.0731C0.412749 35.4691 0.83389 38.9832 2.56614 40.8047C4.45746 42.8745 6.84888 43.1484 8.13519 43.2957C8.33851 43.3189 8.51361 43.3388 8.63301 43.3598L8.74859 43.3758C12.5652 43.7389 24.5315 43.9178 25.0388 43.9251L25.0541 43.9255L25.0693 43.9251C25.1693 43.9247 35.1515 43.8591 41.7616 43.3784L41.849 43.3693C41.9325 43.3582 42.0264 43.3483 42.1293 43.3376C43.2074 43.2232 45.4512 42.9855 47.4405 40.7967C49.098 38.995 49.5775 35.4919 49.6263 35.0986L49.6321 35.0475C49.6469 34.8797 50.0002 30.8933 50.0002 26.8909V23.1495C49.9998 19.1471 49.6469 15.1608 49.6321 14.9929V14.9929ZM47.0697 26.8909C47.0697 30.5954 46.7463 34.4105 46.7157 34.7607C46.5914 35.7254 46.0859 37.9417 45.2784 38.8195C44.0333 40.1894 42.7542 40.3252 41.8204 40.424C41.7074 40.4358 41.6029 40.4472 41.5083 40.4591C35.1149 40.9214 25.5092 40.9924 25.0667 40.995C24.5704 40.9878 12.7792 40.8073 9.07894 40.4636C8.88935 40.4327 8.68451 40.4091 8.46859 40.3847C7.3734 40.2592 5.87423 40.0875 4.72143 38.8195L4.69435 38.7905C3.90089 37.9639 3.40994 35.8913 3.2852 34.7721C3.26193 34.5074 2.93006 30.6473 2.93006 26.8909V23.1495C2.93006 19.4492 3.25278 15.6384 3.28406 15.2809C3.43245 14.1445 3.94743 12.0625 4.72143 11.2209C6.00469 9.80949 7.35776 9.65309 8.25268 9.54971C8.33813 9.53979 8.41786 9.53064 8.49148 9.5211C14.978 9.05647 24.6528 8.98743 24.9999 8.98476C25.347 8.98705 35.0184 9.05647 41.4473 9.5211C41.5262 9.53102 41.6125 9.54094 41.7052 9.55162C42.6256 9.65652 44.0169 9.81522 45.2936 11.1771L45.3055 11.1897C46.0989 12.0163 46.5899 14.1251 46.7146 15.2668C46.7367 15.5167 47.0697 19.3851 47.0697 23.1495V26.8909Z" fill="#273951"/>
</g>
<defs>
<clipPath id="clip0">
<rect width="50" height="50" fill="white"/>
</clipPath>
</defs>
</svg>
