<svg width="18" height="18" viewBox="0 0 18 18" fill="none" xmlns="http://www.w3.org/2000/svg">
<path fill-rule="evenodd" clip-rule="evenodd" d="M16.56 0.36H1.44C0.843532 0.36 0.36 0.843532 0.36 1.44V16.56C0.36 17.1565 0.843532 17.64 1.44 17.64H16.56C17.1565 17.64 17.64 17.1565 17.64 16.56V1.44C17.64 0.843532 17.1565 0.36 16.56 0.36ZM1.44 0C0.64471 0 0 0.64471 0 1.44V16.56C0 17.3553 0.64471 18 1.44 18H16.56C17.3553 18 18 17.3553 18 16.56V1.44C18 0.64471 17.3553 0 16.56 0H1.44Z" fill="#273951"/>
<rect x="4.41031" y="2.97086" width="9.18" height="0.18" fill="#273951" stroke="#273951" stroke-width="0.18"/>
<rect x="4.41031" y="12.3302" width="9.18" height="0.18" fill="#273951" stroke="#273951" stroke-width="0.18"/>
<rect x="4.41031" y="13.7697" width="9.18" height="0.179999" fill="#273951" stroke="#273951" stroke-width="0.179999"/>
<rect x="4.41031" y="15.2091" width="9.18" height="0.18" fill="#273951" stroke="#273951" stroke-width="0.18"/>
</svg>
