<svg width="18" height="18" viewBox="0 0 18 18" fill="none" xmlns="http://www.w3.org/2000/svg">
<path d="M14.3371 0H3.6626C2.91096 0 2.19532 0.235793 1.59295 0.68182C1.4755 0.768797 1.45078 0.934523 1.53776 1.05198C1.62473 1.16944 1.79046 1.19408 1.90792 1.10718C2.41846 0.729105 3.02522 0.529242 3.6626 0.529242H14.3371C15.9647 0.529242 17.2888 1.8534 17.2888 3.48096V10.4821C17.2888 12.1097 15.9646 13.4338 14.3371 13.4338H9.82532C9.7163 13.4338 9.61097 13.4794 9.53644 13.5587L5.91295 17.4115C5.83473 17.4946 5.74403 17.471 5.70869 17.4571C5.67333 17.4431 5.5911 17.3982 5.5911 17.284V13.8305C5.5911 13.6118 5.41321 13.4339 5.19453 13.4339H3.6626C2.03501 13.4339 0.710848 12.1097 0.710848 10.4822V3.48096C0.710848 2.88218 0.889055 2.30572 1.22624 1.81396C1.30886 1.69341 1.27816 1.52873 1.15765 1.44608C1.03717 1.36343 0.872391 1.39419 0.789773 1.51467C0.391945 2.09496 0.181641 2.77488 0.181641 3.48096V10.4821C0.181641 12.4015 1.74321 13.9631 3.66264 13.9631H5.06189V17.284C5.06189 17.5792 5.23922 17.8403 5.51368 17.9491C5.6002 17.9833 5.69006 18 5.77887 18C5.97184 18 6.15996 17.9214 6.29848 17.7741L9.88266 13.9631H14.3371C16.2565 13.9631 17.8181 12.4015 17.8181 10.4822V3.48096C17.8181 1.56157 16.2565 0 14.3371 0Z" fill="#273951"/>
<path d="M12.8007 4.25132C11.8823 3.33286 10.3877 3.33293 9.46925 4.25132L9.00803 4.71257C9.0068 4.7138 9.00301 4.71759 8.99594 4.71759C8.98891 4.71759 8.98515 4.71387 8.98392 4.71257L8.53001 4.2587C7.61156 3.34024 6.11707 3.34028 5.19861 4.2587C4.28015 5.17716 4.28015 6.67168 5.19861 7.59014L8.60999 11.0015C8.71318 11.1047 8.85036 11.1615 8.99626 11.1615C9.14215 11.1615 9.27937 11.1047 9.38252 11.0015L11.2572 9.12647C11.3606 9.02311 11.3606 8.85555 11.2572 8.75227C11.1538 8.64894 10.9862 8.64891 10.883 8.7523L9.00828 10.6273C9.00705 10.6286 9.00325 10.6323 8.99626 10.6323C8.98919 10.6323 8.98543 10.6286 8.9842 10.6273L5.57281 7.21587C4.86069 6.50371 4.86069 5.34503 5.57281 4.63287C6.28494 3.92071 7.44365 3.92078 8.15578 4.63287L8.60964 5.08673C8.71283 5.18992 8.85001 5.24677 8.9959 5.24677C9.14184 5.24677 9.27898 5.18995 9.3822 5.08677L9.84345 4.62552C10.5557 3.91343 11.7143 3.91343 12.4265 4.62552C13.1386 5.33764 13.1386 6.49632 12.4265 7.20852L11.6364 7.99873C11.5331 8.10209 11.5331 8.26964 11.6365 8.37293C11.7398 8.47625 11.9074 8.47629 12.0107 8.37289L12.8007 7.58272C13.7191 6.66427 13.7191 5.16977 12.8007 4.25132Z" fill="#273951"/>
</svg>
