<svg width="18" height="18" viewBox="0 0 18 18" fill="none" xmlns="http://www.w3.org/2000/svg">
<g clip-path="url(#clip0)">
<path d="M1.34329 9.25248C1.35173 9.26625 1.36195 9.2787 1.37262 9.28936L8.44589 16.8052C8.49699 16.8594 8.56631 16.8905 8.64318 16.8927H8.64851C8.72094 16.8927 8.78938 16.8652 8.84181 16.8145L16.5656 9.34579C16.5692 9.34313 16.5994 9.31558 16.6176 9.2978C16.6327 9.28358 16.6452 9.26892 16.6478 9.26181C17.5197 8.35888 18 7.17245 18 5.92158C18 3.267 15.8404 1.10742 13.1854 1.10742C11.448 1.10742 9.85361 2.0379 9 3.5425C8.14684 2.03746 6.55248 1.10742 4.81461 1.10742C2.15957 1.10742 3.08591e-07 3.267 3.08591e-07 5.92158C-0.000444048 7.172 0.479017 8.35755 1.34329 9.25248ZM4.81416 1.66331C6.53604 1.66331 8.0784 2.69066 8.74316 4.28102C8.78671 4.38455 8.88713 4.45121 8.99956 4.45121C9.11153 4.45121 9.2124 4.38455 9.25595 4.28057C9.92115 2.69066 11.4635 1.66331 13.1854 1.66331C15.5338 1.66331 17.4446 3.57405 17.4446 5.92203C17.4446 7.04225 17.01 8.10115 16.2208 8.90455C16.2132 8.91255 16.2066 8.9201 16.2008 8.9281L8.6574 16.2191L1.81431 8.95032C1.80409 8.93388 1.79209 8.91832 1.77787 8.9041C0.989138 8.10204 0.555002 7.04314 0.555002 5.92203C0.555002 3.5736 2.46574 1.66331 4.81416 1.66331Z" fill="#5F6D83"/>
</g>
<defs>
<clipPath id="clip0">
<rect width="18" height="18" fill="white"/>
</clipPath>
</defs>
</svg>
