<svg width="18" height="18" viewBox="0 0 18 18" fill="none" xmlns="http://www.w3.org/2000/svg">
<path d="M9 5.76C7.18555 5.76 5.70937 7.23618 5.70937 9.05063C5.70937 9.66367 5.87919 10.2619 6.20057 10.781L8.81269 14.9904C8.86273 15.071 8.95088 15.12 9.04568 15.12H9.04786C9.14349 15.1193 9.23182 15.0687 9.28095 14.9867L11.8265 10.7365C12.1301 10.2285 12.2906 9.64548 12.2906 9.05063C12.2906 7.23618 10.8145 5.76 9 5.76ZM11.3558 10.455L9.04153 14.319L6.66671 10.492C6.3992 10.06 6.25416 9.56159 6.25416 9.05063C6.25416 7.53859 7.48796 6.30478 9 6.30478C10.512 6.30478 11.744 7.53859 11.744 9.05063C11.744 9.54643 11.6085 10.0321 11.3558 10.455Z" fill="#273951"/>
<path d="M9 7.40531C8.09277 7.40531 7.35469 8.1434 7.35469 9.05063C7.35469 9.95206 8.08076 10.6959 9 10.6959C9.93057 10.6959 10.6453 9.94215 10.6453 9.05063C10.6453 8.1434 9.90722 7.40531 9 7.40531ZM9 10.1512C8.39202 10.1512 7.89947 9.65696 7.89947 9.05063C7.89947 8.44581 8.39518 7.9501 9 7.9501C9.60482 7.9501 10.0987 8.44581 10.0987 9.05063C10.0987 9.64811 9.61761 10.1512 9 10.1512Z" fill="#273951"/>
<path fill-rule="evenodd" clip-rule="evenodd" d="M17.5156 10.1717C18.1612 9.52597 18.1614 8.47527 17.5166 7.82913L10.1719 0.485458C9.85891 0.172348 9.44276 0 9.0001 0C8.55745 0 8.1413 0.172348 7.82816 0.485458L0.488685 7.82405L0.481268 7.8316C-0.161497 8.47801 -0.160398 9.52679 0.484427 10.1716C0.779028 10.4663 1.16798 10.6368 1.584 10.6548C1.60103 10.6565 1.61806 10.6573 1.63522 10.6573H1.92776V16.0606C1.92776 17.13 2.79797 18 3.86746 18H6.7404C6.77562 18 6.81003 17.9965 6.84332 17.99H11.1568C11.19 17.9965 11.2245 18 11.2597 18H14.1326C15.2022 18 16.0723 17.13 16.0723 16.0606V10.6573H16.3437C16.7862 10.6573 17.2024 10.4849 17.5156 10.1717ZM13.001 16.9453H14.1326C14.6206 16.9453 15.0175 16.5484 15.0175 16.0606V10.1299C15.0175 9.83867 15.2536 9.6026 15.5449 9.6026H16.3437C16.5045 9.6026 16.6559 9.53984 16.7697 9.42599C17.004 9.19157 17.0045 8.81021 16.7708 8.57497L16.7674 8.57167L9.426 1.23116C9.31215 1.11731 9.16093 1.05469 9.0001 1.05469C8.83914 1.05469 8.68792 1.11731 8.5742 1.23116L1.23116 8.57318C0.996304 8.80815 0.995618 9.19102 1.23047 9.42586C1.3409 9.53641 1.48827 9.59875 1.64539 9.6015C1.65377 9.60164 1.66187 9.60205 1.67011 9.6026H2.45516C2.74647 9.6026 2.98256 9.83867 2.98256 10.1299V16.0606C2.98256 16.5484 3.37962 16.9453 3.86746 16.9453H5.00097V16.94H13.001V16.9453Z" fill="#273951"/>
</svg>
