<svg width="18" height="18" viewBox="0 0 18 18" fill="none" xmlns="http://www.w3.org/2000/svg">
<g clip-path="url(#clip0)">
<path d="M17.733 7.23312C17.8801 7.23312 17.9993 7.11392 17.9993 6.96684V5.62349C17.9993 4.51222 17.3151 3.53471 16.2839 3.15019C16.0204 2.49458 15.4932 1.96161 14.8405 1.6908C14.458 0.70285 13.4984 0 12.3771 0H11.0116C10.8645 0 10.7453 0.119202 10.7453 0.266281C10.7453 0.413361 10.8645 0.532562 11.0116 0.532562H12.3771C13.5397 0.532562 14.4855 1.47835 14.4855 2.64098V9.30048L10.7953 5.13583C10.7448 5.07884 10.6723 5.04616 10.596 5.04616C10.5198 5.04616 10.4473 5.07884 10.3968 5.13583L6.42178 9.62183L4.12811 7.49199C4.02512 7.39627 3.86526 7.39723 3.76337 7.49419L0.532562 10.5687V2.64084C0.532562 1.47835 1.47835 0.532562 2.64084 0.532562H8.93381C9.08089 0.532562 9.20009 0.413361 9.20009 0.266281C9.20009 0.119202 9.08089 0 8.93381 0H2.64084C1.18474 0 0 1.18474 0 2.64084V12.3771C0 13.4758 0.674698 14.4197 1.63147 14.8171C1.90283 15.5205 2.46602 16.0781 3.17175 16.3418C3.57083 17.3389 4.53955 18 5.62308 18H15.3583C16.8146 18 17.9993 16.8153 17.9993 15.359V8.23604C17.9993 8.08896 17.8801 7.96976 17.733 7.96976C17.586 7.96976 17.4668 8.08896 17.4668 8.23604V15.359C17.4668 16.5217 16.521 17.4674 15.3583 17.4674H5.62308C4.89331 17.4674 4.22864 17.0918 3.84741 16.4965C3.92981 16.5042 4.01289 16.5086 4.09612 16.5086H13.8321C15.2883 16.5086 16.473 15.3239 16.473 13.8676V4.13168C16.473 4.02745 16.4667 3.92404 16.4548 3.82146C17.075 4.19691 17.4668 4.87189 17.4668 5.62349V6.96684C17.4668 7.11392 17.586 7.23312 17.733 7.23312ZM0.532562 12.3771V11.3038L3.94917 8.05243L6.25919 10.1975C6.31165 10.2463 6.38182 10.2714 6.45337 10.2682C6.52492 10.2648 6.59207 10.2325 6.63959 10.179L10.596 5.71385L14.4855 10.1033V12.3771C14.4855 13.5396 13.5397 14.4855 12.3771 14.4855H2.64084C1.47835 14.4855 0.532562 13.5396 0.532562 12.3771ZM15.9406 13.8676C15.9406 15.0303 14.9947 15.976 13.8321 15.976H4.09612C3.87859 15.976 3.6638 15.9428 3.45781 15.8774C3.45561 15.8768 3.45328 15.8761 3.45094 15.8754C2.97812 15.7238 2.5778 15.409 2.31606 14.9973C2.42262 15.0105 2.53084 15.018 2.64084 15.018H12.3771C13.8332 15.018 15.0179 13.8333 15.0179 12.3771V2.64084C15.0179 2.55336 15.0134 2.46671 15.005 2.38129C15.3832 2.63644 15.6772 3.01135 15.8268 3.4471C15.9023 3.66669 15.9405 3.89699 15.9405 4.13168V13.8676H15.9406Z" fill="#979797"/>
<path d="M2.01953 3.47121C2.01953 4.27266 2.67157 4.9247 3.47316 4.9247C4.27461 4.9247 4.92679 4.27266 4.92679 3.47121C4.92679 2.66962 4.27461 2.01758 3.47316 2.01758C2.67157 2.01758 2.01953 2.66962 2.01953 3.47121ZM4.39423 3.47121C4.39423 3.97905 3.981 4.39227 3.47316 4.39227C2.96518 4.39227 2.55209 3.97905 2.55209 3.47121C2.55209 2.96323 2.96518 2.55014 3.47316 2.55014C3.981 2.55014 4.39423 2.96323 4.39423 3.47121Z" fill="#979797"/>
</g>
<defs>
<clipPath id="clip0">
<rect width="18" height="18" fill="white"/>
</clipPath>
</defs>
</svg>
