<svg width="18" height="18" viewBox="0 0 18 18" fill="none" xmlns="http://www.w3.org/2000/svg">
<path fill-rule="evenodd" clip-rule="evenodd" d="M16.56 0.36H1.44C0.843532 0.36 0.36 0.843532 0.36 1.44V16.56C0.36 17.1565 0.843532 17.64 1.44 17.64H16.56C17.1565 17.64 17.64 17.1565 17.64 16.56V1.44C17.64 0.843532 17.1565 0.36 16.56 0.36ZM1.44 0C0.64471 0 0 0.64471 0 1.44V16.56C0 17.3553 0.64471 18 1.44 18H16.56C17.3553 18 18 17.3553 18 16.56V1.44C18 0.64471 17.3553 0 16.56 0H1.44Z" fill="#979797"/>
<path d="M4.55235 12.3606C4.02819 12.3606 3.58467 12.2166 3.22179 11.9286C2.86467 11.6348 2.60259 11.2432 2.43555 10.7536L3.50691 10.2524L3.61059 10.4252C3.77763 10.7132 3.93603 10.9379 4.08579 11.0992C4.24131 11.2604 4.43427 11.3411 4.66467 11.3411C4.81443 11.3411 4.94691 11.2691 5.06211 11.1251C5.18307 10.9811 5.24355 10.8227 5.24355 10.6499C5.24355 10.4886 5.20323 10.3417 5.12259 10.2092C5.04195 10.0768 4.93827 9.97019 4.81155 9.88955L3.67971 9.21563C3.35139 9.03131 3.08931 8.79803 2.89347 8.51579C2.69763 8.23355 2.59971 7.91675 2.59971 7.56539C2.59971 7.19099 2.68611 6.85691 2.85891 6.56315C3.03747 6.26939 3.27651 6.04187 3.57603 5.88059C3.88131 5.71931 4.22403 5.63867 4.60419 5.63867C5.04771 5.63867 5.42499 5.74811 5.73603 5.96699C6.04707 6.18587 6.27747 6.51131 6.42723 6.94331L5.35587 7.42715C5.33283 7.38107 5.28387 7.27739 5.20899 7.11611C5.13411 6.95483 5.04195 6.83963 4.93251 6.77051C4.82883 6.69563 4.69923 6.65819 4.54371 6.65819C4.35363 6.65819 4.20675 6.71867 4.10307 6.83963C4.00515 6.96059 3.95619 7.11611 3.95619 7.30619C3.95619 7.44443 3.99363 7.57115 4.06851 7.68635C4.14915 7.79579 4.24419 7.88219 4.35363 7.94555L5.39907 8.55899C6.17091 8.99675 6.57699 9.57275 6.61731 10.287C6.61731 10.696 6.52515 11.0588 6.34083 11.3756C6.16227 11.6867 5.91459 11.9286 5.59779 12.1014C5.28675 12.2742 4.93827 12.3606 4.55235 12.3606Z" fill="#979797"/>
<path d="M7.4485 12.2396V5.75963H10.7403L10.6367 6.77051H8.71858V8.31707H10.0837L10.0751 9.40571H8.71858V11.2288H10.8095L10.7058 12.2396H7.4485Z" fill="#979797"/>
<path d="M13.3703 12.3606C12.6388 12.3606 12.1233 12.0467 11.8238 11.4188C11.53 10.7852 11.3831 9.96731 11.3831 8.96507C11.3831 7.89947 11.5415 7.07867 11.8583 6.50267C12.1751 5.92667 12.6849 5.63867 13.3876 5.63867C14.7297 5.63867 15.4007 6.73595 15.4007 8.93051C15.4007 9.91547 15.2481 10.7334 14.9428 11.3843C14.6433 12.0352 14.1191 12.3606 13.3703 12.3606ZM13.3876 11.3411C13.6929 11.3411 13.8945 11.1424 13.9924 10.7449C14.0903 10.3417 14.1393 9.73403 14.1393 8.92187C14.1393 8.27099 14.0903 7.73243 13.9924 7.30619C13.9003 6.87419 13.6987 6.65819 13.3876 6.65819C13.0766 6.65819 12.875 6.87131 12.7828 7.29755C12.6907 7.72379 12.6446 8.26235 12.6446 8.91323C12.6446 9.73115 12.6907 10.3417 12.7828 10.7449C12.8807 11.1424 13.0823 11.3411 13.3876 11.3411Z" fill="#979797"/>
</svg>
