<svg width="18" height="18" viewBox="0 0 18 18" fill="none" xmlns="http://www.w3.org/2000/svg">
<path d="M14.5843 9.26367H15.3682C15.4909 9.87064 16.0284 10.3291 16.671 10.3291C17.4038 10.3291 18 9.73287 18 9C18 8.26713 17.4038 7.67092 16.6709 7.67092C16.0283 7.67092 15.4909 8.12936 15.3682 8.73633H14.5843C14.5216 7.39325 13.983 6.17249 13.1334 5.23948L14.5454 3.8275C14.8234 4.02989 15.1651 4.14974 15.5345 4.14974C16.4632 4.14974 17.2187 3.3942 17.2187 2.46551C17.2187 1.53682 16.4632 0.781313 15.5345 0.781313C14.6058 0.781313 13.8503 1.53686 13.8503 2.46551C13.8503 2.83489 13.9701 3.17665 14.1725 3.45459L12.7605 4.86657C11.8275 4.01699 10.6067 3.47836 9.26367 3.41571V2.6318C9.87064 2.50914 10.3291 1.97167 10.3291 1.32908C10.3291 0.596215 9.73287 0 9 0C8.26713 0 7.67092 0.596215 7.67092 1.32908C7.67092 1.97167 8.12936 2.50914 8.73633 2.6318V3.41568C7.39325 3.47836 6.17249 4.01695 5.23948 4.86654L3.82757 3.45466C4.03 3.17668 4.14984 2.83489 4.14984 2.46551C4.14984 1.9047 3.87207 1.38245 3.40682 1.0685C3.28602 0.987082 3.12216 1.01886 3.04077 1.13959C2.95931 1.26032 2.99113 1.42418 3.11182 1.50564C3.4316 1.72139 3.62246 2.08023 3.62246 2.46551C3.62246 3.10345 3.10342 3.6225 2.46547 3.6225C1.82753 3.6225 1.30852 3.10345 1.30852 2.46551C1.30852 1.95033 1.65428 1.49242 2.14935 1.35197C2.28945 1.31221 2.3708 1.16641 2.33104 1.02632C2.29127 0.886219 2.14541 0.804973 2.00542 0.844629C1.28457 1.04917 0.781172 1.7157 0.781172 2.46551C0.781172 3.39427 1.53675 4.14984 2.46551 4.14984C2.83493 4.14984 3.17672 4.03 3.45466 3.82757L4.86657 5.23944C4.01695 6.17245 3.47836 7.39322 3.41568 8.73629H2.6318C2.50914 8.12932 1.97167 7.67088 1.32908 7.67088C0.596215 7.67092 0 8.26713 0 9C0 9.73287 0.596215 10.3291 1.32908 10.3291C1.97167 10.3291 2.50914 9.87064 2.6318 9.26367H3.41571C3.47839 10.6067 4.01699 11.8275 4.86661 12.7605L3.45459 14.1725C3.17665 13.9701 2.83489 13.8503 2.46551 13.8503C1.53682 13.8503 0.781313 14.6058 0.781313 15.5345C0.781313 16.4632 1.53682 17.2187 2.46551 17.2187C3.3942 17.2187 4.1497 16.4631 4.1497 15.5345C4.1497 15.1651 4.02989 14.8234 3.82746 14.5454L5.23948 13.1334C6.17249 13.983 7.39325 14.5216 8.73633 14.5843V15.3682C8.12936 15.4908 7.67092 16.0283 7.67092 16.6709C7.67092 17.4038 8.26713 18 9 18C9.73287 18 10.3291 17.4038 10.3291 16.6709C10.3291 16.0283 9.87064 15.4909 9.26367 15.3682V14.5843C10.6067 14.5216 11.8275 13.983 12.7605 13.1335L14.1724 14.5453C13.97 14.8233 13.8502 15.1651 13.8502 15.5345C13.8502 16.4632 14.6057 17.2188 15.5345 17.2188C16.4632 17.2188 17.2188 16.4632 17.2188 15.5345C17.2188 15.3522 17.1898 15.1726 17.1325 15.0007C17.0864 14.8626 16.937 14.7879 16.799 14.834C16.6609 14.88 16.5862 15.0293 16.6322 15.1675C16.6716 15.2854 16.6915 15.4089 16.6915 15.5345C16.6915 16.1724 16.1725 16.6914 15.5345 16.6914C14.8966 16.6914 14.3775 16.1724 14.3775 15.5345C14.3775 14.8965 14.8966 14.3775 15.5345 14.3775C15.6805 14.3775 15.8229 14.4043 15.9577 14.4573C16.0931 14.5106 16.2463 14.4439 16.2996 14.3083C16.3528 14.1728 16.2861 14.0198 16.1506 13.9665C15.9541 13.8893 15.7469 13.8501 15.5346 13.8501C15.1651 13.8501 14.8234 13.97 14.5454 14.1724L13.1335 12.7605C13.983 11.8275 14.5216 10.6067 14.5843 9.26367ZM16.6709 8.19826C17.113 8.19826 17.4727 8.55791 17.4727 9C17.4727 9.44209 17.113 9.80174 16.6709 9.80174C16.2288 9.80174 15.8692 9.44209 15.8692 9C15.8692 8.55791 16.2289 8.19826 16.6709 8.19826ZM15.5345 1.30866C16.1724 1.30866 16.6913 1.82763 16.6913 2.46551C16.6913 3.10342 16.1724 3.62239 15.5345 3.62239C14.8966 3.62239 14.3776 3.10342 14.3776 2.46551C14.3776 1.8276 14.8966 1.30866 15.5345 1.30866ZM8.19826 1.32908C8.19826 0.886992 8.55795 0.527344 9 0.527344C9.44205 0.527344 9.80174 0.886992 9.80174 1.32908C9.80174 1.77117 9.44205 2.13082 9 2.13082C8.55795 2.13082 8.19826 1.77114 8.19826 1.32908ZM1.32908 9.80174C0.886992 9.80174 0.527344 9.44209 0.527344 9C0.527344 8.55791 0.886992 8.19826 1.32908 8.19826C1.77117 8.19826 2.13079 8.55791 2.13079 9C2.13079 9.44209 1.77114 9.80174 1.32908 9.80174ZM9 3.93666C11.7919 3.93666 14.0633 6.20807 14.0633 9C14.0633 11.7919 11.7919 14.0633 9 14.0633C6.20807 14.0633 3.93666 11.792 3.93666 9C3.93666 6.20803 6.20807 3.93666 9 3.93666ZM2.46551 16.6913C1.8276 16.6913 1.30866 16.1724 1.30866 15.5345C1.30866 14.8966 1.82763 14.3776 2.46551 14.3776C3.10338 14.3776 3.62236 14.8966 3.62236 15.5345C3.62236 16.1724 3.10338 16.6913 2.46551 16.6913ZM9.80174 16.6709C9.80174 17.113 9.44205 17.4727 9 17.4727C8.55795 17.4727 8.19826 17.113 8.19826 16.6709C8.19826 16.2288 8.55795 15.8692 9 15.8692C9.44205 15.8692 9.80174 16.2289 9.80174 16.6709Z" fill="#5F6D83"/>
<path fill-rule="evenodd" clip-rule="evenodd" d="M11.7352 9.17065C11.9288 8.97693 11.9289 8.66172 11.7355 8.46788L9.53204 6.26478C9.43814 6.17085 9.3133 6.11914 9.1805 6.11914C9.0477 6.11914 8.92286 6.17085 8.82892 6.26478L6.62707 8.46636L6.62485 8.46862C6.43202 8.66254 6.43235 8.97718 6.6258 9.17061C6.71418 9.25902 6.83086 9.31019 6.95567 9.31558C6.96078 9.31608 6.96589 9.31633 6.97104 9.31633H7.0588V10.9373C7.0588 11.2581 7.31986 11.5191 7.64071 11.5191H8.50259C8.51317 11.5191 8.52351 11.5181 8.53351 11.5161H9.82745C9.83745 11.5181 9.84779 11.5191 9.85837 11.5191H10.7203C11.0411 11.5191 11.3022 11.2581 11.3022 10.9373V9.31633H11.3836C11.5163 9.31633 11.6412 9.26462 11.7352 9.17065ZM10.381 11.2027H10.7203C10.8666 11.2027 10.9857 11.0837 10.9857 10.9373V9.15812C10.9857 9.07074 11.0566 8.99992 11.1439 8.99992H11.3836C11.4318 8.99992 11.4772 8.98109 11.5114 8.94694C11.5817 8.87661 11.5818 8.7622 11.5117 8.69163L11.5107 8.69064L9.30827 6.48849C9.27411 6.45433 9.22875 6.43555 9.1805 6.43555C9.13221 6.43555 9.08685 6.45433 9.05273 6.48849L6.84982 8.69109C6.77936 8.76159 6.77915 8.87645 6.84961 8.9469C6.88274 8.98006 6.92695 8.99877 6.97409 8.99959L6.9815 8.99992H7.21702C7.30441 8.99992 7.37524 9.07074 7.37524 9.15812V10.9373C7.37524 11.0837 7.49435 11.2027 7.64071 11.2027H7.98102V11.2011H10.381V11.2027Z" fill="#5F6D83"/>
</svg>
