<!-- Generated by IcoMoon.io -->
<svg version="1.1" xmlns="http://www.w3.org/2000/svg" width="32" height="32" viewBox="0 0 32 32">
<title>vg-award</title>
<path d="M25.638 1.28h-19.024v2.207h-6.614v10.352c0 4.001 4.465 7.293 8.847 7.636 1.438 1.541 3.969 2.661 6.221 3.138v2.706c-2.153 0.662-6 2.216-6.221 3.909h14.779c-0.223-1.693-4.461-3.249-6.619-3.909v-2.706c2.26-0.477 4.904-1.597 6.345-3.138 4.38-0.343 8.648-3.635 8.648-7.636v-10.352h-6.362v-2.207zM2.031 5.448h4.429v8.918c0 1.76 0.454 3.433 1.252 4.941-3.314-1.055-5.681-3.774-5.681-6.955v-6.903zM19.379 16.324l-3.305-1.822-3.309 1.822 0.631-3.853-2.676-2.727 3.697-0.563 1.657-3.502 1.653 3.502 3.697 0.563-2.676 2.727 0.631 3.853zM24.292 19.591c0.803-1.575 1.263-3.318 1.263-5.161v-8.924h4.44v6.82c0 3.324-2.378 6.163-5.703 7.265z"></path>
</svg>
