<svg id="Capa_1" enable-background="new 0 0 512 512" height="512" viewBox="0 0 512 512" width="512" xmlns="http://www.w3.org/2000/svg"><g><path d="m314.325 0c-21.435 0-41.715 5.03-59.734 13.959-41.084-13.246-86.143-6.031-121.157 19.568l8.853 12.109c27.339-19.987 61.56-27.364 94.225-20.894-34.574 24.472-57.188 64.773-57.188 110.258 0 29.46 9.322 57.454 26.958 80.954 12.455 16.596 28.771 30.164 47.187 39.52-17.274 6.18-35.671 8.328-54.028 6.194l-5.867-.683-37.619 102.265 21.116 7.769c1.865.686 3.357 2.071 4.202 3.9.846 1.829.933 3.863.247 5.728-1.427 3.881-5.746 5.878-9.628 4.45l-12.856-4.73c-.518-.321-1.093-.603-1.729-.836-5.264-1.937-22.472-2.315-28.376 13.735-4.283 11.644 1.705 24.601 13.349 28.885l14.078 5.179c1.864.686 3.356 2.071 4.202 3.9s.933 3.863.247 5.728-2.071 3.357-3.9 4.202-3.864.933-5.728.247l-21.117-7.767-9.64 26.205-29.138 23.46-6.107-2.247-6.989-36.75 73.156-198.858-4.911-3.282c-21.994-14.701-38.73-36.708-47.126-61.967-8.647-26.017-8.203-53.4 1.284-79.19 6.529-17.748 16.788-33.255 30.493-46.093l-10.255-10.947c-15.427 14.451-26.972 31.9-34.316 51.862-10.673 29.013-11.171 59.824-1.44 89.101 8.813 26.515 25.809 49.851 48.163 66.295l-70.56 191.801 9.352 49.174 22.048 8.111 38.989-31.392 5.896-16.027 7.038 2.589c5.625 2.07 11.733 1.818 17.2-.708 5.466-2.526 9.616-7.015 11.685-12.639 2.07-5.625 1.818-11.733-.708-17.2s-7.015-9.616-12.64-11.686l-14.077-5.178c-3.881-1.428-5.877-5.748-4.45-9.629 1.771-4.816 6.565-4.998 8.521-4.856l15.185 5.587c5.625 2.068 11.732 1.817 17.199-.708 5.466-2.526 9.616-7.015 11.685-12.64 2.07-5.625 1.818-11.733-.708-17.2s-7.015-9.616-12.64-11.685l-7.039-2.59 28.41-77.228c22.57 1.629 45.043-2.467 65.703-11.926v126.801h15v-140.65l-5.297-1.627c-24.011-7.378-45.585-22.568-60.748-42.772-15.672-20.882-23.956-45.762-23.956-71.95 0-66.168 53.832-120 120-120s120 53.832 120 120c0 26.188-8.284 51.068-23.956 71.95-15.162 20.204-36.736 35.394-60.747 42.772l-5.297 1.627v100.045l-18.107 18.106 18.107 18.106v16.287l-18.107 18.106 18.107 18.106v24.262l-26.105 32.632h-7.79l-26.105-32.631v-27.369h-15v32.63l33.896 42.37h22.208l33.896-42.369v-35.737l-11.893-11.893 11.893-11.894v-28.712l-11.894-11.894 11.894-11.894v-95.299c24.884-8.823 47.113-25.129 63.042-46.354 17.636-23.5 26.958-51.494 26.958-80.954.001-74.439-60.56-135-134.999-135z"/><path d="m269.324 407h15v15h-15z"/><path d="m366.825 90c0-28.949-23.551-52.5-52.5-52.5s-52.5 23.551-52.5 52.5 23.551 52.5 52.5 52.5 52.5-23.552 52.5-52.5zm-15 0c0 8.177-2.638 15.745-7.098 21.914-2.808-12.09-7.26-23.717-13.32-34.707-4.914-8.912-10.792-17.166-17.511-24.697.143-.001.285-.011.429-.011 20.678.001 37.5 16.823 37.5 37.501zm-75 0c0-14.499 8.277-27.094 20.349-33.331 8.339 8.169 15.425 17.493 21.097 27.781 6.7 12.151 11.196 25.175 13.407 38.777-5.193 2.723-11.094 4.273-17.353 4.273-20.677 0-37.5-16.823-37.5-37.5z"/><path d="m399.325 106.446h15v15h-15z"/><path d="m384.325 76.446h15v15h-15z"/></g></svg>