<!-- Generated by IcoMoon.io -->
<svg version="1.1" xmlns="http://www.w3.org/2000/svg" width="32" height="32" viewBox="0 0 32 32">
<title>vg-champagne</title>
<path d="M12.972 3.833c0.262 0 0.475-0.213 0.475-0.476v-1.331c0-0.262-0.213-0.475-0.475-0.475s-0.476 0.213-0.476 0.475v1.331c0 0.263 0.213 0.476 0.476 0.476z"></path>
<path d="M12.972 7.208c0.262 0 0.475-0.213 0.475-0.476v-1.331c0-0.263-0.213-0.476-0.475-0.476s-0.476 0.213-0.476 0.476v1.331c0 0.263 0.213 0.476 0.476 0.476z"></path>
<path d="M13.994 4.854h1.331c0.263 0 0.476-0.213 0.476-0.475s-0.213-0.476-0.476-0.476h-1.331c-0.263 0-0.476 0.213-0.476 0.476s0.213 0.475 0.476 0.475z"></path>
<path d="M10.619 4.854h1.331c0.263 0 0.476-0.213 0.476-0.475s-0.213-0.476-0.476-0.476h-1.331c-0.263 0-0.476 0.213-0.476 0.476s0.213 0.475 0.476 0.475z"></path>
<path d="M8.621 9.293c0.263 0 0.476-0.213 0.476-0.476v-1.331c0-0.263-0.213-0.476-0.476-0.476s-0.475 0.213-0.475 0.476v1.331c0 0.263 0.213 0.476 0.475 0.476z"></path>
<path d="M8.621 12.668c0.263 0 0.476-0.213 0.476-0.475v-1.331c0-0.263-0.213-0.476-0.476-0.476s-0.475 0.213-0.475 0.476v1.331c0 0.262 0.213 0.475 0.475 0.475z"></path>
<path d="M9.643 10.315h1.332c0.262 0 0.475-0.213 0.475-0.476s-0.213-0.475-0.475-0.475h-1.332c-0.262 0-0.475 0.213-0.475 0.475s0.213 0.476 0.475 0.476z"></path>
<path d="M6.268 10.315h1.331c0.263 0 0.476-0.213 0.476-0.476s-0.213-0.475-0.476-0.475h-1.331c-0.263 0-0.476 0.213-0.476 0.475s0.213 0.476 0.476 0.476z"></path>
<path d="M21.175 23.468c-0.263 0-0.476 0.213-0.476 0.476v1.331c0 0.262 0.213 0.475 0.476 0.475s0.475-0.213 0.475-0.475v-1.331c0-0.263-0.213-0.476-0.475-0.476z"></path>
<path d="M21.175 26.843c-0.263 0-0.476 0.213-0.476 0.476v1.331c0 0.262 0.213 0.475 0.476 0.475s0.475-0.213 0.475-0.475v-1.331c0-0.263-0.213-0.476-0.475-0.476z"></path>
<path d="M23.528 25.822h-1.331c-0.263 0-0.476 0.213-0.476 0.475s0.213 0.476 0.476 0.476h1.331c0.263 0 0.476-0.213 0.476-0.476s-0.213-0.475-0.476-0.475z"></path>
<path d="M20.153 25.822h-1.331c-0.263 0-0.476 0.213-0.476 0.475s0.213 0.476 0.476 0.476h1.331c0.263 0 0.476-0.213 0.476-0.476s-0.213-0.475-0.476-0.475z"></path>
<path d="M31.344 4.66l-2.041-2.041c-0.186-0.186-0.487-0.186-0.672 0s-0.186 0.487 0 0.672l2.041 2.041c0.234 0.234 0.363 0.545 0.363 0.876s-0.129 0.642-0.363 0.876l-1.676 1.676c-0.234 0.234-0.545 0.363-0.876 0.363s-0.642-0.129-0.876-0.363l-4.019-4.019c-0.483-0.483-0.483-1.269 0-1.752l1.676-1.676c0.234-0.234 0.545-0.363 0.876-0.363s0.642 0.129 0.876 0.363l0.567 0.567c0.186 0.186 0.487 0.186 0.672 0s0.186-0.487 0-0.673l-0.567-0.567c-0.414-0.414-0.963-0.641-1.548-0.641s-1.135 0.228-1.548 0.641l-1.676 1.676c-0.738 0.738-0.837 1.876-0.299 2.723l-1.726 1.726c-0.682 0.682-0.682 1.792 0 2.475l2.085 2.085c0.341 0.341 0.789 0.512 1.237 0.512s0.896-0.17 1.237-0.512l1.703-1.703c0.38 0.291 0.842 0.45 1.329 0.45 0.585 0 1.135-0.228 1.548-0.641l1.676-1.676c0.414-0.414 0.641-0.963 0.641-1.548s-0.228-1.135-0.642-1.548zM24.416 10.654c-0.312 0.312-0.818 0.312-1.13 0l-2.085-2.085c-0.312-0.312-0.312-0.818 0-1.13l1.689-1.689 3.215 3.215z"></path>
<path d="M19.206 19.328c0.448 0 0.895-0.17 1.235-0.511 0.681-0.681 0.681-1.79 0-2.471l-4.801-4.801c-0.681-0.681-1.79-0.681-2.471 0-0.528 0.528-0.646 1.312-0.356 1.955l-1.668 1.668c-1.314 1.314-3.135 2.051-4.992 2.023-1.059-0.017-2.093 0.177-3.072 0.574-0.981 0.397-1.858 0.979-2.607 1.727l-0.334 0.334c-0.186 0.186-0.186 0.487 0 0.672 0.093 0.093 0.215 0.139 0.336 0.139s0.243-0.046 0.336-0.139l0.334-0.334c0.658-0.658 1.429-1.168 2.292-1.518 0.861-0.35 1.77-0.519 2.7-0.505 0.208 0.003 0.415-0.002 0.622-0.016 0.465 1.927 1.549 3.673 3.084 4.952 0.089 0.074 0.197 0.11 0.304 0.11 0.136 0 0.271-0.058 0.365-0.171 0.168-0.202 0.141-0.502-0.061-0.67-1.351-1.125-2.313-2.653-2.743-4.342 1.543-0.293 2.986-1.045 4.107-2.165l1.588-1.588 4.328 4.328-1.589 1.588c-0.748 0.749-1.329 1.626-1.727 2.606-0.173 0.427-0.307 0.864-0.402 1.309-0.688-0.148-1.354-0.382-1.984-0.7-0.234-0.118-0.52-0.024-0.639 0.21s-0.024 0.52 0.21 0.639c0.72 0.364 1.483 0.629 2.271 0.793-0.024 0.272-0.034 0.546-0.030 0.822 0.029 1.858-0.708 3.678-2.023 4.992l-0.348 0.348c-0.186 0.186-0.186 0.487 0 0.672 0.093 0.093 0.214 0.139 0.336 0.139s0.243-0.046 0.336-0.139l0.348-0.348c1.495-1.495 2.334-3.565 2.301-5.679-0.014-0.931 0.156-1.84 0.505-2.701s0.861-1.633 1.519-2.291l1.668-1.668c0.228 0.103 0.474 0.155 0.72 0.155zM13.841 12.217c0.15-0.15 0.35-0.233 0.563-0.233s0.413 0.083 0.563 0.233l4.801 4.801c0.31 0.311 0.31 0.815 0 1.126-0.15 0.15-0.35 0.233-0.563 0.233s-0.413-0.083-0.563-0.233l-4.801-4.801c-0.15-0.15-0.233-0.35-0.233-0.563s0.083-0.413 0.233-0.563z"></path>
<path d="M19.364 13.981c0.093 0.093 0.215 0.139 0.336 0.139s0.243-0.046 0.336-0.139l1.836-1.836c0.186-0.186 0.186-0.487 0-0.672s-0.487-0.186-0.672 0l-1.836 1.836c-0.186 0.186-0.186 0.487 0 0.672z"></path>
<path d="M19.71 9.982l-1.202 1.202c-0.186 0.186-0.186 0.487 0 0.672 0.093 0.093 0.215 0.139 0.336 0.139s0.243-0.046 0.336-0.139l1.202-1.202c0.186-0.186 0.186-0.487 0-0.672s-0.487-0.186-0.672 0z"></path>
<path d="M29.206 12.957c-4.18-0.597-7.651 1.855-7.797 1.96-0.213 0.153-0.262 0.45-0.109 0.664 0.093 0.129 0.239 0.198 0.387 0.198 0.096 0 0.193-0.029 0.277-0.089 0.033-0.023 3.302-2.334 7.108-1.791 0.26 0.037 0.501-0.144 0.538-0.404s-0.144-0.501-0.404-0.538z"></path>
<path d="M16.274 10.554c0.084 0.061 0.181 0.089 0.277 0.089 0.148 0 0.294-0.069 0.386-0.198 0.105-0.146 2.557-3.617 1.96-7.797-0.037-0.26-0.278-0.441-0.538-0.403s-0.441 0.278-0.404 0.538c0.541 3.788-1.761 7.066-1.791 7.108-0.153 0.213-0.104 0.51 0.109 0.663z"></path>
</svg>
