<svg height="512pt" viewBox="0 -33 512 512" width="512pt" xmlns="http://www.w3.org/2000/svg"><path d="m185.261719 196.207031-23.246094-23.242187c-9.945313-9.945313-26.132813-9.945313-36.082031 0l-61.667969 61.671875c-9.949219 9.949219-9.949219 26.136719 0 36.082031l23.242187 23.246094c4.972657 4.972656 11.507813 7.460937 18.042969 7.460937 6.53125 0 13.066407-2.488281 18.039063-7.460937l61.671875-61.671875c9.945312-9.949219 9.945312-26.136719 0-36.085938zm-10.609375 25.476563-61.667969 61.671875c-4.101563 4.101562-10.769531 4.097656-14.871094 0l-23.242187-23.242188c-4.101563-4.101562-4.101563-10.769531 0-14.871093l61.667968-61.667969c1.988282-1.988281 4.625-3.082031 7.4375-3.082031 2.808594 0 5.449219 1.09375 7.433594 3.082031l23.242188 23.238281c4.101562 4.101562 4.101562 10.773438 0 14.871094zm329.847656-32.34375c-4.144531 0-7.5 3.355468-7.5 7.5v151.421875h-10.828125c-39.226563 0-71.136719 31.910156-71.136719 71.136719v10.828124h-269.96875c-4.140625 0-7.5 3.355469-7.5 7.5 0 4.140626 3.359375 7.5 7.5 7.5h310.058594c31.359375 0 56.875-25.515624 56.875-56.875v-191.511718c0-4.144532-3.355469-7.5-7.5-7.5zm-7.5 199.011718c0 23.089844-18.785156 41.875-41.875 41.875h-25.089844v-10.828124c0-30.953126 25.183594-56.136719 56.136719-56.136719h10.828125zm-387.339844 41.875h-12.695312v-10.828124c0-39.226563-31.910156-71.136719-71.136719-71.136719h-10.828125v-169.066407c0-23.089843 18.785156-41.875 41.875-41.875h154.144531.058594 89.75.023437.027344 154.246094c17.570312 0 33.398438 11.089844 39.382812 27.601563 1.410157 3.890625 5.714844 5.902344 9.605469 4.492187 3.894531-1.410156 5.90625-5.714843 4.496094-9.605468-8.132813-22.421875-29.625-37.488282-53.484375-37.488282h-19.199219v-11.566406c0-11.128906-9.054687-20.183594-20.183593-20.183594h-.523438v-13.867187c0-42.292969-34.410156-76.703125-76.707031-76.703125h-165.019531c-42.296876 0-76.707032 34.410156-76.707032 76.703125v13.867187h-.527344c-11.128906 0-20.183593 9.054688-20.183593 20.183594v11.566406h-19.199219c-31.359375 0-56.875 25.515626-56.875 56.875v209.15625c0 31.359376 25.515625 56.875 56.875 56.875h52.785156c4.140625 0 7.5-3.359374 7.5-7.5 0-4.144531-3.359375-7.5-7.5-7.5zm111.828125-307.90625.914063-2.796874c1.675781-5.113282 6.414062-8.550782 11.796875-8.550782h43.601562c5.382813 0 10.121094 3.4375 11.796875 8.554688l.914063 2.792968zm117.0625-11.566406v11.566406h-32.261719l-2.4375-7.457031c-3.695312-11.300781-14.164062-18.890625-26.054687-18.890625h-43.597656c-11.886719 0-22.355469 7.589844-26.054688 18.890625l-2.4375 7.457031h-32.257812v-11.566406c0-11.128906-9.054688-20.183594-20.183594-20.183594h-.527344v-13.867187c0-11.441406 9.3125-20.75 20.753907-20.75h165.019531c11.441406 0 20.75 9.308594 20.75 20.75v13.867187h-.527344c-11.128906 0-20.183594 9.054688-20.183594 20.183594zm77.191407-5.183594c2.859374 0 5.183593 2.324219 5.183593 5.183594v11.566406h-67.375v-11.566406c0-2.859375 2.324219-5.183594 5.183594-5.183594zm-303.957032-28.867187c0-34.023437 27.679688-61.703125 61.707032-61.703125h165.019531c34.023437 0 61.703125 27.679688 61.703125 61.703125v13.867187h-25.953125v-13.867187c0-19.710937-16.039063-35.75-35.75-35.75h-165.019531c-19.714844 0-35.753907 16.039063-35.753907 35.75v13.867187h-25.953125zm-20.710937 34.050781c0-2.859375 2.324219-5.183594 5.183593-5.183594h57.007813c2.859375 0 5.183594 2.324219 5.183594 5.183594v11.566406h-67.375zm-9.109375 319.472656h-25.089844c-23.089844 0-41.875-18.785156-41.875-41.875v-25.089843h10.828125c30.953125 0 56.136719 25.183593 56.136719 56.136719zm227.019531-166.085937c0 32.851563 26.726563 59.578125 59.574219 59.578125 32.851562 0 59.578125-26.726562 59.578125-59.578125 0-32.847656-26.726563-59.574219-59.578125-59.574219-32.847656 0-59.574219 26.726563-59.574219 59.574219zm104.152344 0c0 24.582031-19.996094 44.578125-44.574219 44.578125-24.582031 0-44.578125-19.996094-44.578125-44.578125 0-24.578125 19.996094-44.574219 44.578125-44.574219 24.578125 0 44.574219 19.996094 44.574219 44.574219zm-72.242188 0c0 4.144531 3.355469 7.5 7.5 7.5h40.335938c4.140625 0 7.5-3.355469 7.5-7.5 0-4.140625-3.359375-7.5-7.5-7.5h-40.335938c-4.144531 0-7.5 3.359375-7.5 7.5zm-205.683593-51.730469-31.503907 31.5c-2.929687 2.929688-2.929687 7.679688 0 10.609375 1.464844 1.464844 3.386719 2.195313 5.304688 2.195313s3.839843-.730469 5.300781-2.195313l31.503906-31.5c2.925782-2.929687 2.925782-7.679687 0-10.609375-2.929687-2.929687-7.679687-2.929687-10.605468 0zm97.371093 181.601563c20.058594 0 39.160157-5.523438 47.808594-9.179688 2.96875-1.257812 5.296875-3.585937 6.550781-6.554687 3.792969-8.96875 8.441406-25.792969 9.058594-43.691406.765625-22.207032-4.9375-40.054688-16.496094-51.609376-15.460937-15.460937-40.617187-15.460937-56.078125 0-7.242187 7.242188-11.292969 16.785157-11.605469 26.734376-9.949218.3125-19.496093 4.363281-26.734374 11.605468-15.460938 15.460938-15.460938 40.617188 0 56.078125 12.601562 12.605469 30.394531 16.617188 47.496093 16.617188zm-36.890625-62.085938c5.980469-5.980469 14.492188-8.460937 22.761719-6.644531 2.5.550781 5.105469-.210938 6.917969-2.019531 1.808594-1.808594 2.570312-4.417969 2.019531-6.914063-1.820313-8.273437.664063-16.785156 6.640625-22.761718 9.613281-9.613282 25.253906-9.613282 34.867188 0 19.363281 19.363281 11.503906 60.738281 4.640624 77.847656-17.105468 6.859375-58.480468 14.722656-77.847656-4.644532-9.613281-9.613281-9.613281-25.253906 0-34.863281zm0 0"/></svg>