<svg height="512" viewBox="0 0 55 60" width="512" xmlns="http://www.w3.org/2000/svg"><g id="Page-1" fill="none" fill-rule="evenodd"><g id="071---Walking-Through-Terminal" fill="rgb(0,0,0)" fill-rule="nonzero" transform="translate(-1 -1)"><path id="Shape" d="m21.533 17.014-4 7c-.5337511.9190833-.6760662 2.0140092-.395 3.039.0515265.1707809.1146738.3378374.189.5l-3.136 10.752c-4.43143874-.7880819-8.75665543 1.8453668-10.091 6.144l-2.963 9.368c-.49398524 1.5638605.35940764 3.2345686 1.916 3.751l5.237 1.753c1.7516738 1.9730718 4.7374072 2.2395276 6.8107828.6078146 2.0733756-1.6317129 2.5162379-4.5964178 1.0102172-6.7628146l6.923-23.74c.5960635-.3462075 1.0908679-.842736 1.435-1.44l3.079-5.386 2.747-.5-10.121 33.749c-.3068906 1.0140606-.1977599 2.1085513.3033202 3.0420499.5010801.9334985 1.3529411 1.6293091 2.3676798 1.9339501.3740306.1159898.7633975.1749848 1.155.175 1.7631576-.0099041 3.3146233-1.166208 3.828-2.853l4.959-16.515 5.493 4.489 1.762 11.492c.2958261 1.9548794 1.9808885 3.3968467 3.958 3.387.2051803.001924.4100856-.0154863.612-.052 2.1814284-.338126 3.6779548-2.377624 3.346-4.56l-2-13.01c-.1598685-.9694564-.6657948-1.8480771-1.424-2.473l-6.8-5.562 2.146-8.137 3.167 3.49c.7596438.8271345 1.8299719 1.2997751 2.953 1.304h6c2.209139 0 4-1.790861 4-4s-1.790861-4-4-4h-4.227l-7.273-8c3.5111248.0084215 6.5606372-2.4142965 7.3463531-5.8363893.7857158-3.42209271-.9015718-6.93238458-4.0647188-8.45638241-3.163147-1.52399784-6.9599253-.65591786-9.1465356 2.09122678-2.1866103 2.74714463-2.1808398 6.64189173.0139013 9.38254493l-10.369 1.885c-1.1604043.2070571-2.1677577.9214089-2.747 1.948zm-3.62 22.828c-.5627685-.3911152-1.1662977-.7200386-1.8-.981l2.767-9.488c.046.028.084.066.132.093.5438027.3089544 1.1531687.4844299 1.778.512zm-14.232 15.828c-.51791265-.1724245-.80186714-.7283165-.638-1.249l2.957-9.368c1.1266399-3.6349556 4.9687647-5.6862293 8.616-4.6.9883192.289007 1.9071278.7769965 2.7 1.434l-2.855 9.788c-.7471306-.4364823-1.5957326-.6692358-2.461-.675-2.76005315.0033061-4.99669388 2.2399468-5 5 .00492747.2711384.03235498.5413998.082.808zm8.319 3.33c-1.6568542 0-3-1.3431458-3-3s1.3431458-3 3-3 3 1.3431458 3 3-1.3431458 3-3 3zm28.5-56c3.0375661 0 5.5 2.46243388 5.5 5.5 0 3.0375661-2.4624339 5.5-5.5 5.5s-5.5-2.4624339-5.5-5.5c.0033068-3.03619535 2.4638047-5.4966932 5.5-5.5zm-4.939 12.045c.6819872-.1469073 1.3916205.0668513 1.879.566.0385464.0493591.0817447.0949015.129.136l9.022 9.926c.1895945.2083687.4582846.3271007.74.327h4.669c1.1045695 0 2 .8954305 2 2s-.8954305 2-2 2h-6c-.5623331-.0016599-1.0984432-.2379978-1.479-.652l-4.4-4.85c-.2464223-.2712506-.6214775-.3859811-.9774797-.299014s-.6359163.361699-.7295203.716014l-2.781 10.54c-.0998308.3788124.030724.7810308.334 1.029l7.3 5.966c.3806233.3144227.6354664.7552517.718 1.242l2 13c.0785799.5298521-.057256 1.069173-.3774419 1.4985901-.320186.429417-.7983149.7135143-1.3285581.7894099-.0922027.0150998-.1855863.021794-.279.02-.9845436-.0046295-1.8218811-.7193886-1.981-1.691l-1.819-11.871c-.0375105-.2445561-.1643493-.466524-.356-.623l-6.95-5.679c-.2587399-.2111677-.605819-.2792303-.9251493-.1814228-.3193303.0978074-.5687558.348573-.6648507.6684228l-5.391 17.95c-.3186857 1.0561058-1.432313 1.6547531-2.489 1.338-.5070575-.1514292-.9329188-.4985834-1.1834365-.9647153-.2505178-.4661319-.3050581-1.0128486-.1515635-1.5192847l10.59-35.31c.0997903-.3330979.0193816-.6941201-.2123422-.9533814-.2317237-.2592614-.5814903-.3795357-.9236578-.3176186l-4.81.87c-.2908136.0527088-.5434156.2313606-.69.488l-3.311 5.796c-.3307077.6658069-1.0034249 1.0932438-1.7466557 1.1098053-.7432309.0165615-1.4343202-.3804854-1.7943575-1.0309003s-.3296057-1.4468599.0790132-2.067905l4-7.009c.2892125-.5085802.7899106-.8619279 1.366-.964z"/></g></g></svg>