<!-- Generated by IcoMoon.io -->
<svg version="1.1" xmlns="http://www.w3.org/2000/svg" width="32" height="32" viewBox="0 0 32 32">
<title>vg-crown</title>
<path d="M9.176 25.332h13.653c0.487 0 0.901-0.351 0.985-0.828l1.507-8.667c0.063-0.36-0.075-0.723-0.359-0.951-0.283-0.229-0.667-0.283-1.005-0.147l-4.087 1.669-3-5.241c-0.357-0.623-1.379-0.623-1.736 0l-3 5.241-4.087-1.669c-0.339-0.136-0.721-0.083-1.005 0.147-0.283 0.228-0.42 0.591-0.359 0.951l1.507 8.667c0.084 0.477 0.5 0.828 0.985 0.828zM21.988 23.332h-11.971l-1.053-6.057 3.225 1.316c0.465 0.191 0.997 0.005 1.247-0.428l2.567-4.484 2.567 4.484c0.249 0.433 0.78 0.619 1.247 0.428l3.225-1.316-1.053 6.057z"></path>
<path d="M3.667 30.669h24.667c2.023 0 3.667-1.644 3.667-3.667v-22c0-2.023-1.644-3.667-3.667-3.667h-24.667c-2.023 0-3.667 1.644-3.667 3.667v22c0 2.023 1.644 3.667 3.667 3.667zM28.333 3.335c0.919 0 1.667 0.748 1.667 1.667v22c0 0.919-0.748 1.667-1.667 1.667h-24.667c-0.919 0-1.667-0.748-1.667-1.667v-22c0-0.919 0.748-1.667 1.667-1.667h24.667z"></path>
<path d="M1 8h30c0.552 0 1-0.448 1-1s-0.448-1-1-1h-30c-0.552 0-1 0.448-1 1s0.448 1 1 1z"></path>
</svg>
