<!-- Generated by IcoMoon.io -->
<svg version="1.1" xmlns="http://www.w3.org/2000/svg" width="1024" height="1024" viewBox="0 0 1024 1024">
<title>vg-passport</title>
<g id="icomoon-ignore">
</g>
<path d="M212.838 852.615h640.523c24.883 0 44.36-20.48 44.36-44.196v-764.226c0-24.792-20.558-44.194-44.36-44.194h-727.080c-24.885 0-44.36 20.48-44.36 44.194v849.381c0 72.217 58.426 130.425 130.918 130.425h640.523c24.883 0 44.36-20.48 44.36-44.192 0-24.793-20.558-44.196-44.36-44.196h-640.523c-22.721 0-41.115-18.326-41.115-40.96 0-23.712 18.393-42.037 41.115-42.037zM171.723 89.465h637.278v673.685h-596.163c-14.066 0-28.131 2.154-41.115 6.468v-680.153z"></path>
<path d="M522.314 649.978c47.604-81.92 130.916-234.979 130.916-298.576 0-89.465-73.572-162.762-163.377-162.762-89.802 0-163.376 73.297-163.376 162.762 0 63.597 83.311 216.656 130.919 298.576 14.066 25.87 50.852 25.87 64.918 0zM414.118 351.402c0-42.038 34.623-75.452 75.735-75.452 42.197 0 75.739 34.492 75.739 75.452s-34.623 75.454-75.739 75.454c-42.197 0-75.735-33.416-75.735-75.454z"></path>
</svg>
