<svg width="25" height="25" viewBox="0 0 25 25" fill="none" xmlns="http://www.w3.org/2000/svg">
<path d="M16.4888 16.3478C15.3241 17.5125 15.4697 19.8627 15.4697 19.8627H9.56287C9.56287 19.8627 9.68766 17.5125 8.54373 16.3478C7.27502 15.2246 6.46387 13.6023 6.46387 11.7928C6.46387 8.46506 9.16769 5.76123 12.4955 5.76123C15.8233 5.76123 18.5271 8.46506 18.5271 11.7928C18.5271 13.6023 17.7367 15.2246 16.4888 16.3478Z" fill="#DDC824"/>
<path d="M15.6364 21.7138C15.6364 22.0258 15.3868 22.2754 15.0748 22.2754H9.93754C9.62556 22.2754 9.37598 22.0258 9.37598 21.7138C9.37598 21.4018 9.62556 21.1522 9.93754 21.1522H15.054C15.366 21.1522 15.6364 21.4018 15.6364 21.7138Z" fill="#E5E5E5"/>
<path d="M14.8668 24.0433C14.8668 24.3552 14.6172 24.6048 14.3052 24.6048H10.7071C10.3951 24.6048 10.1455 24.3552 10.1455 24.0433C10.1455 23.7313 10.3951 23.4817 10.7071 23.4817H14.3052C14.6172 23.4817 14.8668 23.7313 14.8668 24.0433Z" fill="#E5E5E5"/>
<path d="M16.8005 16.5557C18.1524 15.3286 18.9219 13.6023 18.9219 11.7928C18.9219 8.25707 16.0309 5.36606 12.4951 5.36606C8.95937 5.36606 6.06836 8.25707 6.06836 11.7928C6.06836 13.6439 6.87951 15.4118 8.25222 16.6181C9.27136 17.6373 9.16736 19.8003 9.16736 19.8211C9.16736 19.9251 9.20896 20.0291 9.27135 20.1123C9.35455 20.1955 9.45854 20.2371 9.56254 20.2371H15.4486C15.5526 20.2371 15.6565 20.1955 15.7397 20.1123C15.8229 20.0291 15.8437 19.9251 15.8437 19.8211C15.8437 19.8003 15.7397 17.6373 16.7589 16.6181C16.7797 16.5973 16.8005 16.5765 16.8005 16.5557ZM16.2181 16.0358C16.1765 16.0566 16.1557 16.0982 16.1349 16.1398C15.2198 17.1173 15.0742 18.7188 15.0534 19.4676H9.95771C9.93691 18.698 9.77052 17.0341 8.79299 16.0566C7.56586 14.975 6.85871 13.4359 6.85871 11.8136C6.85871 8.69384 9.39615 6.1772 12.4951 6.1772C15.615 6.1772 18.1316 8.71464 18.1316 11.8136C18.1316 13.4151 17.4452 14.975 16.2181 16.0358Z" fill="#273951"/>
<path d="M12.4958 7.02995C12.2878 7.02995 12.1006 7.19634 12.1006 7.42512C12.1006 7.63311 12.267 7.8203 12.4958 7.8203C14.8252 7.8203 16.7179 9.71298 16.7179 12.0424C16.7179 12.2504 16.8843 12.4376 17.1131 12.4376C17.3211 12.4376 17.5082 12.2712 17.5082 12.0424C17.5082 9.27621 15.262 7.02995 12.4958 7.02995Z" fill="#273951"/>
<path d="M16.0312 21.7138C16.0312 21.173 15.5944 20.7571 15.0745 20.7571H9.93721C9.39644 20.7571 8.98047 21.1938 8.98047 21.7138C8.98047 22.2546 9.41724 22.6705 9.93721 22.6705H15.0537C15.5944 22.6705 16.0312 22.2546 16.0312 21.7138ZM15.0537 21.8802H9.93721C9.83321 21.8802 9.77082 21.797 9.77082 21.7138C9.77082 21.6098 9.85401 21.5474 9.93721 21.5474H15.0537C15.1577 21.5474 15.2201 21.6306 15.2201 21.7138C15.2409 21.8178 15.1577 21.8802 15.0537 21.8802Z" fill="#273951"/>
<path d="M14.3049 23.0865H10.7067C10.166 23.0865 9.75 23.5233 9.75 24.0433C9.75 24.584 10.1868 25 10.7067 25H14.3049C14.8457 25 15.2616 24.5632 15.2616 24.0433C15.2616 23.5233 14.8249 23.0865 14.3049 23.0865ZM14.3049 24.2097H10.7067C10.6027 24.2097 10.5404 24.1265 10.5404 24.0433C10.5404 23.9393 10.6235 23.8769 10.7067 23.8769H14.3049C14.4089 23.8769 14.4713 23.9601 14.4713 24.0433C14.4713 24.1473 14.4089 24.2097 14.3049 24.2097Z" fill="#273951"/>
<path d="M12.8909 3.0574V0.395175C12.8909 0.187188 12.7245 0 12.4958 0C12.2878 0 12.1006 0.166389 12.1006 0.395175V3.0782C12.1006 3.28619 12.267 3.47338 12.4958 3.47338C12.7245 3.45258 12.8909 3.28619 12.8909 3.0574Z" fill="#273951"/>
<path d="M19.0472 1.97587C18.86 1.85108 18.6312 1.91348 18.5065 2.07987L17.0297 4.30532C16.905 4.49251 16.9674 4.7213 17.1337 4.84609C17.1961 4.88769 17.2793 4.90849 17.3417 4.90849C17.4665 4.90849 17.5913 4.84609 17.6745 4.7421L19.1512 2.51664C19.276 2.35025 19.2136 2.10067 19.0472 1.97587Z" fill="#273951"/>
<path d="M7.79528 4.82529C7.85767 4.82529 7.94087 4.80449 8.00326 4.7629C8.19045 4.6381 8.23205 4.40932 8.12806 4.22213L6.69295 1.97587C6.56816 1.78869 6.33937 1.74709 6.15218 1.85108C5.96499 1.97587 5.9234 2.20466 6.02739 2.39185L7.4625 4.6381C7.54569 4.7629 7.67049 4.82529 7.79528 4.82529Z" fill="#273951"/>
<path d="M2.2836 6.69717L4.63385 7.96589C4.69625 8.00749 4.75864 8.00749 4.82104 8.00749C4.96663 8.00749 5.09142 7.92429 5.17462 7.7995C5.27861 7.61231 5.21621 7.36273 5.00823 7.25874L2.65798 5.99002C2.47079 5.88602 2.2212 5.94842 2.11721 6.15641C2.03402 6.36439 2.09641 6.59318 2.2836 6.69717Z" fill="#273951"/>
<path d="M20.1704 8.02829C20.2328 8.02829 20.2952 8.00749 20.3576 7.98669L22.7078 6.71797C22.895 6.61398 22.9782 6.38519 22.8742 6.17721C22.7702 5.99002 22.5414 5.90682 22.3334 6.01082L19.9832 7.27953C19.796 7.38353 19.7128 7.61231 19.8168 7.8203C19.8792 7.94509 20.0248 8.02829 20.1704 8.02829Z" fill="#273951"/>
</svg>
