<!-- Generated by IcoMoon.io -->
<svg version="1.1" xmlns="http://www.w3.org/2000/svg" width="32" height="32" viewBox="0 0 32 32">
<title>vg-login</title>
<path d="M27.314 4.686c-3.022-3.022-7.040-4.686-11.314-4.686s-8.292 1.664-11.314 4.686-4.686 7.040-4.686 11.314c0 4.274 1.664 8.292 4.686 11.314s7.040 4.686 11.314 4.686c4.274 0 8.292-1.664 11.314-4.686s4.686-7.040 4.686-11.314c0-4.274-1.664-8.292-4.686-11.314zM8.021 27.649c0.669-3.853 4.008-6.695 7.979-6.695s7.31 2.842 7.979 6.695c-2.272 1.561-5.020 2.476-7.979 2.476s-5.707-0.915-7.979-2.476zM10.913 13.992c0-2.805 2.282-5.087 5.087-5.087s5.087 2.282 5.087 5.087c0 2.805-2.282 5.087-5.087 5.087s-5.087-2.282-5.087-5.087zM25.603 26.349c-0.505-1.794-1.507-3.421-2.912-4.692-0.862-0.78-1.843-1.395-2.897-1.829 1.906-1.243 3.169-3.395 3.169-5.835 0-3.839-3.124-6.962-6.963-6.962s-6.962 3.123-6.962 6.962c0 2.441 1.263 4.592 3.169 5.835-1.054 0.434-2.036 1.049-2.897 1.829-1.405 1.271-2.407 2.899-2.912 4.692-2.78-2.581-4.522-6.265-4.522-10.348 0-7.789 6.336-14.125 14.125-14.125s14.125 6.336 14.125 14.125c0 4.084-1.743 7.767-4.522 10.349z"></path>
</svg>
