<svg width="20" height="20" viewBox="0 0 20 20" fill="none" xmlns="http://www.w3.org/2000/svg">
<path d="M17.4219 1.5625H15.625V0.625C15.625 0.279844 15.3452 0 15 0C14.6548 0 14.375 0.279844 14.375 0.625V1.5625H5.625V0.625C5.625 0.279844 5.3452 0 5 0C4.6548 0 4.375 0.279844 4.375 0.625V1.5625H2.57812C1.15652 1.5625 0 2.71902 0 4.14062V17.4219C0 18.8435 1.15652 20 2.57812 20H17.4219C18.8435 20 20 18.8435 20 17.4219V4.14062C20 2.71902 18.8435 1.5625 17.4219 1.5625ZM2.57812 2.8125H4.375V3.4375C4.375 3.78266 4.6548 4.0625 5 4.0625C5.3452 4.0625 5.625 3.78266 5.625 3.4375V2.8125H14.375V3.4375C14.375 3.78266 14.6548 4.0625 15 4.0625C15.3452 4.0625 15.625 3.78266 15.625 3.4375V2.8125H17.4219C18.1542 2.8125 18.75 3.40828 18.75 4.14062V5.625H1.25V4.14062C1.25 3.40828 1.84578 2.8125 2.57812 2.8125ZM17.4219 18.75H2.57812C1.84578 18.75 1.25 18.1542 1.25 17.4219V6.875H18.75V17.4219C18.75 18.1542 18.1542 18.75 17.4219 18.75Z" fill="#273951"/>
<path d="M14.439 12.5469H5.83014C5.61976 12.5469 5.44922 12.6606 5.44922 12.8008C5.44922 12.9411 5.61976 13.0548 5.83014 13.0548H14.439C14.6494 13.0548 14.8199 12.9411 14.8199 12.8008C14.8199 12.6606 14.6494 12.5469 14.439 12.5469Z" fill="#273951"/>
<path d="M5.83014 9.49618H14.439C14.6494 9.49618 14.8199 9.38249 14.8199 9.24223C14.8199 9.10197 14.6494 8.98828 14.439 8.98828H5.83014C5.61976 8.98828 5.44922 9.10197 5.44922 9.24223C5.44922 9.38249 5.61976 9.49618 5.83014 9.49618Z" fill="#273951"/>
<path d="M14.439 16.1016H5.83014C5.61976 16.1016 5.44922 16.2153 5.44922 16.3555C5.44922 16.4958 5.61976 16.6095 5.83014 16.6095H14.439C14.6494 16.6095 14.8199 16.4958 14.8199 16.3555C14.8199 16.2153 14.6494 16.1016 14.439 16.1016Z" fill="#273951"/>
</svg>
