<svg width="452" height="111" viewBox="0 0 452 111" fill="none" xmlns="http://www.w3.org/2000/svg">
<path d="M29.3402 80.9253C28.8602 81.1053 27.6602 81.3453 25.7402 81.6453C23.8202 82.0053 22.0502 82.1853 20.4302 82.1853C18.8702 82.1853 17.9702 81.7353 17.7302 80.8353C16.6502 77.1153 15.0302 69.8553 12.8702 59.0553C10.7102 48.1953 8.52024 38.3553 6.30024 29.5353C4.14024 20.7153 2.04024 14.8653 0.000244141 11.9853C3.30024 10.4253 5.91024 9.64527 7.83024 9.64527C9.75024 9.64527 11.1302 9.85527 11.9702 10.2753C12.8102 10.6953 13.6202 11.6253 14.4002 13.0653C15.2402 14.5053 15.9602 16.4253 16.5602 18.8253C17.4602 22.4253 18.5702 27.7653 19.8902 34.8453C21.2102 41.9253 21.9602 45.8253 22.1402 46.5453C24.2402 57.2253 25.6202 64.5453 26.2802 68.5053C30.1802 60.1653 34.5002 49.0953 39.2402 35.2953C43.9802 21.4353 46.3502 12.4353 46.3502 8.29527C53.1302 9.43527 56.5203 11.6553 56.5203 14.9553C56.5203 17.4153 54.8102 22.6353 51.3902 30.6153C48.0302 38.5353 43.9502 47.6853 39.1502 58.0653C34.4102 68.3853 31.1402 76.0053 29.3402 80.9253Z" fill="white"/>
<path d="M62.4687 63.9153C62.4687 66.7353 62.9786 69.0453 63.9986 70.8453C65.0786 72.5853 66.5786 73.4553 68.4986 73.4553C71.3186 73.4553 73.9885 71.8053 76.5085 68.5053C79.0885 65.2053 81.1286 60.9753 82.6286 55.8153C84.1886 50.6553 84.9686 45.7653 84.9686 41.1453C84.9686 36.4653 84.7885 32.6853 84.4285 29.8053C86.2285 29.6853 87.4886 29.6253 88.2086 29.6253C91.2686 29.6253 93.5786 30.1953 95.1385 31.3353C96.6985 32.4753 97.4786 34.5153 97.4786 37.4553C97.4786 38.5953 96.7585 43.2453 95.3185 51.4053C93.8785 59.5053 93.1586 66.0153 93.1586 70.9353C93.1586 75.7953 94.0885 80.1153 95.9485 83.8953C91.4485 83.1153 88.1486 81.4653 86.0486 78.9453C83.9486 76.3653 82.8985 72.6753 82.8985 67.8753C82.8985 67.0353 83.0185 65.4153 83.2585 63.0153C81.6385 68.7153 78.7585 73.3053 74.6185 76.7853C70.4785 80.2653 66.3987 82.0053 62.3787 82.0053C58.4187 82.0053 55.2087 80.5353 52.7487 77.5953C50.3487 74.5953 49.1487 70.3653 49.1487 64.9053C49.1487 59.4453 50.1087 54.1653 52.0287 49.0653C54.0087 43.9053 56.9487 39.5553 60.8487 36.0153C64.7487 32.4153 69.0986 30.6153 73.8986 30.6153C76.6586 30.6153 79.4786 31.2753 82.3586 32.5953C76.2986 34.7553 71.4685 39.0153 67.8685 45.3753C64.2685 51.6753 62.4687 57.8553 62.4687 63.9153Z" fill="white"/>
<path d="M106.007 78.6753C105.287 77.4753 104.837 76.3353 104.657 75.2553C104.477 74.1153 104.387 72.3753 104.387 70.0353C104.387 67.6953 105.377 58.4853 107.357 42.4053C109.397 26.3253 110.743 17.7002 110.743 11.7002C110.743 5.70019 110.383 1.80018 109.663 0.000183105C114.163 1.20019 117.223 3.03018 118.843 5.49018C120.523 7.89018 121.363 11.3102 121.363 15.7502C121.363 18.3902 120.167 24.5553 118.427 39.0753C116.687 53.5953 115.817 65.2953 115.817 74.1753C115.817 76.0953 115.937 78.7953 116.177 82.2753C110.717 82.0353 107.327 80.8353 106.007 78.6753Z" fill="white"/>
<path d="M156.122 28.9953C157.922 28.8753 159.182 28.8153 159.902 28.8153C163.022 28.8153 165.392 29.3853 167.012 30.5253C168.632 31.6653 169.442 33.7653 169.442 36.8253C169.442 37.7853 168.872 42.0153 167.732 49.5153C166.592 56.9553 166.022 63.3453 166.022 68.6853C166.022 74.0253 166.592 78.7353 167.732 82.8153C163.232 81.3753 160.112 79.3353 158.372 76.6953C156.632 74.0553 155.762 70.7853 155.762 66.8853C155.762 65.3853 156.092 61.9953 156.752 56.7153C154.892 63.5553 152.042 69.3153 148.202 73.9953C144.422 78.6153 140.852 80.9253 137.492 80.9253C130.592 80.9253 127.142 75.9453 127.142 65.9853C127.142 62.6853 127.622 58.0953 128.582 52.2153C129.602 46.2753 130.112 41.7753 130.112 38.7153C130.112 35.6553 129.692 32.5653 128.852 29.4453C133.832 29.4453 137.432 30.1053 139.652 31.4253C141.932 32.6853 143.072 35.2353 143.072 39.0753C143.072 41.1153 142.442 45.1653 141.182 51.2253C139.922 57.2853 139.292 61.8453 139.292 64.9053C139.292 69.3453 140.492 71.5653 142.892 71.5653C144.092 71.5653 145.472 70.7553 147.032 69.1353C148.592 67.4553 150.092 65.2653 151.532 62.5653C152.972 59.8053 154.172 56.3853 155.132 52.3053C156.152 48.1653 156.662 43.9953 156.662 39.7953C156.662 35.5353 156.482 31.9353 156.122 28.9953Z" fill="white"/>
<path d="M194.022 58.7853C191.142 58.7853 188.322 58.4553 185.562 57.7953C185.502 58.3953 185.472 59.3253 185.472 60.5853C185.472 65.5653 186.402 69.3153 188.262 71.8353C190.122 74.3553 192.342 75.6153 194.922 75.6153C197.502 75.6153 199.962 74.8353 202.302 73.2753C204.642 71.7153 206.682 69.5553 208.422 66.7953C210.582 67.2753 211.662 68.3853 211.662 70.1253C206.382 78.2253 199.572 82.2753 191.232 82.2753C186.192 82.2753 181.782 80.3553 178.002 76.5153C174.222 72.6153 172.332 67.2153 172.332 60.3153C172.332 55.1553 173.322 50.2653 175.302 45.6453C177.282 40.9653 180.432 37.0353 184.752 33.8553C189.072 30.6153 193.842 28.9953 199.062 28.9953C204.342 28.9953 208.212 30.1953 210.672 32.5953C213.132 34.9953 214.362 38.1453 214.362 42.0453C214.362 47.6853 212.382 51.8853 208.422 54.6453C204.522 57.4053 199.722 58.7853 194.022 58.7853ZM197.802 34.5753C194.742 34.5753 192.162 36.4653 190.062 40.2453C187.962 44.0253 186.582 48.6153 185.922 54.0153H187.272C192.492 54.0153 196.332 52.6653 198.792 49.9653C201.312 47.2653 202.572 44.0253 202.572 40.2453C202.572 38.6853 202.152 37.3653 201.312 36.2853C200.532 35.1453 199.362 34.5753 197.802 34.5753Z" fill="white"/>
<path d="M246.235 103.965C256.255 103.965 261.956 92.1753 263.336 68.5953C261.116 71.7753 258.445 74.2053 255.325 75.8853C252.205 77.5053 248.995 78.3153 245.695 78.3153C239.935 78.3153 234.985 75.9753 230.845 71.2953C226.705 66.6153 224.635 60.1053 224.635 51.7653C224.635 40.3053 227.605 30.3453 233.545 21.8853C236.425 17.7453 240.145 14.4753 244.705 12.0753C249.265 9.61527 254.456 8.38527 260.276 8.38527C266.156 8.38527 270.626 9.91527 273.686 12.9753C276.806 15.9753 278.366 19.6953 278.366 24.1353C278.366 28.5753 276.986 32.0853 274.226 34.6653C271.466 37.2453 268.196 38.5353 264.416 38.5353C261.956 38.5353 259.615 37.9353 257.395 36.7353C255.175 35.5353 253.465 33.7953 252.265 31.5153C253.885 31.9353 255.415 32.1453 256.855 32.1453C260.095 32.1453 262.646 31.2153 264.506 29.3553C266.426 27.4953 267.386 25.3953 267.386 23.0553C267.386 20.7153 266.606 18.7953 265.046 17.2953C263.486 15.7353 261.265 14.9553 258.385 14.9553C254.605 14.9553 251.155 16.9053 248.035 20.8053C244.975 24.6453 242.665 29.3253 241.105 34.8453C239.545 40.3053 238.765 45.9753 238.765 51.8553C238.765 57.7353 239.905 62.3553 242.185 65.7153C244.525 69.0153 247.345 70.6653 250.645 70.6653C253.945 70.6653 256.795 69.0453 259.195 65.8053C261.655 62.5653 262.886 58.1853 262.886 52.6653C262.886 51.2853 262.796 49.8753 262.616 48.4353V48.1653C263.936 48.0453 265.316 47.9853 266.756 47.9853C270.236 47.9853 272.636 48.5853 273.956 49.7853C275.336 50.9253 276.026 52.9053 276.026 55.7253C276.026 74.0253 272.756 88.3053 266.216 98.5653C263.936 102.105 260.965 104.985 257.305 107.205C253.645 109.425 249.505 110.535 244.885 110.535C238.585 110.535 233.845 108.915 230.665 105.675C227.545 102.495 225.985 98.8353 225.985 94.6953C225.985 90.5553 227.095 87.2253 229.315 84.7053C231.535 82.2453 234.295 81.0153 237.595 81.0153C239.395 81.0153 241.375 81.5253 243.535 82.5453C240.355 86.5653 238.765 90.7953 238.765 95.2353C238.765 97.8153 239.365 99.9153 240.565 101.535C241.765 103.155 243.655 103.965 246.235 103.965Z" fill="white"/>
<path d="M311.693 28.9953C313.493 28.8753 314.753 28.8153 315.473 28.8153C318.593 28.8153 320.963 29.3853 322.583 30.5253C324.203 31.6653 325.013 33.7653 325.013 36.8253C325.013 37.7853 324.443 42.0153 323.303 49.5153C322.163 56.9553 321.593 63.3453 321.593 68.6853C321.593 74.0253 322.163 78.7353 323.303 82.8153C318.803 81.3753 315.683 79.3353 313.943 76.6953C312.203 74.0553 311.333 70.7853 311.333 66.8853C311.333 65.3853 311.663 61.9953 312.323 56.7153C310.463 63.5553 307.613 69.3153 303.773 73.9953C299.993 78.6153 296.423 80.9253 293.063 80.9253C286.163 80.9253 282.713 75.9453 282.713 65.9853C282.713 62.6853 283.193 58.0953 284.153 52.2153C285.173 46.2753 285.683 41.7753 285.683 38.7153C285.683 35.6553 285.263 32.5653 284.423 29.4453C289.403 29.4453 293.003 30.1053 295.223 31.4253C297.503 32.6853 298.643 35.2353 298.643 39.0753C298.643 41.1153 298.013 45.1653 296.753 51.2253C295.493 57.2853 294.863 61.8453 294.863 64.9053C294.863 69.3453 296.063 71.5653 298.463 71.5653C299.663 71.5653 301.043 70.7553 302.603 69.1353C304.163 67.4553 305.663 65.2653 307.103 62.5653C308.543 59.8053 309.743 56.3853 310.703 52.3053C311.723 48.1653 312.233 43.9953 312.233 39.7953C312.233 35.5353 312.053 31.9353 311.693 28.9953Z" fill="white"/>
<path d="M352.593 58.7853C349.713 58.7853 346.893 58.4553 344.133 57.7953C344.073 58.3953 344.043 59.3253 344.043 60.5853C344.043 65.5653 344.973 69.3153 346.833 71.8353C348.693 74.3553 350.913 75.6153 353.493 75.6153C356.073 75.6153 358.533 74.8353 360.873 73.2753C363.213 71.7153 365.253 69.5553 366.993 66.7953C369.153 67.2753 370.233 68.3853 370.233 70.1253C364.953 78.2253 358.143 82.2753 349.803 82.2753C344.763 82.2753 340.353 80.3553 336.573 76.5153C332.793 72.6153 330.903 67.2153 330.903 60.3153C330.903 55.1553 331.893 50.2653 333.873 45.6453C335.853 40.9653 339.003 37.0353 343.323 33.8553C347.643 30.6153 352.413 28.9953 357.633 28.9953C362.913 28.9953 366.783 30.1953 369.243 32.5953C371.703 34.9953 372.933 38.1453 372.933 42.0453C372.933 47.6853 370.953 51.8853 366.993 54.6453C363.093 57.4053 358.293 58.7853 352.593 58.7853ZM356.373 34.5753C353.313 34.5753 350.733 36.4653 348.633 40.2453C346.533 44.0253 345.153 48.6153 344.493 54.0153H345.843C351.063 54.0153 354.903 52.6653 357.363 49.9653C359.883 47.2653 361.143 44.0253 361.143 40.2453C361.143 38.6853 360.723 37.3653 359.883 36.2853C359.103 35.1453 357.933 34.5753 356.373 34.5753Z" fill="white"/>
<path d="M397.824 34.3053C396.144 34.3053 394.644 34.8753 393.324 36.0153C392.004 37.0953 391.344 38.6553 391.344 40.6953C391.344 42.7353 392.034 44.6553 393.414 46.4553C394.854 48.2553 396.594 49.8453 398.634 51.2253C400.674 52.5453 402.714 53.9253 404.754 55.3653C406.854 56.7453 408.684 58.4853 410.244 60.5853C411.804 62.6253 412.674 64.9053 412.854 67.4253C412.854 71.7453 410.994 75.3753 407.274 78.3153C403.554 81.2553 398.934 82.7253 393.414 82.7253C387.894 82.7253 383.544 81.6153 380.364 79.3953C377.244 77.1753 375.684 74.6253 375.684 71.7453C375.684 68.8653 376.554 66.5553 378.294 64.8153C380.094 63.0153 382.314 62.1153 384.954 62.1153C386.334 62.1153 387.624 62.3553 388.824 62.8353C386.904 64.8753 385.944 67.0353 385.944 69.3153C385.944 71.5953 386.574 73.4253 387.834 74.8053C389.094 76.1853 390.804 76.8753 392.964 76.8753C395.124 76.8753 396.924 76.3353 398.364 75.2553C399.864 74.1153 400.614 72.6753 400.614 70.9353C400.614 69.1353 400.104 67.5453 399.084 66.1653C398.064 64.7853 396.774 63.5853 395.214 62.5653C393.714 61.4853 392.064 60.2853 390.264 58.9653C388.464 57.6453 386.784 56.3253 385.224 55.0053C383.724 53.6253 382.464 51.9153 381.444 49.8753C380.424 47.7753 379.914 45.4953 379.914 43.0353C379.914 38.7753 381.654 35.2953 385.134 32.5953C388.674 29.8353 393.054 28.4553 398.274 28.4553C403.554 28.4553 407.394 29.4753 409.794 31.5153C412.254 33.5553 413.484 35.9553 413.484 38.7153C413.484 41.4153 412.614 43.7253 410.874 45.6453C409.194 47.5653 407.004 48.5253 404.304 48.5253C402.984 48.5253 401.484 48.2553 399.804 47.7153C401.124 46.5753 402.144 45.2853 402.864 43.8453C403.584 42.3453 403.944 40.8753 403.944 39.4353C403.944 37.9953 403.344 36.7953 402.144 35.8353C400.944 34.8153 399.504 34.3053 397.824 34.3053Z" fill="white"/>
<path d="M439.78 38.6253C439.48 40.7853 438.85 44.5353 437.89 49.8753C435.85 61.2153 434.83 69.6153 434.83 75.0753C434.83 80.5353 435.25 84.1953 436.09 86.0553C431.47 84.8553 428.29 83.0253 426.55 80.5653C424.81 78.0453 423.94 74.5053 423.94 69.9453C423.94 65.9253 424.57 60.4353 425.83 53.4753C427.09 46.4553 427.9 41.7153 428.26 39.2553C425.14 39.7953 421.81 40.8453 418.27 42.4053C418.15 41.0853 418.09 40.0953 418.09 39.4353C418.09 36.2553 419.05 34.0953 420.97 32.9553C422.89 31.7553 425.65 31.1253 429.25 31.0653C429.67 26.5653 429.88 23.3253 429.88 21.3453C429.88 19.3653 429.85 17.7153 429.79 16.3953C429.79 15.0753 429.79 14.0853 429.79 13.4253C433.75 13.8453 436.63 15.0453 438.43 17.0253C440.23 18.9453 441.13 21.7053 441.13 25.3053C441.13 26.7453 440.98 28.7553 440.68 31.3353C445.72 31.2153 449.41 30.2253 451.75 28.3653C451.87 29.5653 451.93 30.4653 451.93 31.0653C451.93 33.9453 451.42 35.9553 450.4 37.0953C449.38 38.1753 447.67 38.7153 445.27 38.7153C442.87 38.7153 441.04 38.6853 439.78 38.6253Z" fill="white"/>
</svg>
