<svg width="250" height="312" viewBox="0 0 250 312" fill="none" xmlns="http://www.w3.org/2000/svg">
<path d="M74.7516 185.777C73.5287 186.238 70.4713 186.851 65.5796 187.619C60.6879 188.54 56.1783 189 52.0509 189C48.0764 189 45.7834 187.849 45.172 185.547C42.4204 176.032 38.293 157.462 32.7898 129.837C27.2866 102.059 21.707 76.8892 16.051 54.3289C10.5478 31.7686 5.19745 16.8051 0 9.43849C8.40764 5.44824 15.0573 3.4531 19.949 3.4531C24.8408 3.4531 28.3567 3.99024 30.4968 5.06454C32.6369 6.13883 34.7006 8.51769 36.6879 12.201C38.828 15.8843 40.6624 20.7954 42.1911 26.9342C44.4841 36.1425 47.3121 49.8016 50.6752 67.9112C54.0382 86.0208 55.949 95.9964 56.4076 97.8381C61.758 125.156 65.2739 143.879 66.9554 154.009C76.8917 132.676 87.8981 104.361 99.9745 69.0622C112.051 33.6104 118.089 10.5895 118.089 0C135.363 2.91595 144 8.59443 144 17.0353C144 23.3277 139.643 36.6797 130.93 57.0914C122.369 77.3496 111.975 100.754 99.7452 127.305C87.6688 153.702 79.3376 173.192 74.7516 185.777Z" fill="#AC2551"/>
<path d="M175.251 296.693C198.561 296.693 211.823 269.223 215.034 214.284C209.869 221.693 203.656 227.354 196.398 231.269C189.139 235.043 181.672 236.93 173.994 236.93C160.594 236.93 149.078 231.478 139.447 220.574C129.816 209.67 125 194.503 125 175.071C125 148.371 131.909 125.165 145.728 105.454C152.428 95.8079 161.083 88.1891 171.691 82.5974C182.3 76.8658 194.375 74 207.914 74C221.594 74 231.993 77.5648 239.112 84.6943C246.371 91.684 250 100.351 250 110.696C250 121.041 246.79 129.219 240.369 135.23C233.948 141.241 226.34 144.247 217.546 144.247C211.823 144.247 206.379 142.849 201.214 140.053C196.049 137.257 192.071 133.203 189.279 127.891C193.048 128.869 196.608 129.359 199.958 129.359C207.495 129.359 213.429 127.192 217.756 122.858C222.223 118.525 224.456 113.632 224.456 108.18C224.456 102.728 222.641 98.2543 219.012 94.7595C215.383 91.1248 210.217 89.3075 203.517 89.3075C194.723 89.3075 186.697 93.8508 179.438 102.937C172.319 111.884 166.945 122.788 163.316 135.649C159.687 148.371 157.872 161.581 157.872 175.281C157.872 188.981 160.524 199.745 165.829 207.574C171.272 215.262 177.833 219.107 185.51 219.107C193.187 219.107 199.818 215.332 205.402 207.783C211.125 200.234 213.987 190.029 213.987 177.168C213.987 173.953 213.778 170.668 213.359 167.313V166.684C216.43 166.404 219.64 166.264 222.99 166.264C231.086 166.264 236.67 167.662 239.74 170.458C242.951 173.114 244.556 177.727 244.556 184.298C244.556 226.935 236.949 260.206 221.734 284.111C216.43 292.359 209.519 299.069 201.004 304.241C192.49 309.414 182.858 312 172.11 312C157.454 312 146.426 308.226 139.028 300.677C131.77 293.268 128.141 284.74 128.141 275.094C128.141 265.448 130.723 257.69 135.888 251.819C141.052 246.087 147.473 243.221 155.15 243.221C159.338 243.221 163.944 244.409 168.969 246.786C161.571 256.152 157.872 266.008 157.872 276.352C157.872 282.364 159.268 287.256 162.06 291.031C164.852 294.805 169.248 296.693 175.251 296.693Z" fill="#AC2551"/>
</svg>
