<svg width="28" height="28" viewBox="0 0 28 28" fill="none" xmlns="http://www.w3.org/2000/svg">
<path d="M15.6618 0.679038C15.1875 0.240239 14.5758 0 13.9274 0C13.2424 0 12.5984 0.268097 12.1138 0.755157L0.756223 12.1707C0.752398 12.1746 0.748359 12.1786 0.744746 12.1825C-0.249911 13.188 -0.248211 14.8195 0.749635 15.8224C1.20552 16.2809 1.80741 16.5462 2.45118 16.5742C2.47753 16.5767 2.50389 16.578 2.53045 16.578H2.98315V24.9832C2.98315 26.6467 4.32976 28 5.98476 28H10.4305C10.8813 28 11.2467 27.6326 11.2467 27.1797V20.5898C11.2467 19.8308 11.8611 19.2135 12.6162 19.2135H15.2385C15.9936 19.2135 16.6078 19.8308 16.6078 20.5898V27.1797C16.6078 27.6326 16.9732 28 17.424 28H21.8697C23.5249 28 24.8713 26.6467 24.8713 24.9832V16.578H25.2913C25.9761 16.578 26.6201 16.3099 27.1049 15.8226C27.9317 14.9912 28.0744 13.728 27.5331 12.7475C27.103 13.0854 26.6398 13.3826 26.1492 13.6333C26.2929 13.9748 26.2267 14.385 25.9506 14.6627C25.7744 14.8398 25.5402 14.9374 25.2913 14.9374H24.0552C23.6044 14.9374 23.2391 15.3046 23.2391 15.7577V24.9832C23.2391 25.742 22.6249 26.3594 21.8697 26.3594H18.2401V20.5898C18.2401 18.9264 16.8937 17.5728 15.2385 17.5728H12.6162C10.961 17.5728 9.61441 18.9264 9.61441 20.5898V26.3594H5.98476C5.22984 26.3594 4.61541 25.742 4.61541 24.9832V15.7577C4.61541 15.3046 4.25006 14.9374 3.79928 14.9374H2.58444C2.57168 14.9365 2.55915 14.9359 2.54618 14.9357C2.30304 14.9314 2.07499 14.8344 1.90412 14.6624C1.54068 14.2971 1.54068 13.7026 1.90412 13.3371L1.90437 13.3369L1.90454 13.3367L13.2683 1.91513C13.4443 1.73804 13.6783 1.64062 13.9274 1.64062C14.1762 1.64062 14.4102 1.73804 14.5864 1.91513L14.7531 2.08261C15.0105 1.584 15.3154 1.11413 15.6618 0.679038Z" fill="#273951"/>
<path d="M23.9561 5.40468C23.724 5.17105 23.3466 5.17105 23.1145 5.40468L20.5591 7.97286L19.4919 6.90042C19.2597 6.66678 18.8823 6.66678 18.6502 6.90042C18.4177 7.13405 18.4177 7.51277 18.6502 7.74641L20.1383 9.24214C20.2544 9.35911 20.4067 9.41744 20.5591 9.41744C20.7115 9.41744 20.8639 9.35911 20.9799 9.24214L23.9561 6.25067C24.1886 6.01704 24.1886 5.63832 23.9561 5.40468Z" fill="#273951"/>
<path d="M27.4048 6.72477C27.0762 6.72477 26.8095 6.99281 26.8095 7.32306C26.8095 10.622 24.1393 13.306 20.8571 13.306C17.575 13.306 14.9048 10.622 14.9048 7.32306C14.9048 4.0241 17.575 1.34017 20.8571 1.34017C22.4551 1.34017 23.9551 1.96777 25.0813 3.10752C25.3125 3.34234 25.6896 3.34354 25.9229 3.11051C26.1563 2.87777 26.1574 2.49905 25.9259 2.26453C24.5747 0.896836 22.7744 0.143589 20.8571 0.143589C16.9185 0.143589 13.7143 3.36418 13.7143 7.32306C13.7143 11.2819 16.9185 14.5025 20.8571 14.5025C24.7958 14.5025 28 11.2819 28 7.32306C28 6.99281 27.7333 6.72477 27.4048 6.72477Z" fill="#273951"/>
</svg>
