<svg width="27" height="28" viewBox="0 0 27 28" fill="none" xmlns="http://www.w3.org/2000/svg">
<path d="M11.4372 0.979493H1.31051C0.586733 0.979493 0 1.58437 0 2.33052V26.649C0 27.3951 0.586734 28 1.31051 28H24.8996C25.6234 28 26.2101 27.3951 26.2101 26.649V16.52C25.9504 16.5575 25.6882 16.5872 25.4238 16.6088V26.649C25.4238 26.9474 25.1891 27.1894 24.8996 27.1894H1.31051C1.021 27.1894 0.786303 26.9474 0.786303 26.649V2.33052C0.786303 2.03206 1.021 1.79011 1.31051 1.79011H11.3351C11.3613 1.51744 11.3954 1.24715 11.4372 0.979493Z" fill="#273951"/>
<path d="M15.4051 8.19323C16.1218 8.93207 16.992 9.30149 18.0159 9.30149C19.0397 9.30149 19.91 8.93207 20.6266 8.19323C21.3433 7.45439 21.7017 6.55722 21.7017 5.50173C21.7017 4.44625 21.3433 3.54908 20.6266 2.81024C19.91 2.0714 19.0397 1.70198 18.0159 1.70198C16.992 1.70198 16.1218 2.0714 15.4051 2.81024C14.6884 3.54908 14.3301 4.44625 14.3301 5.50173C14.3301 6.55722 14.6884 7.45439 15.4051 8.19323ZM22.9303 9.30149L27 13.4971L25.7714 14.7636L21.7017 10.5681V9.89521L21.4713 9.65772C20.4987 10.5285 19.3469 10.9639 18.0159 10.9639C16.5313 10.9639 15.2643 10.4361 14.2149 9.38066C13.1911 8.32517 12.6791 7.03219 12.6791 5.50173C12.6791 3.97128 13.1911 2.6783 14.2149 1.62281C15.2643 0.540938 16.5313 0 18.0159 0C19.5004 0 20.7546 0.540938 21.7785 1.62281C22.8023 2.6783 23.3142 3.97128 23.3142 5.50173C23.3142 6.87387 22.8919 8.06129 22.0472 9.06401L22.2776 9.30149H22.9303Z" fill="#273951"/>
<path d="M18.8387 18.1339C18.8384 18.1336 18.8381 18.1332 18.8378 18.1329L14.0266 13.1731C13.8215 12.9616 13.5488 12.8452 13.2588 12.8452C12.9688 12.8452 12.6961 12.9616 12.491 13.1731L7.68222 18.1304C7.6806 18.1321 7.67889 18.1339 7.67736 18.1355C7.25623 18.5722 7.25695 19.2807 7.67943 19.7162C7.87245 19.9153 8.12729 20.0305 8.39986 20.0427C8.41101 20.0438 8.42217 20.0443 8.43342 20.0443H8.62509V23.6944C8.62509 24.4168 9.19524 25.0044 9.89595 25.0044H11.7783C11.9691 25.0044 12.1238 24.8449 12.1238 24.6482V21.7865C12.1238 21.4569 12.384 21.1888 12.7037 21.1888H13.8139C14.1336 21.1888 14.3937 21.4569 14.3937 21.7865V24.6482C14.3937 24.8449 14.5484 25.0044 14.7392 25.0044H16.6216C17.3224 25.0044 17.8924 24.4168 17.8924 23.6944V20.0443H18.0702C18.3602 20.0443 18.6328 19.9279 18.8381 19.7163C19.261 19.2801 19.2612 18.5703 18.8387 18.1339ZM18.3494 19.2126C18.2748 19.2895 18.1756 19.3319 18.0702 19.3319H17.5469C17.356 19.3319 17.2013 19.4913 17.2013 19.6881V23.6944C17.2013 24.0239 16.9413 24.292 16.6216 24.292H15.0848V21.7865C15.0848 21.0641 14.5147 20.4764 13.8139 20.4764H12.7037C12.0029 20.4764 11.4327 21.0641 11.4327 21.7865V24.292H9.89595C9.57633 24.292 9.31618 24.0239 9.31618 23.6944V19.6881C9.31618 19.4913 9.16149 19.3319 8.97063 19.3319H8.45628C8.45088 19.3315 8.44557 19.3312 8.44008 19.3311C8.33714 19.3293 8.24058 19.2872 8.16823 19.2125C8.01436 19.0539 8.01436 18.7957 8.16823 18.637C8.16814 18.637 8.16832 18.637 8.16823 18.637L12.9798 13.6768C13.0543 13.5999 13.1533 13.5576 13.2588 13.5576C13.3642 13.5576 13.4632 13.5999 13.5378 13.6768L18.3478 18.6355C18.3486 18.6362 18.3494 18.637 18.3501 18.6377C18.5032 18.7966 18.5029 19.0542 18.3494 19.2126Z" fill="#273951"/>
</svg>
