<?xml version="1.0"?>
<svg xmlns="http://www.w3.org/2000/svg" width="512" height="512" viewBox="0 0 128 128"><path d="M114.334,62.293h-1.427V34.344a11.763,11.763,0,0,0-11.75-11.75H26.843a11.763,11.763,0,0,0-11.75,11.75V62.293H13.666A13.681,13.681,0,0,0,0,75.959V97.006a1.75,1.75,0,0,0,1.75,1.75H15.093v17.71a1.751,1.751,0,0,0,1.75,1.75h14a1.75,1.75,0,0,0,1.75-1.75V98.756H95.406v17.71a1.75,1.75,0,0,0,1.75,1.75h14a1.751,1.751,0,0,0,1.75-1.75V98.756H126.25a1.75,1.75,0,0,0,1.75-1.75V75.959A13.681,13.681,0,0,0,114.334,62.293ZM18.593,34.344a8.259,8.259,0,0,1,8.25-8.25h74.314a8.259,8.259,0,0,1,8.25,8.25V62.293H84.12V46.17a7.717,7.717,0,0,0-7.708-7.708H51.588A7.717,7.717,0,0,0,43.88,46.17V62.293H18.593ZM80.62,62.293H47.38V46.17a4.213,4.213,0,0,1,4.208-4.208H76.412A4.213,4.213,0,0,1,80.62,46.17ZM3.5,75.959A10.178,10.178,0,0,1,13.666,65.793H114.334A10.178,10.178,0,0,1,124.5,75.959v7.634H3.5Zm25.594,38.757h-10.5V98.756h10.5Zm80.313,0h-10.5V98.756h10.5ZM124.5,95.256H3.5V87.093h121Z"/></svg>
