<!-- Generated by IcoMoon.io -->
<svg version="1.1" xmlns="http://www.w3.org/2000/svg" width="1024" height="1024" viewBox="0 0 1024 1024">
<title>vg-concierge</title>
<g id="icomoon-ignore">
</g>
<path fill="none" stroke-linejoin="miter" stroke-linecap="butt" stroke-miterlimit="4" stroke-width="51.2" stroke="#000" d="M51.2 25.6h921.6c14.138 0 25.6 11.462 25.6 25.6v921.6c0 14.138-11.462 25.6-25.6 25.6h-921.6c-14.138 0-25.6-11.462-25.6-25.6v-921.6c0-14.138 11.462-25.6 25.6-25.6z"></path>
<path fill="#000" d="M319.484 505.452c24.094 0.023 47.653-7.272 67.698-20.964s35.673-33.163 44.909-55.951c9.236-22.789 11.664-47.87 6.977-72.073s-16.278-46.437-33.307-63.892c-17.029-17.455-38.731-29.345-62.361-34.167s-48.124-2.358-70.387 7.078c-22.262 9.437-41.291 25.423-54.679 45.937s-20.534 44.633-20.534 69.306c0.030 33.050 12.856 64.739 35.667 88.12s53.744 36.545 86.018 36.605v0zM319.484 313.69c12.947 0 25.604 3.932 36.369 11.298s19.155 17.836 24.11 30.085c4.955 12.249 6.251 25.728 3.725 38.732s-8.761 24.948-17.916 34.323c-9.155 9.375-20.819 15.76-33.517 18.346s-25.861 1.259-37.822-3.815c-11.961-5.074-22.185-13.666-29.378-24.69s-11.033-23.985-11.033-37.243c0.030-17.77 6.936-34.803 19.206-47.368s28.903-19.637 46.256-19.668v0z"></path>
<path fill="#000" d="M155.734 740.157h327.872c7.471 0 14.635-3.041 19.918-8.448 5.282-5.412 8.25-12.749 8.25-20.398v-48c0.002-4.265-0.922-8.484-2.704-12.344-18.343-34.862-45.766-63.831-79.222-83.692s-71.633-29.829-110.29-28.805c-38.62-0.983-76.75 9.011-110.162 28.867s-60.8 48.804-79.126 83.63c-1.627 3.896-2.397 8.11-2.253 12.344v48.23c0.058 7.532 2.99 14.74 8.169 20.086 5.179 5.35 12.195 8.407 19.548 8.53v0zM183.902 670.93c14.245-23.532 34.272-42.819 58.077-55.936 23.805-13.123 50.556-19.615 77.579-18.831 27.010-0.84 53.762 5.591 77.585 18.647 23.824 13.061 43.886 32.292 58.183 55.772v11.54h-270.973l-0.451-11.192z"></path>
<path fill="none" stroke-linejoin="miter" stroke-linecap="butt" stroke-miterlimit="4" stroke-width="51.2" stroke="#000" d="M537.6 332.8h358.4"></path>
<path fill="none" stroke-linejoin="miter" stroke-linecap="butt" stroke-miterlimit="4" stroke-width="51.2" stroke="#000" d="M588.8 486.4h307.2"></path>
<path fill="none" stroke-linejoin="miter" stroke-linecap="butt" stroke-miterlimit="4" stroke-width="51.2" stroke="#000" d="M640 640h256"></path>
</svg>
