<svg width="17" height="17" viewBox="0 0 17 17" fill="none" xmlns="http://www.w3.org/2000/svg">
<path d="M15.6065 12.5712L12.5704 10.5465C12.1851 10.2916 11.6687 10.3755 11.3838 10.7392L10.4994 11.8763C10.3858 12.0262 10.1792 12.0697 10.0148 11.9783L9.84654 11.8856C9.28886 11.5816 8.59497 11.2032 7.19692 9.80463C5.79887 8.40608 5.41967 7.71166 5.1157 7.15501L5.02346 6.98679C4.93087 6.8224 4.97352 6.61492 5.12344 6.50035L6.25976 5.61624C6.62334 5.33137 6.70732 4.81505 6.45274 4.42965L4.42803 1.39358C4.16712 1.00111 3.64366 0.8833 3.23974 1.12611L1.97017 1.88874C1.57126 2.12326 1.27859 2.50307 1.15354 2.94858C0.696372 4.61434 1.0403 7.48919 5.2752 11.7246C8.64398 15.0931 11.1519 15.999 12.8756 15.999C13.2723 16.0007 13.6675 15.9491 14.0505 15.8455C14.4961 15.7206 14.8759 15.4279 15.1103 15.0289L15.8737 13.7601C16.1169 13.3561 15.9991 12.8323 15.6065 12.5712ZM15.443 13.5036L14.6814 14.7732C14.5131 15.0612 14.2399 15.2729 13.919 15.3641C12.3812 15.7863 9.69456 15.4366 5.62888 11.3709C1.5632 7.30523 1.21353 4.61885 1.63573 3.08084C1.72701 2.75956 1.93903 2.48599 2.22738 2.31744L3.49696 1.5558C3.67222 1.45035 3.89941 1.50146 4.01263 1.67177L5.11248 3.32303L6.03561 4.70758C6.14616 4.87475 6.10984 5.09881 5.95213 5.22252L4.81554 6.10663C4.46965 6.37111 4.37088 6.84967 4.58384 7.22948L4.67409 7.39346C4.99355 7.97937 5.39073 8.70826 6.84078 10.1581C8.29083 11.6079 9.01949 12.0051 9.60513 12.3245L9.76935 12.415C10.1491 12.6279 10.6277 12.5292 10.8922 12.1833L11.7763 11.0467C11.9 10.8891 12.124 10.8528 12.2912 10.9632L15.3271 12.9879C15.4975 13.1011 15.5486 13.3284 15.443 13.5036Z" fill="white" stroke="white" stroke-width="0.5"/>
<path d="M9.49898 3.50064C11.8448 3.50325 13.7457 5.40426 13.7484 7.75005C13.7484 7.8881 13.8603 8 13.9983 8C14.1364 8 14.2483 7.8881 14.2483 7.75005C14.2454 5.12826 12.1208 3.0036 9.49898 3.00073C9.36092 3.00073 9.24902 3.11263 9.24902 3.25069C9.24902 3.38874 9.36092 3.50064 9.49898 3.50064Z" fill="white" stroke="white" stroke-width="0.5"/>
<path d="M9.49898 5.0004C11.0168 5.00218 12.2468 6.23218 12.2486 7.75002C12.2486 7.88807 12.3605 7.99997 12.4986 7.99997C12.6366 7.99997 12.7485 7.88807 12.7485 7.75002C12.7464 5.95619 11.2928 4.50254 9.49898 4.50049C9.36092 4.50049 9.24902 4.61239 9.24902 4.75044C9.24902 4.8885 9.36092 5.0004 9.49898 5.0004Z" fill="white" stroke="white" stroke-width="0.5"/>
<path d="M9.49898 6.50015C10.1889 6.50097 10.748 7.06005 10.7488 7.74999C10.7488 7.88804 10.8607 7.99994 10.9988 7.99994C11.1368 7.99994 11.2487 7.88804 11.2487 7.74999C11.2476 6.78409 10.4649 6.00133 9.49898 6.00024C9.36092 6.00024 9.24902 6.11214 9.24902 6.2502C9.24902 6.38826 9.36092 6.50015 9.49898 6.50015Z" fill="white" stroke="white" stroke-width="0.5"/>
</svg>
