<svg width="17" height="25" viewBox="0 0 17 25" fill="none" xmlns="http://www.w3.org/2000/svg">
<path d="M0.108728 8.7051C0.252757 8.8483 0.486907 8.8483 0.630935 8.7051L8.49488 0.886153L16.3581 8.7051C16.5021 8.8483 16.7362 8.8483 16.8803 8.7051C17.0243 8.56189 17.0243 8.32908 16.8803 8.18588L8.75558 0.107687C8.68395 0.0357062 8.58939 -0.000265987 8.49484 -0.000265987C8.40029 -0.000265987 8.30577 0.0357063 8.23337 0.106964L0.108695 8.18516C-0.035299 8.32908 -0.0352998 8.56114 0.108728 8.7051Z" fill="#273951"/>
<path d="M16.8806 16.2949C16.7374 16.1517 16.5046 16.1517 16.3614 16.2949L8.54246 24.1138L0.724278 16.2949C0.581073 16.1517 0.348263 16.1517 0.205059 16.2949C0.0618552 16.4381 0.0618552 16.6709 0.205059 16.8141L8.28325 24.8923C8.35448 24.9643 8.44849 25.0003 8.5425 25.0003C8.63651 25.0003 8.73049 24.9643 8.80247 24.893L16.8807 16.8148C17.0238 16.6709 17.0238 16.4389 16.8806 16.2949Z" fill="#273951"/>
<path d="M11.8694 12.7609C11.8694 14.5489 10.42 15.9983 8.63197 15.9983C6.84398 15.9983 5.39453 14.5489 5.39453 12.7609C5.39453 10.9729 6.84398 9.52344 8.63197 9.52344C10.42 9.52344 11.8694 10.9729 11.8694 12.7609Z" fill="#273951"/>
<path d="M11.8694 12.7609C11.8694 14.5489 10.42 15.9983 8.63197 15.9983C6.84398 15.9983 5.39453 14.5489 5.39453 12.7609C5.39453 10.9729 6.84398 9.52344 8.63197 9.52344C10.42 9.52344 11.8694 10.9729 11.8694 12.7609Z" stroke="#273951"/>
</svg>
