<svg width="18" height="18" viewBox="0 0 18 18" fill="none" xmlns="http://www.w3.org/2000/svg">
<g clip-path="url(#clip0)">
<path d="M9 8.25C7.194 8.25 5.25 7.7805 5.25 6.75C5.25 5.7195 7.194 5.25 9 5.25C10.806 5.25 12.75 5.7195 12.75 6.75C12.75 7.7805 10.806 8.25 9 8.25ZM9 6C7.03125 6 6 6.55725 6 6.75C6 6.94275 7.03125 7.5 9 7.5C10.9687 7.5 12 6.94275 12 6.75C12 6.55725 10.9687 6 9 6Z" fill="#273951"/>
<path d="M9 12.75C7.194 12.75 5.25 12.2805 5.25 11.25V6.75C5.25 6.543 5.418 6.375 5.625 6.375C5.832 6.375 6 6.543 6 6.75V11.25C6 11.4427 7.03125 12 9 12C10.9687 12 12 11.4427 12 11.25V6.75C12 6.543 12.168 6.375 12.375 6.375C12.582 6.375 12.75 6.543 12.75 6.75V11.25C12.75 12.2805 10.806 12.75 9 12.75Z" fill="#273951"/>
<path d="M9 10.5C7.194 10.5 5.25 10.0305 5.25 9C5.25 8.793 5.418 8.625 5.625 8.625C5.832 8.625 6 8.793 6 9C6 9.19275 7.03125 9.75 9 9.75C10.9687 9.75 12 9.19275 12 9C12 8.793 12.168 8.625 12.375 8.625C12.582 8.625 12.75 8.793 12.75 9C12.75 10.0305 10.806 10.5 9 10.5Z" fill="#273951"/>
<path d="M0.5775 11.25C0.40575 11.25 0.25125 11.1315 0.21225 10.9575C0.07125 10.3335 0 9.675 0 9C0 4.03725 4.03725 0 9 0C11.85 0 14.5568 1.3725 16.2398 3.67125C16.362 3.8385 16.326 4.07325 16.1588 4.1955C15.9915 4.3185 15.7568 4.281 15.6345 4.1145C14.0925 2.00775 11.6115 0.75 9 0.75C4.45125 0.75 0.75 4.45125 0.75 9C0.75 9.62025 0.81525 10.2233 0.9435 10.7925C0.98925 10.995 0.8625 11.1952 0.66 11.241C0.63225 11.247 0.6045 11.25 0.5775 11.25Z" fill="#273951"/>
<path d="M9.00006 18C6.12831 18 3.40956 16.6103 1.72881 14.2823C1.60731 14.1143 1.64556 13.8795 1.81281 13.7588C1.98156 13.6365 2.21481 13.6748 2.33631 13.8428C3.87756 15.9765 6.36831 17.25 9.00006 17.25C13.5488 17.25 17.2501 13.5488 17.2501 9.00003C17.2501 8.37153 17.1833 7.76928 17.0506 7.21203C17.0026 7.01028 17.1271 6.80778 17.3288 6.76053C17.5321 6.71178 17.7331 6.83703 17.7803 7.03878C17.9258 7.65303 18.0001 8.31303 18.0001 9.00003C18.0001 13.9628 13.9628 18 9.00006 18Z" fill="#273951"/>
<path d="M1.91251 18C1.70701 18 1.53976 17.8342 1.53751 17.6287L1.50001 13.8787C1.49926 13.779 1.53826 13.6823 1.60876 13.6118C1.67926 13.5398 1.77526 13.5 1.87501 13.5H5.62501C5.83201 13.5 6.00001 13.668 6.00001 13.875C6.00001 14.082 5.83201 14.25 5.62501 14.25H2.25376L2.28751 17.6213C2.28976 17.8283 2.12401 17.9977 1.91626 18C1.91551 18 1.91401 18 1.91251 18Z" fill="#273951"/>
<path d="M16.125 4.5H12.375C12.168 4.5 12 4.332 12 4.125C12 3.918 12.168 3.75 12.375 3.75H15.75V0.375C15.75 0.168 15.918 0 16.125 0C16.332 0 16.5 0.168 16.5 0.375V4.125C16.5 4.332 16.332 4.5 16.125 4.5Z" fill="#273951"/>
</g>
<defs>
<clipPath id="clip0">
<rect width="18" height="18" fill="white"/>
</clipPath>
</defs>
</svg>
