<svg height="512pt" viewBox="0 -26 512.00099 512" width="512pt" xmlns="http://www.w3.org/2000/svg"><path d="m502 185.328125h-164.476562l140.863281-140.863281c4.910156-4.910156 7.613281-11.453125 7.613281-18.425782 0-6.972656-2.703125-13.519531-7.613281-18.425781-4.910157-4.910156-11.453125-7.613281-18.425781-7.613281-6.972657 0-13.515626 2.703125-18.425782 7.613281l-177.714844 177.714844h-81.945312c-5.523438 0-10 4.476563-10 10s4.476562 10 10 10h61.945312l-49.339843 49.339844h-86.832031c3.152343-7.027344 4.976562-15.480469 4.976562-24.671875 0-9.1875-1.820312-17.640625-4.976562-24.667969h5.261718c5.523438 0 10-4.476563 10-10s-4.476562-10-10-10h-21.035156v-38.980469c0-9.867187 8.023438-17.890625 17.890625-17.890625h69.417969c25.953125 0 47.066406-21.113281 47.066406-47.066406 0-5.523437-4.480469-10-10-10-5.523438 0-10 4.476563-10 10 0 14.925781-12.144531 27.066406-27.066406 27.066406h-69.417969c-16.4375 0-30.457031 10.527344-35.691406 25.1875-6.105469-3.964843-13.375-6.28125-21.179688-6.28125h-15.003906c-9.867187 0-17.890625-8.023437-17.890625-17.886719 0-9.863281 8.023438-17.886718 17.890625-17.886718h69.417969c25.953125 0 47.066406-21.113282 47.066406-47.066406 0-5.523438-4.480469-10-10-10-5.523438 0-10 4.476562-10 10 0 14.921874-12.144531 27.066406-27.066406 27.066406h-69.417969c-20.894531 0-37.890625 16.996094-37.890625 37.886718 0 20.890626 16.996094 37.886719 37.890625 37.886719h15.003906c10.46875 0 18.980469 8.515625 18.980469 18.984375v21.320313c-12.1875 5.90625-20.75 22.390625-20.75 42.328125 0 25.050781 13.507812 44.671875 30.75 44.671875h92.601562l-140.863281 140.867187c-4.910156 4.90625-7.613281 11.453125-7.613281 18.421875 0 6.972657 2.703125 13.519531 7.613281 18.425781 5.082031 5.082032 11.753907 7.621094 18.425781 7.621094 6.671876 0 13.347657-2.539062 18.425782-7.621094l177.71875-177.714843h253.816406c5.523438 0 10-4.476563 10-10v-69.339844c0-5.523437-4.476562-10-10-10zm-420.125 20c3.789062 0 10.75 9.367187 10.75 24.667969 0 15.304687-6.960938 24.671875-10.75 24.671875s-10.75-9.367188-10.75-24.671875c0-15.300782 6.960938-24.667969 10.75-24.667969zm-25.550781 232.914063c-2.320313 2.320312-6.246094 2.324218-8.566407 0-1.132812-1.128907-1.757812-2.652344-1.757812-4.28125 0-1.632813.625-3.152344 1.757812-4.285157l407.921876-407.921875c1.128906-1.132812 2.652343-1.753906 4.28125-1.753906 1.628906 0 3.148437.621094 4.28125 1.753906h.003906c1.128906 1.132813 1.753906 2.652344 1.753906 4.285156 0 1.628907-.625 3.148438-1.753906 4.28125zm261.199219-232.914063h57.101562v49.339844h-106.445312zm77.101562 49.339844v-49.339844h97.375v19.339844h-31.035156c-5.523438 0-10 4.476562-10 10 0 5.523437 4.476562 10 10 10h31.035156v10zm0 0"/><path d="m141.640625 185.328125c-5.519531 0-10 4.476563-10 10s4.480469 10 10 10h.269531c5.523438 0 10-4.476563 10-10s-4.476562-10-10-10zm0 0"/><path d="m432.234375 224.667969h-.234375c-5.523438 0-10 4.480469-10 10 0 5.523437 4.476562 10 10 10h.234375c5.523437 0 10-4.476563 10-10 0-5.519531-4.476563-10-10-10zm0 0"/></svg>