<?xml version="1.0" encoding="utf-8"?>
<!-- Generator: Adobe Illustrator 16.0.0, SVG Export Plug-In . SVG Version: 6.00 Build 0)  -->
<!DOCTYPE svg PUBLIC "-//W3C//DTD SVG 1.1//EN" "http://www.w3.org/Graphics/SVG/1.1/DTD/svg11.dtd">
<svg xmlns="http://www.w3.org/2000/svg" xmlns:xlink="http://www.w3.org/1999/xlink" version="1.1" id="Taxi" x="0px" y="0px" width="512" height="512" viewBox="0 0 144.083 144" enable-background="new 0 0 144.083 144" xml:space="preserve">
<path d="M118.75,88.044l-9.889-33.083c-0.25-4.739-4.186-8.519-8.986-8.519H43.877c-4.801,0-8.736,3.779-8.987,8.519l-9.888,33.083  c-0.083,0.279-0.125,0.568-0.125,0.859c0,4.963,4.038,9,9,9h76c4.963,0,9-4.037,9-9C118.875,88.612,118.834,88.323,118.75,88.044z   M109.875,91.903h-76c-1.531,0-2.797-1.152-2.978-2.635l9.854-32.967c0.083-0.279,0.125-0.568,0.125-0.859c0-1.654,1.346-3,3-3  h55.999c1.654,0,3,1.346,3,3c0,0.291,0.041,0.58,0.125,0.859l9.854,32.967C112.672,90.751,111.407,91.903,109.875,91.903z"/>
<polygon points="59.879,63.271 44.734,63.271 44.734,67.534 49.873,67.534 49.873,81.074 54.764,81.074 54.764,67.534   59.879,67.534 "/>
<path d="M64.943,63.271L58.75,81.074h4.99l1.053-3.485h4.738l1.078,3.485h4.965l-6.168-17.803H64.943z M65.52,74.329l1.656-5.516  l1.578,5.516H65.52z"/>
<polygon points="87.309,63.271 84.075,68.889 80.84,63.271 75.549,63.271 81.493,72.299 75.75,81.074 81.04,81.074 84.075,75.708   87.108,81.074 92.374,81.074 86.631,72.299 92.575,63.271 "/>
<rect x="94.129" y="63.271" width="4.889" height="17.803"/>
</svg>
