<svg width="24" height="24" viewBox="0 0 24 24" fill="none" xmlns="http://www.w3.org/2000/svg">
<path d="M18.8438 15.8906C19.4375 16.1719 19.7344 16.625 19.7344 17.25V17.4375L18.9844 22.7344C18.9531 23.1094 18.7969 23.4219 18.5156 23.6719C18.2344 23.8906 17.9062 24 17.5312 24H10.7344C10.3281 24 9.98438 23.8594 9.70312 23.5781L4.73438 18.6094L5.53125 17.8125C5.75 17.5938 6.01562 17.4844 6.32812 17.4844C6.35938 17.4844 6.39062 17.5 6.42188 17.5312C6.48438 17.5312 6.53125 17.5312 6.5625 17.5312L9.98438 18.2344V7.5C9.98438 7.0625 10.125 6.70312 10.4062 6.42188C10.7188 6.14062 11.0781 6 11.4844 6C11.8906 6 12.2344 6.14062 12.5156 6.42188C12.8281 6.70312 12.9844 7.0625 12.9844 7.5V13.5H13.7812C13.875 13.5 14.0469 13.5312 14.2969 13.5938L18.8438 15.8906ZM9 11.25C7.65625 10.375 6.98438 9.125 6.98438 7.5C6.98438 6.25 7.42188 5.1875 8.29688 4.3125C9.17188 3.4375 10.2344 3 11.4844 3C12.7344 3 13.7969 3.4375 14.6719 4.3125C15.5469 5.1875 15.9844 6.25 15.9844 7.5C15.9844 9.15625 15.3281 10.4062 14.0156 11.25V7.5C14.0156 6.8125 13.7656 6.23438 13.2656 5.76562C12.7656 5.26562 12.1719 5.01562 11.4844 5.01562C10.7969 5.01562 10.2031 5.26562 9.70312 5.76562C9.23438 6.23438 9 6.8125 9 7.5V11.25Z" fill="#9299A3"/>
</svg>
