<!-- Generated by IcoMoon.io -->
<svg version="1.1" xmlns="http://www.w3.org/2000/svg" width="1024" height="1024" viewBox="0 0 1024 1024">
<title>vg-passport</title>
<g id="icomoon-ignore">
</g>
<path d="M512 0c-282.409 0-512 229.591-512 512 0 282.407 229.591 512 512 512 282.407 0 512-229.593 512-512 0-282.409-229.593-512-512-512zM621.945 266.24c-35.57 6.468-72.217 9.701-109.945 9.701s-74.375-3.233-109.945-9.701c28.025-127.191 74.376-202.644 109.945-202.644s81.92 75.453 109.945 202.644zM620.868 77.609c77.607 19.402 147.673 59.284 203.723 114.257-40.96 25.87-88.388 46.35-140.128 60.362-15.090-68.986-36.647-129.348-63.594-174.619zM378.341 479.662c1.078-54.972 5.39-105.633 12.935-150.904 39.882 6.467 79.764 10.779 121.802 10.779 40.96 0 81.92-4.311 121.803-10.779 6.468 45.271 10.781 95.932 12.935 150.904h-269.474zM645.661 544.338c-1.081 54.972-5.39 105.632-11.858 150.905-39.883-6.468-79.766-10.781-121.803-10.781-40.96 0-81.92 4.313-121.802 10.781-6.468-45.273-10.779-95.932-11.857-150.905h267.32zM339.537 252.228c-51.739-14.013-99.166-34.493-140.126-60.362 56.050-54.972 126.114-93.777 203.722-114.257-26.948 45.271-48.506 105.633-63.596 174.619zM328.758 315.823c-8.623 52.817-12.935 108.866-14.013 164.916h-247.916c6.467-89.464 39.882-172.461 91.621-240.369 47.428 32.337 106.711 58.206 170.308 75.453zM313.668 544.338c1.078 56.050 6.467 111.022 14.012 164.917-63.596 17.244-121.802 42.037-171.385 75.452-51.739-67.908-84.076-150.905-90.543-240.37h247.916zM339.537 771.772c15.090 68.985 36.649 130.425 63.596 174.621-77.609-19.403-147.672-59.286-203.722-114.258 40.96-25.87 88.388-46.35 140.126-60.363zM402.055 757.76c35.57-6.468 72.217-9.699 109.945-9.699s74.375 3.232 109.945 9.699c-28.025 127.193-74.375 202.646-109.945 202.646s-81.92-75.452-109.945-202.646zM684.462 771.772c51.741 14.012 99.168 34.492 140.128 61.44-56.050 54.972-126.116 93.778-203.723 114.258 26.948-46.35 48.505-106.713 63.594-175.698zM695.243 708.178c8.622-52.818 12.935-108.868 14.012-164.917h247.914c-6.468 89.465-39.883 172.462-91.619 240.37-48.505-32.338-106.713-58.208-170.308-75.452zM710.332 479.662c-1.077-56.050-6.468-111.022-14.012-164.917 63.594-17.246 121.803-42.038 171.385-75.452 51.741 67.907 85.156 149.827 91.623 240.369h-248.996z"></path>
</svg>
