<svg width="18" height="18" viewBox="0 0 18 18" fill="none" xmlns="http://www.w3.org/2000/svg">
<g clip-path="url(#clip0)">
<path d="M8.99337 3.59961C8.79978 3.59961 8.60633 3.61002 8.41384 3.63076C8.23742 3.64878 8.06316 3.67834 7.89124 3.7142C7.85797 3.72116 7.82468 3.7285 7.7914 3.73618C6.77848 3.9668 5.85356 4.4847 5.12758 5.22776C5.06006 5.29696 4.99397 5.36821 4.92935 5.44149C2.96824 7.69291 3.20359 11.1078 5.45503 13.069C7.6105 14.9465 10.855 14.8215 12.8597 12.7839C12.9274 12.7147 12.9935 12.6434 13.058 12.5701C13.9234 11.5845 14.4004 10.3175 14.3996 9.00582C14.3996 6.02002 11.9792 3.59959 8.99337 3.59961ZM5.36779 5.49807C5.39626 5.46852 5.42582 5.44023 5.45483 5.41157C5.48835 5.3786 5.52169 5.34544 5.55593 5.31354C5.58602 5.28543 5.61702 5.2584 5.64783 5.23101C5.68261 5.20019 5.71721 5.16938 5.7529 5.13964C5.78425 5.11315 5.81651 5.08774 5.84859 5.06215C5.88463 5.03332 5.92067 5.00449 5.95779 4.97673C5.99059 4.95205 6.02393 4.92808 6.05745 4.90465C6.09475 4.87798 6.13223 4.85059 6.17026 4.82572C6.20432 4.80265 6.23874 4.78031 6.27333 4.75814C6.3119 4.73345 6.35064 4.70913 6.38975 4.68606C6.42496 4.66504 6.46039 4.64436 6.49607 4.62407C6.53596 4.60136 6.57602 4.5792 6.61627 4.55757C6.65231 4.53836 6.68835 4.51955 6.72439 4.50117C6.76548 4.48044 6.80693 4.46044 6.84856 4.4408C6.8846 4.42368 6.92208 4.40656 6.95921 4.39034C7.00155 4.37232 7.04444 4.3543 7.08733 4.33628C7.12464 4.32096 7.16176 4.306 7.19942 4.29158C7.24303 4.27501 7.28718 4.25951 7.33133 4.24401C7.369 4.23085 7.40666 4.2177 7.44486 4.20526C7.48974 4.19085 7.53497 4.17751 7.58038 4.16436C7.6184 4.15336 7.65607 4.14201 7.69427 4.13174C7.70887 4.12796 7.72347 4.12489 7.73806 4.12111C7.20465 4.63905 6.8088 5.28185 6.58636 5.9913C6.15863 5.87849 5.74456 5.71914 5.35157 5.51609C5.35752 5.50979 5.36257 5.50348 5.36779 5.49807ZM5.10865 5.78821C5.54153 6.02275 6.00057 6.20543 6.47625 6.33244C6.24306 7.14328 6.12065 7.98194 6.11241 8.82561H3.95172C3.99098 7.71307 4.39782 6.64494 5.10865 5.78821ZM5.10865 12.2234C4.39787 11.3667 3.99103 10.2985 3.95172 9.18602H6.11241C6.12065 10.0297 6.24304 10.8684 6.47625 11.6792C6.00059 11.8062 5.54156 11.9889 5.10865 12.2234ZM7.69319 13.8806C7.65679 13.8714 7.61913 13.8595 7.58164 13.8485C7.53605 13.8352 7.49028 13.8219 7.44523 13.8073C7.4072 13.795 7.36972 13.7819 7.33224 13.7687C7.2879 13.7534 7.24357 13.7377 7.19978 13.7209C7.1623 13.7067 7.12536 13.6918 7.08823 13.6766C7.04516 13.6586 7.00209 13.6406 6.95939 13.6226C6.92262 13.6063 6.88604 13.5896 6.84964 13.5725C6.80765 13.5526 6.76584 13.5325 6.72349 13.5115C6.68745 13.4935 6.65141 13.4755 6.61537 13.4559C6.57464 13.4341 6.53428 13.4117 6.49391 13.3886C6.45787 13.3686 6.42363 13.3481 6.38885 13.3272C6.3492 13.3034 6.31028 13.2789 6.27135 13.2539C6.23711 13.232 6.20287 13.2099 6.16918 13.1872C6.13079 13.1612 6.09277 13.1342 6.0551 13.1072C6.02213 13.0836 5.98915 13.0599 5.95671 13.0351C5.91941 13.007 5.88283 12.978 5.84642 12.9488C5.81453 12.9234 5.78281 12.8981 5.75163 12.872C5.71559 12.8421 5.68081 12.8109 5.64585 12.7799C5.61522 12.7527 5.5844 12.7258 5.55449 12.6981C5.52007 12.666 5.48673 12.6327 5.45321 12.5997C5.4242 12.571 5.39464 12.5428 5.36617 12.5134C5.36094 12.5078 5.3559 12.502 5.35067 12.4966C5.74364 12.2935 6.15771 12.1341 6.58545 12.0212C6.80794 12.7307 7.20377 13.3734 7.73716 13.8914C7.72256 13.8876 7.70779 13.8846 7.69319 13.8806ZM8.81318 14.0374C8.04207 13.9278 7.36611 13.123 6.94082 11.9346C7.55569 11.7969 8.18315 11.723 8.81318 11.7142V14.0374ZM8.81318 11.3537C8.14484 11.3625 7.47931 11.4419 6.82765 11.5905C6.60138 10.8087 6.48202 9.99986 6.47283 9.18602H8.81318V11.3537ZM8.81318 8.82561H6.47283C6.48199 8.01177 6.60136 7.20291 6.82765 6.4211C7.47931 6.5697 8.14486 6.64908 8.81318 6.65789V8.82561ZM8.81318 6.29748C8.18313 6.28869 7.55569 6.21483 6.94082 6.07708C7.36611 4.88861 8.04207 4.0838 8.81318 3.97424V6.29748ZM12.8781 5.78821C13.5889 6.64496 13.9957 7.7131 14.0351 8.82561H11.8744C11.8661 7.98194 11.7437 7.14328 11.5105 6.33244C11.9862 6.20537 12.4452 6.0227 12.8781 5.78821ZM10.2921 4.13084C10.33 4.14021 10.3677 4.1521 10.4051 4.1631C10.4507 4.17643 10.4965 4.18977 10.5416 4.20436C10.5796 4.21662 10.6171 4.22977 10.6545 4.24293C10.6989 4.25825 10.7432 4.27392 10.787 4.29068C10.8245 4.30492 10.8614 4.31988 10.8985 4.33501C10.9416 4.35303 10.9847 4.37106 11.0274 4.38908C11.0642 4.4053 11.1007 4.42199 11.1371 4.43917C11.1791 4.459 11.2209 4.47918 11.2633 4.50008C11.2993 4.51811 11.3354 4.53613 11.3714 4.55577C11.4121 4.57757 11.4525 4.59992 11.4929 4.62299C11.5289 4.64299 11.5631 4.66353 11.5979 4.68444C11.6376 4.70822 11.6765 4.73273 11.7154 4.75778C11.7497 4.77959 11.7839 4.80175 11.8176 4.82446C11.856 4.85041 11.8938 4.87726 11.9315 4.90429C11.9647 4.9279 11.9976 4.95168 12.0302 4.97637C12.0674 5.00431 12.1038 5.03332 12.1404 5.06251C12.1721 5.08774 12.204 5.11297 12.2351 5.13928C12.2712 5.1692 12.306 5.20037 12.3409 5.23137C12.3716 5.25858 12.4024 5.28543 12.4323 5.31318C12.4667 5.34526 12.5 5.3786 12.5336 5.41157C12.5626 5.44023 12.5921 5.46852 12.6206 5.49789C12.6258 5.50348 12.6309 5.50925 12.6361 5.51465C12.2431 5.71779 11.8291 5.87721 11.4013 5.99004C11.1784 5.28052 10.7821 4.63779 10.2482 4.12003C10.2628 4.12381 10.2775 4.12687 10.2921 4.13084ZM9.1736 3.97424C9.94471 4.0838 10.6207 4.88861 11.046 6.07708C10.4311 6.21476 9.80362 6.28862 9.1736 6.29748V3.97424ZM9.1736 6.65789C9.84194 6.64911 10.5075 6.56972 11.1591 6.4211C11.3854 7.20291 11.5048 8.01177 11.514 8.82561H9.1736V6.65789ZM9.1736 9.18602H11.514C11.5048 9.99986 11.3854 10.8087 11.1591 11.5905C10.5075 11.4419 9.84194 11.3625 9.1736 11.3537V9.18602ZM9.1736 14.0374V11.7142C9.80365 11.7229 10.4311 11.7968 11.046 11.9346C10.6207 13.123 9.94471 13.9278 9.1736 14.0374ZM12.619 12.5136C12.5905 12.5429 12.5611 12.5712 12.5321 12.5999C12.4986 12.6329 12.4651 12.6662 12.4307 12.6983C12.4008 12.7262 12.3699 12.7523 12.3393 12.7803C12.3043 12.8113 12.2696 12.8423 12.2339 12.8722C12.2023 12.8985 12.1703 12.9239 12.1382 12.9495C12.1021 12.9783 12.0661 13.0071 12.029 13.0349C11.9962 13.0596 11.9628 13.0836 11.9293 13.107C11.892 13.1337 11.8545 13.161 11.8165 13.1859C11.7825 13.209 11.748 13.2313 11.7134 13.2533C11.6749 13.2782 11.636 13.3022 11.5968 13.3254C11.5608 13.3465 11.5264 13.367 11.4909 13.3874C11.451 13.4101 11.4109 13.4323 11.3705 13.4539C11.3345 13.4731 11.2984 13.4919 11.2624 13.5103C11.2213 13.531 11.1798 13.551 11.1382 13.5707C11.1022 13.5878 11.0647 13.6049 11.0276 13.6211C10.9852 13.6391 10.9423 13.6572 10.8994 13.6752C10.8621 13.6903 10.825 13.7055 10.7875 13.7197C10.7436 13.7364 10.6994 13.7521 10.6551 13.7674C10.6176 13.7806 10.5801 13.7938 10.5421 13.806C10.497 13.8206 10.452 13.8339 10.406 13.8471C10.3684 13.8583 10.3305 13.8694 10.2925 13.8797C10.2779 13.8835 10.2633 13.8866 10.2487 13.8903C10.7821 13.3724 11.178 12.7296 11.4004 12.0201C11.8281 12.133 12.2422 12.2923 12.6352 12.4954C12.6293 12.5018 12.6242 12.5082 12.619 12.5136ZM12.8781 12.2234C12.4452 11.9889 11.9862 11.8062 11.5105 11.6792C11.7437 10.8684 11.8661 10.0297 11.8744 9.18602H14.0351C13.9958 10.2985 13.589 11.3667 12.8781 12.2234Z" fill="#273951"/>
</g>
<path fill-rule="evenodd" clip-rule="evenodd" d="M16.56 0.36H1.44C0.843532 0.36 0.36 0.843532 0.36 1.44V16.56C0.36 17.1565 0.843532 17.64 1.44 17.64H16.56C17.1565 17.64 17.64 17.1565 17.64 16.56V1.44C17.64 0.843532 17.1565 0.36 16.56 0.36ZM1.44 0C0.64471 0 0 0.64471 0 1.44V16.56C0 17.3553 0.64471 18 1.44 18H16.56C17.3553 18 18 17.3553 18 16.56V1.44C18 0.64471 17.3553 0 16.56 0H1.44Z" fill="#273951"/>
<defs>
<clipPath id="clip0">
<rect width="10.8" height="10.8" fill="white" transform="translate(3.59961 3.59961)"/>
</clipPath>
</defs>
</svg>
