<svg width="18" height="18" viewBox="0 0 18 18" fill="none" xmlns="http://www.w3.org/2000/svg">
<path d="M9.5145 7.80295C9.3169 8.00055 9.3169 8.31745 9.5145 8.51505C10.331 9.33153 10.331 10.6588 9.5145 11.4753L5.22701 15.7628C4.41052 16.5793 3.08326 16.5793 2.26678 15.7628L1.62179 15.1178C0.805302 14.3013 0.805302 12.974 1.62179 12.1575L5.90928 7.87006C6.10688 7.67246 6.10688 7.35556 5.90928 7.15796C5.71168 6.96037 5.39478 6.96037 5.19718 7.15796L0.909693 11.4455C0.324358 12.0308 0 12.81 0 13.6377C0 14.4653 0.32063 15.2445 0.909693 15.8299L1.55468 16.4749C2.15866 17.0788 2.95278 17.3808 3.74689 17.3808C4.54101 17.3808 5.33513 17.0788 5.93911 16.4749L10.2266 12.1874C11.4345 10.9794 11.4345 9.01091 10.2266 7.80295C10.0327 7.60535 9.7121 7.60535 9.5145 7.80295Z" fill="#5F6D83"/>
<path d="M17.094 2.17009L16.449 1.52511C15.241 0.317152 13.2725 0.317152 12.0645 1.52511L7.77706 5.81259C6.56911 7.02055 6.56911 8.98907 7.77706 10.197C7.97466 10.3946 8.29156 10.3946 8.48915 10.197C8.68675 9.99942 8.68675 9.68252 8.48915 9.48492C7.67267 8.66844 7.67267 7.34118 8.48915 6.52469L12.7766 2.2372C13.5931 1.42071 14.9204 1.42071 15.7369 2.2372L16.3819 2.88219C17.1983 3.69868 17.1983 5.02593 16.3819 5.84242L12.0944 10.1299C11.8968 10.3275 11.8968 10.6444 12.0944 10.842C12.1913 10.9389 12.3218 10.9911 12.4486 10.9911C12.5753 10.9911 12.7058 10.9427 12.8027 10.842L17.0902 6.55452C17.6756 5.96918 17.9999 5.18998 17.9999 4.36231C17.9999 3.53463 17.6793 2.75543 17.094 2.17009Z" fill="#5F6D83"/>
</svg>
