<svg width="41" height="40" viewBox="0 0 41 40" fill="none" xmlns="http://www.w3.org/2000/svg">
<path fill-rule="evenodd" clip-rule="evenodd" d="M28.6236 8.33333H33.8769C35.6998 8.33333 37.1913 9.83333 37.1913 11.6667V31.6667C37.1913 33.5 35.6998 35 33.8769 35H7.36176C5.53884 35 4.04736 33.5 4.04736 31.6667V11.6667C4.04736 9.83333 5.53884 8.33333 7.36176 8.33333H12.6151L15.6477 5H25.5909L28.6236 8.33333ZM33.8769 31.6667V11.6667H27.1653L26.1875 10.5833L24.1326 8.33333H17.1061L15.0512 10.5833L14.0734 11.6667H7.36176V31.6667H33.8769ZM15.6477 21.6667C15.6477 18.9 17.8684 16.6667 20.6193 16.6667H27.215C25.6904 14.65 23.3206 13.3333 20.6193 13.3333C16.0455 13.3333 12.3333 17.0667 12.3333 21.6667C12.3333 22.2333 12.3996 22.8 12.4991 23.3333H15.946C15.7637 22.8167 15.6477 22.25 15.6477 21.6667ZM20.6193 26.6667C23.3703 26.6667 25.5909 24.4333 25.5909 21.6667C25.5909 21.0833 25.4749 20.5167 25.2926 20H28.7396C28.8556 20.5333 28.9053 21.1 28.9053 21.6667C28.9053 26.2667 25.1932 30 20.6193 30C17.9181 30 15.5483 28.6833 14.0237 26.6667H20.6193Z" fill="#F7F6F7"/>
<path fill-rule="evenodd" clip-rule="evenodd" d="M28.6236 8.33333H33.8769C35.6998 8.33333 37.1913 9.83333 37.1913 11.6667V31.6667C37.1913 33.5 35.6998 35 33.8769 35H7.36176C5.53884 35 4.04736 33.5 4.04736 31.6667V11.6667C4.04736 9.83333 5.53884 8.33333 7.36176 8.33333H12.6151L15.6477 5H25.5909L28.6236 8.33333ZM33.8769 31.6667V11.6667H27.1653L26.1875 10.5833L24.1326 8.33333H17.1061L15.0512 10.5833L14.0734 11.6667H7.36176V31.6667H33.8769ZM15.6477 21.6667C15.6477 18.9 17.8684 16.6667 20.6193 16.6667H27.215C25.6904 14.65 23.3206 13.3333 20.6193 13.3333C16.0455 13.3333 12.3333 17.0667 12.3333 21.6667C12.3333 22.2333 12.3996 22.8 12.4991 23.3333H15.946C15.7637 22.8167 15.6477 22.25 15.6477 21.6667ZM20.6193 26.6667C23.3703 26.6667 25.5909 24.4333 25.5909 21.6667C25.5909 21.0833 25.4749 20.5167 25.2926 20H28.7396C28.8556 20.5333 28.9053 21.1 28.9053 21.6667C28.9053 26.2667 25.1932 30 20.6193 30C17.9181 30 15.5483 28.6833 14.0237 26.6667H20.6193Z" fill="#F7F6F7"/>
</svg>
