<svg width="25" height="25" viewBox="0 0 25 25" fill="none" xmlns="http://www.w3.org/2000/svg">
<path d="M12.5 0C19.4037 0 25 5.59625 25 12.5C25 13.4087 24.9037 14.2937 24.7188 15.1475L22.4912 12.9187C22.583 10.7247 21.9499 8.56144 20.6898 6.76296C19.4298 4.96449 17.6127 3.63079 15.5192 2.96778C13.4257 2.30476 11.1722 2.34929 9.10651 3.09449C7.04084 3.83968 5.27789 5.24411 4.08984 7.09096C2.90178 8.93781 2.35468 11.1244 2.533 13.3131C2.71131 15.5018 3.60512 17.571 5.07645 19.2012C6.54778 20.8314 8.5148 21.9319 10.6739 22.3329C12.8329 22.734 15.0639 22.4131 17.0225 21.42C17.4996 22.1761 18.1709 22.7904 18.9663 23.1987C17.0165 24.3801 14.7797 25.0032 12.5 25C5.59625 25 0 19.4037 0 12.5C0 5.59625 5.59625 0 12.5 0ZM21.25 15.215L23.0175 16.9825C23.3616 17.3264 23.5978 17.7633 23.6973 18.2395C23.7967 18.7158 23.755 19.2107 23.5774 19.6636C23.3997 20.1165 23.0937 20.5077 22.697 20.7893C22.3003 21.0709 21.83 21.2306 21.3438 21.2488C20.8577 21.2671 20.3768 21.1431 19.96 20.892C19.5433 20.641 19.2089 20.2738 18.9977 19.8355C18.7866 19.3972 18.7079 18.9068 18.7714 18.4245C18.8349 17.9421 19.0377 17.4888 19.355 17.12L19.4825 16.9825L21.25 15.215ZM12.5 16.25C14.3325 16.25 15.9812 17.0387 17.125 18.2962L15.9438 19.3712C14.9563 18.9775 13.7725 18.75 12.5 18.75C11.2275 18.75 10.0437 18.9787 9.05625 19.37L7.875 18.295C8.46027 17.6499 9.17422 17.1347 9.97082 16.7824C10.7674 16.4302 11.629 16.2488 12.5 16.25ZM8.125 10C8.62228 10 9.09919 10.1975 9.45083 10.5492C9.80246 10.9008 10 11.3777 10 11.875C10 12.3723 9.80246 12.8492 9.45083 13.2008C9.09919 13.5524 8.62228 13.75 8.125 13.75C7.62772 13.75 7.1508 13.5524 6.79917 13.2008C6.44754 12.8492 6.25 12.3723 6.25 11.875C6.25 11.3777 6.44754 10.9008 6.79917 10.5492C7.1508 10.1975 7.62772 10 8.125 10ZM16.875 10C17.3723 10 17.8492 10.1975 18.2008 10.5492C18.5525 10.9008 18.75 11.3777 18.75 11.875C18.75 12.3723 18.5525 12.8492 18.2008 13.2008C17.8492 13.5524 17.3723 13.75 16.875 13.75C16.3777 13.75 15.9008 13.5524 15.5492 13.2008C15.1975 12.8492 15 12.3723 15 11.875C15 11.3777 15.1975 10.9008 15.5492 10.5492C15.9008 10.1975 16.3777 10 16.875 10Z" fill="#EAD9DF"/>
<path d="M12.5 0C19.4037 0 25 5.59625 25 12.5C25 13.4087 24.9037 14.2937 24.7188 15.1475L22.4912 12.9187C22.583 10.7247 21.9499 8.56144 20.6898 6.76296C19.4298 4.96449 17.6127 3.63079 15.5192 2.96778C13.4257 2.30476 11.1722 2.34929 9.10651 3.09449C7.04084 3.83968 5.27789 5.24411 4.08984 7.09096C2.90178 8.93781 2.35468 11.1244 2.533 13.3131C2.71131 15.5018 3.60512 17.571 5.07645 19.2012C6.54778 20.8314 8.5148 21.9319 10.6739 22.3329C12.8329 22.734 15.0639 22.4131 17.0225 21.42C17.4996 22.1761 18.1709 22.7904 18.9663 23.1987C17.0165 24.3801 14.7797 25.0032 12.5 25C5.59625 25 0 19.4037 0 12.5C0 5.59625 5.59625 0 12.5 0ZM21.25 15.215L23.0175 16.9825C23.3616 17.3264 23.5978 17.7633 23.6973 18.2395C23.7967 18.7158 23.755 19.2107 23.5774 19.6636C23.3997 20.1165 23.0937 20.5077 22.697 20.7893C22.3003 21.0709 21.83 21.2306 21.3438 21.2488C20.8577 21.2671 20.3768 21.1431 19.96 20.892C19.5433 20.641 19.2089 20.2738 18.9977 19.8355C18.7866 19.3972 18.7079 18.9068 18.7714 18.4245C18.8349 17.9421 19.0377 17.4888 19.355 17.12L19.4825 16.9825L21.25 15.215ZM12.5 16.25C14.3325 16.25 15.9812 17.0387 17.125 18.2962L15.9438 19.3712C14.9563 18.9775 13.7725 18.75 12.5 18.75C11.2275 18.75 10.0437 18.9787 9.05625 19.37L7.875 18.295C8.46027 17.6499 9.17422 17.1347 9.97082 16.7824C10.7674 16.4302 11.629 16.2488 12.5 16.25ZM8.125 10C8.62228 10 9.09919 10.1975 9.45083 10.5492C9.80246 10.9008 10 11.3777 10 11.875C10 12.3723 9.80246 12.8492 9.45083 13.2008C9.09919 13.5524 8.62228 13.75 8.125 13.75C7.62772 13.75 7.1508 13.5524 6.79917 13.2008C6.44754 12.8492 6.25 12.3723 6.25 11.875C6.25 11.3777 6.44754 10.9008 6.79917 10.5492C7.1508 10.1975 7.62772 10 8.125 10ZM16.875 10C17.3723 10 17.8492 10.1975 18.2008 10.5492C18.5525 10.9008 18.75 11.3777 18.75 11.875C18.75 12.3723 18.5525 12.8492 18.2008 13.2008C17.8492 13.5524 17.3723 13.75 16.875 13.75C16.3777 13.75 15.9008 13.5524 15.5492 13.2008C15.1975 12.8492 15 12.3723 15 11.875C15 11.3777 15.1975 10.9008 15.5492 10.5492C15.9008 10.1975 16.3777 10 16.875 10Z" stroke="black"/>
</svg>
