<svg width="48" height="49" viewBox="0 0 48 49" fill="none" xmlns="http://www.w3.org/2000/svg">
<path d="M43.5917 11.9676L44.9384 19.2958C40.1639 24.6699 34.0428 20.8836 29.8804 25.4027C29.758 25.2806 29.758 25.1584 29.758 25.0363L27.9216 14.6546L43.5917 11.9676ZM37.4706 45.5554C36.8585 45.6775 36.3688 46.2882 36.4912 46.8989C36.6137 47.6317 37.2258 48.1203 37.8379 47.9981L45.6729 46.5325C46.285 46.4103 46.7747 45.7996 46.6523 45.189C46.5299 44.4561 45.9178 44.0897 45.1832 44.2119L42.4899 44.7004L40.5312 33.5859C45.5505 32.1203 48.7335 26.9905 47.8765 21.8607L45.7954 10.2577C45.6729 9.64697 45.0608 9.15842 44.4487 9.28056L26.3301 12.4561C25.5956 12.5783 25.2283 13.189 25.3508 13.9218L27.3095 25.4027C28.2889 30.6546 32.941 34.3187 38.2051 33.9523L40.1639 45.0668L37.4706 45.5554ZM45.4281 22.2271C46.1626 26.5019 43.3469 30.6546 38.9397 31.3874C35.7567 31.9981 32.6961 30.5325 30.9822 27.9676C34.1652 23.3264 40.0415 26.7462 45.4281 22.2271Z" fill="#273951"/>
<path d="M4.78177 11.9676L3.55755 19.2958C8.33203 24.6699 14.4532 20.8836 18.6155 25.4027C18.6155 25.2806 18.6155 25.1584 18.738 25.0363L20.5743 14.6546L4.78177 11.9676ZM11.0253 45.5554C11.6374 45.6775 12.1271 46.2882 12.0047 46.8989C11.8823 47.6317 11.2702 48.1203 10.5356 47.9981L2.82301 46.5325C2.08847 46.4103 1.72121 45.7996 1.84363 45.189C1.96605 44.4561 2.57817 44.0897 3.19028 44.2119L5.88358 44.7004L7.84234 33.5859C2.82301 32.1203 -0.359979 26.9905 0.619402 21.8607L2.57817 10.2577C2.70059 9.64697 3.43512 9.15842 4.04724 9.28056L22.1658 12.4561C22.7779 12.5783 23.2676 13.189 23.1452 13.9218L21.064 25.4027C20.207 30.6546 15.4325 34.3187 10.2908 33.9523L8.33203 45.0668L11.0253 45.5554ZM3.06786 22.2271C2.2109 26.5019 5.14904 30.6546 9.43384 31.3874C12.6168 31.9981 15.7998 30.5325 17.5137 27.9676C14.3307 23.3264 8.33203 26.7462 3.06786 22.2271Z" fill="#273951"/>
<path d="M25.4727 1.22137C25.4727 0.48855 24.8605 0 24.2484 0C23.5139 0 23.0242 0.48855 23.0242 1.22137V6.35114C23.0242 6.96183 23.5139 7.57252 24.2484 7.57252C24.8605 7.57252 25.4727 6.96183 25.4727 6.35114V1.22137Z" fill="#273951"/>
<path d="M17.1479 2.56367C16.903 1.95298 16.1685 1.70871 15.5564 1.95298C14.9443 2.31939 14.6994 3.05222 15.0667 3.54077L17.1479 8.30412C17.5151 8.91481 18.2497 9.15909 18.7394 8.79267C19.3515 8.5484 19.5963 7.81557 19.3515 7.32703L17.1479 2.56367Z" fill="#273951"/>
<path d="M33.4328 3.41967C33.8001 2.80899 33.4328 2.07616 32.9431 1.83189C32.331 1.58761 31.5965 1.83189 31.3516 2.44258L29.148 7.0838C28.9032 7.69448 29.148 8.42731 29.6377 8.67158C30.2498 8.91586 30.9844 8.67158 31.2292 8.0609L33.4328 3.41967Z" fill="#273951"/>
</svg>
