<svg width="20" height="20" viewBox="0 0 20 20" fill="none" xmlns="http://www.w3.org/2000/svg">
<g clip-path="url(#clip0)">
<path d="M5.73577 15.8319H14.2691C14.5733 15.8319 14.8324 15.6127 14.8849 15.3144L15.8266 9.89771C15.8658 9.67271 15.7799 9.44604 15.6024 9.30354C15.4258 9.16021 15.1858 9.12688 14.9741 9.21188L12.4199 10.2552L10.5449 6.97938C10.3216 6.59021 9.68327 6.59021 9.45993 6.97938L7.58493 10.2552L5.03077 9.21188C4.8191 9.12688 4.57993 9.16021 4.40243 9.30354C4.22577 9.44604 4.13993 9.67271 4.17827 9.89771L5.11993 15.3144C5.17243 15.6127 5.43243 15.8319 5.73577 15.8319ZM13.7433 14.5819H6.2616L5.60327 10.796L7.6191 11.6185C7.90993 11.7377 8.24243 11.6219 8.39827 11.351L10.0024 8.54854L11.6066 11.351C11.7624 11.6219 12.0941 11.7377 12.3858 11.6185L14.4016 10.796L13.7433 14.5819Z" fill="#273951"/>
<path d="M2.29167 19.1693H17.7083C18.9725 19.1693 20 18.1418 20 16.8776V3.1276C20 1.86344 18.9725 0.835938 17.7083 0.835938H2.29167C1.0275 0.835938 4.76837e-07 1.86344 4.76837e-07 3.1276V16.8776C4.76837e-07 18.1418 1.0275 19.1693 2.29167 19.1693ZM17.7083 2.08594C18.2825 2.08594 18.75 2.55344 18.75 3.1276V16.8776C18.75 17.4518 18.2825 17.9193 17.7083 17.9193H2.29167C1.7175 17.9193 1.25 17.4518 1.25 16.8776V3.1276C1.25 2.55344 1.7175 2.08594 2.29167 2.08594H17.7083Z" fill="#273951"/>
<path d="M0.625 5H19.375C19.72 5 20 4.72 20 4.375C20 4.03 19.72 3.75 19.375 3.75H0.625C0.28 3.75 4.76837e-07 4.03 4.76837e-07 4.375C4.76837e-07 4.72 0.28 5 0.625 5Z" fill="#273951"/>
</g>
<defs>
<clipPath id="clip0">
<rect width="20" height="20" fill="white" transform="matrix(-1 0 0 1 20 0)"/>
</clipPath>
</defs>
</svg>
