<svg width="25" height="25" viewBox="0 0 25 25" fill="none" xmlns="http://www.w3.org/2000/svg">
<path fill-rule="evenodd" clip-rule="evenodd" d="M16.4333 2.6332C16.4333 3.88668 15.4292 4.91227 14.2019 4.91227C12.9746 4.91227 11.9704 3.88668 11.9704 2.6332C11.9704 1.37971 12.9746 0.354126 14.2019 0.354126C15.4292 0.354126 16.4333 1.37971 16.4333 2.6332ZM6.94959 24.8542L10.0736 8.78678L8.06533 9.58445V13.4589H5.83386V8.10306L11.4683 5.66445C12.5506 5.19724 13.8002 5.60748 14.425 6.62166L15.5407 8.44492C16.4333 10.0403 18.2185 11.1798 20.3384 11.1798V13.4589C17.8838 13.4589 15.6523 12.3193 14.2019 10.61L13.5324 14.0286L15.8755 16.3077V24.8542H13.644V18.017L11.301 15.7379L9.29263 24.8542H6.94959Z" fill="#273951"/>
</svg>
