<svg width="25" height="25" viewBox="0 0 25 25" fill="none" xmlns="http://www.w3.org/2000/svg">
<path d="M12 1C5.383 1 0 6.383 0 13C0 19.617 5.383 25 12 25C14.668 25 17.194 24.143 19.329 22.5C20.177 21.757 20.162 20.695 19.77 19.972C19.522 19.514 19.144 19.201 18.704 19.047L18.905 18.822C19.204 18.486 19.336 18.037 19.266 17.591C19.196 17.145 18.932 16.759 18.543 16.53L15.902 14.984C15.289 14.625 14.498 14.75 14.024 15.281L13.438 15.94C13.334 16.057 13.191 16.121 13.029 16.107C12.873 16.095 12.734 16.014 12.648 15.884L9.429 11.027C9.347 10.904 9.324 10.758 9.365 10.615C9.405 10.473 9.501 10.361 9.636 10.298L10.557 9.87C11.204 9.571 11.552 8.851 11.385 8.158L10.668 5.184C10.563 4.745 10.269 4.381 9.863 4.185C9.456 3.988 8.989 3.984 8.579 4.174L7.757 4.555C6.542 5.119 5.647 6.184 5.302 7.478L5.152 8.042C4.881 9.057 4.975 10.141 5.417 11.094L6.156 12.688C7.24 15.027 8.72 17.131 10.554 18.943L11.164 19.545C12.07 20.44 13.27 20.956 14.542 20.997C14.597 20.999 14.653 21 14.708 21C15.813 21 16.871 20.638 17.738 19.982C17.755 19.979 17.772 19.983 17.789 19.978C18.469 19.788 18.806 20.29 18.891 20.448C19.093 20.822 19.103 21.369 18.695 21.728C16.761 23.214 14.446 24 12 24C5.935 24 1 19.065 1 13C1 6.935 5.935 2 12 2C18.065 2 23 6.935 23 13C23 13.276 23.224 13.5 23.5 13.5C23.776 13.5 24 13.276 24 13C24 6.383 18.617 1 12 1ZM18.161 18.158L17.726 18.646C16.927 19.544 15.789 20.04 14.576 19.998C13.557 19.965 12.595 19.551 11.869 18.834L11.259 18.231C9.51 16.504 8.099 14.497 7.065 12.267L6.326 10.673C5.982 9.931 5.909 9.089 6.119 8.299L6.269 7.735C6.537 6.729 7.233 5.9 8.179 5.462L9.001 5.081C9.067 5.051 9.139 5.035 9.211 5.035C9.286 5.035 9.36 5.051 9.43 5.084C9.566 5.15 9.663 5.271 9.699 5.417L10.416 8.391C10.472 8.622 10.356 8.862 10.14 8.962L9.219 9.39C8.822 9.574 8.525 9.922 8.406 10.343C8.287 10.764 8.357 11.215 8.599 11.58L11.817 16.437C12.077 16.827 12.493 17.071 12.961 17.104C13.436 17.138 13.877 16.956 14.189 16.605L14.775 15.946C14.933 15.769 15.198 15.727 15.401 15.847L18.041 17.393C18.171 17.47 18.259 17.599 18.282 17.747C18.305 17.896 18.261 18.046 18.161 18.158Z" fill="#273951"/>
</svg>
