<!-- Generated by IcoMoon.io -->
<svg version="1.1" xmlns="http://www.w3.org/2000/svg" width="32" height="32" viewBox="0 0 32 32">
<title>add_shopping_cart</title>
<path d="M9.563 19.687c0 0.208 0.104 0.313 0.313 0.313h15.438v2.687h-16c-0.708 0-1.333-0.271-1.875-0.813-0.5-0.542-0.75-1.167-0.75-1.875 0-0.417 0.104-0.833 0.313-1.25l1.813-3.313-4.813-10.125h-2.688v-2.625h4.375c0.833 1.75 1.667 3.521 2.5 5.313 0.208 0.375 0.688 1.375 1.438 3 0.75 1.583 1.333 2.813 1.75 3.687h9.375c3.125-5.667 4.833-8.792 5.125-9.375l2.313 1.313-5.125 9.312c-0.5 0.917-1.271 1.375-2.313 1.375h-9.938l-1.188 2.187-0.063 0.187zM20.813 24.813c0.542-0.542 1.167-0.813 1.875-0.813s1.313 0.271 1.813 0.813c0.542 0.542 0.813 1.167 0.813 1.875s-0.271 1.333-0.813 1.875c-0.5 0.5-1.104 0.75-1.813 0.75s-1.333-0.25-1.875-0.75c-0.542-0.542-0.813-1.167-0.813-1.875s0.271-1.333 0.813-1.875zM7.438 24.813c0.542-0.542 1.167-0.813 1.875-0.813s1.333 0.271 1.875 0.813c0.542 0.542 0.813 1.167 0.813 1.875s-0.271 1.333-0.813 1.875c-0.542 0.5-1.167 0.75-1.875 0.75s-1.333-0.25-1.875-0.75c-0.5-0.542-0.75-1.167-0.75-1.875s0.25-1.333 0.75-1.875zM14.687 12v-4h-4v-2.688h4v-4h2.625v4h4v2.688h-4v4h-2.625z"></path>
</svg>
