<!-- Generated by IcoMoon.io -->
<svg version="1.1" xmlns="http://www.w3.org/2000/svg" width="32" height="32" viewBox="0 0 32 32">
<title>all_out</title>
<path d="M16.25 23.5c2.042 0 3.771-0.708 5.187-2.125s2.125-3.125 2.125-5.125c0-2.042-0.708-3.771-2.125-5.188s-3.146-2.125-5.187-2.125c-2 0-3.708 0.708-5.125 2.125s-2.125 3.146-2.125 5.188c0 2 0.708 3.708 2.125 5.125s3.125 2.125 5.125 2.125zM16.25 6.875c2.583 0 4.792 0.917 6.625 2.75s2.75 4.042 2.75 6.625c0 2.583-0.917 4.771-2.75 6.563s-4.042 2.687-6.625 2.687-4.771-0.896-6.563-2.687c-1.792-1.792-2.688-3.979-2.688-6.563s0.896-4.792 2.688-6.625c1.792-1.833 3.979-2.75 6.563-2.75zM5.625 10.875v-5.313h5.313l-5.313 5.313zM10.938 26.875h-5.313v-5.312l5.313 5.312zM26.937 21.563v5.312h-5.312l5.312-5.312zM21.625 5.563h5.312v5.313l-5.312-5.313z"></path>
</svg>
