<!-- Generated by IcoMoon.io -->
<svg version="1.1" xmlns="http://www.w3.org/2000/svg" width="32" height="32" viewBox="0 0 32 32">
<title>assessment</title>
<path d="M22.687 22.687v-5.375h-2.687v5.375h2.687zM17.313 22.687v-13.375h-2.625v13.375h2.625zM12 22.687v-9.375h-2.688v9.375h2.688zM25.313 4c0.708 0 1.333 0.271 1.875 0.813s0.813 1.167 0.813 1.875v18.625c0 0.708-0.271 1.333-0.813 1.875s-1.167 0.813-1.875 0.813h-18.625c-0.708 0-1.333-0.271-1.875-0.813s-0.813-1.167-0.813-1.875v-18.625c0-0.708 0.271-1.333 0.813-1.875s1.167-0.813 1.875-0.813h18.625z"></path>
</svg>
