<!-- Generated by IcoMoon.io -->
<svg version="1.1" xmlns="http://www.w3.org/2000/svg" width="32" height="32" viewBox="0 0 32 32">
<title>assignment_ind</title>
<path d="M24 25.313v-1.875c0-1.208-0.917-2.187-2.75-2.937-1.833-0.792-3.583-1.187-5.25-1.187s-3.417 0.396-5.25 1.187c-1.833 0.75-2.75 1.729-2.75 2.937v1.875h16zM18.813 10.5c-0.792-0.792-1.729-1.188-2.813-1.188s-2.021 0.396-2.813 1.188c-0.792 0.792-1.188 1.729-1.188 2.813s0.396 2.021 1.188 2.813c0.792 0.792 1.729 1.187 2.813 1.187s2.021-0.396 2.813-1.187c0.792-0.792 1.187-1.729 1.187-2.813s-0.396-2.021-1.187-2.813zM16.937 4.375c-0.25-0.25-0.563-0.375-0.937-0.375s-0.687 0.125-0.937 0.375c-0.25 0.25-0.375 0.563-0.375 0.938s0.125 0.708 0.375 1c0.25 0.25 0.563 0.375 0.937 0.375s0.687-0.125 0.937-0.375c0.25-0.292 0.375-0.625 0.375-1s-0.125-0.688-0.375-0.938zM25.313 4c0.708 0 1.333 0.271 1.875 0.813s0.813 1.167 0.813 1.875v18.625c0 0.708-0.271 1.333-0.813 1.875s-1.167 0.813-1.875 0.813h-18.625c-0.708 0-1.333-0.271-1.875-0.813s-0.813-1.167-0.813-1.875v-18.625c0-0.708 0.271-1.333 0.813-1.875s1.167-0.813 1.875-0.813h5.563c0.292-0.792 0.771-1.438 1.437-1.938s1.438-0.75 2.313-0.75c0.875 0 1.646 0.25 2.313 0.75s1.146 1.146 1.437 1.938h5.563z"></path>
</svg>
