<!-- Generated by IcoMoon.io -->
<svg version="1.1" xmlns="http://www.w3.org/2000/svg" width="32" height="32" viewBox="0 0 32 32">
<title>autorenew</title>
<path d="M25 10.313c1.125 1.708 1.687 3.604 1.687 5.688 0 2.917-1.062 5.437-3.187 7.563-2.083 2.083-4.583 3.125-7.5 3.125v4l-5.313-5.375 5.313-5.313v4c2.208 0 4.083-0.771 5.625-2.313 1.583-1.583 2.375-3.479 2.375-5.687 0-1.25-0.313-2.5-0.937-3.75l1.937-1.938zM16 8c-2.208 0-4.104 0.792-5.688 2.375-1.542 1.542-2.313 3.417-2.313 5.625 0 1.375 0.313 2.625 0.938 3.75l-1.938 1.937c-1.125-1.708-1.688-3.604-1.688-5.687 0-2.917 1.042-5.417 3.125-7.5 2.125-2.125 4.646-3.188 7.563-3.188v-4l5.313 5.375-5.313 5.313v-4z"></path>
</svg>
