<!-- Generated by IcoMoon.io -->
<svg version="1.1" xmlns="http://www.w3.org/2000/svg" width="32" height="32" viewBox="0 0 32 32">
<title>book</title>
<path d="M8 5.313v10.688l3.313-2 3.375 2v-10.688h-6.687zM24 2.688c0.708 0 1.333 0.271 1.875 0.813 0.542 0.5 0.813 1.104 0.813 1.813v21.375c0 0.708-0.271 1.333-0.813 1.875-0.542 0.5-1.167 0.75-1.875 0.75h-16c-0.708 0-1.333-0.25-1.875-0.75-0.542-0.542-0.813-1.167-0.813-1.875v-21.375c0-0.708 0.271-1.313 0.813-1.813 0.542-0.542 1.167-0.813 1.875-0.813h16z"></path>
</svg>
