<!-- Generated by IcoMoon.io -->
<svg version="1.1" xmlns="http://www.w3.org/2000/svg" width="32" height="32" viewBox="0 0 32 32">
<title>card_membership</title>
<path d="M26.687 13.313v-8h-21.375v8h21.375zM26.687 20v-2.687h-21.375v2.687h21.375zM26.687 2.688c0.75 0 1.375 0.25 1.875 0.75s0.75 1.125 0.75 1.875v14.688c0 0.75-0.25 1.396-0.75 1.937-0.5 0.5-1.125 0.75-1.875 0.75h-5.375v6.625l-5.313-2.625-5.313 2.625v-6.625h-5.375c-0.75 0-1.375-0.25-1.875-0.75-0.5-0.542-0.75-1.187-0.75-1.937v-14.688c0-0.75 0.25-1.375 0.75-1.875s1.125-0.75 1.875-0.75h21.375z"></path>
</svg>
