<!-- Generated by IcoMoon.io -->
<svg version="1.1" xmlns="http://www.w3.org/2000/svg" width="32" height="32" viewBox="0 0 32 32">
<title>check_circle</title>
<path d="M13.313 22.687l12-12-1.875-1.938-10.125 10.125-4.75-4.75-1.875 1.875 6.625 6.687zM6.563 6.625c2.625-2.625 5.771-3.938 9.438-3.938s6.792 1.313 9.375 3.938c2.625 2.583 3.938 5.708 3.938 9.375s-1.313 6.813-3.938 9.437c-2.583 2.583-5.708 3.875-9.375 3.875s-6.813-1.292-9.438-3.875c-2.583-2.625-3.875-5.771-3.875-9.437s1.292-6.792 3.875-9.375z"></path>
<path d="M0 0v-1.333h-1.333v1.333h1.333zM32 0h1.333v-1.333h-1.333v1.333zM32 32v1.333h1.333v-1.333h-1.333zM0 32h-1.333v1.333h1.333v-1.333zM0 1.333h32v-2.667h-32v2.667zM30.667 0v32h2.667v-32h-2.667zM32 30.667h-32v2.667h32v-2.667zM1.333 32v-32h-2.667v32h2.667z"></path>
</svg>
