<!-- Generated by IcoMoon.io -->
<svg version="1.1" xmlns="http://www.w3.org/2000/svg" width="32" height="32" viewBox="0 0 32 32">
<title>d_rotation</title>
<path d="M16 0c4.167 0 7.771 1.417 10.813 4.25 3.083 2.792 4.792 6.25 5.125 10.375h-2c-0.208-2.458-1.042-4.688-2.5-6.688-1.417-2-3.229-3.521-5.437-4.563l-1.813 1.75-5.062-5.063 0.875-0.063zM22.063 15.75c0-2.375-0.979-3.563-2.937-3.563h-1.25v7.687h1.188c1.5 0 2.458-0.708 2.875-2.125 0.083-0.292 0.125-0.792 0.125-1.5v-0.5zM19.125 10.688c2.208 0 3.708 0.979 4.5 2.938 0.208 0.5 0.312 1.208 0.312 2.125v0.5c0 1.583-0.437 2.813-1.312 3.687-0.917 0.917-2.104 1.375-3.563 1.375h-3.063v-10.625h3.125zM12.938 15.875c1.167 0.458 1.75 1.271 1.75 2.438 0 0.417-0.104 0.833-0.313 1.25-0.25 0.5-0.479 0.833-0.687 1-0.625 0.5-1.458 0.75-2.5 0.75-1 0-1.813-0.25-2.438-0.75s-0.938-1.229-0.938-2.188h1.688c0 0.458 0.146 0.833 0.438 1.125 0.333 0.292 0.75 0.437 1.25 0.437 1.167 0 1.75-0.563 1.75-1.687s-0.646-1.687-1.938-1.687h-1v-1.375h1c1.208 0 1.813-0.521 1.813-1.562s-0.542-1.563-1.625-1.563c-1.042 0-1.563 0.479-1.563 1.438h-1.75c0-0.708 0.313-1.375 0.938-2 0.667-0.542 1.458-0.813 2.375-0.813 1.458 0 2.479 0.563 3.063 1.688 0.167 0.333 0.25 0.75 0.25 1.25 0 0.958-0.521 1.708-1.563 2.25zM10 28.625l1.813-1.75 5.062 5.063-0.875 0.063c-4.167 0-7.792-1.417-10.875-4.25-3.042-2.833-4.729-6.313-5.063-10.437h2c0.25 2.5 1.083 4.75 2.5 6.75s3.229 3.521 5.438 4.563z"></path>
</svg>
