<!-- Generated by IcoMoon.io -->
<svg version="1.1" xmlns="http://www.w3.org/2000/svg" width="32" height="32" viewBox="0 0 32 32">
<title>date_range</title>
<path d="M25.313 26.687v-14.687h-18.625v14.687h18.625zM25.313 5.313c0.708 0 1.333 0.271 1.875 0.813s0.813 1.167 0.813 1.875v18.687c0 0.708-0.271 1.333-0.813 1.875-0.542 0.5-1.167 0.75-1.875 0.75h-18.625c-0.75 0-1.396-0.25-1.938-0.75-0.5-0.542-0.75-1.167-0.75-1.875v-18.687c0-0.708 0.25-1.333 0.75-1.875 0.542-0.542 1.188-0.813 1.938-0.813h1.313v-2.625h2.688v2.625h10.625v-2.625h2.687v2.625h1.313zM22.687 14.687v2.625h-2.687v-2.625h2.687zM17.313 14.687v2.625h-2.625v-2.625h2.625zM12 14.687v2.625h-2.688v-2.625h2.688z"></path>
</svg>
