<!-- Generated by IcoMoon.io -->
<svg version="1.1" xmlns="http://www.w3.org/2000/svg" width="32" height="32" viewBox="0 0 32 32">
<title>directions_bike</title>
<path d="M22 26c0.917 0.875 2.021 1.313 3.313 1.313s2.396-0.438 3.313-1.313c0.917-0.917 1.375-2.021 1.375-3.313s-0.458-2.396-1.375-3.313c-0.917-0.917-2.021-1.375-3.313-1.375s-2.396 0.458-3.313 1.375c-0.875 0.917-1.313 2.021-1.313 3.313s0.438 2.396 1.313 3.313zM20.563 17.937c1.292-1.292 2.875-1.937 4.75-1.937s3.458 0.646 4.75 1.937c1.292 1.292 1.937 2.875 1.937 4.75s-0.646 3.458-1.937 4.75c-1.292 1.25-2.875 1.875-4.75 1.875s-3.458-0.625-4.75-1.875c-1.25-1.292-1.875-2.875-1.875-4.75s0.625-3.458 1.875-4.75zM14.375 14l2.938 3.063v8.25h-2.625v-6.625l-4.312-3.75c-0.5-0.333-0.75-0.958-0.75-1.875 0-0.75 0.25-1.375 0.75-1.875l3.75-3.75c0.333-0.5 0.958-0.75 1.875-0.75 0.792 0 1.5 0.25 2.125 0.75l2.562 2.563c1.333 1.333 2.917 2 4.75 2v2.687c-2.625 0-4.875-0.937-6.75-2.812l-1.062-1.063-3.25 3.188zM3.375 26c0.917 0.875 2.021 1.313 3.313 1.313s2.375-0.438 3.25-1.313c0.917-0.917 1.375-2.021 1.375-3.313s-0.458-2.396-1.375-3.313c-0.875-0.917-1.958-1.375-3.25-1.375s-2.396 0.458-3.313 1.375c-0.917 0.917-1.375 2.021-1.375 3.313s0.458 2.396 1.375 3.313zM1.938 17.937c1.292-1.292 2.875-1.937 4.75-1.937s3.438 0.646 4.688 1.937c1.292 1.292 1.938 2.875 1.938 4.75s-0.646 3.458-1.938 4.75c-1.25 1.25-2.813 1.875-4.688 1.875s-3.458-0.625-4.75-1.875c-1.292-1.292-1.938-2.875-1.938-4.75s0.646-3.458 1.938-4.75zM22.5 6.563c-0.5 0.5-1.104 0.75-1.813 0.75s-1.333-0.25-1.875-0.75c-0.542-0.542-0.813-1.167-0.813-1.875s0.271-1.333 0.813-1.875c0.542-0.542 1.167-0.813 1.875-0.813s1.313 0.271 1.813 0.813c0.542 0.542 0.813 1.167 0.813 1.875s-0.271 1.333-0.813 1.875z"></path>
</svg>
