<!-- Generated by IcoMoon.io -->
<svg version="1.1" xmlns="http://www.w3.org/2000/svg" width="32" height="32" viewBox="0 0 32 32">
<title>donut_large</title>
<path d="M17.313 25.25c2-0.292 3.75-1.187 5.25-2.687 1.542-1.5 2.458-3.25 2.75-5.25h4c-0.333 3.333-1.583 6.104-3.75 8.313-2.167 2.167-4.917 3.396-8.25 3.687v-4.063zM25.313 14.687c-0.292-2-1.208-3.75-2.75-5.25-1.5-1.5-3.25-2.396-5.25-2.688v-4.063c3.333 0.333 6.083 1.583 8.25 3.75s3.417 4.917 3.75 8.25h-4zM14.687 6.75c-2.083 0.333-3.937 1.396-5.562 3.188s-2.438 3.813-2.438 6.063c0 2.25 0.813 4.271 2.438 6.063s3.479 2.854 5.562 3.187v4.063c-3.375-0.333-6.229-1.771-8.562-4.313-2.292-2.542-3.438-5.542-3.438-9s1.146-6.458 3.438-9c2.333-2.542 5.188-3.979 8.562-4.313v4.063z"></path>
</svg>
