<!-- Generated by IcoMoon.io -->
<svg version="1.1" xmlns="http://www.w3.org/2000/svg" width="32" height="32" viewBox="0 0 32 32">
<title>dvr</title>
<path d="M9.313 16v2.687h-2.625v-2.687h2.625zM9.313 10.688v2.625h-2.625v-2.625h2.625zM25.313 16v2.687h-14.625v-2.687h14.625zM25.313 10.688v2.625h-14.625v-2.625h14.625zM28 22.687v-16h-24v16h24zM28 4c0.708 0 1.333 0.271 1.875 0.813s0.813 1.167 0.813 1.875l-0.062 16c0 0.708-0.271 1.333-0.813 1.875-0.5 0.5-1.104 0.75-1.813 0.75h-6.687v2.687h-10.625v-2.687h-6.688c-0.708 0-1.333-0.25-1.875-0.75-0.542-0.542-0.813-1.167-0.813-1.875v-16c0-0.708 0.271-1.333 0.813-1.875s1.167-0.813 1.875-0.813h24z"></path>
</svg>
