<!-- Generated by IcoMoon.io -->
<svg version="1.1" xmlns="http://www.w3.org/2000/svg" width="32" height="32" viewBox="0 0 32 32">
<title>exit_to_app</title>
<path d="M25.313 4c0.708 0 1.333 0.271 1.875 0.813s0.813 1.167 0.813 1.875v18.625c0 0.708-0.271 1.333-0.813 1.875s-1.167 0.813-1.875 0.813h-18.625c-0.75 0-1.396-0.271-1.938-0.813-0.5-0.542-0.75-1.167-0.75-1.875v-5.313h2.688v5.313h18.625v-18.625h-18.625v5.313h-2.688v-5.313c0-0.708 0.25-1.333 0.75-1.875 0.542-0.542 1.188-0.813 1.938-0.813h18.625zM13.437 20.813l3.437-3.5h-12.875v-2.625h12.875l-3.437-3.5 1.875-1.875 6.687 6.688-6.687 6.687-1.875-1.875z"></path>
</svg>
