<!-- Generated by IcoMoon.io -->
<svg version="1.1" xmlns="http://www.w3.org/2000/svg" width="32" height="32" viewBox="0 0 32 32">
<title>extension</title>
<path d="M27.313 14.687c0.917 0 1.708 0.333 2.375 1 0.667 0.625 1 1.396 1 2.313s-0.333 1.708-1 2.375c-0.667 0.625-1.458 0.938-2.375 0.938h-2v5.375c0 0.708-0.271 1.333-0.813 1.875-0.5 0.5-1.104 0.75-1.813 0.75h-5.062v-2c0-1-0.354-1.833-1.063-2.5-0.708-0.708-1.563-1.063-2.563-1.063s-1.854 0.354-2.563 1.063c-0.708 0.667-1.063 1.5-1.063 2.5v2h-5.063c-0.708 0-1.333-0.25-1.875-0.75-0.5-0.542-0.75-1.167-0.75-1.875v-5.062h2c1 0 1.833-0.354 2.5-1.063 0.708-0.708 1.063-1.563 1.063-2.563s-0.354-1.854-1.063-2.563c-0.667-0.708-1.5-1.063-2.5-1.063h-2v-5.062c0-0.708 0.25-1.313 0.75-1.813 0.542-0.542 1.167-0.813 1.875-0.813h5.375v-2c0-0.917 0.313-1.708 0.938-2.375 0.667-0.667 1.458-1 2.375-1s1.687 0.333 2.313 1c0.667 0.667 1 1.458 1 2.375v2h5.375c0.708 0 1.313 0.271 1.813 0.813 0.542 0.5 0.813 1.104 0.813 1.813v5.375h2z"></path>
</svg>
