<!-- Generated by IcoMoon.io -->
<svg version="1.1" xmlns="http://www.w3.org/2000/svg" width="32" height="32" viewBox="0 0 32 32">
<title>face</title>
<path d="M8.438 23.563c2.125 2.083 4.646 3.125 7.563 3.125s5.417-1.042 7.5-3.125c2.125-2.125 3.187-4.646 3.187-7.563 0-0.917-0.146-1.917-0.437-3-0.792 0.208-1.792 0.313-3 0.313-4.583 0-8.208-1.875-10.875-5.625-1.375 3.333-3.708 5.729-7 7.187-0.042 0.25-0.063 0.625-0.063 1.125 0 2.917 1.042 5.437 3.125 7.563zM6.563 6.625c2.625-2.625 5.771-3.938 9.438-3.938s6.792 1.313 9.375 3.938c2.625 2.583 3.938 5.708 3.938 9.375s-1.313 6.813-3.938 9.437c-2.583 2.583-5.708 3.875-9.375 3.875s-6.813-1.292-9.438-3.875c-2.583-2.625-3.875-5.771-3.875-9.437s1.292-6.792 3.875-9.375zM18.813 16.187c0.333-0.333 0.729-0.5 1.187-0.5s0.854 0.167 1.187 0.5c0.333 0.292 0.5 0.667 0.5 1.125s-0.167 0.854-0.5 1.187-0.729 0.5-1.187 0.5c-0.458 0-0.854-0.167-1.187-0.5s-0.5-0.729-0.5-1.187c0-0.458 0.167-0.833 0.5-1.125zM10.813 16.187c0.333-0.333 0.729-0.5 1.188-0.5s0.854 0.167 1.188 0.5c0.333 0.292 0.5 0.667 0.5 1.125s-0.167 0.854-0.5 1.187-0.729 0.5-1.188 0.5c-0.458 0-0.854-0.167-1.188-0.5s-0.5-0.729-0.5-1.187c0-0.458 0.167-0.833 0.5-1.125z"></path>
</svg>
