<!-- Generated by IcoMoon.io -->
<svg version="1.1" xmlns="http://www.w3.org/2000/svg" width="32" height="32" viewBox="0 0 32 32">
<title>find_replace</title>
<path d="M22.187 20.187l6.438 6.5-1.938 1.938-6.5-6.438c-1.667 1.208-3.5 1.813-5.5 1.813-2.583 0-4.792-0.917-6.625-2.75l-2.75 2.75v-8h8l-3.375 3.375c1.292 1.292 2.875 1.938 4.75 1.938 1.625 0 3.021-0.5 4.187-1.5 1.208-1 1.979-2.271 2.313-3.813h2.687c-0.167 1.5-0.729 2.896-1.687 4.187zM14.687 8c-1.625 0-3.042 0.5-4.25 1.5s-1.979 2.271-2.313 3.813h-2.688c0.333-2.25 1.375-4.146 3.125-5.688s3.792-2.313 6.125-2.313c2.542 0 4.729 0.917 6.563 2.75l2.75-2.75v8h-8l3.375-3.375c-1.292-1.292-2.854-1.938-4.687-1.938z"></path>
</svg>
