<!-- Generated by IcoMoon.io -->
<svg version="1.1" xmlns="http://www.w3.org/2000/svg" width="32" height="32" viewBox="0 0 32 32">
<title>fingerprint</title>
<path d="M19.875 29.313h-0.187c-1.917-0.5-3.563-1.438-4.938-2.813-1.917-1.917-2.875-4.229-2.875-6.937 0-1.083 0.396-2 1.188-2.75 0.792-0.792 1.75-1.187 2.875-1.187s2.083 0.396 2.875 1.187c0.833 0.75 1.25 1.667 1.25 2.75 0 0.708 0.25 1.312 0.75 1.812 0.542 0.5 1.208 0.75 2 0.75s1.458-0.25 2-0.75c0.542-0.5 0.813-1.104 0.813-1.812 0-2.5-0.958-4.646-2.875-6.438-1.875-1.792-4.146-2.688-6.812-2.688-1.917 0-3.667 0.5-5.25 1.5-1.583 0.958-2.771 2.25-3.563 3.875-0.5 1.042-0.75 2.292-0.75 3.75 0 1.667 0.292 3.271 0.875 4.812 0.125 0.417-0.021 0.688-0.438 0.813s-0.688 0-0.813-0.375c-0.667-1.875-1-3.625-1-5.25s0.313-3.063 0.938-4.313c0.875-1.875 2.208-3.375 4-4.5 1.833-1.125 3.833-1.688 6-1.688 3.042 0 5.625 1.042 7.75 3.125 2.167 2.042 3.25 4.5 3.25 7.375 0 1.083-0.417 2-1.25 2.75-0.792 0.75-1.75 1.125-2.875 1.125s-2.083-0.375-2.875-1.125c-0.792-0.75-1.188-1.667-1.188-2.75 0-0.708-0.271-1.313-0.812-1.813-0.542-0.542-1.208-0.813-2-0.813s-1.458 0.271-2 0.813c-0.5 0.5-0.75 1.104-0.75 1.813 0 2.333 0.833 4.333 2.5 6 1.167 1.167 2.625 1.979 4.375 2.437 0.375 0.042 0.521 0.313 0.437 0.813-0.083 0.333-0.292 0.5-0.625 0.5zM16.563 19.563c0 1.542 0.563 2.875 1.687 4 1.167 1.125 2.604 1.687 4.313 1.687 0.083 0 0.271-0.021 0.563-0.063s0.521-0.062 0.687-0.062c0.208 0 0.396 0.042 0.563 0.125 0.208 0.042 0.333 0.167 0.375 0.375 0.083 0.458-0.104 0.729-0.562 0.812-0.5 0.083-1.042 0.125-1.625 0.125-1.667 0-3.042-0.396-4.125-1.188-2.125-1.458-3.188-3.396-3.188-5.812 0-0.458 0.229-0.688 0.688-0.688 0.417 0 0.625 0.229 0.625 0.688zM13 29.063c-0.167 0-0.313-0.063-0.438-0.188-1.125-1.125-2.021-2.312-2.688-3.562-0.958-1.667-1.438-3.583-1.438-5.75 0-1.958 0.729-3.646 2.188-5.063 1.5-1.417 3.292-2.125 5.375-2.125s3.854 0.708 5.313 2.125c1.5 1.417 2.25 3.104 2.25 5.063 0 0.417-0.229 0.625-0.687 0.625s-0.687-0.208-0.687-0.625c0-1.625-0.604-3-1.813-4.125-1.208-1.167-2.667-1.75-4.375-1.75s-3.167 0.583-4.375 1.75c-1.208 1.125-1.813 2.5-1.813 4.125 0 2 0.396 3.708 1.188 5.125 0.542 0.958 1.375 2.042 2.5 3.25 0.333 0.292 0.333 0.604 0 0.937-0.125 0.125-0.292 0.188-0.5 0.188zM4.688 12.938c-0.292 0-0.5-0.104-0.625-0.313s-0.104-0.438 0.063-0.688c1.333-1.917 3-3.375 5-4.375 2.083-1.083 4.375-1.625 6.875-1.625s4.792 0.542 6.875 1.625c2.042 1 3.708 2.438 5 4.313 0.25 0.417 0.187 0.729-0.187 0.938-0.417 0.25-0.729 0.188-0.938-0.188-1.125-1.625-2.625-2.917-4.5-3.875-1.917-0.958-4-1.438-6.25-1.438-2.25-0.042-4.333 0.438-6.25 1.438-1.875 0.958-3.396 2.271-4.563 3.938-0.125 0.167-0.292 0.25-0.5 0.25zM23.75 5.938c-0.167 0-0.271-0.021-0.312-0.063-2.458-1.25-4.938-1.875-7.438-1.875-2.708 0-5.187 0.625-7.437 1.875-0.25 0.125-0.479 0.125-0.688 0-0.167-0.167-0.25-0.354-0.25-0.563 0-0.25 0.104-0.458 0.313-0.625 2.417-1.333 5.104-2 8.062-2 2.708 0 5.396 0.667 8.063 2 0.292 0.167 0.396 0.417 0.313 0.75s-0.292 0.5-0.625 0.5z"></path>
</svg>
