<!-- Generated by IcoMoon.io -->
<svg version="1.1" xmlns="http://www.w3.org/2000/svg" width="32" height="32" viewBox="0 0 32 32">
<title>g_translate</title>
<path d="M28 26.687v-17.375c0-0.375-0.125-0.688-0.375-0.938s-0.563-0.375-0.938-0.375h-11.75l1.563 5.375h2.563v-1.375h1.437v1.375h4.813v1.375h-1.687c-0.417 1.625-1.271 3.187-2.563 4.687l3.625 3.563-0.937 1-3.625-3.563-1.188 1.188 1.063 3.687-2.687 2.687h9.375c0.375 0 0.687-0.125 0.938-0.375s0.375-0.563 0.375-0.938zM18.625 16.187c0.375 0.792 0.875 1.542 1.5 2.25 0.5-0.583 0.917-1.167 1.25-1.75 0.333-0.625 0.542-1.104 0.625-1.437l0.187-0.5h-5.313l0.438 1.437h1.313zM17.625 17.187l0.812 2.938 0.75-0.688c-0.583-0.625-1.104-1.375-1.562-2.25zM14.813 14.125c0-0.458-0.042-0.771-0.125-0.938h-5.25v2.063h2.938c-0.125 0.5-0.417 0.958-0.875 1.375s-1.104 0.625-1.938 0.625c-0.875 0-1.625-0.313-2.25-0.937-0.625-0.667-0.938-1.438-0.938-2.313s0.313-1.625 0.938-2.25c0.625-0.667 1.375-1 2.25-1 0.792 0 1.458 0.271 2 0.813l0.125 0.063 1.625-1.563-0.125-0.063c-1.042-0.958-2.25-1.438-3.625-1.438-1.5 0-2.792 0.542-3.875 1.625-1.042 1.042-1.563 2.313-1.563 3.813s0.521 2.792 1.563 3.875c1.083 1.042 2.375 1.563 3.875 1.563 1.542 0 2.792-0.5 3.75-1.5 1-1 1.5-2.271 1.5-3.812zM26.687 6.688c0.708 0 1.313 0.271 1.813 0.813 0.542 0.5 0.813 1.104 0.813 1.813v17.375c0 0.708-0.271 1.333-0.813 1.875-0.5 0.5-1.104 0.75-1.813 0.75h-10.687l-1.313-4h-9.375c-0.708 0-1.333-0.25-1.875-0.75-0.5-0.542-0.75-1.167-0.75-1.875v-17.375c0-0.708 0.25-1.313 0.75-1.813 0.542-0.542 1.167-0.813 1.875-0.813h8l1.188 4h12.187z"></path>
</svg>
