<!-- Generated by IcoMoon.io -->
<svg version="1.1" xmlns="http://www.w3.org/2000/svg" width="32" height="32" viewBox="0 0 32 32">
<title>gif</title>
<path d="M25.313 14h-4v1.313h2.687v2h-2.687v2.687h-2v-8h6v2zM12 12c0.375 0 0.688 0.125 0.938 0.375s0.375 0.563 0.375 0.938v0.688h-4.625v4h2.625v-2h2v2.687c0 0.375-0.125 0.687-0.375 0.938s-0.563 0.375-0.938 0.375h-4c-0.375 0-0.688-0.125-0.938-0.375s-0.375-0.563-0.375-0.938v-5.375c0-0.375 0.125-0.688 0.375-0.938s0.563-0.375 0.938-0.375h4zM15.313 12h2v8h-2v-8z"></path>
</svg>
