<!-- Generated by IcoMoon.io -->
<svg version="1.1" xmlns="http://www.w3.org/2000/svg" width="32" height="32" viewBox="0 0 32 32">
<title>line_style</title>
<path d="M4 5.313h24v5.375h-24v-5.375zM17.313 16v-2.688h10.687v2.688h-10.687zM4 16v-2.688h10.687v2.688h-10.687zM25.313 26.687v-2.687h2.687v2.687h-2.687zM20 26.687v-2.687h2.687v2.687h-2.687zM14.687 26.687v-2.687h2.625v2.687h-2.625zM9.313 26.687v-2.687h2.688v2.687h-2.688zM4 26.687v-2.687h2.688v2.687h-2.688zM21.313 21.313v-2.625h6.687v2.625h-6.687zM12.688 21.313v-2.625h6.625v2.625h-6.625zM4 21.313v-2.625h6.688v2.625h-6.688z"></path>
</svg>
