<!-- Generated by IcoMoon.io -->
<svg version="1.1" xmlns="http://www.w3.org/2000/svg" width="32" height="32" viewBox="0 0 32 32">
<title>lock_outline</title>
<path d="M24 26.687v-13.375h-16v13.375h16zM11.875 8v2.688h8.25v-2.688c0-1.125-0.417-2.083-1.25-2.875-0.792-0.833-1.75-1.25-2.875-1.25s-2.104 0.417-2.938 1.25c-0.792 0.792-1.188 1.75-1.188 2.875zM24 10.688c0.708 0 1.333 0.271 1.875 0.813 0.542 0.5 0.813 1.104 0.813 1.813v13.375c0 0.708-0.271 1.333-0.813 1.875-0.542 0.5-1.167 0.75-1.875 0.75h-16c-0.708 0-1.333-0.25-1.875-0.75-0.542-0.542-0.813-1.167-0.813-1.875v-13.375c0-0.708 0.271-1.313 0.813-1.813 0.542-0.542 1.167-0.813 1.875-0.813h1.313v-2.688c0-1.833 0.646-3.396 1.938-4.688 1.333-1.333 2.917-2 4.75-2s3.396 0.667 4.687 2c1.333 1.292 2 2.854 2 4.688v2.688h1.313zM17.875 21.875c-0.542 0.542-1.167 0.813-1.875 0.813s-1.333-0.271-1.875-0.813c-0.542-0.542-0.813-1.167-0.813-1.875s0.271-1.333 0.813-1.875c0.542-0.542 1.167-0.813 1.875-0.813s1.333 0.271 1.875 0.813c0.542 0.542 0.813 1.167 0.813 1.875s-0.271 1.333-0.813 1.875z"></path>
</svg>
