<!-- Generated by IcoMoon.io -->
<svg version="1.1" xmlns="http://www.w3.org/2000/svg" width="32" height="32" viewBox="0 0 32 32">
<title>markunread_mailbox</title>
<path d="M26.687 8c0.708 0 1.313 0.271 1.813 0.813 0.542 0.542 0.813 1.167 0.813 1.875v16c0 0.708-0.271 1.333-0.813 1.875-0.5 0.5-1.104 0.75-1.813 0.75h-21.375c-0.708 0-1.333-0.25-1.875-0.75-0.5-0.542-0.75-1.167-0.75-1.875v-16c0-0.708 0.25-1.333 0.75-1.875 0.542-0.542 1.167-0.813 1.875-0.813h2.688v-8h10.687v5.313h-8v10.688h2.625v-8h13.375z"></path>
</svg>
