<!-- Generated by IcoMoon.io -->
<svg version="1.1" xmlns="http://www.w3.org/2000/svg" width="32" height="32" viewBox="0 0 32 32">
<title>motorcycle</title>
<path d="M22.5 21.5c0.792 0.792 1.729 1.187 2.813 1.187s2.021-0.396 2.813-1.187c0.792-0.792 1.187-1.729 1.187-2.813s-0.396-2.021-1.187-2.813c-0.792-0.792-1.729-1.187-2.813-1.187s-2.021 0.396-2.813 1.187c-0.792 0.792-1.187 1.729-1.187 2.813s0.396 2.021 1.187 2.813zM10.438 20h-3.75v-2.687h3.75c-0.292-0.792-0.792-1.417-1.5-1.875-0.667-0.5-1.417-0.75-2.25-0.75-1.083 0-2.021 0.396-2.813 1.187s-1.188 1.729-1.188 2.813 0.396 2.021 1.188 2.813c0.792 0.792 1.729 1.187 2.813 1.187 0.833 0 1.583-0.25 2.25-0.75 0.708-0.5 1.208-1.146 1.5-1.937zM25.937 12.063c1.708 0.125 3.146 0.813 4.313 2.063s1.75 2.771 1.75 4.562c0 1.875-0.646 3.458-1.937 4.75-1.292 1.25-2.875 1.875-4.75 1.875s-3.458-0.625-4.75-1.875c-1.25-1.292-1.875-2.875-1.875-4.75 0-0.833 0.125-1.625 0.375-2.375l-3.688 3.687h-2.187c-0.333 1.542-1.104 2.813-2.313 3.813-1.167 1-2.563 1.5-4.188 1.5-1.875 0-3.458-0.625-4.75-1.875-1.292-1.292-1.938-2.875-1.938-4.75s0.646-3.458 1.938-4.75c1.292-1.292 2.875-1.937 4.75-1.937h15.438l-2.688-2.688h-4.75v-2.625h5.875l5.375 5.375z"></path>
</svg>
