<!-- Generated by IcoMoon.io -->
<svg version="1.1" xmlns="http://www.w3.org/2000/svg" width="32" height="32" viewBox="0 0 32 32">
<title>pan_tool</title>
<path d="M30.687 7.313v19.375c0 1.458-0.542 2.708-1.625 3.75-1.042 1.042-2.292 1.563-3.75 1.563h-9.687c-1.5 0-2.771-0.521-3.813-1.563l-10.5-10.687c1.125-1.083 1.708-1.625 1.75-1.625 0.292-0.25 0.646-0.375 1.063-0.375 0.292 0 0.563 0.063 0.813 0.187l5.75 3.25v-15.875c0-0.542 0.188-1 0.563-1.375 0.417-0.417 0.896-0.625 1.438-0.625s1 0.208 1.375 0.625c0.417 0.375 0.625 0.833 0.625 1.375v9.375h1.313v-12.687c0-0.583 0.187-1.063 0.563-1.438s0.854-0.563 1.437-0.563 1.063 0.188 1.437 0.563c0.375 0.375 0.563 0.854 0.563 1.438v12.687h1.313v-11.375c0-0.542 0.187-1 0.562-1.375 0.417-0.417 0.896-0.625 1.438-0.625s1 0.208 1.375 0.625c0.417 0.375 0.625 0.833 0.625 1.375v11.375h1.375v-7.375c0-0.542 0.187-1 0.563-1.375 0.417-0.417 0.896-0.625 1.437-0.625s1 0.208 1.375 0.625c0.417 0.375 0.625 0.833 0.625 1.375z"></path>
</svg>
