<!-- Generated by IcoMoon.io -->
<svg version="1.1" xmlns="http://www.w3.org/2000/svg" width="32" height="32" viewBox="0 0 32 32">
<title>payment</title>
<path d="M26.687 10.688v-2.688h-21.375v2.688h21.375zM26.687 24v-8h-21.375v8h21.375zM26.687 5.313c0.75 0 1.375 0.271 1.875 0.813 0.5 0.5 0.75 1.125 0.75 1.875v16c0 0.75-0.25 1.396-0.75 1.937-0.5 0.5-1.125 0.75-1.875 0.75h-21.375c-0.75 0-1.375-0.25-1.875-0.75-0.5-0.542-0.75-1.187-0.75-1.937v-16c0-0.75 0.25-1.375 0.75-1.875 0.5-0.542 1.125-0.813 1.875-0.813h21.375z"></path>
</svg>
