<!-- Generated by IcoMoon.io -->
<svg version="1.1" xmlns="http://www.w3.org/2000/svg" width="32" height="32" viewBox="0 0 32 32">
<title>perm_media</title>
<path d="M9.313 20h18.688l-4.687-6-3.313 4-4.687-6-6 8zM29.313 5.313c0.708 0 1.333 0.271 1.875 0.813s0.813 1.167 0.813 1.875v13.313c0 0.708-0.271 1.333-0.813 1.875s-1.167 0.813-1.875 0.813h-21.313c-0.708 0-1.333-0.271-1.875-0.813s-0.813-1.167-0.813-1.875l0.063-16c0-0.708 0.25-1.313 0.75-1.813 0.542-0.542 1.167-0.813 1.875-0.813h8l2.687 2.625h10.625zM2.688 8v18.687h24v2.625h-24c-0.708 0-1.333-0.25-1.875-0.75-0.542-0.542-0.813-1.167-0.813-1.875v-18.687h2.688z"></path>
</svg>
