<!-- Generated by IcoMoon.io -->
<svg version="1.1" xmlns="http://www.w3.org/2000/svg" width="32" height="32" viewBox="0 0 32 32">
<title>perm_device_information</title>
<path d="M22.687 25.313v-18.625h-13.375v18.625h13.375zM22.687 1.375c0.708 0 1.313 0.271 1.813 0.813 0.542 0.5 0.813 1.104 0.813 1.813v24c0 0.708-0.271 1.333-0.813 1.875-0.5 0.542-1.104 0.813-1.813 0.813h-13.375c-0.708 0-1.333-0.271-1.875-0.813-0.5-0.542-0.75-1.167-0.75-1.875v-24c0-0.708 0.25-1.333 0.75-1.875 0.542-0.542 1.167-0.813 1.875-0.813l13.375 0.063zM17.313 14.687v8h-2.625v-8h2.625zM17.313 9.313v2.688h-2.625v-2.688h2.625z"></path>
</svg>
