<!-- Generated by IcoMoon.io -->
<svg version="1.1" xmlns="http://www.w3.org/2000/svg" width="32" height="32" viewBox="0 0 32 32">
<title>perm_data_setting</title>
<path d="M23.875 26.75c0.417 0.375 0.896 0.563 1.438 0.563s1-0.187 1.375-0.563c0.417-0.417 0.625-0.896 0.625-1.437s-0.208-1-0.625-1.375c-0.375-0.417-0.833-0.625-1.375-0.625s-1.021 0.208-1.438 0.625c-0.375 0.375-0.562 0.833-0.562 1.375s0.187 1.021 0.562 1.437zM30.25 26l1.437 1.063c0.125 0.125 0.146 0.271 0.063 0.437l-1.313 2.313c-0.125 0.208-0.271 0.271-0.437 0.187l-1.625-0.687c-0.125 0.125-0.5 0.333-1.125 0.625l-0.25 1.813c0 0.167-0.125 0.25-0.375 0.25h-2.625c-0.25 0-0.375-0.083-0.375-0.25l-0.25-1.813c-0.333-0.167-0.708-0.375-1.125-0.625l-1.625 0.687c-0.208 0.083-0.354 0.021-0.438-0.187l-1.313-2.313c-0.083-0.167-0.062-0.313 0.063-0.437l1.437-1.063c0-0.042-0.021-0.146-0.062-0.313 0-0.167 0-0.292 0-0.375s0-0.187 0-0.313c0.042-0.167 0.062-0.271 0.062-0.313l-1.437-1.125c-0.125-0.125-0.146-0.271-0.063-0.437l1.313-2.313c0.083-0.167 0.229-0.208 0.438-0.125l1.625 0.687c0.5-0.333 0.875-0.562 1.125-0.687l0.25-1.75c0-0.167 0.125-0.25 0.375-0.25h2.625c0.25 0 0.375 0.083 0.375 0.25l0.25 1.75c0.167 0.083 0.542 0.313 1.125 0.687l1.625-0.687c0.208-0.083 0.354-0.042 0.437 0.125l1.313 2.313c0.083 0.167 0.063 0.312-0.063 0.437l-1.437 1.125c0.042 0.125 0.063 0.333 0.063 0.625 0 0.083-0.021 0.208-0.063 0.375 0 0.167 0 0.271 0 0.313zM25.313 15.313c-2.75 0-5.104 0.979-7.063 2.937s-2.937 4.313-2.937 7.063c0 0.333 0.042 0.792 0.125 1.375h-15.437l26.687-26.687-0.062 15.437c-0.583-0.083-1.021-0.125-1.313-0.125z"></path>
</svg>
