<!-- Generated by IcoMoon.io -->
<svg version="1.1" xmlns="http://www.w3.org/2000/svg" width="32" height="32" viewBox="0 0 32 32">
<title>redeem</title>
<path d="M26.687 18.687v-8h-6.813l2.813 3.75-2.187 1.563c-2.667-3.625-4.167-5.667-4.5-6.125-0.333 0.458-1.833 2.5-4.5 6.125l-2.188-1.563 2.813-3.75h-6.813v8h21.375zM26.687 25.313v-2.625h-21.375v2.625h21.375zM12.938 5.75c-0.25-0.292-0.563-0.438-0.938-0.438s-0.688 0.146-0.938 0.438c-0.25 0.25-0.375 0.563-0.375 0.938s0.125 0.688 0.375 0.938c0.25 0.25 0.563 0.375 0.938 0.375s0.688-0.125 0.938-0.375c0.25-0.25 0.375-0.563 0.375-0.938s-0.125-0.688-0.375-0.938zM20.937 5.75c-0.25-0.292-0.563-0.438-0.937-0.438s-0.687 0.146-0.937 0.438c-0.25 0.25-0.375 0.563-0.375 0.938s0.125 0.688 0.375 0.938c0.25 0.25 0.563 0.375 0.937 0.375s0.687-0.125 0.937-0.375c0.25-0.25 0.375-0.563 0.375-0.938s-0.125-0.688-0.375-0.938zM26.687 8c0.75 0 1.375 0.271 1.875 0.813 0.5 0.5 0.75 1.125 0.75 1.875v14.625c0 0.75-0.25 1.396-0.75 1.937-0.5 0.5-1.125 0.75-1.875 0.75h-21.375c-0.75 0-1.375-0.25-1.875-0.75-0.5-0.542-0.75-1.187-0.75-1.937v-14.625c0-0.75 0.25-1.375 0.75-1.875 0.5-0.542 1.125-0.813 1.875-0.813h2.938c-0.167-0.583-0.25-1.021-0.25-1.313 0-1.083 0.396-2.021 1.188-2.813s1.729-1.188 2.813-1.188c1.375 0 2.479 0.583 3.313 1.75l0.687 0.938 0.687-0.938c0.833-1.167 1.938-1.75 3.313-1.75 1.083 0 2.021 0.396 2.813 1.188s1.187 1.729 1.187 2.813c0 0.292-0.083 0.729-0.25 1.313h2.937z"></path>
</svg>
