<!-- Generated by IcoMoon.io -->
<svg version="1.1" xmlns="http://www.w3.org/2000/svg" width="32" height="32" viewBox="0 0 32 32">
<title>restore_page</title>
<path d="M16 24c1.833 0 3.396-0.646 4.687-1.937 1.333-1.333 2-2.917 2-4.75s-0.667-3.396-2-4.688c-1.292-1.292-2.854-1.938-4.687-1.938-2.417 0-4.292 1.021-5.625 3.063l-1.688-1.75v5.313h5.313l-2.125-2.125c0.833-1.667 2.208-2.5 4.125-2.5 1.292 0 2.396 0.458 3.313 1.375 0.917 0.875 1.375 1.958 1.375 3.25s-0.458 2.396-1.375 3.313c-0.917 0.917-2.021 1.375-3.313 1.375-1.625 0-2.896-0.667-3.813-2h-2.313c0.5 1.208 1.292 2.187 2.375 2.937 1.125 0.708 2.375 1.063 3.75 1.063zM18.687 2.688l8 8v16c0 0.708-0.271 1.333-0.813 1.875-0.542 0.5-1.167 0.75-1.875 0.75h-16c-0.708 0-1.333-0.25-1.875-0.75-0.542-0.542-0.813-1.167-0.813-1.875l0.063-21.375c0-0.708 0.25-1.313 0.75-1.813 0.542-0.542 1.167-0.813 1.875-0.813h10.687z"></path>
</svg>
