<!-- Generated by IcoMoon.io -->
<svg version="1.1" xmlns="http://www.w3.org/2000/svg" width="32" height="32" viewBox="0 0 32 32">
<title>room</title>
<path d="M13.625 14.375c0.667 0.625 1.458 0.938 2.375 0.938s1.687-0.313 2.313-0.938c0.667-0.667 1-1.458 1-2.375s-0.333-1.688-1-2.313c-0.625-0.667-1.396-1-2.313-1s-1.708 0.333-2.375 1c-0.625 0.625-0.938 1.396-0.938 2.313s0.313 1.708 0.938 2.375zM9.375 5.438c1.833-1.833 4.042-2.75 6.625-2.75s4.771 0.917 6.563 2.75c1.833 1.792 2.75 3.979 2.75 6.563 0 1.292-0.333 2.771-1 4.437-0.625 1.667-1.396 3.229-2.313 4.688s-1.833 2.833-2.75 4.125c-0.875 1.25-1.625 2.25-2.25 3l-1 1.063c-0.25-0.292-0.583-0.667-1-1.125-0.417-0.5-1.167-1.458-2.25-2.875-1.083-1.458-2.042-2.854-2.875-4.187-0.792-1.375-1.521-2.917-2.188-4.625s-1-3.208-1-4.5c0-2.583 0.896-4.771 2.688-6.563z"></path>
</svg>
