<!-- Generated by IcoMoon.io -->
<svg version="1.1" xmlns="http://www.w3.org/2000/svg" width="32" height="32" viewBox="0 0 32 32">
<title>settings_voice</title>
<path d="M25.313 13.313c0 2.25-0.792 4.229-2.375 5.938-1.542 1.708-3.417 2.729-5.625 3.063v4.375h-2.625v-4.375c-2.208-0.333-4.104-1.354-5.687-3.063-1.542-1.708-2.313-3.687-2.313-5.938h2.25c0 1.958 0.688 3.583 2.063 4.875 1.417 1.292 3.083 1.938 5 1.938s3.563-0.646 4.937-1.938c1.417-1.292 2.125-2.917 2.125-4.875h2.25zM20 32v-2.687h2.687v2.687h-2.687zM14.687 32v-2.687h2.625v2.687h-2.625zM18.813 16.125c-0.792 0.792-1.729 1.187-2.813 1.187s-2.021-0.396-2.813-1.187c-0.792-0.792-1.188-1.729-1.188-2.813v-8c0-1.083 0.396-2.021 1.188-2.813s1.729-1.188 2.813-1.188 2.021 0.396 2.813 1.188c0.792 0.792 1.187 1.729 1.187 2.813v8c0 1.083-0.396 2.021-1.187 2.813zM9.313 32v-2.687h2.688v2.687h-2.688z"></path>
</svg>
