<!-- Generated by IcoMoon.io -->
<svg version="1.1" xmlns="http://www.w3.org/2000/svg" width="32" height="32" viewBox="0 0 32 32">
<title>settings_input_antenna</title>
<path d="M5.625 5.625c2.875-2.875 6.333-4.313 10.375-4.313s7.5 1.438 10.375 4.313c2.875 2.875 4.313 6.333 4.313 10.375h-2.687c0-3.333-1.167-6.167-3.5-8.5s-5.167-3.5-8.5-3.5c-3.333 0-6.167 1.167-8.5 3.5s-3.5 5.167-3.5 8.5h-2.688c0-4.042 1.438-7.5 4.313-10.375zM17.313 19.063v4.375l4.562 4.563-1.875 1.875-4-4-4 4-1.875-1.875 4.562-4.563v-4.375c-1.333-0.542-2-1.563-2-3.063 0-0.917 0.313-1.687 0.938-2.313 0.667-0.667 1.458-1 2.375-1s1.687 0.333 2.313 1c0.667 0.625 1 1.396 1 2.313 0 1.5-0.667 2.521-2 3.063zM9.375 9.438c1.833-1.833 4.042-2.75 6.625-2.75s4.771 0.917 6.563 2.75c1.833 1.792 2.75 3.979 2.75 6.563h-2.625c0-1.833-0.667-3.396-2-4.688-1.292-1.333-2.854-2-4.687-2s-3.417 0.667-4.75 2c-1.292 1.292-1.938 2.854-1.938 4.688h-2.625c0-2.583 0.896-4.771 2.688-6.563z"></path>
</svg>
