<!-- Generated by IcoMoon.io -->
<svg version="1.1" xmlns="http://www.w3.org/2000/svg" width="32" height="32" viewBox="0 0 32 32">
<title>settings</title>
<path d="M12.688 19.313c0.917 0.917 2.021 1.375 3.313 1.375s2.396-0.458 3.313-1.375c0.917-0.917 1.375-2.021 1.375-3.313s-0.458-2.396-1.375-3.313c-0.917-0.917-2.021-1.375-3.313-1.375s-2.396 0.458-3.313 1.375c-0.917 0.917-1.375 2.021-1.375 3.313s0.458 2.396 1.375 3.313zM25.937 17.313l2.813 2.187c0.292 0.208 0.333 0.5 0.125 0.875l-2.687 4.625c-0.167 0.292-0.437 0.375-0.813 0.25l-3.312-1.313c-0.875 0.625-1.625 1.063-2.25 1.313l-0.5 3.5c-0.083 0.375-0.292 0.563-0.625 0.563h-5.375c-0.333 0-0.542-0.187-0.625-0.563l-0.5-3.5c-0.792-0.333-1.542-0.771-2.25-1.313l-3.313 1.313c-0.375 0.125-0.646 0.042-0.813-0.25l-2.688-4.625c-0.208-0.375-0.167-0.667 0.125-0.875l2.813-2.187c-0.042-0.292-0.063-0.729-0.063-1.313s0.021-1.021 0.063-1.313l-2.813-2.187c-0.292-0.208-0.333-0.5-0.125-0.875l2.688-4.625c0.167-0.292 0.438-0.375 0.813-0.25l3.313 1.313c0.875-0.625 1.625-1.063 2.25-1.313l0.5-3.5c0.083-0.375 0.292-0.563 0.625-0.563h5.375c0.333 0 0.542 0.188 0.625 0.563l0.5 3.5c0.792 0.333 1.542 0.771 2.25 1.313l3.312-1.313c0.375-0.125 0.646-0.042 0.813 0.25l2.687 4.625c0.208 0.375 0.167 0.667-0.125 0.875l-2.813 2.187c0.042 0.292 0.063 0.729 0.063 1.313s-0.021 1.021-0.063 1.313z"></path>
</svg>
