<!-- Generated by IcoMoon.io -->
<svg version="1.1" xmlns="http://www.w3.org/2000/svg" width="32" height="32" viewBox="0 0 32 32">
<title>settings_applications</title>
<path d="M22.937 16.937c0.042-0.208 0.063-0.521 0.063-0.937s-0.021-0.729-0.063-0.937l2-1.5c0.208-0.167 0.229-0.375 0.063-0.625l-1.875-3.25c-0.125-0.208-0.313-0.271-0.563-0.188l-2.313 0.938c-0.542-0.417-1.063-0.729-1.563-0.938l-0.375-2.438c-0.083-0.25-0.229-0.375-0.438-0.375h-3.75c-0.25 0-0.396 0.125-0.438 0.375l-0.375 2.5c-0.667 0.292-1.188 0.583-1.563 0.875l-2.313-0.938c-0.208-0.083-0.396 0-0.563 0.25l-1.875 3.188c-0.167 0.25-0.146 0.458 0.063 0.625l2 1.5c-0.042 0.208-0.063 0.521-0.063 0.937s0.021 0.729 0.063 0.937l-2 1.5c-0.208 0.167-0.229 0.375-0.063 0.625l1.875 3.25c0.125 0.208 0.313 0.271 0.563 0.187l2.313-0.937c0.542 0.417 1.063 0.729 1.563 0.937l0.375 2.437c0.083 0.25 0.229 0.375 0.438 0.375h3.75c0.25 0 0.396-0.125 0.438-0.375l0.375-2.5c0.667-0.292 1.187-0.583 1.563-0.875l2.313 0.937c0.208 0.083 0.396 0 0.563-0.25l1.875-3.187c0.167-0.25 0.146-0.458-0.063-0.625l-2-1.5zM25.313 4c0.75 0 1.375 0.271 1.875 0.813 0.542 0.542 0.813 1.167 0.813 1.875v18.625c0 0.708-0.271 1.333-0.813 1.875-0.5 0.542-1.125 0.813-1.875 0.813h-18.625c-0.75 0-1.396-0.271-1.938-0.813-0.5-0.542-0.75-1.167-0.75-1.875v-18.625c0-0.708 0.25-1.333 0.75-1.875 0.542-0.542 1.188-0.813 1.938-0.813h18.625zM14.125 14.125c0.542-0.542 1.167-0.813 1.875-0.813s1.333 0.271 1.875 0.813c0.542 0.542 0.813 1.167 0.813 1.875s-0.271 1.333-0.813 1.875c-0.542 0.542-1.167 0.813-1.875 0.813s-1.333-0.271-1.875-0.813c-0.542-0.542-0.813-1.167-0.813-1.875s0.271-1.333 0.813-1.875z"></path>
</svg>
