<!-- Generated by IcoMoon.io -->
<svg version="1.1" xmlns="http://www.w3.org/2000/svg" width="32" height="32" viewBox="0 0 32 32">
<title>settings_overscan</title>
<path d="M28 25.375v-18.75h-24v18.75h24zM28 4c0.708 0 1.333 0.271 1.875 0.813s0.813 1.167 0.813 1.875v18.625c0 0.708-0.271 1.333-0.813 1.875s-1.167 0.813-1.875 0.813h-24c-0.708 0-1.333-0.271-1.875-0.813s-0.813-1.167-0.813-1.875v-18.625c0-0.708 0.271-1.333 0.813-1.875s1.167-0.813 1.875-0.813h24zM18.687 21.313l-2.687 3.375-2.688-3.375h5.375zM8 13.313v5.375l-3.313-2.687 3.313-2.688zM24 13.313l3.313 2.688-3.313 2.687v-5.375zM16 7.313l2.687 3.375h-5.375l2.688-3.375z"></path>
</svg>
