<!-- Generated by IcoMoon.io -->
<svg version="1.1" xmlns="http://www.w3.org/2000/svg" width="32" height="32" viewBox="0 0 32 32">
<title>settings_cell</title>
<path d="M21.313 21.313v-16h-10.625v16h10.625zM21.313 0c0.708 0 1.333 0.271 1.875 0.813s0.813 1.167 0.813 1.875v21.313c0 0.708-0.271 1.333-0.813 1.875s-1.167 0.813-1.875 0.813h-10.625c-0.708 0-1.333-0.271-1.875-0.813s-0.813-1.167-0.813-1.875v-21.313c0-0.708 0.271-1.333 0.813-1.875s1.167-0.813 1.875-0.813h10.625zM20 32v-2.687h2.687v2.687h-2.687zM14.687 32v-2.687h2.625v2.687h-2.625zM9.313 32v-2.687h2.688v2.687h-2.688z"></path>
</svg>
