<!-- Generated by IcoMoon.io -->
<svg version="1.1" xmlns="http://www.w3.org/2000/svg" width="32" height="32" viewBox="0 0 32 32">
<title>settings_input_composite</title>
<path d="M22.687 21.313v-2.625h8v2.625c0 0.875-0.25 1.646-0.75 2.313s-1.146 1.146-1.937 1.437v5.625h-2.687v-5.625c-1.75-0.625-2.625-1.875-2.625-3.75zM17.313 2.688v5.313h2.687v8h-8v-8h2.687v-5.313c0-0.375 0.125-0.688 0.375-0.938 0.25-0.292 0.563-0.438 0.937-0.438s0.687 0.146 0.937 0.438c0.25 0.25 0.375 0.563 0.375 0.938zM28 8h2.687v8h-8v-8h2.625v-5.313c0-0.375 0.125-0.688 0.375-0.938 0.292-0.292 0.625-0.438 1-0.438s0.687 0.146 0.938 0.438c0.25 0.25 0.375 0.563 0.375 0.938v5.313zM1.313 21.313v-2.625h8v2.625c0 1.875-0.875 3.125-2.625 3.75v5.625h-2.688v-5.625c-0.792-0.292-1.438-0.771-1.938-1.437s-0.75-1.438-0.75-2.313zM12 21.313v-2.625h8v2.625c0 0.875-0.25 1.646-0.75 2.313s-1.146 1.146-1.937 1.437v5.625h-2.625v-5.625c-0.792-0.292-1.437-0.771-1.937-1.437s-0.75-1.438-0.75-2.313zM6.688 2.688v5.313h2.625v8h-8v-8h2.688v-5.313c0-0.375 0.125-0.688 0.375-0.938 0.25-0.292 0.563-0.438 0.938-0.438s0.688 0.146 0.938 0.438c0.292 0.25 0.438 0.563 0.438 0.938z"></path>
</svg>
