<!-- Generated by IcoMoon.io -->
<svg version="1.1" xmlns="http://www.w3.org/2000/svg" width="32" height="32" viewBox="0 0 32 32">
<title>settings_backup_restore</title>
<path d="M7.5 7.5c2.333-2.333 5.167-3.5 8.5-3.5s6.167 1.167 8.5 3.5c2.333 2.333 3.5 5.167 3.5 8.5s-1.167 6.167-3.5 8.5c-2.333 2.333-5.167 3.5-8.5 3.5-2.75 0-5.188-0.833-7.313-2.5l1.875-1.875c1.667 1.125 3.479 1.687 5.438 1.687 2.583 0 4.771-0.896 6.563-2.687 1.833-1.833 2.75-4.042 2.75-6.625s-0.917-4.771-2.75-6.563c-1.792-1.833-3.979-2.75-6.563-2.75s-4.792 0.917-6.625 2.75c-1.792 1.792-2.688 3.979-2.688 6.563h4l-5.375 5.313-5.313-5.313h4c0-3.333 1.167-6.167 3.5-8.5zM17.875 14.125c0.542 0.542 0.813 1.167 0.813 1.875s-0.271 1.333-0.813 1.875c-0.542 0.542-1.167 0.813-1.875 0.813s-1.333-0.271-1.875-0.813c-0.542-0.542-0.813-1.167-0.813-1.875s0.271-1.333 0.813-1.875c0.542-0.542 1.167-0.813 1.875-0.813s1.333 0.271 1.875 0.813z"></path>
</svg>
