<!-- Generated by IcoMoon.io -->
<svg version="1.1" xmlns="http://www.w3.org/2000/svg" width="32" height="32" viewBox="0 0 32 32">
<title>shopping_basket</title>
<path d="M14.125 21.875c0.542 0.542 1.167 0.813 1.875 0.813s1.333-0.271 1.875-0.813c0.542-0.542 0.813-1.167 0.813-1.875s-0.271-1.333-0.813-1.875c-0.542-0.542-1.167-0.813-1.875-0.813s-1.333 0.271-1.875 0.813c-0.542 0.542-0.813 1.167-0.813 1.875s0.271 1.333 0.813 1.875zM12 12h8l-4-5.875-4 5.875zM22.937 12h6.375c0.375 0 0.687 0.125 0.937 0.375 0.292 0.25 0.437 0.563 0.437 0.938-0.417 1.667-1.042 4.021-1.875 7.062-0.833 3-1.354 4.896-1.563 5.688-0.375 1.292-1.229 1.937-2.563 1.937h-17.375c-1.333 0-2.188-0.646-2.563-1.937l-3.375-12.375c-0.042-0.083-0.063-0.208-0.063-0.375 0-0.375 0.125-0.688 0.375-0.938 0.292-0.25 0.625-0.375 1-0.375h6.375l5.812-8.75c0.25-0.375 0.625-0.563 1.125-0.563s0.875 0.188 1.125 0.563l5.812 8.75z"></path>
</svg>
