<!-- Generated by IcoMoon.io -->
<svg version="1.1" xmlns="http://www.w3.org/2000/svg" width="32" height="32" viewBox="0 0 32 32">
<title>speaker_notes</title>
<path d="M24 10.688v-2.688h-10.688v2.688h10.688zM24 14.687v-2.687h-10.688v2.687h10.688zM20 18.687v-2.687h-6.688v2.687h6.688zM10.688 10.688v-2.688h-2.688v2.688h2.688zM10.688 14.687v-2.687h-2.688v2.687h2.688zM10.688 18.687v-2.687h-2.688v2.687h2.688zM26.687 2.688c0.708 0 1.313 0.271 1.813 0.813 0.542 0.5 0.813 1.104 0.813 1.813v16c0 0.708-0.271 1.333-0.813 1.875-0.5 0.542-1.104 0.813-1.813 0.813h-18.687l-5.313 5.313v-24c0-0.708 0.25-1.313 0.75-1.813 0.542-0.542 1.167-0.813 1.875-0.813h21.375z"></path>
</svg>
