<!-- Generated by IcoMoon.io -->
<svg version="1.1" xmlns="http://www.w3.org/2000/svg" width="32" height="32" viewBox="0 0 32 32">
<title>speaker_notes_off</title>
<path d="M26.687 2.688c0.708 0 1.313 0.271 1.813 0.813 0.542 0.5 0.813 1.104 0.813 1.813v16c0 0.708-0.25 1.333-0.75 1.875-0.5 0.5-1.104 0.771-1.813 0.813l-9.313-9.313h6.563v-2.687h-9.25l-1.313-1.313h10.563v-2.688h-10.688v2.563l-7.875-7.875h21.25zM8 14.687h2.688l-2.688-2.687v2.687zM10.688 18.687v-2.687h-2.688v2.687h2.688zM1.688 2.313l27.625 27.625-1.687 1.688-7.625-7.625h-12l-5.313 5.313v-22.625l-2.688-2.688 1.688-1.688z"></path>
</svg>
