<!-- Generated by IcoMoon.io -->
<svg version="1.1" xmlns="http://www.w3.org/2000/svg" width="32" height="32" viewBox="0 0 32 32">
<title>supervisor_account</title>
<path d="M12 17.313c0.917 0 1.979 0.125 3.187 0.375-2.125 1.167-3.187 2.708-3.187 4.625v3h-9.313v-3.313c0-0.958 0.563-1.813 1.688-2.563 1.167-0.75 2.438-1.292 3.813-1.625s2.646-0.5 3.813-0.5zM17.187 19.687c1.667-0.667 3.271-1 4.813-1s3.146 0.333 4.813 1c1.667 0.667 2.5 1.542 2.5 2.625v3h-14.625v-3c0-1.083 0.833-1.958 2.5-2.625zM14.813 13.5c-0.792 0.792-1.729 1.187-2.813 1.187s-2.021-0.396-2.813-1.187c-0.792-0.792-1.188-1.729-1.188-2.813s0.396-2.021 1.188-2.813c0.792-0.792 1.729-1.188 2.813-1.188s2.021 0.396 2.813 1.188c0.792 0.792 1.187 1.729 1.187 2.813s-0.396 2.021-1.187 2.813zM24.313 15.063c-0.625 0.625-1.396 0.937-2.313 0.937s-1.708-0.313-2.375-0.937c-0.625-0.667-0.938-1.458-0.938-2.375s0.313-1.708 0.938-2.375c0.667-0.667 1.458-1 2.375-1s1.687 0.333 2.313 1c0.667 0.667 1 1.458 1 2.375s-0.333 1.708-1 2.375z"></path>
</svg>
