<!-- Generated by IcoMoon.io -->
<svg version="1.1" xmlns="http://www.w3.org/2000/svg" width="32" height="32" viewBox="0 0 32 32">
<title>swap_vertical_circle</title>
<path d="M23.313 20h-3.313v-5.313h-2.687v5.313h-3.313l4.687 4.687 4.625-4.687zM8.688 12h3.313v5.313h2.687v-5.313h3.313l-4.688-4.688-4.625 4.688zM6.563 6.625c2.625-2.625 5.771-3.938 9.438-3.938s6.792 1.313 9.375 3.938c2.625 2.583 3.938 5.708 3.938 9.375s-1.313 6.813-3.938 9.437c-2.583 2.583-5.708 3.875-9.375 3.875s-6.813-1.292-9.438-3.875c-2.583-2.625-3.875-5.771-3.875-9.437s1.292-6.792 3.875-9.375z"></path>
</svg>
