<!-- Generated by IcoMoon.io -->
<svg version="1.1" xmlns="http://www.w3.org/2000/svg" width="32" height="32" viewBox="0 0 32 32">
<title>timeline</title>
<path d="M29.875 8.813c0.542 0.542 0.813 1.167 0.813 1.875s-0.271 1.333-0.813 1.875c-0.542 0.5-1.167 0.75-1.875 0.75-0.333 0-0.563-0.021-0.687-0.063l-4.75 4.75c0.083 0.25 0.125 0.479 0.125 0.687 0 0.708-0.271 1.333-0.813 1.875-0.542 0.5-1.167 0.75-1.875 0.75s-1.333-0.25-1.875-0.75c-0.542-0.542-0.813-1.167-0.813-1.875 0-0.208 0.042-0.437 0.125-0.687l-3.437-3.437c-0.25 0.083-0.479 0.125-0.688 0.125s-0.438-0.042-0.688-0.125l-6.063 6.063c0.083 0.25 0.125 0.479 0.125 0.687 0 0.708-0.271 1.333-0.813 1.875s-1.167 0.813-1.875 0.813-1.333-0.271-1.875-0.813c-0.542-0.542-0.813-1.167-0.813-1.875s0.271-1.313 0.813-1.813c0.542-0.542 1.167-0.813 1.875-0.813 0.333 0 0.563 0.021 0.688 0.063l6.063-6.063c-0.042-0.125-0.063-0.354-0.063-0.688 0-0.708 0.25-1.333 0.75-1.875 0.542-0.542 1.167-0.813 1.875-0.813s1.333 0.271 1.875 0.813c0.542 0.542 0.813 1.167 0.813 1.875 0 0.333-0.021 0.563-0.063 0.688l3.375 3.375c0.125-0.042 0.354-0.063 0.687-0.063s0.563 0.021 0.687 0.063l4.75-4.688c-0.083-0.25-0.125-0.479-0.125-0.688 0-0.708 0.271-1.333 0.813-1.875s1.167-0.813 1.875-0.813 1.333 0.271 1.875 0.813z"></path>
</svg>
