<!-- Generated by IcoMoon.io -->
<svg version="1.1" xmlns="http://www.w3.org/2000/svg" width="32" height="32" viewBox="0 0 32 32">
<title>translate</title>
<path d="M21.187 22.687h4.313l-2.187-5.813-2.125 5.813zM24.687 13.313l6 16h-2.687l-1.5-4h-6.313l-1.5 4h-2.687l6-16h2.687zM17.187 20.063l-1.062 2.75-4.125-4.125-6.688 6.625-1.875-1.875 6.813-6.687c-1.667-1.833-3-3.854-4-6.063h2.688c0.875 1.667 1.896 3.146 3.063 4.438 1.917-2.125 3.333-4.5 4.25-7.125h-14.938v-2.688h9.375v-2.625h2.625v2.625h9.375v2.688h-3.937c-1.083 3.333-2.729 6.229-4.937 8.687l-0.063 0.063 3.437 3.313z"></path>
</svg>
