<!-- Generated by IcoMoon.io -->
<svg version="1.1" xmlns="http://www.w3.org/2000/svg" width="32" height="32" viewBox="0 0 32 32">
<title>update</title>
<path d="M16.687 10.688v5.625l4.625 2.813-0.938 1.625-5.687-3.437v-6.625h2zM28 13.5h-9.063l3.688-3.75c-1.833-1.833-4.042-2.75-6.625-2.75-2.542-0.042-4.729 0.833-6.563 2.625-1.792 1.833-2.688 4-2.688 6.5s0.896 4.667 2.688 6.5c1.792 1.833 3.979 2.75 6.563 2.75s4.792-0.917 6.625-2.75c1.792-1.792 2.687-3.958 2.687-6.5h2.687c0 3.292-1.167 6.083-3.5 8.375-2.333 2.333-5.167 3.5-8.5 3.5s-6.167-1.167-8.5-3.5c-2.333-2.292-3.5-5.063-3.5-8.313 0-3.292 1.167-6.104 3.5-8.437s5.146-3.5 8.437-3.5c3.292 0 6.104 1.167 8.437 3.5l3.625-3.75v9.5z"></path>
</svg>
