<!-- Generated by IcoMoon.io -->
<svg version="1.1" xmlns="http://www.w3.org/2000/svg" width="32" height="32" viewBox="0 0 32 32">
<title>view_week</title>
<path d="M17.313 6.688c0.375 0 0.687 0.125 0.937 0.375 0.292 0.25 0.437 0.563 0.437 0.938v16c0 0.375-0.146 0.687-0.437 0.937-0.25 0.25-0.563 0.375-0.937 0.375h-4c-0.375 0-0.688-0.125-0.938-0.375s-0.375-0.563-0.375-0.937v-16c0-0.375 0.125-0.688 0.375-0.938s0.563-0.375 0.938-0.375h4zM26.687 6.688c0.375 0 0.687 0.125 0.938 0.375s0.375 0.563 0.375 0.938v16c0 0.375-0.125 0.687-0.375 0.937s-0.563 0.375-0.938 0.375h-4c-0.375 0-0.708-0.125-1-0.375-0.25-0.25-0.375-0.563-0.375-0.937v-16c0-0.375 0.125-0.688 0.375-0.938 0.292-0.25 0.625-0.375 1-0.375h4zM8 6.688c0.375 0 0.688 0.125 0.938 0.375s0.375 0.563 0.375 0.938v16c0 0.375-0.125 0.687-0.375 0.937s-0.563 0.375-0.938 0.375h-4c-0.375 0-0.688-0.125-0.938-0.375s-0.375-0.563-0.375-0.937v-16c0-0.375 0.125-0.688 0.375-0.938s0.563-0.375 0.938-0.375h4z"></path>
</svg>
