<!-- Generated by IcoMoon.io -->
<svg version="1.1" xmlns="http://www.w3.org/2000/svg" width="32" height="32" viewBox="0 0 32 32">
<title>view_day</title>
<path d="M2.688 4h25.313v4h-25.313v-4zM26.687 10.688c0.375 0 0.687 0.125 0.938 0.375s0.375 0.563 0.375 0.938v8c0 0.375-0.125 0.687-0.375 0.937s-0.563 0.375-0.938 0.375h-22.687c-0.375 0-0.688-0.125-0.938-0.375s-0.375-0.563-0.375-0.937v-8c0-0.375 0.125-0.688 0.375-0.938s0.563-0.375 0.938-0.375h22.687zM2.688 28v-4h25.313v4h-25.313z"></path>
</svg>
