<!-- Generated by IcoMoon.io -->
<svg version="1.1" xmlns="http://www.w3.org/2000/svg" width="32" height="32" viewBox="0 0 32 32">
<title>visibility_off</title>
<path d="M15.813 12h0.187c1.083 0 2.021 0.396 2.813 1.188s1.187 1.729 1.187 2.813v0.25l-4.187-4.25zM10.063 13.063c-0.5 1-0.75 1.979-0.75 2.938 0 1.833 0.646 3.417 1.938 4.75 1.333 1.292 2.917 1.937 4.75 1.937 0.958 0 1.937-0.25 2.937-0.75l-2.063-2.063c-0.333 0.083-0.625 0.125-0.875 0.125-1.083 0-2.021-0.396-2.813-1.187s-1.188-1.729-1.188-2.813c0-0.25 0.042-0.542 0.125-0.875l-2.063-2.063zM2.688 5.688l1.688-1.688 23.625 23.625-1.687 1.687c-0.208-0.208-0.875-0.854-2-1.938-1.083-1.083-1.917-1.917-2.5-2.5-1.792 0.75-3.729 1.125-5.813 1.125-3.292 0-6.271-0.917-8.938-2.75s-4.583-4.25-5.75-7.25c1.042-2.583 2.708-4.792 5-6.625-0.5-0.5-1.208-1.208-2.125-2.125-0.875-0.917-1.375-1.438-1.5-1.563zM16 9.313c-0.833 0-1.646 0.167-2.437 0.5l-2.875-2.875c1.625-0.625 3.396-0.938 5.313-0.938 3.292 0 6.25 0.917 8.875 2.75 2.667 1.833 4.583 4.25 5.75 7.25-1 2.458-2.521 4.563-4.563 6.313l-3.875-3.875c0.333-0.792 0.5-1.604 0.5-2.437 0-1.833-0.667-3.396-2-4.688-1.292-1.333-2.854-2-4.687-2z"></path>
</svg>
