<!-- Generated by IcoMoon.io -->
<svg version="1.1" xmlns="http://www.w3.org/2000/svg" width="32" height="32" viewBox="0 0 32 32">
<title>youtube_searched_for</title>
<path d="M22.687 18.687l6.625 6.625-1.938 2-6.687-6.687v-1l-0.375-0.375c-1.583 1.375-3.458 2.063-5.625 2.063-1.583 0-3.062-0.396-4.437-1.187l2-1.938c0.792 0.333 1.604 0.5 2.437 0.5 1.667 0 3.083-0.583 4.25-1.75s1.75-2.583 1.75-4.25c0-1.667-0.583-3.083-1.75-4.25s-2.583-1.75-4.25-1.75c-1.667 0-3.083 0.583-4.25 1.75s-1.75 2.583-1.75 4.25h4.625l-5.5 5.313-5.125-5.313h3.313c0-2.375 0.854-4.417 2.563-6.125s3.75-2.563 6.125-2.563c2.417 0 4.458 0.854 6.125 2.563 1.708 1.667 2.562 3.708 2.562 6.125 0 2.125-0.708 4-2.125 5.625l0.375 0.375h1.062z"></path>
</svg>
